<?xml version="1.0" encoding="UTF-8"?>
<svg width="29px" height="26px" viewBox="0 0 29 26" version="1.1" xmlns="http://www.w3.org/2000/svg" xmlns:xlink="http://www.w3.org/1999/xlink">
    <!-- Generator: Sketch 61 (89581) - https://sketch.com -->
    <title>title</title>
    <desc>Created with Sketch.</desc>
    <g id="Page-1" stroke="none" stroke-width="1" fill="none" fill-rule="evenodd">
        <g id="1" transform="translate(-388.000000, -553.000000)" fill="#0063E8" fill-rule="nonzero">
            <g id="title" transform="translate(388.000000, 553.000000)">
                <path d="M14.4355552,12.9625394 C13.9476924,12.9625394 13.5517457,12.5665927 13.5517457,12.0787299 L13.5517457,11.1949204 L5.30285702,11.1949204 L5.30285702,12.0787299 C5.30285702,12.5665927 4.90691037,12.9625394 4.41904752,12.9625394 C3.93118467,12.9625394 3.53523802,12.5665927 3.53523802,12.0787299 L3.53523802,10.3111109 C3.53523802,9.82324803 3.93118467,9.42730138 4.41904752,9.42730138 L14.4355552,9.42730138 C14.9234181,9.42730138 15.3193647,9.82324803 15.3193647,10.3111109 L15.3193647,12.0787299 C15.3193647,12.5665927 14.9234181,12.9625394 14.4355552,12.9625394 Z" id="Path"></path>
                <path d="M9.42730138,20.9168249 C8.93943853,20.9168249 8.54349187,20.5208783 8.54349187,20.0330154 L8.54349187,10.605714 C8.54349187,10.1178512 8.93943853,9.72190454 9.42730138,9.72190454 C9.91516422,9.72190454 10.3111109,10.1178512 10.3111109,10.605714 L10.3111109,20.0330154 C10.3111109,20.5208783 9.91516422,20.9168249 9.42730138,20.9168249 Z" id="Path"></path>
                <path d="M10.9003172,21.2114281 L7.95428554,21.2114281 C7.46642269,21.2114281 7.07047603,20.8154814 7.07047603,20.3276186 C7.07047603,19.8397557 7.46642269,19.4438091 7.95428554,19.4438091 L10.9003172,19.4438091 C11.3881801,19.4438091 11.7841267,19.8397557 11.7841267,20.3276186 C11.7841267,20.8154814 11.3881801,21.2114281 10.9003172,21.2114281 Z" id="Path"></path>
                <path d="M23.8628566,11.1949204 L18.5599996,11.1949204 C18.0721367,11.1949204 17.6761901,10.7989737 17.6761901,10.3111109 C17.6761901,9.82324803 18.0721367,9.42730138 18.5599996,9.42730138 L23.8628566,9.42730138 C24.3507195,9.42730138 24.7466661,9.82324803 24.7466661,10.3111109 C24.7466661,10.7989737 24.3507195,11.1949204 23.8628566,11.1949204 Z" id="Path"></path>
                <path d="M23.8628566,15.9085711 L18.5599996,15.9085711 C18.0721367,15.9085711 17.6761901,15.5126244 17.6761901,15.0247616 C17.6761901,14.5368987 18.0721367,14.1409521 18.5599996,14.1409521 L23.8628566,14.1409521 C24.3507195,14.1409521 24.7466661,14.5368987 24.7466661,15.0247616 C24.7466661,15.5126244 24.3507195,15.9085711 23.8628566,15.9085711 Z" id="Path"></path>
                <path d="M23.8628566,20.6222218 L18.5599996,20.6222218 C18.0721367,20.6222218 17.6761901,20.2262751 17.6761901,19.7384123 C17.6761901,19.2505494 18.0721367,18.8546028 18.5599996,18.8546028 L23.8628566,18.8546028 C24.3507195,18.8546028 24.7466661,19.2505494 24.7466661,19.7384123 C24.7466661,20.2262751 24.3507195,20.6222218 23.8628566,20.6222218 Z" id="Path"></path>
                <path d="M25.0412693,25.9250788 L3.24063485,25.9250788 C1.45298282,25.9250788 0,24.472096 0,22.6844439 L0,3.24063485 C0,1.45298282 1.45298282,0 3.24063485,0 L25.0412693,0 C26.8289213,0 28.2819041,1.45298282 28.2819041,3.24063485 L28.2819041,22.6844439 C28.2819041,24.472096 26.8289213,25.9250788 25.0412693,25.9250788 Z M3.24063485,1.76761901 C2.42870852,1.76761901 1.76761901,2.42870852 1.76761901,3.24063485 L1.76761901,22.6844439 C1.76761901,23.4963703 2.42870852,24.1574598 3.24063485,24.1574598 L25.0412693,24.1574598 C25.8531956,24.1574598 26.5142851,23.4963703 26.5142851,22.6844439 L26.5142851,3.24063485 C26.5142851,2.42870852 25.8531956,1.76761901 25.0412693,1.76761901 L3.24063485,1.76761901 Z" id="Shape"></path>
                <path d="M27.3980946,5.89206336 L0.883809504,5.89206336 C0.395946658,5.89206336 0,5.4961167 0,5.00825386 C0,4.52039101 0.395946658,4.12444435 0.883809504,4.12444435 L27.3980946,4.12444435 C27.8859575,4.12444435 28.2819041,4.52039101 28.2819041,5.00825386 C28.2819041,5.4961167 27.8859575,5.89206336 27.3980946,5.89206336 Z" id="Path"></path>
            </g>
        </g>
    </g>
</svg>