<?xml version="1.0" encoding="UTF-8"?>
<svg width="28px" height="28px" viewBox="0 0 28 28" version="1.1" xmlns="http://www.w3.org/2000/svg" xmlns:xlink="http://www.w3.org/1999/xlink">
    <!-- Generator: Sketch 61 (89581) - https://sketch.com -->
    <title>image (1)</title>
    <desc>Created with Sketch.</desc>
    <g id="Page-1" stroke="none" stroke-width="1" fill="none" fill-rule="evenodd">
        <g id="1" transform="translate(-389.000000, -719.000000)" fill="#0063E8" fill-rule="nonzero">
            <g id="image-(1)" transform="translate(389.000000, 719.000000)">
                <path d="M25.375,0 L2.625,0 C1.17523437,0 0,1.17523437 0,2.625 L0,25.375 C0,26.8247656 1.17523437,28 2.625,28 L25.375,28 C26.8247656,28 28,26.8247656 28,25.375 L28,2.625 C28,1.17523437 26.8247656,0 25.375,0 Z M26.25,25.375 C26.25,25.8582734 25.8582734,26.25 25.375,26.25 L2.625,26.25 C2.14172656,26.25 1.75,25.8582734 1.75,25.375 L1.75,2.625 C1.75,2.14172656 2.14172656,1.75 2.625,1.75 L25.375,1.75 C25.8582734,1.75 26.25,2.14172656 26.25,2.625 L26.25,25.375 Z" id="Shape"></path>
                <path d="M18.99625,15.12875 C18.6549453,14.7894687 18.1038047,14.7894687 17.7625,15.12875 L15.75,17.14125 L11.99625,13.3875 C11.6549453,13.0482188 11.1038047,13.0482188 10.7625,13.3875 L4.6375,19.5125 C4.29920313,19.8575781 4.30461719,20.4115625 4.64969531,20.7498594 C4.81020313,20.90725 5.02517969,20.9968281 5.25,21.0000149 L22.75,21.0000149 C23.2332187,21.0027891 23.6272422,20.6133594 23.6301008,20.1300859 C23.6314531,19.8949844 23.5381563,19.6692891 23.37125,19.50375 L18.99625,15.12875 Z" id="Path"></path>
                <circle id="Oval" cx="16.625" cy="9.625" r="2.625"></circle>
            </g>
        </g>
    </g>
</svg>