<?xml version="1.0" encoding="UTF-8"?>
<svg width="32px" height="32px" viewBox="0 0 32 32" version="1.1" xmlns="http://www.w3.org/2000/svg" xmlns:xlink="http://www.w3.org/1999/xlink">
    <title>audio</title>
    <g id="Page-1" stroke="none" stroke-width="1" fill="none" fill-rule="evenodd">
        <g id="Artboard" transform="translate(-445.000000, -264.000000)">
            <g id="audio" transform="translate(445.000000, 264.000000)">
                <circle id="Oval" stroke="#0063E8" stroke-width="1.56342855" cx="15.6342855" cy="15.6342855" r="14.8525712"></circle>
                <path d="M21.0285714,13.0991011 L21.0285714,15.3948662 C21.0285714,17.9401711 18.9848739,20.0862125 16.2957983,20.4355681 L16.2957983,22.7812412 L18.0705882,22.7812412 C19.092437,22.7812412 19.092437,24.2285714 18.0705882,24.2285714 L13.0151261,24.1786635 C11.9932773,24.1287556 11.9932773,22.7313333 13.0151261,22.7313333 L14.7361345,22.7812412 L14.789916,20.4355681 C12.1008403,20.0862125 10.0571429,17.9401711 10.0571429,15.3948662 L10.0571429,13.0991011 C10.0571429,12.1508502 11.6168067,12.1508502 11.6168067,13.0991011 L11.6168067,15.3948662 C11.6168067,17.3911838 13.3915966,19.0381458 15.5428571,19.0381458 C17.6941176,19.0381458 19.4689076,17.3911838 19.4689076,15.3948662 L19.4689076,13.0991011 C19.4689076,12.1508502 21.0285714,12.1508502 21.0285714,13.0991011 Z M17.8554622,9.90499296 L17.8554622,15.3948662 C17.8554622,18.2396188 13.2302521,18.2396188 13.2302521,15.3948662 L13.2302521,9.90499296 C13.2302521,7.06024044 17.8554622,7.06024044 17.8554622,9.90499296 Z" id="Combined-Shape" fill="#0063E8"></path>
            </g>
        </g>
    </g>
</svg>