<svg width="50" height="50" viewBox="0 0 50 50" fill="none" xmlns="http://www.w3.org/2000/svg">
<path d="M25 48.5C37.9787 48.5 48.5 37.9787 48.5 25C48.5 12.0213 37.9787 1.5 25 1.5C12.0213 1.5 1.5 12.0213 1.5 25C1.5 37.9787 12.0213 48.5 25 48.5Z" fill="white" stroke="#93C399" stroke-width="3"/>
<rect x="4" y="4" width="42" height="42" rx="21" fill="#93C399"/>
<path d="M34.7 19.45L27.375 12.1C27.3 12.05 27.2 12 27.1 12H18.5C17.125 12 16 13.125 16 14.5V34.5C16 35.875 17.125 37 18.5 37H32.275C33.65 37 34.775 35.875 34.775 34.5V19.7C34.8 19.6 34.75 19.5 34.7 19.45ZM27.275 13.1L33.7 19.525H29.225C28.15 19.525 27.275 18.65 27.275 17.575V13.1ZM32.3 36.25H18.5C17.525 36.25 16.75 35.45 16.75 34.5V14.5C16.75 13.525 17.55 12.75 18.5 12.75H26.9V17.575C26.9 18.85 27.95 19.9 29.225 19.9H34.05V34.5C34.05 35.45 33.25 36.25 32.3 36.25Z" fill="white"/>
<path d="M22.7519 26.1977C22.7343 26.1977 22.7169 26.1918 22.7026 26.1809C22.6828 26.1656 22.6712 26.142 22.6712 26.1169V24.0992C22.6712 24.0625 22.6959 24.0305 22.7314 24.0212L30.3987 22.0035C30.423 21.9971 30.4487 22.0023 30.4685 22.0176C30.4883 22.0328 30.4999 22.0565 30.4999 22.0815V24.0992C30.4999 24.1359 30.4752 24.168 30.4398 24.1773L22.7725 26.195C22.7657 26.1968 22.7588 26.1977 22.7519 26.1977ZM22.8326 24.1615V26.0123L30.3385 24.037V22.1862L22.8326 24.1615Z" fill="white"/>
<path d="M30.4193 29.024C30.3747 29.024 30.3386 28.9879 30.3386 28.9433V23.6973C30.3386 23.6527 30.3747 23.6165 30.4193 23.6165C30.4638 23.6165 30.5 23.6527 30.5 23.6973V28.9433C30.5 28.9879 30.4638 29.024 30.4193 29.024Z" fill="white"/>
<path d="M29.2085 30.2343C28.4965 30.2343 27.9172 29.655 27.9172 28.943C27.9172 28.2309 28.4965 27.6516 29.2085 27.6516C29.9206 27.6516 30.4999 28.2309 30.4999 28.943C30.4999 29.655 29.9206 30.2343 29.2085 30.2343ZM29.2085 27.813C28.5855 27.813 28.0786 28.3199 28.0786 28.943C28.0786 29.566 28.5855 30.0729 29.2085 30.0729C29.8316 30.0729 30.3385 29.566 30.3385 28.943C30.3385 28.3199 29.8316 27.813 29.2085 27.813Z" fill="white"/>
<path d="M22.752 31.0416C22.7074 31.0416 22.6713 31.0054 22.6713 30.9609V25.7148C22.6713 25.6702 22.7074 25.6341 22.752 25.6341C22.7965 25.6341 22.8327 25.6702 22.8327 25.7148V30.9609C22.8327 31.0054 22.7965 31.0416 22.752 31.0416Z" fill="white"/>
<path d="M21.5412 32.2519C20.8292 32.2519 20.2499 31.6726 20.2499 30.9605C20.2499 30.2485 20.8292 29.6692 21.5412 29.6692C22.2533 29.6692 22.8326 30.2485 22.8326 30.9605C22.8326 31.6726 22.2533 32.2519 21.5412 32.2519ZM21.5412 29.8306C20.9182 29.8306 20.4113 30.3375 20.4113 30.9605C20.4113 31.5835 20.9182 32.0904 21.5412 32.0904C22.1642 32.0904 22.6711 31.5835 22.6711 30.9605C22.6711 30.3375 22.1642 29.8306 21.5412 29.8306Z" fill="white"/>
<path d="M19.5001 22.75C19.3621 22.75 19.2501 22.6913 19.2501 22.6189V12.1311C19.2501 12.0587 19.3621 12 19.5001 12C19.6381 12 19.7501 12.0587 19.7501 12.1311V22.6189C19.7501 22.6913 19.6381 22.75 19.5001 22.75Z" fill="white"/>
<rect x="22.25" y="33.5" width="1.25" height="1.25" rx="0.625" fill="white"/>
<rect x="25.7501" y="33.5" width="1.25" height="1.25" rx="0.625" fill="white"/>
<rect x="24" y="33.5" width="1.25" height="1.25" rx="0.625" fill="white"/>
<rect x="27.5" y="33.5" width="1.25" height="1.25" rx="0.625" fill="white"/>
</svg>
