<svg width="128" height="66" viewBox="0 0 128 66" fill="none" xmlns="http://www.w3.org/2000/svg">
<g filter="url(#filter0_d)">
<rect x="15" y="4" width="98" height="36" rx="18" fill="url(#paint0_linear)"/>
</g>
<path d="M33.2617 26H36.291C37.9844 26 39.0859 25.168 39.0859 23.75C39.0859 22.5898 38.3711 21.9102 37.334 21.7871V21.7285C38.1426 21.5059 38.6406 20.9082 38.6406 19.9707C38.6406 18.752 37.7559 18.002 36.373 18.002H33.2617V26ZM34.4629 19.0391H36.1445C36.959 19.0391 37.4395 19.4727 37.4395 20.1934C37.4395 20.9844 36.8828 21.3887 35.6289 21.3887H34.4629V19.0391ZM34.4629 22.3789H36.25C37.2754 22.3789 37.8496 22.877 37.8496 23.709C37.8496 24.5645 37.252 24.9629 35.7812 24.9629H34.4629V22.3789ZM42.4199 26.0996C43.334 26.0996 43.8789 25.6719 44.166 25.1973H44.2188V26H45.3496V21.8047C45.3496 20.2637 44.2773 19.7188 42.9766 19.7188C41.5176 19.7188 40.7148 20.4043 40.6328 21.4355H41.7637C41.875 21.0254 42.1973 20.7324 42.9414 20.7324C43.6914 20.7324 44.166 21.0664 44.166 21.7871V22.373H42.5781C41.1543 22.373 40.3984 23.1113 40.3984 24.2012C40.3984 25.3555 41.2246 26.0996 42.4199 26.0996ZM42.7715 25.1035C42.1562 25.1035 41.5938 24.793 41.5938 24.1367C41.5938 23.6211 41.9336 23.2344 42.7246 23.2344H44.166V23.9023C44.166 24.5938 43.5566 25.1035 42.7715 25.1035ZM47.043 23.3457C47.043 25.0449 48.0449 26.1055 49.6621 26.1055C51.3086 26.1055 52.0879 25.1914 52.123 24.166H50.9863C50.8867 24.6523 50.5586 25.0449 49.6914 25.0449C48.7773 25.0449 48.2266 24.3887 48.2266 23.3457V22.4668C48.2266 21.4355 48.7305 20.7676 49.6914 20.7676C50.5996 20.7676 50.8926 21.3242 50.9512 21.7109H52.082C52.0586 20.6738 51.2266 19.707 49.668 19.707C48.0508 19.707 47.043 20.7793 47.043 22.4375V23.3457ZM54.9473 23.7793L55.4746 23.2461L57.4902 26H58.8906L56.3594 22.4902L58.7324 19.8125H57.373L54.9941 22.5078H54.9473V17.4043H53.7637V26H54.9473V23.7793ZM63.2441 19.8477H62.2891V20.8496H63.2324V24.2598C63.2324 25.502 63.5957 26.0469 65.084 26.0469C65.3477 26.0469 65.7812 26.0117 65.875 25.9883V25.0098C65.7754 25.0215 65.541 25.0332 65.377 25.0332C64.6562 25.0332 64.4102 24.8457 64.4102 24.166V20.8496H65.7988V19.8477H64.4102V18.3008H63.2441V19.8477ZM69.8887 19.707C68.3066 19.707 67.1758 20.8027 67.1758 22.4902V23.3047C67.1758 25.1035 68.2891 26.1055 69.8887 26.1055C71.4648 26.1055 72.5957 25.0918 72.5957 23.3047V22.4902C72.5957 20.75 71.4648 19.707 69.8887 19.707ZM69.8945 20.7383C70.8496 20.7383 71.4062 21.5117 71.4062 22.5547V23.2578C71.4062 24.3125 70.8789 25.0742 69.8945 25.0742C68.8984 25.0742 68.3652 24.3066 68.3652 23.2578V22.5547C68.3652 21.5117 68.9395 20.7383 69.8945 20.7383ZM79.873 26V19.1152H82.2461V18.002H76.293V19.1152H78.666V26H79.873ZM85.252 19.707C83.6699 19.707 82.5391 20.8027 82.5391 22.4902V23.3047C82.5391 25.1035 83.6523 26.1055 85.252 26.1055C86.8281 26.1055 87.959 25.0918 87.959 23.3047V22.4902C87.959 20.75 86.8281 19.707 85.252 19.707ZM85.2578 20.7383C86.2129 20.7383 86.7695 21.5117 86.7695 22.5547V23.2578C86.7695 24.3125 86.2422 25.0742 85.2578 25.0742C84.2617 25.0742 83.7285 24.3066 83.7285 23.2578V22.5547C83.7285 21.5117 84.3027 20.7383 85.2578 20.7383ZM92.7051 26.0879C94.1758 26.0879 95.084 25.0625 95.084 23.3867V22.4199C95.084 20.75 94.1816 19.7246 92.7402 19.7246C91.8555 19.7246 91.1523 20.1289 90.9004 20.791H90.8418V19.8066H89.6934V28.1094H90.877V25.0684H90.9355C91.2227 25.7246 91.8555 26.0879 92.7051 26.0879ZM92.4121 25.0391C91.5039 25.0391 90.877 24.3945 90.877 23.4336V22.4785C90.877 21.418 91.4512 20.7734 92.3887 20.7734C93.3438 20.7734 93.8887 21.4414 93.8887 22.6074V23.2109C93.8887 24.377 93.3438 25.0391 92.4121 25.0391Z" fill="white"/>
<defs>
<filter id="filter0_d" x="0" y="0" width="128" height="66" filterUnits="userSpaceOnUse" color-interpolation-filters="sRGB">
<feFlood flood-opacity="0" result="BackgroundImageFix"/>
<feColorMatrix in="SourceAlpha" type="matrix" values="0 0 0 0 0 0 0 0 0 0 0 0 0 0 0 0 0 0 127 0"/>
<feOffset dy="11"/>
<feGaussianBlur stdDeviation="7.5"/>
<feColorMatrix type="matrix" values="0 0 0 0 0 0 0 0 0 0 0 0 0 0 0 0 0 0 0.08 0"/>
<feBlend mode="normal" in2="BackgroundImageFix" result="effect1_dropShadow"/>
<feBlend mode="normal" in="SourceGraphic" in2="effect1_dropShadow" result="shape"/>
</filter>
<linearGradient id="paint0_linear" x1="23" y1="36.5" x2="107" y2="10.5" gradientUnits="userSpaceOnUse">
<stop stop-color="#2680BC"/>
</linearGradient>
</defs>
</svg>
