<?xml version="1.0" encoding="UTF-8"?>
<svg width="36px" height="36px" viewBox="0 0 36 36" version="1.1" xmlns="http://www.w3.org/2000/svg" xmlns:xlink="http://www.w3.org/1999/xlink">
    <!-- Generator: Sketch 52.2 (67145) - http://www.bohemiancoding.com/sketch -->
    <title>icon-wound-care</title>
    <desc>Created with Sketch.</desc>
    <g id="Symbols" stroke="none" stroke-width="1" fill="none" fill-rule="evenodd">
        <g id="Card-Visit-Hospital-Welcome" transform="translate(-14.000000, -304.000000)" fill="#FFFFFF">
            <path d="M38.2014499,338.64804 L32.9788872,333.424379 L32.6522711,333.098129 L43.0984949,322.652637 L43.4247449,322.978887 L48.6476737,328.202182 C50.4506534,330.004796 50.4506534,332.927864 48.6476737,334.730111 L44.7304771,338.64804 C42.9278636,340.450653 40.0044295,340.450653 38.2014499,338.64804 Z M19.2690652,338.64804 L15.3522347,334.730477 C13.5492551,332.92823 13.5492551,330.005162 15.3522347,328.202548 L20.5747974,322.978887 L20.9010474,322.652637 L31.346905,333.098129 L31.0202889,333.424379 L25.7977262,338.64804 C23.9951128,340.450653 21.0716787,340.450653 19.2690652,338.64804 Z M31.9997711,311.55428 L42.4452627,321.999771 L31.9997711,332.445263 L21.5542796,321.999771 L31.9997711,311.55428 Z M31.346905,329.181298 C31.7075742,329.541967 32.2919681,329.541967 32.6522711,329.181298 C33.0129403,328.820629 33.0129403,328.235869 32.6522711,327.875566 C32.2919681,327.515263 31.7075742,327.515263 31.346905,327.875566 C30.9862359,328.235869 30.9862359,328.820629 31.346905,329.181298 Z M34.6112356,325.916602 C34.9711724,326.276905 35.5562986,326.276905 35.9162355,325.916602 C36.2772708,325.556299 36.2772708,324.971539 35.9162355,324.610869 C35.5562986,324.250933 34.9711724,324.250933 34.6112356,324.610869 C34.2502002,324.971539 34.2502002,325.556299 34.6112356,325.916602 Z M37.8751999,322.652637 C38.2355029,323.013306 38.820263,323.013306 39.1809321,322.652637 C39.5419675,322.291968 39.5419675,321.707208 39.1809321,321.346905 C38.820263,320.986236 38.2355029,320.986236 37.8751999,321.346905 C37.5148969,321.707574 37.5148969,322.291968 37.8751999,322.652637 Z M28.0825745,325.916602 C28.4432437,326.276905 29.0280037,326.276905 29.3879406,325.916602 C29.7489759,325.556299 29.7489759,324.971539 29.3879406,324.610869 C29.0280037,324.250933 28.4432437,324.250933 28.0825745,324.610869 C27.7219054,324.971539 27.7219054,325.556299 28.0825745,325.916602 Z M31.346905,322.652637 C31.7075742,323.013306 32.2919681,323.013306 32.6522711,322.652637 C33.0129403,322.291968 33.0129403,321.707208 32.6522711,321.346905 C32.2919681,320.986236 31.7075742,320.986236 31.346905,321.346905 C30.9862359,321.707574 30.9862359,322.291968 31.346905,322.652637 Z M34.6112356,319.388307 C34.9711724,319.748976 35.5562986,319.748976 35.9162355,319.388307 C36.2772708,319.028004 36.2772708,318.44361 35.9162355,318.082941 C35.5562986,317.722638 34.9711724,317.722638 34.6112356,318.082941 C34.2502002,318.44361 34.2502002,319.028004 34.6112356,319.388307 Z M24.818244,322.652637 C25.1789132,323.013306 25.7636732,323.013306 26.1243424,322.652637 C26.4846454,322.291968 26.4846454,321.707208 26.1243424,321.346905 C25.7636732,320.986236 25.1789132,320.986236 24.818244,321.346905 C24.4572087,321.707574 24.4572087,322.291968 24.818244,322.652637 Z M28.0825745,319.388307 C28.4432437,319.748976 29.0280037,319.748976 29.3879406,319.388307 C29.7489759,319.028004 29.7489759,318.44361 29.3879406,318.082941 C29.0280037,317.722638 28.4432437,317.722638 28.0825745,318.082941 C27.7219054,318.44361 27.7219054,319.028004 28.0825745,319.388307 Z M31.346905,316.124342 C31.7075742,316.485012 32.2919681,316.485012 32.6522711,316.124342 C33.0129403,315.763673 33.0129403,315.179279 32.6522711,314.81861 C32.2919681,314.457941 31.7075742,314.457941 31.346905,314.81861 C30.9862359,315.179279 30.9862359,315.763673 31.346905,316.124342 Z M32.9788872,310.575164 L38.2014499,305.352235 C40.0047957,303.549255 42.9278636,303.549255 44.7304771,305.352235 L48.6476737,309.269431 C50.4506534,311.072045 50.4506534,313.995113 48.6476737,315.797726 L43.4247449,321.020655 L43.0984949,321.347271 L32.6522711,310.901414 L32.9788872,310.575164 Z M15.3522347,315.797726 C13.5492551,313.995113 13.5492551,311.072045 15.3522347,309.269431 L19.2690652,305.352235 C21.0716787,303.549255 23.9947466,303.549255 25.7977262,305.352235 L31.0202889,310.575164 L31.346905,310.901414 L20.9010474,321.346905 L20.5747974,321.020289 L15.3522347,315.797726 Z" id="icon-wound-care"></path>
        </g>
    </g>
</svg>