<?xml version="1.0" encoding="UTF-8"?>
<svg width="23px" height="17px" viewBox="0 0 23 17" version="1.1" xmlns="http://www.w3.org/2000/svg" xmlns:xlink="http://www.w3.org/1999/xlink">
    <!-- Generator: Sketch 52.2 (67145) - http://www.bohemiancoding.com/sketch -->
    <title>Shape</title>
    <desc>Created with Sketch.</desc>
    <g id="Page-1" stroke="none" stroke-width="1" fill="none" fill-rule="evenodd">
        <path d="M21.1004545,2.35454545 C19.1163636,4.34272727 17.7786364,5.50045455 14.0518182,9.99636364 C11.9,12.59 9.86681818,15.3759091 9.85045455,15.3963636 L8.95863636,16.5090909 C8.77045455,16.7586364 8.40636364,16.7872727 8.17727273,16.5745455 L1.01409091,9.91863636 C0.285909091,9.24363636 0.245,8.10227273 0.92,7.37409091 C1.595,6.64590909 2.73636364,6.605 3.46454545,7.28 L7.75590909,11.2686364 C7.98090909,11.4772727 8.33272727,11.4527273 8.52909091,11.2154545 C9.19181818,10.3931818 10.1,9.395 11.0818182,8.40909091 C14.7718182,4.69045455 17.0381818,2.69409091 18.2490909,1.81045455 C19.7218182,0.738636364 21.4113636,-0.177727273 21.8204545,0.329545455 C22.4545455,1.12318182 22.0659091,1.385 21.1004545,2.35454545 Z" id="Shape" fill="#FFFFFF" fill-rule="nonzero"></path>
    </g>
</svg>