<?xml version="1.0" encoding="UTF-8"?>
<svg width="98px" height="75px" viewBox="0 0 98 75" version="1.1" xmlns="http://www.w3.org/2000/svg" xmlns:xlink="http://www.w3.org/1999/xlink">
    <!-- Generator: Sketch 56.3 (81716) - https://sketch.com -->
    <title>Shape</title>
    <desc>Created with Sketch.</desc>
    <g id="Desktop" stroke="none" stroke-width="1" fill="none" fill-rule="evenodd">
        <g id="Admin---Chapter---Selected" transform="translate(-866.000000, -375.000000)" fill="#929B9A" fill-rule="nonzero">
            <g id="Bitmap" transform="translate(417.000000, 155.000000)">
                <path d="M509.9,266.6 C510.3,266.9 510.8,267.1 511.3,267.1 C511.9,267.1 512.6,266.8 513,266.3 C513.8,265.4 513.7,264 512.7,263.2 L500.8,253.3 C499.1,251.9 496.7,251.9 495.1,253.3 L483.2,263.2 C482.3,264 482.1,265.4 482.9,266.3 C483.7,267.2 485.1,267.4 486,266.6 L495.7,258.5 L495.7,292.5 C495.7,293.7 496.7,294.7 497.9,294.7 C499.1,294.7 500.1,293.7 500.1,292.5 L500.1,258.5 L509.9,266.6 Z M524.7,235.6 C523.4,235.6 522,235.7 520.7,236 C515.2,226.1 504.9,220 493.5,220 C477,220 463.5,232.9 462.4,249.1 C454.8,250.2 449,256.7 449,264.6 C449,273.2 456,280.2 464.6,280.2 L484.6,280.2 C485.8,280.2 486.8,279.2 486.8,278 C486.8,276.8 485.8,275.8 484.6,275.8 L464.6,275.8 C458.5,275.8 453.5,270.8 453.5,264.7 C453.5,258.6 458.5,253.6 464.6,253.6 C465.8,253.6 466.8,252.6 466.8,251.4 C466.8,236.7 478.8,224.7 493.5,224.7 C503.8,224.7 513,230.5 517.5,239.7 C518,240.7 519,241.1 520.1,240.9 C531.8,237.8 542.5,246.8 542.5,258.1 C542.5,267.9 534.5,275.9 524.7,275.9 L511.3,275.9 C510.1,275.9 509.1,276.9 509.1,278.1 C509.1,279.3 510.1,280.3 511.3,280.3 L524.7,280.3 C537,280.3 547,270.3 547,258 C547,245.6 537,235.6 524.7,235.6 Z" id="Shape"></path>
            </g>
        </g>
    </g>
</svg>