<svg width="16" height="18" viewBox="0 0 16 18" fill="none" xmlns="http://www.w3.org/2000/svg">
<path d="M14.7115 3.46155H11.25C11.25 1.54972 9.70024 0 7.78845 0C5.87665 0 4.32689 1.54972 4.32689 3.46155H0.865371C0.387316 3.46155 0 3.84891 0 4.32693C0 4.80495 0.387352 5.1923 0.865371 5.1923H1.21152V15.75C1.21359 16.992 2.21952 17.9979 3.46152 18H12.1154C13.3574 17.9979 14.3633 16.992 14.3654 15.75V5.1923H14.7115C15.1896 5.1923 15.5769 4.80495 15.5769 4.32693C15.5769 3.84891 15.1896 3.46155 14.7115 3.46155ZM7.78845 1.73078C8.74417 1.73078 9.51922 2.50583 9.51922 3.46155H6.05767C6.05767 2.5058 6.83272 1.73078 7.78845 1.73078ZM12.6346 15.75C12.6346 16.0366 12.402 16.2692 12.1154 16.2692H3.46152C3.17489 16.2692 2.9423 16.0366 2.9423 15.75V5.1923H12.6346V15.75Z" fill="#FF485A"/>
<path d="M5.88417 13.3269C5.40611 13.3269 5.0188 12.9396 5.0188 12.4616V9.00001C5.0188 8.52196 5.40615 8.13464 5.88417 8.13464C6.36219 8.13464 6.74954 8.52199 6.74954 9.00001V12.4616C6.74958 12.9396 6.36222 13.3269 5.88417 13.3269Z" fill="#FFBBC0"/>
<path d="M9.69182 13.3269C9.21376 13.3269 8.82645 12.9396 8.82645 12.4616V9.00001C8.82645 8.52196 9.2138 8.13464 9.69182 8.13464C10.1699 8.13464 10.5572 8.52199 10.5572 9.00001V12.4616C10.5572 12.9396 10.1698 13.3269 9.69182 13.3269Z" fill="#FFBBC0"/>
</svg>
