<svg width="58" height="22" viewBox="0 0 58 22" fill="none" xmlns="http://www.w3.org/2000/svg">
<rect width="58" height="22" rx="4" fill="#8C8C8C"/>
<path d="M6.01172 16V6.04688H8.95117C9.83073 6.04688 10.61 6.24284 11.2891 6.63477C11.9727 7.02669 12.5013 7.58268 12.875 8.30273C13.2487 9.02279 13.4355 9.84766 13.4355 10.7773V11.2764C13.4355 12.2197 13.2464 13.0492 12.8682 13.7646C12.4945 14.4801 11.959 15.0316 11.2617 15.4189C10.569 15.8063 9.77376 16 8.87598 16H6.01172ZM7.74121 7.44141V14.6191H8.86914C9.77604 14.6191 10.471 14.3366 10.9541 13.7715C11.4417 13.2018 11.6901 12.3861 11.6992 11.3242V10.7705C11.6992 9.69043 11.4645 8.86556 10.9951 8.2959C10.5257 7.72624 9.8444 7.44141 8.95117 7.44141H7.74121ZM16.7646 16H15.1035V8.60352H16.7646V16ZM15.001 6.68262C15.001 6.42741 15.0807 6.21549 15.2402 6.04688C15.4043 5.87826 15.6367 5.79395 15.9375 5.79395C16.2383 5.79395 16.4707 5.87826 16.6348 6.04688C16.7988 6.21549 16.8809 6.42741 16.8809 6.68262C16.8809 6.93327 16.7988 7.1429 16.6348 7.31152C16.4707 7.47559 16.2383 7.55762 15.9375 7.55762C15.6367 7.55762 15.4043 7.47559 15.2402 7.31152C15.0807 7.1429 15.001 6.93327 15.001 6.68262ZM22.7256 13.9902C22.7256 13.694 22.6025 13.4684 22.3564 13.3135C22.1149 13.1585 21.7116 13.0218 21.1465 12.9033C20.5814 12.7848 20.1097 12.6344 19.7314 12.4521C18.902 12.0511 18.4873 11.4701 18.4873 10.709C18.4873 10.071 18.7562 9.53776 19.2939 9.10938C19.8317 8.68099 20.5153 8.4668 21.3447 8.4668C22.2288 8.4668 22.9421 8.68555 23.4844 9.12305C24.0312 9.56055 24.3047 10.1279 24.3047 10.8252H22.6436C22.6436 10.5062 22.5251 10.2419 22.2881 10.0322C22.0511 9.81803 21.7367 9.71094 21.3447 9.71094C20.9801 9.71094 20.6816 9.79525 20.4492 9.96387C20.2214 10.1325 20.1074 10.3581 20.1074 10.6406C20.1074 10.8958 20.2145 11.0941 20.4287 11.2354C20.6429 11.3766 21.0758 11.5202 21.7275 11.666C22.3792 11.8073 22.8896 11.9782 23.2588 12.1787C23.6325 12.3747 23.9082 12.6117 24.0859 12.8896C24.2682 13.1676 24.3594 13.5049 24.3594 13.9014C24.3594 14.5667 24.0837 15.1068 23.5322 15.5215C22.9808 15.9316 22.2585 16.1367 21.3652 16.1367C20.7591 16.1367 20.2191 16.0273 19.7451 15.8086C19.2712 15.5898 18.902 15.2891 18.6377 14.9062C18.3734 14.5234 18.2412 14.111 18.2412 13.6689H19.8545C19.8773 14.0609 20.0254 14.3639 20.2988 14.5781C20.5723 14.7878 20.9346 14.8926 21.3857 14.8926C21.8232 14.8926 22.1559 14.8105 22.3838 14.6465C22.6117 14.4779 22.7256 14.2591 22.7256 13.9902ZM30.2314 16C30.1585 15.8587 30.0947 15.6286 30.04 15.3096C29.5114 15.861 28.8643 16.1367 28.0986 16.1367C27.3558 16.1367 26.7497 15.9248 26.2803 15.501C25.8109 15.0771 25.5762 14.5531 25.5762 13.9287C25.5762 13.1403 25.8678 12.5365 26.4512 12.1172C27.0391 11.6934 27.8776 11.4814 28.9668 11.4814H29.9854V10.9961C29.9854 10.6133 29.8783 10.3079 29.6641 10.0801C29.4499 9.84766 29.124 9.73145 28.6865 9.73145C28.3083 9.73145 27.9984 9.82715 27.7568 10.0186C27.5153 10.2054 27.3945 10.4447 27.3945 10.7363H25.7334C25.7334 10.3307 25.8678 9.95247 26.1367 9.60156C26.4056 9.24609 26.7702 8.9681 27.2305 8.76758C27.6953 8.56706 28.2126 8.4668 28.7822 8.4668C29.6481 8.4668 30.3385 8.68555 30.8535 9.12305C31.3685 9.55599 31.6328 10.1667 31.6465 10.9551V14.291C31.6465 14.9564 31.7399 15.4873 31.9268 15.8838V16H30.2314ZM28.4062 14.8037C28.7344 14.8037 29.042 14.724 29.3291 14.5645C29.6208 14.4049 29.8395 14.1908 29.9854 13.9219V12.5273H29.0898C28.4746 12.5273 28.012 12.6344 27.7021 12.8486C27.3923 13.0628 27.2373 13.3659 27.2373 13.7578C27.2373 14.0768 27.3421 14.332 27.5518 14.5234C27.766 14.7103 28.0508 14.8037 28.4062 14.8037ZM39.877 12.377C39.877 13.5254 39.6195 14.4391 39.1045 15.1182C38.5941 15.7972 37.89 16.1367 36.9922 16.1367C36.1263 16.1367 35.4518 15.8245 34.9688 15.2002L34.8867 16H33.3828V5.5H35.0439V9.31445C35.5225 8.74935 36.1673 8.4668 36.9785 8.4668C37.8809 8.4668 38.5895 8.80176 39.1045 9.47168C39.6195 10.1416 39.877 11.0781 39.877 12.2812V12.377ZM38.2158 12.2334C38.2158 11.4313 38.0745 10.8298 37.792 10.4287C37.5094 10.0277 37.0993 9.82715 36.5615 9.82715C35.8415 9.82715 35.3356 10.1416 35.0439 10.7705V13.8193C35.3402 14.4619 35.8506 14.7832 36.5752 14.7832C37.0947 14.7832 37.4958 14.5895 37.7783 14.2021C38.0609 13.8148 38.2067 13.2292 38.2158 12.4453V12.2334ZM43.042 16H41.3809V5.5H43.042V16ZM48.1143 16.1367C47.0615 16.1367 46.207 15.8063 45.5508 15.1455C44.8991 14.4801 44.5732 13.596 44.5732 12.4932V12.2881C44.5732 11.5498 44.7145 10.8913 44.9971 10.3125C45.2842 9.72917 45.6852 9.27572 46.2002 8.95215C46.7152 8.62858 47.2894 8.4668 47.9229 8.4668C48.93 8.4668 49.707 8.78809 50.2539 9.43066C50.8053 10.0732 51.0811 10.9824 51.0811 12.1582V12.8281H46.248C46.2982 13.4388 46.501 13.9219 46.8564 14.2773C47.2165 14.6328 47.6676 14.8105 48.21 14.8105C48.971 14.8105 49.5908 14.5029 50.0693 13.8877L50.9648 14.7422C50.6686 15.1842 50.2721 15.5283 49.7754 15.7744C49.2832 16.016 48.7295 16.1367 48.1143 16.1367ZM47.916 9.7998C47.4603 9.7998 47.0911 9.95931 46.8086 10.2783C46.5306 10.5973 46.3529 11.0417 46.2754 11.6113H49.4404V11.4883C49.404 10.9323 49.2559 10.513 48.9961 10.2305C48.7363 9.94336 48.3763 9.7998 47.916 9.7998Z" fill="white"/>
</svg>
