<svg width="16" height="17" viewBox="0 0 16 17" fill="none" xmlns="http://www.w3.org/2000/svg">
<path d="M6.56396 13.7471C7.94189 13.7471 9.22852 13.2988 10.2744 12.5518L14.209 16.4863C14.3916 16.6689 14.6323 16.7603 14.8813 16.7603C15.4209 16.7603 15.811 16.3452 15.811 15.814C15.811 15.5649 15.728 15.3325 15.5454 15.1499L11.6357 11.2319C12.4575 10.1528 12.9473 8.81641 12.9473 7.36377C12.9473 3.85254 10.0752 0.980469 6.56396 0.980469C3.04443 0.980469 0.180664 3.85254 0.180664 7.36377C0.180664 10.875 3.04443 13.7471 6.56396 13.7471ZM6.56396 12.3691C3.81641 12.3691 1.55859 10.103 1.55859 7.36377C1.55859 4.62451 3.81641 2.3584 6.56396 2.3584C9.30322 2.3584 11.5693 4.62451 11.5693 7.36377C11.5693 10.103 9.30322 12.3691 6.56396 12.3691Z" fill="#3C3C43" fill-opacity="0.6"/>
</svg>
