<svg width="22" height="20" viewBox="0 0 22 20" fill="none" xmlns="http://www.w3.org/2000/svg">
<rect width="22" height="20" rx="5" fill="#16A000" fill-opacity="0.6"/>
<path d="M11.1388 5.91678C8.43042 5.91678 6.1175 7.73095 5.18042 10.2918C6.1175 12.8526 8.43042 14.6668 11.1388 14.6668C13.8471 14.6668 16.16 12.8526 17.0971 10.2918C16.16 7.73095 13.8471 5.91678 11.1388 5.91678ZM11.1388 13.2084C9.64375 13.2084 8.43042 11.9018 8.43042 10.2918C8.43042 8.68178 9.64375 7.37511 11.1388 7.37511C12.6338 7.37511 13.8471 8.68178 13.8471 10.2918C13.8471 11.9018 12.6338 13.2084 11.1388 13.2084ZM11.1388 8.54178C10.2396 8.54178 9.51375 9.32345 9.51375 10.2918C9.51375 11.2601 10.2396 12.0418 11.1388 12.0418C12.0379 12.0418 12.7638 11.2601 12.7638 10.2918C12.7638 9.32345 12.0379 8.54178 11.1388 8.54178Z" fill="white"/>
</svg>
