<?xml version="1.0" encoding="UTF-8"?>
<svg width="48px" height="49px" viewBox="0 0 48 49" version="1.1" xmlns="http://www.w3.org/2000/svg" xmlns:xlink="http://www.w3.org/1999/xlink">
    <title>icon/help</title>
    <g id="Page-1" stroke="none" stroke-width="1" fill="none" fill-rule="evenodd">
        <g id="0" transform="translate(-1189.000000, -620.000000)">
            <g id="Group-2" transform="translate(1189.000000, 620.125000)">
                <g id="Group" fill="#0675B6">
                    <circle id="Oval" cx="24" cy="24" r="24"></circle>
                </g>
                <path d="M23.4289551,29.6800537 C24.6491699,29.6800537 25.2592773,28.9443359 25.4387207,27.7600098 C25.5822754,26.1270752 26.1564941,25.2657471 28.5072021,23.9019775 C30.9476318,22.4484863 32.3114014,20.5643311 32.3114014,17.8188477 C32.3114014,13.7634277 28.9737549,11 24.1108398,11 C20.4143066,11 17.6149902,12.5073242 16.5024414,14.9477539 C16.161499,15.6296387 16,16.2935791 16,17.0651855 C16,18.2674561 16.7357178,19.0211182 17.973877,19.0211182 C18.9608154,19.0211182 19.6247559,18.5725098 20.0195312,17.4599609 C20.59375,15.647583 21.9216309,14.6606445 23.9134521,14.6606445 C26.1206055,14.6606445 27.645874,16.0244141 27.645874,17.9803467 C27.645874,19.7030029 26.8922119,20.6899414 24.6671143,22.0357666 C22.4240723,23.3636475 21.3115234,24.835083 21.3115234,27.0601807 L21.3115234,27.401123 C21.3115234,28.7110596 22.0651855,29.6800537 23.4289551,29.6800537 Z M23.4648438,37.4678955 C24.918335,37.4678955 26.0667725,36.3374023 26.0667725,34.9197998 C26.0667725,33.5021973 24.918335,32.3896484 23.4648438,32.3896484 C22.0113525,32.3896484 20.8449707,33.5021973 20.8449707,34.9197998 C20.8449707,36.3374023 22.0113525,37.4678955 23.4648438,37.4678955 Z" id="?" fill="#FFFFFF" fill-rule="nonzero"></path>
            </g>
        </g>
    </g>
</svg>