<svg width="56" height="66" viewBox="0 0 56 66" fill="none" xmlns="http://www.w3.org/2000/svg">
<g filter="url(#filter0_dd)">
<rect x="4" width="48" height="48" rx="24" fill="#0063E4"/>
</g>
<path d="M19.5031 36.693H19.4042C18.4494 36.6872 17.8632 36.4375 17.6128 35.929C17.523 35.7461 17.3594 35.2635 17.7756 34.7158L19.1032 32.9432C19.2606 32.7402 19.3507 32.6146 19.3867 32.5194C17.2011 30.2429 16 27.2687 16 24.1191C16 17.4365 21.4365 12 28.1191 12C34.7972 12 40.2296 17.4365 40.2296 24.1192C40.2296 30.7969 34.7972 36.2296 28.1191 36.2296C26.8074 36.2296 25.5199 36.02 24.2908 35.6067C24.2348 35.6193 24.1989 35.6343 24.1806 35.6451C23.6955 35.8722 23.2647 36.0434 22.8083 36.1954C22.6488 36.2455 22.5011 36.2839 22.3533 36.3223L22.1483 36.3766C21.3772 36.587 20.4879 36.693 19.5031 36.693ZM28.1191 13.71C22.3795 13.71 17.71 18.3796 17.71 24.1191C17.71 26.8888 18.7921 29.5009 20.7568 31.4748L20.8604 31.5788L20.9234 31.7107C21.12 32.1253 21.1526 32.5832 21.0169 33.0358C20.8833 33.4228 20.6825 33.6971 20.4704 33.9701L19.7194 34.9813C20.4642 34.9679 21.1279 34.8827 21.6957 34.7274L21.9258 34.6665C22.0439 34.6364 22.1625 34.6063 22.2806 34.5688C22.6626 34.441 23.0346 34.2936 23.4049 34.1216C23.6162 34.0022 23.9176 33.9158 24.2733 33.8853L24.5396 33.8824L24.6782 33.9317C25.7787 34.3216 26.9368 34.5195 28.1191 34.5195C33.8537 34.5195 38.5196 29.8541 38.5196 24.1191C38.5196 18.3796 33.8538 13.71 28.1191 13.71Z" fill="white"/>
<path d="M28.0769 31.0788V31.2217L28.0726 31.0788C27.7348 31.0788 27.4144 30.9403 27.1719 30.6977C26.925 30.4509 26.7951 30.1261 26.7994 29.7883C26.8037 29.0607 27.3711 28.4935 28.1072 28.4935C28.8131 28.5065 29.376 29.0954 29.3674 29.8013C29.3588 30.5072 28.7785 31.0788 28.0769 31.0788Z" fill="white"/>
<path d="M32.0436 22.5911C31.5716 23.2017 30.9696 23.7084 30.3851 24.202L30.2422 24.3232C29.4194 25.0161 29.3241 25.2196 29.3024 26.2936C29.2981 26.5751 29.2894 26.8522 29.2894 27.1294C29.2894 27.3243 29.2201 27.3892 29.0339 27.3892C28.904 27.3935 28.7741 27.3935 28.6442 27.3935H28.1808V27.3892H27.0462C26.834 27.3892 26.8037 27.3329 26.7951 27.1597C26.7518 26.2849 26.8211 25.4102 26.9942 24.57C27.0895 24.111 27.3363 23.704 27.7737 23.2882C28.1202 22.9548 28.4969 22.6343 28.8563 22.3225C29.0295 22.171 29.2071 22.0193 29.376 21.8678L29.4063 21.8418C29.5102 21.7509 29.6228 21.6556 29.7181 21.543C30.1988 20.9974 30.1382 20.2006 29.5795 19.6939C29.1421 19.2955 28.6052 19.1482 27.856 19.2435C26.9509 19.3561 26.3706 19.9104 26.0848 20.941C26.0761 20.9714 26.0718 21.0017 26.0675 21.032C26.0632 21.0623 26.0545 21.0883 26.0458 21.1186C25.9938 21.2918 25.8986 21.2875 25.8206 21.2745C25.1234 21.1922 24.4219 21.1099 23.729 21.0189C23.5904 21.0016 23.5168 20.9453 23.5298 20.7332C23.664 18.949 25.0888 17.481 26.9942 17.1605C28.1028 16.9743 29.1205 17.0479 30.0472 17.3727C31.2771 17.8058 32.1042 18.5983 32.5069 19.7242C32.8751 20.7506 32.7192 21.7163 32.0436 22.5911Z" fill="white"/>
<path d="M23.5391 63V55.002H22.1211V58.2832H18.5645V55.002H17.1465V63H18.5645V59.5195H22.1211V63H23.5391ZM28.0215 63.1055C29.7266 63.1055 30.4883 62.0332 30.5586 61.2891H29.2227C29.1406 61.6758 28.6777 61.9863 28.0156 61.9863C27.1367 61.9863 26.6152 61.3711 26.6152 60.5215V60.2227H30.623V59.502C30.623 57.7676 29.5156 56.6836 27.9453 56.6836C26.416 56.6836 25.25 57.6973 25.25 59.502V60.2871C25.25 62.0801 26.3164 63.1055 28.0215 63.1055ZM26.6152 59.3262V59.2559C26.6152 58.3711 27.1484 57.7852 27.9512 57.7852C28.748 57.7852 29.2754 58.3711 29.2754 59.2559V59.3262H26.6152ZM32.2754 63H33.6582V54.4277H32.2754V63ZM38.8438 63.082C40.3027 63.082 41.1992 62.0508 41.1992 60.3398V59.4434C41.1992 57.7441 40.3145 56.7129 38.873 56.7129C37.9941 56.7129 37.2969 57.1113 37.0449 57.7793H36.9746V56.7891H35.6211V65.0918H37.0098V62.0566H37.0801C37.3555 62.7129 37.9941 63.082 38.8438 63.082ZM38.4219 61.9277C37.5781 61.9277 37.0098 61.3066 37.0098 60.375V59.5078C37.0098 58.4883 37.5371 57.8672 38.4043 57.8672C39.2891 57.8672 39.7871 58.5059 39.7871 59.6191V60.1875C39.7871 61.2949 39.2891 61.9277 38.4219 61.9277Z" fill="#0063E4"/>
<defs>
<filter id="filter0_dd" x="0" y="0" width="56" height="56" filterUnits="userSpaceOnUse" color-interpolation-filters="sRGB">
<feFlood flood-opacity="0" result="BackgroundImageFix"/>
<feColorMatrix in="SourceAlpha" type="matrix" values="0 0 0 0 0 0 0 0 0 0 0 0 0 0 0 0 0 0 127 0"/>
<feOffset dy="4"/>
<feGaussianBlur stdDeviation="2"/>
<feColorMatrix type="matrix" values="0 0 0 0 0.604167 0 0 0 0 0.604167 0 0 0 0 0.604167 0 0 0 0.14 0"/>
<feBlend mode="normal" in2="BackgroundImageFix" result="effect1_dropShadow"/>
<feColorMatrix in="SourceAlpha" type="matrix" values="0 0 0 0 0 0 0 0 0 0 0 0 0 0 0 0 0 0 127 0"/>
<feOffset dy="4"/>
<feGaussianBlur stdDeviation="2"/>
<feColorMatrix type="matrix" values="0 0 0 0 1 0 0 0 0 1 0 0 0 0 1 0 0 0 0.25 0"/>
<feBlend mode="normal" in2="effect1_dropShadow" result="effect2_dropShadow"/>
<feBlend mode="normal" in="SourceGraphic" in2="effect2_dropShadow" result="shape"/>
</filter>
</defs>
</svg>
