<svg id="Group_1" data-name="Group 1" xmlns="http://www.w3.org/2000/svg" width="47.972" height="48.022" viewBox="0 0 47.972 48.022">
  <path id="Path_1" data-name="Path 1" d="M47.387,38.091l-11.75-5.42a1,1,0,0,1-.58-1C36.167,15,37.3,21,29.467,2a3.23,3.23,0,0,0-5.5-.8,3.23,3.23,0,0,0-5.5.8l-5.5,13.47c-1.3,3.15-.82,4.64-.05,16.23.07.95.09.66-12.33,6.39A1,1,0,0,0,.967,40c.32,0-.67.41,12.17-5.52a3,3,0,0,0,1.74-2.92l-.76-11.31c-.2-3,.64-4,6.2-17.48a1.25,1.25,0,0,1,2.38.61L21.177,17a3.49,3.49,0,0,0-3.21,3.5V27a1,1,0,0,0,2,0V20.5a1.5,1.5,0,0,1,3,0v13.69a5,5,0,0,1-1.8,3.81l-9.84,8.2a1,1,0,0,0,1.28,1.54c10.52-8.74,10.54-8.58,11.36-9.95.9,1.5,1.17,1.49,11.36,10a1,1,0,0,0,1.28-1.54L26.767,38a5,5,0,0,1-1.8-3.81V20.5a1.5,1.5,0,0,1,3,0V27a1,1,0,0,0,2,0V20.5a3.49,3.49,0,0,0-3.21-3.5l-1.52-13.62a1.25,1.25,0,0,1,2.38-.61c5.75,14,6.38,14.69,6.2,17.48l-.76,11.31a3,3,0,0,0,1.74,2.92c12.63,5.83,11.85,5.52,12.17,5.52a1,1,0,0,0,.42-1.91Zm-24.24-20.64.82-7.4.82,7.4a3.242,3.242,0,0,0-.82.61A3.24,3.24,0,0,0,23.147,17.451Z" fill="#9d9d9d"/>
  <path id="Path_2" data-name="Path 2" d="M10,35l11,4" fill="none" stroke="#9d9d9d" stroke-linecap="round" stroke-linejoin="round" stroke-width="2"/>
  <path id="Path_3" data-name="Path 3" d="M36.606,34.218,27,39.389" fill="none" stroke="#9d9d9d" stroke-linecap="round" stroke-linejoin="round" stroke-width="2"/>
</svg>
