<?xml version="1.0" encoding="UTF-8"?>
<svg width="50px" height="50px" viewBox="0 0 50 50" version="1.1" xmlns="http://www.w3.org/2000/svg" xmlns:xlink="http://www.w3.org/1999/xlink">
    <!-- Generator: Sketch 56.3 (81716) - https://sketch.com -->
    <title>Group</title>
    <desc>Created with Sketch.</desc>
    <g id="Page-1" stroke="none" stroke-width="1" fill="none" fill-rule="evenodd">
        <g id="Group" fill-rule="nonzero">
            <g id="icon-mp4" fill="#009ADF">
                <circle id="Oval" cx="25" cy="25" r="25"></circle>
            </g>
            <g id="frame-landscape" transform="translate(25.000000, 25.000000) scale(-1, 1) translate(-25.000000, -25.000000) translate(11.000000, 14.000000)" fill="#FFFFFF">
                <path d="M27.5563724,0 L0.443627606,0 C0.198656442,0 0,0.197800079 0,0.441912598 L0,21.5580874 C0,21.8021999 0.198656442,22 0.443627606,22 L27.5563724,22 C27.801521,22 28,21.8021999 28,21.5580874 L28,0.441912598 C28,0.197800079 27.801521,0 27.5563724,0 Z M25.3382344,18.4768076 L19.2369352,12.1827349 C19.1695038,12.1133546 19.0592179,12.1088471 18.986463,12.1726593 L14.7546993,15.8828691 L9.34581406,9.24878876 C9.31067875,9.20548132 9.25930667,9.18073422 9.20119146,9.18197157 C9.14520565,9.18312055 9.09294632,9.20990045 9.0594968,9.254622 L2.66176564,17.8060727 L2.66176564,2.65147559 L25.3382344,2.65147559 L25.3382344,18.4768076 L25.3382344,18.4768076 Z" id="Shape"></path>
                <path d="M18.499949,9 C19.8797725,9 21,8.1046796 21,7.00008153 C21,5.89580955 19.8797725,5 18.499949,5 C17.1190044,5 16,5.89580955 16,7.00008153 C16,8.10459808 17.1191063,9 18.499949,9 Z" id="Path"></path>
            </g>
        </g>
    </g>
</svg>