<?xml version="1.0" encoding="UTF-8"?>
<svg width="36px" height="36px" viewBox="0 0 36 36" version="1.1" xmlns="http://www.w3.org/2000/svg" xmlns:xlink="http://www.w3.org/1999/xlink">
    <!-- Generator: Sketch 61 (89581) - https://sketch.com -->
    <title>icon-diagnosis</title>
    <desc>Created with Sketch.</desc>
    <g id="Page-1" stroke="none" stroke-width="1" fill="none" fill-rule="evenodd">
        <g id="icon-diagnosis" fill="#0063E8" fill-rule="nonzero">
            <path d="M36,4.8 C36,2.16 33.84,0 31.2,0 C28.56,0 26.4,2.16 26.4,4.8 C26.4,7.08 27.96,8.88 30,9.48 L30,25.2 C30,29.88 26.28,33.6 21.6,33.6 C16.92,33.6 13.2,29.88 13.2,25.2 L13.2,23.88 C19.2,23.28 24,18.12 24,12 L24,1.2 C24,0.48 23.52,0 22.8,0 L18.24,0 C17.52,0 17.04,0.48 17.04,1.2 C17.04,1.92 17.52,2.4 18.24,2.4 L21.6,2.4 L21.6,12 C21.6,17.28 17.28,21.6 12,21.6 C6.72,21.6 2.4,17.28 2.4,12 L2.4,2.4 L5.76,2.4 C6.48,2.4 6.96,1.92 6.96,1.2 C6.96,0.48 6.48,0 5.76,0 L1.2,0 C0.48,0 0,0.48 0,1.2 L0,12 C0,18.24 4.8,23.28 10.8,23.88 L10.8,25.2 C10.8,31.2 15.6,36 21.6,36 C27.6,36 32.4,31.2 32.4,25.2 L32.4,9.48 C34.44,8.88 36,7.08 36,4.8 Z M31.2,7.2 C29.88,7.2 28.8,6.12 28.8,4.8 C28.8,3.48 29.88,2.4 31.2,2.4 C32.52,2.4 33.6,3.48 33.6,4.8 C33.6,6.12 32.52,7.2 31.2,7.2 Z" id="icon-Diagnosis"></path>
        </g>
    </g>
</svg>