<?xml version="1.0" encoding="UTF-8"?>
<svg width="36px" height="36px" viewBox="0 0 36 36" version="1.1" xmlns="http://www.w3.org/2000/svg" xmlns:xlink="http://www.w3.org/1999/xlink">
    <!-- Generator: Sketch 61 (89581) - https://sketch.com -->
    <title>icon-make-sure</title>
    <desc>Created with Sketch.</desc>
    <g id="Page-1" stroke="none" stroke-width="1" fill="none" fill-rule="evenodd">
        <g id="icon-make-sure" fill="#0063E8" fill-rule="nonzero">
            <path d="M18,0 C8.0590909,0 0,8.059091 0,18 C0,27.940909 8.0590909,36 18,36 C27.9409091,36 36,27.940909 36,18 C36,8.059091 27.9409091,0 18,0 Z M28.1004545,12.354545 C26.1163636,14.342727 24.7786364,15.500455 21.0518182,19.996364 C18.9,22.59 16.8668182,25.375909 16.8504545,25.396364 L15.9586364,26.509091 C15.7704545,26.758636 15.4063636,26.787273 15.1772727,26.574545 L8.0140909,19.918636 C7.28590909,19.243636 7.245,18.102273 7.92,17.374091 C8.595,16.645909 9.7363636,16.605 10.4645455,17.28 L14.7559091,21.268636 C14.9809091,21.477273 15.3327273,21.452727 15.5290909,21.215455 C16.1918182,20.393182 17.1,19.395 18.0818182,18.409091 C21.7718182,14.690455 24.0381818,12.694091 25.2490909,11.810455 C26.7218182,10.738636 28.4113636,9.822273 28.8204545,10.329545 C29.4545455,11.123182 29.0659091,11.385 28.1004545,12.354545 Z"></path>
        </g>
    </g>
</svg>