<svg width="26" height="26" viewBox="0 0 26 26" fill="none" xmlns="http://www.w3.org/2000/svg">
<circle cx="13" cy="13" r="13" fill="#2680BC"/>
<path d="M13.0001 22.1667C14.0084 22.1667 14.8334 21.3417 14.8334 20.3333H11.1667C11.1667 21.3417 11.9917 22.1667 13.0001 22.1667ZM18.5001 16.6667V12.0833C18.5001 9.26916 17.0059 6.91332 14.3751 6.28999V5.66666C14.3751 4.90582 13.7609 4.29166 13.0001 4.29166C12.2392 4.29166 11.6251 4.90582 11.6251 5.66666V6.28999C9.00341 6.91332 7.50008 9.25999 7.50008 12.0833V16.6667L5.66675 18.5V19.4167H20.3334V18.5L18.5001 16.6667ZM16.6667 17.5833H9.33341V12.0833C9.33341 9.80999 10.7176 7.95832 13.0001 7.95832C15.2826 7.95832 16.6667 9.80999 16.6667 12.0833V17.5833Z" fill="white"/>
</svg>
