<svg width="16" height="16" viewBox="0 0 16 16" fill="none" xmlns="http://www.w3.org/2000/svg">
<path d="M7.99991 1.90004C9.15991 1.90004 10.0999 2.84004 10.0999 4.00004C10.0999 5.16004 9.15991 6.10005 7.99991 6.10005C6.83991 6.10005 5.89991 5.16004 5.89991 4.00004C5.89991 2.84004 6.83991 1.90004 7.99991 1.90004ZM7.99991 10.9C10.9699 10.9 14.0999 12.36 14.0999 13V14.1H1.89991V13C1.89991 12.36 5.02991 10.9 7.99991 10.9ZM7.99991 4.48227e-05C5.78991 4.48227e-05 3.99991 1.79004 3.99991 4.00004C3.99991 6.21004 5.78991 8.00004 7.99991 8.00004C10.2099 8.00004 11.9999 6.21004 11.9999 4.00004C11.9999 1.79004 10.2099 4.48227e-05 7.99991 4.48227e-05ZM7.99991 9.00004C5.32991 9.00004 -9.15527e-05 10.34 -9.15527e-05 13V16H15.9999V13C15.9999 10.34 10.6699 9.00004 7.99991 9.00004Z" fill="#A0A0A0"/>
</svg>
