<svg width="163" height="55" viewBox="0 0 163 55" fill="none" xmlns="http://www.w3.org/2000/svg">
<g filter="url(#filter0_d)">
<rect x="4" width="155" height="47" rx="23.5" fill="#8F8F8F"/>
</g>
<path d="M43.2556 19.2656H45.7244C47.0759 19.2656 47.9041 20.0078 47.9041 21.2344C47.9041 22.4922 47.1228 23.2109 45.7713 23.2109H43.2556V19.2656ZM43.2556 24.7031H45.7244L48.0213 29H50.0447L47.5134 24.4141C48.8884 23.9453 49.7009 22.7109 49.7009 21.1953C49.7009 19.0781 48.24 17.7266 45.9666 17.7266H41.5056V29H43.2556V24.7031ZM55.3284 21.7578C56.5706 21.7578 57.3831 22.625 57.4222 23.9609H53.1253C53.2191 22.6328 54.0863 21.7578 55.3284 21.7578ZM57.4144 26.7031C57.1019 27.3672 56.4066 27.7344 55.3909 27.7344C54.0472 27.7344 53.18 26.7891 53.1253 25.2969V25.2031H59.1331V24.6172C59.1331 21.9453 57.7034 20.3281 55.3363 20.3281C52.9378 20.3281 51.4144 22.0547 51.4144 24.7734C51.4144 27.4922 52.9066 29.1641 55.3441 29.1641C57.2894 29.1641 58.6488 28.2266 59.0316 26.7031H57.4144ZM66.3934 25.2812V23.6328H61.2684V25.2812H66.3934ZM70.8959 19.2656H73.3647C74.7163 19.2656 75.5444 20.0078 75.5444 21.2344C75.5444 22.4922 74.7631 23.2109 73.4116 23.2109H70.8959V19.2656ZM70.8959 24.7031H73.3647L75.6616 29H77.685L75.1538 24.4141C76.5288 23.9453 77.3413 22.7109 77.3413 21.1953C77.3413 19.0781 75.8803 17.7266 73.6069 17.7266H69.1459V29H70.8959V24.7031ZM82.9688 21.7578C84.2109 21.7578 85.0234 22.625 85.0625 23.9609H80.7656C80.8594 22.6328 81.7266 21.7578 82.9688 21.7578ZM85.0547 26.7031C84.7422 27.3672 84.0469 27.7344 83.0312 27.7344C81.6875 27.7344 80.8203 26.7891 80.7656 25.2969V25.2031H86.7734V24.6172C86.7734 21.9453 85.3438 20.3281 82.9766 20.3281C80.5781 20.3281 79.0547 22.0547 79.0547 24.7734C79.0547 27.4922 80.5469 29.1641 82.9844 29.1641C84.9297 29.1641 86.2891 28.2266 86.6719 26.7031H85.0547ZM96.0806 23.2734C95.8619 21.5703 94.5728 20.3281 92.44 20.3281C89.9634 20.3281 88.4556 21.9922 88.4556 24.7188C88.4556 27.4922 89.9712 29.1641 92.4478 29.1641C94.5494 29.1641 95.8619 27.9766 96.0806 26.2656H94.4478C94.2291 27.1797 93.5025 27.6641 92.44 27.6641C91.0416 27.6641 90.1744 26.5625 90.1744 24.7188C90.1744 22.9062 91.0337 21.8281 92.44 21.8281C93.565 21.8281 94.2525 22.4453 94.4478 23.2734H96.0806ZM101.685 29.1641C104.169 29.1641 105.692 27.5 105.692 24.7422C105.692 22 104.161 20.3281 101.685 20.3281C99.2003 20.3281 97.6691 22 97.6691 24.7422C97.6691 27.5 99.1925 29.1641 101.685 29.1641ZM101.685 27.6719C100.224 27.6719 99.4034 26.6016 99.4034 24.7422C99.4034 22.8984 100.224 21.8203 101.685 21.8203C103.138 21.8203 103.966 22.8984 103.966 24.7422C103.966 26.5938 103.138 27.6719 101.685 27.6719ZM107.804 29H109.484V23.9766C109.484 22.7812 110.382 21.9766 111.656 21.9766C111.953 21.9766 112.453 22.0312 112.593 22.0781V20.4219C112.414 20.375 112.093 20.3516 111.843 20.3516C110.734 20.3516 109.789 20.9609 109.547 21.7969H109.422V20.4922H107.804V29ZM117.19 29.1406C118.362 29.1406 119.354 28.5859 119.862 27.6562H119.994V29H121.604V17.1719H119.924V21.8438H119.799C119.338 20.9062 118.354 20.3516 117.19 20.3516C115.041 20.3516 113.658 22.0547 113.658 24.7422C113.658 27.4375 115.026 29.1406 117.19 29.1406ZM117.666 21.8594C119.072 21.8594 119.955 22.9766 119.955 24.75C119.955 26.5312 119.08 27.6328 117.666 27.6328C116.244 27.6328 115.393 26.5469 115.393 24.7422C115.393 22.9531 116.252 21.8594 117.666 21.8594Z" fill="white"/>
<defs>
<filter id="filter0_d" x="0" y="0" width="163" height="55" filterUnits="userSpaceOnUse" color-interpolation-filters="sRGB">
<feFlood flood-opacity="0" result="BackgroundImageFix"/>
<feColorMatrix in="SourceAlpha" type="matrix" values="0 0 0 0 0 0 0 0 0 0 0 0 0 0 0 0 0 0 127 0"/>
<feOffset dy="4"/>
<feGaussianBlur stdDeviation="2"/>
<feColorMatrix type="matrix" values="0 0 0 0 0 0 0 0 0 0 0 0 0 0 0 0 0 0 0.25 0"/>
<feBlend mode="normal" in2="BackgroundImageFix" result="effect1_dropShadow"/>
<feBlend mode="normal" in="SourceGraphic" in2="effect1_dropShadow" result="shape"/>
</filter>
</defs>
</svg>
