<svg width="18" height="17" viewBox="0 0 18 17" fill="none" xmlns="http://www.w3.org/2000/svg">
<path d="M17.5819 6.51436L10.2955 0.052964C10.233 0.00148397 10.1406 -0.0143559 10.0601 0.0138041C9.97914 0.0406441 9.92678 0.105324 9.92678 0.177484L9.93778 3.25132C6.25542 3.30852 0.359863 6.49808 0.359863 16.5939C0.359863 16.6946 0.432903 16.7796 0.533223 16.7936C0.542463 16.795 0.552583 16.7958 0.561383 16.7958C0.650263 16.7958 0.729903 16.7382 0.755863 16.6515C2.0785 12.2238 6.69586 10.0366 9.34774 10.0366C9.59766 10.0366 9.79918 10.0432 9.93822 10.0476L9.92722 13.1566C9.92722 13.2288 9.98002 13.2939 10.0605 13.3207C10.1428 13.348 10.2348 13.3326 10.2959 13.2811L17.5832 6.79772C17.6598 6.7194 17.6598 6.59268 17.5819 6.51436Z" fill="#B2B1B6"/>
</svg>
