<svg width="18" height="18" viewBox="0 0 18 18" fill="none" xmlns="http://www.w3.org/2000/svg">
<path d="M17.4854 2.46079C17.2206 2.19553 16.7909 2.19508 16.5261 2.45966L8.38771 10.5766L5.45139 7.38748C5.19766 7.11207 4.76869 7.09421 4.49282 7.3479C4.21716 7.60162 4.19951 8.03081 4.45323 8.30647L7.86782 12.0148C7.99287 12.1507 8.16787 12.2296 8.35241 12.2335C8.35737 12.2337 8.36215 12.2337 8.36689 12.2337C8.54623 12.2337 8.71874 12.1624 8.84583 12.0358L17.484 3.42024C17.7495 3.15569 17.75 2.72604 17.4854 2.46079Z" fill="#4CAF50"/>
<path d="M17.3216 8.32159C16.9469 8.32159 16.6432 8.62527 16.6432 9C16.6432 13.2146 13.2146 16.6432 9 16.6432C4.78561 16.6432 1.35679 13.2146 1.35679 9C1.35679 4.78561 4.78561 1.35679 9 1.35679C9.3747 1.35679 9.67841 1.05311 9.67841 0.67841C9.67841 0.30368 9.3747 0 9 0C4.03734 0 0 4.03734 0 9C0 13.9624 4.03734 18 9 18C13.9624 18 18 13.9624 18 9C18 8.6253 17.6963 8.32159 17.3216 8.32159Z" fill="#4CAF50"/>
</svg>
