<?xml version="1.0" encoding="UTF-8"?>
<svg width="36px" height="36px" viewBox="0 0 36 36" version="1.1" xmlns="http://www.w3.org/2000/svg" xmlns:xlink="http://www.w3.org/1999/xlink">
    <!-- Generator: Sketch 52.2 (67145) - http://www.bohemiancoding.com/sketch -->
    <title>icon-office-vitis-2</title>
    <desc>Created with Sketch.</desc>
    <g id="Symbols" stroke="none" stroke-width="1" fill="none" fill-rule="evenodd">
        <g id="Card-Visit-Office-Start" transform="translate(-14.000000, -17.000000)" fill="#FFFFFF" fill-rule="nonzero">
            <path d="M50,21.8 C50,19.16 47.84,17 45.2,17 C42.56,17 40.4,19.16 40.4,21.8 C40.4,24.08 41.96,25.88 44,26.48 L44,42.2 C44,46.88 40.28,50.6 35.6,50.6 C30.92,50.6 27.2,46.88 27.2,42.2 L27.2,40.88 C33.2,40.28 38,35.12 38,29 L38,18.2 C38,17.48 37.52,17 36.8,17 L32.24,17 C31.52,17 31.04,17.48 31.04,18.2 C31.04,18.92 31.52,19.4 32.24,19.4 L35.6,19.4 L35.6,29 C35.6,34.28 31.28,38.6 26,38.6 C20.72,38.6 16.4,34.28 16.4,29 L16.4,19.4 L19.76,19.4 C20.48,19.4 20.96,18.92 20.96,18.2 C20.96,17.48 20.48,17 19.76,17 L15.2,17 C14.48,17 14,17.48 14,18.2 L14,29 C14,35.24 18.8,40.28 24.8,40.88 L24.8,42.2 C24.8,48.2 29.6,53 35.6,53 C41.6,53 46.4,48.2 46.4,42.2 L46.4,26.48 C48.44,25.88 50,24.08 50,21.8 Z M45.2,24.2 C43.88,24.2 42.8,23.12 42.8,21.8 C42.8,20.48 43.88,19.4 45.2,19.4 C46.52,19.4 47.6,20.48 47.6,21.8 C47.6,23.12 46.52,24.2 45.2,24.2 Z" id="icon-office-vitis-2"></path>
        </g>
    </g>
</svg>