<?xml version="1.0" encoding="UTF-8"?>
<svg width="44px" height="43px" viewBox="0 0 44 43" version="1.1" xmlns="http://www.w3.org/2000/svg" xmlns:xlink="http://www.w3.org/1999/xlink">
    <!-- Generator: Sketch 63.1 (92452) - https://sketch.com -->
    <title>Stop-Share Copy</title>
    <desc>Created with Sketch.</desc>
    <g id="Page-1" stroke="none" stroke-width="1" fill="none" fill-rule="evenodd">
        <g id="Calling-Copy" transform="translate(-638.000000, -531.000000)">
            <g id="Stop-Share-Copy" transform="translate(639.000000, 531.000000)">
                <path d="M30.0164045,14.1584954 C30.38124,14.6061132 30.6,15.1775095 30.6,15.8 L30.6,15.8 L30.6,24.7999997 C30.6,26.23594 29.4359403,27.3999997 28,27.3999997 L28,27.3999997 L16.775,27.399 L18.374,25.8 L28,25.8 C28.5128358,25.8 28.9355071,25.4139595 28.9932722,24.9166211 L29,24.8 L29,15.8 C29,15.6202431 28.9525706,15.4515639 28.8695437,15.3057941 Z M26.924,13.2 L25.324,14.8 L13.6,14.8 C13.0871641,14.8 12.6644928,15.1860402 12.6067277,15.6833789 L12.6,15.8 L12.6,24.8 C12.6,25.3522844 13.0477152,25.8 13.6,25.8 L13.6,25.8 L14.325,25.8 L12.838921,27.2868341 C11.824519,26.9767672 11.0736758,26.0630572 11.0051151,24.9644278 L11,24.7999997 L11,15.8 C11,14.3640596 12.1640596,13.2 13.5999999,13.2 L13.5999999,13.2 L26.924,13.2 Z" id="Combined-Shape" fill="#FFFFFF" fill-rule="nonzero"></path>
                <path d="M21.4727115,18.6519999 L17.3115577,22.8142708 C17.0569964,23.0276017 16.8176061,23.2671155 16.5910311,23.5335973 L16.3204908,23.8045587 C16.8413098,21.4339392 18.2453545,19.096565 21.6999997,18.6169999 L21.4727115,18.6519999 Z M24.6887115,19.4859999 L25.2999998,20.0569998 L21.6999997,23.4229998 L21.6997115,22.4749999 L24.6887115,19.4859999 Z M21.6999997,16.6999999 L22.5927115,17.5319999 L21.6997115,18.4249999 L21.6999997,16.6999999 Z" id="Combined-Shape" fill="#FFFFFF"></path>
                <path d="M12.624,27.5 L11.024,29.1 L10,29.1 C9.5581722,29.1 9.2,28.7418278 9.2,28.3 C9.2,27.892159 9.50518815,27.5555984 9.8996497,27.5062331 L10,27.5 L12.624,27.5 Z M31.5999994,27.5 C32.0418272,27.5 32.3999994,27.8581722 32.3999994,28.3 C32.3999994,28.707841 32.0948113,29.0444016 31.7003497,29.0937669 L31.5999994,29.1 L15.074,29.1 L16.674,27.5 L31.5999994,27.5 Z" id="Combined-Shape" fill="#FFFFFF" fill-rule="nonzero"></path>
                <path d="M30.4768489,11.6730332 C30.8410271,12.0370294 30.8410271,12.6272084 30.4769884,12.9910652 L12.0911035,31.3767776 C11.913932,31.5543055 11.6780062,31.65 11.4320928,31.65 C11.1861795,31.65 10.9502536,31.5543055 10.773341,31.3770367 C10.4089436,31.0128515 10.4089436,30.4226549 10.7729978,30.0588436 L29.1586517,11.6731083 C29.5223868,11.3089764 30.1130061,11.3089764 30.4768489,11.6730332 Z" id="Path" fill="#FFFFFF" fill-rule="nonzero"></path>
                <circle id="Oval-11-Copy-2" stroke="#FFFFFF" stroke-width="0.75" cx="21" cy="21.5" r="21"></circle>
            </g>
        </g>
    </g>
</svg>