<?xml version="1.0" encoding="UTF-8"?>
<svg width="36px" height="36px" viewBox="0 0 36 36" version="1.1" xmlns="http://www.w3.org/2000/svg" xmlns:xlink="http://www.w3.org/1999/xlink">
    <!-- Generator: Sketch 61 (89581) - https://sketch.com -->
    <title>SYM</title>
    <desc>Created with Sketch.</desc>
    <g id="Page-1" stroke="none" stroke-width="1" fill="none" fill-rule="evenodd">
        <g id="SYM" fill="#0063E8" fill-rule="nonzero">
            <path d="M35.6398604,11.582198 C35.3370578,11.279395 34.9207043,11.165844 34.5043508,11.241545 L25.9501787,13.285462 C25.5338252,13.399013 25.1931723,13.701815 25.0796214,14.118169 C24.9660704,14.534522 25.0796214,14.988726 25.3824239,15.291529 L27.3506405,17.259745 L20.9160863,23.6943 C20.5754334,23.505048 20.1969302,23.353647 19.818427,23.240096 L19.818427,9.878933 L22.6193506,9.878933 C23.0735545,9.878933 23.4520577,9.651831 23.6791596,9.273328 C23.9062615,8.894825 23.8684112,8.402771 23.6413093,8.062118 L19.0235703,0.567755 C18.7964684,0.227102 18.4179652,0 18.0016117,0 C17.5852582,0 17.206755,0.227102 16.9796531,0.567755 L12.3619142,8.024268 C12.1348123,8.402771 12.1348123,8.856975 12.3240639,9.235478 C12.5511658,9.613981 12.929669,9.841083 13.3838728,9.841083 L16.1847964,9.841083 L16.1847964,23.240096 C15.8062932,23.353647 15.42779,23.505048 15.0871372,23.6943 L8.65258293,17.259745 L10.6207995,15.291529 C10.9236021,14.988726 11.037153,14.534522 10.9236021,14.118169 C10.8100511,13.701815 10.4693982,13.361163 10.0530447,13.285462 L1.49887263,11.279395 C1.08251912,11.165844 0.66616561,11.317245 0.36336306,11.620048 C0.06056051,11.92285 -0.052990447,12.339204 0.02271019,12.755558 L2.0287771,21.30973 C2.14232806,21.726083 2.44513061,22.066736 2.86148412,22.180287 C2.97503507,22.218137 3.08858603,22.218137 3.20213699,22.218137 C3.50493954,22.218137 3.84559241,22.104586 4.07269433,21.877484 L6.04091091,19.909268 L12.4754651,26.343822 C12.0212613,27.214379 11.7563091,28.198488 11.7563091,29.258297 C11.7563091,32.702676 14.5572327,35.503599 18.0016117,35.503599 C21.4459907,35.503599 24.2469144,32.702676 24.2469144,29.258297 C24.2469144,28.198488 23.9819621,27.214379 23.5277583,26.343822 L29.9623125,19.909268 L31.9305291,21.877484 C32.157631,22.104586 32.4604336,22.218137 32.8010865,22.218137 C32.9146374,22.218137 33.0281884,22.218137 33.1417393,22.180287 C33.5580928,22.066736 33.8987457,21.726083 33.9744463,21.30973 L35.9805132,12.755558 C36.0562139,12.301354 35.9048126,11.885 35.6398604,11.582198 Z M18.0016117,31.832118 C16.5632996,31.832118 15.3899397,30.658758 15.3899397,29.220446 C15.3899397,27.782134 16.5632996,26.608774 18.0016117,26.608774 C19.4399238,26.608774 20.6132837,27.782134 20.6132837,29.220446 C20.6132837,30.658758 19.4399238,31.832118 18.0016117,31.832118 Z" id="Shape"></path>
        </g>
    </g>
</svg>