<?xml version="1.0" encoding="UTF-8"?>
<svg width="36px" height="36px" viewBox="0 0 36 36" version="1.1" xmlns="http://www.w3.org/2000/svg" xmlns:xlink="http://www.w3.org/1999/xlink">
    <!-- Generator: Sketch 52.2 (67145) - http://www.bohemiancoding.com/sketch -->
    <title>icon-sympton-manager</title>
    <desc>Created with Sketch.</desc>
    <g id="Symbols" stroke="none" stroke-width="1" fill="none" fill-rule="evenodd">
        <g id="Card-Visit-Hospital-Welcome" transform="translate(-14.000000, -253.000000)" fill="#FFFFFF" fill-rule="nonzero">
            <path d="M49.6398604,264.582198 C49.3370578,264.279395 48.9207043,264.165844 48.5043508,264.241545 L39.9501787,266.285462 C39.5338252,266.399013 39.1931723,266.701815 39.0796214,267.118169 C38.9660704,267.534522 39.0796214,267.988726 39.3824239,268.291529 L41.3506405,270.259745 L34.9160863,276.6943 C34.5754334,276.505048 34.1969302,276.353647 33.818427,276.240096 L33.818427,262.878933 L36.6193506,262.878933 C37.0735545,262.878933 37.4520577,262.651831 37.6791596,262.273328 C37.9062615,261.894825 37.8684112,261.402771 37.6413093,261.062118 L33.0235703,253.567755 C32.7964684,253.227102 32.4179652,253 32.0016117,253 C31.5852582,253 31.206755,253.227102 30.9796531,253.567755 L26.3619142,261.024268 C26.1348123,261.402771 26.1348123,261.856975 26.3240639,262.235478 C26.5511658,262.613981 26.929669,262.841083 27.3838728,262.841083 L30.1847964,262.841083 L30.1847964,276.240096 C29.8062932,276.353647 29.42779,276.505048 29.0871372,276.6943 L22.6525829,270.259745 L24.6207995,268.291529 C24.9236021,267.988726 25.037153,267.534522 24.9236021,267.118169 C24.8100511,266.701815 24.4693982,266.361163 24.0530447,266.285462 L15.4988726,264.279395 C15.0825191,264.165844 14.6661656,264.317245 14.3633631,264.620048 C14.0605605,264.92285 13.9470096,265.339204 14.0227102,265.755558 L16.0287771,274.30973 C16.1423281,274.726083 16.4451306,275.066736 16.8614841,275.180287 C16.9750351,275.218137 17.088586,275.218137 17.202137,275.218137 C17.5049395,275.218137 17.8455924,275.104586 18.0726943,274.877484 L20.0409109,272.909268 L26.4754651,279.343822 C26.0212613,280.214379 25.7563091,281.198488 25.7563091,282.258297 C25.7563091,285.702676 28.5572327,288.503599 32.0016117,288.503599 C35.4459907,288.503599 38.2469144,285.702676 38.2469144,282.258297 C38.2469144,281.198488 37.9819621,280.214379 37.5277583,279.343822 L43.9623125,272.909268 L45.9305291,274.877484 C46.157631,275.104586 46.4604336,275.218137 46.8010865,275.218137 C46.9146374,275.218137 47.0281884,275.218137 47.1417393,275.180287 C47.5580928,275.066736 47.8987457,274.726083 47.9744463,274.30973 L49.9805132,265.755558 C50.0562139,265.301354 49.9048126,264.885 49.6398604,264.582198 Z M32.0016117,284.832118 C30.5632996,284.832118 29.3899397,283.658758 29.3899397,282.220446 C29.3899397,280.782134 30.5632996,279.608774 32.0016117,279.608774 C33.4399238,279.608774 34.6132837,280.782134 34.6132837,282.220446 C34.6132837,283.658758 33.4399238,284.832118 32.0016117,284.832118 Z" id="icon-sympton-manager"></path>
        </g>
    </g>
</svg>