<svg width="50" height="50" viewBox="0 0 50 50" fill="none" xmlns="http://www.w3.org/2000/svg">
<path d="M25 48.5C37.9787 48.5 48.5 37.9787 48.5 25C48.5 12.0213 37.9787 1.5 25 1.5C12.0213 1.5 1.5 12.0213 1.5 25C1.5 37.9787 12.0213 48.5 25 48.5Z" fill="white" stroke="#8AB1C1" stroke-width="3"/>
<rect x="4" y="4" width="42" height="42" rx="21" fill="#8AB1C1"/>
<path d="M16.7097 16C15.767 16 15.0005 16.7666 15.0005 17.7093V19.3957C15.0001 19.4033 15.0001 19.411 15.0005 19.4186V30.6512C14.9998 30.6613 14.9998 30.6715 15.0005 30.6817V32.3605C15.0005 33.3032 15.767 34.0698 16.7097 34.0698H34.2897C35.2324 34.0698 35.9989 33.3032 35.9989 32.3605V30.6969C36.0004 30.6817 36.0004 30.6664 35.9989 30.6512V19.4186C35.9993 19.411 35.9993 19.4033 35.9989 19.3957V17.7093C35.9989 16.7666 35.2324 16 34.2897 16H16.7097ZM16.7097 16.4884H34.2897C34.9703 16.4884 35.5106 17.0287 35.5106 17.7093V19.1744H15.4888V17.7093C15.4888 17.0287 16.0291 16.4884 16.7097 16.4884ZM15.4888 19.6628H35.5106V30.407H15.4888V19.6628ZM22.5239 21.6239C22.4653 21.6341 22.4125 21.6635 22.3747 21.7068C22.337 21.7501 22.3169 21.8045 22.3179 21.8605V28.2093C22.3175 28.2169 22.3175 28.2246 22.3179 28.2323C22.3214 28.2724 22.3358 28.311 22.3597 28.3445C22.3835 28.3779 22.4161 28.4051 22.4543 28.4235C22.4925 28.4418 22.5351 28.4507 22.578 28.4493C22.6209 28.4479 22.6627 28.4362 22.6994 28.4154L28.5594 25.241C28.5984 25.2204 28.6307 25.1905 28.6533 25.1542C28.6758 25.118 28.6877 25.0769 28.6877 25.0349C28.6877 24.993 28.6758 24.9519 28.6533 24.9157C28.6307 24.8794 28.5984 24.8495 28.5594 24.8289L22.6994 21.6544C22.6468 21.6245 22.5844 21.6137 22.5239 21.6239ZM22.8215 22.2725L27.9261 25.0349L22.8215 27.7972V22.2725ZM15.4888 30.8953H35.5106V32.3605C35.5106 33.0411 34.9703 33.5814 34.2897 33.5814H16.7097C16.0291 33.5814 15.4888 33.0411 15.4888 32.3605V30.8953Z" fill="white"/>
</svg>
