<?xml version="1.0" encoding="UTF-8"?>
<svg width="78px" height="78px" viewBox="0 0 78 78" version="1.1" xmlns="http://www.w3.org/2000/svg" xmlns:xlink="http://www.w3.org/1999/xlink">
    <!-- Generator: Sketch 61 (89581) - https://sketch.com -->
    <title>visit-icon2</title>
    <desc>Created with Sketch.</desc>
    <g id="Page-1" stroke="none" stroke-width="1" fill="none" fill-rule="evenodd">
        <g id="visit-icon2" fill-rule="nonzero">
            <path d="M76.5990774,41.0141439 C75.170959,39.5860255 72.834038,39.4561966 71.4059196,40.754486 L70.7567748,40.1053413 C70.2374591,39.5860255 69.1988275,39.5860255 68.6795117,40.1053413 L62.5775513,46.2073017 C62.0582356,46.7266175 62.0582356,47.765249 62.5775513,48.2845648 L63.0968671,48.8038806 C60.7599461,50.7513147 57.9037093,51.6601174 54.7878147,51.6601174 L4.02469728,51.6601174 C1.94743417,51.6601174 0.129828945,53.3478936 0.129828945,55.5549857 C0.129828945,57.6322488 1.81760523,59.449854 4.02469728,59.449854 L11.9442629,59.449854 L11.9442629,63.7342092 L25.3166442,63.7342092 C26.4851047,63.7342092 27.3939073,64.6430118 27.3939073,65.8114723 C27.3939073,66.9799328 26.4851047,67.8887354 25.3166442,67.8887354 L11.9442629,67.8887354 L11.9442629,72.3029196 L16.488276,72.3029196 C16.488276,72.3029196 16.6181049,72.3029196 16.6181049,72.1730906 C16.488276,72.6924064 16.358447,73.2117222 16.358447,73.7310379 C16.358447,76.0679589 18.1760523,77.8855642 20.5129733,77.8855642 C22.8498943,77.8855642 24.6674995,76.0679589 24.6674995,73.7310379 C24.6674995,73.2117222 24.5376705,72.6924064 24.4078416,72.1730906 C24.4078416,72.1730906 24.5376705,72.1730906 24.5376705,72.3029196 L39.4679992,72.3029196 C39.4679992,72.3029196 39.5978281,72.3029196 39.5978281,72.1730906 C39.4679992,72.6924064 39.3381702,73.0818932 39.3381702,73.7310379 C39.3381702,76.0679589 41.1557755,77.8855642 43.4926965,77.8855642 C45.8296175,77.8855642 47.6472227,76.0679589 47.6472227,73.7310379 C47.6472227,73.2117222 47.5173938,72.6924064 47.3875648,72.1730906 C47.3875648,72.1730906 47.5173938,72.1730906 47.5173938,72.3029196 L51.9315779,72.3029196 L51.9315779,67.8887354 L38.4293676,67.8887354 C37.2609071,67.8887354 36.3521045,66.9799328 36.3521045,65.8114723 C36.3521045,64.6430118 37.2609071,63.7342092 38.4293676,63.7342092 L51.9315779,63.7342092 L51.9315779,59.449854 L52.8403805,59.449854 L52.8403805,59.449854 L55.0474725,59.449854 C60.6301172,59.449854 65.9531039,57.242762 69.8479722,53.3478936 L76.7289063,46.4669596 C77.50788,45.6879859 77.8973668,44.7791833 77.8973668,43.7405517 C77.7675379,42.7019202 77.378051,41.6632886 76.5990774,41.0141439 Z" id="Path" fill="#0063E8"></path>
            <path d="M19.8638285,38.5473939 C19.8638285,38.6772229 19.8638285,38.8070518 19.8638285,38.9368808 L22.0709206,38.9368808 C22.3305785,38.9368808 22.7200653,38.9368808 23.6288679,38.5473939 C26.3552758,37.3789334 29.0816836,36.4701308 31.8080914,35.6911572 C32.3274072,31.406802 31.9379204,26.0838152 34.4046703,27.2522758 C34.4046703,27.2522758 34.5344993,27.2522758 34.5344993,27.3821047 C37.2609071,28.940052 39.5978281,30.1085125 41.9347491,31.1471441 C43.1032096,31.6664599 44.2716701,31.7962888 45.5699596,32.0559467 L45.8296175,32.0559467 C45.9594464,32.0559467 46.2191043,32.0559467 46.3489332,32.0559467 C46.998078,32.0559467 47.7770516,31.7962888 48.0367095,30.8874862 C48.1665385,30.2383415 48.1665385,29.3295389 46.6085911,28.6803941 C46.3489332,28.5505652 34.9239861,21.6696311 32.1975783,16.9957891 C31.0291178,15.048355 27.9132231,14.5290392 26.2254468,15.8273286 C24.1481837,17.5151049 22.8498943,22.3187759 22.0709206,24.7855258 C21.2919469,27.2522758 20.6428022,34.9121835 20.1234864,37.5087624 C19.9936575,38.0280782 19.9936575,38.0280782 19.8638285,38.5473939 Z" id="Path" fill="#0063E8"></path>
            <path d="M42.5838939,8.68673666 C43.6225254,6.86913144 43.6225254,5.18135516 42.324236,3.36374993 C41.8049202,2.58477626 41.0259465,1.93563154 40.2469728,1.41631576 C39.4679992,0.896999981 38.5591966,0.507513147 37.650394,0.247855258 C35.5731308,-0.271460521 33.8853546,0.377684203 32.5870651,1.93563154 C32.4572362,2.19528943 32.3274072,2.45494732 32.1975783,2.71460521 C31.0291178,4.40238149 30.3799731,6.34981566 29.9904862,8.42707877 C29.8606573,9.46571033 29.8606573,10.5043419 30.1203152,11.5429734 C30.3799731,12.581605 30.8992888,13.4904076 31.8080914,14.0097234 C32.5870651,14.6588681 33.6256967,14.7886971 34.6643282,14.6588681 C35.7029598,14.5290392 36.7415913,14.1395523 37.650394,13.6202366 C39.4679992,12.581605 41.0259465,11.1534866 42.194407,9.46571033 C42.194407,9.20605244 42.4540649,8.94639455 42.5838939,8.68673666 Z" id="Path" fill="#0063E8"></path>
            <path d="M10.3863156,34.9121835 C12.0740919,34.5226967 13.7618681,35.6911572 14.151355,37.2491045 L14.6706707,39.5860255 C14.9303286,40.6246571 15.8391313,41.4036307 17.0075918,41.4036307 L22.2007495,41.4036307 C22.8498943,41.4036307 23.7586969,41.1439728 24.6674995,40.754486 C32.1975783,37.5087624 39.7276571,35.950815 47.1279069,35.950815 L49.8543148,35.950815 C51.4122621,35.950815 52.9702094,36.5999598 54.1386699,37.7684203 C55.3071304,38.9368808 55.9562752,40.4948281 55.9562752,42.0527754 C55.9562752,45.428328 53.2298673,48.1547358 49.8543148,48.1547358 L14.021526,48.1547358 C13.7618681,48.1547358 13.3723813,48.1547358 13.1127234,48.0249069 C11.9442629,47.895078 10.9056314,47.3757622 9.99682874,46.5967885 L9.8669998,46.4669596 L8.82836824,42.4422623 L7.91956563,38.6772229 C7.91956563,38.417565 7.78973668,38.287736 7.78973668,38.0280782 C7.91956563,36.4701308 8.95819718,35.1718414 10.3863156,34.9121835 Z" id="Path" fill="#0091FF"></path>
            <circle id="Oval" fill="#0091FF" cx="61.1494329" cy="33.8735519" r="5.84230251"></circle>
        </g>
    </g>
</svg>