<svg width="50" height="50" viewBox="0 0 50 50" fill="none" xmlns="http://www.w3.org/2000/svg">
<path d="M25 48.5C37.9787 48.5 48.5 37.9787 48.5 25C48.5 12.0213 37.9787 1.5 25 1.5C12.0213 1.5 1.5 12.0213 1.5 25C1.5 37.9787 12.0213 48.5 25 48.5Z" fill="white" stroke="#A5A5A5" stroke-width="3"/>
<rect x="4" y="4" width="42" height="42" rx="21" fill="#A5A5A5"/>
<path d="M20.1891 34.3094H20.4984C21.0786 34.3081 21.6347 34.0771 22.045 33.6668C22.4552 33.2566 22.6863 32.7005 22.6875 32.1203V18.1891C22.6863 17.6089 22.4552 17.0528 22.045 16.6425C21.6347 16.2323 21.0786 16.0012 20.4984 16H20.1891C19.6089 16.0012 19.0528 16.2323 18.6425 16.6425C18.2323 17.0528 18.0012 17.6089 18 18.1891V32.1203C18.0012 32.7005 18.2323 33.2566 18.6425 33.6668C19.0528 34.0771 19.6089 34.3081 20.1891 34.3094ZM18.9375 18.1891C18.9375 18.0247 18.9699 17.862 19.0328 17.7101C19.0957 17.5583 19.1879 17.4203 19.3041 17.3041C19.4203 17.1879 19.5583 17.0957 19.7101 17.0328C19.862 16.9699 20.0247 16.9375 20.1891 16.9375H20.4984C20.8304 16.9375 21.1487 17.0694 21.3834 17.3041C21.6181 17.5388 21.75 17.8571 21.75 18.1891V32.1203C21.75 32.2847 21.7176 32.4474 21.6547 32.5993C21.5918 32.7511 21.4996 32.8891 21.3834 33.0053C21.2672 33.1215 21.1292 33.2137 20.9774 33.2766C20.8255 33.3395 20.6628 33.3719 20.4984 33.3719H20.1891C19.8571 33.3719 19.5388 33.24 19.3041 33.0053C19.0694 32.7706 18.9375 32.4522 18.9375 32.1203V18.1891Z" fill="white"/>
<path d="M25.3453 34.3094H25.6547C26.2349 34.3081 26.791 34.0771 27.2012 33.6668C27.6115 33.2566 27.8425 32.7005 27.8438 32.1203V18.1891C27.8425 17.6089 27.6115 17.0528 27.2012 16.6425C26.791 16.2323 26.2349 16.0012 25.6547 16H25.3453C24.7651 16.0012 24.209 16.2323 23.7988 16.6425C23.3885 17.0528 23.1575 17.6089 23.1562 18.1891V32.1203C23.1575 32.7005 23.3885 33.2566 23.7988 33.6668C24.209 34.0771 24.7651 34.3081 25.3453 34.3094ZM24.0938 18.1891C24.0938 17.8571 24.2256 17.5388 24.4603 17.3041C24.695 17.0694 25.0134 16.9375 25.3453 16.9375H25.6547C25.9866 16.9375 26.305 17.0694 26.5397 17.3041C26.7744 17.5388 26.9062 17.8571 26.9062 18.1891V32.1203C26.9062 32.4522 26.7744 32.7706 26.5397 33.0053C26.305 33.24 25.9866 33.3719 25.6547 33.3719H25.3453C25.0134 33.3719 24.695 33.24 24.4603 33.0053C24.2256 32.7706 24.0938 32.4522 24.0938 32.1203V18.1891Z" fill="white"/>
<path d="M30.5016 34.3094H30.8109C31.3911 34.3081 31.9472 34.0771 32.3575 33.6668C32.7677 33.2566 32.9988 32.7005 33 32.1203V18.1891C32.9988 17.6089 32.7677 17.0528 32.3575 16.6425C31.9472 16.2323 31.3911 16.0012 30.8109 16H30.5016C29.9214 16.0012 29.3653 16.2323 28.955 16.6425C28.5448 17.0528 28.3137 17.6089 28.3125 18.1891V32.1203C28.3137 32.7005 28.5448 33.2566 28.955 33.6668C29.3653 34.0771 29.9214 34.3081 30.5016 34.3094ZM29.25 18.1891C29.25 17.8571 29.3819 17.5388 29.6166 17.3041C29.8513 17.0694 30.1696 16.9375 30.5016 16.9375H30.8109C31.1429 16.9375 31.4612 17.0694 31.6959 17.3041C31.9306 17.5388 32.0625 17.8571 32.0625 18.1891V32.1203C32.0625 32.4522 31.9306 32.7706 31.6959 33.0053C31.4612 33.24 31.1429 33.3719 30.8109 33.3719H30.5016C30.1696 33.3719 29.8513 33.24 29.6166 33.0053C29.3819 32.7706 29.25 32.4522 29.25 32.1203V18.1891Z" fill="white"/>
</svg>
