<svg width="20" height="18" viewBox="0 0 20 18" fill="none" xmlns="http://www.w3.org/2000/svg">
<path d="M17.3666 2.84169C16.941 2.41586 16.4356 2.07806 15.8794 1.8476C15.3232 1.61713 14.727 1.4985 14.1249 1.4985C13.5229 1.4985 12.9267 1.61713 12.3705 1.8476C11.8143 2.07806 11.3089 2.41586 10.8833 2.84169L9.99994 3.72503L9.1166 2.84169C8.25686 1.98195 7.0908 1.49895 5.87494 1.49895C4.65908 1.49895 3.49301 1.98195 2.63327 2.84169C1.77353 3.70144 1.29053 4.8675 1.29053 6.08336C1.29053 7.29922 1.77353 8.46528 2.63327 9.32503L3.5166 10.2084L9.99994 16.6917L16.4833 10.2084L17.3666 9.32503C17.7924 8.8994 18.1302 8.39404 18.3607 7.83782C18.5912 7.28161 18.7098 6.68543 18.7098 6.08336C18.7098 5.48129 18.5912 4.88511 18.3607 4.3289C18.1302 3.77268 17.7924 3.26732 17.3666 2.84169V2.84169Z" stroke="#0364E6" stroke-linecap="round" stroke-linejoin="round"/>
</svg>
