<svg width="19" height="19" viewBox="0 0 19 19" fill="none" xmlns="http://www.w3.org/2000/svg">
<path d="M18.0972 15.2091L13.612 13.1402C13.5402 13.1073 13.4802 13.0529 13.4406 12.9846C13.4009 12.9162 13.3835 12.8372 13.3906 12.7585C13.8143 6.39531 14.2457 8.68559 11.2569 1.43302C11.1754 1.23505 11.0438 1.0617 10.875 0.930041C10.7062 0.798378 10.506 0.712935 10.2942 0.682121C10.0823 0.651306 9.86609 0.676183 9.66678 0.754302C9.46746 0.832422 9.29192 0.961092 9.15743 1.12765C9.02294 0.961092 8.8474 0.832422 8.64809 0.754302C8.44877 0.676183 8.23255 0.651306 8.02071 0.682121C7.80886 0.712935 7.60868 0.798378 7.43988 0.930041C7.27108 1.0617 7.13947 1.23505 7.058 1.43302L4.95858 6.57471C4.46235 7.77711 4.64557 8.34587 4.93949 12.7699C4.96621 13.1326 4.97384 13.0219 0.232954 15.2091C0.154534 15.2447 0.0904587 15.3058 0.0511389 15.3824C0.0118191 15.459 -0.000433819 15.5467 0.0163711 15.6311C0.0331761 15.7156 0.0780513 15.7919 0.143705 15.8477C0.209358 15.9034 0.291931 15.9353 0.378005 15.9382C0.500154 15.9382 0.122257 16.0947 5.02347 13.8311C5.23392 13.7343 5.41007 13.5759 5.52865 13.3769C5.64723 13.1779 5.70267 12.9477 5.68765 12.7165L5.39755 8.39931C5.3212 7.25416 5.64185 6.87245 7.76418 1.72694C7.81124 1.62614 7.89204 1.54495 7.99262 1.49741C8.09319 1.44987 8.20722 1.43897 8.31499 1.46659C8.42275 1.49421 8.51747 1.55861 8.58278 1.64867C8.64809 1.73873 8.67988 1.84878 8.67266 1.95979L8.09245 7.15873C7.75731 7.1857 7.44477 7.3384 7.21751 7.58618C6.99026 7.83397 6.8651 8.15852 6.86715 8.49473V10.9759C6.86715 11.0771 6.90736 11.1742 6.97895 11.2458C7.05053 11.3174 7.14762 11.3576 7.24886 11.3576C7.3501 11.3576 7.44719 11.3174 7.51877 11.2458C7.59036 11.1742 7.63058 11.0771 7.63058 10.9759V8.49473C7.63058 8.34288 7.6909 8.19724 7.79828 8.08987C7.90566 7.98249 8.05129 7.92216 8.20315 7.92216C8.355 7.92216 8.50064 7.98249 8.60802 8.08987C8.71539 8.19724 8.77572 8.34288 8.77572 8.49473V13.7204C8.77394 13.9982 8.71154 14.2723 8.59286 14.5235C8.47419 14.7747 8.30211 14.9969 8.08863 15.1747L4.33256 18.3048C4.29397 18.3369 4.26207 18.3762 4.23868 18.4207C4.2153 18.4651 4.20089 18.5136 4.19628 18.5636C4.19168 18.6136 4.19696 18.664 4.21183 18.7119C4.2267 18.7599 4.25086 18.8044 4.28294 18.843C4.31502 18.8816 4.35439 18.9135 4.3988 18.9369C4.44321 18.9603 4.4918 18.9747 4.54177 18.9793C4.59175 18.9839 4.64215 18.9786 4.69008 18.9637C4.73802 18.9489 4.78256 18.9247 4.82116 18.8926C8.83679 15.5564 8.84443 15.6175 9.15743 15.0946C9.50098 15.6671 9.60404 15.6633 13.4937 18.9117C13.5717 18.9765 13.6722 19.0077 13.7731 18.9984C13.874 18.9891 13.9671 18.94 14.0319 18.8621C14.0967 18.7841 14.1279 18.6836 14.1186 18.5827C14.1093 18.4818 14.0603 18.3887 13.9823 18.3239L10.2262 15.1747C10.0128 14.9969 9.84068 14.7747 9.722 14.5235C9.60333 14.2723 9.54092 13.9982 9.53915 13.7204V8.49473C9.53915 8.34288 9.59947 8.19724 9.70685 8.08987C9.81423 7.98249 9.95986 7.92216 10.1117 7.92216C10.2636 7.92216 10.4092 7.98249 10.5166 8.08987C10.624 8.19724 10.6843 8.34288 10.6843 8.49473V10.9759C10.6843 11.0771 10.7245 11.1742 10.7961 11.2458C10.8677 11.3174 10.9648 11.3576 11.066 11.3576C11.1672 11.3576 11.2643 11.3174 11.3359 11.2458C11.4075 11.1742 11.4477 11.0771 11.4477 10.9759V8.49473C11.4498 8.15852 11.3246 7.83397 11.0974 7.58618C10.8701 7.3384 10.5576 7.1857 10.2224 7.15873L9.64221 1.95979C9.63498 1.84878 9.66677 1.73873 9.73208 1.64867C9.79739 1.55861 9.89212 1.49421 9.99988 1.46659C10.1076 1.43897 10.2217 1.44987 10.3222 1.49741C10.4228 1.54495 10.5036 1.62614 10.5507 1.72694C12.7455 7.07094 12.986 7.33432 12.9173 8.39931L12.6272 12.7165C12.6122 12.9477 12.6676 13.1779 12.7862 13.3769C12.9048 13.5759 13.0809 13.7343 13.2914 13.8311C18.1124 16.0565 17.8147 15.9382 17.9369 15.9382C18.0242 15.9386 18.1091 15.9091 18.1773 15.8546C18.2455 15.8 18.293 15.7237 18.3117 15.6384C18.3305 15.5531 18.3194 15.464 18.2804 15.3858C18.2413 15.3077 18.1767 15.2453 18.0972 15.2091ZM8.84443 7.33051L9.15743 4.50582L9.47044 7.33051C9.35444 7.39107 9.24879 7.46967 9.15743 7.56335C9.06607 7.46967 8.96042 7.39107 8.84443 7.33051Z" fill="#4F4F4F"/>
</svg>
