<svg width="18" height="18" viewBox="0 0 18 18" fill="none" xmlns="http://www.w3.org/2000/svg">
<path d="M4.83329 17.3333H2.33329C1.89127 17.3333 1.46734 17.1577 1.15478 16.8452C0.842221 16.5326 0.666626 16.1087 0.666626 15.6667V9.83332C0.666626 9.3913 0.842221 8.96737 1.15478 8.65481C1.46734 8.34225 1.89127 8.16666 2.33329 8.16666H4.83329M10.6666 6.49999V3.16666C10.6666 2.50362 10.4032 1.86773 9.93439 1.39889C9.46555 0.930049 8.82967 0.666656 8.16663 0.666656L4.83329 8.16666V17.3333H14.2333C14.6352 17.3379 15.0253 17.197 15.3315 16.9367C15.6378 16.6763 15.8397 16.3141 15.9 15.9167L17.05 8.41666C17.0862 8.17779 17.0701 7.93389 17.0027 7.70187C16.9354 7.46984 16.8184 7.25524 16.6598 7.07292C16.5013 6.8906 16.305 6.74493 16.0846 6.646C15.8642 6.54708 15.6249 6.49725 15.3833 6.49999H10.6666Z" stroke="#0364E6" stroke-linecap="round" stroke-linejoin="round"/>
</svg>
