<svg width="18" height="18" viewBox="0 0 18 18" fill="none" xmlns="http://www.w3.org/2000/svg">
<path d="M4.83341 17.3333H2.33341C1.89139 17.3333 1.46746 17.1577 1.1549 16.8452C0.842343 16.5326 0.666748 16.1087 0.666748 15.6667V9.83332C0.666748 9.3913 0.842343 8.96737 1.1549 8.65481C1.46746 8.34225 1.89139 8.16666 2.33341 8.16666H4.83341M10.6667 6.49999V3.16666C10.6667 2.50362 10.4034 1.86773 9.93452 1.39889C9.46567 0.930049 8.82979 0.666656 8.16675 0.666656L4.83341 8.16666V17.3333H14.2334C14.6354 17.3379 15.0254 17.197 15.3317 16.9367C15.6379 16.6763 15.8398 16.3141 15.9001 15.9167L17.0501 8.41666C17.0863 8.17779 17.0702 7.93389 17.0029 7.70187C16.9355 7.46984 16.8185 7.25524 16.66 7.07292C16.5014 6.8906 16.3051 6.74493 16.0847 6.646C15.8643 6.54708 15.625 6.49725 15.3834 6.49999H10.6667Z" stroke="#4F4F4F" stroke-linecap="round" stroke-linejoin="round"/>
</svg>
