<svg width="20" height="20" viewBox="0 0 20 20" fill="none" xmlns="http://www.w3.org/2000/svg">
<rect width="20" height="20" fill="white"/>
<path d="M17.3666 3.84169C16.941 3.41586 16.4356 3.07806 15.8794 2.8476C15.3232 2.61713 14.727 2.4985 14.1249 2.4985C13.5229 2.4985 12.9267 2.61713 12.3705 2.8476C11.8143 3.07806 11.3089 3.41586 10.8833 3.84169L9.99994 4.72503L9.1166 3.84169C8.25686 2.98195 7.0908 2.49895 5.87494 2.49895C4.65908 2.49895 3.49301 2.98195 2.63327 3.84169C1.77353 4.70144 1.29053 5.8675 1.29053 7.08336C1.29053 8.29922 1.77353 9.46528 2.63327 10.325L3.5166 11.2084L9.99994 17.6917L16.4833 11.2084L17.3666 10.325C17.7924 9.8994 18.1302 9.39404 18.3607 8.83782C18.5912 8.28161 18.7098 7.68543 18.7098 7.08336C18.7098 6.48129 18.5912 5.88511 18.3607 5.3289C18.1302 4.77268 17.7924 4.26732 17.3666 3.84169V3.84169Z" stroke="#4F4F4F" stroke-linecap="round" stroke-linejoin="round"/>
</svg>
