<svg width="24" height="24" viewBox="0 0 24 24" fill="none" xmlns="http://www.w3.org/2000/svg">
<path fill-rule="evenodd" clip-rule="evenodd" d="M19.8984 17.4444C19.8984 17.857 19.7299 18.2527 19.4298 18.5444C19.1298 18.8361 18.7228 19 18.2984 19H5.49844C5.07409 19 4.66712 18.8361 4.36707 18.5444C4.06701 18.2527 3.89844 17.857 3.89844 17.4444V6.55556C3.89844 6.143 4.06701 5.74733 4.36707 5.45561C4.66712 5.16389 5.07409 5 5.49844 5H9.49844L11.0984 7.33333H18.2984C18.7228 7.33333 19.1298 7.49722 19.4298 7.78894C19.7299 8.08067 19.8984 8.47633 19.8984 8.88889V17.4444ZM14.5304 13.6797C15.3026 14.1893 15.8437 14.8798 15.8437 15.8004V17.4444H17.5346C17.8446 17.4444 18.0983 17.1978 18.0983 16.8964V15.8004C18.0983 14.6058 16.086 13.8989 14.5304 13.6797ZM12.4619 10.8686C12.4619 12.0792 11.4525 13.0605 10.2073 13.0605C8.96212 13.0605 7.95271 12.0792 7.95271 10.8686C7.95271 9.65801 8.96212 8.67664 10.2073 8.67664C11.4525 8.67664 12.4619 9.65801 12.4619 10.8686ZM13.5891 13.0605C14.8348 13.0605 15.8437 12.0796 15.8437 10.8686C15.8437 9.65754 14.8348 8.67664 13.5891 8.67664C13.3242 8.67664 13.0762 8.73143 12.8395 8.80815C13.3073 9.37258 13.5891 10.0904 13.5891 10.8686C13.5891 11.6467 13.3073 12.3646 12.8395 12.929C13.0762 13.0057 13.3242 13.0605 13.5891 13.0605ZM5.69824 15.8005C5.69824 14.3428 8.70247 13.6085 10.2074 13.6085C11.7123 13.6085 14.7166 14.3428 14.7166 15.8005V16.8965C14.7166 17.1979 14.4629 17.4445 14.1529 17.4445H6.26189C5.95188 17.4445 5.69824 17.1979 5.69824 16.8965V15.8005Z" fill="black"/>
<path d="M19.4298 18.5444L19.7783 18.9029V18.9029L19.4298 18.5444ZM4.36707 5.45561L4.71561 5.81411H4.71561L4.36707 5.45561ZM9.49844 5L9.9108 4.71724C9.81757 4.58127 9.6633 4.5 9.49844 4.5V5ZM11.0984 7.33333L10.6861 7.6161C10.7793 7.75206 10.9336 7.83333 11.0984 7.83333V7.33333ZM19.4298 7.78894L19.7783 7.43045V7.43045L19.4298 7.78894ZM14.5304 13.6797L14.6001 13.1846C14.3686 13.152 14.1455 13.2841 14.0627 13.5028C13.98 13.7214 14.0599 13.9682 14.255 14.097L14.5304 13.6797ZM15.8437 17.4444H15.3437C15.3437 17.7205 15.5675 17.9444 15.8437 17.9444V17.4444ZM12.8395 8.80815L12.6854 8.33251C12.5277 8.38361 12.4056 8.50952 12.3593 8.6687C12.3131 8.82787 12.3488 8.99961 12.4545 9.12722L12.8395 8.80815ZM12.8395 12.929L12.4545 12.61C12.3488 12.7376 12.3131 12.9093 12.3593 13.0685C12.4056 13.2277 12.5277 13.3536 12.6854 13.4047L12.8395 12.929ZM19.7783 18.9029C20.1737 18.5185 20.3984 17.9942 20.3984 17.4444H19.3984C19.3984 17.7198 19.2861 17.9868 19.0813 18.1859L19.7783 18.9029ZM18.2984 19.5C18.8509 19.5 19.3835 19.2868 19.7783 18.9029L19.0813 18.1859C18.876 18.3855 18.5946 18.5 18.2984 18.5V19.5ZM5.49844 19.5H18.2984V18.5H5.49844V19.5ZM4.01853 18.9029C4.41337 19.2868 4.94596 19.5 5.49844 19.5V18.5C5.20223 18.5 4.92088 18.3855 4.71561 18.1859L4.01853 18.9029ZM3.39844 17.4444C3.39844 17.9942 3.62321 18.5185 4.01853 18.9029L4.71561 18.1859C4.51081 17.9868 4.39844 17.7198 4.39844 17.4444H3.39844ZM3.39844 6.55556V17.4444H4.39844V6.55556H3.39844ZM4.01853 5.09711C3.62321 5.48145 3.39844 6.00577 3.39844 6.55556H4.39844C4.39844 6.28022 4.51081 6.01322 4.71561 5.81411L4.01853 5.09711ZM5.49844 4.5C4.94596 4.5 4.41337 4.71324 4.01853 5.09711L4.71561 5.81411C4.92088 5.61453 5.20223 5.5 5.49844 5.5V4.5ZM9.49844 4.5H5.49844V5.5H9.49844V4.5ZM11.5108 7.05057L9.9108 4.71724L9.08607 5.28276L10.6861 7.6161L11.5108 7.05057ZM18.2984 6.83333H11.0984V7.83333H18.2984V6.83333ZM19.7783 7.43045C19.3835 7.04658 18.8509 6.83333 18.2984 6.83333V7.83333C18.5946 7.83333 18.876 7.94787 19.0813 8.14744L19.7783 7.43045ZM20.3984 8.88889C20.3984 8.3391 20.1737 7.81478 19.7783 7.43045L19.0813 8.14744C19.2861 8.34655 19.3984 8.61356 19.3984 8.88889H20.3984ZM20.3984 17.4444V8.88889H19.3984V17.4444H20.3984ZM16.3437 15.8004C16.3437 14.6498 15.6571 13.8242 14.8058 13.2624L14.255 14.097C14.9481 14.5544 15.3437 15.1098 15.3437 15.8004H16.3437ZM16.3437 17.4444V15.8004H15.3437V17.4444H16.3437ZM17.5346 16.9444H15.8437V17.9444H17.5346V16.9444ZM17.5983 16.8964C17.5983 16.9033 17.5959 16.9135 17.5842 16.9249C17.5722 16.9365 17.5551 16.9444 17.5346 16.9444V17.9444C18.1074 17.9444 18.5983 17.4871 18.5983 16.8964H17.5983ZM17.5983 15.8004V16.8964H18.5983V15.8004H17.5983ZM14.4606 14.1748C15.2041 14.2795 16.0385 14.4994 16.6717 14.8203C17.3441 15.161 17.5983 15.5108 17.5983 15.8004H18.5983C18.5983 14.8954 17.8463 14.2944 17.1237 13.9283C16.3619 13.5422 15.4124 13.299 14.6001 13.1846L14.4606 14.1748ZM10.2073 13.5605C11.7152 13.5605 12.9619 12.3685 12.9619 10.8686H11.9619C11.9619 11.7898 11.1897 12.5605 10.2073 12.5605V13.5605ZM7.45271 10.8686C7.45271 12.3685 8.69935 13.5605 10.2073 13.5605V12.5605C9.2249 12.5605 8.45271 11.7898 8.45271 10.8686H7.45271ZM10.2073 8.17664C8.69935 8.17664 7.45271 9.36868 7.45271 10.8686H8.45271C8.45271 9.94733 9.2249 9.17664 10.2073 9.17664V8.17664ZM12.9619 10.8686C12.9619 9.36868 11.7152 8.17664 10.2073 8.17664V9.17664C11.1897 9.17664 11.9619 9.94733 11.9619 10.8686H12.9619ZM15.3437 10.8686C15.3437 11.7903 14.572 12.5605 13.5891 12.5605V13.5605C15.0976 13.5605 16.3437 12.369 16.3437 10.8686H15.3437ZM13.5891 9.17664C14.572 9.17664 15.3437 9.94686 15.3437 10.8686H16.3437C16.3437 9.36821 15.0976 8.17664 13.5891 8.17664V9.17664ZM12.9936 9.2838C13.2001 9.21689 13.3938 9.17664 13.5891 9.17664V8.17664C13.2547 8.17664 12.9524 8.24598 12.6854 8.33251L12.9936 9.2838ZM14.0891 10.8686C14.0891 9.96733 13.7623 9.13799 13.2245 8.48908L12.4545 9.12722C12.8523 9.60717 13.0891 10.2136 13.0891 10.8686H14.0891ZM13.2245 13.2481C13.7623 12.5992 14.0891 11.7699 14.0891 10.8686H13.0891C13.0891 11.5236 12.8523 12.13 12.4545 12.61L13.2245 13.2481ZM13.5891 12.5605C13.3938 12.5605 13.2001 12.5203 12.9936 12.4534L12.6854 13.4047C12.9524 13.4912 13.2547 13.5605 13.5891 13.5605V12.5605ZM10.2074 13.1085C9.39427 13.1085 8.20533 13.3032 7.20702 13.692C6.70775 13.8864 6.22426 14.1416 5.85724 14.4709C5.48744 14.8027 5.19824 15.247 5.19824 15.8005H6.19824C6.19824 15.6252 6.28457 15.431 6.5251 15.2152C6.7684 14.9969 7.13003 14.7951 7.56993 14.6238C8.44997 14.2811 9.51561 14.1085 10.2074 14.1085V13.1085ZM15.2166 15.8005C15.2166 15.247 14.9274 14.8027 14.5576 14.4709C14.1906 14.1416 13.7071 13.8864 13.2078 13.692C12.2095 13.3032 11.0205 13.1085 10.2074 13.1085V14.1085C10.8992 14.1085 11.9648 14.2811 12.8449 14.6238C13.2848 14.7951 13.6464 14.9969 13.8897 15.2152C14.1302 15.431 14.2166 15.6252 14.2166 15.8005H15.2166ZM15.2166 16.8965V15.8005H14.2166V16.8965H15.2166ZM14.1529 17.9445C14.7257 17.9445 15.2166 17.4872 15.2166 16.8965H14.2166C14.2166 16.9034 14.2142 16.9135 14.2025 16.925C14.1905 16.9366 14.1735 16.9445 14.1529 16.9445V17.9445ZM6.26189 17.9445H14.1529V16.9445H6.26189V17.9445ZM5.19824 16.8965C5.19824 17.4872 5.68911 17.9445 6.26189 17.9445V16.9445C6.24137 16.9445 6.22432 16.9366 6.21235 16.925C6.20058 16.9135 6.19824 16.9034 6.19824 16.8965H5.19824ZM5.19824 15.8005V16.8965H6.19824V15.8005H5.19824Z" fill="black"/>
</svg>
