<svg width="24" height="24" viewBox="0 0 24 24" fill="none" xmlns="http://www.w3.org/2000/svg">
<path d="M20.4375 6.49656C20.4375 7.43287 20.1067 7.799 19.6404 7.98581C19.2314 9.02094 18.554 9.89131 17.7812 10.4712C17.127 10.9619 16.4116 11.25 15.75 11.25C15.0847 11.25 14.3645 10.9582 13.7078 10.4639C13.6967 10.4556 13.6868 10.4444 13.6758 10.4359C13.6773 10.3891 13.6875 10.3508 13.6875 10.3026C13.6875 9.84475 13.6121 9.46044 13.4648 9.13756C13.684 9.39469 13.9185 9.63375 14.1778 9.82938C14.7163 10.2353 15.2748 10.4586 15.75 10.4586C16.2225 10.4586 16.7773 10.2377 17.3122 9.83606C18.0026 9.31856 18.5714 8.55556 18.9138 7.68888C18.9928 7.48869 19.1507 7.33063 19.3499 7.25063C19.4863 7.19563 19.6563 7.12794 19.6563 6.48644C19.6563 6.25456 19.6285 5.95294 19.497 5.83281C19.4885 5.825 19.4847 5.81369 19.4767 5.8055C19.4736 5.80375 19.4687 5.80419 19.4658 5.80219C18.1508 4.88969 18.011 3.7675 18.011 3.7675C18.011 3.7675 15.965 5.14331 12.9862 4.41169C12.9862 4.41169 12.8249 5.00269 12.3416 5.52612C12.1147 5.19194 11.8278 4.88406 11.4705 4.62025C11.2152 1.69838 13.8505 0.75 15.4017 0.75C17.1517 0.75 17.9643 1.609 17.9643 1.609C17.9643 1.609 20.5627 1.50488 20.0058 5.24288L20.0237 5.26613C20.2764 5.49681 20.4375 5.86675 20.4375 6.49656ZM19.8826 12.3638C20.0958 12.9524 20.1195 13.4446 20.0922 13.7751C20.6383 13.9087 21.0924 14.322 21.2546 14.8769L21.6423 16.2074C21.7409 16.5451 21.6765 16.9003 21.4655 17.1819C21.2546 17.4636 20.9312 17.625 20.5793 17.625H20.3694C20.1621 17.625 19.9944 17.4573 19.9944 17.25C19.9944 17.0427 20.1621 16.875 20.3694 16.875H20.5793C20.6932 16.875 20.7972 16.8231 20.8653 16.7318C20.9334 16.641 20.9543 16.5267 20.9224 16.4176L20.5346 15.0871C20.4292 14.7267 20.0937 14.4748 19.7183 14.4748C19.3429 14.4748 19.0075 14.7264 18.9023 15.0871L18.5142 16.4176C18.4823 16.5264 18.5032 16.641 18.5717 16.7322C18.6398 16.823 18.7438 16.875 18.8573 16.875H19.0675C19.2748 16.875 19.4425 17.0427 19.4425 17.25C19.4425 17.4573 19.2748 17.625 19.0675 17.625H18.8573C18.5053 17.625 18.1828 17.4636 17.9715 17.1823C17.7606 16.9007 17.6957 16.5454 17.7942 16.2078L18.1824 14.8769C18.3438 14.3231 18.7963 13.9106 19.3408 13.776C19.384 13.4209 19.3514 12.6414 18.661 11.6804C18.6356 11.6615 18.6104 11.6447 18.585 11.625L16.1842 14.5593C15.9597 14.8337 15.5403 14.8337 15.3158 14.5593L13.1754 11.9433C13.0469 12.0908 12.899 12.2211 12.7207 12.3248C12.3465 13.1521 11.7987 13.8882 11.1497 14.4731L11.632 14.8506L11.77 14.9927C11.7917 15.0224 11.8121 15.052 11.8327 15.0813L12.6643 15.4186C13.0097 15.5584 13.3528 15.6577 13.6846 15.7533C15.3084 16.2224 16.4577 16.7881 16.7802 19.4782C19.7208 19.3655 23.625 18.778 23.625 17.4624C23.625 12.5999 21.9702 13.2095 19.8826 12.3638Z" fill="#8C8C8C"/>
<path d="M16.125 21.2123C16.125 22.6889 11.2031 23.25 8.25 23.25C5.29688 23.25 0.375 22.6889 0.375 21.2123C0.375 16.286 2.07313 16.9778 4.1995 16.0809C3.84575 17.1305 3.91894 18.2024 4.07581 18.9982C3.71362 19.2318 3.4725 19.6369 3.4725 20.0999C3.4725 20.8248 4.06012 21.4124 4.785 21.4124C5.50987 21.4124 6.0975 20.8248 6.0975 20.0999C6.0975 19.3814 5.51963 18.7994 4.8035 18.7893C4.62813 17.8451 4.59275 16.4979 5.38763 15.3949C5.39675 15.3879 5.40587 15.382 5.415 15.3749L7.81581 18.3092C8.04031 18.5836 8.45969 18.5836 8.68419 18.3092L11.085 15.375C11.1104 15.3947 11.1356 15.4114 11.1609 15.4304C11.8514 16.3914 11.884 17.1709 11.8408 17.526C11.2963 17.6606 10.8437 18.0731 10.6824 18.6269L10.2942 19.9578C10.1956 20.2954 10.2605 20.6507 10.4714 20.9323C10.6828 21.2136 11.0054 21.375 11.3573 21.375H11.5674C11.7747 21.375 11.9424 21.2073 11.9424 21C11.9424 20.7927 11.7747 20.625 11.5674 20.625H11.3573C11.2437 20.625 11.1397 20.5731 11.0716 20.4822C11.0031 20.391 10.9823 20.2764 11.0141 20.1676L11.4023 18.8371C11.5074 18.4764 11.8429 18.2248 12.2183 18.2248C12.5936 18.2248 12.9291 18.4768 13.0346 18.8371L13.4224 20.1676C13.4542 20.2767 13.4333 20.391 13.3652 20.4818C13.2971 20.573 13.1931 20.625 13.0793 20.625H12.8694C12.6621 20.625 12.4944 20.7927 12.4944 21C12.4944 21.2073 12.6621 21.375 12.8694 21.375H13.0793C13.4311 21.375 13.7546 21.2136 13.9654 20.9319C14.1764 20.6503 14.2408 20.2951 14.1423 19.9574L13.7546 18.6269C13.5924 18.072 13.1384 17.6588 12.5922 17.5251C12.6194 17.1946 12.5958 16.7024 12.3826 16.1138C14.4702 16.9595 16.125 16.3499 16.125 21.2123ZM4.22244 20.0999C4.22244 19.7901 4.47475 19.5374 4.78494 19.5374C5.09512 19.5374 5.34744 19.7901 5.34744 20.0999C5.34744 20.4097 5.09512 20.6624 4.78494 20.6624C4.47469 20.6624 4.22244 20.4097 4.22244 20.0999ZM4.35838 11.7743C4.76488 12.7924 5.43987 13.6502 6.20775 14.2231C6.8645 14.7118 7.58469 15 8.25 15C8.91163 15 9.62694 14.7153 10.2812 14.2304C11.054 13.6574 11.7314 12.7973 12.1404 11.7743C12.6067 11.5897 12.9376 11.2278 12.9376 10.3026C12.9376 9.68006 12.7764 9.3145 12.5237 9.08656C12.4239 7.07919 12.0053 5.20569 9.79675 4.66231C9.68006 3.72675 8.89081 3 7.92362 3C6.87612 3 6.02688 3.84925 6.02688 4.89675C6.02688 5.00062 6.04137 5.10075 6.05737 5.20013C4.37712 5.58294 4.09869 7.25225 4.05688 9.02619C3.75906 9.24694 3.5625 9.61856 3.5625 10.3026C3.5625 11.2279 3.89331 11.5897 4.35838 11.7743ZM4.67825 9.59325L4.71238 9.58125C6.43363 9.18069 6.73625 6.97194 6.73625 6.97062C6.73625 6.97062 7.35525 7.86694 8.94337 8.18662C10.1262 8.42556 11.1467 8.33506 11.6814 9.44125C11.6814 9.44125 11.6826 9.44006 11.6838 9.43888C11.7144 9.51131 11.7485 9.56556 11.7876 9.58L11.8217 9.59206C11.9634 9.64275 12.1244 9.70056 12.1244 10.3026C12.1244 10.9154 11.9658 10.9781 11.8388 11.0289C11.6313 11.1109 11.4676 11.2737 11.3847 11.4788C11.0453 12.3305 10.4802 13.0796 9.79406 13.5875C9.26306 13.9808 8.71494 14.1979 8.24988 14.1979C7.78113 14.1979 7.23056 13.9783 6.69594 13.5814C6.0135 13.0724 5.452 12.3269 5.11506 11.4801C5.03325 11.2749 4.86844 11.1121 4.66094 11.0301C4.53406 10.9794 4.37537 10.9167 4.37537 10.3038C4.3755 9.70181 4.53656 9.64388 4.67825 9.59325Z" fill="#8C8C8C"/>
</svg>
