<svg width="24" height="24" viewBox="0 0 24 24" fill="none" xmlns="http://www.w3.org/2000/svg">
<path fill-rule="evenodd" clip-rule="evenodd" d="M12 2L3 9V20C3 20.5304 3.21071 21.0391 3.58579 21.4142C3.96086 21.7893 4.46957 22 5 22H9V12H15V22H19C19.5304 22 20.0391 21.7893 20.4142 21.4142C20.7893 21.0391 21 20.5304 21 20V9L12 2Z" fill="#8C8C8C"/>
<path d="M3 9L2.69303 8.60532C2.57124 8.70005 2.5 8.8457 2.5 9H3ZM12 2L12.307 1.60532C12.1264 1.46489 11.8736 1.46489 11.693 1.60532L12 2ZM3.58579 21.4142L3.93934 21.0607H3.93934L3.58579 21.4142ZM9 22V22.5C9.27614 22.5 9.5 22.2761 9.5 22H9ZM9 12V11.5C8.72386 11.5 8.5 11.7239 8.5 12H9ZM15 12H15.5C15.5 11.7239 15.2761 11.5 15 11.5V12ZM15 22H14.5C14.5 22.2761 14.7239 22.5 15 22.5V22ZM21 9H21.5C21.5 8.8457 21.4288 8.70005 21.307 8.60532L21 9ZM3.30697 9.39468L12.307 2.39468L11.693 1.60532L2.69303 8.60532L3.30697 9.39468ZM3.5 20V9H2.5V20H3.5ZM3.93934 21.0607C3.65804 20.7794 3.5 20.3978 3.5 20H2.5C2.5 20.663 2.76339 21.2989 3.23223 21.7678L3.93934 21.0607ZM5 21.5C4.60218 21.5 4.22064 21.342 3.93934 21.0607L3.23223 21.7678C3.70107 22.2366 4.33696 22.5 5 22.5V21.5ZM9 21.5H5V22.5H9V21.5ZM9.5 22V12H8.5V22H9.5ZM9 12.5H15V11.5H9V12.5ZM14.5 12V22H15.5V12H14.5ZM19 21.5H15V22.5H19V21.5ZM20.0607 21.0607C19.7794 21.342 19.3978 21.5 19 21.5V22.5C19.663 22.5 20.2989 22.2366 20.7678 21.7678L20.0607 21.0607ZM20.5 20C20.5 20.3978 20.342 20.7794 20.0607 21.0607L20.7678 21.7678C21.2366 21.2989 21.5 20.663 21.5 20H20.5ZM20.5 9V20H21.5V9H20.5ZM11.693 2.39468L20.693 9.39468L21.307 8.60532L12.307 1.60532L11.693 2.39468Z" fill="#8C8C8C"/>
</svg>
