<svg width="24" height="24" viewBox="0 0 24 24" fill="none" xmlns="http://www.w3.org/2000/svg">
<g clip-path="url(#clip0_1905_16061)">
<path d="M12.028 8.19995C10.028 8.19995 8.42798 9.79993 8.42798 11.7999C8.42798 13.7999 10.028 15.3999 12.028 15.3999C14.028 15.3999 15.628 13.7999 15.628 11.7999C15.628 9.79993 14.028 8.19995 12.028 8.19995ZM12.028 13.3999C11.128 13.3999 10.428 12.6999 10.428 11.7999C10.428 10.8999 11.128 10.2 12.028 10.2C12.928 10.2 13.628 10.8999 13.628 11.7999C13.628 12.6999 12.928 13.3999 12.028 13.3999Z" fill="#8C8C8C"/>
<path d="M18.028 3H17.028C17.028 1.9 16.128 1 15.028 1H9.02795C7.92795 1 7.02795 1.9 7.02795 3H6.02795C4.32795 3 3.02795 4.3 3.02795 6V20C3.02795 21.7 4.32795 23 6.02795 23H18.028C19.728 23 21.028 21.7 21.028 20V6C21.028 4.3 19.628 3 18.028 3ZM9.02795 3H15.028V5H9.02795V3ZM16.228 21H7.72797V19.7C7.72797 18.8 8.42797 18.1 9.32797 18.1H14.628C15.528 18.1 16.228 18.8 16.228 19.7V21ZM19.028 20C19.028 20.4 18.728 20.8 18.328 20.9V19.6C18.328 17.6 16.728 16 14.728 16H9.42798C7.42798 16 5.82797 17.6 5.82797 19.6V20.9C5.42797 20.8 5.12796 20.4 5.12796 20V6C5.12796 5.4 5.52796 5 6.12796 5H7.12796C7.12796 6.1 8.02796 7 9.12796 7H15.128C16.228 7 17.128 6.1 17.128 5H18.128C18.728 5 19.128 5.4 19.128 6V20H19.028Z" fill="#8C8C8C"/>
</g>
<defs>
<clipPath id="clip0_1905_16061">
<rect width="18" height="22" fill="white" transform="translate(3 1)"/>
</clipPath>
</defs>
</svg>
