<svg width="24" height="24" viewBox="0 0 24 24" fill="none" xmlns="http://www.w3.org/2000/svg">
<path d="M21.0001 5.20027H12.6801C12.6511 5.20003 12.6224 5.19346 12.5962 5.18103C12.5699 5.16859 12.5467 5.15059 12.5281 5.12827L10.8881 3.16029C10.7909 3.04343 10.6684 2.95026 10.5297 2.88788C10.3911 2.8255 10.2401 2.79555 10.0882 2.80029H6.20019C5.93497 2.80029 5.68062 2.90565 5.49309 3.09318C5.30555 3.28072 5.2002 3.53507 5.2002 3.80028V4.40028H8.52017C8.78436 4.39959 9.04543 4.45733 9.2847 4.56935C9.52396 4.68138 9.7355 4.84492 9.90416 5.04827L11.3601 6.80026H19.3601C19.5998 6.79493 19.8382 6.83755 20.0612 6.92562C20.2842 7.01369 20.4874 7.14543 20.6588 7.31311C20.8302 7.48079 20.9664 7.68102 21.0593 7.90206C21.1523 8.12309 21.2001 8.36047 21.2001 8.60025V16.3602C21.424 16.3176 21.6261 16.1986 21.772 16.0235C21.9179 15.8484 21.9985 15.6281 22.0001 15.4002V6.20027C22.0001 5.93505 21.8947 5.6807 21.7072 5.49316C21.5196 5.30563 21.2653 5.20027 21.0001 5.20027Z" fill="#8C8C8C"/>
<path d="M19.4 7.60018H10.984L9.28805 5.56019C9.19084 5.44333 9.06826 5.35017 8.92964 5.28778C8.79102 5.2254 8.64 5.19545 8.48806 5.20019H4.60009C4.33488 5.20019 4.08052 5.30555 3.89299 5.49309C3.70545 5.68062 3.6001 5.93497 3.6001 6.20019V6.80018H6.92007C7.18426 6.79949 7.44534 6.85723 7.6846 6.96925C7.92387 7.08128 8.1354 7.24482 8.30406 7.44818L9.76005 9.20016H17.76C17.9997 9.19483 18.2381 9.23746 18.4611 9.32552C18.6841 9.41359 18.8873 9.54533 19.0587 9.71301C19.2301 9.88069 19.3663 10.0809 19.4592 10.302C19.5522 10.523 19.6 10.7604 19.6 11.0001V18.7601C19.8239 18.7175 20.026 18.5985 20.1719 18.4234C20.3178 18.2483 20.3984 18.028 20.4 17.8001V8.60017C20.4 8.33495 20.2946 8.0806 20.1071 7.89307C19.9195 7.70553 19.6652 7.60018 19.4 7.60018Z" fill="#8C8C8C"/>
<path d="M17.7999 10.0001H9.38394L7.68795 7.96009C7.59074 7.84323 7.46816 7.75007 7.32954 7.68769C7.19092 7.62531 7.0399 7.59535 6.88796 7.6001H2.99999C2.73478 7.6001 2.48043 7.70545 2.29289 7.89299C2.10536 8.08052 2 8.33487 2 8.60009V20.2C2 20.3313 2.02587 20.4614 2.07612 20.5827C2.12637 20.704 2.20003 20.8142 2.29289 20.9071C2.38575 21 2.49599 21.0736 2.61731 21.1239C2.73864 21.1741 2.86867 21.2 2.99999 21.2H17.7999C17.9312 21.2 18.0612 21.1741 18.1826 21.1239C18.3039 21.0736 18.4141 21 18.507 20.9071C18.5998 20.8142 18.6735 20.704 18.7237 20.5827C18.774 20.4614 18.7999 20.3313 18.7999 20.2V11.0001C18.7999 10.7349 18.6945 10.4805 18.507 10.293C18.3194 10.1054 18.0651 10.0001 17.7999 10.0001Z" fill="#8C8C8C"/>
</svg>
