<svg width="24" height="24" viewBox="0 0 24 24" fill="none" xmlns="http://www.w3.org/2000/svg">
<g clip-path="url(#clip0_1418:3427)">
<path fill-rule="evenodd" clip-rule="evenodd" d="M16.6699 13.8799C18.0399 14.8099 18.9999 16.0699 18.9999 17.7499V20.7499H21.9999C22.5499 20.7499 22.9999 20.2999 22.9999 19.7499V17.7499C22.9999 15.5699 19.4299 14.2799 16.6699 13.8799Z" fill="#8C8C8C"/>
<path d="M9 12.75C11.2091 12.75 13 10.9591 13 8.75C13 6.54086 11.2091 4.75 9 4.75C6.79086 4.75 5 6.54086 5 8.75C5 10.9591 6.79086 12.75 9 12.75Z" fill="#8C8C8C"/>
<path fill-rule="evenodd" clip-rule="evenodd" d="M14.9999 12.75C17.2099 12.75 18.9999 10.96 18.9999 8.75C18.9999 6.54 17.2099 4.75 14.9999 4.75C14.5299 4.75 14.0899 4.85 13.6699 4.99C14.4999 6.02 14.9999 7.33 14.9999 8.75C14.9999 10.17 14.4999 11.48 13.6699 12.51C14.0899 12.65 14.5299 12.75 14.9999 12.75Z" fill="#8C8C8C"/>
<path fill-rule="evenodd" clip-rule="evenodd" d="M9 13.75C6.33 13.75 1 15.09 1 17.75V19.75C1 20.3 1.45 20.75 2 20.75H16C16.55 20.75 17 20.3 17 19.75V17.75C17 15.09 11.67 13.75 9 13.75Z" fill="#8C8C8C"/>
</g>
<defs>
<clipPath id="clip0_1418:3427">
<rect width="24" height="24" fill="white"/>
</clipPath>
</defs>
</svg>
