<svg width="24" height="24" viewBox="0 0 24 24" fill="none" xmlns="http://www.w3.org/2000/svg">
<path d="M15.8176 4.0893C15.8176 5.30163 15.8236 6.51396 15.813 7.72604C15.8106 8.00692 15.9727 8.1668 16.2496 8.16608C18.6866 8.15912 21.1238 8.162 23.5615 8.162C23.8641 8.162 23.9928 8.28996 23.9928 8.59076C23.9928 10.8674 23.9928 13.1438 23.9928 15.4201C23.9928 15.7044 23.8595 15.8374 23.5742 15.8374C21.1332 15.8374 18.6916 15.8405 16.2508 15.8335C15.972 15.8335 15.8133 15.9941 15.814 16.2728C15.8217 18.7013 15.8183 21.1298 15.8183 23.5583C15.8183 23.8738 15.6913 23.9998 15.3731 23.9998H8.57804C8.25261 23.9998 8.12417 23.8728 8.12417 23.5511C8.12417 21.5589 8.12417 19.5664 8.12417 17.5735C8.12417 17.0826 8.33535 16.7302 8.78537 16.5124C10.5467 15.6608 12.3063 14.8056 14.0644 13.9468C15.0793 13.4533 16.0935 12.9589 17.1073 12.4637C17.3492 12.3456 17.4539 12.1461 17.4062 11.8976C17.374 11.7296 17.2713 11.6139 17.1176 11.5376C16.417 11.1938 15.718 10.8471 15.0176 10.5031C13.8325 9.92184 12.6468 9.34128 11.4605 8.76144C10.5651 8.325 9.66794 7.89193 8.76902 7.46221C8.34185 7.25744 8.12682 6.91678 8.12586 6.45106C8.12201 4.43852 8.12153 2.42605 8.12441 0.413668C8.12441 0.140474 8.26632 0.000996635 8.54124 0.000996635H15.3962C15.6805 -0.000923884 15.8176 0.134953 15.8176 0.416549C15.8179 1.64088 15.8179 2.86513 15.8176 4.0893Z" fill="#8C8C8C"/>
<path d="M3.87028 8.16155C5.10898 8.16155 6.34768 8.16299 7.58614 8.15915C7.70183 8.15915 7.73767 8.19108 7.73767 8.30727C7.73478 10.7676 7.73398 13.2281 7.73526 15.6888C7.73526 15.8328 7.72997 15.8369 7.5859 15.8369C5.10465 15.8369 2.6234 15.8377 0.142151 15.8393C0.0298264 15.8393 -0.000239096 15.8059 1.42846e-06 15.6953C0.00288772 13.2306 0.00288772 10.7659 1.42846e-06 8.30127C1.42846e-06 8.19084 0.030548 8.15723 0.142392 8.15723C1.38518 8.16371 2.62773 8.16155 3.87028 8.16155Z" fill="#8C8C8C"/>
</svg>
