<svg width="24" height="24" viewBox="0 0 24 24" fill="none" xmlns="http://www.w3.org/2000/svg">
<path fill-rule="evenodd" clip-rule="evenodd" d="M16.9169 6.90496C16.9169 8.63546 16.4869 10.8925 15.8254 10.55C15.5549 11.4333 14.987 12.1958 14.2182 12.708C13.4493 13.2202 12.5269 13.4505 11.6075 13.3598C10.6881 13.2691 9.82845 12.863 9.17449 12.2105C8.52053 11.5579 8.11258 10.6991 8.0199 9.77996C7.3634 8.63146 6.5024 6.32996 8.7159 4.53596C8.7559 4.52296 8.7799 4.41496 8.8159 4.25596C8.9529 3.65446 9.2564 2.31746 11.1709 2.57296C12.6474 2.76946 16.9169 3.53196 16.9169 6.90546V6.90496ZM15.0139 7.99596C15.0139 7.99596 14.7879 8.65696 14.9999 9.39346C14.9971 10.1788 14.6866 10.9317 14.1349 11.4905C13.5832 12.0494 12.8344 12.3696 12.0492 12.3825C11.264 12.3954 10.505 12.0999 9.9353 11.5595C9.36556 11.019 9.03044 10.2767 9.0019 9.49196C9.0744 9.21696 9.0744 8.75146 9.0739 8.23396C9.0734 7.30046 9.0724 6.19896 9.4999 5.74996C12.4944 7.74446 15.0139 7.99596 15.0139 7.99596Z" fill="#8C8C8C"/>
<path d="M6.5 18C6.5 17.459 6.7865 16.985 7.2165 16.721C7.20013 16.6587 7.18479 16.5962 7.1705 16.5335C7.09463 16.1919 7.03539 15.8468 6.993 15.4995C6.95004 15.1667 6.92417 14.8319 6.9155 14.4965C4.805 15.325 3 16.769 3 18.285V21H21V18.285C21 16.833 19.345 15.4475 17.351 14.605V14.619C17.36 14.924 17.343 15.274 17.31 15.6105C17.28 15.9225 17.2355 16.2335 17.182 16.5H17.5C17.5928 16.5 17.6838 16.5259 17.7628 16.5748C17.8417 16.6236 17.9055 16.6934 17.947 16.7765L18.447 17.7765C18.482 17.846 18.5 17.9225 18.5 18V19C18.5 19.1326 18.4473 19.2598 18.3536 19.3535C18.2598 19.4473 18.1326 19.5 18 19.5H17V18.5H17.5V18.118L17.191 17.5H15.809L15.5 18.118V18.5H16V19.5H15C14.8674 19.5 14.7402 19.4473 14.6464 19.3535C14.5527 19.2598 14.5 19.1326 14.5 19V18C14.5 17.9225 14.518 17.846 14.553 17.7765L15.053 16.7765C15.0945 16.6934 15.1583 16.6236 15.2372 16.5748C15.3162 16.5259 15.4072 16.5 15.5 16.5H16.1575C16.1685 16.457 16.1795 16.4095 16.1905 16.357C16.2405 16.1215 16.285 15.823 16.315 15.5145C16.345 15.2055 16.359 14.899 16.3515 14.647C16.3496 14.5426 16.3414 14.4384 16.327 14.335C16.316 14.264 16.305 14.2315 16.303 14.2245C16.3025 14.223 16.302 14.2225 16.303 14.2235L16.3045 14.223C16.0392 14.1406 15.7708 14.0683 15.5 14.0065C15.2485 13.949 14.9885 14.295 14.875 14.5115H9C8.9854 14.4836 8.97107 14.4556 8.957 14.4275C8.851 14.2165 8.7205 13.956 8.5 14.0065C8.3075 14.05 8.115 14.1 7.9225 14.155C7.9163 14.2427 7.91363 14.3306 7.9145 14.4185C7.9165 14.695 7.943 15.0335 7.9855 15.3755C8.028 15.7165 8.0855 16.0485 8.1455 16.3105C8.1625 16.386 8.1795 16.454 8.1955 16.5125C8.48136 16.5501 8.75033 16.6692 8.97021 16.8557C9.1901 17.0422 9.35158 17.2881 9.43533 17.564C9.51907 17.8399 9.52154 18.134 9.44242 18.4113C9.36331 18.6885 9.20597 18.9371 8.98924 19.1273C8.77251 19.3174 8.50557 19.441 8.22039 19.4834C7.9352 19.5258 7.64385 19.485 7.38121 19.3661C7.11857 19.2472 6.89577 19.0551 6.73949 18.8128C6.5832 18.5705 6.50006 18.2883 6.5 18Z" fill="#8C8C8C"/>
<path d="M8.5 17.9999C8.5 18.2869 8.269 18.5074 8 18.5074C7.731 18.5074 7.5 18.2874 7.5 17.9999C7.5 17.7129 7.731 17.4924 8 17.4924C8.269 17.4924 8.5 17.7124 8.5 17.9999Z" fill="#8C8C8C"/>
</svg>
