<svg width="24" height="24" viewBox="0 0 24 24" fill="none" xmlns="http://www.w3.org/2000/svg">
<path d="M4.62523 9.42346L3.75561 9.78459C3.69598 9.80934 3.65698 9.86746 3.65698 9.93196V11.0678C3.65698 11.1083 3.67236 11.147 3.69973 11.1766C3.88798 11.3813 4.67961 12.1115 5.66548 11.177C5.69773 11.1466 5.71611 11.1042 5.71611 11.06V9.93234C5.71611 9.86784 5.67711 9.80971 5.61748 9.78496L4.74786 9.42384C4.70848 9.40696 4.66423 9.40696 4.62523 9.42346Z" fill="#8C8C8C"/>
<path d="M6.69448 7.95791V7.46178C6.69448 6.61653 6.00936 6.16016 5.16411 6.16016H4.14298C3.29773 6.16016 2.61261 6.61653 2.61261 7.46178V7.95791C2.61298 7.95791 4.52286 8.33666 6.69448 7.95791Z" fill="#8C8C8C"/>
<path d="M3.32996 11.0678V10.2848C3.15258 10.0227 3.08021 9.76431 3.10383 9.48456L3.10571 9.46244C3.10721 9.44369 3.10908 9.41744 3.11208 9.40056C3.20621 9.36906 3.26208 9.27906 3.26508 9.15156C3.26733 9.06081 3.26808 8.96931 3.26883 8.88081C3.26958 8.78219 3.27071 8.68131 3.27333 8.58081C3.27333 8.50731 3.29958 8.43981 3.34308 8.38731C2.98083 8.35094 2.72471 8.30894 2.61146 8.28906C2.60658 8.43569 2.61071 8.58269 2.62496 8.72931L2.69696 9.46994C2.70408 9.54269 2.70858 9.61581 2.71346 9.68856C2.73746 10.0489 2.89008 10.3891 3.17583 10.7228C3.18408 10.7322 3.19158 10.7457 3.19496 10.7573C3.23321 10.8781 3.27858 10.9898 3.33108 11.0933C3.33071 11.0847 3.32996 11.0764 3.32996 11.0678Z" fill="#8C8C8C"/>
<path d="M6.06522 8.44491C6.08884 8.49554 6.09972 8.55216 6.11622 8.60466C6.11697 8.60354 6.11809 8.60241 6.11884 8.60166C6.12109 8.68791 6.12109 8.77566 6.12109 8.86604C6.12109 8.94479 6.12072 9.02616 6.12259 9.10716C6.12297 9.12891 6.12297 9.15066 6.12259 9.17391V9.21929C6.12259 9.31004 6.18747 9.38766 6.27672 9.40379C6.28009 9.42066 6.28272 9.44391 6.28384 9.45329C6.31572 9.75179 6.23847 10.0274 6.04309 10.3087V11.0598C6.04309 11.0842 6.04047 11.1082 6.03709 11.1322C6.09222 11.0287 6.14059 10.9169 6.18147 10.7954C6.19272 10.762 6.21409 10.7245 6.23997 10.6934C6.53584 10.3342 6.68059 9.96854 6.68022 9.58004C6.68022 9.55304 6.68022 9.52604 6.68059 9.49904L6.68584 8.29004C6.46159 8.32791 6.24072 8.35791 6.02472 8.38116C6.04009 8.39991 6.05397 8.42091 6.06522 8.44491Z" fill="#8C8C8C"/>
<path d="M19.4786 6.08984H19.5836C19.6706 6.08984 19.7411 6.15997 19.7411 6.24697V6.49634H19.9905C20.0771 6.49634 20.1476 6.56684 20.1476 6.65347V6.75847C20.1476 6.84547 20.0771 6.91597 19.9905 6.91597H19.7411V7.16497C19.7411 7.25197 19.6706 7.32247 19.5836 7.32247H19.4786C19.392 7.32247 19.3215 7.25197 19.3215 7.16497V6.91597H19.0721C18.9855 6.91597 18.9146 6.84547 18.9146 6.75847V6.65347C18.9146 6.57772 18.9686 6.51434 19.0402 6.49972C19.0504 6.49747 19.0609 6.49634 19.0717 6.49634H19.3211V6.24697C19.3211 6.19859 19.3429 6.15547 19.3774 6.12659C19.4051 6.10372 19.44 6.08984 19.4786 6.08984Z" fill="#8C8C8C"/>
<path d="M22.1963 12.321C21.927 12.2231 21.7058 12.0641 21.5599 11.8132C21.4924 11.6977 21.4463 11.5777 21.4159 11.4536H21.5471C21.669 11.46 21.7223 11.4079 21.7658 11.3036C21.9859 10.7756 22.0425 10.2281 21.9724 9.66485C21.8895 8.99848 21.6814 8.38423 21.2674 7.86335C21.2558 7.84573 21.2434 7.82848 21.231 7.81123C21.2059 7.77673 21.1796 7.74373 21.1523 7.71185C21.0776 7.62373 20.9963 7.54573 20.9089 7.47635C20.8995 7.46735 20.8898 7.45873 20.8804 7.44973C20.8976 7.41148 20.913 7.37135 20.9254 7.32973C20.931 7.31098 20.937 7.29035 20.9438 7.2686L20.9449 7.26448C20.9468 7.25773 20.949 7.2506 20.9509 7.24348L20.952 7.23935C21.0371 6.95173 21.1815 6.46385 21.1943 6.42148C21.2711 6.18935 21.234 5.92723 21.0975 5.73673C20.9738 5.5646 20.7866 5.46973 20.571 5.46973H18.4928C18.2771 5.46973 18.09 5.5646 17.9666 5.73635C17.8298 5.92685 17.7926 6.18898 17.8695 6.4211L18.1391 7.33048C18.144 7.34623 18.1493 7.36235 18.1549 7.3781C18.1646 7.4051 18.1755 7.43135 18.1875 7.45685C18.1838 7.46023 18.1796 7.4636 18.1759 7.4666C18.0784 7.53973 17.9903 7.62185 17.9134 7.71373C17.8834 7.74935 17.8553 7.78648 17.8286 7.8251C17.3906 8.3576 17.1743 8.98985 17.091 9.67685C17.022 10.2461 17.0783 10.8004 17.3153 11.3276C17.3378 11.3775 17.4019 11.4446 17.4461 11.4442H17.6633C17.5496 11.8575 17.3003 12.1627 16.872 12.3244C16.86 12.3289 16.8484 12.3356 16.8176 12.3506C17.121 12.4451 17.4173 12.5156 17.7038 12.5201L17.8418 12.4849C18.0923 12.4316 18.3345 12.318 18.5666 12.1207C18.7496 12.2242 18.9203 12.3277 19.0973 12.4192C19.0984 12.42 19.0995 12.4204 19.1006 12.4211C19.2304 12.4875 19.3751 12.519 19.5206 12.519H19.5416C19.6838 12.519 19.8255 12.4894 19.9526 12.426C19.9534 12.4252 19.9545 12.4252 19.9553 12.4245C20.1154 12.3439 20.2706 12.2535 20.4304 12.1661C20.6794 12.372 20.9828 12.4736 21.2948 12.5077L21.3731 12.5179C21.696 12.5077 22.0095 12.4312 22.2476 12.3409C22.2263 12.3334 22.2113 12.3266 22.1963 12.321ZM18.2644 5.95198C18.3188 5.8766 18.3953 5.83835 18.492 5.83835H20.5703C20.667 5.83835 20.7439 5.8766 20.7979 5.95198C20.8665 6.0476 20.8845 6.18748 20.844 6.30823L20.8418 6.3146C20.8418 6.3146 20.6876 6.83473 20.5988 7.13548C20.5961 7.14448 20.5931 7.1531 20.5909 7.16135C20.5838 7.18385 20.5774 7.2056 20.5718 7.22548C20.5695 7.23298 20.5673 7.24048 20.5646 7.24798C20.5556 7.27385 20.5455 7.29785 20.5335 7.32073C20.4506 7.48085 20.2958 7.56823 20.0843 7.57348C20.0783 7.57385 20.0726 7.57348 20.0666 7.57348H18.996C18.9353 7.57348 18.8779 7.56673 18.8261 7.5536C18.6274 7.50223 18.54 7.36348 18.501 7.25585C18.5006 7.2551 18.5006 7.2551 18.5003 7.25435C18.4969 7.2446 18.4935 7.23448 18.4905 7.2251L18.2201 6.31385L18.2183 6.30785C18.1774 6.18748 18.1954 6.04723 18.2644 5.95198ZM21.2996 9.8141C21.3008 9.8636 21.2753 10.0181 21.2438 10.1899C21.1076 10.9279 20.6981 11.5924 20.0869 12.0277C20.0674 12.042 20.0471 12.0559 20.0269 12.0697C19.6838 12.3034 19.3924 12.2527 19.0301 12.0619C17.5661 11.2909 17.994 9.10573 17.994 9.10573C18.012 8.9441 18.042 8.79148 18.0803 8.6486C18.1073 8.54923 18.1969 8.47798 18.2996 8.48173C18.3004 8.4821 18.3008 8.4821 18.3019 8.4821C18.6566 8.49748 19.0103 8.47423 19.3583 8.3951C19.4741 8.36885 19.5855 8.33585 19.692 8.2961C19.7648 8.35085 19.8405 8.4041 19.9181 8.4551C20.1199 8.5886 20.3254 8.72135 20.5043 8.88185C20.6846 9.04348 20.8339 9.23923 20.9978 9.42073C21.0589 9.07123 20.7623 8.88335 20.6081 8.62835C20.8253 8.76523 21.0045 8.9261 21.126 9.1241L21.1721 9.2066C21.2434 9.34685 21.2869 9.5051 21.297 9.68623C21.2996 9.72898 21.3008 9.77173 21.2996 9.8141Z" fill="#8C8C8C"/>
<path d="M19.5311 14.7885C19.299 14.7885 19.0766 14.7668 18.867 14.7285L19.3755 17.8129H19.6868L20.1949 14.7296C19.9856 14.7679 19.7625 14.7885 19.5311 14.7885Z" fill="#8C8C8C"/>
<path d="M21.8816 13.0653H21.8295C21.2156 13.0653 20.9164 12.8977 20.7694 12.6592L19.9196 17.8132H23.1349C23.3944 17.8132 23.6051 17.6028 23.6051 17.3429V14.7888C23.6051 13.8371 22.8334 13.0653 21.8816 13.0653ZM22.1224 15.5062H21.0956V15.2362H22.1224V15.5062Z" fill="#8C8C8C"/>
<path d="M6.33485 15.3416C6.46235 14.2867 6.89097 13.4861 7.6091 12.9408C7.36723 12.8118 7.0931 12.7132 6.78148 12.6491C6.52198 12.5955 6.17285 12.2051 6.02435 11.8871L5.96697 11.9298L4.65372 13.9946L3.39222 11.9283L3.34835 11.8867C3.19947 12.2047 2.85072 12.5951 2.59122 12.6487C1.4486 12.8842 0.762725 13.5401 0.619475 14.7228L0.39635 17.0715C0.389225 17.211 0.405725 17.235 0.534725 17.2845C0.595475 17.3081 0.656975 17.331 0.719225 17.3512C1.2851 17.5372 1.8701 17.6355 2.46072 17.6846C3.20247 17.7468 3.94722 17.7783 4.3301 17.8016C5.00472 17.796 5.57885 17.7821 6.10572 17.7513L6.33485 15.3416Z" fill="#8C8C8C"/>
<path d="M17.6632 15.3262L17.9014 17.8132H19.1426L18.2929 12.6592C18.1462 12.8977 17.847 13.0653 17.2327 13.0653H17.1806C16.992 13.0653 16.8112 13.0964 16.6414 13.1527C17.2084 13.6844 17.5526 14.4101 17.6632 15.3262Z" fill="#8C8C8C"/>
<path d="M17.5826 18.4905C17.5256 17.9447 17.5114 17.3947 17.4572 16.8475C17.376 16.0281 17.2592 15.213 17.0169 14.4221C16.8858 13.9989 16.6863 13.6313 16.2887 13.3976C15.9083 13.1738 15.4936 13.0413 15.0775 12.9116C14.9321 12.866 14.9578 12.9686 14.9663 13.0427C15.0048 13.4004 14.972 13.7538 14.8979 14.1029C14.8737 14.2155 14.9122 14.2668 15.0091 14.3224C15.4195 14.5518 15.6532 14.9024 15.6788 15.3769C15.7045 15.8657 15.6047 16.3459 15.5748 16.8304C15.5549 17.1596 15.5192 17.4902 15.381 17.7965C15.2143 18.167 14.9264 18.3138 14.5331 18.2383C14.3835 18.2098 14.2852 18.1414 14.3094 17.9761C14.3336 17.8136 14.4462 17.7566 14.5958 17.7866C14.7839 17.8236 14.8937 17.7353 14.9706 17.5814C15.0233 17.4745 15.0518 17.3576 15.0632 17.2394C15.1188 16.6936 15.1787 16.1478 15.2228 15.6006C15.2627 15.1061 14.9977 14.7314 14.5588 14.6316C14.1056 14.529 13.7152 14.7342 13.5285 15.1959C13.3789 15.565 13.2563 15.9455 13.1138 16.3188C13.0326 16.5297 12.9628 16.742 12.92 16.9629C12.8645 17.2493 12.9215 17.3548 13.1865 17.4745C13.3133 17.5315 13.3746 17.6213 13.3304 17.7566C13.2863 17.8934 13.1865 17.9319 13.0497 17.9063C12.6593 17.8322 12.4327 17.5543 12.4398 17.1539C12.4427 16.99 12.4669 16.8318 12.5125 16.6751C12.6806 16.0937 12.9015 15.5308 13.1267 14.9693C13.329 14.4649 13.7323 14.187 14.2809 14.1485C14.3878 14.14 14.4334 14.1101 14.4533 14.006C14.5203 13.6598 14.5303 13.3135 14.4989 12.9629C14.4847 12.7976 14.4206 12.7079 14.2481 12.6808C14.1085 12.6594 13.9688 12.6124 13.8377 12.5582C13.7066 12.5055 13.6496 12.5212 13.604 12.6694C13.443 13.208 13.2179 13.7225 12.9571 14.2212C12.8317 14.462 12.6863 14.6929 12.5253 14.9722C12.4612 14.6188 12.4127 14.3181 12.35 14.0189C12.3215 13.8849 12.3244 13.7638 12.3828 13.637C12.4156 13.5643 12.5025 13.4788 12.4156 13.4004C12.2774 13.275 12.1263 13.1653 11.9795 13.0499C11.9753 13.0456 11.9553 13.0556 11.9468 13.0627C11.8043 13.1852 11.6418 13.2907 11.5307 13.436C11.4637 13.523 11.5934 13.637 11.6219 13.7424C11.6276 13.7666 11.6404 13.7923 11.6375 13.8151C11.5777 14.1827 11.515 14.549 11.448 14.9508C11.401 14.8952 11.3796 14.8739 11.3654 14.8496C10.9892 14.2426 10.6828 13.6042 10.4505 12.9287C10.4035 12.7905 10.4078 12.5768 10.2895 12.5326C10.1783 12.4913 10.0116 12.601 9.86911 12.6409C9.79501 12.6623 9.72946 12.6822 9.70096 12.7691C9.64681 12.9373 9.56986 13.0969 9.52996 13.265C9.26776 14.3594 9.33331 15.4424 9.67103 16.5126C9.72233 16.6751 9.78361 16.7634 9.96886 16.799C10.3265 16.8703 10.5189 17.2622 10.3964 17.6013C10.2681 17.959 9.88193 18.1271 9.54563 17.9732C9.20648 17.8193 9.06113 17.4018 9.25778 17.0912C9.32903 16.9786 9.32048 16.8917 9.28201 16.7805C8.92006 15.7417 8.82316 14.6786 8.98988 13.5899C9.02836 13.3391 9.11243 13.0997 9.16943 12.8347C8.67211 12.98 8.19473 13.1012 7.76438 13.352C7.44803 13.5358 7.20293 13.7766 7.06471 14.1272C6.89941 14.5475 6.79966 14.9836 6.71558 15.4253C6.52178 16.4513 6.46193 17.493 6.38356 18.5318C6.36218 18.8154 6.48901 18.9907 6.71416 19.1232H17.2435C17.5114 18.9964 17.614 18.794 17.5826 18.4905ZM9.61973 9.72676C9.71663 9.75241 9.76223 9.79944 9.79928 9.88779C10.0173 10.4093 10.2866 10.8995 10.6871 11.3071C11.0034 11.6306 11.3696 11.8728 11.8342 11.9198C12.4184 11.9797 12.8744 11.7189 13.2692 11.3242C13.671 10.9209 13.9503 10.4364 14.1683 9.91201C14.1983 9.84076 14.2082 9.75099 14.3165 9.74101C14.7056 9.70396 15.0091 9.08836 14.945 8.71359C14.9264 8.60671 14.8865 8.50839 14.7697 8.50126C14.6243 8.49129 14.6514 8.41434 14.6728 8.32456C14.7497 8.00251 14.7825 7.67334 14.7982 7.39119C14.8082 7.10476 14.7811 6.86679 14.7241 6.63879C14.6372 6.29394 14.459 5.99754 14.1356 5.83224C13.9446 5.73391 13.7978 5.62561 13.7337 5.41329C13.7095 5.33064 13.6283 5.27649 13.5613 5.22091C13.3133 5.01571 13.0198 4.92594 12.7148 4.89601C11.8014 4.80624 10.9493 5.00146 10.1954 5.53299C9.67531 5.89779 9.31763 6.37944 9.24496 7.03494C9.19651 7.46671 9.22073 7.89421 9.30196 8.32029C9.31906 8.41149 9.35611 8.50696 9.19508 8.50411C9.12241 8.50269 9.07538 8.56396 9.05116 8.63521C8.91721 9.01711 9.22643 9.62274 9.61973 9.72676Z" fill="#8C8C8C"/>
</svg>
