<svg width="24" height="24" viewBox="0 0 24 24" fill="none" xmlns="http://www.w3.org/2000/svg">
<path d="M14.4461 4.45686L17.8178 7.82511L14.4461 7.83524V4.45686Z" fill="#979797"/>
<path d="M15.3 7.8625H17.325C17.4377 7.8625 17.5458 7.90728 17.6255 7.98698C17.7052 8.06669 17.75 8.17479 17.75 8.2875V19.0875C17.75 19.2002 17.7052 19.3083 17.6255 19.388C17.5458 19.4677 17.4377 19.5125 17.325 19.5125H6.525C6.41228 19.5125 6.30418 19.4677 6.22448 19.388C6.14478 19.3083 6.1 19.2002 6.1 19.0875V4.9125C6.1 4.79979 6.14478 4.69169 6.22448 4.61198C6.30418 4.53228 6.41228 4.4875 6.525 4.4875H13.95C14.0627 4.4875 14.1708 4.53228 14.2505 4.61198C14.3302 4.69169 14.375 4.79979 14.375 4.9125V6.9375C14.375 7.18283 14.4725 7.41811 14.6459 7.59158C14.8194 7.76505 15.0547 7.8625 15.3 7.8625Z" stroke="#979797" stroke-width="0.5"/>
<path d="M14.2875 12.3375H4.8375C4.6511 12.3375 4.5 12.4886 4.5 12.675V16.725C4.5 16.9114 4.6511 17.0625 4.8375 17.0625H14.2875C14.4739 17.0625 14.625 16.9114 14.625 16.725V12.675C14.625 12.4886 14.4739 12.3375 14.2875 12.3375Z" fill="#979797"/>
<path d="M5.60168 13.3578V16H6.59229C7.3833 16 7.83557 15.5148 7.83557 14.667C7.83557 13.8375 7.37781 13.3578 6.59229 13.3578H5.60168ZM6.0741 13.7661H6.53003C7.04822 13.7661 7.354 14.0975 7.354 14.6743C7.354 15.2639 7.05554 15.5917 6.53003 15.5917H6.0741V13.7661ZM9.51465 13.2919C8.74744 13.2919 8.26221 13.8247 8.26221 14.678C8.26221 15.5312 8.73828 16.0659 9.51465 16.0659C10.2855 16.0659 10.7616 15.5294 10.7616 14.678C10.7616 13.8247 10.2819 13.2919 9.51465 13.2919ZM9.51465 13.7112C9.9834 13.7112 10.2782 14.0865 10.2782 14.678C10.2782 15.2676 9.98523 15.6466 9.51465 15.6466C9.03674 15.6466 8.74561 15.2676 8.74561 14.678C8.74561 14.0865 9.04407 13.7112 9.51465 13.7112ZM12.4059 16.0659C13.0156 16.0659 13.4624 15.7015 13.5247 15.1614H13.0596C12.9955 15.458 12.741 15.6448 12.4059 15.6448C11.9554 15.6448 11.6753 15.2749 11.6753 14.678C11.6753 14.0829 11.9554 13.713 12.4041 13.713C12.7373 13.713 12.9918 13.9181 13.0577 14.2349H13.5228C13.4679 13.6837 13.0046 13.2919 12.4041 13.2919C11.6552 13.2919 11.1919 13.821 11.1919 14.6798C11.1919 15.5349 11.657 16.0659 12.4059 16.0659Z" fill="white"/>
</svg>
