<svg width="18" height="24" viewBox="0 0 18 24" fill="none" xmlns="http://www.w3.org/2000/svg">
<path d="M0.515625 18H17.5156V23H0.515626L0.515625 18Z" fill="#8C8C8C"/>
<path d="M17.9531 5.50777L12.7943 0.375H1.43348C0.6465 0.375 0 0.977719 0 1.76466V9.10528C0 9.10528 0.0479533 9.09375 0.0798283 9.09375H0.703125V1.76466C0.703125 1.3718 1.04063 1.07812 1.43348 1.07812H12.4764L12.7031 1.2907V4.17788C12.7031 4.96158 13.3404 5.57812 14.1241 5.57812H17.0113L17.2031 5.80289V22.1882C17.2031 22.581 16.9302 22.9219 16.5374 22.9219H1.43348C1.04063 22.9219 0.703125 22.581 0.703125 22.1882V9.09375L0.515625 1C0.48375 1 0 9.10528 0 9.10528V22.1881C0 22.9751 0.6465 23.625 1.43348 23.625H16.5374C17.3243 23.625 17.9531 22.9751 17.9531 22.1882V5.50777ZM14.1241 4.875C13.7313 4.875 13.4063 4.57073 13.4063 4.17788V2.07337V2.05973L16.2423 4.875H14.1241Z" fill="#8C8C8C"/>
<path d="M6.25977 22V20.9492H7.34961V20.4004H6.25977V19.7578H7.46094V19.1816H5.54297V22H6.25977ZM9.90234 21.4082H8.70508V19.1816H7.98828V22H9.90234V21.4082ZM11.7617 22L12.6465 19.1816H11.873L11.3477 21.2559H11.3105L10.7695 19.1816H9.94727L10.8555 22H11.7617Z" fill="white"/>
<path d="M11.6956 6C11.3648 6 11.0438 6.03939 10.7395 6.10832C10.7395 6.10832 10.7361 6.10832 10.7328 6.10832C10.7229 6.1116 10.7031 6.11488 10.6766 6.12144C10.6501 6.12801 10.6137 6.13786 10.574 6.15098C10.5674 6.15427 10.5608 6.15427 10.5542 6.15755C10.5409 6.16083 10.531 6.16411 10.5178 6.17068C9.81969 6.36762 9.19768 6.74508 8.70802 7.24726C8.6981 7.25711 8.68817 7.26696 8.68156 7.27352L8.67494 7.28009C8.36394 7.57549 8.05955 7.93982 7.79487 8.3895C7.52357 8.84573 7.29528 9.39059 7.13978 10.0372C6.33912 13.3917 4 13.2473 4 13.2473V14.9803C4.13234 14.9934 4.26468 15 4.40033 15C6.11745 15 7.58974 13.9792 8.24152 12.5153C8.39041 12.1772 8.49628 11.8162 8.55252 11.4387H9.77998H10.8983V9.71554H9.43259C9.64103 8.66193 10.5773 7.86761 11.7022 7.86761C11.8048 7.86761 11.9007 7.87418 12 7.88731V6.00985C11.8941 6.00328 11.7949 6 11.6956 6Z" fill="#979797"/>
</svg>
