<svg width="20" height="24" viewBox="0 0 20 24" fill="none" xmlns="http://www.w3.org/2000/svg">
<path d="M19.875 5.50777L14.7161 0.375H3.35536C2.56838 0.375 1.92188 0.977719 1.92188 1.76466V9.10528C1.92188 9.10388 1.96983 9.09375 2.0017 9.09375H2.625V1.76466C2.625 1.3718 2.9625 1.07812 3.35536 1.07812H14.3983L14.625 1.2907V4.17788C14.625 4.96158 15.2623 5.57812 16.046 5.57812H18.9332L19.125 5.80289V22.1882C19.125 22.581 18.8521 22.9219 18.4592 22.9219H3.35536C2.9625 22.9219 2.625 22.581 2.625 22.1882V19.3594H2.0017C1.96983 19.3594 1.92188 19.3611 1.92188 19.3597V22.1881C1.92188 22.9751 2.56838 23.625 3.35536 23.625H18.4593C19.2462 23.625 19.875 22.9751 19.875 22.1882V5.50777ZM16.046 4.875C15.6532 4.875 15.3281 4.57073 15.3281 4.17788V2.07337V2.05973L18.1642 4.875H16.046Z" fill="#8C8C8C"/>
<path d="M15.4501 9.79688H1.42491C0.637969 9.79688 0 10.4348 0 11.2218V17.1845C0 17.9714 0.637969 18.6094 1.42491 18.6094H15.4501C16.237 18.6094 16.875 17.9714 16.875 17.1845V11.2218C16.875 10.4348 16.237 9.79688 15.4501 9.79688ZM4.73438 16.115C4.73438 16.7268 4.59422 17.1897 4.32647 17.5038C4.05867 17.8179 3.65513 17.975 3.11963 17.975C2.89716 17.975 2.67188 17.9534 2.48438 17.9101V16.9616C2.53125 16.974 2.61905 16.9879 2.6932 17.0033C2.76736 17.0188 2.84705 17.0265 2.93358 17.0265C3.13542 17.0265 3.2895 16.9657 3.37603 16.8442C3.46256 16.7227 3.51567 16.5147 3.51567 16.2201V12.0469H4.73442V16.115H4.73438ZM8.52989 14.6401C8.23223 14.9151 7.80947 15.0469 7.26159 15.0469H6.9375V16.5469H5.71875V12.0469H7.26159C7.83211 12.0469 8.26059 12.168 8.54691 12.4171C8.83317 12.6664 8.97638 13.0161 8.97638 13.4753C8.97638 13.98 8.82755 14.3652 8.52989 14.6401ZM13.4531 16.3467C12.9375 16.528 12.345 16.6186 11.7106 16.6186C11.0144 16.6186 10.4779 16.4168 10.0979 16.0131C9.71784 15.6094 9.52861 15.0336 9.52861 14.2859C9.52861 13.5567 9.73706 12.9893 10.1531 12.5835C10.5691 12.1777 11.1523 11.9748 11.9021 11.9748C12.1863 11.9748 12.4547 12.0016 12.707 12.0552C12.9593 12.1087 13.1793 12.1767 13.3667 12.2591L12.9805 13.2169C12.6551 13.0562 12.2977 12.9759 11.9084 12.9759C11.552 12.9759 11.2766 13.0918 11.0819 13.3235C10.8872 13.5552 10.79 13.8863 10.79 14.3168C10.79 14.7391 10.878 15.0609 11.0541 15.2823C11.2303 15.5038 11.49 15.6145 11.8216 15.6145C12.0029 15.6145 12.1406 15.597 12.3281 15.562V14.8594H11.5312V13.9219H13.4531V16.3467H13.4531Z" fill="#8C8C8C"/>
<path d="M7.2338 13.0312H6.9375V14.0625H7.14108C7.32441 14.0625 7.47014 14.0115 7.57828 13.9085C7.68642 13.8055 7.74047 13.6666 7.74047 13.4853C7.74047 13.1805 7.57158 13.0312 7.2338 13.0312Z" fill="#8C8C8C"/>
</svg>
