<svg width="24" height="24" viewBox="0 0 48 48" fill="none" xmlns="http://www.w3.org/2000/svg">
<path d="M43.75 11.0155L33.4323 0.75H10.7107C9.13675 0.75 7.84375 1.95544 7.84375 3.52931V18.2106C7.84375 18.2078 7.93966 18.1875 8.00341 18.1875H9.25V3.52931C9.25 2.74359 9.925 2.15625 10.7107 2.15625H32.7966L33.25 2.58141V8.35575C33.25 9.92316 34.5246 11.1562 36.092 11.1562H41.8664L42.25 11.6058V44.3764C42.25 45.1621 41.7042 45.8438 40.9185 45.8438H10.7107C9.925 45.8438 9.25 45.162 9.25 44.3764V38.7188H8.00341C7.93966 38.7188 7.84375 38.7222 7.84375 38.7194V44.3763C7.84375 45.9502 9.13675 47.25 10.7107 47.25H40.9186C42.4924 47.25 43.75 45.9502 43.75 44.3764V11.0155ZM36.092 9.75C35.3063 9.75 34.6562 9.14147 34.6562 8.35575V4.14675V4.11947L40.3283 9.75H36.092Z" fill="#8C8C8C"/>
<path d="M34.9002 19.5938H6.84981C5.27594 19.5938 4 20.8697 4 22.4436V34.3689C4 35.9428 5.27594 37.2188 6.84981 37.2188H34.9002C36.4741 37.2188 37.75 35.9428 37.75 34.3689V22.4436C37.75 20.8697 36.4741 19.5938 34.9002 19.5938Z" fill="#8C8C8C"/>
<path d="M13.959 22.9238H16.9873V33H15.0254V26.1846C15.0254 25.9886 15.0277 25.7152 15.0322 25.3643C15.0368 25.0088 15.0391 24.7354 15.0391 24.5439L13.1318 33H11.0879L9.19434 24.5439C9.19434 24.7354 9.19661 25.0088 9.20117 25.3643C9.20573 25.7152 9.20801 25.9886 9.20801 26.1846V33H7.24609V22.9238H10.3086L12.1406 30.8467L13.959 22.9238ZM25.1973 30.8672H24.0762V33H22.1689V30.8672H18.2451V29.165L21.8887 23.1494H24.0762V29.3428H25.1973V30.8672ZM22.1689 29.3428V25.0635L19.6875 29.3428H22.1689ZM29.4902 29.1924H32.0469L30.7891 25.2275L29.4902 29.1924ZM29.6201 22.9238H31.999L35.5674 33H33.2842L32.6348 30.9287H28.9229L28.2256 33H26.0244L29.6201 22.9238Z" fill="white"/>
</svg>
