<svg width="20" height="24" viewBox="0 0 20 24" fill="none" xmlns="http://www.w3.org/2000/svg">
<path d="M19.875 5.50777L14.7161 0.375H3.35536C2.56838 0.375 1.92188 0.977719 1.92188 1.76466V9.10528C1.92188 9.10388 1.96983 9.09375 2.0017 9.09375H2.625V1.76466C2.625 1.3718 2.9625 1.07812 3.35536 1.07812H14.3983L14.625 1.2907V4.17788C14.625 4.96158 15.2623 5.57812 16.046 5.57812H18.9332L19.125 5.80289V22.1882C19.125 22.581 18.8521 22.9219 18.4592 22.9219H3.35536C2.9625 22.9219 2.625 22.581 2.625 22.1882V19.3594H2.0017C1.96983 19.3594 1.92188 19.3611 1.92188 19.3597V22.1881C1.92188 22.9751 2.56838 23.625 3.35536 23.625H18.4593C19.2462 23.625 19.875 22.9751 19.875 22.1882V5.50777ZM16.046 4.875C15.6532 4.875 15.3281 4.57073 15.3281 4.17788V2.07337V2.05973L18.1642 4.875H16.046Z" fill="#8C8C8C"/>
<path d="M9.30384 12.9698C8.69207 12.9698 8.38622 13.4106 8.38622 14.2921C8.38622 15.1655 8.69001 15.6022 9.29765 15.6022C9.60661 15.6022 9.83573 15.4961 9.98512 15.2839C10.1344 15.0718 10.2091 14.7412 10.2091 14.2921C10.2091 13.8411 10.1334 13.5079 9.98203 13.2926C9.83067 13.0774 9.60459 12.9698 9.30384 12.9698Z" fill="#8C8C8C"/>
<path d="M15.4501 9.79688H1.42491C0.637969 9.79688 0 10.4348 0 11.2218V17.1845C0 17.9714 0.637969 18.6094 1.42491 18.6094H15.4501C16.237 18.6094 16.875 17.9714 16.875 17.1845V11.2218C16.875 10.4348 16.237 9.79688 15.4501 9.79688ZM6.28125 16.5469H5.15625V14.5764C5.15625 14.4734 5.16614 14.3606 5.16923 14.2349C5.17233 14.1092 5.19459 13.7812 5.2193 13.3125H5.1915L4.28006 16.5469H3.11836L2.19455 13.3125H2.16675C2.20997 13.875 2.25 14.288 2.25 14.5949V16.5469H1.17188V12.0469H2.77537L3.71775 15.2344H3.74245L4.66627 12.0469H6.28125V16.5469ZM10.9352 16.0254C10.5623 16.4209 10.0165 16.6186 9.29766 16.6186C8.58905 16.6186 8.04581 16.4199 7.66786 16.0223C7.28986 15.6248 7.10091 15.046 7.10091 14.2859C7.10091 13.5341 7.28883 12.96 7.66477 12.5634C8.04066 12.1669 8.58703 11.9686 9.30384 11.9686C10.0227 11.9686 10.5675 12.1654 10.9383 12.5588C11.309 12.9522 11.4944 13.53 11.4944 14.2921C11.4945 15.0522 11.308 15.6299 10.9352 16.0254ZM14.7325 16.5469H13.2958L11.822 12.0469H13.1939L13.8087 14.3328C13.9364 14.8416 14.0064 15.1941 14.0188 15.3938C14.0332 15.2497 14.062 15.0685 14.1053 14.8523C14.1486 14.636 14.1866 14.4692 14.2196 14.3456L14.8468 12.0469H16.2124L14.7325 16.5469Z" fill="#8C8C8C"/>
</svg>
