<svg width="18" height="24" viewBox="0 0 18 24" fill="none" xmlns="http://www.w3.org/2000/svg">
<path d="M0.515625 18H17.5156V23H0.515626L0.515625 18Z" fill="#8C8C8C"/>
<path d="M17.9531 5.50777L12.7943 0.375H1.43348C0.6465 0.375 0 0.977719 0 1.76466V9.10528C0 9.10528 0.0479533 9.09375 0.0798283 9.09375H0.703125V1.76466C0.703125 1.3718 1.04063 1.07812 1.43348 1.07812H12.4764L12.7031 1.2907V4.17788C12.7031 4.96158 13.3404 5.57812 14.1241 5.57812H17.0113L17.2031 5.80289V22.1882C17.2031 22.581 16.9302 22.9219 16.5374 22.9219H1.43348C1.04063 22.9219 0.703125 22.581 0.703125 22.1882V9.09375L0.515625 1C0.48375 1 0 9.10528 0 9.10528V22.1881C0 22.9751 0.6465 23.625 1.43348 23.625H16.5374C17.3243 23.625 17.9531 22.9751 17.9531 22.1882V5.50777ZM14.1241 4.875C13.7313 4.875 13.4063 4.57073 13.4063 4.17788V2.07337V2.05973L16.2423 4.875H14.1241Z" fill="#8C8C8C"/>
<path d="M11.8903 7.08887C11.8509 7.05476 11.8046 7.0295 11.7546 7.01479C11.7046 7.00009 11.6521 6.99629 11.6005 7.00365L6.50958 7.73092C6.42295 7.74331 6.3437 7.78653 6.28637 7.85264C6.22903 7.91875 6.19746 8.00332 6.19744 8.09083V12.2858C5.92014 12.1257 5.59776 12.0616 5.28031 12.1034C4.96285 12.1452 4.66805 12.2905 4.44164 12.517C4.21523 12.7434 4.06985 13.0382 4.02807 13.3556C3.98628 13.6731 4.05041 13.9955 4.21052 14.2728C4.37063 14.5501 4.61776 14.7668 4.91359 14.8893C5.20942 15.0118 5.53741 15.0333 5.8467 14.9504C6.15598 14.8675 6.42927 14.6849 6.62418 14.4309C6.8191 14.1768 6.92473 13.8656 6.92472 13.5454V9.86069L11.2884 9.23733V11.5585C11.0111 11.3984 10.6887 11.3343 10.3712 11.3761C10.0538 11.4179 9.75896 11.5633 9.53255 11.7897C9.30613 12.0161 9.16076 12.3109 9.11897 12.6284C9.07719 12.9458 9.14132 13.2682 9.30143 13.5455C9.46153 13.8228 9.70867 14.0395 10.0045 14.162C10.3003 14.2846 10.6283 14.306 10.9376 14.2231C11.2469 14.1403 11.5202 13.9576 11.7151 13.7036C11.91 13.4496 12.0156 13.1383 12.0156 12.8181V7.36356C12.0156 7.31146 12.0044 7.25998 11.9828 7.21259C11.9612 7.1652 11.9296 7.12301 11.8903 7.08887ZM6.92472 9.12615V8.40619L11.2884 7.78278V8.50278L6.92472 9.12615Z" fill="#979797"/>
<path d="M7.79102 22V19.1816H6.94531L6.26367 20.9043H6.22656L5.54297 19.1816H4.69727V22H5.35938V20.2207H5.39453L6.02344 21.7832H6.4668L7.09375 20.2207H7.12891V22H7.79102ZM8.45508 19.1816V22H9.17188V21.1738H9.64648C10.2734 21.1738 10.7051 20.7812 10.7051 20.1816C10.7051 19.5762 10.2949 19.1816 9.68945 19.1816H8.45508ZM9.17188 19.7324H9.5C9.80273 19.7324 9.98047 19.8867 9.98047 20.1836C9.98047 20.4766 9.80078 20.6328 9.49609 20.6328H9.17188V19.7324ZM11.9141 20.8066H12.2598C12.5332 20.8066 12.6992 20.9395 12.6992 21.1562C12.6992 21.3672 12.5234 21.5117 12.2695 21.5117C11.998 21.5117 11.8242 21.3789 11.8145 21.1641H11.1309C11.1562 21.7168 11.5996 22.0762 12.2578 22.0762C12.9473 22.0762 13.4277 21.7207 13.4277 21.2109C13.4277 20.8477 13.1797 20.5918 12.791 20.5508V20.5137C13.1074 20.4551 13.3242 20.1992 13.3242 19.875C13.3242 19.4199 12.8945 19.1055 12.2695 19.1055C11.6152 19.1055 11.1934 19.457 11.1836 20.0078H11.834C11.8418 19.7871 12.0078 19.6406 12.2539 19.6406C12.5039 19.6406 12.6582 19.7676 12.6582 19.9727C12.6582 20.1777 12.5 20.3125 12.2598 20.3125H11.9141V20.8066Z" fill="white"/>
</svg>
