<svg width="18" height="24" viewBox="0 0 18 24" fill="none" xmlns="http://www.w3.org/2000/svg">
<path d="M17.9531 5.50777L12.7943 0.375H1.43348C0.6465 0.375 0 0.977719 0 1.76466V9.10528C0 9.10528 0.0479533 9.09375 0.0798283 9.09375H0.703125V1.76466C0.703125 1.3718 1.04063 1.07812 1.43348 1.07812H12.4764L12.7031 1.2907V4.17788C12.7031 4.96158 13.3404 5.57812 14.1241 5.57812H17.0113L17.2031 5.80289V22.1882C17.2031 22.581 16.9302 22.9219 16.5374 22.9219H1.43348C1.04063 22.9219 0.703125 22.581 0.703125 22.1882V9.09375L0.515625 1C0.48375 1 0 9.10528 0 9.10528V22.1881C0 22.9751 0.6465 23.625 1.43348 23.625H16.5374C17.3243 23.625 17.9531 22.9751 17.9531 22.1882V5.50777ZM14.1241 4.875C13.7313 4.875 13.4063 4.57073 13.4063 4.17788V2.07337V2.05973L16.2423 4.875H14.1241Z" fill="#8C8C8C"/>
<path d="M4.47949 16.4771V20H5.10938V18.8452H5.87354C6.58643 18.8452 7.08447 18.3667 7.08447 17.6685C7.08447 16.958 6.60352 16.4771 5.90039 16.4771H4.47949ZM5.10938 17.0044H5.73438C6.18848 17.0044 6.44482 17.2363 6.44482 17.6685C6.44482 18.0884 6.18115 18.3228 5.73193 18.3228H5.10938V17.0044ZM7.78027 16.4771V20H9.10107C10.1558 20 10.7588 19.353 10.7588 18.2227C10.7588 17.1167 10.1484 16.4771 9.10107 16.4771H7.78027ZM8.41016 17.0215H9.01807C9.70898 17.0215 10.1167 17.4634 10.1167 18.2324C10.1167 19.0186 9.71875 19.4556 9.01807 19.4556H8.41016V17.0215ZM12.1064 20V18.5718H13.5835V18.0469H12.1064V17.0215H13.7227V16.4771H11.4766V20H12.1064Z" fill="#979797"/>
<path d="M5.65593 13.4527C5.38124 13.4527 5.16018 13.3128 5.06493 13.0784C4.90611 12.6888 5.13505 12.1529 5.69305 11.608C6.12993 11.1813 6.74005 10.8301 7.50749 10.5631C7.91568 9.8056 8.29124 8.99447 8.55468 8.3011C7.97136 7.39378 7.86374 6.27366 8.06774 5.64778C8.19974 5.24297 8.4283 5.09072 8.59649 5.03428C8.83124 4.95535 9.07086 5.01441 9.23793 5.19403C9.48974 5.46478 9.58199 6.01003 9.5203 6.86091C9.49574 7.2001 9.38305 7.65553 9.18468 8.21672C9.1933 8.2276 9.20212 8.23828 9.21093 8.24897C9.3433 8.41078 9.48449 8.58872 9.63243 8.77528C9.94818 9.17335 10.3029 9.62053 10.6637 10.0214C10.7704 10.018 10.8731 10.0165 10.9723 10.0165C12.2469 10.0165 13.1029 10.2832 13.3824 10.7673C13.5017 10.9737 13.5041 11.206 13.3894 11.4048C13.2345 11.6731 12.8994 11.8332 12.4929 11.8332H12.4927C12.3943 11.8332 12.2925 11.8237 12.1903 11.8047C11.6781 11.7102 11.1157 11.3247 10.4271 10.5944C10.251 10.604 10.0667 10.6178 9.87768 10.6362C9.47174 10.6752 8.68836 10.7774 7.89524 11.0273C7.55399 11.6437 6.81955 12.8885 6.27186 13.2464C6.06468 13.3814 5.85205 13.4527 5.65593 13.4527ZM7.05505 11.3557C6.66224 11.5454 6.33805 11.7644 6.08586 12.0106C5.5903 12.4947 5.55805 12.7981 5.5858 12.8662C5.59386 12.8858 5.62855 12.89 5.65593 12.89C5.73993 12.89 5.85224 12.8482 5.9638 12.7754C6.20868 12.6155 6.61293 12.0847 7.05505 11.3557ZM11.211 10.5826C11.6355 10.9762 11.9917 11.1961 12.2921 11.2516C12.3607 11.2642 12.4282 11.2707 12.4924 11.2707C12.4926 11.2707 12.4926 11.2707 12.4926 11.2707C12.7153 11.2707 12.861 11.1944 12.9021 11.1235C12.9096 11.1102 12.9202 11.0922 12.8949 11.0485C12.8004 10.8852 12.3399 10.6162 11.211 10.5826ZM8.95274 8.82478C8.75643 9.30741 8.51736 9.82903 8.25749 10.3422C8.90193 10.1827 9.48618 10.1088 9.82349 10.0763C9.86736 10.0722 9.91105 10.0681 9.95436 10.0643C9.68605 9.74822 9.42805 9.4231 9.19161 9.12497C9.10986 9.02185 9.02999 8.92135 8.95274 8.82478ZM8.80274 5.56228C8.79861 5.56228 8.78943 5.56303 8.77536 5.56772C8.71199 5.58891 8.6473 5.68416 8.6023 5.82253C8.4673 6.23653 8.52093 6.9331 8.80199 7.57491C8.89143 7.27078 8.94486 7.01522 8.95893 6.8206C9.02755 5.87391 8.87436 5.6296 8.82561 5.57747C8.81193 5.56228 8.80686 5.56228 8.80274 5.56228Z" fill="#979797"/>
</svg>
