<svg width="20" height="24" viewBox="0 0 20 24" fill="none" xmlns="http://www.w3.org/2000/svg">
<path d="M19.875 5.50777L14.7161 0.375H3.35536C2.56838 0.375 1.92188 0.977719 1.92188 1.76466V9.10528C1.92188 9.10388 1.96983 9.09375 2.0017 9.09375H2.625V1.76466C2.625 1.3718 2.9625 1.07812 3.35536 1.07812H14.3983L14.625 1.2907V4.17788C14.625 4.96158 15.2623 5.57812 16.046 5.57812H18.9332L19.125 5.80289V22.1882C19.125 22.581 18.8521 22.9219 18.4592 22.9219H3.35536C2.9625 22.9219 2.625 22.581 2.625 22.1882V19.3594H2.0017C1.96983 19.3594 1.92188 19.3611 1.92188 19.3597V22.1881C1.92188 22.9751 2.56838 23.625 3.35536 23.625H18.4593C19.2462 23.625 19.875 22.9751 19.875 22.1882V5.50777ZM16.046 4.875C15.6532 4.875 15.3281 4.57073 15.3281 4.17788V2.07337V2.05973L18.1642 4.875H16.046Z" fill="#8C8C8C"/>
<path d="M15.4501 9.79688H1.42491C0.637969 9.79688 0 10.4348 0 11.2218V17.1845C0 17.9714 0.637969 18.6094 1.42491 18.6094H15.4501C16.237 18.6094 16.875 17.9714 16.875 17.1845V11.2218C16.875 10.4348 16.237 9.79688 15.4501 9.79688ZM4.77745 14.6401C4.4798 14.9151 4.05703 15.0469 3.50916 15.0469H3.1875V16.5469H1.96875V12.0469H3.50916C4.07967 12.0469 4.50816 12.168 4.79447 12.4171C5.08073 12.6664 5.22394 13.0161 5.22394 13.4753C5.22394 13.98 5.07511 14.3652 4.77745 14.6401ZM10.2656 16.5469H8.64422L6.99431 13.3594H6.96652C7.00561 13.875 7.03125 14.2571 7.03125 14.5208V16.5469H5.95312V12.0469H7.53811L9.18183 15.1875H9.20039C9.17152 14.7188 9.14062 14.3581 9.14062 14.082V12.0469H10.2656V16.5469ZM15 16.3467C14.4375 16.528 13.8809 16.6186 13.2465 16.6186C12.5502 16.6186 12.0082 16.4168 11.6281 16.0131C11.2481 15.6094 11.0562 15.0336 11.0562 14.2859C11.0562 13.5567 11.2632 12.9893 11.6793 12.5835C12.0953 12.1777 12.6778 11.9748 13.4276 11.9748C13.7118 11.9748 13.9799 12.0016 14.2322 12.0552C14.4845 12.1087 14.7043 12.1767 14.8918 12.2591L14.5055 13.2169C14.18 13.0562 13.8226 12.9759 13.4333 12.9759C13.0769 12.9759 12.8014 13.0918 12.6068 13.3235C12.4122 13.5552 12.3148 13.8863 12.3148 14.3168C12.3148 14.7391 12.4028 15.0609 12.579 15.2823C12.7551 15.5038 13.0025 15.6145 13.3341 15.6145C13.5153 15.6145 13.6875 15.597 13.8282 15.562V14.8594H13.0313V13.9219H15V16.3467H15Z" fill="#8C8C8C"/>
<path d="M3.48136 13.0312H3.1875V14.0625H3.38869C3.57202 14.0625 3.71775 14.0115 3.82589 13.9085C3.93403 13.8055 3.98808 13.6666 3.98808 13.4853C3.98808 13.1805 3.81914 13.0312 3.48136 13.0312Z" fill="#8C8C8C"/>
</svg>
