<svg width="19" height="19" viewBox="0 0 19 19" fill="none" xmlns="http://www.w3.org/2000/svg">
<path d="M18.6042 2.77084H9.5V16.2292H18.6042V2.77084Z" fill="white"/>
<path d="M18.6042 16.625H10.6875C10.4687 16.625 10.2917 16.448 10.2917 16.2292C10.2917 16.0104 10.4687 15.8333 10.6875 15.8333H18.2084V3.16667H10.6875C10.4687 3.16667 10.2917 2.98962 10.2917 2.77083C10.2917 2.55204 10.4687 2.375 10.6875 2.375H18.6042C18.823 2.375 19 2.55204 19 2.77083V16.2292C19 16.448 18.823 16.625 18.6042 16.625Z" fill="#8C8C8C"/>
<path d="M11.0833 0L0 2.06522V16.9348L11.0833 19V0Z" fill="#8C8C8C"/>
<path opacity="0.2" d="M0 2.06522V2.26314L11.0833 0.197917V0L0 2.06522Z" fill="white"/>
<path opacity="0.1" d="M0 16.9348L11.0833 19V18.8021L0 16.7369V16.9348Z" fill="black"/>
<path d="M13.0625 4.75C11.5322 4.75 10.2917 5.99055 10.2917 7.52083C10.2917 9.05111 11.5322 10.2917 13.0625 10.2917C14.5928 10.2917 15.8334 9.05111 15.8334 7.52083H13.0625V4.75Z" fill="#8C8C8C"/>
<path d="M13.8542 3.95834V6.72918H16.625C16.625 5.1989 15.3845 3.95834 13.8542 3.95834Z" fill="#8C8C8C"/>
<path d="M17.0208 11.4792H10.6875V12.2708H17.0208V11.4792Z" fill="#8C8C8C"/>
<path d="M17.0208 13.8542H10.6875V14.6458H17.0208V13.8542Z" fill="#8C8C8C"/>
<path d="M18.6041 16.625C18.8229 16.625 19 16.448 19 16.2292V10.2917L11.0833 2.375V16.625H18.6041Z" fill="url(#paint0_linear)"/>
<path d="M4.94794 10.4896H5.14585C6.3465 10.4896 7.32294 9.51313 7.32294 8.31249C7.32294 7.11185 6.3465 6.13541 5.14585 6.13541H3.76044V12.907L4.94794 12.9918V10.4896ZM4.94794 7.32291H5.14585C5.69167 7.32291 6.13544 7.76667 6.13544 8.31249C6.13544 8.85831 5.69167 9.30207 5.14585 9.30207H4.94794V7.32291Z" fill="white"/>
<path opacity="0.05" d="M11.0833 0L0 2.06522V16.9348L11.0833 19V0Z" fill="url(#paint1_linear)"/>
<path d="M18.6042 2.375H11.0833V0L0 2.06522V16.9348L11.0833 19V16.625H18.6042C18.823 16.625 19 16.448 19 16.2292V2.77083C19 2.55204 18.823 2.375 18.6042 2.375Z" fill="url(#paint2_linear)"/>
<defs>
<linearGradient id="paint0_linear" x1="7.52081" y1="5.9375" x2="18.4883" y2="16.905" gradientUnits="userSpaceOnUse">
<stop stop-opacity="0.1"/>
<stop offset="1" stop-opacity="0"/>
</linearGradient>
<linearGradient id="paint1_linear" x1="-0.000645624" y1="9.49957" x2="11.0834" y2="9.49957" gradientUnits="userSpaceOnUse">
<stop stop-color="white"/>
<stop offset="1"/>
</linearGradient>
<linearGradient id="paint2_linear" x1="-1.23773" y1="4.71955" x2="19.8276" y2="14.5425" gradientUnits="userSpaceOnUse">
<stop stop-color="white" stop-opacity="0.2"/>
<stop offset="1" stop-color="white" stop-opacity="0"/>
</linearGradient>
</defs>
</svg>
