<svg width="6" height="6" viewBox="0 0 16 16" fill="none" xmlns="http://www.w3.org/2000/svg">
<path d="M10.25 0.5H3.5C2.6709 0.5 2 1.1709 2 2V14C2 14.8291 2.6709 15.5 3.5 15.5H12.5C13.3291 15.5 14 14.8291 14 14V4.25L10.25 0.5ZM6.125 12.0869V6.16309L10.5869 9.125L6.125 12.0869Z" fill="#CC5FFF"/>
<rect x="5" y="4" width="6" height="9" fill="#CC5FFF"/>
<g clip-path="url(#clip0_930_18704)">
<path d="M8.875 9.25C9.0903 9.08896 9.26845 8.88349 9.39735 8.64754C9.52626 8.4116 9.60292 8.15068 9.62213 7.88251C9.64133 7.61433 9.60264 7.34515 9.50867 7.09325C9.4147 6.84134 9.26765 6.61258 9.0775 6.4225L7.9525 5.2975C7.59887 4.95595 7.12524 4.76696 6.63362 4.77124C6.14201 4.77551 5.67173 4.9727 5.32409 5.32034C4.97645 5.66798 4.77926 6.13825 4.77499 6.62987C4.77072 7.12149 4.95971 7.59512 5.30125 7.94875L5.9425 8.59375" stroke="white" stroke-width="0.75" stroke-linecap="round" stroke-linejoin="round"/>
<path d="M8.12499 7.75C7.90969 7.91104 7.73155 8.11651 7.60264 8.35246C7.47373 8.5884 7.39707 8.84932 7.37787 9.11749C7.35866 9.38567 7.39736 9.65484 7.49132 9.90675C7.58529 10.1587 7.73234 10.3874 7.92249 10.5775L9.04749 11.7025C9.40112 12.044 9.87475 12.233 10.3664 12.2288C10.858 12.2245 11.3283 12.0273 11.6759 11.6797C12.0235 11.332 12.2207 10.8617 12.225 10.3701C12.2293 9.87851 12.0403 9.40488 11.6987 9.05125L11.0575 8.41" stroke="white" stroke-width="0.75" stroke-linecap="round" stroke-linejoin="round"/>
</g>
<defs>
<clipPath id="clip0_930_18704">
<rect width="9" height="9" fill="white" transform="translate(4 13) rotate(-90)"/>
</clipPath>
</defs>
</svg>
