<svg width="20" height="24" viewBox="0 0 20 24" fill="none" xmlns="http://www.w3.org/2000/svg">
<path d="M19.875 5.50777L14.7161 0.375H3.35536C2.56838 0.375 1.92188 0.977719 1.92188 1.76466V9.10528C1.92188 9.10388 1.96983 9.09375 2.0017 9.09375H2.625V1.76466C2.625 1.3718 2.9625 1.07812 3.35536 1.07812H14.3983L14.625 1.2907V4.17788C14.625 4.96158 15.2623 5.57812 16.046 5.57812H18.9332L19.125 5.80289V22.1882C19.125 22.581 18.8521 22.9219 18.4592 22.9219H3.35536C2.9625 22.9219 2.625 22.581 2.625 22.1882V19.3594H2.0017C1.96983 19.3594 1.92188 19.3611 1.92188 19.3597V22.1881C1.92188 22.9751 2.56838 23.625 3.35536 23.625H18.4593C19.2462 23.625 19.875 22.9751 19.875 22.1882V5.50777ZM16.046 4.875C15.6532 4.875 15.3281 4.57073 15.3281 4.17788V2.07337V2.05973L18.1642 4.875H16.046Z" fill="#8C8C8C"/>
<path d="M15.4501 9.79688H1.42491C0.637969 9.79688 0 10.4348 0 11.2218V17.1845C0 17.9714 0.637969 18.6094 1.42491 18.6094H15.4501C16.237 18.6094 16.875 17.9714 16.875 17.1845V11.2218C16.875 10.4348 16.237 9.79688 15.4501 9.79688Z" fill="#8C8C8C"/>
<path d="M0.736328 15.4949C0.758301 16.5129 1.60059 17.1428 2.93726 17.1428C4.32153 17.1428 5.16382 16.4763 5.16382 15.374C5.16382 14.5354 4.69507 14.063 3.65137 13.8616L2.97021 13.7297C2.41357 13.6199 2.1792 13.4514 2.1792 13.1621C2.1792 12.8105 2.49048 12.5872 2.96289 12.5872C3.4353 12.5872 3.79053 12.8472 3.81982 13.2207H5.06128C5.03931 12.2429 4.18237 11.5728 2.94458 11.5728C1.67017 11.5728 0.842529 12.2502 0.842529 13.283C0.842529 14.1143 1.34058 14.6416 2.30737 14.8247L3.00317 14.9639C3.60742 15.0847 3.83813 15.2422 3.83813 15.5352C3.83813 15.8831 3.4939 16.1248 2.99219 16.1248C2.43555 16.1248 2.05103 15.8794 2.01807 15.4949H0.736328ZM9.12622 17L10.7852 11.7156H9.33496L8.34985 15.6047H8.28027L7.26587 11.7156H5.72412L7.427 17H9.12622ZM16.2747 14.7991V14.1179H14.0115V15.0408H14.9783L14.9746 15.1287C14.9417 15.6633 14.5168 16.0222 13.9053 16.0222C13.1362 16.0222 12.6418 15.385 12.6418 14.3376C12.6418 13.3086 13.0886 12.6934 13.8394 12.6934C14.3667 12.6934 14.7622 12.9753 14.894 13.4404H16.2197C16.0879 12.3235 15.1284 11.5728 13.8394 11.5728C12.2537 11.5728 11.2722 12.6348 11.2722 14.3523C11.2722 16.0918 12.25 17.1428 13.876 17.1428C15.3701 17.1428 16.2747 16.2529 16.2747 14.7991Z" fill="white"/>
</svg>
