<svg width="24" height="24" viewBox="0 0 24 24" fill="none" xmlns="http://www.w3.org/2000/svg">
<path d="M19 7.53223L15.2644 4H7.038C6.46814 4 6 4.41477 6 4.95632V10.0079C6 10.0079 6.03472 10 6.0578 10H6.50914V4.95632C6.50914 4.68597 6.75352 4.48387 7.038 4.48387H15.0343L15.1984 4.63016V6.61703C15.1984 7.15635 15.6599 7.58065 16.2274 7.58065H18.318L18.4569 7.73532V19.0112C18.4569 19.2816 18.2593 19.5161 17.9748 19.5161H7.038C6.75352 19.5161 6.50914 19.2815 6.50914 19.0112V17.0645H6.0578C6.03472 17.0645 6 17.0647 6 17.0647V19.0112C6 19.5528 6.46814 20 7.038 20H17.9749C18.5447 20 19 19.5528 19 19.0112V7.53223ZM16.2274 7.09677C15.9429 7.09677 15.7076 6.88739 15.7076 6.61703V5.16877V5.15939L17.7612 7.09677H16.2274Z" fill="#979797"/>
<path d="M11.5536 12.6831C11.1227 12.6831 10.9073 12.9936 10.9073 13.6146C10.9073 14.2298 11.1213 14.5374 11.5493 14.5374C11.7669 14.5374 11.9283 14.4627 12.0335 14.3132C12.1387 14.1638 12.1913 13.9309 12.1913 13.6146C12.1913 13.2969 12.138 13.0622 12.0314 12.9105C11.9247 12.7589 11.7655 12.6831 11.5536 12.6831Z" fill="#979797"/>
<path d="M15.8831 10.4481H6.00371C5.44939 10.4481 5 10.8975 5 11.4518V15.652C5 16.2063 5.44939 16.6557 6.00371 16.6557H15.8831C16.4374 16.6557 16.8868 16.2063 16.8868 15.652V11.4518C16.8868 10.8975 16.4374 10.4481 15.8831 10.4481Z" fill="#979797"/>
<path d="M10.123 15V12.3578H9.57007L8.77539 14.2822H8.74243L7.94775 12.3578H7.39478V15H7.83423V13.1415H7.85986L8.59045 14.8975H8.92737L9.65796 13.1415H9.68359V15H10.123ZM11.9156 12.2919C11.1484 12.2919 10.6632 12.8247 10.6632 13.678C10.6632 14.5312 11.1393 15.0659 11.9156 15.0659C12.6865 15.0659 13.1626 14.5294 13.1626 13.678C13.1626 12.8247 12.6829 12.2919 11.9156 12.2919ZM11.9156 12.7112C12.3844 12.7112 12.6792 13.0865 12.6792 13.678C12.6792 14.2676 12.3862 14.6466 11.9156 14.6466C11.4377 14.6466 11.1466 14.2676 11.1466 13.678C11.1466 13.0865 11.4451 12.7112 11.9156 12.7112ZM14.8875 15L15.8011 12.3578H15.2976L14.6384 14.4489H14.6073L13.9426 12.3578H13.4208L14.3436 15H14.8875Z" fill="white"/>
</svg>
