<svg width="24" height="24" viewBox="0 0 24 24" fill="none" xmlns="http://www.w3.org/2000/svg">
<path d="M17.4456 5.2278H6.55431C6.24851 5.2278 5.99974 5.47657 5.99974 5.78237V18.2179C5.99974 18.5235 6.24836 18.7724 6.55431 18.7724H17.4454C17.7512 18.7724 18 18.5237 18 18.2179V5.78237C18 5.47657 17.7514 5.2278 17.4456 5.2278ZM6.77238 14.6569L6.77268 6.00029H17.2269L17.2287 14.6569H6.77238Z" fill="#979797"/>
<path d="M15.6466 7.66461H13.6813V8.97481H15.6466V7.66461Z" fill="#979797"/>
<path d="M15.6466 9.67355H13.6813V10.9838H15.6466V9.67355Z" fill="#979797"/>
<path d="M15.6466 11.6825H13.6813V12.9925H15.6466V11.6825Z" fill="#979797"/>
<path d="M12.9826 11.6825H11.0173V12.9925H12.9826V11.6825Z" fill="#979797"/>
<path d="M10.3188 11.6825H8.35347V12.9925H10.3188V11.6825Z" fill="#979797"/>
<path d="M11.5898 9.2779L12.77 7.80185H11.5983L10.9961 8.59676L10.4244 7.80185H9.21084L10.413 9.31191L9.16132 10.9121H10.329L10.9949 10.0125L11.6547 10.9121H12.8734L11.5898 9.2779Z" fill="#979797"/>
<path d="M8.49353 18H9.00806L9.63062 17.0515H9.66174L10.2751 18H10.8208L9.94922 16.6798L10.8354 15.3578H10.3044L9.69287 16.3282H9.66174L9.05933 15.3578H8.50085L9.35779 16.6688L8.49353 18ZM13.0071 17.5862H11.7949V15.3578H11.3225V18H13.0071V17.5862ZM13.3953 17.2822C13.4191 17.762 13.8201 18.0659 14.4261 18.0659C15.067 18.0659 15.4644 17.7455 15.4644 17.231C15.4644 16.8281 15.2391 16.6047 14.7026 16.4839L14.3987 16.4143C14.0709 16.3392 13.9373 16.2349 13.9373 16.0573C13.9373 15.832 14.1387 15.6855 14.4426 15.6855C14.7319 15.6855 14.937 15.832 14.97 16.0646H15.4222C15.4003 15.6105 14.9993 15.2919 14.4445 15.2919C13.853 15.2919 13.4612 15.6105 13.4612 16.0902C13.4612 16.4839 13.6864 16.7219 14.1661 16.83L14.5085 16.9087C14.8473 16.9874 14.9919 17.0991 14.9919 17.2896C14.9919 17.5111 14.7667 17.6704 14.4554 17.6704C14.1204 17.6704 13.886 17.5184 13.8567 17.2822H13.3953Z" fill="white"/>
</svg>
