<svg width="24" height="24" viewBox="0 0 24 24" fill="none" xmlns="http://www.w3.org/2000/svg">
<path d="M14.25 4.5H7.5C6.6709 4.5 6 5.1709 6 6V18C6 18.8291 6.6709 19.5 7.5 19.5H16.5C17.3291 19.5 18 18.8291 18 18V8.25L14.25 4.5ZM10.125 16.0869V10.1631L14.5869 13.125L10.125 16.0869Z" fill="#FF995F"/>
<rect x="9" y="8" width="6" height="9" fill="#FF995F"/>
<path d="M11 11C11 10.4333 11.4333 10 12 10C12.5667 10 13 10.4333 13 11C13 11.5667 12.5667 12 12 12C11.4333 12 11 11.5667 11 11ZM12 12.6667C10.4667 12.6667 10 13.7667 10 13.7667V14.3333H14V13.7667C14 13.7667 13.5333 12.6667 12 12.6667Z" fill="white"/>
<path d="M14.1667 11.6667C14.6269 11.6667 15 11.2936 15 10.8333C15 10.3731 14.6269 10 14.1667 10C13.7064 10 13.3333 10.3731 13.3333 10.8333C13.3333 11.2936 13.7064 11.6667 14.1667 11.6667Z" fill="white"/>
<path d="M14.1667 12.3333C13.7667 12.3333 13.4667 12.4333 13.2333 12.6C14 12.9667 14.3 13.6 14.3 13.6667V13.7H15.6667V13.2667C15.6667 13.2333 15.3 12.3333 14.1667 12.3333Z" fill="white"/>
<path d="M14.1667 11.6667C14.6269 11.6667 15 11.2936 15 10.8333C15 10.3731 14.6269 10 14.1667 10C13.7064 10 13.3333 10.3731 13.3333 10.8333C13.3333 11.2936 13.7064 11.6667 14.1667 11.6667Z" fill="white"/>
<path d="M14.1667 12.3333C13.7667 12.3333 13.4667 12.4333 13.2333 12.6C14 12.9667 14.3 13.6 14.3 13.6667V13.7H15.6667V13.2667C15.6667 13.2333 15.3 12.3333 14.1667 12.3333Z" fill="white"/>
<path d="M9.83333 11.6667C10.2936 11.6667 10.6667 11.2936 10.6667 10.8333C10.6667 10.3731 10.2936 10 9.83333 10C9.3731 10 9 10.3731 9 10.8333C9 11.2936 9.3731 11.6667 9.83333 11.6667Z" fill="white"/>
<path d="M9.83333 12.3333C10.2333 12.3333 10.5333 12.4333 10.7667 12.6C9.99999 12.9667 9.69999 13.6 9.69999 13.6667V13.7H8.33333V13.2667C8.33333 13.2333 8.69999 12.3333 9.83333 12.3333Z" fill="white"/>
</svg>
