<svg width="24" height="25" viewBox="0 0 24 25" fill="none" xmlns="http://www.w3.org/2000/svg">
<path d="M15 16.2207L11 20.276H19C20.1 20.276 21 19.3636 21 18.2484C21 17.1331 20.1 16.2207 19 16.2207H15Z" fill="black"/>
<path d="M12.06 7.28906L3.29 16.1803C3.11 16.3628 3 16.6264 3 16.89V19.2623C3 19.8199 3.45 20.2762 4 20.2762H6.34C6.61 20.2762 6.86 20.1646 7.05 19.9821L15.82 11.0909L12.06 7.28906Z" fill="black"/>
<path d="M18.71 8.15112C19.1 7.75573 19.1 7.11702 18.71 6.72163L16.37 4.34928C15.98 3.95389 15.35 3.95389 14.96 4.34928L13.13 6.20458L16.88 10.0064L18.71 8.15112Z" fill="black"/>
</svg>
