<svg width="20" height="20" viewBox="0 0 20 20" fill="none" xmlns="http://www.w3.org/2000/svg">
<rect width="20" height="20" fill="white"/>
<path d="M5.83317 18.3333H3.33317C2.89114 18.3333 2.46722 18.1577 2.15466 17.8452C1.8421 17.5326 1.6665 17.1087 1.6665 16.6667V10.8333C1.6665 10.3913 1.8421 9.96737 2.15466 9.65481C2.46722 9.34225 2.89114 9.16666 3.33317 9.16666H5.83317M11.6665 7.49999V4.16666C11.6665 3.50362 11.4031 2.86773 10.9343 2.39889C10.4654 1.93005 9.82954 1.66666 9.1665 1.66666L5.83317 9.16666V18.3333H15.2332C15.6351 18.3379 16.0252 18.197 16.3314 17.9367C16.6377 17.6763 16.8396 17.3141 16.8998 16.9167L18.0498 9.41666C18.0861 9.17779 18.07 8.93389 18.0026 8.70187C17.9353 8.46984 17.8183 8.25524 17.6597 8.07292C17.5012 7.8906 17.3049 7.74493 17.0845 7.646C16.8641 7.54708 16.6248 7.49725 16.3832 7.49999H11.6665Z" stroke="#4F4F4F" stroke-linecap="round" stroke-linejoin="round"/>
</svg>
