<svg width="42" height="25" viewBox="0 0 42 25" fill="none" xmlns="http://www.w3.org/2000/svg">
<rect y="3" width="42" height="18" rx="5" fill="#F24E1E"/>
<path d="M10.1431 16V10.4946H10.229L14.209 16H15.2939V8.24951H14.123V13.7549H14.0371L10.0571 8.24951H8.97217V16H10.1431ZM22.1636 14.9043H18.4468V12.5786H21.9648V11.5366H18.4468V9.34521H22.1636V8.24951H17.2437V16H22.1636V14.9043ZM28.2974 10.312H28.3726L30.0376 16H31.1709L33.2656 8.24951H32.0142L30.5962 14.1846H30.521L28.8936 8.24951H27.7764L26.1597 14.1846H26.0845L24.6611 8.24951H23.4097L25.499 16H26.6377L28.2974 10.312Z" fill="white"/>
</svg>
