<svg width="48" height="48" viewBox="0 0 48 48" fill="none" xmlns="http://www.w3.org/2000/svg">
<path d="M24 44C21.3 44 18.7 43.5 16.2 42.4C13.8 41.4 11.6 39.9 9.8 38.1C8 36.3 6.6 34.2 5.5 31.7C4.4 29.2 4 26.7 4 24C4 21.2 4.5 18.6 5.6 16.2C6.7 13.8 8.1 11.7 9.9 9.8C11.7 7.9 13.8 6.6 16.3 5.5C18.8 4.4 21.3 4 24 4C26.8 4 29.4 4.5 31.8 5.6C34.2 6.7 36.4 8.1 38.1 9.9C39.9 11.7 41.3 13.8 42.4 16.3C43.5 18.7 44 21.3 44 24.1C44 26.8 43.5 29.4 42.4 31.9C41.4 34.3 39.9 36.5 38.1 38.3C36.3 40.1 34.2 41.5 31.7 42.6C29.4 43.5 26.8 44 24 44Z" fill="#043293"/>
<path d="M24 44.5C21.2 44.5 18.5 43.9 16 42.9C13.6 41.9 11.3 40.4 9.4 38.5C7.6 36.7 6.1 34.5 5 31.9C4 29.5 3.5 27 3.5 24C3.5 21 4 18.4 5.1 16C6.2 13.5 7.7 11.4 9.5 9.5C11.2 7.7 13.2 6.3 16.1 5.1C18.5 4 21 3.5 24 3.5C27 3.5 29.6 4 32 5.1C34.7 6.3 36.8 7.8 38.5 9.5C40.3 11.3 41.8 13.5 42.9 16C44 18.4 44.5 21 44.5 24C44.5 26.8 43.9 29.5 42.9 32C41.9 34.4 40.4 36.7 38.5 38.6C36.7 40.4 34.5 41.9 31.9 43C29.5 44 26.8 44.5 24 44.5ZM24 4.5C21.1 4.5 18.8 5 16.5 6C13.8 7.2 11.9 8.5 10.3 10.2C8.5 12 7.1 14 6.1 16.4C5.1 18.7 4.5 21.2 4.5 24C4.5 26.9 5 29.2 6 31.5C7 34 8.4 36 10.2 37.7C12 39.5 14.1 40.9 16.4 41.9C18.8 43 21.3 43.5 24 43.5C26.7 43.5 29.2 43 31.5 42.1C33.9 41 36 39.7 37.7 37.9C39.5 36.1 40.9 34 41.9 31.7C43 29.3 43.5 26.8 43.5 24.1C43.5 21.3 43 18.8 41.9 16.5C40.8 14 39.4 12 37.7 10.2C36.2 8.6 34.1 7.2 31.5 6C29.3 5 26.8 4.5 24 4.5Z" fill="white"/>
<path d="M19.1001 32.5L32.5001 24L19.1001 15.5V32.5Z" fill="white"/>
</svg>
