<svg width="20" height="20" viewBox="0 0 20 20" fill="none" xmlns="http://www.w3.org/2000/svg">
<rect width="20" height="20" fill="white"/>
<path d="M19.0969 15.2091L14.6118 13.1402C14.5399 13.1073 14.48 13.0529 14.4403 12.9846C14.4007 12.9162 14.3832 12.8372 14.3904 12.7585C14.8141 6.39531 15.2454 8.68559 12.2566 1.43302C12.1751 1.23505 12.0435 1.0617 11.8747 0.930041C11.7059 0.798378 11.5058 0.712935 11.2939 0.682121C11.0821 0.651306 10.8658 0.676183 10.6665 0.754302C10.4672 0.832422 10.2917 0.961092 10.1572 1.12765C10.0227 0.961092 9.84716 0.832422 9.64784 0.754302C9.44853 0.676183 9.23231 0.651306 9.02046 0.682121C8.80861 0.712935 8.60844 0.798378 8.43964 0.930041C8.27084 1.0617 8.13923 1.23505 8.05776 1.43302L5.95833 6.57471C5.4621 7.77711 5.64533 8.34587 5.93925 12.7699C5.96597 13.1326 5.9736 13.0219 1.23271 15.2091C1.15429 15.2447 1.09021 15.3058 1.05089 15.3824C1.01157 15.459 0.999322 15.5467 1.01613 15.6311C1.03293 15.7156 1.07781 15.7919 1.14346 15.8477C1.20911 15.9034 1.29169 15.9353 1.37776 15.9382C1.49991 15.9382 1.12201 16.0947 6.02322 13.8311C6.23368 13.7343 6.40982 13.5759 6.5284 13.3769C6.64699 13.1779 6.70243 12.9477 6.68741 12.7165L6.3973 8.39931C6.32096 7.25416 6.6416 6.87245 8.76393 1.72694C8.81099 1.62614 8.8918 1.54495 8.99237 1.49741C9.09295 1.44987 9.20698 1.43897 9.31474 1.46659C9.4225 1.49421 9.51723 1.55861 9.58254 1.64867C9.64785 1.73873 9.67964 1.84878 9.67241 1.95979L9.09221 7.15873C8.75707 7.1857 8.44453 7.3384 8.21727 7.58618C7.99001 7.83397 7.86486 8.15852 7.8669 8.49473V10.9759C7.8669 11.0771 7.90712 11.1742 7.9787 11.2458C8.05029 11.3174 8.14738 11.3576 8.24862 11.3576C8.34985 11.3576 8.44695 11.3174 8.51853 11.2458C8.59012 11.1742 8.63033 11.0771 8.63033 10.9759V8.49473C8.63033 8.34288 8.69066 8.19724 8.79803 8.08987C8.90541 7.98249 9.05105 7.92216 9.2029 7.92216C9.35476 7.92216 9.50039 7.98249 9.60777 8.08987C9.71515 8.19724 9.77547 8.34288 9.77547 8.49473V13.7204C9.7737 13.9982 9.71129 14.2723 9.59262 14.5235C9.47394 14.7747 9.30186 14.9969 9.08839 15.1747L5.33232 18.3048C5.29372 18.3369 5.26182 18.3762 5.23844 18.4207C5.21505 18.4651 5.20065 18.5136 5.19604 18.5636C5.19143 18.6136 5.19671 18.664 5.21158 18.7119C5.22645 18.7599 5.25062 18.8044 5.2827 18.843C5.31478 18.8816 5.35415 18.9135 5.39856 18.9369C5.44297 18.9603 5.49155 18.9747 5.54153 18.9793C5.59151 18.9839 5.6419 18.9786 5.68984 18.9637C5.73778 18.9489 5.78232 18.9247 5.82091 18.8926C9.83655 15.5564 9.84418 15.6175 10.1572 15.0946C10.5007 15.6671 10.6038 15.6633 14.4935 18.9117C14.5714 18.9765 14.6719 19.0077 14.7728 18.9984C14.8738 18.9891 14.9669 18.94 15.0317 18.8621C15.0965 18.7841 15.1276 18.6836 15.1183 18.5827C15.109 18.4818 15.06 18.3887 14.9821 18.3239L11.226 15.1747C11.0125 14.9969 10.8404 14.7747 10.7218 14.5235C10.6031 14.2723 10.5407 13.9982 10.5389 13.7204V8.49473C10.5389 8.34288 10.5992 8.19724 10.7066 8.08987C10.814 7.98249 10.9596 7.92216 11.1115 7.92216C11.2633 7.92216 11.409 7.98249 11.5163 8.08987C11.6237 8.19724 11.684 8.34288 11.684 8.49473V10.9759C11.684 11.0771 11.7243 11.1742 11.7958 11.2458C11.8674 11.3174 11.9645 11.3576 12.0658 11.3576C12.167 11.3576 12.2641 11.3174 12.3357 11.2458C12.4073 11.1742 12.4475 11.0771 12.4475 10.9759V8.49473C12.4495 8.15852 12.3244 7.83397 12.0971 7.58618C11.8699 7.3384 11.5573 7.1857 11.2222 7.15873L10.642 1.95979C10.6347 1.84878 10.6665 1.73873 10.7318 1.64867C10.7971 1.55861 10.8919 1.49421 10.9996 1.46659C11.1074 1.43897 11.2214 1.44987 11.322 1.49741C11.4226 1.54495 11.5034 1.62614 11.5504 1.72694C13.7453 7.07094 13.9858 7.33432 13.9171 8.39931L13.627 12.7165C13.612 12.9477 13.6674 13.1779 13.786 13.3769C13.9046 13.5759 14.0807 13.7343 14.2912 13.8311C19.1122 16.0565 18.8145 15.9382 18.9366 15.9382C19.024 15.9386 19.1088 15.9091 19.1771 15.8546C19.2453 15.8 19.2927 15.7237 19.3115 15.6384C19.3303 15.5531 19.3192 15.464 19.2801 15.3858C19.2411 15.3077 19.1764 15.2453 19.0969 15.2091ZM9.84418 7.33051L10.1572 4.50582L10.4702 7.33051C10.3542 7.39107 10.2485 7.46967 10.1572 7.56335C10.0658 7.46967 9.96018 7.39107 9.84418 7.33051Z" fill="#4F4F4F"/>
</svg>
