<svg width="24" height="24" viewBox="0 0 24 24" fill="none" xmlns="http://www.w3.org/2000/svg">
<path d="M17.3987 14.7273C16.9242 14.7271 16.4543 14.822 16.0164 15.0067C15.5785 15.1913 15.1812 15.4619 14.8475 15.8028L10.052 12.9793C10.2512 12.3419 10.2512 11.658 10.052 11.0207L14.8447 8.19429C15.431 8.79254 16.2047 9.16661 17.0337 9.25266C17.8627 9.33872 18.6955 9.13142 19.39 8.66615C20.0845 8.20088 20.5977 7.50649 20.842 6.7015C21.0862 5.89651 21.0464 5.03082 20.7292 4.2522C20.4121 3.47359 19.8374 2.83031 19.1031 2.43218C18.3688 2.03404 17.5206 1.90573 16.7031 2.06914C15.8856 2.23256 15.1496 2.67756 14.6207 3.32821C14.0918 3.97885 13.8028 4.79479 13.803 5.63676C13.8075 5.96911 13.8578 6.2992 13.9526 6.61749L9.15715 9.44388C8.6555 8.93135 8.01438 8.58104 7.31525 8.43746C6.61612 8.29388 5.89053 8.36351 5.23065 8.63751C4.57078 8.9115 4.00641 9.37749 3.60923 9.97628C3.21205 10.5751 3 11.2796 3 12.0005C3 12.7213 3.21205 13.4258 3.60923 14.0246C4.00641 14.6234 4.57078 15.0894 5.23065 15.3634C5.89053 15.6374 6.61612 15.707 7.31525 15.5634C8.01438 15.4199 8.6555 15.0696 9.15715 14.557L13.9517 17.3806C13.8561 17.6997 13.8054 18.0308 13.8011 18.3641C13.8011 19.0832 14.0121 19.7862 14.4076 20.3841C14.803 20.982 15.365 21.448 16.0225 21.7232C16.6801 21.9984 17.4036 22.0704 18.1016 21.9301C18.7997 21.7898 19.4409 21.4436 19.9441 20.9351C20.4474 20.4266 20.7901 19.7788 20.929 19.0735C21.0678 18.3682 20.9965 17.6371 20.7242 16.9728C20.4518 16.3084 19.9906 15.7406 19.3988 15.341C18.8071 14.9415 18.1113 14.7283 17.3996 14.7283M17.3996 3.82075C17.7555 3.82075 18.1033 3.92737 18.3992 4.12713C18.6951 4.32688 18.9257 4.6108 19.0619 4.94299C19.1981 5.27517 19.2337 5.64069 19.1643 5.99334C19.0949 6.34598 18.9235 6.6699 18.6719 6.92414C18.4202 7.17838 18.0997 7.35152 17.7506 7.42167C17.4016 7.49181 17.0398 7.45581 16.7111 7.31822C16.3823 7.18062 16.1013 6.94762 15.9036 6.64866C15.7059 6.3497 15.6003 5.99823 15.6003 5.63868C15.6003 5.15653 15.7899 4.69414 16.1274 4.35321C16.4648 4.01228 16.9224 3.82075 17.3996 3.82075ZM6.60222 13.8184C6.24636 13.8184 5.89847 13.7118 5.60259 13.512C5.3067 13.3122 5.07611 13.0283 4.93993 12.6961C4.80375 12.364 4.76811 11.9984 4.83754 11.6458C4.90696 11.2932 5.07832 10.9692 5.32995 10.715C5.58158 10.4607 5.90219 10.2876 6.25121 10.2175C6.60023 10.1473 6.96197 10.1833 7.29074 10.3209C7.61951 10.4585 7.90052 10.6915 8.09822 10.9905C8.29593 11.2894 8.40146 11.6409 8.40146 12.0005C8.40146 12.4826 8.21191 12.945 7.87448 13.2859C7.53706 13.6268 7.07941 13.8184 6.60222 13.8184ZM17.3977 20.1821C16.9205 20.1821 16.4629 19.9905 16.1255 19.6496C15.788 19.3087 15.5985 18.8463 15.5985 18.3641C15.5999 18.0459 15.6852 17.7338 15.8456 17.46L15.8541 17.4494V17.438C16.0148 17.1638 16.244 16.9371 16.5187 16.7806C16.7934 16.6241 17.104 16.5433 17.4193 16.5463C17.7346 16.5493 18.0437 16.636 18.3154 16.7977C18.5871 16.9594 18.812 17.1904 18.9676 17.4676C19.1231 17.7448 19.2038 18.0584 19.2016 18.377C19.1993 18.6956 19.1143 19.008 18.9549 19.283C18.7955 19.5579 18.5674 19.7857 18.2935 19.9435C18.0195 20.1013 17.7093 20.1836 17.3939 20.1821" fill="#8C8C8C"/>
</svg>
