<svg width="16" height="16" viewBox="0 0 16 16" fill="none" xmlns="http://www.w3.org/2000/svg">
<path d="M10.25 0.5H3.5C2.6709 0.5 2 1.1709 2 2V14C2 14.8291 2.6709 15.5 3.5 15.5H12.5C13.3291 15.5 14 14.8291 14 14V4.25L10.25 0.5ZM6.125 12.0869V6.16309L10.5869 9.125L6.125 12.0869Z" fill="#00CEEA"/>
<rect x="5" y="5" width="7" height="7" fill="#00CEEA"/>
<path d="M10.4361 6.375H5.56387C5.45951 6.375 5.375 6.4596 5.375 6.56377V8.06123C5.375 8.1654 5.45951 8.25 5.56387 8.25H5.83935C5.91681 8.25 5.9863 8.20275 6.01486 8.13081C6.27881 7.46612 6.39993 7.14881 7.25083 7.11255V10.4282C7.25083 10.7388 7.11423 10.8252 6.86585 10.8759C6.75901 10.8977 6.56135 10.9208 6.48234 10.9285C6.38566 10.938 6.31378 11.0193 6.31378 11.1163V11.436C6.31378 11.5404 6.39655 11.625 6.50083 11.625H9.49918C9.60345 11.625 9.68622 11.5404 9.68622 11.436V11.1163C9.68622 11.0193 9.61435 10.938 9.51766 10.9285C9.43865 10.9208 9.24099 10.8977 9.13415 10.8759C8.88577 10.8252 8.74918 10.7388 8.74918 10.4282V7.11255C9.60007 7.14881 9.72119 7.46612 9.98523 8.13081C10.0138 8.20275 10.0833 8.25 10.1607 8.25H10.4361C10.5404 8.25 10.625 8.1654 10.625 8.06123V6.56377C10.625 6.4596 10.5404 6.375 10.4361 6.375Z" fill="white"/>
</svg>
