<svg width="18" height="18" viewBox="0 0 18 18" fill="none" xmlns="http://www.w3.org/2000/svg">
<path d="M8.12005 5.77314C7.87617 5.59046 7.46725 5.58002 7.20198 5.74753C7.19992 5.74882 7.19785 5.75013 7.19576 5.75146C6.94922 5.90686 6.80363 6.12997 6.79647 6.36336L6.69643 10.369C6.69332 10.5001 6.54012 10.6046 6.35345 10.6046C6.35167 10.6046 6.34944 10.6046 6.34765 10.6046C6.15827 10.6021 6.00733 10.4932 6.01045 10.3609L6.11048 6.35433C6.12166 5.98799 6.34989 5.63913 6.73619 5.39542C7.03141 5.20935 7.85821 5.10443 8.23718 5.08169L8.65394 0.48889C8.68385 0.298859 8.52575 0.109758 8.26807 0.0342529C8.1104 -0.0119378 7.93802 -0.0113039 7.78125 0.0355008C7.62271 0.0826223 7.5008 0.170923 7.4387 0.283884L4.85464 4.94859C3.94444 6.59897 3.48308 8.33328 3.48308 10.1032V12.1205C3.48308 12.3964 3.35091 12.6688 3.11108 12.8872L0 15.7268L4.15524 18L7.42888 15.8185C8.22162 15.0743 8.65751 14.1538 8.65705 13.2242L8.65304 7.11477C8.65471 6.35342 8.37971 5.96767 8.12005 5.77314Z" fill="#E0E0E0"/>
<path d="M14.8886 12.8876C14.6473 12.6674 14.5165 12.3977 14.5165 12.1204V10.1031C14.5165 8.33316 14.0552 6.59885 13.1445 4.94815L10.5614 0.284081C10.4988 0.170803 10.3769 0.0825023 10.2184 0.0353808C10.062 -0.0114238 9.88877 -0.0117408 9.73156 0.0341329C9.4743 0.109638 9.31575 0.298739 9.34659 0.494395L9.76282 5.08052C10.1413 5.10237 10.9679 5.20875 11.2639 5.3953C11.6502 5.63901 11.8784 5.98787 11.8896 6.35326L11.9892 10.3608C11.9923 10.4931 11.8413 10.6023 11.652 10.6045C11.6502 10.6045 11.648 10.6045 11.6462 10.6045C11.4595 10.6045 11.3063 10.5 11.3032 10.3689L11.2036 6.36231C11.1964 6.12985 11.0508 5.90674 10.8043 5.75134C10.7526 5.71869 10.6979 5.68997 10.6406 5.66527C10.3681 5.5476 10.004 5.59914 9.80701 5.77564C9.58028 5.9788 9.34518 6.36916 9.34659 7.11434L9.343 13.2241C9.34212 14.1533 9.77801 15.0735 10.5707 15.8184L13.8444 17.9999L18.0001 15.7267L14.8886 12.8876Z" fill="#E0E0E0"/>
</svg>
