<svg width="32" height="32" viewBox="0 0 32 32" fill="none" xmlns="http://www.w3.org/2000/svg">
<path d="M23.0382 9.57227H9.0191C8.0553 9.57227 7.27549 10.3437 7.27549 11.2866L7.26672 21.5723C7.26672 22.5151 8.0553 23.2866 9.0191 23.2866H23.0382C24.002 23.2866 24.7905 22.5151 24.7905 21.5723V11.2866C24.7905 10.3437 24.002 9.57227 23.0382 9.57227ZM22.6877 13.2151L16.493 17.0037C16.2126 17.1751 15.8446 17.1751 15.5642 17.0037L9.36958 13.2151C9.15053 13.078 9.0191 12.8466 9.0191 12.598C9.0191 12.0237 9.65872 11.6808 10.1582 11.9808L16.0286 15.5723L21.8991 11.9808C22.3985 11.6808 23.0382 12.0237 23.0382 12.598C23.0382 12.8466 22.9067 13.078 22.6877 13.2151Z" fill="white"/>
</svg>
