<svg width="33" height="31" viewBox="0 0 33 31" fill="none" xmlns="http://www.w3.org/2000/svg">
<path d="M19.8612 14.1875H24.3876C24.8153 14.1875 25.1619 14.5287 25.1619 14.9495V19.0071C25.1619 20.5539 23.8878 21.8077 22.3162 21.8077H22.3027C20.731 21.808 19.4568 20.5542 19.4565 19.0075C19.4565 19.0073 19.4565 19.0073 19.4565 19.0071V14.5858C19.4565 14.3658 19.6377 14.1875 19.8612 14.1875Z" fill="#B7BBE5"/>
<path d="M22.9206 13.385C23.9334 13.385 24.7544 12.577 24.7544 11.5802C24.7544 10.5834 23.9334 9.77539 22.9206 9.77539C21.9077 9.77539 21.0867 10.5834 21.0867 11.5802C21.0867 12.577 21.9077 13.385 22.9206 13.385Z" fill="#B7BBE5"/>
<path d="M17.2149 13.3858C18.6779 13.3858 19.8639 12.2186 19.8639 10.7788C19.8639 9.33905 18.6779 8.17188 17.2149 8.17188C15.7519 8.17188 14.5659 9.33905 14.5659 10.7788C14.5659 12.2186 15.7519 13.3858 17.2149 13.3858Z" fill="white"/>
<path d="M20.7473 14.1875H13.2756C12.8531 14.1978 12.5188 14.5429 12.5286 14.9588V19.5867C12.4696 22.0822 14.4758 24.1531 17.0115 24.2141C19.5472 24.1531 21.5533 22.0822 21.4944 19.5867V14.9588C21.5041 14.5429 21.1699 14.1978 20.7473 14.1875Z" fill="white"/>
<path opacity="0.1" d="M17.4189 14.1875V20.6728C17.4169 20.9702 17.2337 21.2373 16.9543 21.3506C16.8653 21.3877 16.7697 21.4067 16.6731 21.4068H12.8871C12.8341 21.2745 12.7852 21.1421 12.7445 21.0057C12.6019 20.5455 12.5291 20.0671 12.5285 19.586V14.9575C12.5187 14.5423 12.8525 14.1978 13.2743 14.1875H17.4189Z" fill="#565EC2"/>
<path opacity="0.2" d="M17.0114 14.1875V21.0738C17.0114 21.1689 16.992 21.263 16.9543 21.3506C16.8393 21.6256 16.5678 21.8058 16.2656 21.8078H13.0787C13.0094 21.6755 12.9442 21.5431 12.8871 21.4068C12.8301 21.2704 12.7852 21.1421 12.7445 21.0057C12.6019 20.5455 12.5291 20.0671 12.5285 19.586V14.9575C12.5187 14.5423 12.8525 14.1978 13.2743 14.1875H17.0114Z" fill="#565EC2"/>
<path opacity="0.2" d="M17.0114 14.1875V20.2717C17.0083 20.6757 16.6762 21.0026 16.2657 21.0056H12.7445C12.6019 20.5454 12.5291 20.0669 12.5285 19.5858V14.9575C12.5187 14.5423 12.8525 14.1978 13.2743 14.1875H17.0114Z" fill="#565EC2"/>
<path opacity="0.2" d="M16.6038 14.1875V20.2717C16.6007 20.6757 16.2686 21.0026 15.8581 21.0056H12.7445C12.6019 20.5454 12.5291 20.0669 12.5285 19.5858V14.9575C12.5187 14.5423 12.8525 14.1978 13.2743 14.1875H16.6038Z" fill="#565EC2"/>
<path opacity="0.1" d="M17.4191 12.1147V13.3781C17.3498 13.3821 17.2846 13.3861 17.2153 13.3861C17.1459 13.3861 17.0808 13.3821 17.0115 13.3781C16.8739 13.3691 16.7375 13.3476 16.604 13.314C15.7787 13.1216 15.0969 12.552 14.7701 11.7819C14.7139 11.6526 14.6702 11.5183 14.6396 11.3809H16.6732C17.0845 11.3823 17.4175 11.71 17.4191 12.1147Z" fill="#565EC2"/>
<path opacity="0.2" d="M17.0114 12.5151V13.3774C16.8738 13.3685 16.7374 13.347 16.6039 13.3133C15.7787 13.1209 15.0969 12.5514 14.77 11.7812H16.2657C16.6769 11.7827 17.0098 12.1104 17.0114 12.5151Z" fill="#565EC2"/>
<path opacity="0.2" d="M17.0114 12.5151V13.3774C16.8738 13.3685 16.7374 13.347 16.6039 13.3133C15.7787 13.1209 15.0969 12.5514 14.77 11.7812H16.2657C16.6769 11.7827 17.0098 12.1104 17.0114 12.5151Z" fill="#565EC2"/>
<path opacity="0.2" d="M16.6039 12.5152V13.3133C15.7787 13.1209 15.0969 12.5514 14.77 11.7812H15.8582C16.2694 11.7828 16.6023 12.1105 16.6039 12.5152Z" fill="#565EC2"/>
<path d="M8.38518 11.7812H15.8568C16.2694 11.7812 16.6038 12.1104 16.6038 12.5164V19.8695C16.6038 20.2755 16.2694 20.6047 15.8568 20.6047H8.38518C7.97265 20.6047 7.63818 20.2755 7.63818 19.8695V12.5164C7.63818 12.1104 7.97265 11.7812 8.38518 11.7812Z" fill="white"/>
<path d="M14.0869 14.5792H12.5933V18.5819H11.6417V14.5792H10.155V13.8027H14.0869V14.5792Z" fill="#565EC2"/>
</svg>
