<svg width="694" height="288" viewBox="0 0 694 288" fill="none" xmlns="http://www.w3.org/2000/svg">
<g clip-path="url(#clip0)">
<path d="M4.29641 190.432C3.16028 190.432 2.07041 189.983 1.26523 189.181C0.460045 188.38 0.00511847 187.293 -2.23648e-05 186.157V104.32C-0.0276697 103.739 0.0628457 103.159 0.266043 102.615C0.46924 102.07 0.78089 101.573 1.18212 101.152C1.58335 100.732 2.06581 100.397 2.60029 100.168C3.13476 99.9392 3.71013 99.8213 4.29155 99.8213C4.87297 99.8213 5.44833 99.9392 5.98281 100.168C6.51729 100.397 6.99975 100.732 7.40098 101.152C7.80221 101.573 8.11386 102.07 8.31705 102.615C8.52025 103.159 8.61077 103.739 8.58312 104.32V186.157C8.57799 187.291 8.1244 188.377 7.32132 189.178C6.51824 189.979 5.43085 190.43 4.29641 190.432Z" fill="#0364E6"/>
<path d="M38.5611 169.31C37.425 169.308 36.3361 168.855 35.5328 168.052C34.7294 167.249 34.277 166.161 34.2744 165.025V118.136C34.2467 117.556 34.3373 116.976 34.5405 116.431C34.7437 115.887 35.0553 115.389 35.4565 114.969C35.8578 114.548 36.3402 114.213 36.8747 113.984C37.4092 113.756 37.9845 113.638 38.566 113.638C39.1474 113.638 39.7227 113.756 40.2572 113.984C40.7917 114.213 41.2742 114.548 41.6754 114.969C42.0766 115.389 42.3883 115.887 42.5915 116.431C42.7947 116.976 42.8852 117.556 42.8575 118.136V165.025C42.855 166.163 42.4012 167.253 41.5957 168.056C40.7903 168.859 39.6989 169.31 38.5611 169.31Z" fill="#0364E6"/>
<path d="M72.835 244.055C71.6955 244.055 70.6027 243.602 69.797 242.797C68.9912 241.992 68.5386 240.899 68.5386 239.76V55.8472C68.5386 54.7082 68.9912 53.6159 69.797 52.8105C70.6027 52.0052 71.6955 51.5527 72.835 51.5527C73.9745 51.5527 75.0673 52.0052 75.873 52.8105C76.6788 53.6159 77.1314 54.7082 77.1314 55.8472V239.76C77.1314 240.899 76.6788 241.992 75.873 242.797C75.0673 243.602 73.9745 244.055 72.835 244.055Z" fill="#0364E6"/>
<path d="M107.109 201.295C105.972 201.295 104.88 200.844 104.075 200.041C103.269 199.237 102.816 198.148 102.813 197.01V4.29455C102.785 3.71406 102.876 3.134 103.079 2.5895C103.282 2.045 103.594 1.54738 103.995 1.12679C104.396 0.706199 104.879 0.371383 105.413 0.142618C105.948 -0.0861473 106.523 -0.204102 107.105 -0.204102C107.686 -0.204102 108.261 -0.0861473 108.796 0.142618C109.33 0.371383 109.813 0.706199 110.214 1.12679C110.615 1.54738 110.927 2.045 111.13 2.5895C111.333 3.134 111.424 3.71406 111.396 4.29455V197.01C111.394 198.146 110.941 199.234 110.138 200.037C109.334 200.84 108.246 201.292 107.109 201.295Z" fill="#0364E6"/>
<path d="M141.374 288C140.808 288.003 140.247 287.893 139.724 287.679C139.2 287.464 138.724 287.148 138.323 286.749C137.922 286.35 137.604 285.876 137.387 285.354C137.17 284.831 137.058 284.271 137.058 283.706V93.4674C137.03 92.8869 137.121 92.3069 137.324 91.7624C137.527 91.2178 137.839 90.7202 138.24 90.2996C138.641 89.879 139.124 89.5442 139.658 89.3155C140.193 89.0867 140.768 88.9688 141.35 88.9688C141.931 88.9688 142.506 89.0867 143.041 89.3155C143.575 89.5442 144.058 89.879 144.459 90.2996C144.86 90.7202 145.172 91.2178 145.375 91.7624C145.578 92.3069 145.669 92.8869 145.641 93.4674V283.706C145.641 284.84 145.193 285.927 144.393 286.732C143.594 287.536 142.508 287.992 141.374 288Z" fill="#0364E6"/>
<path d="M175.648 251.905C174.509 251.905 173.416 251.453 172.61 250.647C171.804 249.842 171.352 248.75 171.352 247.611V38.9707C171.352 37.8318 171.804 36.7395 172.61 35.9341C173.416 35.1287 174.509 34.6763 175.648 34.6763C176.787 34.6763 177.88 35.1287 178.686 35.9341C179.492 36.7395 179.944 37.8318 179.944 38.9707V247.611C179.942 248.749 179.488 249.84 178.683 250.645C177.878 251.449 176.787 251.903 175.648 251.905Z" fill="#0364E6"/>
<path d="M209.961 169.31C208.824 169.31 207.732 168.859 206.927 168.056C206.121 167.252 205.668 166.163 205.665 165.025V110.762C205.637 110.181 205.728 109.601 205.931 109.057C206.134 108.512 206.446 108.015 206.847 107.594C207.248 107.173 207.731 106.839 208.265 106.61C208.8 106.381 209.375 106.263 209.957 106.263C210.538 106.263 211.113 106.381 211.648 106.61C212.182 106.839 212.665 107.173 213.066 107.594C213.467 108.015 213.779 108.512 213.982 109.057C214.185 109.601 214.276 110.181 214.248 110.762V165.016C214.248 166.153 213.797 167.244 212.993 168.049C212.19 168.854 211.099 169.308 209.961 169.31Z" fill="#0364E6"/>
<path d="M244.187 190.432C243.051 190.43 241.962 189.978 241.159 189.175C240.355 188.372 239.903 187.283 239.9 186.148V104.32C239.873 103.739 239.963 103.159 240.166 102.615C240.37 102.07 240.681 101.573 241.083 101.152C241.484 100.732 241.966 100.397 242.501 100.168C243.035 99.9392 243.611 99.8213 244.192 99.8213C244.773 99.8213 245.349 99.9392 245.883 100.168C246.418 100.397 246.9 100.732 247.301 101.152C247.703 101.573 248.014 102.07 248.217 102.615C248.421 103.159 248.511 103.739 248.484 104.32V186.157C248.478 187.293 248.023 188.38 247.218 189.181C246.413 189.983 245.323 190.432 244.187 190.432Z" fill="#0364E6"/>
<path d="M278.461 169.31C277.324 169.31 276.232 168.859 275.427 168.056C274.621 167.252 274.168 166.163 274.165 165.025V118.136C274.165 116.997 274.618 115.905 275.423 115.1C276.229 114.294 277.322 113.842 278.461 113.842C279.601 113.842 280.694 114.294 281.499 115.1C282.305 115.905 282.758 116.997 282.758 118.136V165.025C282.753 166.162 282.298 167.25 281.493 168.053C280.688 168.856 279.598 169.308 278.461 169.31Z" fill="#0364E6"/>
<path d="M312.735 244.055C311.596 244.055 310.503 243.603 309.697 242.797C308.892 241.992 308.439 240.9 308.439 239.761V55.8476C308.491 54.7452 308.967 53.7054 309.766 52.9438C310.565 52.1822 311.626 51.7573 312.731 51.7573C313.835 51.7573 314.896 52.1822 315.695 52.9438C316.495 53.7054 316.97 54.7452 317.022 55.8476V239.761C317.022 240.898 316.571 241.989 315.767 242.794C314.964 243.599 313.873 244.053 312.735 244.055Z" fill="#0364E6"/>
<path d="M347.02 201.295C345.883 201.292 344.795 200.84 343.991 200.037C343.188 199.234 342.735 198.146 342.733 197.01V4.29455C342.705 3.71406 342.796 3.134 342.999 2.5895C343.202 2.045 343.514 1.54738 343.915 1.12679C344.316 0.706199 344.799 0.371383 345.333 0.142618C345.868 -0.0861473 346.443 -0.204102 347.024 -0.204102C347.606 -0.204102 348.181 -0.0861473 348.716 0.142618C349.25 0.371383 349.733 0.706199 350.134 1.12679C350.535 1.54738 350.847 2.045 351.05 2.5895C351.253 3.134 351.344 3.71406 351.316 4.29455V197.01C351.313 198.148 350.86 199.237 350.054 200.041C349.249 200.844 348.157 201.295 347.02 201.295Z" fill="#0364E6"/>
<path d="M381.274 288C380.135 288 379.042 287.548 378.236 286.742C377.431 285.937 376.978 284.845 376.978 283.706V93.4674C376.95 92.8869 377.041 92.3069 377.244 91.7624C377.447 91.2178 377.759 90.7202 378.16 90.2996C378.561 89.879 379.044 89.5442 379.578 89.3155C380.113 89.0867 380.688 88.9688 381.27 88.9688C381.851 88.9688 382.426 89.0867 382.961 89.3155C383.495 89.5442 383.978 89.879 384.379 90.2996C384.78 90.7202 385.092 91.2178 385.295 91.7624C385.498 92.3069 385.589 92.8869 385.561 93.4674V283.706C385.561 284.843 385.11 285.934 384.306 286.739C383.503 287.544 382.412 287.997 381.274 288Z" fill="#0364E6"/>
<path d="M415.539 251.905C414.401 251.903 413.311 251.449 412.507 250.644C411.703 249.839 411.252 248.748 411.252 247.611V38.9708C411.224 38.3903 411.315 37.8103 411.518 37.2658C411.721 36.7213 412.033 36.2237 412.434 35.8031C412.835 35.3825 413.318 35.0477 413.852 34.8189C414.387 34.5901 414.962 34.4722 415.544 34.4722C416.125 34.4722 416.7 34.5901 417.235 34.8189C417.769 35.0477 418.252 35.3825 418.653 35.8031C419.054 36.2237 419.366 36.7213 419.569 37.2658C419.772 37.8103 419.863 38.3903 419.835 38.9708V247.611C419.835 248.75 419.382 249.842 418.577 250.648C417.771 251.453 416.678 251.905 415.539 251.905Z" fill="#0364E6"/>
<path d="M449.813 169.31C448.676 169.307 447.586 168.855 446.781 168.053C445.976 167.25 445.522 166.162 445.517 165.025V110.762C445.517 109.623 445.969 108.53 446.775 107.725C447.581 106.92 448.674 106.467 449.813 106.467C450.953 106.467 452.045 106.92 452.851 107.725C453.657 108.53 454.109 109.623 454.109 110.762V165.016C454.109 166.155 453.657 167.247 452.851 168.052C452.045 168.858 450.953 169.31 449.813 169.31Z" fill="#0364E6"/>
<path d="M484.078 190.432C482.94 190.432 481.849 189.981 481.043 189.178C480.238 188.375 479.784 187.285 479.781 186.148V104.32C479.754 103.739 479.844 103.159 480.047 102.615C480.251 102.07 480.562 101.573 480.963 101.152C481.365 100.732 481.847 100.397 482.382 100.168C482.916 99.9392 483.491 99.8213 484.073 99.8213C484.654 99.8213 485.23 99.9392 485.764 100.168C486.299 100.397 486.781 100.732 487.182 101.152C487.584 101.573 487.895 102.07 488.098 102.615C488.302 103.159 488.392 103.739 488.364 104.32V186.157C488.359 187.291 487.906 188.377 487.103 189.178C486.3 189.979 485.212 190.43 484.078 190.432Z" fill="#0364E6"/>
<path d="M518.352 169.31C517.216 169.308 516.127 168.855 515.323 168.052C514.52 167.249 514.067 166.161 514.065 165.025V118.136C514.037 117.556 514.128 116.976 514.331 116.431C514.534 115.887 514.846 115.389 515.247 114.969C515.648 114.548 516.131 114.213 516.665 113.984C517.2 113.756 517.775 113.638 518.357 113.638C518.938 113.638 519.513 113.756 520.048 113.984C520.582 114.213 521.065 114.548 521.466 114.969C521.867 115.389 522.179 115.887 522.382 116.431C522.585 116.976 522.676 117.556 522.648 118.136V165.025C522.645 166.163 522.192 167.253 521.386 168.056C520.581 168.859 519.489 169.31 518.352 169.31Z" fill="#0364E6"/>
<path d="M552.626 244.055C551.487 244.052 550.396 243.599 549.591 242.794C548.786 241.989 548.332 240.898 548.33 239.76V55.8472C548.33 54.7082 548.782 53.6159 549.588 52.8105C550.394 52.0052 551.487 51.5527 552.626 51.5527C553.766 51.5527 554.858 52.0052 555.664 52.8105C556.47 53.6159 556.922 54.7082 556.922 55.8472V239.76C556.922 240.899 556.47 241.992 555.664 242.797C554.858 243.602 553.766 244.055 552.626 244.055Z" fill="#0364E6"/>
<path d="M586.9 201.295C585.763 201.295 584.671 200.844 583.866 200.041C583.06 199.237 582.607 198.148 582.604 197.01V4.29455C582.576 3.71406 582.667 3.134 582.87 2.5895C583.073 2.045 583.385 1.54738 583.786 1.12679C584.187 0.706199 584.67 0.371383 585.204 0.142618C585.739 -0.0861473 586.314 -0.204102 586.896 -0.204102C587.477 -0.204102 588.052 -0.0861473 588.587 0.142618C589.121 0.371383 589.604 0.706199 590.005 1.12679C590.406 1.54738 590.718 2.045 590.921 2.5895C591.124 3.134 591.215 3.71406 591.187 4.29455V197.01C591.185 198.146 590.732 199.234 589.929 200.037C589.125 200.84 588.037 201.292 586.9 201.295Z" fill="#0364E6"/>
<path d="M621.136 288C619.998 287.997 618.908 287.544 618.104 286.739C617.3 285.934 616.849 284.843 616.849 283.706V93.4674C616.821 92.8869 616.912 92.3069 617.115 91.7624C617.318 91.2178 617.63 90.7202 618.031 90.2996C618.432 89.879 618.915 89.5442 619.449 89.3155C619.984 89.0867 620.559 88.9688 621.141 88.9688C621.722 88.9688 622.297 89.0867 622.832 89.3155C623.366 89.5442 623.849 89.879 624.25 90.2996C624.651 90.7202 624.963 91.2178 625.166 91.7624C625.369 92.3069 625.46 92.8869 625.432 93.4674V283.706C625.432 284.27 625.321 284.828 625.105 285.349C624.889 285.87 624.573 286.343 624.174 286.742C623.775 287.141 623.301 287.457 622.78 287.673C622.259 287.889 621.7 288 621.136 288Z" fill="#0364E6"/>
<path d="M655.439 251.905C654.3 251.905 653.207 251.453 652.401 250.647C651.595 249.842 651.143 248.75 651.143 247.611V38.9707C651.143 37.8318 651.595 36.7395 652.401 35.9341C653.207 35.1287 654.3 34.6763 655.439 34.6763C656.578 34.6763 657.671 35.1287 658.477 35.9341C659.283 36.7395 659.735 37.8318 659.735 38.9707V247.611C659.735 248.75 659.283 249.842 658.477 250.647C657.671 251.453 656.578 251.905 655.439 251.905Z" fill="#0364E6"/>
<path d="M689.713 169.31C688.576 169.31 687.484 168.859 686.679 168.056C685.873 167.252 685.42 166.163 685.417 165.025V110.762C685.389 110.181 685.48 109.601 685.683 109.057C685.886 108.512 686.198 108.015 686.599 107.594C687 107.173 687.483 106.839 688.017 106.61C688.552 106.381 689.127 106.263 689.709 106.263C690.29 106.263 690.865 106.381 691.4 106.61C691.934 106.839 692.417 107.173 692.818 107.594C693.219 108.015 693.531 108.512 693.734 109.057C693.937 109.601 694.028 110.181 694 110.762V165.016C694 166.153 693.549 167.244 692.745 168.049C691.942 168.854 690.851 169.308 689.713 169.31Z" fill="#0364E6"/>
</g>
<defs>
<clipPath id="clip0">
<rect width="694" height="288" fill="white"/>
</clipPath>
</defs>
</svg>
