<svg width="152" height="148" viewBox="0 0 152 148" fill="none" xmlns="http://www.w3.org/2000/svg">
<circle cx="77.5917" cy="74" r="74" transform="rotate(180 77.5917 74)" fill="#F1F1F1"/>
<g clip-path="url(#clip0_1131_19207)">
<path d="M92.7984 24.3574C86.2758 24.3574 80.5055 28.1434 77 33.0965C73.4937 28.1434 67.7266 24.3574 61.2 24.3574C50.5109 24.3574 41.8437 33.0309 41.8437 43.7293C41.8437 55.6082 50.9078 70.2277 77 86.8574C103.092 70.227 112.156 55.6074 112.156 43.7293C112.156 33.0309 103.491 24.3574 92.7984 24.3574Z" fill="#C9C9C9"/>
<path d="M83.1719 118.571C83.1719 118.571 83.0758 113.39 83.182 110.368C83.2273 109.036 83.2883 105.868 83.5 104.469C83.7789 102.65 84.5484 98.5847 88.6609 95.1589C92.6109 91.8714 93.4727 91.5925 97.2023 89.1534C99.8937 87.3925 102.312 86.1128 103.248 84.6292C104.632 82.4183 106.048 78.8214 107.519 77.2847C110.194 74.4878 112.278 73.9245 113.439 74.6292C114.787 75.4511 115.183 77.4394 112.89 81.5292C112.331 82.523 109.971 86.5714 109.205 88.1003C108.652 89.1917 108.28 90.1456 107.202 92.4261C107.144 92.5487 110.916 89.7745 113.303 88.1745C113.856 87.805 114.317 87.5917 114.606 87.2089C114.948 86.7612 115.108 86.1159 115.33 85.5292C116.598 82.2167 117.953 79.2472 118.198 78.8386C118.484 78.3597 118.543 77.0183 119.023 74.2355C119.33 72.4769 119.69 71.6339 119.563 69.9605C119.563 69.9605 117.24 60.5167 121.237 60.2987C123.153 60.198 124.055 64.7956 125.019 68.1331C125.222 68.8238 125.491 69.6964 125.573 70.2558C125.702 71.2245 125.23 75.498 125.009 78.1073C124.93 78.9808 125.107 80.4753 124.184 82.7519C123.852 83.5706 121.309 93.1097 119.355 96.4636C115.87 100.435 114.285 101.569 111.038 104.309C105.77 108.752 101.683 111.878 98.9945 114.846C98.4531 115.447 97.9719 116.552 97.8594 117.943C97.6758 120.203 97.7391 121.428 97.7422 122.559C97.7437 123.299 97.6555 123.755 97.3383 124.06C97.032 124.353 96.1516 124.353 96.1516 124.353L84.707 124.353C84.707 124.353 83.6875 124.432 83.3102 124.004C83.0492 123.711 83.1031 122.635 83.1031 122.635L83.1719 118.571Z" fill="#C9C9C9"/>
<path d="M70.8945 122.634C70.8945 122.634 70.9476 123.709 70.6898 124.003C70.3101 124.432 69.2922 124.351 69.2922 124.351L57.8476 124.351C57.8476 124.351 56.9672 124.351 56.6632 124.057C56.3453 123.754 56.2562 123.298 56.257 122.557C56.2593 121.425 56.3257 120.2 56.1406 117.941C56.0257 116.55 55.5476 115.446 55.0054 114.845C52.3164 111.877 48.2312 108.749 42.9609 104.307C39.7117 101.567 38.1281 100.432 34.6429 96.4622C32.6906 93.1082 30.1484 83.57 29.8148 82.7504C28.8937 80.4739 29.0695 78.9786 28.9922 78.1059C28.7687 75.4957 28.2976 71.2239 28.4281 70.2543C28.5086 69.6942 28.7789 68.8223 28.9812 68.1309C29.9445 64.7942 30.8461 60.1957 32.7617 60.2973C36.7578 60.5161 34.4375 69.9598 34.4375 69.9598C34.3109 71.6332 34.6695 72.4762 34.9765 74.2348C35.4562 77.0161 35.5148 78.3582 35.8007 78.8379C36.0453 79.2465 37.4015 82.2145 38.6679 85.5286C38.8922 86.1145 39.0531 86.7606 39.3945 87.2082C39.682 87.5911 40.1445 87.8059 40.6961 88.1739C43.0843 89.7747 46.8554 92.5497 46.7968 92.4254C45.7156 90.145 45.3453 89.1895 44.7937 88.0997C44.0281 86.5692 41.6687 82.5223 41.1086 81.527C38.8148 77.4395 39.2132 75.4512 40.5609 74.6286C41.7203 73.9247 43.8047 74.4879 46.4797 77.284C47.9507 78.8207 49.3656 82.4176 50.7515 84.6286C51.6859 86.1122 54.1047 87.3918 56.7961 89.1528C60.5242 91.5895 61.3875 91.8707 65.3375 95.1583C69.4507 98.584 70.2179 102.649 70.4968 104.468C70.7101 105.867 70.7726 109.036 70.8164 110.366C70.9203 113.389 70.825 118.57 70.825 118.57L70.8945 122.634Z" fill="#C9C9C9"/>
</g>
<circle cx="9.07865" cy="101.436" r="6.5" transform="rotate(125.979 9.07865 101.436)" fill="#CCCCCC"/>
<circle cx="118.079" cy="136.436" r="6" transform="rotate(125.979 118.079 136.436)" fill="#CCCCCC" stroke="black"/>
<circle cx="142.85" cy="40.8089" r="6" transform="rotate(125.979 142.85 40.8089)" stroke="black"/>
<defs>
<clipPath id="clip0_1131_19207">
<rect width="100" height="100" fill="white" transform="translate(27 24.3574)"/>
</clipPath>
</defs>
</svg>
