<svg width="148" height="149" viewBox="0 0 148 149" fill="none" xmlns="http://www.w3.org/2000/svg">
<circle cx="74" cy="74" r="74" transform="rotate(180 74 74)" fill="#F1F1F1"/>
<circle cx="19.7401" cy="122.36" r="6.5" transform="rotate(-144.021 19.7401 122.36)" fill="#CCCCCC"/>
<circle cx="48.0487" cy="32.2983" r="6" transform="rotate(-144.021 48.0487 32.2983)" fill="#CCCCCC" stroke="black"/>
<circle cx="138.079" cy="90.0788" r="6" transform="rotate(-144.021 138.079 90.0788)" stroke="black"/>
<path fill-rule="evenodd" clip-rule="evenodd" d="M81.2808 72.4001C87.4214 72.4001 92.4004 67.4223 92.4004 61.2806C92.4004 55.139 87.4225 50.1611 81.2808 50.1611C75.1392 50.1611 70.1605 55.1399 70.1605 61.2806C70.1605 67.4214 75.1392 72.4001 81.2808 72.4001ZM61.4427 104.772C61.4427 100.806 58.2267 97.5937 54.2641 97.5937C50.299 97.5937 47.0856 100.807 47.0856 104.772C47.0856 108.737 50.3007 111.951 54.2641 111.951C58.2276 111.951 61.4427 108.737 61.4427 104.772ZM64.5213 126.321C64.4745 125.057 64.754 124.125 65.6857 123.215C68.921 120.046 71.6765 116.522 73.1379 112.148C73.9289 109.785 74.3499 107.343 74.5207 104.867C74.5483 104.467 74.4939 104.084 74.3876 103.717C74.1558 102.931 73.1513 102.059 72.9077 101.955C71.7057 101.443 71.1868 101.754 70.3372 103.223C69.2607 105.083 68.355 107.04 67.2726 108.894C64.7346 113.234 61.5748 116.845 56.2686 117.769C55.3646 117.925 54.3618 117.929 53.4495 117.884C52.2684 117.823 50.9895 117.513 49.8954 117.076C45.6557 115.382 43.029 111.339 40.1312 108.049C39.6717 107.525 39.2372 106.978 38.7417 106.491C37.9147 105.67 36.9981 105.176 35.8471 105.631C34.7188 106.077 34.1287 107 34.0148 108.18C33.9177 109.179 34.3161 110.204 34.6761 111.112C35.4445 113.057 36.6708 114.879 37.9581 116.508C38.4729 117.156 39.0019 117.789 39.5418 118.413C40.5295 119.547 41.5591 120.638 42.6187 121.706C43.588 122.682 44.5674 123.829 45.7074 124.609C46.2657 124.994 46.9923 126.388 47.0325 127.186C47.2032 130.501 47.4025 132.611 47.5389 135.924C47.708 140.062 47.9616 144.196 48.3132 148.319C51.2446 146.85 60.1358 141.247 64.7864 135.565C64.7328 132.485 64.6349 129.402 64.521 126.321L64.5213 126.321ZM86.9935 102.404C86.9165 100.534 86.1665 96.3566 88.1202 95.1455C90.0847 93.9242 93.4514 94.6801 95.6527 94.5888C98.1237 94.4859 100.584 94.141 102.97 93.4873C104.458 93.0797 106.519 92.9181 107.699 91.8207C109.291 90.345 108.712 87.2211 107.766 85.5529C106.748 83.7591 104.777 83.6729 102.914 83.5272C100 83.3029 97.1207 82.8484 94.2487 82.3101C85.4479 80.6653 76.8581 78.2796 69.5672 72.8556C63.6894 68.4821 60.4425 62.3674 57.723 55.8401C56.1544 52.0791 54.7005 48.2655 52.7031 44.6989C51.9582 43.3655 50.752 42.8607 49.2579 43.0323C47.7805 43.2039 47.0196 44.164 46.5324 45.4681C46.0142 46.8509 46.0259 48.2916 46.1113 49.7112C46.2921 52.7881 46.7073 55.8518 47.3652 58.8627C48.4995 64.0926 50.3402 69.1383 52.7693 73.9062C54.6594 77.6168 57.6049 80.8503 58.7719 84.9102C59.5487 87.6213 59.7018 90.6968 59.691 93.7219C63.7708 95.7308 66.5876 99.9177 66.5876 104.773C66.5876 105.509 66.5181 106.231 66.3934 106.931C66.7064 106.359 67.0237 105.793 67.3233 105.213C67.8222 104.256 68.3177 103.3 68.8601 102.369C69.3356 101.547 70.2162 100.019 71.9984 100.019C72.6186 100.019 73.2129 100.209 73.8608 100.517C74.0818 100.622 75.1231 101.28 75.6044 102.109C75.997 102.786 76.3259 103.742 76.2246 104.981C75.9944 107.798 75.5475 110.32 74.7531 112.689C73.3862 116.774 70.8859 120.509 66.8764 124.436C66.3507 124.948 66.1933 125.391 66.226 126.259C66.3398 129.351 66.4411 132.446 66.4897 135.538L66.5014 136.198C66.5014 136.198 64.9871 137.883 64.4313 138.465C72.7208 145.51 97.1206 136.004 94.4313 133.485C92.7095 131.869 87.1917 107.154 86.9924 102.405L86.9935 102.404ZM116.702 95.3748C115.853 96.8438 115.136 98.3906 114.278 99.8555C112.274 103.289 109.775 106.14 105.58 106.873C104.865 106.998 104.075 107 103.355 106.964C102.42 106.917 101.41 106.671 100.545 106.324C97.1937 104.985 95.1179 101.789 92.8268 99.1892C92.4635 98.7773 92.1186 98.3454 91.7302 97.9595C91.0715 97.3117 90.3499 96.9216 89.4385 97.2807C88.5478 97.6347 88.0833 98.363 87.9903 99.2988C87.915 100.086 88.2289 100.896 88.5135 101.615C89.1204 103.15 90.0905 104.591 91.11 105.881C91.516 106.395 96.4438 111.956 98.7013 122.268C99.8757 127.628 98.6938 132.533 98.7013 132.61C101.02 131.449 108.486 129.519 112.317 128.558C112.275 126.125 112.195 116.072 112.106 113.635C112.069 112.639 112.288 111.901 113.025 111.181C115.582 108.676 117.763 105.892 118.917 102.432C119.541 100.564 120.011 98.6403 120.011 96.6758C120.012 94.5538 117.511 93.9796 116.702 95.375L116.702 95.3748ZM103.694 95.1145C101.262 95.0651 98.3337 97.4313 98.7398 100.272C99.1457 103.092 100.96 105.431 103.694 105.431C106.431 105.431 108.651 103.12 108.651 100.272C108.651 97.423 106.87 95.1764 103.694 95.1145Z" fill="#C9C9C9"/>
</svg>
