<svg width="148" height="148" viewBox="0 0 148 148" fill="none" xmlns="http://www.w3.org/2000/svg">
<circle cx="74" cy="74" r="74" fill="#F1F1F1"/>
<path d="M107.333 109.417H40.6667C36.0833 109.417 32.3333 105.667 32.3333 101.083V57.5417C32.3333 54.8333 33.5833 52.3333 35.875 50.6667L74 24L112.125 50.6667C114.417 52.125 115.667 54.8333 115.667 57.5417V101.083C115.667 105.667 111.917 109.417 107.333 109.417Z" fill="#C9C9C9"/>
<path d="M49 46.9167H99V92.75H49V46.9167Z" fill="#F1F1F1"/>
<path d="M33.6958 57.3205L29.8333 54.8099V59.4167V101.083C29.8333 107.047 34.7026 111.917 40.6667 111.917H107.333C113.297 111.917 118.167 107.047 118.167 101.083V59.4167V54.8099L114.304 57.3205L74 83.5183L33.6958 57.3205Z" fill="#C9C9C9" stroke="#F1F1F1" stroke-width="5"/>
<path d="M69.8333 53.1667H78.1667V78.1667H69.8333V53.1667Z" fill="#C9C9C9"/>
<path d="M61.5 61.5H86.5V69.8333H61.5V61.5Z" fill="#C9C9C9"/>
<circle cx="70.5" cy="6.5" r="6.5" fill="#CCCCCC"/>
<circle cx="9.5" cy="64.5" r="6" stroke="black"/>
<circle cx="140.5" cy="99.5" r="6" fill="#CCCCCC" stroke="black"/>
</svg>
