<svg width="152" height="148" viewBox="0 0 152 148" fill="none" xmlns="http://www.w3.org/2000/svg">
<circle cx="77.5917" cy="74" r="74" transform="rotate(180 77.5917 74)" fill="#F1F1F1"/>
<g clip-path="url(#clip0_4436_39173)">
<path d="M45.5098 68.3152L41.7965 69.8388C41.5419 69.9432 41.3754 70.1885 41.3754 70.4606L41.3754 75.2531C41.3754 75.4239 41.441 75.5869 41.5579 75.7119C42.3618 76.5758 45.742 79.6563 49.9517 75.7135C50.0894 75.5853 50.1679 75.4065 50.1679 75.2198L50.1679 70.4622C50.1679 70.1901 50.0013 69.9448 49.7467 69.8404L46.0334 68.3168C45.8653 68.2456 45.6763 68.2456 45.5098 68.3152Z" fill="#CBCBCB"/>
<path d="M54.3455 62.1288L54.3455 60.0356C54.3455 56.4693 51.42 54.5438 47.8108 54.5438L43.4506 54.5438C39.8414 54.5438 36.9159 56.4693 36.9159 60.0356L36.9159 62.1288C36.9175 62.1288 45.0727 63.7268 54.3455 62.1288Z" fill="#CBCBCB"/>
<path d="M39.9791 75.2531L39.9791 71.9495C39.2217 70.8435 38.9127 69.7534 39.0135 68.5731L39.0216 68.4797C39.028 68.4006 39.036 68.2899 39.0488 68.2187C39.4507 68.0858 39.6893 67.7061 39.7021 67.1681C39.7117 66.7852 39.7149 66.3992 39.7181 66.0258C39.7213 65.6097 39.7261 65.1841 39.7373 64.76C39.7373 64.4499 39.8494 64.1651 40.0351 63.9436C38.4883 63.7901 37.3947 63.6129 36.9111 63.5291C36.8903 64.1477 36.9079 64.7679 36.9687 65.3866L37.2762 68.5114C37.3066 68.8183 37.3258 69.1269 37.3466 69.4338C37.4491 70.9543 38.1008 72.3893 39.321 73.7975C39.3562 73.837 39.3882 73.894 39.4026 73.943C39.566 74.4525 39.7597 74.924 39.9839 75.3607C39.9823 75.3243 39.9791 75.2895 39.9791 75.2531Z" fill="#CBCBCB"/>
<path d="M51.6586 64.1873C51.7595 64.4009 51.8059 64.6398 51.8764 64.8613C51.8796 64.8565 51.8844 64.8518 51.8876 64.8486C51.8972 65.2125 51.8972 65.5827 51.8972 65.9641C51.8972 66.2963 51.8956 66.6396 51.9036 66.9814C51.9052 67.0732 51.9052 67.1649 51.9036 67.263L51.9036 67.4545C51.9036 67.8374 52.1806 68.1649 52.5617 68.2329C52.5761 68.3041 52.5873 68.4022 52.5922 68.4418C52.7283 69.7012 52.3984 70.8641 51.5641 72.0507L51.5641 75.2199C51.5641 75.3227 51.5529 75.424 51.5385 75.5252C51.7739 75.0885 51.9805 74.617 52.155 74.1044C52.203 73.9636 52.2943 73.8054 52.4048 73.6741C53.6682 72.1583 54.2863 70.6157 54.2847 68.9765C54.2847 68.8626 54.2847 68.7487 54.2863 68.6348L54.3087 63.5338C53.3511 63.6936 52.408 63.8202 51.4857 63.9183C51.5513 63.9974 51.6106 64.086 51.6586 64.1873Z" fill="#CBCBCB"/>
<path d="M108.934 54.2495L109.382 54.2495C109.754 54.2495 110.055 54.5454 110.055 54.9125L110.055 55.9646L111.119 55.9646C111.489 55.9646 111.79 56.2621 111.79 56.6276L111.79 57.0706C111.79 57.4377 111.489 57.7351 111.119 57.7351L110.055 57.7351L110.055 58.7857C110.055 59.1527 109.754 59.4502 109.382 59.4502L108.934 59.4502C108.564 59.4502 108.263 59.1527 108.263 58.7857L108.263 57.7351L107.198 57.7351C106.828 57.7351 106.525 57.4377 106.525 57.0706L106.525 56.6276C106.525 56.308 106.756 56.0406 107.062 55.9789C107.105 55.9694 107.15 55.9646 107.196 55.9646L108.261 55.9646L108.261 54.9125C108.261 54.7084 108.354 54.5264 108.501 54.4046C108.62 54.3081 108.769 54.2495 108.934 54.2495Z" fill="#CBCBCB"/>
<path d="M120.538 80.5392C119.388 80.1262 118.444 79.4554 117.821 78.3969C117.532 77.9096 117.335 77.4033 117.206 76.8796L117.766 76.8796C118.287 76.9065 118.514 76.6865 118.7 76.2467C119.64 74.019 119.881 71.709 119.582 69.3325C119.228 66.521 118.339 63.9294 116.572 61.7317C116.522 61.6573 116.469 61.5846 116.416 61.5118C116.309 61.3662 116.197 61.227 116.08 61.0925C115.761 60.7207 115.414 60.3916 115.041 60.0989C115.001 60.0609 114.959 60.0245 114.919 59.9865C114.993 59.8252 115.059 59.6559 115.111 59.4802C115.135 59.4011 115.161 59.3141 115.19 59.2224L115.195 59.2049C115.203 59.1765 115.212 59.1464 115.22 59.1163L115.225 59.0989C115.589 57.8854 116.205 55.827 116.259 55.6482C116.588 54.6688 116.429 53.5629 115.846 52.7591C115.318 52.0329 114.519 51.6326 113.598 51.6326L104.724 51.6326C103.803 51.6326 103.004 52.0329 102.477 52.7575C101.893 53.5613 101.735 54.6672 102.063 55.6466L103.214 59.4834C103.235 59.5499 103.257 59.6179 103.281 59.6844C103.323 59.7983 103.369 59.909 103.421 60.0166C103.405 60.0308 103.387 60.0451 103.371 60.0577C102.955 60.3663 102.578 60.7128 102.25 61.1004C102.122 61.2507 102.002 61.4074 101.888 61.5703C100.018 63.817 99.094 66.4846 98.7386 69.3832C98.4439 71.7849 98.6841 74.1234 99.6961 76.3479C99.7922 76.5584 100.066 76.8416 100.255 76.84L101.182 76.84C100.697 78.5836 99.6321 79.8715 97.8034 80.5534C97.7522 80.5724 97.7026 80.6009 97.5713 80.6642C98.8667 81.0629 100.132 81.3603 101.355 81.3793L101.944 81.2306C103.014 81.0059 104.048 80.5265 105.039 79.6943C105.821 80.131 106.549 80.5676 107.305 80.9537C107.31 80.9569 107.315 80.9584 107.32 80.9616C107.874 81.2417 108.492 81.3746 109.113 81.3746L109.203 81.3746C109.81 81.3746 110.415 81.2496 110.958 80.9822C110.961 80.979 110.966 80.979 110.969 80.9758C111.653 80.6357 112.316 80.2544 112.998 79.8857C114.061 80.7543 115.356 81.1831 116.689 81.3271L117.023 81.3698C118.402 81.3271 119.741 81.0043 120.757 80.623C120.666 80.5914 120.602 80.5629 120.538 80.5392ZM103.749 53.6673C103.981 53.3493 104.308 53.1879 104.721 53.1879L113.595 53.1879C114.008 53.1879 114.336 53.3493 114.567 53.6673C114.86 54.0708 114.937 54.6609 114.764 55.1704L114.754 55.1973C114.754 55.1973 114.096 57.3918 113.717 58.6607C113.705 58.6986 113.693 58.735 113.683 58.7698C113.653 58.8648 113.625 58.9565 113.601 59.0404C113.592 59.072 113.582 59.1037 113.571 59.1353C113.533 59.2445 113.489 59.3458 113.438 59.4423C113.084 60.1179 112.423 60.4865 111.52 60.5087C111.494 60.5103 111.47 60.5087 111.444 60.5087L106.873 60.5087C106.614 60.5087 106.369 60.4802 106.148 60.4248C105.299 60.2081 104.926 59.6226 104.759 59.1686C104.758 59.1654 104.758 59.1654 104.756 59.1622C104.742 59.1211 104.727 59.0784 104.714 59.0388L103.56 55.1941L103.552 55.1688C103.377 54.6609 103.454 54.0692 103.749 53.6673ZM116.709 69.9622C116.714 70.1711 116.605 70.823 116.471 71.5476C115.89 74.6613 114.141 77.465 111.531 79.3019C111.448 79.362 111.361 79.4206 111.275 79.4791C109.81 80.4648 108.565 80.2512 107.019 79.4459C100.767 76.1929 102.594 66.9735 102.594 66.9735C102.671 66.2916 102.799 65.6476 102.963 65.0448C103.078 64.6255 103.461 64.3249 103.899 64.3407C103.903 64.3423 103.904 64.3423 103.909 64.3423C105.424 64.4072 106.934 64.3091 108.42 63.9752C108.915 63.8645 109.39 63.7253 109.845 63.5575C110.155 63.7885 110.479 64.0132 110.81 64.2284C111.672 64.7917 112.549 65.3517 113.313 66.0289C114.083 66.7108 114.721 67.5367 115.42 68.3025C115.681 66.8279 114.415 66.0353 113.757 64.9594C114.684 65.5369 115.449 66.2156 115.968 67.051L116.165 67.3991C116.469 67.9908 116.655 68.6585 116.698 69.4227C116.709 69.6031 116.714 69.7835 116.709 69.9622Z" fill="#CBCBCB"/>
<path d="M109.158 90.95C108.167 90.95 107.217 90.8582 106.322 90.6968L108.493 103.71L109.822 103.71L111.992 90.7016C111.099 90.8629 110.146 90.95 109.158 90.95Z" fill="#CBCBCB"/>
<path d="M119.195 83.6782L118.972 83.6782C116.351 83.6782 115.073 82.971 114.445 81.9647L110.817 103.71L124.546 103.71C125.654 103.71 126.554 102.823 126.554 101.726L126.554 90.95C126.554 86.9344 123.259 83.6782 119.195 83.6782ZM120.223 93.9767L115.838 93.9767L115.838 92.8375L120.223 92.8375L120.223 93.9767Z" fill="#CBCBCB"/>
<path d="M52.8099 93.2837C53.3543 88.833 55.1846 85.455 58.251 83.1545C57.2182 82.6103 56.0476 82.1941 54.717 81.9236C53.6089 81.6973 52.1182 80.0503 51.4841 78.7086L51.2391 78.889L45.6315 87.6005L40.2449 78.8826L40.0576 78.707C39.4219 80.0487 37.9327 81.6958 36.8246 81.922C31.9456 82.9156 29.0169 85.6829 28.4053 90.6731L27.4525 100.582C27.4221 101.171 27.4926 101.272 28.0434 101.481C28.3028 101.581 28.5654 101.677 28.8312 101.763C31.2475 102.547 33.7454 102.962 36.2674 103.169C39.4347 103.432 42.6148 103.565 44.2496 103.663C47.1303 103.639 49.5818 103.581 51.8316 103.451L52.8099 93.2837Z" fill="#CBCBCB"/>
<path d="M101.182 93.2188L102.199 103.712L107.499 103.712L103.871 81.9663C103.244 82.9726 101.967 83.6798 99.3438 83.6798L99.1213 83.6798C98.3158 83.6798 97.544 83.8111 96.8187 84.0485C99.2398 86.292 100.71 89.3535 101.182 93.2188Z" fill="#CBCBCB"/>
<path d="M100.838 106.569C100.595 104.267 100.534 101.946 100.303 99.6373C99.9557 96.1802 99.4568 92.7411 98.4224 89.4043C97.8626 87.6187 97.0107 86.0675 95.3131 85.0815C93.6885 84.1375 91.9178 83.5784 90.1411 83.0313C89.5204 82.8389 89.6299 83.2718 89.6664 83.5844C89.8307 85.0935 89.6908 86.5845 89.3744 88.0576C89.2709 88.5325 89.4352 88.749 89.849 88.9835C91.6014 89.9514 92.5993 91.4305 92.7088 93.4326C92.8183 95.4948 92.3924 97.5209 92.2646 99.5651C92.1794 100.954 92.0273 102.349 91.4371 103.641C90.7252 105.205 89.4961 105.824 87.8167 105.505C87.1778 105.385 86.7579 105.096 86.8614 104.399C86.9648 103.714 87.4455 103.473 88.0844 103.599C88.8876 103.756 89.3561 103.383 89.6847 102.734C89.9098 102.283 90.0315 101.79 90.0802 101.291C90.3175 98.9879 90.5731 96.6852 90.7617 94.3765C90.9321 92.2902 89.8003 90.709 87.9262 90.2881C85.9913 89.8552 84.324 90.721 83.5269 92.669C82.888 94.2262 82.3647 95.8315 81.7563 97.4067C81.4094 98.2965 81.1113 99.1924 80.9287 100.124C80.6914 101.333 80.9348 101.778 82.0666 102.283C82.6081 102.523 82.8698 102.902 82.6811 103.473C82.4925 104.05 82.0666 104.213 81.4825 104.104C79.8152 103.792 78.8478 102.619 78.8782 100.93C78.8904 100.238 78.9938 99.5711 79.1885 98.9098C79.9065 96.4568 80.8496 94.0819 81.811 91.713C82.6751 89.5847 84.3971 88.4123 86.7397 88.25C87.196 88.2139 87.3907 88.0876 87.4759 87.6487C87.7619 86.1877 87.8045 84.7267 87.6706 83.2477C87.6098 82.5503 87.336 82.1715 86.5997 82.0573C86.0034 81.9671 85.4071 81.7687 84.8473 81.5402C84.2875 81.3178 84.0441 81.3839 83.8494 82.0092C83.1618 84.2818 82.2005 86.4523 81.0869 88.5566C80.5515 89.5727 79.9308 90.5466 79.2433 91.7251C78.9695 90.234 78.7626 88.9654 78.4948 87.7028C78.3731 87.1377 78.3853 86.6266 78.6348 86.0915C78.7747 85.7849 79.1459 85.4242 78.7747 85.0935C78.1845 84.5644 77.5395 84.1015 76.9128 83.6145C76.8946 83.5964 76.8094 83.6385 76.7729 83.6686C76.1644 84.1856 75.4707 84.6305 74.9961 85.2438C74.7101 85.6105 75.2638 86.0915 75.3855 86.5364C75.4099 86.6386 75.4646 86.7469 75.4525 86.8431C75.1969 88.3942 74.9292 89.9394 74.6432 91.6349C74.4424 91.4004 74.3511 91.3102 74.2903 91.208C72.6839 88.6468 71.3757 85.9532 70.3839 83.1034C70.1831 82.5202 70.2013 81.6184 69.6963 81.432C69.2217 81.2576 68.5098 81.7206 67.9013 81.8889C67.5849 81.9791 67.305 82.0633 67.1833 82.43C66.9521 83.1395 66.6235 83.8129 66.4531 84.5223C65.3335 89.1398 65.6134 93.7091 67.0555 98.2244C67.2746 98.9098 67.5362 99.2825 68.3272 99.4328C69.8545 99.7335 70.6759 101.387 70.1526 102.818C69.605 104.327 67.9561 105.036 66.5201 104.387C65.0719 103.738 64.4512 101.976 65.2909 100.665C65.5952 100.19 65.5587 99.8237 65.3944 99.3547C63.8488 94.9717 63.4351 90.4865 64.147 85.8931C64.3113 84.835 64.6703 83.8249 64.9137 82.7066C62.7901 83.3199 60.7517 83.8309 58.9141 84.8891C57.5633 85.6647 56.5167 86.6807 55.9265 88.1598C55.2207 89.9334 54.7947 91.7732 54.4357 93.637C53.6082 97.9658 53.3527 102.361 53.018 106.744C52.9267 107.94 53.4683 108.68 54.4297 109.239L99.3899 109.239C100.534 108.704 100.972 107.85 100.838 106.569ZM66.8365 69.5937C67.2502 69.702 67.4449 69.9004 67.6031 70.2731C68.5341 72.4736 69.6841 74.5419 71.3939 76.2614C72.7448 77.6262 74.3085 78.6483 76.2922 78.8467C78.7869 79.0992 80.734 77.999 82.4195 76.3335C84.1354 74.6321 85.328 72.5879 86.259 70.3753C86.3868 70.0747 86.4294 69.696 86.8918 69.6539C88.5529 69.4975 89.849 66.9002 89.5752 65.319C89.4961 64.8681 89.3257 64.4532 88.8267 64.4232C88.2061 64.3811 88.3217 64.0564 88.413 63.6776C88.7416 62.3188 88.8815 60.93 88.9484 59.7396C88.991 58.5311 88.8754 57.527 88.632 56.5651C88.2609 55.1101 87.5003 53.8595 86.119 53.1621C85.3037 52.7472 84.6769 52.2903 84.4031 51.3945C84.2997 51.0458 83.9529 50.8173 83.6669 50.5828C82.6081 49.717 81.3547 49.3383 80.0525 49.212C76.1522 48.8332 72.5135 49.6569 69.2947 51.8995C67.0738 53.4387 65.5465 55.4708 65.2362 58.2365C65.0293 60.0582 65.1327 61.8619 65.4796 63.6596C65.5526 64.0444 65.7108 64.4472 65.0232 64.4352C64.7129 64.4292 64.5121 64.6877 64.4086 64.9883C63.8367 66.5996 65.1571 69.1548 66.8365 69.5937Z" fill="#CBCBCB"/>
</g>
<circle cx="9.0787" cy="101.436" r="6.5" transform="rotate(125.979 9.0787 101.436)" fill="#CCCCCC"/>
<circle cx="118.079" cy="136.436" r="6" transform="rotate(125.979 118.079 136.436)" fill="#CCCCCC" stroke="black"/>
<circle cx="142.85" cy="40.8089" r="6" transform="rotate(125.979 142.85 40.8089)" stroke="black"/>
<defs>
<clipPath id="clip0_4436_39173">
<rect width="102.48" height="101.26" fill="white" transform="translate(25.76 28.5532)"/>
</clipPath>
</defs>
</svg>
