<svg width="152" height="148" viewBox="0 0 152 148" fill="none" xmlns="http://www.w3.org/2000/svg">
<circle cx="77.5918" cy="74" r="74" transform="rotate(180 77.5918 74)" fill="#F1F1F1"/>
<circle cx="9.07865" cy="101.435" r="6.5" transform="rotate(125.979 9.07865 101.435)" fill="#CCCCCC"/>
<circle cx="118.079" cy="136.435" r="6" transform="rotate(125.979 118.079 136.435)" fill="#CCCCCC" stroke="black"/>
<circle cx="142.85" cy="40.8085" r="6" transform="rotate(125.979 142.85 40.8085)" stroke="black"/>
<path d="M113.833 99.0833H42.1667C40.1959 99.0833 38.5834 100.696 38.5834 102.667C38.5834 104.637 40.1959 106.25 42.1667 106.25H113.833C115.804 106.25 117.417 104.637 117.417 102.667C117.417 100.696 115.804 99.0833 113.833 99.0833ZM49.3334 95.5H106.667C110.608 95.5 113.798 92.275 113.798 88.3333L113.833 48.9167C113.833 44.975 110.608 41.75 106.667 41.75H49.3334C45.3917 41.75 42.1667 44.975 42.1667 48.9167V88.3333C42.1667 92.275 45.3917 95.5 49.3334 95.5ZM65.7809 59.8458C66.8132 58.308 68.1736 57.0181 69.7642 56.069C71.3547 55.1199 73.1359 54.5352 74.9796 54.357C76.8232 54.1788 78.6834 54.4115 80.4263 55.0384C82.1692 55.6653 83.7515 56.6708 85.0592 57.9825C89.2875 62.2108 89.8609 68.7325 86.7434 73.6058L92.3334 79.16C93.3725 80.1992 93.3725 81.9192 92.3334 82.9583C91.2942 83.9975 89.5742 83.9975 88.535 82.9583L82.9809 77.4042C77.355 80.9875 69.5075 79.6975 65.53 73.4267C62.9142 69.3417 63.0575 63.8592 65.7809 59.8458Z" fill="#C9C9C9"/>
<path d="M76.2083 73.9993C80.1663 73.9993 83.375 70.7907 83.375 66.8327C83.375 62.8746 80.1663 59.666 76.2083 59.666C72.2503 59.666 69.0416 62.8746 69.0416 66.8327C69.0416 70.7907 72.2503 73.9993 76.2083 73.9993Z" fill="#C9C9C9"/>
<path d="M77.2504 61.8182L77.0217 68.8828H74.9783L74.7496 61.8182H77.2504ZM75.9975 72.1442C75.6429 72.1442 75.3379 72.0182 75.0827 71.7663C74.8308 71.5144 74.7049 71.2095 74.7049 70.8516C74.7049 70.5002 74.8308 70.2003 75.0827 69.9517C75.3379 69.6998 75.6429 69.5739 75.9975 69.5739C76.3389 69.5739 76.6388 69.6998 76.8974 69.9517C77.1592 70.2003 77.2901 70.5002 77.2901 70.8516C77.2901 71.0902 77.2288 71.3073 77.1062 71.5028C76.9869 71.6984 76.8294 71.8542 76.6339 71.9702C76.4416 72.0862 76.2295 72.1442 75.9975 72.1442Z" fill="#F1F1F1"/>
</svg>
