<svg width="136" height="146" viewBox="0 0 136 146" fill="none" xmlns="http://www.w3.org/2000/svg">
<ellipse cx="64" cy="64" rx="64" ry="64" transform="rotate(-180 64 64)" fill="#F1F1F1"/>
<circle cx="123.5" cy="126.5" r="6.5" transform="rotate(-180 123.5 126.5)" fill="#CCCCCC"/>
<circle cx="18.5" cy="45.5" r="6" transform="rotate(-180 18.5 45.5)" fill="#CCCCCC" stroke="black"/>
<circle cx="129.5" cy="17.5" r="6" transform="rotate(-180 129.5 17.5)" stroke="black"/>
<path d="M47.3306 101.81C48.0772 101.474 48.6067 100.741 48.6067 99.8669C48.6067 99.4009 48.4532 98.9561 48.1911 98.6039H48.2043C45.2124 94.6112 42.7342 89.2444 42.7342 82.7444C42.7342 73.3531 47.545 64.2318 57.4367 61.9548C55.3662 56.5906 50.7699 52.5159 43.5126 52.5159C33.2555 52.5159 28.2911 60.6495 28.2911 69.0532C28.2911 75.4235 31.3466 80.4303 34.4126 83.5943C34.7568 84.0232 34.9686 84.5607 34.9686 85.1405C34.9686 86.1758 34.3331 87.0548 33.4382 87.4043C25.1404 89.7475 15.2355 95.0322 12.7122 100.966C12.2648 102.011 12 103.163 12 104.379C12 108.657 15.1375 112.187 19.2361 112.859H29.8374C33.8062 108.419 40.5287 104.503 47.3306 101.81Z" fill="#C9C9C9"/>
<path d="M90.8186 110.91C86.3096 107.77 80.5059 105.223 75.2794 103.748C74.3024 103.362 73.6087 102.403 73.6087 101.278C73.6087 100.64 73.8364 100.052 74.215 99.5915C77.5643 96.1257 80.8898 90.6662 80.8898 83.7213C80.8898 74.5525 75.4753 65.6748 64.2889 65.6748C53.0945 65.6748 47.6774 74.5551 47.6774 83.7213C47.6774 90.6662 51.0108 96.1283 54.3521 99.5915C54.7334 100.052 54.9585 100.64 54.9585 101.278C54.9585 102.403 54.2674 103.356 53.2851 103.748C44.2327 106.303 33.4302 112.067 30.6766 118.541C30.1842 119.679 29.9009 120.934 29.9009 122.258C29.9009 126.934 33.3217 130.781 37.7936 131.509H82.8702V118.297H90.8133V110.908H90.8186V110.91Z" fill="#C9C9C9"/>
<path d="M104.057 123.595V115.652H96.1139V123.595H88.1709V131.538H96.1139V139.481H104.057V131.538H112V123.595H104.057Z" fill="#C9C9C9"/>
</svg>
