<svg width="148" height="148" viewBox="0 0 148 148" fill="none" xmlns="http://www.w3.org/2000/svg">
<circle cx="74" cy="74" r="74" fill="#F1F1F1"/>
<circle cx="70.5" cy="6.5" r="6.5" fill="#CCCCCC"/>
<circle cx="9.5" cy="64.5" r="6" stroke="black"/>
<circle cx="140.5" cy="99.5" r="6" fill="#CCCCCC" stroke="black"/>
<path d="M91.1875 54.4688V49.7812C91.1875 49.3516 90.8359 49 90.4062 49H52.9062C52.4766 49 52.125 49.3516 52.125 49.7812V54.4688C52.125 54.8984 52.4766 55.25 52.9062 55.25H90.4062C90.8359 55.25 91.1875 54.8984 91.1875 54.4688ZM52.9062 63.0625C52.4766 63.0625 52.125 63.4141 52.125 63.8438V68.5312C52.125 68.9609 52.4766 69.3125 52.9062 69.3125H70.875C71.3047 69.3125 71.6562 68.9609 71.6562 68.5312V63.8438C71.6562 63.4141 71.3047 63.0625 70.875 63.0625H52.9062ZM89.625 74.3906C77.9746 74.3906 68.5312 83.834 68.5312 95.4844C68.5312 107.135 77.9746 116.578 89.625 116.578C101.275 116.578 110.719 107.135 110.719 95.4844C110.719 83.834 101.275 74.3906 89.625 74.3906ZM100.123 105.982C97.3203 108.785 93.5898 110.328 89.625 110.328C85.6602 110.328 81.9297 108.785 79.127 105.982C76.3242 103.18 74.7812 99.4492 74.7812 95.4844C74.7812 91.5195 76.3242 87.7891 79.127 84.9863C81.9297 82.1836 85.6602 80.6406 89.625 80.6406C93.5898 80.6406 97.3203 82.1836 100.123 84.9863C102.926 87.7891 104.469 91.5195 104.469 95.4844C104.469 99.4492 102.926 103.18 100.123 105.982ZM98.3164 88.0625H93.9902C93.7363 88.0625 93.502 88.1797 93.3555 88.3848L87.1543 96.959L84.8984 93.8438C84.8262 93.7431 84.7308 93.6613 84.6203 93.6052C84.5099 93.5492 84.3876 93.5204 84.2637 93.5215H79.957C79.3223 93.5215 78.9512 94.2441 79.3223 94.7617L86.5293 104.732C86.8418 105.162 87.4766 105.162 87.7891 104.732L98.9414 89.3027C99.3223 88.7852 98.9512 88.0625 98.3164 88.0625ZM66.9688 107.203H44.3125V38.4531H99V72.0469C99 72.4766 99.3516 72.8281 99.7812 72.8281H105.25C105.68 72.8281 106.031 72.4766 106.031 72.0469V34.5469C106.031 32.8184 104.635 31.4219 102.906 31.4219H40.4062C38.6777 31.4219 37.2812 32.8184 37.2812 34.5469V111.109C37.2812 112.838 38.6777 114.234 40.4062 114.234H66.9688C67.3984 114.234 67.75 113.883 67.75 113.453V107.984C67.75 107.555 67.3984 107.203 66.9688 107.203Z" fill="#C9C9C9"/>
<path d="M119.375 42.7083L113.667 45.3333L119.375 47.9583L122 53.6667L124.625 47.9583L130.333 45.3333L124.625 42.7083L122 37L119.375 42.7083ZM109.5 37L113.417 28.4167L122 24.5L113.417 20.5833L109.5 12L105.583 20.5833L97 24.5L105.583 28.4167L109.5 37Z" fill="#C9C9C9"/>
</svg>
