<svg width="24" height="24" viewBox="0 0 24 24" fill="none" xmlns="http://www.w3.org/2000/svg">
<path d="M16.6897 19.75H7.31035C6.93767 19.75 6.58026 19.602 6.31674 19.3384C6.05322 19.0749 5.90517 18.7175 5.90517 18.3448V5.65517C5.90517 5.2825 6.05322 4.92509 6.31674 4.66157C6.58026 4.39804 6.93767 4.25 7.31035 4.25H14.9309L18.0948 7.4139V18.3448C18.0948 18.7175 17.9468 19.0749 17.6833 19.3384C17.4197 19.602 17.0623 19.75 16.6897 19.75Z" stroke="#979797" stroke-width="0.5"/>
<path d="M5.65517 15.5862H18.3448V18.3448C18.3448 18.7838 18.1704 19.2048 17.86 19.5152C17.5496 19.8256 17.1286 20 16.6897 20H7.31035C6.87137 20 6.45037 19.8256 6.13996 19.5152C5.82956 19.2048 5.65517 18.7838 5.65517 18.3448V15.5862Z" fill="#979797"/>
<path d="M18.3448 7.31034H16.6897C16.2507 7.31034 15.8297 7.13596 15.5193 6.82556C15.2089 6.51515 15.0345 6.09415 15.0345 5.65517V4L18.3448 7.31034Z" fill="#979797"/>
<path d="M10.3448 8.13794V9.24138L14.2069 8.68966V7.58621L10.3448 8.13794Z" fill="white"/>
<path d="M14.3876 7.37782C14.3578 7.35194 14.3227 7.33277 14.2848 7.32162C14.2468 7.31046 14.207 7.30758 14.1678 7.31316L10.3058 7.86489C10.24 7.87429 10.1799 7.90707 10.1364 7.95723C10.0929 8.00738 10.069 8.07153 10.069 8.13792V11.3203C9.8586 11.1989 9.61404 11.1502 9.37321 11.1819C9.13238 11.2136 8.90874 11.3239 8.73698 11.4957C8.56522 11.6674 8.45493 11.8911 8.42323 12.1319C8.39153 12.3727 8.44019 12.6173 8.56165 12.8277C8.68311 13.038 8.87059 13.2024 9.09501 13.2954C9.31943 13.3883 9.56825 13.4046 9.80288 13.3418C10.0375 13.2789 10.2448 13.1403 10.3927 12.9476C10.5406 12.7549 10.6207 12.5188 10.6207 12.2759V9.48058L13.931 9.00768V10.7686C13.7207 10.6471 13.4761 10.5985 13.2353 10.6302C12.9944 10.6619 12.7708 10.7722 12.599 10.944C12.4273 11.1157 12.317 11.3394 12.2853 11.5802C12.2536 11.821 12.3022 12.0656 12.4237 12.2759C12.5452 12.4863 12.7326 12.6507 12.9571 12.7437C13.1815 12.8366 13.4303 12.8529 13.6649 12.79C13.8996 12.7272 14.1069 12.5886 14.2548 12.3959C14.4026 12.2032 14.4828 11.967 14.4828 11.7241V7.5862C14.4828 7.54668 14.4743 7.50762 14.4579 7.47167C14.4414 7.43572 14.4175 7.40371 14.3876 7.37782ZM10.6207 8.92334V8.37716L13.931 7.90423V8.45044L10.6207 8.92334Z" fill="#979797"/>
<path d="M11.3995 19V16.3578H10.8466L10.0519 18.2822H10.0189L9.22424 16.3578H8.67126V19H9.11072V17.1415H9.13635L9.86694 18.8975H10.2039L10.9344 17.1415H10.9601V19H11.3995ZM12.0514 16.3578V19H12.5238V18.1339H13.0969C13.6316 18.1339 14.0051 17.775 14.0051 17.2513C14.0051 16.7185 13.6444 16.3578 13.1171 16.3578H12.0514ZM12.5238 16.7533H12.9926C13.3331 16.7533 13.5254 16.9272 13.5254 17.2513C13.5254 17.5663 13.3276 17.7421 12.9907 17.7421H12.5238V16.7533ZM15.0836 17.8281H15.415C15.741 17.8281 15.9406 17.9874 15.9406 18.2456C15.9406 18.4946 15.7281 18.6686 15.426 18.6686C15.1221 18.6686 14.9133 18.5129 14.8932 18.2676H14.4409C14.4647 18.751 14.8529 19.0659 15.4224 19.0659C15.9973 19.0659 16.4221 18.729 16.4221 18.2749C16.4221 17.9233 16.1987 17.678 15.838 17.6359V17.6047C16.131 17.5425 16.3159 17.3063 16.3159 16.9968C16.3159 16.5922 15.9332 16.2919 15.4205 16.2919C14.8712 16.2919 14.516 16.594 14.4922 17.0792H14.9335C14.9518 16.8302 15.1331 16.6764 15.4059 16.6764C15.6824 16.6764 15.86 16.8284 15.86 17.0627C15.86 17.299 15.675 17.4619 15.4059 17.4619H15.0836V17.8281Z" fill="white"/>
</svg>
