<svg width="22" height="15" viewBox="0 0 22 15" fill="none" xmlns="http://www.w3.org/2000/svg">
<path d="M21.6294 8.1949C20.8483 7.43799 19.8958 6.90332 18.8718 6.64805C18.8455 6.63408 18.8167 6.62561 18.7871 6.62561H18.6935C18.6648 6.62561 18.6355 6.63365 18.6093 6.64762C18.3003 6.81315 17.8769 6.90882 17.446 6.90882C17.0159 6.90882 16.5909 6.81272 16.2818 6.64762C16.2556 6.63365 16.2264 6.62561 16.1976 6.62561H16.1303C16.1167 6.62561 16.1027 6.62773 16.0892 6.63027C15.6333 6.73864 15.193 6.90501 14.7735 7.11795C14.5572 7.86978 14.1423 8.58733 13.5818 9.13809H21.5057C21.6035 9.13809 21.684 9.0585 21.684 8.95944V8.3236C21.6835 8.27576 21.6645 8.22962 21.6294 8.1949Z" fill="#979797"/>
<path d="M15.4442 3.80575C15.4442 3.99667 15.5907 4.15288 15.7706 4.15288C15.7732 4.15288 15.7749 4.15288 15.777 4.15288C15.8443 5.06813 16.5656 5.98337 17.4457 5.98337C18.3263 5.98337 19.0468 5.06813 19.1149 4.15288C19.1166 4.15288 19.1183 4.15288 19.12 4.15288C19.3012 4.15288 19.4481 3.99667 19.4481 3.80575C19.4481 3.66435 19.3681 3.54286 19.2542 3.48825C19.3198 3.28378 19.3562 3.06322 19.3562 2.83335C19.3562 1.71448 18.5011 0.807705 17.4453 0.807705C16.39 0.807705 15.5344 1.71491 15.5344 2.83335C15.5344 3.06322 15.5708 3.28335 15.6368 3.48825C15.523 3.54286 15.4442 3.66435 15.4442 3.80575Z" fill="#979797"/>
<path d="M7.69226 7.05953C7.3282 6.88342 6.94847 6.74499 6.55858 6.64805C6.53233 6.63408 6.50312 6.62561 6.47391 6.62561H6.38078C6.35199 6.62561 6.32278 6.63365 6.29696 6.64762C5.98708 6.81315 5.56375 6.90882 5.13322 6.90882C4.70269 6.90882 4.27766 6.81272 3.96863 6.64762C3.94238 6.63365 3.9136 6.62561 3.88439 6.62561H3.81708C3.80353 6.62561 3.78956 6.62773 3.77601 6.63027C2.72445 6.88003 1.74783 7.42148 0.948573 8.1949C0.914706 8.22962 0.895233 8.27576 0.895233 8.32402V8.95987C0.895233 9.05893 0.97482 9.13851 1.07388 9.13851H8.89919C8.3243 8.57336 7.90351 7.83126 7.69226 7.05953Z" fill="#979797"/>
<path d="M3.13115 3.80575C3.13115 3.99667 3.27762 4.15288 3.45754 4.15288C3.46008 4.15288 3.46177 4.15288 3.46431 4.15288C3.53162 5.06813 4.25213 5.98337 5.13309 5.98337C6.0132 5.98337 6.73413 5.06813 6.80187 4.15288C6.80356 4.15288 6.80525 4.15288 6.80695 4.15288C6.98856 4.15288 7.13461 3.99667 7.13461 3.80575C7.13461 3.66435 7.05502 3.54286 6.94157 3.48825C7.00676 3.28378 7.04317 3.06322 7.04317 2.83335C7.04317 1.71448 6.18761 0.807705 5.13267 0.807705C4.0773 0.807705 3.22132 1.71491 3.22132 2.83335C3.22132 3.06322 3.25773 3.28335 3.32377 3.48825C3.21031 3.54286 3.13115 3.66435 3.13115 3.80575Z" fill="#979797"/>
<path d="M7.82191 5.59774C7.82191 5.92583 8.07168 6.19126 8.38029 6.19126C8.3841 6.19126 8.38749 6.19041 8.39003 6.19041C8.43363 6.77757 8.63387 7.36304 8.94713 7.86808C9.07117 8.06747 9.21426 8.25077 9.37004 8.41968C9.87127 8.95943 10.5245 9.31757 11.2403 9.31757C12.0053 9.31757 12.6987 8.91075 13.2114 8.30792C13.2736 8.23426 13.3337 8.15806 13.3909 8.0789C13.785 7.53153 14.0407 6.86182 14.091 6.19041C14.0936 6.19041 14.0974 6.19126 14.1008 6.19126C14.4094 6.19126 14.6592 5.92583 14.6592 5.59774C14.6592 5.35729 14.5233 5.14944 14.3281 5.05715C14.4411 4.70621 14.5029 4.33113 14.5029 3.93913C14.5029 2.02736 13.0425 0.477959 11.2399 0.477959C9.43735 0.477959 7.97685 2.02736 7.97685 3.93913C7.97685 4.33113 8.03908 4.70621 8.15169 5.05715C7.95738 5.14944 7.82191 5.35687 7.82191 5.59774Z" fill="#979797"/>
<path d="M13.6755 10.2908C13.6315 10.2658 13.5815 10.2544 13.5307 10.2544H13.372C13.322 10.2544 13.2721 10.2658 13.2285 10.29C12.6997 10.5736 11.9754 10.7357 11.2405 10.7357C10.5056 10.7357 9.78126 10.5728 9.25294 10.29C9.20849 10.2658 9.15854 10.2544 9.10901 10.2544H8.99344C8.97016 10.2544 8.94645 10.2561 8.92359 10.262C7.12824 10.6871 5.45904 11.6116 4.09718 12.9341C4.03749 12.9913 4.00404 13.0696 4.00404 13.1517V14.2388C4.00404 14.4065 4.13993 14.5423 4.30884 14.5423H18.1738C18.3415 14.5423 18.4774 14.4069 18.4774 14.2388V13.1517C18.4774 13.07 18.4443 12.9913 18.3851 12.9341C17.052 11.6396 15.4251 10.7273 13.6755 10.2908Z" fill="#979797"/>
</svg>
