<svg width="20" height="24" viewBox="0 0 20 24" fill="none" xmlns="http://www.w3.org/2000/svg">
<path d="M19.875 5.50777L14.7161 0.375H3.35536C2.56838 0.375 1.92188 0.977719 1.92188 1.76466V9.10528C1.92188 9.10388 1.96983 9.09375 2.0017 9.09375H2.625V1.76466C2.625 1.3718 2.9625 1.07812 3.35536 1.07812H14.3983L14.625 1.2907V4.17788C14.625 4.96158 15.2623 5.57812 16.046 5.57812H18.9332L19.125 5.80289V22.1882C19.125 22.581 18.8521 22.9219 18.4592 22.9219H3.35536C2.9625 22.9219 2.625 22.581 2.625 22.1882V19.3594H2.0017C1.96983 19.3594 1.92188 19.3611 1.92188 19.3597V22.1881C1.92188 22.9751 2.56838 23.625 3.35536 23.625H18.4593C19.2462 23.625 19.875 22.9751 19.875 22.1882V5.50777ZM16.046 4.875C15.6532 4.875 15.3281 4.57073 15.3281 4.17788V2.07337V2.05973L18.1642 4.875H16.046Z" fill="#8C8C8C"/>
<path d="M3.60497 13.0312H3.23438V15.5625H3.52153C3.89231 15.5625 4.16419 15.4515 4.3372 15.2363C4.51022 15.021 4.59675 14.6903 4.59675 14.2475C4.59675 13.8334 4.51486 13.5286 4.35113 13.3289C4.18734 13.1291 3.93862 13.0312 3.60497 13.0312Z" fill="#8C8C8C"/>
<path d="M8.70908 12.9698C8.09732 12.9698 7.79146 13.4106 7.79146 14.2921C7.79146 15.1655 8.09526 15.6022 8.7029 15.6022C9.01185 15.6022 9.24097 15.4961 9.39036 15.2839C9.53971 15.0718 9.61438 14.7412 9.61438 14.2921C9.61438 13.8411 9.53868 13.5079 9.38727 13.2926C9.23591 13.0774 9.00983 12.9698 8.70908 12.9698Z" fill="#8C8C8C"/>
<path d="M15.4501 9.79688H1.42491C0.637969 9.79688 0 10.4348 0 11.2218V17.1845C0 17.9714 0.637969 18.6094 1.42491 18.6094H15.4501C16.237 18.6094 16.875 17.9714 16.875 17.1845V11.2218C16.875 10.4348 16.237 9.79688 15.4501 9.79688ZM5.24095 15.9401C4.82588 16.3479 4.24247 16.5469 3.49064 16.5469H2.01562V12.0469H3.59259C4.31761 12.0469 4.87739 12.2287 5.27184 12.5994C5.6663 12.9702 5.86355 13.5015 5.86355 14.2018C5.8635 14.9557 5.65598 15.5323 5.24095 15.9401ZM10.3405 16.0254C9.96764 16.4209 9.42178 16.6186 8.70295 16.6186C7.99434 16.6186 7.45111 16.4199 7.07316 16.0223C6.69516 15.6248 6.5062 15.046 6.5062 14.2859C6.5062 13.5341 6.69413 12.96 7.07006 12.5634C7.44595 12.1669 7.99233 11.9686 8.70914 11.9686C9.42797 11.9686 9.9728 12.1654 10.3436 12.5588C10.7144 12.9522 10.8998 13.53 10.8998 14.2921C10.8997 15.0522 10.7133 15.6299 10.3405 16.0254ZM13.7948 15.6207C13.9945 15.6207 14.1942 15.5928 14.3817 15.5373C14.5691 15.4816 14.7656 15.4148 14.9531 15.3364V16.3684C14.5781 16.5353 14.1438 16.6187 13.668 16.6187C12.9862 16.6187 12.4605 16.4209 12.0969 16.0255C11.7333 15.63 11.5501 15.0584 11.5501 14.3107C11.5501 13.8431 11.6374 13.4322 11.8135 13.0779C11.9896 12.7237 12.2426 12.4512 12.5732 12.2607C12.9038 12.0701 13.2924 11.9749 13.7394 11.9749C14.2275 11.9749 14.694 12.081 15.1389 12.2931L14.765 13.254C14.5981 13.1758 14.4313 13.1099 14.2644 13.0563C14.0976 13.0027 13.9184 12.9759 13.7268 12.9759C13.4364 12.9759 13.2098 13.0949 13.0471 13.3328C12.8843 13.5707 12.803 13.8987 12.803 14.3168C12.803 15.1861 13.1336 15.6207 13.7948 15.6207Z" fill="#8C8C8C"/>
</svg>
