<svg width="20" height="24" viewBox="0 0 20 24" fill="none" xmlns="http://www.w3.org/2000/svg">
<path d="M19.875 5.50777L14.7161 0.375H3.35536C2.56838 0.375 1.92188 0.977719 1.92188 1.76466V9.10528C1.92188 9.10388 1.96983 9.09375 2.0017 9.09375H2.625V1.76466C2.625 1.3718 2.9625 1.07812 3.35536 1.07812H14.3983L14.625 1.2907V4.17788C14.625 4.96158 15.2623 5.57812 16.046 5.57812H18.9332L19.125 5.80289V22.1882C19.125 22.581 18.8521 22.9219 18.4592 22.9219H3.35536C2.9625 22.9219 2.625 22.581 2.625 22.1882V19.3594H2.0017C1.96983 19.3594 1.92188 19.3611 1.92188 19.3597V22.1881C1.92188 22.9751 2.56838 23.625 3.35536 23.625H18.4593C19.2462 23.625 19.875 22.9751 19.875 22.1882V5.50777ZM16.046 4.875C15.6532 4.875 15.3281 4.57073 15.3281 4.17788V2.07337V2.05973L18.1642 4.875H16.046Z" fill="#8C8C8C"/>
<path d="M15.4501 9.79688H1.42491C0.637969 9.79688 0 10.4348 0 11.2218V17.1845C0 17.9714 0.637969 18.6094 1.42491 18.6094H15.4501C16.237 18.6094 16.875 17.9714 16.875 17.1845V11.2218C16.875 10.4348 16.237 9.79688 15.4501 9.79688ZM7.54688 16.3467C7.03125 16.528 6.432 16.6186 5.79759 16.6186C5.10136 16.6186 4.5615 16.4168 4.18144 16.0131C3.80142 15.6094 3.6105 15.0336 3.6105 14.2859C3.6105 13.5567 3.81806 12.9893 4.23417 12.5835C4.65019 12.1777 5.23294 11.9748 5.9827 11.9748C6.26695 11.9748 6.53512 12.0016 6.78745 12.0552C7.03973 12.1088 7.25958 12.1767 7.44703 12.2591L7.06083 13.2169C6.73533 13.0562 6.378 12.9759 5.9887 12.9759C5.63231 12.9759 5.35683 13.0918 5.1622 13.3235C4.96753 13.5552 4.87022 13.8863 4.87022 14.3168C4.87022 14.7391 4.95825 15.0609 5.13441 15.2823C5.31052 15.5038 5.55361 15.6145 5.88525 15.6145C6.06647 15.6145 6.23442 15.597 6.37505 15.562V14.8594H5.57817V13.9219H7.54692L7.54688 16.3467ZM9.70312 16.5469H8.4375V12.0469H9.70312V16.5469ZM13.3125 13.0312H11.8594V13.875H13.2188V14.8594H11.8594V16.5469H10.6406V12.0469H13.3125V13.0312Z" fill="#8C8C8C"/>
</svg>
