<svg width="20" height="24" viewBox="0 0 20 24" fill="none" xmlns="http://www.w3.org/2000/svg">
<path d="M19.875 5.50777L14.7161 0.375H3.35536C2.56838 0.375 1.92188 0.977719 1.92188 1.76466V9.10528C1.92188 9.10388 1.96983 9.09375 2.0017 9.09375H2.625V1.76466C2.625 1.3718 2.9625 1.07812 3.35536 1.07812H14.3983L14.625 1.2907V4.17788C14.625 4.96158 15.2623 5.57812 16.046 5.57812H18.9332L19.125 5.80289V22.1882C19.125 22.581 18.8521 22.9219 18.4592 22.9219H3.35536C2.9625 22.9219 2.625 22.581 2.625 22.1882V19.3594H2.0017C1.96983 19.3594 1.92188 19.3611 1.92188 19.3597V22.1881C1.92188 22.9751 2.56838 23.625 3.35536 23.625H18.4593C19.2462 23.625 19.875 22.9751 19.875 22.1882V5.50777ZM16.046 4.875C15.6532 4.875 15.3281 4.57073 15.3281 4.17788V2.07337V2.05973L18.1642 4.875H16.046Z" fill="#8C8C8C"/>
<path d="M15.4501 9.79688H1.42491C0.637969 9.79688 0 10.4348 0 11.2218V17.1845C0 17.9714 0.637969 18.6094 1.42491 18.6094H15.4501C16.237 18.6094 16.875 17.9714 16.875 17.1845V11.2218C16.875 10.4348 16.237 9.79688 15.4501 9.79688Z" fill="#8C8C8C"/>
<path d="M5.67432 11.9619H7.18848V17H6.20752V13.5923C6.20752 13.4943 6.20866 13.3576 6.21094 13.1821C6.21322 13.0044 6.21436 12.8677 6.21436 12.772L5.26074 17H4.23877L3.29199 12.772C3.29199 12.8677 3.29313 13.0044 3.29541 13.1821C3.29769 13.3576 3.29883 13.4943 3.29883 13.5923V17H2.31787V11.9619H3.84912L4.76514 15.9233L5.67432 11.9619ZM11.0029 13.5649C11.0029 13.3029 10.9334 13.116 10.7944 13.0044C10.6577 12.8927 10.4652 12.8369 10.2168 12.8369H9.23584V14.3203H10.2168C10.4652 14.3203 10.6577 14.2599 10.7944 14.1392C10.9334 14.0184 11.0029 13.827 11.0029 13.5649ZM12.0454 13.5581C12.0454 14.1528 11.895 14.5732 11.5942 14.8193C11.2935 15.0654 10.8639 15.1885 10.3057 15.1885H9.23584V17H8.18994V11.9619H10.3843C10.8901 11.9619 11.2935 12.0918 11.5942 12.3516C11.895 12.6113 12.0454 13.0135 12.0454 13.5581ZM15.9624 15.9336H15.4019V17H14.4482V15.9336H12.4863V15.0825L14.3081 12.0747H15.4019V15.1714H15.9624V15.9336ZM14.4482 15.1714V13.0317L13.2075 15.1714H14.4482Z" fill="white"/>
</svg>
