<svg width="24" height="24" viewBox="0 0 24 24" fill="none" xmlns="http://www.w3.org/2000/svg">
<path d="M11 10C10.4258 10.4295 9.95079 10.9774 9.60703 11.6065C9.26328 12.2357 9.05886 12.9315 9.00764 13.6466C8.95642 14.3618 9.05961 15.0796 9.31019 15.7513C9.56078 16.4231 9.9529 17.0331 10.46 17.54L13.46 20.54C14.403 21.4508 15.666 21.9548 16.977 21.9434C18.288 21.932 19.542 21.4061 20.4691 20.4791C21.3961 19.5521 21.922 18.298 21.9333 16.987C21.9447 15.676 21.4408 14.413 20.53 13.47L18.82 11.75" stroke="#4F4F4F" stroke-linecap="round" stroke-linejoin="round"/>
<path d="M13 14C13.5741 13.5705 14.0492 13.0226 14.393 12.3934C14.7367 11.7642 14.9411 11.0684 14.9924 10.3533C15.0436 9.63816 14.9404 8.92037 14.6898 8.24861C14.4392 7.57685 14.0471 6.96684 13.54 6.45996L10.54 3.45996C9.59701 2.54917 8.334 2.04519 7.02301 2.05659C5.71203 2.06798 4.45797 2.59382 3.53093 3.52086C2.60389 4.4479 2.07804 5.70197 2.06665 7.01295C2.05526 8.32393 2.55923 9.58694 3.47002 10.53L5.18002 12.24" stroke="#4F4F4F" stroke-linecap="round" stroke-linejoin="round"/>
</svg>
