<?xml version="1.0" encoding="UTF-8"?>
<svg width="30px" height="30px" viewBox="0 0 30 30" version="1.1" xmlns="http://www.w3.org/2000/svg" xmlns:xlink="http://www.w3.org/1999/xlink">
    <!-- Generator: Sketch 61 (89581) - https://sketch.com -->
    <title>iconfinder_document_file_extension_format_type_pdf_685112 copy</title>
    <desc>Created with Sketch.</desc>
    <g id="Page-1" stroke="none" stroke-width="1" fill="none" fill-rule="evenodd">
        <g id="1" transform="translate(-385.000000, -636.000000)">
            <g id="iconfinder_document_file_extension_format_type_pdf_685112-copy" transform="translate(385.000000, 636.000000)">
                <g id="pdf">
                    <path d="M20.0769239,0.69230772 L20.0769239,6.23076948 C20.0769239,7.76007723 21.316847,9.00000036 22.8461548,9.00000036 L28.7307704,9.00000036" id="XMLID_173_"></path>
                    <path d="M4.72153865,5.2148079 C4.64296172,5.17326944 4.55434633,5.18607713 4.45500018,5.17223097 C4.35565402,5.15873097 4.25319248,5.1923079 4.14692324,5.1923079 L3.4615386,5.1923079 L3.4615386,6.23076948 L4.12615401,6.23076948 C4.23692325,6.23076948 4.34319248,6.23976948 4.44461556,6.22142332 C4.54603864,6.20307717 4.63707711,6.17988486 4.71807711,6.1338464 C4.79907711,6.08780793 4.86242327,6.0310387 4.90846173,5.95488485 C4.9545002,5.878731 4.97769251,5.78526946 4.97769251,5.67000023 C4.97769251,5.55473099 4.9545002,5.46092329 4.90846173,5.38719252 C4.86242327,5.3131156 4.80011558,5.25669252 4.72153865,5.2148079 Z" id="XMLID_2827_" fill="#0063E8" fill-rule="nonzero"></path>
                    <path d="M9.72346192,7.721308 C9.87334655,7.61053876 9.99346194,7.46273107 10.0834619,7.27823106 C10.1734619,7.09373105 10.2184619,6.8652695 10.2184619,6.59284642 C10.2184619,6.31592333 10.1734619,6.08642332 10.0834619,5.90400023 C9.99346194,5.72157715 9.87334655,5.57619253 9.72346192,5.46784637 C9.57323115,5.35950021 9.4025773,5.2951156 9.21115421,5.24873098 C9.01973113,5.20234636 8.82207727,5.1923079 8.61923111,5.1923079 L7.96153878,5.1923079 L7.96153878,7.96153878 L8.5915388,7.96153878 C8.80373112,7.96153878 9.0079619,7.97296186 9.20423113,7.92450031 C9.40015422,7.87603877 9.57323115,7.83173108 9.72346192,7.721308 Z" id="XMLID_2828_" fill="#0063E8" fill-rule="nonzero"></path>
                    <path d="M28.7844242,8.09169263 L20.9582316,0.5784231 C20.5695008,0.205615393 20.0585777,0 19.5199623,0 L7.26923106,0 C5.85276946,0 4.63396172,0.856038496 4.09880786,2.07692316 L2.07692316,2.07692316 C0.931500037,2.07692316 0,3.0084232 0,4.15384632 L0,9 C0,10.1454235 0.931500037,11.0769235 2.07692316,11.0769235 L15.9230776,11.0769235 C17.0685007,11.0769235 18,10.1454235 18,9 L18,4.15384632 C18,3.0084232 17.0685007,2.07692316 15.9230776,2.07692316 L5.72538484,2.07692316 C6.10580793,1.65323083 6.65584642,1.38461544 7.26923106,1.38461544 L19.3846162,1.38461544 L19.3846162,6.23076948 C19.3846162,8.13946186 20.9374624,9.69230808 22.8461548,9.69230808 L28.0384627,9.69230808 L28.0384627,25.6153856 C28.0384627,26.7608088 27.1069626,27.6923088 25.9615395,27.6923088 L7.26923106,27.6923088 C6.12380794,27.6923088 5.1923079,26.7608088 5.1923079,25.6153856 L5.1923079,12.1153851 L3.80769246,12.1153851 L3.80769246,25.6153856 C3.80769246,27.524078 5.36053867,29.0769242 7.26923106,29.0769242 L25.9615395,29.0769242 C27.8702319,29.0769242 29.4230781,27.524078 29.4230781,25.6153856 L29.4230781,9.59019269 C29.4230781,9.02769267 29.1904627,8.48146188 28.7844242,8.09169263 Z M12.1153851,4.15384632 L15.5769237,4.15384632 L15.5769237,5.1923079 L13.5000005,5.1923079 L13.5000005,6.23076948 L15.2307698,6.23076948 L15.2307698,7.26923106 L13.5000005,7.26923106 L13.5000005,9.00000036 L12.1153851,9.00000036 L12.1153851,4.15384632 Z M6.9230772,4.15384632 L8.64692342,4.15384632 C8.99307728,4.15384632 9.33438499,4.19538478 9.67153885,4.27603863 C10.0083466,4.35669248 10.3084619,4.49100018 10.5715389,4.67792326 C10.8346158,4.86484635 11.0468081,5.11546174 11.208462,5.42942329 C11.3701158,5.74338484 11.4507697,6.13107717 11.4507697,6.59250026 C11.4507697,7.02173105 11.3711543,7.39211568 11.2119235,7.70365415 C11.0526927,8.01519263 10.8425774,8.27134648 10.5819235,8.47211572 C10.3212696,8.67288496 10.0266927,8.79196189 9.69923115,8.88646189 C9.37142345,8.98130805 9.03911574,9.00000036 8.70230804,9.00000036 L6.9230772,9.00000036 L6.9230772,4.15384632 Z M6.01269255,4.9551925 C6.1120387,5.14696174 6.16153871,5.38338483 6.16153871,5.66480792 C6.16153871,5.95107716 6.10823101,6.19200025 6.00230793,6.38826948 C5.8960387,6.58453872 5.75307715,6.74238488 5.57307714,6.86250027 C5.39307714,6.98261566 5.18538482,7.10030797 4.9500002,7.15569259 C4.71461557,7.21142336 4.46988479,7.26923106 4.21615401,7.26923106 L3.4615386,7.26923106 L3.4615386,9.00000036 L2.42307702,9.00000036 L2.42307702,4.15384632 L4.24384632,4.15384632 C4.51142326,4.15384632 4.76203865,4.18153863 4.9950002,4.23450017 C5.22796175,4.28780786 5.43115406,4.37365402 5.60423099,4.49134633 C5.77730792,4.60903864 5.91334639,4.76376942 6.01269255,4.9551925 Z M22.8461548,8.30769264 C21.7007316,8.30769264 20.7692316,7.3761926 20.7692316,6.23076948 L20.7692316,2.31680778 L27.0100395,8.30769264 L22.8461548,8.30769264 Z" id="XMLID_2832_" fill="#0063E8" fill-rule="nonzero"></path>
                    <rect id="XMLID_2369_" fill="#0063E8" fill-rule="nonzero" x="8.6538465" y="14.5384621" width="6.23076948" height="1.38461544"></rect>
                    <rect id="XMLID_2368_" fill="#0063E8" fill-rule="nonzero" x="8.6538465" y="23.5384625" width="15.9230776" height="1.38461544"></rect>
                    <rect id="XMLID_2367_" fill="#0063E8" fill-rule="nonzero" x="17.307693" y="20.4230777" width="7.26923106" height="1.38461544"></rect>
                    <rect id="XMLID_2366_" fill="#0063E8" fill-rule="nonzero" x="17.307693" y="17.6538469" width="2.76923088" height="1.38461544"></rect>
                    <rect id="XMLID_2365_" fill="#0063E8" fill-rule="nonzero" x="17.307693" y="14.5384621" width="7.26923106" height="1.38461544"></rect>
                    <rect id="XMLID_2364_" fill="#0063E8" fill-rule="nonzero" x="21.4615393" y="17.6538469" width="3.11538474" height="1.38461544"></rect>
                    <path d="M15.9230776,21.8076932 L8.6538465,21.8076932 L8.6538465,14.5384621 L15.9230776,14.5384621 L15.9230776,21.8076932 Z M10.0384619,20.4230776 L14.5384619,20.4230776 L14.5384619,15.9230776 L10.0384619,15.9230776 L10.0384619,20.4230776 Z" id="XMLID_2361_" fill="#0063E8" fill-rule="nonzero"></path>
                </g>
            </g>
        </g>
    </g>
</svg>