<svg width="58" height="22" viewBox="0 0 58 22" fill="none" xmlns="http://www.w3.org/2000/svg">
<rect x="0.5" y="0.5" width="57" height="21" rx="3.5" stroke="#27AE60"/>
<path d="M15.583 13.6826H11.7275L10.9209 16H9.12305L12.8828 6.04688H14.4346L18.2012 16H16.3965L15.583 13.6826ZM12.2129 12.2881H15.0977L13.6553 8.15918L12.2129 12.2881ZM22.2139 14.8105C22.6286 14.8105 22.9727 14.6898 23.2461 14.4482C23.5195 14.2067 23.6654 13.9082 23.6836 13.5527H25.249C25.2308 14.013 25.0872 14.4437 24.8184 14.8447C24.5495 15.2412 24.1849 15.5557 23.7246 15.7881C23.2643 16.0205 22.7676 16.1367 22.2344 16.1367C21.1999 16.1367 20.3796 15.8018 19.7734 15.1318C19.1673 14.4619 18.8643 13.5368 18.8643 12.3564V12.1855C18.8643 11.0599 19.165 10.1598 19.7666 9.48535C20.3682 8.80632 21.1885 8.4668 22.2275 8.4668C23.1071 8.4668 23.8226 8.72428 24.374 9.23926C24.93 9.74967 25.2217 10.4219 25.249 11.2559H23.6836C23.6654 10.832 23.5195 10.4834 23.2461 10.21C22.9772 9.93652 22.6331 9.7998 22.2139 9.7998C21.6761 9.7998 21.2614 9.99577 20.9697 10.3877C20.6781 10.7751 20.5299 11.3652 20.5254 12.1582V12.4248C20.5254 13.2269 20.6689 13.8262 20.9561 14.2227C21.2477 14.6146 21.667 14.8105 22.2139 14.8105ZM28.585 6.80566V8.60352H29.8906V9.83398H28.585V13.9629C28.585 14.2454 28.6396 14.4505 28.749 14.5781C28.863 14.7012 29.0635 14.7627 29.3506 14.7627C29.542 14.7627 29.7357 14.7399 29.9316 14.6943V15.9795C29.5534 16.0843 29.1888 16.1367 28.8379 16.1367C27.5618 16.1367 26.9238 15.4326 26.9238 14.0244V9.83398H25.707V8.60352H26.9238V6.80566H28.585ZM32.9326 16H31.2715V8.60352H32.9326V16ZM31.1689 6.68262C31.1689 6.42741 31.2487 6.21549 31.4082 6.04688C31.5723 5.87826 31.8047 5.79395 32.1055 5.79395C32.4062 5.79395 32.6387 5.87826 32.8027 6.04688C32.9668 6.21549 33.0488 6.42741 33.0488 6.68262C33.0488 6.93327 32.9668 7.1429 32.8027 7.31152C32.6387 7.47559 32.4062 7.55762 32.1055 7.55762C31.8047 7.55762 31.5723 7.47559 31.4082 7.31152C31.2487 7.1429 31.1689 6.93327 31.1689 6.68262ZM37.3555 13.8945L38.9209 8.60352H40.6367L38.0732 16H36.6309L34.0469 8.60352H35.7695L37.3555 13.8945ZM44.8408 16.1367C43.7881 16.1367 42.9336 15.8063 42.2773 15.1455C41.6257 14.4801 41.2998 13.596 41.2998 12.4932V12.2881C41.2998 11.5498 41.4411 10.8913 41.7236 10.3125C42.0107 9.72917 42.4118 9.27572 42.9268 8.95215C43.4417 8.62858 44.016 8.4668 44.6494 8.4668C45.6566 8.4668 46.4336 8.78809 46.9805 9.43066C47.5319 10.0732 47.8076 10.9824 47.8076 12.1582V12.8281H42.9746C43.0247 13.4388 43.2275 13.9219 43.583 14.2773C43.943 14.6328 44.3942 14.8105 44.9365 14.8105C45.6976 14.8105 46.3174 14.5029 46.7959 13.8877L47.6914 14.7422C47.3952 15.1842 46.9987 15.5283 46.502 15.7744C46.0098 16.016 45.4561 16.1367 44.8408 16.1367ZM44.6426 9.7998C44.1868 9.7998 43.8177 9.95931 43.5352 10.2783C43.2572 10.5973 43.0794 11.0417 43.002 11.6113H46.167V11.4883C46.1305 10.9323 45.9824 10.513 45.7227 10.2305C45.4629 9.94336 45.1029 9.7998 44.6426 9.7998Z" fill="#27AE60"/>
</svg>
