<?xml version="1.0" encoding="UTF-8"?>
<svg width="35px" height="36px" viewBox="0 0 35 36" version="1.1" xmlns="http://www.w3.org/2000/svg" xmlns:xlink="http://www.w3.org/1999/xlink">
    <!-- Generator: Sketch 52.2 (67145) - http://www.bohemiancoding.com/sketch -->
    <title>icon-Activities-Restrictions</title>
    <desc>Created with Sketch.</desc>
    <g id="Symbols" stroke="none" stroke-width="1" fill="none" fill-rule="evenodd">
        <g id="Card-Visit-Hospital-Welcome" transform="translate(-16.000000, -202.000000)" fill="#FFFFFF" fill-rule="nonzero">
            <g id="icon-Activities-Restrictions" transform="translate(15.500000, 202.000000)">
                <path d="M34.236677,13.1755563 C33.4347869,12.4175034 32.3685659,12 31.2342914,12 C30.1052838,12 29.0429387,12.4140457 28.2425163,13.1663657 C26.5885453,14.7234536 26.5853587,17.261698 28.2357939,18.8248528 C29.0366424,19.5826224 30.1019165,19.9999176 31.2354128,20 C31.2355017,20 31.2355905,20 31.2355905,20 C32.3652017,20 33.4283219,19.5848224 34.2291703,18.8307852 C35.8812386,17.2751645 35.8850379,14.738594 34.236677,13.1755563 Z" id="Path"></path>
                <path d="M19.4773109,0.0287418352 L19.2132042,12.4208528 C18.5381862,12.343836 17.8572549,12.3049867 17.1790955,12.3049867 C15.9266318,12.3049867 14.7157859,12.440211 13.5808011,12.7068705 C11.846763,13.113309 10.318363,13.7618322 9.03765115,14.6343321 C8.01566557,15.3306202 7.45857798,15.9670989 7.26648454,16.2084178 L6.75871998,16.8461469 L6.84014718,16.9043527 C6.75638781,17.0739937 6.68661358,17.2494398 6.63128483,17.4299268 L0.529411765,34.364439 L4.61161363,35.8483874 L9.95730834,23.3510806 L15.1799662,36 L19.258669,34.6833219 L14.2847834,20.2525695 C14.581445,20.1284129 14.9546942,20.0008891 15.4113363,19.8941877 C15.9467246,19.768735 16.5374401,19.7051458 17.1672593,19.7051458 C18.2538116,19.7051458 19.111243,19.8933332 19.2859335,19.9345501 L19.7100319,31.5981513 L23.5227451,31.5693212 L23.8230802,15.8948219 L23.8235294,15.8729708 L23.2162195,0 L19.4773109,0.0287418352 Z" id="Path"></path>
            </g>
        </g>
    </g>
</svg>