<?xml version="1.0" encoding="UTF-8"?>
<svg width="20px" height="20px" viewBox="0 0 20 20" version="1.1" xmlns="http://www.w3.org/2000/svg" xmlns:xlink="http://www.w3.org/1999/xlink">
    <title>alert</title>
    <g id="Page-1" stroke="none" stroke-width="1" fill="none" fill-rule="evenodd">
        <g id="Home-1.3-Copy" transform="translate(-62.000000, -149.000000)" fill="#E02020" fill-rule="nonzero">
            <g id="Group-6" transform="translate(50.000000, 131.000000)">
                <g id="alert" transform="translate(12.000000, 18.763275)">
                    <path d="M19.4204424,13.8228106 L12.5833048,1.37464375 C11.4848039,-0.456997554 8.80699269,-0.459431206 7.70701741,1.37464375 L0.870220052,13.8228106 C-0.252739111,15.6944387 1.1068255,18.0645161 3.30779673,18.0645161 L16.9822987,18.0645161 C19.1814176,18.0645161 20.5434016,15.6963482 19.4204424,13.8228106 Z M10.1451611,15.8180682 C9.51998444,15.8180682 9.01108805,15.3140402 9.01108805,14.6948443 C9.01108805,14.0756483 9.51998444,13.5716203 10.1451611,13.5716203 C10.7703378,13.5716203 11.2792342,14.0756483 11.2792342,14.6948443 C11.2792342,15.3140402 10.7703378,15.8180682 10.1451611,15.8180682 Z M11.2792342,11.3251724 C11.2792342,11.9443683 10.7703378,12.4483964 10.1451611,12.4483964 C9.51998444,12.4483964 9.01108805,11.9443683 9.01108805,11.3251724 L9.01108805,5.70905265 C9.01108805,5.08985673 9.51998444,4.5858287 10.1451611,4.5858287 C10.7703378,4.5858287 11.2792342,5.08985673 11.2792342,5.70905265 L11.2792342,11.3251724 Z" id="Shape"></path>
                </g>
            </g>
        </g>
    </g>
</svg>