<svg width="50" height="50" viewBox="0 0 50 50" fill="none" xmlns="http://www.w3.org/2000/svg">
<path d="M25 48.5C37.9787 48.5 48.5 37.9787 48.5 25C48.5 12.0213 37.9787 1.5 25 1.5C12.0213 1.5 1.5 12.0213 1.5 25C1.5 37.9787 12.0213 48.5 25 48.5Z" fill="white" stroke="#E8A48C" stroke-width="3"/>
<rect x="4" y="4" width="42" height="42" rx="21" fill="#E8A48C"/>
<path d="M33.5939 16.4558C32.6577 15.486 31.4271 14.9997 30.2001 15C28.9731 14.9997 27.7426 15.4857 26.8061 16.4558L16.025 27.6179C15.3423 28.3243 14.9995 29.2542 15 30.1799C14.9995 31.1059 15.3423 32.0353 16.025 32.742C16.7072 33.4489 17.6054 33.8038 18.5 33.8035C19.3941 33.8038 20.2917 33.4491 20.9742 32.7425L30.2834 23.1042C30.7124 22.6602 30.9283 22.0747 30.9278 21.4929C30.9283 20.9114 30.7124 20.3264 30.2839 19.8833C29.8559 19.4396 29.2907 19.2161 28.7295 19.2166C28.1675 19.2161 27.6021 19.4399 27.1736 19.8848L19.704 27.6179C19.5562 27.7707 19.5562 28.0188 19.7038 28.1718C19.8516 28.3248 20.0912 28.3248 20.239 28.1718L27.7085 20.4385C27.9915 20.1452 28.3585 20.0005 28.7292 20C29.0995 20.0005 29.4662 20.1449 29.7484 20.4372C30.0306 20.7294 30.1704 21.1091 30.1709 21.4929C30.1704 21.8771 30.0306 22.2575 29.7482 22.5503L20.439 32.1884C19.9025 32.7433 19.2029 33.0196 18.5 33.0198C17.7965 33.0196 17.0966 32.7433 16.5602 32.1878C16.0237 31.6321 15.7571 30.9077 15.7566 30.1799C15.7571 29.4522 16.0237 28.7275 16.5602 28.1721L27.3413 17.01C28.132 16.1913 29.1645 15.7842 30.2004 15.7839C31.2362 15.7842 32.2688 16.1921 33.0592 17.01C33.8494 17.8281 34.2431 18.8972 34.2436 19.97C34.2431 21.0425 33.8497 22.1118 33.0595 22.9308L23.0143 33.3314C22.8665 33.4841 22.8663 33.7322 23.0141 33.8852C23.1619 34.0383 23.4015 34.0383 23.5493 33.8852L33.5942 23.4844C34.5309 22.5145 35.0003 21.2399 35 19.9697C35.0003 18.699 34.5304 17.4249 33.5939 16.4558Z" fill="white"/>
</svg>
