<svg width="50" height="50" viewBox="0 0 50 50" fill="none" xmlns="http://www.w3.org/2000/svg">
<path d="M25 48.5C37.9787 48.5 48.5 37.9787 48.5 25C48.5 12.0213 37.9787 1.5 25 1.5C12.0213 1.5 1.5 12.0213 1.5 25C1.5 37.9787 12.0213 48.5 25 48.5Z" fill="white" stroke="#99AFA0" stroke-width="3"/>
<rect x="4" y="4" width="42" height="42" rx="21" fill="#99AFA0"/>
<path d="M18.8976 32.9529C18.9109 32.9821 18.9177 33.0137 18.9177 33.0456C18.9176 33.0927 18.9031 33.1387 18.876 33.1779C18.849 33.2171 18.8105 33.2477 18.7655 33.2659C18.7353 33.2787 18.7026 33.2852 18.6696 33.2851C18.6366 33.285 18.604 33.2784 18.5737 33.2659C18.5441 33.2538 18.5172 33.2365 18.4942 33.2148C18.4483 33.1696 18.4222 33.1089 18.4216 33.0456C18.4214 33.0137 18.4281 32.9822 18.4413 32.9529C18.4538 32.9244 18.4718 32.8985 18.4942 32.8763C18.5163 32.8537 18.5435 32.8362 18.5737 32.8253C18.604 32.8127 18.6366 32.8061 18.6696 32.8061C18.7026 32.8061 18.7352 32.8127 18.7655 32.8253C18.7952 32.8371 18.8221 32.8545 18.8448 32.8764C18.8674 32.8983 18.8854 32.9243 18.8976 32.9529ZM20.3726 32.8253C20.3429 32.8127 20.3108 32.8061 20.2784 32.8061C20.246 32.8061 20.2139 32.8127 20.1843 32.8253C20.1536 32.8353 20.1262 32.8529 20.1048 32.8763C20.0807 32.8979 20.0614 32.9241 20.0483 32.9532C20.0352 32.9824 20.0285 33.0138 20.0286 33.0456C20.0289 33.0774 20.0357 33.1089 20.0486 33.1382C20.0623 33.1669 20.0813 33.1928 20.1047 33.2148C20.1269 33.2373 20.154 33.2547 20.1841 33.2659C20.2132 33.2784 20.2446 33.2849 20.2765 33.2851C20.3095 33.2853 20.3422 33.2787 20.3724 33.2659C20.4019 33.2538 20.4289 33.2365 20.4518 33.2148C20.4749 33.1926 20.4931 33.1662 20.5056 33.1372C20.5181 33.1081 20.5245 33.077 20.5245 33.0455C20.5245 33.0141 20.5181 32.983 20.5056 32.9539C20.4931 32.9249 20.4749 32.8985 20.4518 32.8763C20.4298 32.8537 20.4027 32.8362 20.3726 32.8253ZM22.0626 32.8763C22.0151 32.8332 21.9524 32.8093 21.8872 32.8093C21.8221 32.8093 21.7594 32.8332 21.7119 32.8763C21.6654 32.9212 21.6392 32.9821 21.6392 33.0456C21.6402 33.077 21.6458 33.1082 21.6557 33.1382C21.6695 33.1668 21.6885 33.1928 21.7119 33.2148C21.7348 33.2365 21.7618 33.2538 21.7913 33.2659C21.8216 33.2787 21.8542 33.2852 21.8872 33.2851C21.9361 33.2851 21.9838 33.2712 22.0244 33.2451C22.0651 33.2189 22.0968 33.1817 22.1155 33.1382C22.1281 33.1088 22.1348 33.0774 22.1353 33.0456C22.1355 33.0137 22.1287 32.9822 22.1155 32.9529C22.103 32.9244 22.085 32.8985 22.0626 32.8763ZM35 25.8193C35.0002 26.0186 34.9598 26.2159 34.8809 26.4C34.802 26.5842 34.6863 26.7515 34.5404 26.8924C34.3945 27.0333 34.2212 27.145 34.0305 27.2211C33.8398 27.2972 33.6354 27.3363 33.4291 27.3361H32.3543V31.5673C32.3543 31.6308 32.3281 31.6917 32.2816 31.7366C32.2351 31.7815 32.172 31.8067 32.1063 31.8067H30.7008V32.8445C30.7007 32.908 30.6746 32.9689 30.6281 33.0138C30.5816 33.0587 30.5185 33.084 30.4527 33.084H29.0472V34.7605C29.0472 34.824 29.021 34.8849 28.9745 34.9298C28.928 34.9747 28.8649 35 28.7992 35H16.8937C16.8279 35 16.7648 34.9747 16.7183 34.9298C16.6718 34.8849 16.6457 34.824 16.6456 34.7605V27.3361H15.5708C15.1542 27.3361 14.7547 27.1763 14.4601 26.8918C14.1655 26.6074 14 26.2216 14 25.8193C14 25.417 14.1655 25.0312 14.4601 24.7468C14.7547 24.4623 15.1542 24.3025 15.5708 24.3025H16.6456V19.7522C16.6456 19.6887 16.6718 19.6277 16.7183 19.5828C16.7648 19.5379 16.8279 19.5127 16.8937 19.5127H18.2992V17.8362C18.2992 17.7727 18.3253 17.7118 18.3718 17.6669C18.4184 17.622 18.4814 17.5967 18.5472 17.5967H20.2834V16.2395C20.2834 16.176 20.3096 16.1151 20.3561 16.0702C20.4026 16.0253 20.4657 16 20.5315 16H32.1063C32.172 16 32.2351 16.0253 32.2816 16.0702C32.3282 16.1151 32.3543 16.176 32.3543 16.2395V24.3025H33.4291C33.8456 24.303 34.2449 24.4629 34.5394 24.7473C34.8339 25.0316 34.9995 25.4172 35 25.8193ZM16.6456 24.7815H15.5708C15.4292 24.7807 15.2888 24.807 15.1576 24.8588C15.0265 24.9106 14.9073 24.9869 14.8069 25.0834C14.7064 25.1798 14.6267 25.2945 14.5723 25.4208C14.5179 25.5471 14.4899 25.6825 14.4899 25.8193C14.4899 25.9561 14.5179 26.0916 14.5723 26.2179C14.6267 26.3442 14.7064 26.4588 14.8069 26.5553C14.9073 26.6517 15.0265 26.728 15.1576 26.7798C15.2888 26.8317 15.4292 26.8579 15.5708 26.8571H16.6456V24.7815ZM28.5512 27.3361H24.3922C24.3347 27.692 24.1473 28.0164 23.8638 28.2507C23.5804 28.485 23.2196 28.6137 22.8465 28.6137C22.4733 28.6137 22.1125 28.485 21.8291 28.2507C21.5456 28.0164 21.3582 27.692 21.3007 27.3361H17.1417V34.521H28.5512V27.3361ZM22.8465 28.1345C23.059 28.1345 23.2668 28.0736 23.4436 27.9595C23.6203 27.8455 23.7581 27.6834 23.8394 27.4938C23.9208 27.3041 23.9421 27.0955 23.9006 26.8942C23.8591 26.6928 23.7567 26.5079 23.6064 26.3628C23.4561 26.2176 23.2646 26.1188 23.0561 26.0788C22.8476 26.0387 22.6315 26.0593 22.4351 26.1378C22.2387 26.2164 22.0708 26.3494 21.9527 26.5201C21.8346 26.6907 21.7716 26.8914 21.7716 27.0966C21.7719 27.3718 21.8853 27.6356 22.0868 27.8301C22.2883 28.0247 22.5615 28.1341 22.8465 28.1345ZM28.5512 23.185H25.4921C25.4264 23.185 25.3633 23.1597 25.3168 23.1148C25.2703 23.0699 25.2441 23.009 25.2441 22.9455V19.9918H17.1416V26.8571H21.3007C21.3582 26.5012 21.5456 26.1768 21.8291 25.9425C22.1125 25.7083 22.4733 25.5795 22.8465 25.5795C23.2196 25.5795 23.5804 25.7083 23.8638 25.9425C24.1473 26.1768 24.3347 26.5012 24.3922 26.8571H28.5512V23.185ZM28.2004 22.706L25.7401 20.3304V22.706H28.2004ZM30.2047 27.3361H29.0472V32.6051H30.2047V27.3361ZM30.2047 18.0756H18.7952V19.5127H25.4921C25.4974 19.5127 25.5022 19.5153 25.5075 19.5156C25.5294 19.5169 25.5509 19.521 25.5717 19.5279C25.5795 19.5302 25.5872 19.5328 25.5947 19.5359C25.6217 19.5471 25.6464 19.563 25.6675 19.5828L28.9746 22.7761C28.995 22.7965 29.0115 22.8203 29.0232 22.8463C29.0267 22.8536 29.0287 22.8611 29.0314 22.8686C29.0385 22.8886 29.0428 22.9094 29.0441 22.9305C29.0445 22.9356 29.0472 22.9402 29.0472 22.9454V26.8571H30.2047V18.0756ZM31.8582 27.3361H30.7008V31.3277H31.8582V27.3361ZM31.8582 16.4791H20.7795V17.5967H30.4527C30.5185 17.5967 30.5816 17.622 30.6281 17.6669C30.6746 17.7118 30.7007 17.7727 30.7008 17.8362V26.8571H31.8582V16.4791ZM34.5039 25.8193C34.5036 25.5442 34.3903 25.2804 34.1888 25.0858C33.9872 24.8913 33.714 24.7818 33.4291 24.7815H32.3543V26.8571H33.4291C33.5703 26.8574 33.7102 26.8307 33.8407 26.7786C33.9712 26.7266 34.0898 26.6501 34.1897 26.5537C34.2895 26.4573 34.3687 26.3428 34.4226 26.2168C34.4766 26.0907 34.5042 25.9557 34.5039 25.8193Z" fill="white"/>
</svg>
