<svg width="12" height="12" viewBox="0 0 12 12" fill="none" xmlns="http://www.w3.org/2000/svg">
<path d="M4.24984 0.75L3.18234 1.91667H1.33317C0.691504 1.91667 0.166504 2.44167 0.166504 3.08333V10.0833C0.166504 10.725 0.691504 11.25 1.33317 11.25H10.6665C11.3082 11.25 11.8332 10.725 11.8332 10.0833V3.08333C11.8332 2.44167 11.3082 1.91667 10.6665 1.91667H8.81734L7.74984 0.75H4.24984ZM5.99984 9.5C4.38984 9.5 3.08317 8.19333 3.08317 6.58333C3.08317 4.97333 4.38984 3.66667 5.99984 3.66667C7.60984 3.66667 8.9165 4.97333 8.9165 6.58333C8.9165 8.19333 7.60984 9.5 5.99984 9.5Z" fill="white"/>
</svg>
