<svg width="50" height="50" viewBox="0 0 50 50" fill="none" xmlns="http://www.w3.org/2000/svg">
<path d="M25 48.5C37.9787 48.5 48.5 37.9787 48.5 25C48.5 12.0213 37.9787 1.5 25 1.5C12.0213 1.5 1.5 12.0213 1.5 25C1.5 37.9787 12.0213 48.5 25 48.5Z" fill="white" stroke="#99AFA0" stroke-width="3"/>
<rect x="4" y="4" width="42" height="42" rx="21" fill="#99AFA0"/>
<path d="M24.3682 25.6117H18.0425C16.365 25.6117 15 27.0057 15 28.7194V31.7845C15 32.4548 15.5338 33 16.1898 33H26.2206C26.8766 33 27.4104 32.4548 27.4104 31.7845V28.7194C27.4107 27.006 26.046 25.6117 24.3682 25.6117ZM26.6879 31.7845C26.6879 32.0474 26.4785 32.2613 26.2209 32.2613H16.1901C15.9328 32.2613 15.7234 32.0474 15.7234 31.7845V28.7194C15.7234 27.4131 16.764 26.35 18.0428 26.35H24.3685C25.6476 26.35 26.6879 27.4131 26.6879 28.7194V31.7845ZM21.2055 24.6606C23.082 24.6606 24.6085 22.9422 24.6085 20.8303C24.6085 18.7184 23.082 17 21.2055 17C19.3293 17 17.8028 18.7184 17.8028 20.8303C17.8028 22.9422 19.3293 24.6606 21.2055 24.6606ZM21.2055 17.7384C22.6832 17.7384 23.8854 19.1255 23.8854 20.8303C23.8854 22.5352 22.6829 23.9223 21.2055 23.9223C19.7278 23.9223 18.5256 22.5352 18.5256 20.8303C18.5256 19.1255 19.7278 17.7384 21.2055 17.7384ZM35 29.9333C35 29.9506 34.9981 29.9677 34.9975 29.985C34.9963 30.0156 34.9944 30.0459 34.991 30.0759C34.9889 30.0939 34.9858 30.1116 34.983 30.1292C34.9849 30.1169 34.9883 30.1053 34.9898 30.0929C34.9883 30.1056 34.9849 30.1179 34.9827 30.1305C34.9787 30.1551 34.9744 30.1794 34.9688 30.2037C34.8669 30.6562 34.5163 31.014 34.073 31.1178C34.0499 31.1232 34.0264 31.1276 34.0029 31.1317C33.9844 31.1349 33.9662 31.138 33.9476 31.1402C33.9189 31.1437 33.8899 31.1453 33.8608 31.1465C33.8491 31.1472 33.8377 31.1491 33.8259 31.1491C33.8374 31.1487 33.8485 31.1472 33.8596 31.1465C33.8426 31.1472 33.8256 31.1494 33.8083 31.1494H30.0464C29.8466 31.1494 29.685 30.984 29.685 30.7802C29.685 30.5764 29.8469 30.411 30.0464 30.411H33.8092C34.0678 30.411 34.2772 30.1968 34.2772 29.9345V28.1584C34.2772 28.1174 34.2732 28.077 34.2713 28.0366C34.2692 27.9962 34.2692 27.9552 34.2652 27.9154C34.2652 27.916 34.2655 27.9167 34.2655 27.9176C34.2655 27.9164 34.2652 27.9154 34.2652 27.9142C34.2652 27.9148 34.2652 27.9148 34.2652 27.9154C34.2642 27.9047 34.2618 27.8943 34.2605 27.8835C34.2599 27.8766 34.2584 27.8703 34.2574 27.8634C34.25 27.8015 34.242 27.7397 34.2296 27.6794C34.2296 27.6807 34.2303 27.6816 34.2303 27.6829C34.2293 27.6781 34.2281 27.6734 34.2269 27.6687C34.0378 26.7542 33.3317 26.0326 32.4363 25.8395C32.4437 25.8411 32.4508 25.8433 32.4582 25.8452C32.4461 25.8423 32.4344 25.8385 32.422 25.836C32.4233 25.8363 32.4242 25.8367 32.4254 25.837C32.364 25.824 32.301 25.8152 32.2376 25.8073C32.2349 25.807 32.2324 25.8064 32.2299 25.806C32.2182 25.8048 32.2064 25.8019 32.1947 25.8007C32.1953 25.8007 32.1956 25.8007 32.1959 25.8007C32.1947 25.8007 32.1938 25.8004 32.1925 25.8004C32.1932 25.8004 32.1941 25.8004 32.1947 25.8007C32.1524 25.7963 32.1095 25.7959 32.0665 25.7937C32.0298 25.7918 31.9936 25.7881 31.9566 25.7881H28.2552C28.0556 25.7881 27.8938 25.6227 27.8938 25.4189C27.8938 25.215 28.0556 25.0497 28.2552 25.0497H31.9566C33.6357 25.0497 35 26.4437 35 28.1571V29.9333ZM34.2272 27.6699C34.2272 27.6702 34.2269 27.6696 34.2272 27.6699V27.6699ZM29.925 24.4246C31.4769 24.4246 32.7393 23.0069 32.7393 21.2642C32.7393 19.5215 31.4769 18.1034 29.925 18.1034C28.3732 18.1034 27.1108 19.5212 27.1108 21.2642C27.1108 23.0072 28.3735 24.4246 29.925 24.4246ZM29.925 18.8421C31.0781 18.8421 32.0162 19.9285 32.0162 21.2642C32.0162 22.5995 31.0781 23.6863 29.925 23.6863C28.7719 23.6863 27.8339 22.5995 27.8339 21.2642C27.8339 19.9285 28.7719 18.8421 29.925 18.8421ZM29.1581 29.1829C29.4552 29.5449 28.9462 30.0696 28.6469 29.7052C28.3658 29.3631 28.085 29.0207 27.8042 28.6787C27.6668 28.5115 27.6732 28.3231 27.8042 28.1565C28.0603 27.8309 28.316 27.5052 28.5721 27.1796C28.8637 26.8088 29.3721 27.3345 29.0833 27.7015C28.9925 27.817 28.9017 27.9328 28.8109 28.0483C29.6378 28.0483 30.4649 28.0483 31.2921 28.0483C31.7583 28.0483 31.7573 28.7866 31.2921 28.7866C30.4724 28.7866 29.6526 28.7866 28.8328 28.7866C28.9415 28.9188 29.0496 29.051 29.1581 29.1829Z" fill="white"/>
</svg>
