<svg width="50" height="50" viewBox="0 0 50 50" fill="none" xmlns="http://www.w3.org/2000/svg">
<path d="M25 48.5C37.9787 48.5 48.5 37.9787 48.5 25C48.5 12.0213 37.9787 1.5 25 1.5C12.0213 1.5 1.5 12.0213 1.5 25C1.5 37.9787 12.0213 48.5 25 48.5Z" fill="#92D6FF" stroke="white" stroke-width="3"/>
<rect x="4" y="4" width="42" height="42" rx="21" fill="white"/>
<path d="M33.9034 27.0999C34.4573 27.661 34.9272 28.0423 35.3131 28.2439C36.2709 28.7442 36.5448 28.4204 37.2704 28.9509C37.7541 29.3046 37.9973 30.007 38 31.0582H37.14C37.14 30.3226 36.9571 29.8213 36.5912 29.5542C36.0425 29.1535 35.3188 29.2323 34.6338 28.83C34.2385 28.5978 33.7354 28.148 33.1244 27.4805C32.8994 27.5473 32.6648 27.5826 32.4237 27.5826C30.7367 27.5826 29.3691 25.853 29.3691 23.7194C29.3691 21.5858 30.7367 19.8562 32.4237 19.8562C34.1107 19.8562 35.4783 21.5858 35.4783 23.7194C35.4783 25.1741 34.8426 26.4409 33.9034 27.0999ZM16.8756 27.4805C16.2646 28.148 15.7615 28.5978 15.3662 28.83C14.6812 29.2323 13.9575 29.1535 13.4088 29.5542C13.0429 29.8213 12.86 30.3226 12.86 31.0582H12C12.0027 30.007 12.2459 29.3046 12.7296 28.9509C13.4552 28.4204 13.7291 28.7442 14.6869 28.2439C15.0728 28.0423 15.5427 27.661 16.0966 27.0999C15.1574 26.4409 14.5217 25.1741 14.5217 23.7194C14.5217 21.5858 15.8893 19.8562 17.5763 19.8562C19.2633 19.8562 20.6309 21.5858 20.6309 23.7194C20.6309 25.853 19.2633 27.5826 17.5763 27.5826C17.3352 27.5826 17.1006 27.5473 16.8756 27.4805ZM23.0297 27.6562C21.7777 26.7778 20.9303 25.089 20.9303 23.1499C20.9303 20.3057 22.7534 18 25.0023 18C27.2512 18 29.0742 20.3057 29.0742 23.1499C29.0742 25.0915 28.2247 26.7821 26.97 27.6596C27.7069 28.4058 28.3322 28.913 28.8459 29.1813C30.1226 29.8482 30.4877 29.4166 31.455 30.1238C32.0999 30.5952 32.4241 31.5042 32.4276 32.8508H31.455C31.455 31.8702 31.2112 31.2019 30.7235 30.8458C29.9919 30.3117 29.0272 30.4168 28.1141 29.8805C27.5913 29.5734 26.9271 28.9809 26.1215 28.1028C25.7659 28.2311 25.3904 28.2998 25.0023 28.2998C24.6119 28.2998 24.2343 28.2303 23.8769 28.1005C23.0704 28.9799 22.4055 29.5732 21.8823 29.8805C20.9692 30.4168 20.0045 30.3117 19.2729 30.8458C18.7852 31.2019 18.5413 31.8702 18.5413 32.8508H17.5687C17.5723 31.5042 17.8965 30.5952 18.5413 30.1238C19.5087 29.4166 19.8738 29.8482 21.1505 29.1813C21.6649 28.9126 22.2913 28.4042 23.0297 27.6562ZM25.0023 27.3416C26.722 27.3416 28.1161 25.4649 28.1161 23.1499C28.1161 20.8348 26.722 18.9581 25.0023 18.9581C23.2825 18.9581 21.8884 20.8348 21.8884 23.1499C21.8884 25.4649 23.2825 27.3416 25.0023 27.3416ZM17.5763 26.8639C18.8663 26.8639 19.9122 25.4561 19.9122 23.7194C19.9122 21.9828 18.8663 20.575 17.5763 20.575C16.2862 20.575 15.2404 21.9828 15.2404 23.7194C15.2404 25.4561 16.2862 26.8639 17.5763 26.8639ZM32.4237 26.8639C33.7138 26.8639 34.7596 25.4561 34.7596 23.7194C34.7596 21.9828 33.7138 20.575 32.4237 20.575C31.1337 20.575 30.0878 21.9828 30.0878 23.7194C30.0878 25.4561 31.1337 26.8639 32.4237 26.8639Z" fill="#9E9E9E"/>
</svg>
