<?xml version="1.0" encoding="UTF-8"?>
<svg width="70px" height="57px" viewBox="0 0 70 57" version="1.1" xmlns="http://www.w3.org/2000/svg" xmlns:xlink="http://www.w3.org/1999/xlink">
    <title>folder</title>
    <g id="Page-1" stroke="none" stroke-width="1" fill="none" fill-rule="evenodd">
        <g id="Send-content" transform="translate(-765.000000, -357.000000)" fill-rule="nonzero">
            <g id="folder" transform="translate(765.000000, 357.000000)">
                <path d="M62.936846,12.6056479 L6.89577017,12.6056479 C3.08444988,12.6282396 0.00564792176,15.7222738 0.00188264059,19.5337653 C-4.27872864e-05,19.572445 -4.27872864e-05,19.611467 0.00188264059,19.6501467 L4.00677262,49.5327873 C4.05537897,53.3254523 7.14188264,56.3753301 10.93489,56.3787531 L58.92511,56.3787531 C62.7179462,56.3753301 65.804621,53.3254523 65.8532274,49.5327873 L69.8307335,19.6501467 C69.8326589,19.611467 69.8326589,19.572445 69.8307335,19.5337653 C69.8271394,15.7222738 66.7483374,12.6282396 62.936846,12.6056479 Z" id="Path" fill="#2488FF"></path>
                <path d="M57.8229095,5.70491443 L35.3133741,5.70491443 L30.8634963,0.412982885 C30.6949144,0.210342298 30.4422983,0.0966992665 30.1788998,0.104914425 L12.0097066,0.104914425 C9.17564792,0.108679707 6.87899756,2.40533007 6.87523227,5.23938875 L6.87523227,10.1753301 L8.58672372,10.1753301 L62.9094621,10.1753301 C62.5762347,7.61973105 60.4000733,5.70731051 57.8229095,5.70491443 Z" id="Path" fill="#005DCB"></path>
            </g>
        </g>
    </g>
</svg>