<svg width="50" height="50" viewBox="0 0 50 50" fill="none" xmlns="http://www.w3.org/2000/svg">
<path d="M25 48.5C37.9787 48.5 48.5 37.9787 48.5 25C48.5 12.0213 37.9787 1.5 25 1.5C12.0213 1.5 1.5 12.0213 1.5 25C1.5 37.9787 12.0213 48.5 25 48.5Z" fill="white" stroke="#AFAF99" stroke-width="3"/>
<rect x="4" y="4" width="42" height="42" rx="21" fill="#AFAF99"/>
<g clip-path="url(#clip0)">
<path d="M23.1 31C21.8 31 20.6 30.5 19.7 29.6L15.4 25.3C14.5 24.4 14 23.2 14 21.9C14 20.6 14.5 19.4 15.4 18.5C16.3 17.5 17.6 17 18.9 17C20 17 21.1 17.4 22 18.1C22.1 18.2 22.2 18.3 22.2 18.4C22.2 18.5 22.2 18.7 22.1 18.8C22 19 21.8 19.1 21.7 19.1C21.6 19.1 21.5 19.1 21.4 19C20.6 18.4 19.7 18 18.8 18C17.8 18 16.8 18.4 16.1 19.1C15.4 19.9 15 20.9 15 21.9C15 22.9 15.4 23.9 16.1 24.6L20.4 28.8C21.1 29.6 22.1 30 23.1 30C24.1 30 25.1 29.6 25.8 28.9C27.2 27.5 27.3 25.1 25.9 23.6C25.8 23.5 25.8 23.4 25.8 23.2C25.8 23.1 25.9 22.9 26 22.8C26.1 22.7 26.2 22.7 26.3 22.7C26.4 22.7 26.6 22.8 26.7 22.9C28.4 24.8 28.3 27.8 26.5 29.6C25.6 30.5 24.4 31 23.1 31Z" fill="white"/>
<path d="M31.5002 33.1C30.4002 33.1 29.3002 32.7 28.4002 32C28.3002 31.9 28.2002 31.8 28.2002 31.7C28.2002 31.6 28.2002 31.4 28.3002 31.3C28.4002 31.2 28.5002 31.1 28.7002 31.1C28.8002 31.1 28.9002 31.1 29.0002 31.2C29.7002 31.8 30.6002 32.1 31.5002 32.1C32.5002 32.1 33.5002 31.7 34.2002 31C35.7002 29.5 35.7002 27.1 34.2002 25.6L30.0002 21.3C29.3002 20.6 28.3002 20.2 27.3002 20.2C26.3002 20.2 25.3002 20.6 24.6002 21.3C23.1002 22.7 23.0002 24.9 24.3002 26.5C24.5002 26.7 24.5002 27 24.2002 27.2C24.1002 27.3 24.0002 27.3 23.9002 27.3C23.7002 27.3 23.6002 27.2 23.5002 27.1C21.8002 25.2 22.0002 22.4 23.8002 20.6C24.7002 19.7 25.9002 19.2 27.2002 19.2C28.5002 19.2 29.7002 19.7 30.6002 20.6L34.8002 24.8C36.7002 26.7 36.7002 29.8 34.8002 31.7C34.0002 32.6 32.8002 33.1 31.5002 33.1Z" fill="white"/>
</g>
<defs>
<clipPath id="clip0">
<rect width="22.3" height="16.1" fill="white" transform="translate(14 17)"/>
</clipPath>
</defs>
</svg>
