<?xml version="1.0" encoding="UTF-8"?>
<svg width="52px" height="42px" viewBox="0 0 52 42" version="1.1" xmlns="http://www.w3.org/2000/svg" xmlns:xlink="http://www.w3.org/1999/xlink">
    <title>desktop</title>
    <g id="Page-1" stroke="none" stroke-width="1" fill="none" fill-rule="evenodd" opacity="0.300000012">
        <g id="Screen-record" transform="translate(-1099.000000, -370.000000)" fill="#000000" fill-rule="nonzero">
            <g id="desktop" transform="translate(1099.000000, 370.000000)">
                <path d="M49.5446609,32.3107826 L2.2197913,32.3107826 L2.2197913,1.9005913 L49.5446609,1.9005913 L49.5446609,32.3107826 L49.5446609,32.3107826 Z M51.5153739,33.2610783 L51.5153739,33.2610783 L51.5153739,0.951026087 C51.5153739,0.425843478 51.0738261,0 50.5303826,0 L1.23370435,0 C0.689165217,0 0.247617391,0.425843478 0.247617391,0.951026087 L0.247617391,33.2614435 C0.247617391,33.7866261 0.689165217,34.2124696 1.23370435,34.2124696 L19.9660696,34.2124696 L19.9660696,39.9131478 L12.0788348,39.9131478 C11.5342957,39.9131478 11.0927478,40.3386261 11.0927478,40.8641739 C11.0927478,41.3889913 11.5342957,41.8144696 12.0788348,41.8144696 L12.0792,41.8144696 L39.6841565,41.8144696 C40.2283304,41.8144696 40.6698783,41.3889913 40.6698783,40.8641739 C40.6698783,40.3389913 40.2283304,39.9131478 39.6841565,39.9131478 L31.797287,39.9131478 L31.797287,34.2113739 L50.5296522,34.2113739 C51.0738261,34.2113739 51.5153739,33.7866261 51.5153739,33.2610783" id="Shape"></path>
            </g>
        </g>
    </g>
</svg>