<?xml version="1.0" encoding="UTF-8"?>
<svg width="35px" height="31px" viewBox="0 0 35 31" version="1.1" xmlns="http://www.w3.org/2000/svg" xmlns:xlink="http://www.w3.org/1999/xlink">
    <!-- Generator: Sketch 61 (89581) - https://sketch.com -->
    <title>doctor</title>
    <desc>Created with Sketch.</desc>
    <g id="Page-1" stroke="none" stroke-width="1" fill="none" fill-rule="evenodd">
        <g id="doctor" fill="#0063E8" fill-rule="nonzero">
            <path d="M10.2392255,0.014748 C8.99926968,0.0658366 7.8743607,0.50009 7.08181152,1.2919637 C6.22534685,2.1476982 5.77794015,3.3482809 5.77794015,4.6638131 L5.77794015,25.2269853 L0,25.2269853 C0,27.7558721 0.1917458,28.8925942 1.21439007,29.9526832 C2.01972241,30.7445567 3.06793279,31 3.96274658,31 L27.0617238,31 C28.1355003,31 29.0942292,30.4891137 29.8100802,29.7866451 C30.5259312,29.0714044 31.0244704,28.1134924 31.0244704,27.0406313 L31.0244704,7.9334853 C33.555515,7.9334853 35,5.7749906 35,3.9613445 C35,1.6751284 33.3126371,0.1169253 31.5613586,0.014748 C24.3005844,-0.0107963 16.7713661,0.0019759 10.2392255,0.014748 Z M10.303141,2.1604703 C11.5430973,2.1604703 11.9010228,2.8884832 11.9010228,3.9613445 C11.9010228,5.23856 10.8783784,5.7749906 10.4565377,5.7749906 C9.9068665,5.7749906 9.3955443,6.2858769 9.3955443,6.8478517 C9.3955443,7.4098269 9.9068665,7.9207128 10.4565377,7.9334853 L28.8641343,7.9334853 L28.8641343,27.0406313 C28.8641343,27.3982517 28.6468225,27.8835937 28.276114,28.2539862 C27.9054054,28.6243787 27.4196493,28.8415053 27.0617238,28.8415053 L7.50365216,28.8415053 C7.97662528,27.6153783 7.9382762,26.5297451 7.9382762,25.2269853 L7.9382762,4.6638131 C7.9382762,3.8336228 8.20672014,3.2461036 8.61577812,2.8246225 C9.1910155,2.4159135 9.7534698,2.1987868 10.303141,2.1604703 Z M11.5430973,11.5352332 L11.5430973,13.6937279 L25.2593133,13.6937279 L25.2593133,11.5352332 L11.5430973,11.5352332 Z M11.5430973,17.3082479 L11.5430973,19.4667426 L25.2593133,19.4667426 L25.2593133,17.3082479 L11.5430973,17.3082479 Z M11.5430973,23.0684906 L11.5430973,25.2269853 L25.2593133,25.2269853 L25.2593133,23.0684906 L11.5430973,23.0684906 Z" id="Shape"></path>
        </g>
    </g>
</svg>