<svg width="50" height="50" viewBox="0 0 50 50" fill="none" xmlns="http://www.w3.org/2000/svg">
<path d="M25 48.5C37.9787 48.5 48.5 37.9787 48.5 25C48.5 12.0213 37.9787 1.5 25 1.5C12.0213 1.5 1.5 12.0213 1.5 25C1.5 37.9787 12.0213 48.5 25 48.5Z" fill="white" stroke="#CB9892" stroke-width="3"/>
<rect x="4" y="4" width="42" height="42" rx="21" fill="#CB9892"/>
<path d="M34.9174 19.45L27.5072 12.1C27.4314 12.05 27.3302 12 27.229 12H18.5291C17.1381 12 16 13.125 16 14.5V34.5C16 35.875 17.1381 37 18.5291 37H32.4642C33.8552 37 34.9933 35.875 34.9933 34.5V19.7C35.0186 19.6 34.968 19.5 34.9174 19.45ZM27.4061 13.1L33.9058 19.525H29.3787C28.2913 19.525 27.4061 18.65 27.4061 17.575V13.1ZM32.4895 36.25H18.5291C17.5427 36.25 16.7587 35.45 16.7587 34.5V14.5C16.7587 13.525 17.568 12.75 18.5291 12.75H27.0267V17.575C27.0267 18.85 28.0889 19.9 29.3787 19.9H34.2598V34.5C34.2598 35.45 33.4505 36.25 32.4895 36.25ZM19.8442 22.55H31.1997V23.3H19.8442V22.55ZM26.8497 31.475H31.1744V32.225H26.8497V31.475ZM19.8442 25.875H31.1997V26.25H19.8442V25.875ZM19.8442 27.025H31.1997V27.4H19.8442V27.025ZM19.8442 28.175H31.1997V28.55H19.8442V28.175ZM19.8442 29.325H31.1997V29.7H19.8442V29.325Z" fill="white"/>
</svg>
