<svg width="20" height="18" viewBox="0 0 18 16" fill="none" xmlns="http://www.w3.org/2000/svg">
<path d="M10.528 5.89824L10.4029 6.5H11.0175H15.75C16.2989 6.5 16.75 6.95114 16.75 7.5V9C16.75 9.12561 16.7268 9.24191 16.682 9.35855L14.4204 14.6381L14.4204 14.6381L14.4185 14.6427C14.2694 15.0004 13.9163 15.25 13.5 15.25H6.75C6.20114 15.25 5.75 14.7989 5.75 14.25V6.75C5.75 6.4736 5.85962 6.22751 6.04118 6.05086L6.04121 6.0509L6.04632 6.04578L10.6294 1.4557L11.0689 1.89105C11.0692 1.89131 11.0695 1.89156 11.0697 1.89181C11.1777 2.00017 11.2469 2.15123 11.2522 2.31259L11.2348 2.49805L10.528 5.89824ZM3.25 7.25V15.25H1.25V7.25H3.25Z" stroke="#A0A0A0"/>
</svg>
