<svg id="Group_2" data-name="Group 2" xmlns="http://www.w3.org/2000/svg" width="48" height="46.011" viewBox="0 0 48 46.011">
  <path id="Path_4" data-name="Path 4" d="M21,18.011a2,2,0,0,0-2,2v6a1,1,0,0,1-2,0v-6a4,4,0,0,1,4.21-4c.1-.1,0,.13,1.51-13.52a2.24,2.24,0,0,0-4.29-1.1l-5.54,13.47c-1.19,2.83-.77,4,0,15.78a2,2,0,0,1-1.16,1.95L0,38.011l11,8,9.84-8.2c2.79-2.32,2.16-3.86,2.16-17.8a2,2,0,0,0-2-2Z" fill="#2680BC"/>
  <path id="Path_5" data-name="Path 5" d="M36.25,32.591a2,2,0,0,1-1.16-1.95l.76-11.31c.2-3.07-.35-3.52-6.28-17.93a2.23,2.23,0,0,0-4.3.84c0,.1,1.42,13.68,1.52,13.78A4,4,0,0,1,31,20.011v6a1,1,0,0,1-2,0v-6a2,2,0,0,0-3.41-1.41c-.82.79-.59.38-.59,14.6a6,6,0,0,0,2.16,4.61l9.84,8.2,11-8Z" fill="#2680BC"/>
</svg>
