<?xml version="1.0" encoding="UTF-8"?>
<svg width="26px" height="26px" viewBox="0 0 26 26" version="1.1" xmlns="http://www.w3.org/2000/svg" xmlns:xlink="http://www.w3.org/1999/xlink">
    <!-- Generator: Sketch 51.3 (57544) - http://www.bohemiancoding.com/sketch -->
    <title>Group</title>
    <desc>Created with Sketch.</desc>
    <defs></defs>
    <g id="Desktop" stroke="none" stroke-width="1" fill="none" fill-rule="evenodd">
        <g id="Admin---Edit---Template" transform="translate(-336.000000, -91.000000)" fill="#FFFFFF" fill-rule="nonzero" stroke="#FFFFFF" stroke-width="0.5">
            <g id="icon-exit" transform="translate(330.000000, 82.000000)">
                <g id="Group" transform="translate(7.000000, 10.000000)">
                    <path d="M14.1176488,1.075856 C14.1232959,0.5698304 14.6323076,0.1055456 15.1889665,0.116064 L22.9437194,0.116064 C23.4967782,0.1161152 23.9999312,0.5734176 24.0000018,1.0760512 L24.0000018,22.83584 C23.9999312,23.338464 23.4967782,23.795776 22.9437194,23.79584 L15.1889665,23.79584 C14.6309312,23.80288 14.1176488,23.343072 14.1176488,22.83584 C14.1176488,22.328608 14.6309312,21.868672 15.1889665,21.87584 L21.8874371,21.87584 L21.8874371,2.0360384 L15.1889665,2.0360384 C14.6249665,2.0466944 14.1117547,1.5885472 14.1176488,1.075856 Z" id="Path"></path>
                    <path d="M1.76404926e-06,11.95424 C0.00988411699,11.72544 0.113754705,11.46096 0.28676647,11.294208 L5.93382529,5.85392 C6.31648412,5.542144 7.05024882,5.41344 7.47794294,5.77392 C7.89921353,6.128992 7.88668412,6.817536 7.46700176,7.174016 L3.49641353,10.994208 L18.0000053,10.994208 C18.5847582,10.994208 19.0588288,11.424032 19.0588288,11.95424 C19.0588288,12.484448 18.5847582,12.914272 18.0000053,12.914272 L3.49641353,12.914272 L7.46700176,16.734464 C7.82830765,17.062624 7.89508412,17.775424 7.47794294,18.134528 C7.06090765,18.4936 6.30077823,18.37888 5.93382529,18.054496 L0.28676647,12.614272 C0.0935311758,12.428096 -0.000633530068,12.209664 1.76404926e-06,11.95424 Z" id="Path"></path>
                </g>
            </g>
        </g>
    </g>
</svg>