<?xml version="1.0" encoding="UTF-8"?>
<svg width="34px" height="36px" viewBox="0 0 34 36" version="1.1" xmlns="http://www.w3.org/2000/svg" xmlns:xlink="http://www.w3.org/1999/xlink">
    <!-- Generator: Sketch 61 (89581) - https://sketch.com -->
    <title>icon-nutrition-instructions</title>
    <desc>Created with Sketch.</desc>
    <g id="Page-1" stroke="none" stroke-width="1" fill="none" fill-rule="evenodd">
        <g id="icon-nutrition-instructions" fill="#0063E8" fill-rule="nonzero">
            <path d="M21.2871251,0 C19.8832295,0.354323 18.4045311,1.187998 17.5500155,2.162274 C16.6953019,3.136776 16.0801375,4.420718 15.8001983,6.024371 C7.59877544,2.273583 -0.384531578,8.512238 0.0143479048,17.760644 C0.413295508,27.01063 7.23654984,39.994725 16.6501095,34.683876 C26.1808448,40.142693 32.272218,27.371644 33.4233572,19.23549 C34.5745196,11.09917 28.0872764,1.817198 17.9374751,6.161856 C18.1770235,5.026902 18.5513811,4.266674 19.1748459,3.549629 C19.7983111,2.832584 20.8490115,2.259909 22.0995403,1.774815 C22.0327547,0.926598 21.7244303,0.327929 21.2871251,0 Z M13.4629427,14.385997 C14.8917439,14.385997 16.1287267,15.471027 16.6501095,16.710754 C17.1714999,15.471027 18.3959767,14.385997 19.8247779,14.385997 C21.6073767,14.385997 23.3221343,15.86089 23.3369111,17.760644 C23.3686511,21.840576 18.9664063,22.266553 16.6501095,26.997179 C14.3338167,22.266553 9.91906785,21.840576 9.95080985,17.760644 C9.96558185,15.86089 11.6803403,14.385997 13.4629427,14.385997 Z" id="Shape"></path>
        </g>
    </g>
</svg>