<?xml version="1.0" encoding="UTF-8"?>
<svg width="36px" height="36px" viewBox="0 0 36 36" version="1.1" xmlns="http://www.w3.org/2000/svg" xmlns:xlink="http://www.w3.org/1999/xlink">
    <!-- Generator: Sketch 61 (89581) - https://sketch.com -->
    <title>icon-Emergency-Room</title>
    <desc>Created with Sketch.</desc>
    <g id="Page-1" stroke="none" stroke-width="1" fill="none" fill-rule="evenodd">
        <g id="icon-emergency-room" fill="#0063E8" fill-rule="nonzero">
            <path d="M22.4988223,36 L13.4988223,36 C12.8775019,36 12.3738223,35.49632 12.3738223,34.875 L12.3738223,27.7425 L6.18632225,31.30875 C5.64880217,31.618819 4.96172,31.435094 4.65069725,30.898125 L0.15069725,23.101875 C-0.15937188,22.564355 0.02435339,21.877273 0.56132225,21.56625 L6.74882225,18 L0.56132225,14.43375 C0.02435339,14.122727 -0.15937188,13.435645 0.15069725,12.898125 L4.65069725,5.101875 C4.96172,4.564906 5.64880217,4.381181 6.18632225,4.69125 L12.3738223,8.2575 L12.3738223,1.125 C12.3738223,0.50368 12.8775019,0 13.4988223,0 L22.4988223,0 C23.1201426,0 23.6238223,0.50368 23.6238223,1.125 L23.6238223,8.2575 L29.8113223,4.69125 C30.3488423,4.381181 31.0359245,4.564906 31.3469473,5.101875 L35.8469473,12.898125 C36.1570164,13.435645 35.9732911,14.122727 35.4363223,14.43375 L29.2488223,18 L35.4363223,21.56625 C35.9732911,21.877273 36.1570164,22.564355 35.8469473,23.101875 L31.3469473,30.898125 C31.0359245,31.435094 30.3488423,31.618819 29.8113223,31.30875 L23.6238223,27.7425 L23.6238223,34.875 C23.6238223,35.49632 23.1201426,36 22.4988223,36 Z" id="icon-Emergency-Room"></path>
        </g>
    </g>
</svg>