<?xml version="1.0" encoding="UTF-8"?>
<svg width="35px" height="36px" viewBox="0 0 35 36" version="1.1" xmlns="http://www.w3.org/2000/svg" xmlns:xlink="http://www.w3.org/1999/xlink">
    <!-- Generator: Sketch 61 (89581) - https://sketch.com -->
    <title>icon-activities</title>
    <desc>Created with Sketch.</desc>
    <g id="Page-1" stroke="none" stroke-width="1" fill="none" fill-rule="evenodd">
        <g id="icon-activities" fill="#0063E8" fill-rule="nonzero">
            <path d="M33.736677,13.1755563 C32.9347869,12.4175034 31.8685659,12 30.7342914,12 C29.6052838,12 28.5429387,12.4140457 27.7425163,13.1663657 C26.0885453,14.7234536 26.0853587,17.261698 27.7357939,18.8248528 C28.5366424,19.5826224 29.6019165,19.9999176 30.7354128,20 C30.7355017,20 30.7355905,20 30.7355905,20 C31.8652017,20 32.9283219,19.5848224 33.7291703,18.8307852 C35.3812386,17.2751645 35.3850379,14.738594 33.736677,13.1755563 Z" id="Path"></path>
            <path d="M18.9773109,0.0287418352 L18.7132042,12.4208528 C18.0381862,12.343836 17.3572549,12.3049867 16.6790955,12.3049867 C15.4266318,12.3049867 14.2157859,12.440211 13.0808011,12.7068705 C11.346763,13.113309 9.818363,13.7618322 8.53765115,14.6343321 C7.51566557,15.3306202 6.95857798,15.9670989 6.76648454,16.2084178 L6.25871998,16.8461469 L6.34014718,16.9043527 C6.25638781,17.0739937 6.18661358,17.2494398 6.13128483,17.4299268 L0.029411765,34.364439 L4.11161363,35.8483874 L9.45730834,23.3510806 L14.6799662,36 L18.758669,34.6833219 L13.7847834,20.2525695 C14.081445,20.1284129 14.4546942,20.0008891 14.9113363,19.8941877 C15.4467246,19.768735 16.0374401,19.7051458 16.6672593,19.7051458 C17.7538116,19.7051458 18.611243,19.8933332 18.7859335,19.9345501 L19.2100319,31.5981513 L23.0227451,31.5693212 L23.3230802,15.8948219 L23.3235294,15.8729708 L22.7162195,0 L18.9773109,0.0287418352 Z" id="Path"></path>
        </g>
    </g>
</svg>