<?xml version="1.0" encoding="UTF-8"?>
<svg width="50px" height="50px" viewBox="0 0 50 50" version="1.1" xmlns="http://www.w3.org/2000/svg" xmlns:xlink="http://www.w3.org/1999/xlink">
    <!-- Generator: Sketch 56.3 (81716) - https://sketch.com -->
    <title>Group</title>
    <desc>Created with Sketch.</desc>
    <g id="Page-1" stroke="none" stroke-width="1" fill="none" fill-rule="evenodd">
        <g id="Group">
            <g id="icon-screen-record" fill="#009ADF">
                <circle id="Oval" cx="25" cy="25" r="25"></circle>
            </g>
            <g id="attach" transform="translate(12.000000, 13.000000)" fill="#FFFFFF" fill-rule="nonzero">
                <path d="M20.4453946,0.0411438063 C19.3100274,0.186575694 18.276375,0.780473705 17.4670743,1.59543432 L5.43770711,13.7089288 C4.90750008,14.2428438 4.5020118,14.9135486 4.38028914,15.658657 C4.00130868,17.9788683 5.97248445,19.9664374 8.27795319,19.5904316 C9.01793756,19.4697497 9.68474615,19.0628575 10.2148008,18.5290958 L21.1905586,7.47657918 C21.4021133,7.26354499 21.4021133,6.91822096 21.1905586,6.70518677 L20.4246758,5.93394776 C20.2131211,5.72091357 19.8701953,5.72091357 19.6586406,5.93394776 L8.57355085,17.0966122 C8.34396882,17.3272373 8.0387735,17.4545669 7.71341804,17.4545669 C7.04427351,17.4545669 6.49994929,16.9053621 6.49994929,16.230464 C6.49994929,15.9044696 6.6263946,15.5976512 6.85541804,15.3664636 L19.1439727,2.99196908 C19.6629063,2.46945747 20.3527188,2.18181528 21.0864063,2.18181528 C22.6008555,2.18181528 23.8333672,3.42294656 23.8333672,4.98577685 C23.8333672,5.70700447 23.5593516,6.3898798 23.0610859,6.90870959 L10.2521758,20.2524432 C9.47684772,21.0600914 8.47097272,21.6478019 7.36353523,21.7830065 C4.42675399,22.1415748 1.94167197,19.7122384 2.1828829,16.7035268 C2.27433993,15.5628274 2.83227352,14.508753 3.6358868,13.6995197 L15.5496758,1.70241165 C15.7612305,1.48937745 15.7612305,1.14405342 15.5496758,0.931019232 L14.783793,0.159780227 C14.5722383,-0.0532539661 14.2293125,-0.0532539661 14.0177579,0.159780227 L1.98839071,12.2732747 C0.706468845,13.5641616 0.000355566033,15.2798897 0,17.1629361 C-0.000304590215,18.9276528 0.715101657,20.6429207 1.9445665,21.9004668 C4.89739461,24.9208375 9.22070709,24.4652634 11.6696329,21.9151429 L24.6188516,8.42469895 C25.5096563,7.49734055 26,6.27594792 26,4.94798706 C26,2.00728679 23.4393047,-0.342430241 20.4453946,0.0411438063 Z" id="Path"></path>
            </g>
        </g>
    </g>
</svg>