<?xml version="1.0" encoding="UTF-8"?>
<svg width="36px" height="40px" viewBox="0 0 36 40" version="1.1" xmlns="http://www.w3.org/2000/svg" xmlns:xlink="http://www.w3.org/1999/xlink">
    <!-- Generator: Sketch 61 (89581) - https://sketch.com -->
    <title>icon-call-If</title>
    <desc>Created with Sketch.</desc>
    <g id="Page-1" stroke="none" stroke-width="1" fill="none" fill-rule="evenodd">
        <g id="icon-call-If" fill-rule="nonzero">
            <path d="M18.0439024,11.195122 C18.6585366,11.3707317 20.0195122,11.6341463 21.5560976,11.6341463 C21.7756098,11.8097561 21.995122,11.9414634 22.2585366,12.0731707 C22.5219512,12.204878 22.7853659,12.2926829 23.0926829,12.2926829 C23.4,12.2926829 23.6634146,12.204878 23.9268293,12.0731707 C24.1902439,11.9414634 24.4097561,11.7658537 24.6292683,11.6341463 C26.1658537,11.6341463 27.5268293,11.3707317 28.1414634,11.195122 C28.3609756,11.1512195 28.5365854,10.9317073 28.5365854,10.7121951 L28.5365854,7.37560976 C28.5365854,4.96097561 27.8341463,3.51219512 26.9560976,2.67804878 L26.9560976,2.23902439 C26.9560976,2.0195122 26.8243902,1.8 26.604878,1.71219512 L23.3560976,0.087804878 C23.1804878,-1.20042865e-15 23.004878,-1.20042865e-15 22.8292683,0.087804878 L19.5804878,1.71219512 C19.3609756,1.8 19.2292683,2.0195122 19.2292683,2.23902439 L19.2292683,2.67804878 C18.3512195,3.55609756 17.6487805,5.00487805 17.6487805,7.37560976 L17.6487805,10.7121951 C17.6487805,10.9317073 17.8243902,11.1512195 18.0439024,11.195122 Z M19.8878049,2.28292683 L21.204878,1.62439024 L23.0487805,0.702439024 L24.8926829,1.62439024 L26.2097561,2.28292683 L26.2097561,4.3902439 C25.6829268,4.21463415 24.8926829,3.99512195 24.0146341,3.90731707 C23.7073171,3.86341463 23.4,3.86341463 23.0926829,3.86341463 C22.7853659,3.86341463 22.4780488,3.86341463 22.1268293,3.90731707 C21.2487805,3.99512195 20.4146341,4.21463415 19.9317073,4.3902439 L19.9317073,2.28292683 L19.8878049,2.28292683 Z M22.1268293,5.1804878 L23.0926829,4.56585366 L24.0146341,5.1804878 L26.8243902,6.9804878 C26.6487805,7.68292683 25.9463415,10.0097561 24.0146341,11.3268293 C23.9707317,11.3268293 23.9707317,11.3707317 23.9268293,11.3707317 C23.8390244,11.4585366 23.7073171,11.502439 23.6195122,11.5463415 C23.6195122,11.5463415 23.5756098,11.5463415 23.5756098,11.5463415 C23.2682927,11.7219512 22.8731707,11.7219512 22.5658537,11.5463415 C22.5658537,11.5463415 22.5219512,11.5463415 22.5219512,11.5463415 C22.4341463,11.502439 22.302439,11.4146341 22.2146341,11.3707317 C22.1707317,11.3707317 22.1707317,11.3268293 22.1268293,11.3268293 C20.2390244,10.0097561 19.5365854,7.63902439 19.3609756,6.9804878 L22.1268293,5.1804878 Z" id="Shape" fill="#0063E8"></path>
            <path d="M22.7853659,2.76585366 L22.7853659,3.42439024 C22.7853659,3.46829268 22.8292683,3.46829268 22.8292683,3.46829268 L23.2682927,3.46829268 C23.3121951,3.46829268 23.3121951,3.42439024 23.3121951,3.42439024 L23.3121951,2.76585366 C23.3121951,2.72195122 23.3560976,2.72195122 23.3560976,2.72195122 L24.0146341,2.72195122 C24.0585366,2.72195122 24.0585366,2.67804878 24.0585366,2.67804878 L24.0585366,2.23902439 C24.0585366,2.19512195 24.0146341,2.19512195 24.0146341,2.19512195 L23.3560976,2.19512195 C23.3121951,2.19512195 23.3121951,2.15121951 23.3121951,2.15121951 L23.3121951,1.40487805 C23.3121951,1.36097561 23.2682927,1.36097561 23.2682927,1.36097561 L22.8292683,1.36097561 C22.7853659,1.36097561 22.7853659,1.40487805 22.7853659,1.40487805 L22.7853659,2.06341463 C22.7853659,2.10731707 22.7414634,2.10731707 22.7414634,2.10731707 L22.0829268,2.10731707 C22.0390244,2.10731707 22.0390244,2.15121951 22.0390244,2.15121951 L22.0390244,2.5902439 C22.0390244,2.63414634 22.0829268,2.63414634 22.0829268,2.63414634 L22.7414634,2.63414634 C22.7414634,2.67804878 22.7853659,2.72195122 22.7853659,2.76585366 Z" id="Path" fill="#1E7EA4"></path>
            <path d="M14.8390244,19.6682927 L31.2585366,19.6682927 C31.4341463,19.6682927 31.5658537,19.5365854 31.5658537,19.3609756 L31.5658537,17.6926829 C31.5658537,16.5073171 30.8195122,15.4536585 29.7219512,15.0146341 L25.2878049,13.3902439 C25.1560976,13.3463415 25.0243902,13.3902439 24.9804878,13.5219512 L23.004878,19.1853659 C22.9609756,19.2731707 22.8731707,19.2731707 22.8292683,19.1853659 L21.0292683,13.5658537 C20.9853659,13.4341463 20.8536585,13.3902439 20.7219512,13.4341463 L16.3317073,15.0585366 C15.2341463,15.4536585 14.4878049,16.5512195 14.4878049,17.7365854 L14.4878049,19.404878 C14.5317073,19.5365854 14.6634146,19.6682927 14.8390244,19.6682927 Z" id="Path" fill="#0063E8"></path>
            <path d="M1.05365854,25.6390244 L3.20487805,25.6390244 C3.42439024,25.6390244 3.55609756,25.8146341 3.55609756,25.9902439 L3.55609756,38.6341463 C3.55609756,39.1170732 3.95121951,39.5121951 4.43414634,39.5121951 L31.5219512,39.5121951 C32.004878,39.5121951 32.4,39.1170732 32.4,38.6341463 L32.4,25.9902439 C32.4,25.7707317 32.5756098,25.6390244 32.7512195,25.6390244 L34.902439,25.6390244 C35.2536585,25.6390244 35.5609756,25.3317073 35.5609756,24.9804878 L35.5609756,21.3365854 C35.5609756,20.9853659 35.2536585,20.6780488 34.902439,20.6780488 L1.05365854,20.6780488 C0.702439024,20.6780488 0.395121951,20.9853659 0.395121951,21.3365854 L0.395121951,24.9804878 C0.43902439,25.3317073 0.702439024,25.6390244 1.05365854,25.6390244 Z M14.6195122,30.3804878 C14.6195122,30.2487805 14.7073171,30.1609756 14.8390244,30.1609756 L16.902439,30.1609756 C17.0341463,30.1609756 17.1219512,30.0731707 17.1219512,29.9414634 L17.1219512,27.8780488 C17.1219512,27.7463415 17.2097561,27.6585366 17.3414634,27.6585366 L18.7902439,27.6585366 C18.9219512,27.6585366 19.0097561,27.7463415 19.0097561,27.8780488 L19.0097561,29.9414634 C19.0097561,30.0731707 19.097561,30.1609756 19.2292683,30.1609756 L21.2926829,30.1609756 C21.4243902,30.1609756 21.5121951,30.2487805 21.5121951,30.3804878 L21.5121951,31.8292683 C21.5121951,31.9609756 21.4243902,32.0487805 21.2926829,32.0487805 L19.2292683,32.0487805 C19.097561,32.0487805 19.0097561,32.1365854 19.0097561,32.2682927 L19.0097561,34.3317073 C19.0097561,34.4634146 18.9219512,34.5512195 18.7902439,34.5512195 L17.3414634,34.5512195 C17.2097561,34.5512195 17.1219512,34.4634146 17.1219512,34.3317073 L17.1219512,32.2682927 C17.1219512,32.1365854 17.0341463,32.0487805 16.902439,32.0487805 L14.8390244,32.0487805 C14.7073171,32.0487805 14.6195122,31.9609756 14.6195122,31.8292683 L14.6195122,30.3804878 Z" id="Shape" fill="#0063E8"></path>
        </g>
    </g>
</svg>