<?xml version="1.0" encoding="UTF-8"?>
<svg width="40px" height="30px" viewBox="0 0 40 30" version="1.1" xmlns="http://www.w3.org/2000/svg" xmlns:xlink="http://www.w3.org/1999/xlink">
    <!-- Generator: Sketch 61 (89581) - https://sketch.com -->
    <title>icon-dont-be-alarmed</title>
    <desc>Created with Sketch.</desc>
    <g id="Page-1" stroke="none" stroke-width="1" fill="none" fill-rule="evenodd">
        <g id="icon-dont-be-alarmed" fill="#0063E8" fill-rule="nonzero">
            <path d="M23.1617647,11.8670863 C24.9264706,12.1014613 26.7794118,12.2889613 28.1029412,13.5545863 C29.4264706,14.8202113 30.1323529,22.2264613 30.6617647,22.1327113 C31.1911765,22.0389613 34.1029412,16.4139613 34.7205882,16.0389613 C35.4705882,15.6170863 39.8382353,15.3827113 39.8382353,15.8045863 C39.8382353,16.2264613 39.7941176,16.7889613 39.4411765,16.9295863 C38.8235294,17.1170863 36.6617647,17.4920863 36.2205882,17.8202113 C35.2941176,18.4764613 31.7647059,25.6483363 30.7058824,25.9764613 C30.0441176,26.2108363 29.2058824,26.0702113 28.7205882,25.3202113 C28.2352941,24.5233363 26.4264706,17.2108363 26.4264706,17.2108363 L26.4264706,29.6795863 L13.4558824,29.6795863 L13.4558824,17.2577113 C13.4558824,17.2577113 11.6470588,24.5702113 11.1617647,25.3670863 C10.6764706,26.1639613 9.83823529,26.2577113 9.17647059,26.0233363 C8.11764706,25.6483363 4.58823529,18.4764613 3.66176471,17.7733363 C3.22058824,17.4452113 1.01470588,17.0702113 0.441176471,16.8827113 C0.0882352941,16.7889613 -3.62376795e-13,16.2264613 -3.62376795e-13,15.8045863 C-3.62376795e-13,15.3827113 4.36764706,15.5702113 5.11764706,16.0389613 C5.73529412,16.4139613 8.64705882,22.0389613 9.17647059,22.1327113 C9.70588235,22.2264613 10.4117647,14.8202113 11.7352941,13.5545863 C13.0588235,12.2889613 14.9117647,12.1014613 16.6764706,11.8670863 C16.6764706,11.8670863 17.6470588,13.3202113 19.9852941,13.3202113 C22.2794118,13.3202113 23.1617647,11.8670863 23.1617647,11.8670863 Z" id="Path"></path>
            <path d="M22.7205882,0.992086337 C24.6617647,2.91396134 24.0882353,6.66396134 23.8235294,7.88271134 C23.4264706,9.71083634 22.0147059,12.4764613 19.9411765,12.4764613 C17.8676471,12.4764613 16.4558824,9.66396134 16.1029412,7.88271134 C15.8823529,6.85146134 15.1323529,3.10146134 17.0735294,1.08583634 C18.5735294,-0.507913663 21.5294118,-0.179788663 22.7205882,0.992086337 Z" id="Path"></path>
        </g>
    </g>
</svg>