<svg width="50" height="50" viewBox="0 0 50 50" fill="none" xmlns="http://www.w3.org/2000/svg">
<path d="M25 48.5C37.9787 48.5 48.5 37.9787 48.5 25C48.5 12.0213 37.9787 1.5 25 1.5C12.0213 1.5 1.5 12.0213 1.5 25C1.5 37.9787 12.0213 48.5 25 48.5Z" fill="white" stroke="#6A6FDF" stroke-width="3"/>
<rect x="4" y="4" width="42" height="42" rx="21" fill="#6A6FDF"/>
<path fill-rule="evenodd" clip-rule="evenodd" d="M19.0875 15C17.3832 15 16 16.3832 16 18.0875V30.9125C16 32.6168 17.3832 34 19.0875 34H31.9125C33.6168 34 35 32.6168 35 30.9125V18.0875C35 16.3832 33.6168 15 31.9125 15H19.0875ZM19.0875 15.7125H31.9125C33.2344 15.7125 34.2875 16.7656 34.2875 18.0875V30.9125C34.2875 32.2344 33.2344 33.2875 31.9125 33.2875H19.0875C17.7656 33.2875 16.7125 32.2344 16.7125 30.9125V18.0875C16.7125 16.7656 17.7656 15.7125 19.0875 15.7125Z" fill="white"/>
<path fill-rule="evenodd" clip-rule="evenodd" d="M20.75 26.0642C20.2055 26.0642 19.6588 26.275 19.2438 26.6899L16.1044 29.8294C16.0376 29.8962 16 29.9868 16 30.0813V30.9125C16 32.6168 17.3832 34 19.0875 34H28.3565C28.4108 34 28.4644 33.9876 28.5132 33.9637C28.562 33.9398 28.6047 33.905 28.638 33.8621C28.6713 33.8192 28.6944 33.7692 28.7054 33.716C28.7164 33.6628 28.7151 33.6078 28.7016 33.5552C28.6101 33.1988 28.4245 32.8583 28.1445 32.5782L22.2562 26.6899C21.8412 26.275 21.2945 26.0642 20.75 26.0642ZM20.75 26.7767C21.1122 26.7767 21.4726 26.9139 21.7524 27.1937L27.6407 33.082C27.7 33.1413 27.7114 33.2217 27.7576 33.2875H19.0875C17.7656 33.2875 16.7125 32.2344 16.7125 30.9125V30.2288L19.7476 27.1937C20.0274 26.9139 20.3878 26.7767 20.75 26.7767Z" fill="white"/>
<path fill-rule="evenodd" clip-rule="evenodd" d="M30.25 22.7948C29.5242 22.7948 28.7963 23.0749 28.2424 23.6289L23.4669 28.4044C23.4001 28.4712 23.3625 28.5618 23.3625 28.6562C23.3625 28.7507 23.4001 28.8413 23.4669 28.9081L27.6407 33.082C27.8282 33.2695 27.9495 33.4933 28.0109 33.7323C28.0306 33.8089 28.0752 33.8768 28.1376 33.9253C28.2001 33.9737 28.2769 34 28.356 34H31.9125C33.6168 34 35 32.6168 35 30.9125V26.5187C35 26.4243 34.9624 26.3337 34.8956 26.2669L32.2576 23.6289C31.7037 23.0749 30.9757 22.7948 30.25 22.7948ZM30.25 23.5073C30.7936 23.5073 31.3351 23.7139 31.7538 24.1326L34.2875 26.6663V30.9125C34.2875 32.2344 33.2344 33.2875 31.9125 33.2875H28.5935C28.4898 33.0318 28.3521 32.7859 28.1445 32.5782L24.2225 28.6562L28.7461 24.1326C29.1649 23.7139 29.7063 23.5073 30.25 23.5073Z" fill="white"/>
</svg>
