<?xml version="1.0" encoding="UTF-8"?>
<svg width="13px" height="26px" viewBox="0 0 13 26" version="1.1" xmlns="http://www.w3.org/2000/svg" xmlns:xlink="http://www.w3.org/1999/xlink">
    <!-- Generator: Sketch 52.2 (67145) - http://www.bohemiancoding.com/sketch -->
    <title>icon-additional-information</title>
    <desc>Created with Sketch.</desc>
    <g id="Page-1" stroke="none" stroke-width="1" fill="none" fill-rule="evenodd">
        <path d="M9.23448276,0.586206897 C11.137931,0.586206897 12.6689655,2.11724138 12.6689655,4.02068966 C12.6689655,5.92413793 11.137931,7.45517241 9.23448276,7.45517241 C7.33103448,7.45517241 5.8,5.92413793 5.8,4.02068966 C5.84137931,2.11724138 7.37241379,0.586206897 9.23448276,0.586206897 Z M4.10344828,12.0896552 C3.60689655,11.5931034 2.94482759,11.6758621 2.24137931,12.1310345 C1.91034483,12.337931 1.4137931,12.2965517 1.16551724,11.9655172 C0.917241379,11.6344828 1,11.137931 1.33103448,10.8896552 C2.07586207,10.3103448 3.93793103,9.15172414 6.62758621,9.4 C8.6137931,9.60689655 10.2689655,11.0137931 10.2689655,13.0413793 C10.2689655,13.662069 10.1448276,14.2413793 9.89655172,14.862069 L6.87586207,20.862069 C6.54482759,21.4413793 6.37931034,22.1862069 6.87586207,22.6827586 C7.37241379,23.1793103 8.03448276,23.0965517 8.73793103,22.6413793 C9.06896552,22.4344828 9.56551724,22.4758621 9.8137931,22.8068966 C10.062069,23.137931 9.97931034,23.6344828 9.64827586,23.8827586 C8.90344828,24.462069 7.04137931,25.6206897 4.35172414,25.3724138 C2.36551724,25.1655172 0.710344828,23.7586207 0.710344828,21.7310345 C0.710344828,21.1103448 0.834482759,20.5310345 1.08275862,19.9103448 L4.10344828,13.9103448 C4.39310345,13.3310345 4.6,12.5862069 4.10344828,12.0896552 Z" id="icon-additional-information" fill="#FFFFFF" fill-rule="nonzero"></path>
    </g>
</svg>