<svg width="72" height="22" viewBox="0 0 72 22" fill="none" xmlns="http://www.w3.org/2000/svg">
<rect x="0.5" y="0.5" width="71" height="21" rx="3.5" stroke="#2F80ED"/>
<path d="M17.8369 16H16.1143V6.04688H17.8369V16ZM21.3438 8.60352L21.3916 9.45801C21.9385 8.7972 22.6562 8.4668 23.5449 8.4668C25.0853 8.4668 25.8691 9.34863 25.8965 11.1123V16H24.2354V11.208C24.2354 10.7386 24.1328 10.3923 23.9277 10.1689C23.7272 9.94108 23.3968 9.82715 22.9365 9.82715C22.2666 9.82715 21.7676 10.1302 21.4395 10.7363V16H19.7783V8.60352H21.3438ZM30.2031 13.8945L31.7686 8.60352H33.4844L30.9209 16H29.4785L26.8945 8.60352H28.6172L30.2031 13.8945ZM36.2939 16H34.6328V8.60352H36.2939V16ZM34.5303 6.68262C34.5303 6.42741 34.61 6.21549 34.7695 6.04688C34.9336 5.87826 35.166 5.79395 35.4668 5.79395C35.7676 5.79395 36 5.87826 36.1641 6.04688C36.3281 6.21549 36.4102 6.42741 36.4102 6.68262C36.4102 6.93327 36.3281 7.1429 36.1641 7.31152C36 7.47559 35.7676 7.55762 35.4668 7.55762C35.166 7.55762 34.9336 7.47559 34.7695 7.31152C34.61 7.1429 34.5303 6.93327 34.5303 6.68262ZM40.1904 6.80566V8.60352H41.4961V9.83398H40.1904V13.9629C40.1904 14.2454 40.2451 14.4505 40.3545 14.5781C40.4684 14.7012 40.6689 14.7627 40.9561 14.7627C41.1475 14.7627 41.3411 14.7399 41.5371 14.6943V15.9795C41.1589 16.0843 40.7943 16.1367 40.4434 16.1367C39.1673 16.1367 38.5293 15.4326 38.5293 14.0244V9.83398H37.3125V8.60352H38.5293V6.80566H40.1904ZM46.0283 16.1367C44.9756 16.1367 44.1211 15.8063 43.4648 15.1455C42.8132 14.4801 42.4873 13.596 42.4873 12.4932V12.2881C42.4873 11.5498 42.6286 10.8913 42.9111 10.3125C43.1982 9.72917 43.5993 9.27572 44.1143 8.95215C44.6292 8.62858 45.2035 8.4668 45.8369 8.4668C46.8441 8.4668 47.6211 8.78809 48.168 9.43066C48.7194 10.0732 48.9951 10.9824 48.9951 12.1582V12.8281H44.1621C44.2122 13.4388 44.415 13.9219 44.7705 14.2773C45.1305 14.6328 45.5817 14.8105 46.124 14.8105C46.8851 14.8105 47.5049 14.5029 47.9834 13.8877L48.8789 14.7422C48.5827 15.1842 48.1862 15.5283 47.6895 15.7744C47.1973 16.016 46.6436 16.1367 46.0283 16.1367ZM45.8301 9.7998C45.3743 9.7998 45.0052 9.95931 44.7227 10.2783C44.4447 10.5973 44.2669 11.0417 44.1895 11.6113H47.3545V11.4883C47.318 10.9323 47.1699 10.513 46.9102 10.2305C46.6504 9.94336 46.2904 9.7998 45.8301 9.7998ZM49.9795 12.2471C49.9795 11.1077 50.2438 10.194 50.7725 9.50586C51.3011 8.81315 52.0098 8.4668 52.8984 8.4668C53.6823 8.4668 54.3158 8.74023 54.7988 9.28711V5.5H56.46V16H54.9561L54.874 15.2344C54.3773 15.8359 53.7142 16.1367 52.8848 16.1367C52.0189 16.1367 51.3171 15.7881 50.7793 15.0908C50.2461 14.3936 49.9795 13.4456 49.9795 12.2471ZM51.6406 12.3906C51.6406 13.1426 51.7842 13.7305 52.0713 14.1543C52.363 14.5736 52.7754 14.7832 53.3086 14.7832C53.9876 14.7832 54.4844 14.4801 54.7988 13.874V10.7158C54.4935 10.1234 54.0013 9.82715 53.3223 9.82715C52.7845 9.82715 52.3698 10.0413 52.0781 10.4697C51.7865 10.8936 51.6406 11.5339 51.6406 12.3906Z" fill="#2F80ED"/>
</svg>
