<?xml version="1.0" encoding="UTF-8"?>
<svg width="34px" height="36px" viewBox="0 0 34 36" version="1.1" xmlns="http://www.w3.org/2000/svg" xmlns:xlink="http://www.w3.org/1999/xlink">
    <!-- Generator: Sketch 56.3 (81716) - https://sketch.com -->
    <title>Shape</title>
    <desc>Created with Sketch.</desc>
    <g id="Desktop" stroke="none" stroke-width="1" fill="none" fill-rule="evenodd">
        <g id="Admin---Select---Chapter" transform="translate(-19.000000, -664.000000)" fill="#1E7EA4" fill-rule="nonzero">
            <g id="Group-2" transform="translate(17.000000, 256.000000)">
                <path d="M23.2871251,408 C21.8832295,408.354323 20.4045311,409.187998 19.5500155,410.162274 C18.6953019,411.136776 18.0801375,412.420718 17.8001983,414.024371 C9.59877544,410.273583 1.61546842,416.512238 2.0143479,425.760644 C2.41329551,435.01063 9.23654984,447.994725 18.6501095,442.683876 C28.1808448,448.142693 34.272218,435.371644 35.4233572,427.23549 C36.5745196,419.09917 30.0872764,409.817198 19.9374751,414.161856 C20.1770235,413.026902 20.5513811,412.266674 21.1748459,411.549629 C21.7983111,410.832584 22.8490115,410.259909 24.0995403,409.774815 C24.0327547,408.926598 23.7244303,408.327929 23.2871251,408 Z M15.4629427,422.385997 C16.8917439,422.385997 18.1287267,423.471027 18.6501095,424.710754 C19.1714999,423.471027 20.3959767,422.385997 21.8247779,422.385997 C23.6073767,422.385997 25.3221343,423.86089 25.3369111,425.760644 C25.3686511,429.840576 20.9664063,430.266553 18.6501095,434.997179 C16.3338167,430.266553 11.9190679,429.840576 11.9508099,425.760644 C11.9655819,423.86089 13.6803403,422.385997 15.4629427,422.385997 L15.4629427,422.385997 Z" id="Shape"></path>
            </g>
        </g>
    </g>
</svg>