<svg width="16" height="19" viewBox="0 0 16 19" fill="none" xmlns="http://www.w3.org/2000/svg">
<path d="M7.99999 18.1667C9.00832 18.1667 9.83332 17.3417 9.83332 16.3333H6.16666C6.16666 17.3417 6.99166 18.1667 7.99999 18.1667ZM13.5 12.6667V8.08332C13.5 5.26916 12.0058 2.91332 9.37499 2.28999V1.66666C9.37499 0.905823 8.76082 0.291656 7.99999 0.291656C7.23916 0.291656 6.62499 0.905823 6.62499 1.66666V2.28999C4.00332 2.91332 2.49999 5.25999 2.49999 8.08332V12.6667L0.666656 14.5V15.4167H15.3333V14.5L13.5 12.6667ZM11.6667 13.5833H4.33332V8.08332C4.33332 5.80999 5.71749 3.95832 7.99999 3.95832C10.2825 3.95832 11.6667 5.80999 11.6667 8.08332V13.5833Z" fill="#007bff"/>
</svg>
