<svg width="50" height="50" viewBox="0 0 50 50" fill="none" xmlns="http://www.w3.org/2000/svg">
<path d="M25 48.5C37.9787 48.5 48.5 37.9787 48.5 25C48.5 12.0213 37.9787 1.5 25 1.5C12.0213 1.5 1.5 12.0213 1.5 25C1.5 37.9787 12.0213 48.5 25 48.5Z" fill="white" stroke="#D4AF69" stroke-width="3"/>
<rect x="4" y="4" width="42" height="42" rx="21" fill="#D4AF69"/>
<path d="M34.7 19.45L27.375 12.1C27.3 12.05 27.2 12 27.1 12H18.5C17.125 12 16 13.125 16 14.5V34.5C16 35.875 17.125 37 18.5 37H32.275C33.65 37 34.775 35.875 34.775 34.5V19.7C34.8 19.6 34.75 19.5 34.7 19.45ZM27.275 13.1L33.7 19.525H29.225C28.15 19.525 27.275 18.65 27.275 17.575V13.1ZM32.3 36.25H18.5C17.525 36.25 16.75 35.45 16.75 34.5V14.5C16.75 13.525 17.55 12.75 18.5 12.75H26.9V17.575C26.9 18.85 27.95 19.9 29.225 19.9H34.05V34.5C34.05 35.45 33.25 36.25 32.3 36.25Z" fill="white"/>
<path d="M22.4185 23.4554C22.481 23.4644 22.5612 23.4689 22.6507 23.4689C23.0522 23.4689 23.396 23.3709 23.6277 23.1521C23.8065 22.9826 23.9047 22.7326 23.9047 22.4381C23.9047 22.1436 23.7755 21.8939 23.5832 21.7419C23.3827 21.5814 23.0835 21.5009 22.6642 21.5009C22.249 21.5009 21.9545 21.5276 21.745 21.5634V24.5309H22.4187V23.4554H22.4185ZM22.4185 22.0409C22.4675 22.0274 22.5612 22.0141 22.6997 22.0141C23.0387 22.0141 23.2307 22.1794 23.2307 22.4559C23.2307 22.7639 23.0077 22.9469 22.646 22.9469C22.548 22.9469 22.4767 22.9426 22.4185 22.9291V22.0409Z" fill="white"/>
<path d="M26.4542 24.1741C26.7442 23.9286 26.954 23.5316 26.954 22.9556C26.954 22.4246 26.7577 22.0544 26.4452 21.8224C26.1552 21.6036 25.785 21.5009 25.2137 21.5009C24.87 21.5009 24.544 21.5231 24.2945 21.5634V24.5176C24.4637 24.5399 24.7137 24.5624 25.0662 24.5624C25.655 24.5624 26.1372 24.4374 26.4542 24.1741ZM24.977 22.0499C25.0347 22.0366 25.133 22.0231 25.2847 22.0231C25.8695 22.0231 26.2352 22.3534 26.231 22.9781C26.231 23.6966 25.829 24.0359 25.2135 24.0314C25.1285 24.0314 25.0347 24.0314 24.977 24.0179V22.0499Z" fill="white"/>
<path d="M28.0402 23.3214H29.1202V22.7679H28.0402V22.0806H29.1957V21.5229H27.3575V24.5306H28.0402V23.3214Z" fill="white"/>
<path d="M29.8215 27.7773H21V28.0273H29.8215V27.7773Z" fill="white"/>
<path d="M29.8215 29.0025H21V29.2525H29.8215V29.0025Z" fill="white"/>
<path d="M29.8215 30.2277H21V30.4777H29.8215V30.2277Z" fill="white"/>
</svg>
