<svg width="72" height="22" viewBox="0 0 72 22" fill="none" xmlns="http://www.w3.org/2000/svg">
<rect x="0.5" y="0.5" width="71" height="21" rx="3.5" stroke="#E2B93B"/>
<path d="M12.7412 12.3018V16H11.0117V6.04688H14.8193C15.9313 6.04688 16.8132 6.33626 17.4648 6.91504C18.1211 7.49382 18.4492 8.25944 18.4492 9.21191C18.4492 10.1872 18.1279 10.946 17.4854 11.4883C16.8473 12.0306 15.9518 12.3018 14.7988 12.3018H12.7412ZM12.7412 10.9141H14.8193C15.4346 10.9141 15.904 10.7705 16.2275 10.4834C16.5511 10.1917 16.7129 9.77246 16.7129 9.22559C16.7129 8.68783 16.5488 8.25944 16.2207 7.94043C15.8926 7.61686 15.4414 7.45052 14.8672 7.44141H12.7412V10.9141ZM22.9678 16.1367C21.915 16.1367 21.0605 15.8063 20.4043 15.1455C19.7526 14.4801 19.4268 13.596 19.4268 12.4932V12.2881C19.4268 11.5498 19.568 10.8913 19.8506 10.3125C20.1377 9.72917 20.5387 9.27572 21.0537 8.95215C21.5687 8.62858 22.1429 8.4668 22.7764 8.4668C23.7835 8.4668 24.5605 8.78809 25.1074 9.43066C25.6589 10.0732 25.9346 10.9824 25.9346 12.1582V12.8281H21.1016C21.1517 13.4388 21.3545 13.9219 21.71 14.2773C22.07 14.6328 22.5212 14.8105 23.0635 14.8105C23.8245 14.8105 24.4443 14.5029 24.9229 13.8877L25.8184 14.7422C25.5221 15.1842 25.1257 15.5283 24.6289 15.7744C24.1367 16.016 23.583 16.1367 22.9678 16.1367ZM22.7695 9.7998C22.3138 9.7998 21.9447 9.95931 21.6621 10.2783C21.3841 10.5973 21.2064 11.0417 21.1289 11.6113H24.2939V11.4883C24.2575 10.9323 24.1094 10.513 23.8496 10.2305C23.5898 9.94336 23.2298 9.7998 22.7695 9.7998ZM28.7715 8.60352L28.8193 9.45801C29.3662 8.7972 30.084 8.4668 30.9727 8.4668C32.513 8.4668 33.2969 9.34863 33.3242 11.1123V16H31.6631V11.208C31.6631 10.7386 31.5605 10.3923 31.3555 10.1689C31.1549 9.94108 30.8245 9.82715 30.3643 9.82715C29.6943 9.82715 29.1953 10.1302 28.8672 10.7363V16H27.2061V8.60352H28.7715ZM34.7119 12.2471C34.7119 11.1077 34.9762 10.194 35.5049 9.50586C36.0335 8.81315 36.7422 8.4668 37.6309 8.4668C38.4147 8.4668 39.0482 8.74023 39.5312 9.28711V5.5H41.1924V16H39.6885L39.6064 15.2344C39.1097 15.8359 38.4466 16.1367 37.6172 16.1367C36.7513 16.1367 36.0495 15.7881 35.5117 15.0908C34.9785 14.3936 34.7119 13.4456 34.7119 12.2471ZM36.373 12.3906C36.373 13.1426 36.5166 13.7305 36.8037 14.1543C37.0954 14.5736 37.5078 14.7832 38.041 14.7832C38.7201 14.7832 39.2168 14.4801 39.5312 13.874V10.7158C39.2259 10.1234 38.7337 9.82715 38.0547 9.82715C37.5169 9.82715 37.1022 10.0413 36.8105 10.4697C36.5189 10.8936 36.373 11.5339 36.373 12.3906ZM44.6924 16H43.0312V8.60352H44.6924V16ZM42.9287 6.68262C42.9287 6.42741 43.0085 6.21549 43.168 6.04688C43.332 5.87826 43.5645 5.79395 43.8652 5.79395C44.166 5.79395 44.3984 5.87826 44.5625 6.04688C44.7266 6.21549 44.8086 6.42741 44.8086 6.68262C44.8086 6.93327 44.7266 7.1429 44.5625 7.31152C44.3984 7.47559 44.166 7.55762 43.8652 7.55762C43.5645 7.55762 43.332 7.47559 43.168 7.31152C43.0085 7.1429 42.9287 6.93327 42.9287 6.68262ZM48.0488 8.60352L48.0967 9.45801C48.6436 8.7972 49.3613 8.4668 50.25 8.4668C51.7904 8.4668 52.5742 9.34863 52.6016 11.1123V16H50.9404V11.208C50.9404 10.7386 50.8379 10.3923 50.6328 10.1689C50.4323 9.94108 50.1019 9.82715 49.6416 9.82715C48.9717 9.82715 48.4727 10.1302 48.1445 10.7363V16H46.4834V8.60352H48.0488ZM54.0098 12.2471C54.0098 11.0986 54.2786 10.1826 54.8164 9.49902C55.3587 8.81087 56.0765 8.4668 56.9697 8.4668C57.8128 8.4668 58.4759 8.76074 58.959 9.34863L59.0342 8.60352H60.5312V15.7744C60.5312 16.7451 60.2282 17.5107 59.6221 18.0713C59.0205 18.6318 58.207 18.9121 57.1816 18.9121C56.6393 18.9121 56.1084 18.7982 55.5889 18.5703C55.0739 18.347 54.682 18.0531 54.4131 17.6885L55.1992 16.6904C55.7096 17.2965 56.3385 17.5996 57.0859 17.5996C57.6374 17.5996 58.0726 17.4492 58.3916 17.1484C58.7106 16.8522 58.8701 16.4147 58.8701 15.8359V15.3369C58.3916 15.8701 57.7536 16.1367 56.9561 16.1367C56.0902 16.1367 55.3815 15.7926 54.8301 15.1045C54.2832 14.4163 54.0098 13.4639 54.0098 12.2471ZM55.6641 12.3906C55.6641 13.1335 55.8145 13.7191 56.1152 14.1475C56.4206 14.5713 56.8421 14.7832 57.3799 14.7832C58.0498 14.7832 58.5465 14.4961 58.8701 13.9219V10.668C58.5557 10.1074 58.0635 9.82715 57.3936 9.82715C56.8467 9.82715 56.4206 10.0436 56.1152 10.4766C55.8145 10.9095 55.6641 11.5475 55.6641 12.3906Z" fill="#E2B93B"/>
</svg>
