<svg width="44" height="44" viewBox="0 0 44 44" fill="none" xmlns="http://www.w3.org/2000/svg">
<rect x="0.5" y="0.5" width="43" height="43" rx="21.5" fill="white" stroke="#0063E8"/>
<path d="M19.5936 29.3938C18.0186 29.3938 16.4436 28.8031 15.2404 27.6L10.2967 22.6562C9.1373 21.4969 8.50293 19.9437 8.50293 18.3031C8.50293 16.6625 9.1373 15.1094 10.2967 13.95C12.5717 11.675 16.1373 11.5219 18.5873 13.5781C19.0467 13.95 19.0904 14.6281 18.7186 15.0875C18.3467 15.5469 17.6686 15.5906 17.2092 15.2188C15.6123 13.8844 13.2717 13.9719 11.7842 15.4594C11.0186 16.225 10.6029 17.2312 10.6029 18.3031C10.6029 19.375 11.0186 20.3812 11.7842 21.1469L16.7498 26.0906C18.3248 27.6656 20.8623 27.6656 22.4373 26.0906C23.9467 24.5812 24.0123 22.1531 22.5904 20.5781C22.1967 20.1406 22.2404 19.4625 22.6779 19.0687C23.1154 18.675 23.7936 18.7188 24.1873 19.1562C26.3529 21.5844 26.2436 25.3031 23.9467 27.6C22.7436 28.8031 21.1686 29.3938 19.5936 29.3938Z" fill="#0364E6"/>
<path d="M29.3496 31.8656C27.9714 31.8656 26.5714 31.4062 25.4339 30.4438C24.9746 30.0719 24.9089 29.3938 25.3027 28.9344C25.6746 28.475 26.3527 28.4094 26.8121 28.8031C28.4089 30.1375 30.7496 30.0281 32.2152 28.5406C33.7902 26.9656 33.7902 24.4281 32.2152 22.8531L27.2496 17.9094C25.6746 16.3344 23.1371 16.3344 21.5621 17.9094C20.0746 19.3969 19.9652 21.7156 21.2996 23.3344C21.6714 23.7937 21.6058 24.45 21.1683 24.8438C20.709 25.2156 20.0527 25.15 19.6589 24.7125C17.6027 22.2625 17.7777 18.6969 20.0527 16.4219C22.4589 14.0156 26.3527 14.0156 28.7589 16.4219L33.7027 21.3438C36.1089 23.75 36.1089 27.6438 33.7027 30.05C32.4996 31.2531 30.9246 31.8656 29.3496 31.8656Z" fill="#0364E6"/>
</svg>
