<?xml version="1.0" encoding="UTF-8"?>
<svg width="44px" height="43px" viewBox="0 0 44 43" version="1.1" xmlns="http://www.w3.org/2000/svg" xmlns:xlink="http://www.w3.org/1999/xlink">
    <!-- Generator: Sketch 63.1 (92452) - https://sketch.com -->
    <title>Share Copy</title>
    <desc>Created with Sketch.</desc>
    <g id="Page-1" stroke="none" stroke-width="1" fill="none" fill-rule="evenodd">
        <g id="Calling-Copy" transform="translate(-585.000000, -531.000000)">
            <g id="Share-Copy" transform="translate(586.000000, 531.000000)">
                <path d="M28,13.2 L13.5999999,13.2 C12.1640596,13.2 11,14.3640596 11,15.8 L11,24.7999997 C11,26.23594 12.1640596,27.3999997 13.5999999,27.3999997 L28,27.3999997 C29.4359403,27.3999997 30.6,26.23594 30.6,24.7999997 L30.6,15.8 C30.6,14.3640596 29.4359403,13.2 28,13.2 Z M13.6,14.8 L28,14.8 C28.5522847,14.8 29,15.2477152 29,15.8 L29,24.8 C29,25.3522844 28.5522847,25.8 28,25.8 L13.6,25.8 C13.0477152,25.8 12.6,25.3522844 12.6,24.8 L12.6,15.8 C12.6,15.2477152 13.0477152,14.8 13.6,14.8 Z" id="Rectangle" fill="#FFFFFF" fill-rule="nonzero"></path>
                <path d="M21.6999997,18.6169999 C18.1989998,19.1029999 16.8039998,21.4969998 16.2999998,23.8999997 C17.5509998,22.2169998 19.1979998,21.4519998 21.6999997,21.4519998 L21.6999997,23.4229998 L25.2999998,20.0569998 L21.6999997,16.6999999 L21.6999997,18.6169999 Z" id="Path" fill="#FFFFFF"></path>
                <path d="M31.5999994,27.5 C32.0418272,27.5 32.3999994,27.8581722 32.3999994,28.3 C32.3999994,28.707841 32.0948113,29.0444016 31.7003497,29.0937669 L31.5999994,29.1 L10,29.1 C9.5581722,29.1 9.2,28.7418278 9.2,28.3 C9.2,27.892159 9.50518815,27.5555984 9.8996497,27.5062331 L10,27.5 L31.5999994,27.5 Z" id="Path" fill="#FFFFFF" fill-rule="nonzero"></path>
                <circle id="Oval-11" stroke="#FFFFFF" stroke-width="0.75" cx="21" cy="21.5" r="21"></circle>
            </g>
        </g>
    </g>
</svg>