<?xml version="1.0" encoding="UTF-8"?>
<svg width="25px" height="25px" viewBox="0 0 25 25" version="1.1" xmlns="http://www.w3.org/2000/svg" xmlns:xlink="http://www.w3.org/1999/xlink">
    <!-- Generator: Sketch 61 (89581) - https://sketch.com -->
    <title>steps-check-mark</title>
    <desc>Created with Sketch.</desc>
    <g id="Page-1" stroke="none" stroke-width="1" fill="none" fill-rule="evenodd">
        <g id="steps-check-mark" fill="#0063E8" fill-rule="nonzero">
            <path d="M12.5,0 C5.596591,0 0,5.5965909 0,12.5 C0,19.403409 5.596591,25 12.5,25 C19.403409,25 25,19.403409 25,12.5 C25,5.5965909 19.403409,0 12.5,0 Z M14.619318,13.8863636 C13.125,15.6875 11.713068,17.622159 11.701705,17.636364 L11.082386,18.409091 C10.951705,18.582386 10.698864,18.602273 10.539773,18.454545 L5.565341,13.8323864 C5.059659,13.3636364 5.03125,12.5710227 5.5,12.0653409 C5.96875,11.5596591 6.761364,11.53125 7.267045,12 L10.247159,14.7698864 C10.403409,14.9147727 10.647727,14.8977273 10.784091,14.7329545 C11.244318,14.1619318 11.875,13.46875 12.556818,12.7840909 C15.119318,10.2017045 16.693182,8.8153409 17.534091,8.2017045 C18.556818,7.4573864 19.730114,6.8210227 20.014205,7.1732955 C20.454545,7.7244318 20.184659,7.90625 19.514205,8.5795455 C18.136364,9.9602273 17.207386,10.7642045 14.619318,13.8863636 Z" id="icon-make-sure"></path>
        </g>
    </g>
</svg>