<?xml version="1.0" encoding="UTF-8"?>
<svg width="102px" height="102px" viewBox="0 0 102 102" version="1.1" xmlns="http://www.w3.org/2000/svg" xmlns:xlink="http://www.w3.org/1999/xlink">
    <!-- Generator: Sketch 61 (89581) - https://sketch.com -->
    <title>success-icon</title>
    <desc>Created with Sketch.</desc>
    <g id="Page-1" stroke="none" stroke-width="1" fill="none" fill-rule="evenodd">
        <g id="success-icon" fill-rule="nonzero">
            <path d="M97.1713334,31.1779142 C94.5711782,25.1865883 90.8717895,19.76844 86.1766789,15.0733292 C81.4815681,10.3782186 76.0634197,6.67882982 70.0720939,4.07867464 C63.8366655,1.37191783 57.2937915,1.49213975e-13 50.625004,1.49213975e-13 C43.9562165,1.49213975e-13 37.4133425,1.37191783 31.1779142,4.07867464 C25.1865883,6.67882982 19.76844,10.3782186 15.0733292,15.0733292 C10.3782186,19.76844 6.67882982,25.1865883 4.07867464,31.1779142 C1.37191783,37.4133425 3.7658765e-13,43.9562165 3.7658765e-13,50.625004 C3.7658765e-13,57.2937915 1.37191783,63.8366655 4.07867464,70.0720939 C6.67882982,76.0634197 10.3782186,81.4815681 15.0733292,86.1766789 C19.76844,90.8717895 25.1865883,94.5711782 31.1779142,97.1713334 C37.4133425,99.8780902 43.9562165,101.250008 50.625004,101.250008 C57.2937915,101.250008 63.8366655,99.8780902 70.0720939,97.1713334 C76.0634197,94.5711782 81.4815681,90.8717895 86.1766789,86.1766789 C90.8717895,81.4815681 94.5711782,76.0634197 97.1713334,70.0720939 C99.8780902,63.8366655 101.250008,57.2937915 101.250008,50.625004 C101.250008,43.9562165 99.8780902,37.4133425 97.1713334,31.1779142 Z" id="Path" fill="#0091FF"></path>
            <path d="M75.0597533,40.8687326 L48.1301985,68.0508279 C47.5035814,68.6833213 46.6817885,69 45.8604236,69 C45.0390587,69 44.2172658,68.6837533 43.5906487,68.0508279 L26.9403537,51.2443894 C26.3381335,50.6369538 26,49.8126387 26,48.953329 C26,48.0940193 26.3385616,47.2697041 26.9403537,46.6622685 L30.2463581,43.325261 C31.5000203,42.0602742 33.5326738,42.0598421 34.785908,43.325261 L45.8604236,54.5036314 L67.214199,32.9491721 C67.8159911,32.3413045 68.6326479,32 69.483974,32 C70.3353001,32 71.1519568,32.3413045 71.7537489,32.9491721 L75.0597533,36.2861797 C76.3134156,37.5515985 76.3134156,39.6033138 75.0597533,40.8687326 Z" id="Path" fill="#FFFFFF"></path>
            <path d="M23.0733292,10.0733292 C18.3782186,14.76844 14.6788298,20.1865883 12.0786746,26.1779142 C9.37191783,32.4133425 8,38.9562165 8,45.625004 C8,52.2937915 9.37191783,58.8366655 12.0786746,65.0720939 C14.6788298,71.0634197 18.3782186,76.4815681 23.0733292,81.1766789 C27.76844,85.8717895 33.1865883,89.5711782 39.1779142,92.1713334 C45.4133425,94.8780902 51.9562165,96.250008 58.625004,96.250008 C65.2937915,96.250008 71.8366655,94.8780902 78.0720939,92.1713334 C78.9767417,91.7787284 79.8683217,91.3610621 80.746318,90.9186908 C77.4452692,93.4286458 73.8740897,95.5213181 70.0720939,97.1713334 C63.8366655,99.8780902 57.2937915,101.250008 50.625004,101.250008 C43.9562165,101.250008 37.4133425,99.8780902 31.1779142,97.1713334 C25.1865883,94.5711782 19.76844,90.8717895 15.0733292,86.1766789 C10.3782186,81.4815681 6.67882982,76.0634197 4.07867464,70.0720939 C1.37191783,63.8366655 -9.23705556e-14,57.2937915 -9.23705556e-14,50.625004 C-9.23705556e-14,43.9562165 1.37191783,37.4133425 4.07867464,31.1779142 C6.67882982,25.1865883 10.3782186,19.76844 15.0733292,15.0733292 C19.0592435,11.087415 23.5662627,7.81913357 28.5026946,5.3318188 C26.6005841,6.77549875 24.7887002,8.35795822 23.0733292,10.0733292 Z" id="Combined-Shape" fill="#0063E8"></path>
        </g>
    </g>
</svg>