<svg width="165" height="55" viewBox="0 0 165 55" fill="none" xmlns="http://www.w3.org/2000/svg">
<g filter="url(#filter0_d)">
<rect x="4" width="157" height="47" rx="23.5" fill="#0364E6"/>
</g>
<path d="M64.8487 25.9688C64.9737 27.9844 66.6534 29.2734 69.1534 29.2734C71.8253 29.2734 73.4971 27.9219 73.4971 25.7656C73.4971 24.0703 72.544 23.1328 70.2315 22.5938L68.9893 22.2891C67.5206 21.9453 66.9268 21.4844 66.9268 20.6797C66.9268 19.6641 67.8487 19 69.2315 19C70.544 19 71.4503 19.6484 71.6143 20.6875H73.3175C73.2159 18.7891 71.544 17.4531 69.255 17.4531C66.794 17.4531 65.1534 18.7891 65.1534 20.7969C65.1534 22.4531 66.0831 23.4375 68.1221 23.9141L69.5753 24.2656C71.0675 24.6172 71.7237 25.1328 71.7237 25.9922C71.7237 26.9922 70.6925 27.7188 69.2862 27.7188C67.7784 27.7188 66.7315 27.0391 66.5831 25.9688H64.8487ZM78.4293 27.7266C77.5153 27.7266 76.8512 27.2812 76.8512 26.5156C76.8512 25.7656 77.3825 25.3672 78.5543 25.2891L80.6325 25.1562V25.8672C80.6325 26.9219 79.695 27.7266 78.4293 27.7266ZM77.9996 29.1406C79.1168 29.1406 80.0465 28.6562 80.5543 27.8047H80.6871V29H82.3043V23.1875C82.3043 21.3906 81.1012 20.3281 78.9684 20.3281C77.0387 20.3281 75.6637 21.2656 75.4918 22.7266H77.1168C77.3043 22.125 77.9528 21.7812 78.8903 21.7812C80.0387 21.7812 80.6325 22.2891 80.6325 23.1875V23.9219L78.3278 24.0547C76.3043 24.1797 75.1637 25.0625 75.1637 26.5938C75.1637 28.1484 76.359 29.1406 77.9996 29.1406ZM91.7053 20.4922H89.924L87.8146 27.2031H87.6818L85.5646 20.4922H83.7678L86.8381 29H88.6428L91.7053 20.4922ZM96.6609 21.7578C97.9031 21.7578 98.7156 22.625 98.7546 23.9609H94.4578C94.5515 22.6328 95.4187 21.7578 96.6609 21.7578ZM98.7468 26.7031C98.4343 27.3672 97.739 27.7344 96.7234 27.7344C95.3796 27.7344 94.5125 26.7891 94.4578 25.2969V25.2031H100.466V24.6172C100.466 21.9453 99.0359 20.3281 96.6687 20.3281C94.2703 20.3281 92.7468 22.0547 92.7468 24.7734C92.7468 27.4922 94.239 29.1641 96.6765 29.1641C98.6218 29.1641 99.9812 28.2266 100.364 26.7031H98.7468Z" fill="white"/>
<defs>
<filter id="filter0_d" x="0" y="0" width="165" height="55" filterUnits="userSpaceOnUse" color-interpolation-filters="sRGB">
<feFlood flood-opacity="0" result="BackgroundImageFix"/>
<feColorMatrix in="SourceAlpha" type="matrix" values="0 0 0 0 0 0 0 0 0 0 0 0 0 0 0 0 0 0 127 0"/>
<feOffset dy="4"/>
<feGaussianBlur stdDeviation="2"/>
<feColorMatrix type="matrix" values="0 0 0 0 0 0 0 0 0 0 0 0 0 0 0 0 0 0 0.25 0"/>
<feBlend mode="normal" in2="BackgroundImageFix" result="effect1_dropShadow"/>
<feBlend mode="normal" in="SourceGraphic" in2="effect1_dropShadow" result="shape"/>
</filter>
</defs>
</svg>
