<svg width="20" height="20" viewBox="0 0 20 20" fill="none" xmlns="http://www.w3.org/2000/svg">
<path d="M18.8687 12.4431L17.4615 11.24C17.5281 10.8318 17.5625 10.415 17.5625 9.9982C17.5625 9.58141 17.5281 9.16461 17.4615 8.75641L18.8687 7.55328C18.9749 7.46242 19.0509 7.3414 19.0865 7.20631C19.1222 7.07122 19.116 6.92847 19.0686 6.79703L19.0492 6.74117C18.6618 5.65842 18.0817 4.65469 17.3369 3.77848L17.2982 3.73336C17.2079 3.62713 17.0875 3.55076 16.9529 3.51432C16.8182 3.47789 16.6757 3.4831 16.5441 3.52926L14.7975 4.15016C14.1529 3.62164 13.4332 3.20485 12.6555 2.91266L12.3182 1.08649C12.2927 0.949077 12.2261 0.822664 12.1271 0.724041C12.028 0.625417 11.9014 0.559253 11.7639 0.534338L11.7059 0.523596C10.5865 0.321643 9.40918 0.321643 8.28984 0.523596L8.23183 0.534338C8.09433 0.559253 7.96766 0.625417 7.86865 0.724041C7.76964 0.822664 7.70299 0.949077 7.67754 1.08649L7.33808 2.92125C6.56656 3.2135 5.84807 3.63008 5.21113 4.15445L3.45156 3.52926C3.32 3.48273 3.1774 3.47733 3.0427 3.51379C2.908 3.55025 2.78759 3.62683 2.69746 3.73336L2.65879 3.77848C1.91488 4.65531 1.33487 5.65887 0.946483 6.74117L0.927147 6.79703C0.830467 7.06559 0.909959 7.36637 1.12695 7.55328L2.55137 8.7693C2.48476 9.17321 2.45254 9.5857 2.45254 9.99606C2.45254 10.4086 2.48476 10.8211 2.55137 11.2228L1.12695 12.4388C1.02081 12.5297 0.944842 12.6507 0.909151 12.7858C0.87346 12.9209 0.879737 13.0636 0.927147 13.1951L0.946483 13.2509C1.33535 14.3338 1.91113 15.3328 2.65879 16.2136L2.69746 16.2588C2.78781 16.365 2.90823 16.4414 3.04285 16.4778C3.17746 16.5142 3.31996 16.509 3.45156 16.4629L5.21113 15.8377C5.85137 16.364 6.56679 16.7808 7.33808 17.0709L7.67754 18.9056C7.70299 19.043 7.76964 19.1694 7.86865 19.2681C7.96766 19.3667 8.09433 19.4329 8.23183 19.4578L8.28984 19.4685C9.41946 19.6716 10.5762 19.6716 11.7059 19.4685L11.7639 19.4578C11.9014 19.4329 12.028 19.3667 12.1271 19.2681C12.2261 19.1694 12.2927 19.043 12.3182 18.9056L12.6555 17.0795C13.4329 16.788 14.1567 16.3699 14.7975 15.842L16.5441 16.4629C16.6757 16.5094 16.8183 16.5148 16.953 16.4783C17.0877 16.4419 17.2081 16.3653 17.2982 16.2588L17.3369 16.2136C18.0846 15.3306 18.6604 14.3338 19.0492 13.2509L19.0686 13.1951C19.1652 12.9308 19.0857 12.63 18.8687 12.4431ZM15.9361 9.00992C15.9898 9.33434 16.0178 9.66735 16.0178 10.0004C16.0178 10.3334 15.9898 10.6664 15.9361 10.9908L15.7943 11.8523L17.3992 13.2252C17.1559 13.7857 16.8488 14.3162 16.484 14.8064L14.4902 14.0996L13.8156 14.6539C13.3021 15.075 12.7307 15.4058 12.1119 15.6379L11.2934 15.9451L10.9088 18.0291C10.302 18.0978 9.6894 18.0978 9.08261 18.0291L8.69804 15.9408L7.88594 15.6293C7.27363 15.3972 6.7043 15.0664 6.19512 14.6474L5.52051 14.091L3.51387 14.8043C3.14863 14.3123 2.84355 13.7816 2.59863 13.223L4.2207 11.8373L4.08105 10.9779C4.02949 10.6578 4.00156 10.3269 4.00156 10.0004C4.00156 9.67164 4.02734 9.34293 4.08105 9.02281L4.2207 8.16344L2.59863 6.7777C2.8414 6.21695 3.14863 5.68844 3.51387 5.19645L5.52051 5.90973L6.19512 5.35328C6.7043 4.93434 7.27363 4.60348 7.88594 4.37145L8.70019 4.06422L9.08476 1.97594C9.68847 1.90719 10.3051 1.90719 10.9109 1.97594L11.2955 4.05992L12.1141 4.36715C12.7307 4.59918 13.3043 4.93004 13.8178 5.35113L14.4924 5.90543L16.4861 5.1986C16.8514 5.69059 17.1564 6.22125 17.4014 6.77985L15.7965 8.1527L15.9361 9.00992ZM10 6.00426C7.91172 6.00426 6.21875 7.69723 6.21875 9.78551C6.21875 11.8738 7.91172 13.5668 10 13.5668C12.0883 13.5668 13.7812 11.8738 13.7812 9.78551C13.7812 7.69723 12.0883 6.00426 10 6.00426ZM11.7016 11.4871C11.4784 11.7109 11.2132 11.8884 10.9211 12.0093C10.6291 12.1302 10.3161 12.1923 10 12.1918C9.35762 12.1918 8.7539 11.9404 8.29844 11.4871C8.07462 11.2639 7.89714 10.9987 7.7762 10.7067C7.65526 10.4146 7.59326 10.1016 7.59375 9.78551C7.59375 9.14313 7.84512 8.53942 8.29844 8.08395C8.7539 7.62848 9.35762 7.37926 10 7.37926C10.6424 7.37926 11.2461 7.62848 11.7016 8.08395C11.9254 8.30712 12.1029 8.57235 12.2238 8.86437C12.3447 9.15639 12.4067 9.46944 12.4062 9.78551C12.4062 10.4279 12.1549 11.0316 11.7016 11.4871Z" fill="#202124"/>
</svg>
