<?xml version="1.0" encoding="UTF-8"?>
<svg width="85px" height="72px" viewBox="0 0 85 72" version="1.1" xmlns="http://www.w3.org/2000/svg" xmlns:xlink="http://www.w3.org/1999/xlink">
    <!-- Generator: Sketch 61 (89581) - https://sketch.com -->
    <title>visit-icon1</title>
    <desc>Created with Sketch.</desc>
    <g id="Page-1" stroke="none" stroke-width="1" fill="none" fill-rule="evenodd">
        <g id="visit-icon1" fill-rule="nonzero">
            <path d="M84.4,43.4666667 C84,41.8666667 82.5333333,40.6666667 80.8,40.6666667 L33.4666667,40.6666667 C32.5333333,40.6666667 31.6,41.0666667 30.9333333,41.7333333 C30.2666667,42.4 29.8666667,43.4666667 29.8666667,44.5333333 C30,46.4 31.7333333,47.7333333 33.6,47.7333333 L37.0666667,47.7333333 L37.0666667,69.0666667 C37.0666667,70.4 38.1333333,71.6 39.6,71.6 L74.6666667,71.6 C76,71.6 77.2,70.5333333 77.2,69.0666667 L77.2,47.7333333 L80.8,47.7333333 C81.7333333,47.7333333 82.6666667,47.3333333 83.3333333,46.6666667 C84.2666667,45.8666667 84.6666667,44.6666667 84.4,43.4666667 Z M62.8,58.5333333 L59.6,58.5333333 L59.6,61.7333333 C59.6,63.0666667 58.5333333,64.1333333 57.2,64.1333333 L57.2,64.1333333 C55.8666667,64.1333333 54.8,63.0666667 54.8,61.7333333 L54.8,58.5333333 L51.6,58.5333333 C50.2666667,58.5333333 49.2,57.4666667 49.2,56.1333333 L49.2,56.1333333 C49.2,54.8 50.2666667,53.7333333 51.6,53.7333333 L54.6666667,53.7333333 L54.6666667,50.5333333 C54.6666667,49.2 55.7333333,48.1333333 57.0666667,48.1333333 L57.2,48.1333333 C58.5333333,48.1333333 59.6,49.2 59.6,50.5333333 L59.6,53.7333333 L62.8,53.7333333 C63.4666667,53.7333333 64,54 64.4,54.4 C64.8,54.8 65.0666667,55.4666667 65.0666667,56.1333333 C65.0666667,57.4666667 64,58.5333333 62.8,58.5333333 Z" id="Shape" fill="#0091FF"></path>
            <g id="Group" transform="translate(0.000000, 16.000000)">
                <path d="M24.1333333,6.13333333 C24.1333333,9.6 21.6,12.1333333 18.1333333,12.1333333 C14.6666667,12.1333333 12.1333333,9.6 12.1333333,6.13333333 C12.1333333,2.8 14.8,0 18.1333333,0 C21.4666667,0.133333333 24.2666667,2.8 24.1333333,6.13333333 Z" id="Path" fill="#0063E8"></path>
                <path d="M20.4,51.7333333 C21.8666667,51.7333333 23.3333333,51.6 24.9333333,51.6 C26.2666667,51.4666667 27.6,51.4666667 28.8,51.4666667 C30.2666667,51.4666667 31.6,50.2666667 31.6,48.6666667 C31.6,47.0666667 30.4,45.8666667 28.8,45.8666667 C27.4666667,45.8666667 26,46 24.6666667,46 C21.6,46.1333333 18.4,46.2666667 15.8666667,45.7333333 C13.6,45.3333333 11.6,44 10.2666667,42 C9.06666667,40.2666667 8.8,38.2666667 8.4,35.7333333 C8.4,35.3333333 8.26666667,34.9333333 8.26666667,34.6666667 L6.4,22.5333333 C6.13333333,21.0666667 4.8,20 3.2,20.2666667 C1.73333333,20.5333333 0.666666667,21.8666667 0.933333333,23.4666667 L2.8,35.6 C2.8,36 2.93333333,36.2666667 2.93333333,36.6666667 C3.33333333,39.4666667 3.73333333,42.5333333 5.73333333,45.3333333 C7.86666667,48.4 10.9333333,50.5333333 14.5333333,51.2 C16.4,51.6 18.4,51.7333333 20.4,51.7333333 Z" id="Path" fill="#0091FF"></path>
                <path d="M24,34.8 C24,34.8 29.3333333,35.0666667 32.9333333,35.3333333 C33.3333333,35.3333333 33.6,35.6 33.6,36 L33.6,43.4666667 C33.6,43.8666667 33.3333333,44.1333333 32.9333333,44.1333333 C32.1333333,44.1333333 30.5333333,44.1333333 29.8666667,44.1333333 C26.6666667,44.1333333 23.4666667,44.1333333 20.1333333,44.1333333 C15.0666667,44.1333333 12.4,41.8666667 12.4,36.8 C12.2666667,31.3333333 11.8666667,26 11.4666667,20.6666667 C11.2,17.3333333 13.4666667,14.5333333 16.6666667,14.1333333 C16.6666667,14.1333333 16.8,14.1333333 16.8,14.1333333 C17.8666667,14 18.8,14.2666667 19.7333333,14.6666667 C21.3333333,15.4666667 22.5333333,17.0666667 22.9333333,19.2 C23.2,20.9333333 23.3333333,22.6666667 23.4666667,24.5333333 C23.4666667,25.0666667 23.6,25.4666667 23.6,26 L24,34.8 Z" id="Path" fill="#0063E8"></path>
            </g>
            <path d="M64,8.93333333 C64,8.93333333 64,8.8 64,8.93333333 L64,8.66666667 C64,8.4 64,8.26666667 64.1333333,8 C64.2666667,7.33333333 64.4,6.66666667 64.4,6.13333333 C64.5333333,4 63.3333333,2.26666667 61.4666667,1.33333333 C61.2,1.2 61.0666667,1.2 60.8,1.06666667 C59.6,0.666666667 58.4,0.4 57.2,0.4 C56.9333333,0.4 56.6666667,0.4 56.4,0.4 C55.6,0.4 54.6666667,0.533333333 53.7333333,0.933333333 C53.6,0.933333333 53.6,1.06666667 53.4666667,1.06666667 C53.0666667,1.33333333 52.8,1.6 52.5333333,2 L52.5333333,2 C52.5333333,2 52.5333333,2 52.5333333,2 C52.1333333,2.26666667 51.8666667,2.53333333 51.6,2.8 C51.6,2.8 51.6,2.8 51.6,2.8 C51.2,2.93333333 50.9333333,3.2 50.6666667,3.6 C50.4,4.13333333 50.2666667,4.66666667 50.2666667,5.46666667 C50.2666667,6.26666667 50.2666667,6.93333333 50.2666667,7.46666667 C50.2666667,7.73333333 50.4,8 50.4,8.26666667 C50.4,8.4 50.5333333,8.66666667 50.5333333,8.8 C50.5333333,8.8 50.5333333,8.8 50.4,8.8 C49.7333333,8.93333333 49.3333333,9.73333333 49.3333333,10.4 L49.3333333,10.4 C49.3333333,10.5333333 49.3333333,10.8 49.3333333,10.9333333 C49.3333333,11.2 49.3333333,11.4666667 49.4666667,11.6 C49.4666667,11.7333333 49.4666667,11.8666667 49.4666667,12 C49.6,13.0666667 50.1333333,13.8666667 50.9333333,14.2666667 C50.9333333,14.2666667 50.9333333,14.2666667 50.9333333,14.4 C51.6,17.2 53.8666667,19.2 56.4,19.6 C56.6666667,19.6 56.9333333,19.6 57.3333333,19.6 C59.3333333,19.6 61.0666667,18.5333333 62.2666667,16.5333333 C62.5333333,16.1333333 62.6666667,15.7333333 62.9333333,15.3333333 C63.0666667,15.2 63.0666667,14.9333333 63.0666667,14.8 C63.0666667,14.5333333 63.2,14.4 63.2,14.2666667 C63.3333333,14.1333333 63.4666667,14 63.6,13.8666667 L63.8666667,13.6 C64.5333333,13.0666667 64.6666667,12.2666667 64.6666667,11.7333333 C64.6666667,11.6 64.6666667,11.4666667 64.6666667,11.3333333 C64.6666667,11.0666667 64.8,10.8 64.8,10.6666667 C64.8,10.5333333 64.8,10.2666667 64.8,10.1333333 L64.8,10.1333333 C64.9333333,9.86666667 64.6666667,9.06666667 64,8.93333333 Z M63.7333333,10.5333333 L63.7333333,10.5333333 C63.7333333,10.8 63.7333333,10.9333333 63.7333333,11.0666667 C63.7333333,11.2 63.7333333,11.4666667 63.6,11.6 C63.6,11.7333333 63.6,11.8666667 63.6,12 C63.6,12.5333333 63.4666667,12.8 63.2,13.0666667 C63.0666667,13.0666667 63.0666667,13.2 62.9333333,13.2 C62.9333333,13.2 62.9333333,13.2 62.8,13.3333333 C62.8,13.3333333 62.8,13.3333333 62.8,13.3333333 C62.8,13.3333333 62.8,13.4666667 62.6666667,13.4666667 C62.5333333,13.7333333 62.2666667,14.1333333 62.2666667,14.1333333 C61.8666667,15.0666667 61.4666667,15.8666667 60.8,16.6666667 C60.8,16.6666667 60.8,16.6666667 60.8,16.6666667 C59.7333333,18 58.2666667,18.6666667 56.6666667,18.4 C56,18.2666667 55.3333333,18 54.6666667,17.6 C53.6,17.0666667 52.6666667,15.8666667 52.2666667,14.8 C52.2666667,14.6666667 51.8666667,13.7333333 51.7333333,13.3333333 L51.6,13.3333333 C51.6,13.3333333 51.6,13.3333333 51.4666667,13.3333333 C50.9333333,13.0666667 50.8,12.4 50.6666667,12 C50.6666667,11.8666667 50.6666667,11.7333333 50.6666667,11.6 C50.6666667,11.4666667 50.6666667,11.2 50.5333333,11.0666667 C50.5333333,10.9333333 50.5333333,10.8 50.5333333,10.6666667 L50.5333333,10.5333333 C50.5333333,10.4 50.5333333,10.2666667 50.6666667,10.2666667 C50.6666667,10.2666667 50.8,10.2666667 50.8,10.2666667 C50.8,10.2666667 50.9333333,10.2666667 50.9333333,10.2666667 C50.9333333,10.2666667 51.0666667,10.2666667 51.0666667,10.2666667 L51.2,10.2666667 C51.3333333,10.2666667 51.3333333,10.1333333 51.4666667,10 C51.6,9.86666667 51.6,9.73333333 51.6,9.46666667 C51.6,9.2 51.6,8.93333333 51.4666667,8.66666667 C52.9333333,8.66666667 54.2666667,8.66666667 55.7333333,8.4 C56.1333333,8.26666667 56.5333333,8.26666667 56.9333333,8.13333333 C58.1333333,7.86666667 59.3333333,7.33333333 60.4,6.53333333 C60.9333333,7.2 61.6,7.73333333 62.4,8 C62.4,8 62.5333333,8 62.5333333,8 C62.5333333,8.26666667 62.4,8.53333333 62.4,8.66666667 L62.4,8.93333333 C62.4,9.2 62.2666667,9.46666667 62.4,9.73333333 C62.4,9.86666667 62.5333333,9.86666667 62.5333333,10 C62.8,10.2666667 63.0666667,10.2666667 63.3333333,10.2666667 C63.6,10.1333333 63.7333333,10.2666667 63.7333333,10.5333333 L63.7333333,10.5333333 Z" id="Shape" fill="#0063E8"></path>
            <path d="M73.7333333,28.5333333 C73.6,27.6 73.2,26.8 72.5333333,26.2666667 C72.1333333,25.8666667 71.6,25.4666667 71.2,25.2 C69.6,24.2666667 67.7333333,23.4666667 66,22.9333333 C65.8666667,22.9333333 65.7333333,22.8 65.6,22.8 C65.4666667,22.8 65.3333333,22.6666667 65.2,22.6666667 C64.8,22.5333333 64.2666667,22.4 63.8666667,22.2666667 C63.7333333,22.5333333 63.6,22.6666667 63.4666667,22.9333333 C63.0666667,23.4666667 62.6666667,24.1333333 62.2666667,24.6666667 C61.6,25.6 60.9333333,26.4 60.2666667,27.2 C59.8666667,27.6 59.6,28.1333333 59.2,28.5333333 C59.2,28.5333333 59.2,28.5333333 59.0666667,28.6666667 C59.0666667,28.6666667 59.0666667,28.6666667 59.0666667,28.6666667 C58.9333333,28.8 58.9333333,28.8 58.8,28.9333333 C58.8,28.6666667 58.8,28.5333333 58.6666667,28.2666667 C58.4,26.5333333 58.2666667,25.0666667 58.2666667,24.9333333 L58.2666667,24.9333333 C58.4,24.8 58.4,24.5333333 58.5333333,24.4 C58.5333333,24.4 58.5333333,24.4 58.5333333,24.4 L58.5333333,24.2666667 C58.5333333,24.1333333 58.6666667,24.1333333 58.6666667,24 C58.6666667,24 58.6666667,24 58.6666667,23.8666667 C58.6666667,23.8666667 58.6666667,23.8666667 58.6666667,23.8666667 L58.6666667,23.8666667 C58.6666667,23.7333333 58.8,23.6 58.8,23.4666667 C58.8,23.3333333 58.8,23.2 58.6666667,23.0666667 C58.6666667,23.0666667 58.6666667,22.9333333 58.6666667,22.9333333 C58.6666667,22.9333333 58.6666667,22.9333333 58.6666667,22.9333333 C58.6666667,22.9333333 58.6666667,22.8 58.6666667,22.8 C58.6666667,22.8 58.6666667,22.8 58.6666667,22.8 C58.6666667,22.8 58.5333333,22.6666667 58.5333333,22.6666667 C58.4,22.5333333 58.2666667,22.5333333 58.1333333,22.5333333 C58,22.5333333 57.7333333,22.5333333 57.6,22.5333333 C57.3333333,22.5333333 57.2,22.5333333 56.9333333,22.5333333 C56.8,22.5333333 56.5333333,22.5333333 56.4,22.5333333 C56.2666667,22.5333333 56.2666667,22.5333333 56.1333333,22.5333333 C56,22.5333333 56,22.5333333 55.8666667,22.5333333 C55.8666667,22.5333333 55.7333333,22.5333333 55.6,22.6666667 C55.6,22.6666667 55.4666667,22.8 55.4666667,22.8 L55.4666667,22.8 C55.4666667,22.8 55.4666667,22.9333333 55.4666667,22.9333333 C55.4666667,22.9333333 55.4666667,22.9333333 55.4666667,22.9333333 L55.4666667,23.0666667 C55.4666667,23.2 55.3333333,23.3333333 55.3333333,23.4666667 C55.3333333,23.6 55.4666667,23.7333333 55.4666667,23.8666667 L55.4666667,23.8666667 C55.4666667,23.8666667 55.4666667,23.8666667 55.4666667,23.8666667 C55.4666667,23.8666667 55.4666667,23.8666667 55.4666667,24 C55.4666667,24.1333333 55.6,24.1333333 55.6,24.2666667 C55.6,24.2666667 55.6,24.4 55.6,24.4 C55.6,24.4 55.6,24.4 55.6,24.5333333 C55.7333333,24.6666667 55.7333333,24.8 55.8666667,25.0666667 L55.8666667,25.0666667 C55.8666667,25.2 55.6,26.8 55.4666667,28.4 C55.4666667,28.6666667 55.4666667,28.8 55.3333333,29.0666667 C55.2,28.9333333 55.2,28.9333333 55.0666667,28.8 C54.6666667,28.2666667 54.2666667,27.8666667 53.8666667,27.3333333 C53.2,26.5333333 52.5333333,25.6 51.8666667,24.8 C51.3333333,24 50.8,23.3333333 50.2666667,22.5333333 C49.7333333,22.6666667 49.0666667,22.8 48.5333333,23.0666667 C46.5333333,23.7333333 44.6666667,24.5333333 42.9333333,25.4666667 C42.4,25.7333333 42,26.1333333 41.6,26.5333333 C40.9333333,27.2 40.5333333,28 40.4,28.8 C40.4,28.9333333 40.4,29.0666667 40.4,29.3333333 L40.4,34.6666667 L40.4,38.5333333 L73.6,38.5333333 L73.6,34.6666667 L73.6,29.3333333 C73.7333333,28.9333333 73.7333333,28.6666667 73.7333333,28.5333333 Z M63.7333333,31.8666667 C63.7333333,31.3333333 64.1333333,30.8 64.8,30.8 L66.1333333,30.8 L66.1333333,29.4666667 C66.1333333,28.9333333 66.5333333,28.4 67.2,28.4 L67.2,28.4 C67.7333333,28.4 68.2666667,28.8 68.2666667,29.4666667 L68.2666667,30.8 L69.6,30.8 C69.8666667,30.8 70.1333333,30.9333333 70.2666667,31.0666667 C70.4,31.2 70.5333333,31.4666667 70.5333333,31.7333333 C70.5333333,32.2666667 70.1333333,32.8 69.4666667,32.8 L68.1333333,32.8 L68.1333333,34.1333333 C68.1333333,34.6666667 67.7333333,35.2 67.0666667,35.2 L67.0666667,35.2 C66.5333333,35.2 66,34.8 66,34.1333333 L66,32.8 L64.6666667,32.8 C64.1333333,32.9333333 63.7333333,32.4 63.7333333,31.8666667 L63.7333333,31.8666667 Z" id="Shape" fill="#0063E8"></path>
        </g>
    </g>
</svg>