<svg width="24" height="24" viewBox="0 0 24 24" fill="none" xmlns="http://www.w3.org/2000/svg">
<g clip-path="url(#clip0_1367:4535)">
<path d="M16.6013 4.3676L10.9868 9.98202C8.41298 8.75166 5.14614 9.45876 3.37838 12.1033C2.08437 14.0479 2.07023 16.6642 3.34302 18.6158C5.50677 21.9392 10.004 22.2786 12.6485 19.634C14.4941 17.7885 14.883 15.0378 13.8153 12.8105L14.0628 12.563H15.8871C16.4386 12.563 16.8841 12.1175 16.8841 11.5659L16.8912 9.73454H18.7155C19.2671 9.73454 19.7196 9.28199 19.7196 8.73045L19.7055 5.05349C19.7055 4.50195 19.2529 4.0494 18.6943 4.05647L17.3084 4.07061C17.0326 4.07768 16.7851 4.18375 16.6013 4.3676ZM10.5272 17.5127C9.3605 18.6794 7.45131 18.6794 6.28459 17.5127C5.11786 16.346 5.11786 14.4368 6.28459 13.2701C7.45131 12.1033 9.3605 12.1033 10.5272 13.2701C11.694 14.4368 11.694 16.346 10.5272 17.5127Z" fill="#4F4F4F"/>
</g>
<defs>
<clipPath id="clip0_1367:4535">
<rect width="24" height="24" fill="white"/>
</clipPath>
</defs>
</svg>
