<svg width="450" height="107" viewBox="0 0 450 107" fill="none" xmlns="http://www.w3.org/2000/svg">
<rect x="0.5" y="0.5" width="449" height="106" rx="4.5" fill="#F4F9FF" stroke="#CED4DA" stroke-dasharray="8 8"/>
<path d="M157.237 41.1357V51H160.799C163.738 51 165.44 49.1885 165.44 46.0371C165.44 42.9336 163.725 41.1357 160.799 41.1357H157.237ZM158.769 42.5303H160.628C162.672 42.5303 163.882 43.8291 163.882 46.0576C163.882 48.3203 162.692 49.6055 160.628 49.6055H158.769V42.5303ZM167.334 51H168.804V46.6045C168.804 45.5586 169.59 44.8545 170.704 44.8545C170.964 44.8545 171.401 44.9023 171.524 44.9434V43.4941C171.367 43.4531 171.087 43.4326 170.868 43.4326C169.897 43.4326 169.07 43.9658 168.858 44.6973H168.749V43.5557H167.334V51ZM175.318 49.8857C174.519 49.8857 173.938 49.4961 173.938 48.8262C173.938 48.1699 174.402 47.8213 175.428 47.7529L177.246 47.6367V48.2588C177.246 49.1816 176.426 49.8857 175.318 49.8857ZM174.942 51.123C175.92 51.123 176.733 50.6992 177.178 49.9541H177.294V51H178.709V45.9141C178.709 44.3418 177.656 43.4121 175.79 43.4121C174.102 43.4121 172.898 44.2324 172.748 45.5107H174.17C174.334 44.9844 174.901 44.6836 175.722 44.6836C176.727 44.6836 177.246 45.1279 177.246 45.9141V46.5566L175.229 46.6729C173.459 46.7822 172.461 47.5547 172.461 48.8945C172.461 50.2549 173.507 51.123 174.942 51.123ZM183.918 49.6191C182.653 49.6191 181.942 48.6689 181.942 47.1855C181.942 45.7021 182.653 44.752 183.918 44.752C185.169 44.752 185.935 45.7021 185.935 47.1855C185.935 48.6758 185.176 49.6191 183.918 49.6191ZM183.938 53.8438C186.044 53.8438 187.377 52.7637 187.377 51.0615V43.5557H185.969V44.7451H185.853C185.436 43.9385 184.54 43.4326 183.515 43.4326C181.614 43.4326 180.425 44.9229 180.425 47.1924C180.425 49.4209 181.601 50.8906 183.501 50.8906C184.526 50.8906 185.347 50.4463 185.798 49.6396H185.907V51.0684C185.907 52.0527 185.183 52.6338 183.959 52.6338C182.968 52.6338 182.346 52.2852 182.223 51.7451H180.719C180.876 53.0098 182.079 53.8438 183.938 53.8438ZM200.42 51H202.211L200.454 49.1201C200.994 48.3408 201.274 47.2539 201.274 45.873V45.5039H199.941V45.8184C199.941 46.8643 199.798 47.5684 199.518 48.0947L197.255 45.7432C198.731 44.9639 199.347 44.1914 199.347 43.1797C199.347 41.8672 198.253 40.9375 196.742 40.9375C195.238 40.9375 194.117 41.8945 194.117 43.1934C194.117 43.9111 194.445 44.5332 195.354 45.4766C195.266 45.5176 195.02 45.6611 194.951 45.6953C193.652 46.3857 193.037 47.2402 193.037 48.3887C193.037 50.0566 194.404 51.1846 196.414 51.1846C197.617 51.1846 198.759 50.7812 199.565 50.0977L200.42 51ZM195.799 46.5293C195.888 46.4814 196.052 46.4062 196.12 46.3789L198.725 49.1406C198.239 49.6328 197.392 49.9473 196.558 49.9473C195.327 49.9473 194.5 49.2705 194.5 48.2725C194.5 47.5752 194.931 46.9805 195.799 46.5293ZM196.496 44.9297C195.758 44.2119 195.491 43.7812 195.491 43.2754C195.491 42.5781 196.018 42.0859 196.749 42.0859C197.494 42.0859 198.007 42.5645 198.007 43.2686C198.007 43.918 197.597 44.3828 196.496 44.9297ZM207.468 41.1357V51H211.029C213.969 51 215.671 49.1885 215.671 46.0371C215.671 42.9336 213.955 41.1357 211.029 41.1357H207.468ZM208.999 42.5303H210.858C212.902 42.5303 214.112 43.8291 214.112 46.0576C214.112 48.3203 212.923 49.6055 210.858 49.6055H208.999V42.5303ZM217.564 51H219.034V46.6045C219.034 45.5586 219.82 44.8545 220.935 44.8545C221.194 44.8545 221.632 44.9023 221.755 44.9434V43.4941C221.598 43.4531 221.317 43.4326 221.099 43.4326C220.128 43.4326 219.301 43.9658 219.089 44.6973H218.979V43.5557H217.564V51ZM226.123 51.1436C228.297 51.1436 229.63 49.6875 229.63 47.2744C229.63 44.875 228.29 43.4121 226.123 43.4121C223.949 43.4121 222.609 44.875 222.609 47.2744C222.609 49.6875 223.942 51.1436 226.123 51.1436ZM226.123 49.8379C224.845 49.8379 224.127 48.9014 224.127 47.2744C224.127 45.6611 224.845 44.7178 226.123 44.7178C227.395 44.7178 228.119 45.6611 228.119 47.2744C228.119 48.8945 227.395 49.8379 226.123 49.8379ZM235.263 43.4326C234.251 43.4326 233.376 43.9385 232.925 44.7861H232.815V43.5557H231.4V53.4746H232.87V49.8721H232.986C233.376 50.6582 234.217 51.123 235.276 51.123C237.156 51.123 238.353 49.6396 238.353 47.2744C238.353 44.9092 237.156 43.4326 235.263 43.4326ZM234.846 49.8037C233.615 49.8037 232.843 48.833 232.843 47.2812C232.843 45.7227 233.615 44.752 234.853 44.752C236.097 44.752 236.842 45.7021 236.842 47.2744C236.842 48.8535 236.097 49.8037 234.846 49.8037ZM244.689 53.7002C246.207 53.7002 246.911 53.1191 247.547 51.3076L250.322 43.5557H248.764L246.904 49.4688H246.788L244.922 43.5557H243.322L246.016 51.0273L245.906 51.3896C245.653 52.1416 245.257 52.4287 244.56 52.4287C244.423 52.4287 244.197 52.4219 244.081 52.4014V53.666C244.218 53.6865 244.566 53.7002 244.689 53.7002ZM254.684 51.1436C256.857 51.1436 258.19 49.6875 258.19 47.2744C258.19 44.875 256.851 43.4121 254.684 43.4121C252.51 43.4121 251.17 44.875 251.17 47.2744C251.17 49.6875 252.503 51.1436 254.684 51.1436ZM254.684 49.8379C253.405 49.8379 252.688 48.9014 252.688 47.2744C252.688 45.6611 253.405 44.7178 254.684 44.7178C255.955 44.7178 256.68 45.6611 256.68 47.2744C256.68 48.8945 255.955 49.8379 254.684 49.8379ZM266.236 43.5557H264.767V47.9102C264.767 49.0791 264.117 49.7832 262.928 49.7832C261.848 49.7832 261.362 49.209 261.362 48.0059V43.5557H259.893V48.3887C259.893 50.1387 260.809 51.1436 262.456 51.1436C263.584 51.1436 264.343 50.665 264.705 49.8174H264.821V51H266.236V43.5557ZM268.369 51H269.839V46.6045C269.839 45.5586 270.625 44.8545 271.739 44.8545C271.999 44.8545 272.437 44.9023 272.56 44.9434V43.4941C272.402 43.4531 272.122 43.4326 271.903 43.4326C270.933 43.4326 270.105 43.9658 269.894 44.6973H269.784V43.5557H268.369V51ZM278.329 51H279.799V44.8271H281.439V43.5898H279.778V42.8789C279.778 42.1406 280.113 41.7715 280.934 41.7715C281.166 41.7715 281.364 41.7852 281.501 41.8125V40.6572C281.248 40.6094 280.961 40.582 280.626 40.582C279.081 40.582 278.329 41.3135 278.329 42.79V43.5898H277.105V44.8271H278.329V51ZM283.135 51H284.598V43.5557H283.135V51ZM283.866 42.25C284.413 42.25 284.816 41.8604 284.816 41.3545C284.816 40.8418 284.413 40.4521 283.866 40.4521C283.319 40.4521 282.916 40.8418 282.916 41.3545C282.916 41.8604 283.319 42.25 283.866 42.25ZM286.826 51H288.296V40.6504H286.826V51ZM293.56 44.6631C294.646 44.6631 295.357 45.4219 295.392 46.5908H291.632C291.714 45.4287 292.473 44.6631 293.56 44.6631ZM295.385 48.9902C295.111 49.5713 294.503 49.8926 293.614 49.8926C292.438 49.8926 291.68 49.0654 291.632 47.7598V47.6777H296.889V47.165C296.889 44.8271 295.638 43.4121 293.566 43.4121C291.468 43.4121 290.135 44.9229 290.135 47.3018C290.135 49.6807 291.44 51.1436 293.573 51.1436C295.275 51.1436 296.465 50.3232 296.8 48.9902H295.385ZM298.481 45.6611C298.481 46.7686 299.138 47.4043 300.553 47.7393L301.852 48.04C302.597 48.2178 302.945 48.5049 302.945 48.9492C302.945 49.5439 302.296 49.9541 301.38 49.9541C300.491 49.9541 299.944 49.5986 299.76 49.0244H298.29C298.42 50.3438 299.575 51.1436 301.346 51.1436C303.123 51.1436 304.429 50.207 304.429 48.8057C304.429 47.7119 303.766 47.1035 302.351 46.7754L301.113 46.4883C300.307 46.3037 299.931 46.0234 299.931 45.5791C299.931 44.998 300.553 44.6084 301.373 44.6084C302.207 44.6084 302.74 44.957 302.877 45.5039H304.285C304.142 44.1914 303.048 43.4121 301.373 43.4121C299.691 43.4121 298.481 44.3418 298.481 45.6611ZM310.096 51H311.565V46.6523C311.565 45.5244 312.235 44.7656 313.438 44.7656C314.478 44.7656 315.031 45.3672 315.031 46.5566V51H316.501V46.1943C316.501 44.4238 315.523 43.4189 313.938 43.4189C312.816 43.4189 312.03 43.918 311.668 44.752H311.552V40.6504H310.096V51ZM321.628 44.6631C322.715 44.6631 323.426 45.4219 323.46 46.5908H319.7C319.782 45.4287 320.541 44.6631 321.628 44.6631ZM323.453 48.9902C323.18 49.5713 322.571 49.8926 321.683 49.8926C320.507 49.8926 319.748 49.0654 319.7 47.7598V47.6777H324.957V47.165C324.957 44.8271 323.706 43.4121 321.635 43.4121C319.536 43.4121 318.203 44.9229 318.203 47.3018C318.203 49.6807 319.509 51.1436 321.642 51.1436C323.344 51.1436 324.533 50.3232 324.868 48.9902H323.453ZM326.721 51H328.19V46.6045C328.19 45.5586 328.977 44.8545 330.091 44.8545C330.351 44.8545 330.788 44.9023 330.911 44.9434V43.4941C330.754 43.4531 330.474 43.4326 330.255 43.4326C329.284 43.4326 328.457 43.9658 328.245 44.6973H328.136V43.5557H326.721V51ZM335.19 44.6631C336.277 44.6631 336.988 45.4219 337.022 46.5908H333.263C333.345 45.4287 334.104 44.6631 335.19 44.6631ZM337.016 48.9902C336.742 49.5713 336.134 49.8926 335.245 49.8926C334.069 49.8926 333.311 49.0654 333.263 47.7598V47.6777H338.52V47.165C338.52 44.8271 337.269 43.4121 335.197 43.4121C333.099 43.4121 331.766 44.9229 331.766 47.3018C331.766 49.6807 333.071 51.1436 335.204 51.1436C336.906 51.1436 338.096 50.3232 338.431 48.9902H337.016ZM160.211 68.1436C162.385 68.1436 163.718 66.6875 163.718 64.2744C163.718 61.875 162.378 60.4121 160.211 60.4121C158.037 60.4121 156.697 61.875 156.697 64.2744C156.697 66.6875 158.03 68.1436 160.211 68.1436ZM160.211 66.8379C158.933 66.8379 158.215 65.9014 158.215 64.2744C158.215 62.6611 158.933 61.7178 160.211 61.7178C161.482 61.7178 162.207 62.6611 162.207 64.2744C162.207 65.8945 161.482 66.8379 160.211 66.8379ZM165.488 68H166.958V63.6045C166.958 62.5586 167.744 61.8545 168.858 61.8545C169.118 61.8545 169.556 61.9023 169.679 61.9434V60.4941C169.521 60.4531 169.241 60.4326 169.022 60.4326C168.052 60.4326 167.225 60.9658 167.013 61.6973H166.903V60.5557H165.488V68ZM179.146 68C181.252 68 182.517 66.9404 182.517 65.2041C182.517 63.9189 181.628 62.9688 180.295 62.832V62.7158C181.266 62.5518 182.024 61.6289 182.024 60.5967C182.024 59.0791 180.91 58.1357 179.058 58.1357H175.093V68H179.146ZM176.624 59.4346H178.702C179.837 59.4346 180.5 59.9678 180.5 60.877C180.5 61.8135 179.796 62.3125 178.442 62.3125H176.624V59.4346ZM176.624 66.7012V63.5225H178.75C180.192 63.5225 180.951 64.0625 180.951 65.0947C180.951 66.1406 180.22 66.7012 178.839 66.7012H176.624ZM184.314 68H185.784V63.6045C185.784 62.5586 186.57 61.8545 187.685 61.8545C187.944 61.8545 188.382 61.9023 188.505 61.9434V60.4941C188.348 60.4531 188.067 60.4326 187.849 60.4326C186.878 60.4326 186.051 60.9658 185.839 61.6973H185.729V60.5557H184.314V68ZM192.873 68.1436C195.047 68.1436 196.38 66.6875 196.38 64.2744C196.38 61.875 195.04 60.4121 192.873 60.4121C190.699 60.4121 189.359 61.875 189.359 64.2744C189.359 66.6875 190.692 68.1436 192.873 68.1436ZM192.873 66.8379C191.595 66.8379 190.877 65.9014 190.877 64.2744C190.877 62.6611 191.595 61.7178 192.873 61.7178C194.145 61.7178 194.869 62.6611 194.869 64.2744C194.869 65.8945 194.145 66.8379 192.873 66.8379ZM207.557 60.5557H206.087L204.761 66.2363H204.645L203.113 60.5557H201.705L200.174 66.2363H200.064L198.731 60.5557H197.241L199.292 68H200.803L202.334 62.5176H202.45L203.988 68H205.513L207.557 60.5557ZM208.698 62.6611C208.698 63.7686 209.354 64.4043 210.77 64.7393L212.068 65.04C212.813 65.2178 213.162 65.5049 213.162 65.9492C213.162 66.5439 212.513 66.9541 211.597 66.9541C210.708 66.9541 210.161 66.5986 209.977 66.0244H208.507C208.637 67.3438 209.792 68.1436 211.562 68.1436C213.34 68.1436 214.646 67.207 214.646 65.8057C214.646 64.7119 213.982 64.1035 212.567 63.7754L211.33 63.4883C210.523 63.3037 210.147 63.0234 210.147 62.5791C210.147 61.998 210.77 61.6084 211.59 61.6084C212.424 61.6084 212.957 61.957 213.094 62.5039H214.502C214.358 61.1914 213.265 60.4121 211.59 60.4121C209.908 60.4121 208.698 61.3418 208.698 62.6611ZM219.472 61.6631C220.559 61.6631 221.27 62.4219 221.304 63.5908H217.544C217.626 62.4287 218.385 61.6631 219.472 61.6631ZM221.297 65.9902C221.023 66.5713 220.415 66.8926 219.526 66.8926C218.351 66.8926 217.592 66.0654 217.544 64.7598V64.6777H222.801V64.165C222.801 61.8271 221.55 60.4121 219.479 60.4121C217.38 60.4121 216.047 61.9229 216.047 64.3018C216.047 66.6807 217.353 68.1436 219.485 68.1436C221.188 68.1436 222.377 67.3232 222.712 65.9902H221.297ZM230.095 68V63.9121H234.333V62.5586H230.095V59.5303H234.723V58.1357H228.563V68H230.095ZM236.568 68H238.031V60.5557H236.568V68ZM237.3 59.25C237.847 59.25 238.25 58.8604 238.25 58.3545C238.25 57.8418 237.847 57.4521 237.3 57.4521C236.753 57.4521 236.35 57.8418 236.35 58.3545C236.35 58.8604 236.753 59.25 237.3 59.25ZM240.26 68H241.729V57.6504H240.26V68ZM246.993 61.6631C248.08 61.6631 248.791 62.4219 248.825 63.5908H245.065C245.147 62.4287 245.906 61.6631 246.993 61.6631ZM248.818 65.9902C248.545 66.5713 247.937 66.8926 247.048 66.8926C245.872 66.8926 245.113 66.0654 245.065 64.7598V64.6777H250.322V64.165C250.322 61.8271 249.071 60.4121 247 60.4121C244.901 60.4121 243.568 61.9229 243.568 64.3018C243.568 66.6807 244.874 68.1436 247.007 68.1436C248.709 68.1436 249.898 67.3232 250.233 65.9902H248.818ZM251.915 62.6611C251.915 63.7686 252.571 64.4043 253.986 64.7393L255.285 65.04C256.03 65.2178 256.379 65.5049 256.379 65.9492C256.379 66.5439 255.729 66.9541 254.813 66.9541C253.925 66.9541 253.378 66.5986 253.193 66.0244H251.724C251.854 67.3438 253.009 68.1436 254.779 68.1436C256.557 68.1436 257.862 67.207 257.862 65.8057C257.862 64.7119 257.199 64.1035 255.784 63.7754L254.547 63.4883C253.74 63.3037 253.364 63.0234 253.364 62.5791C253.364 61.998 253.986 61.6084 254.807 61.6084C255.641 61.6084 256.174 61.957 256.311 62.5039H257.719C257.575 61.1914 256.481 60.4121 254.807 60.4121C253.125 60.4121 251.915 61.3418 251.915 62.6611Z" fill="#CED4DA"/>
<path d="M96.6668 59.6667L88.0002 51L79.3335 59.6667" stroke="#CED4DA" stroke-linecap="round" stroke-linejoin="round"/>
<path d="M88 51V70.5" stroke="#CED4DA" stroke-linecap="round" stroke-linejoin="round"/>
<path d="M106.179 64.8455C108.292 63.6935 109.962 61.8704 110.924 59.6642C111.886 57.458 112.086 54.9942 111.492 52.6617C110.898 50.3292 109.545 48.2608 107.645 46.783C105.745 45.3052 103.408 44.5021 101.001 44.5005H98.2706C97.6148 41.9639 96.3925 39.6089 94.6955 37.6127C92.9986 35.6164 90.8711 34.0309 88.4732 32.9752C86.0752 31.9195 83.4692 31.4211 80.8509 31.5176C78.2326 31.6141 75.6703 32.3029 73.3565 33.5321C71.0428 34.7614 69.0378 36.4993 67.4923 38.615C65.9469 40.7307 64.9011 43.1692 64.4338 45.7472C63.9664 48.3252 64.0895 50.9757 64.7939 53.4993C65.4983 56.0228 66.7657 58.3539 68.5006 60.3172" stroke="#CED4DA" stroke-linecap="round" stroke-linejoin="round"/>
<path d="M96.6668 59.6667L88.0002 51L79.3335 59.6667" stroke="#CED4DA" stroke-linecap="round" stroke-linejoin="round"/>
</svg>
