<svg width="114" height="24" viewBox="0 0 114 24" fill="none" xmlns="http://www.w3.org/2000/svg">
<path d="M8.25 15.75L15.75 8.25" stroke="#0364E6" stroke-miterlimit="10" stroke-linecap="round"/>
<path d="M11.9999 16.5L9.74993 18.75C8.58743 19.9125 6.41243 19.9125 5.24993 18.75C4.08743 17.5875 4.08743 15.4125 5.24993 14.25L7.49993 12" stroke="#0364E6" stroke-miterlimit="10" stroke-linecap="round"/>
<path d="M16.5 12L18.75 9.75C19.9125 8.5875 19.9125 6.4125 18.75 5.25C17.5875 4.0875 15.4125 4.0875 14.25 5.25L12 7.5" stroke="#0364E6" stroke-miterlimit="10" stroke-linecap="round"/>
<path d="M38.4165 18.2905C41.0894 18.2905 43.0566 16.7134 43.3887 14.3477H41.5376C41.2056 15.7007 40.002 16.5557 38.4165 16.5557C36.2583 16.5557 34.9136 14.8042 34.9136 12.0151C34.9136 9.21777 36.2583 7.46631 38.4082 7.46631C39.9854 7.46631 41.189 8.4126 41.5376 9.88184H43.3887C43.0898 7.44141 41.0479 5.73145 38.4082 5.73145C35.0796 5.73145 33.0127 8.13037 33.0127 12.0151C33.0127 15.8916 35.0879 18.2905 38.4165 18.2905ZM49.4482 18.1743C52.0879 18.1743 53.7065 16.4062 53.7065 13.4761C53.7065 10.5625 52.0796 8.78613 49.4482 8.78613C46.8086 8.78613 45.1816 10.5625 45.1816 13.4761C45.1816 16.4062 46.8003 18.1743 49.4482 18.1743ZM49.4482 16.5889C47.896 16.5889 47.0244 15.4517 47.0244 13.4761C47.0244 11.5171 47.896 10.3716 49.4482 10.3716C50.9922 10.3716 51.8721 11.5171 51.8721 13.4761C51.8721 15.4434 50.9922 16.5889 49.4482 16.5889ZM60.5464 8.81104C59.3179 8.81104 58.2554 9.42529 57.7075 10.4546H57.5747V8.96045H55.8564V21.0049H57.6411V16.6304H57.7822C58.2554 17.585 59.2764 18.1494 60.563 18.1494C62.8457 18.1494 64.2983 16.3481 64.2983 13.4761C64.2983 10.604 62.8457 8.81104 60.5464 8.81104ZM60.04 16.5474C58.5459 16.5474 57.6079 15.3687 57.6079 13.4844C57.6079 11.5918 58.5459 10.4131 60.0483 10.4131C61.5591 10.4131 62.4639 11.5669 62.4639 13.4761C62.4639 15.3936 61.5591 16.5474 60.04 16.5474ZM66.9961 21.2788C68.8389 21.2788 69.6938 20.5732 70.4658 18.3735L73.8359 8.96045H71.9434L69.6855 16.1406H69.5444L67.2783 8.96045H65.3359L68.6064 18.0332L68.4736 18.4731C68.1665 19.3862 67.6851 19.7349 66.8384 19.7349C66.6724 19.7349 66.3984 19.7266 66.2573 19.7017V21.2373C66.4233 21.2622 66.8467 21.2788 66.9961 21.2788ZM87.9888 16.29H82.3774V6.02197H80.5181V18H87.9888V16.29ZM90.1719 18H91.9482V8.96045H90.1719V18ZM91.0601 7.375C91.7241 7.375 92.2139 6.90186 92.2139 6.2876C92.2139 5.66504 91.7241 5.19189 91.0601 5.19189C90.396 5.19189 89.9062 5.66504 89.9062 6.2876C89.9062 6.90186 90.396 7.375 91.0601 7.375ZM94.5713 18H96.356V12.7124C96.356 11.3013 97.1943 10.4214 98.5142 10.4214C99.834 10.4214 100.465 11.1436 100.465 12.5962V18H102.25V12.1479C102.25 9.99805 101.137 8.78613 99.1201 8.78613C97.7588 8.78613 96.8623 9.39209 96.4224 10.3965H96.2896V8.96045H94.5713V18ZM106.773 12.729H106.632V5.43262H104.848V18H106.632V14.7627L107.421 14.0156L110.525 18H112.717L108.749 12.8369L112.468 8.96045H110.359L106.773 12.729Z" fill="#0364E6"/>
</svg>
