<svg width="32" height="32" viewBox="0 0 32 32" fill="none" xmlns="http://www.w3.org/2000/svg">
<rect width="32" height="32" rx="4" fill="#E0E0E0" fill-opacity="0.4"/>
<g clip-path="url(#clip0)">
<path d="M23.9301 11.0701V25.5501C23.93 25.6441 23.9104 25.7371 23.8726 25.8231C23.8347 25.9092 23.7794 25.9865 23.7101 26.0501C23.6446 26.1196 23.5656 26.175 23.4779 26.2128C23.3902 26.2506 23.2957 26.2701 23.2001 26.2701H8.72015C8.62462 26.2701 8.5301 26.2506 8.44239 26.2128C8.35468 26.175 8.27565 26.1196 8.21015 26.0501C8.14223 25.986 8.08846 25.9084 8.0523 25.8223C8.01613 25.7361 7.99837 25.6434 8.00015 25.5501V11.0701C7.9982 10.9752 8.01584 10.8809 8.05197 10.7932C8.08811 10.7054 8.14195 10.6261 8.21015 10.5601C8.27635 10.4914 8.35553 10.4367 8.44308 10.3989C8.53063 10.3611 8.6248 10.3411 8.72015 10.3401H12.3401V7.09006C12.3349 6.94624 12.3608 6.803 12.4161 6.67011C12.4713 6.53722 12.5545 6.41782 12.6601 6.32006C12.7602 6.21743 12.88 6.13616 13.0124 6.08116C13.1447 6.02616 13.2868 5.99857 13.4301 6.00006H18.5001C18.6435 5.99857 18.7856 6.02616 18.9179 6.08116C19.0503 6.13616 19.1701 6.21743 19.2701 6.32006C19.3739 6.41872 19.4553 6.53853 19.5088 6.67137C19.5623 6.80422 19.5866 6.947 19.5801 7.09006V10.3401H23.2001C23.3922 10.3451 23.5749 10.4236 23.7107 10.5595C23.8466 10.6953 23.9251 10.878 23.9301 11.0701ZM18.1301 11.4301V7.81006C18.1308 7.76385 18.1223 7.71796 18.1051 7.67506C18.088 7.63215 18.0625 7.59306 18.0301 7.56006C17.9965 7.52515 17.9561 7.49741 17.9114 7.47851C17.8667 7.4596 17.8187 7.44993 17.7701 7.45006H17.0501C17.0016 7.44993 16.9536 7.4596 16.9089 7.47851C16.8642 7.49741 16.8238 7.52515 16.7901 7.56006C16.7578 7.59306 16.7323 7.63215 16.7151 7.67506C16.698 7.71796 16.6895 7.76385 16.6901 7.81006V8.90006H15.2401V7.81006C15.2401 7.76305 15.2303 7.71656 15.2114 7.67353C15.1924 7.6305 15.1648 7.59186 15.1301 7.56006C15.0987 7.52494 15.0602 7.49695 15.0171 7.47798C14.9739 7.45901 14.9273 7.44948 14.8801 7.45006H14.1501C14.103 7.44948 14.0564 7.45901 14.0132 7.47798C13.9701 7.49695 13.9316 7.52494 13.9001 7.56006C13.8655 7.59186 13.8379 7.6305 13.8189 7.67353C13.8 7.71656 13.7902 7.76305 13.7901 7.81006V11.4301C13.795 11.524 13.8344 11.6128 13.9009 11.6793C13.9674 11.7458 14.0562 11.7852 14.1501 11.7901H14.8801C14.9741 11.7852 15.0629 11.7458 15.1293 11.6793C15.1958 11.6128 15.2353 11.524 15.2401 11.4301V10.3401H16.6901V11.4301C16.6895 11.4763 16.698 11.5221 16.7151 11.5651C16.7323 11.608 16.7578 11.6471 16.7901 11.6801C16.8238 11.715 16.8642 11.7427 16.9089 11.7616C16.9536 11.7805 17.0016 11.7902 17.0501 11.7901H17.7701C17.8142 11.7897 17.8577 11.7797 17.8974 11.7607C17.9372 11.7417 17.9722 11.7142 18.0001 11.6801C18.04 11.6516 18.0726 11.6141 18.0952 11.5707C18.1178 11.5272 18.1298 11.479 18.1301 11.4301ZM18.1301 24.8201H22.4801V11.8201H19.5801V12.1801C19.5866 12.3231 19.5623 12.4659 19.5088 12.5987C19.4553 12.7316 19.3739 12.8514 19.2701 12.9501C19.1701 13.0527 19.0503 13.134 18.9179 13.189C18.7856 13.244 18.6435 13.2715 18.5001 13.2701H13.4301C13.287 13.2701 13.1453 13.2419 13.013 13.1871C12.8808 13.1323 12.7606 13.052 12.6594 12.9508C12.5582 12.8496 12.4779 12.7294 12.4231 12.5972C12.3683 12.4649 12.3401 12.3232 12.3401 12.1801V11.7901H9.45015V24.7901H13.7901V22.2901C13.7857 22.2366 13.7933 22.1828 13.8123 22.1326C13.8313 22.0824 13.8614 22.0371 13.9001 22.0001C13.9332 21.9677 13.9722 21.9422 14.0151 21.9251C14.0581 21.9079 14.1039 21.8994 14.1501 21.9001H17.7701C17.857 21.9018 17.9396 21.9378 18.0001 22.0001C18.0337 22.0342 18.0599 22.075 18.0771 22.1197C18.0943 22.1644 18.1022 22.2122 18.1001 22.2601L18.1301 24.8201ZM21.0001 15.0501V15.7701C21.0003 15.8186 20.9906 15.8666 20.9717 15.9113C20.9528 15.956 20.9251 15.9964 20.8901 16.0301C20.8571 16.0624 20.8181 16.0879 20.7751 16.1051C20.7322 16.1222 20.6864 16.1307 20.6401 16.1301H19.9101C19.8639 16.1307 19.8181 16.1222 19.7751 16.1051C19.7322 16.0879 19.6932 16.0624 19.6601 16.0301C19.6252 15.9964 19.5975 15.956 19.5786 15.9113C19.5597 15.8666 19.55 15.8186 19.5501 15.7701V15.0501C19.55 15.0015 19.5597 14.9535 19.5786 14.9088C19.5975 14.8641 19.6252 14.8237 19.6601 14.7901C19.6932 14.7577 19.7322 14.7322 19.7751 14.7151C19.8181 14.6979 19.8639 14.6894 19.9101 14.6901H20.6401C20.6864 14.6894 20.7322 14.6979 20.7751 14.7151C20.8181 14.7322 20.8571 14.7577 20.8901 14.7901C20.9251 14.8237 20.9528 14.8641 20.9717 14.9088C20.9906 14.9535 21.0003 15.0015 21.0001 15.0501ZM18.1001 15.0501V15.7701C18.1029 15.8147 18.0967 15.8595 18.0821 15.9018C18.0675 15.9441 18.0446 15.983 18.0149 16.0165C17.9852 16.0499 17.9491 16.0772 17.9088 16.0967C17.8686 16.1162 17.8248 16.1275 17.7801 16.1301H17.0501C17.0021 16.133 16.954 16.1257 16.909 16.1086C16.864 16.0915 16.8231 16.0651 16.7891 16.0311C16.7551 15.9971 16.7287 15.9562 16.7116 15.9112C16.6945 15.8662 16.6872 15.8181 16.6901 15.7701V15.0501C16.6846 14.9615 16.7139 14.8742 16.7718 14.8069C16.8298 14.7397 16.9117 14.6977 17.0001 14.6901H17.7601C17.8082 14.6871 17.8563 14.6944 17.9013 14.7115C17.9463 14.7286 17.9872 14.755 18.0212 14.789C18.0552 14.823 18.0816 14.8639 18.0987 14.9089C18.1158 14.9539 18.1231 15.002 18.1201 15.0501H18.1001ZM21.0001 17.9401V18.6701C20.9932 18.7632 20.9531 18.8508 20.887 18.9169C20.8209 18.983 20.7333 19.0231 20.6401 19.0301H19.9101C19.8156 19.0277 19.7258 18.9881 19.6601 18.9201C19.625 18.8887 19.597 18.8501 19.5781 18.807C19.5591 18.7638 19.5496 18.7172 19.5501 18.6701V17.9401C19.5571 17.8469 19.5972 17.7593 19.6633 17.6932C19.7294 17.6271 19.817 17.587 19.9101 17.5801H20.6401C20.6873 17.5795 20.7339 17.589 20.7771 17.608C20.8202 17.627 20.8587 17.6549 20.8901 17.6901C20.9582 17.7557 20.9977 17.8455 21.0001 17.9401ZM15.2401 15.0501V15.7701C15.2403 15.8186 15.2306 15.8666 15.2117 15.9113C15.1928 15.956 15.1651 15.9964 15.1301 16.0301C15.0971 16.0624 15.0581 16.0879 15.0151 16.1051C14.9722 16.1222 14.9264 16.1307 14.8801 16.1301H14.1501C14.1016 16.1275 14.0542 16.1146 14.011 16.0922C13.9679 16.0697 13.9301 16.0383 13.9001 16.0001C13.8652 15.9664 13.8375 15.926 13.8186 15.8813C13.7997 15.8366 13.79 15.7886 13.7901 15.7401V15.0001C13.79 14.9515 13.7997 14.9035 13.8186 14.8588C13.8375 14.8141 13.8652 14.7737 13.9001 14.7401C13.9332 14.7077 13.9722 14.6822 14.0151 14.6651C14.0581 14.6479 14.1039 14.6394 14.1501 14.6401H14.8801C14.9264 14.6394 14.9722 14.6479 15.0151 14.6651C15.0581 14.6822 15.0971 14.7077 15.1301 14.7401C15.1718 14.7793 15.2035 14.8278 15.2226 14.8818C15.2418 14.9357 15.2478 14.9934 15.2401 15.0501ZM18.1301 17.9401V18.6701C18.1308 18.7163 18.1223 18.7621 18.1051 18.8051C18.088 18.848 18.0625 18.8871 18.0301 18.9201C17.9965 18.955 17.9561 18.9827 17.9114 19.0016C17.8667 19.0205 17.8187 19.0302 17.7701 19.0301H17.0501C17.0016 19.0302 16.9536 19.0205 16.9089 19.0016C16.8642 18.9827 16.8238 18.955 16.7901 18.9201C16.7578 18.8871 16.7323 18.848 16.7151 18.8051C16.698 18.7621 16.6895 18.7163 16.6901 18.6701V17.9401C16.6895 17.8938 16.698 17.848 16.7151 17.8051C16.7323 17.7621 16.7578 17.7231 16.7901 17.6901C16.8238 17.6551 16.8642 17.6274 16.9089 17.6085C16.9536 17.5896 17.0016 17.5799 17.0501 17.5801H17.7701C17.8187 17.5799 17.8667 17.5896 17.9114 17.6085C17.9561 17.6274 17.9965 17.6551 18.0301 17.6901C18.0625 17.7231 18.088 17.7621 18.1051 17.8051C18.1223 17.848 18.1308 17.8938 18.1301 17.9401ZM21.0301 20.8401V21.5601C21.0303 21.6086 21.0206 21.6566 21.0017 21.7013C20.9828 21.746 20.9551 21.7864 20.9201 21.8201C20.8887 21.8552 20.8502 21.8832 20.8071 21.9021C20.7639 21.9211 20.7173 21.9306 20.6701 21.9301H19.9401C19.8456 21.9277 19.7558 21.8881 19.6901 21.8201C19.6552 21.7864 19.6275 21.746 19.6086 21.7013C19.5897 21.6566 19.58 21.6086 19.5801 21.5601V20.8401C19.5802 20.793 19.59 20.7466 19.6089 20.7035C19.6279 20.6605 19.6555 20.6219 19.6901 20.5901C19.7215 20.5549 19.7601 20.527 19.8032 20.508C19.8464 20.489 19.893 20.4795 19.9401 20.4801H20.6701C20.7173 20.4795 20.7639 20.489 20.8071 20.508C20.8502 20.527 20.8887 20.5549 20.9201 20.5901C20.9499 20.624 20.9723 20.6638 20.9861 20.7068C20.9998 20.7498 21.0046 20.7951 21.0001 20.8401H21.0301ZM12.3401 15.0501V15.7701C12.3431 15.8181 12.3358 15.8662 12.3187 15.9112C12.3016 15.9562 12.2752 15.9971 12.2412 16.0311C12.2072 16.0651 12.1663 16.0915 12.1213 16.1086C12.0763 16.1257 12.0282 16.133 11.9801 16.1301H11.2601C11.2155 16.1328 11.1707 16.1266 11.1284 16.112C11.0861 16.0974 11.0472 16.0745 11.0137 16.0448C10.9803 16.0151 10.953 15.979 10.9335 15.9387C10.914 15.8985 10.9027 15.8547 10.9001 15.8101V15.0501C10.8972 15.002 10.9045 14.9539 10.9216 14.9089C10.9387 14.8639 10.9651 14.823 10.9991 14.789C11.0331 14.755 11.074 14.7286 11.119 14.7115C11.164 14.6944 11.2121 14.6871 11.2601 14.6901H12.0001C12.0887 14.6845 12.176 14.7138 12.2433 14.7718C12.3105 14.8297 12.3525 14.9116 12.3601 15.0001L12.3401 15.0501ZM15.2401 17.9401V18.6701C15.2332 18.7632 15.1931 18.8508 15.127 18.9169C15.0609 18.983 14.9733 19.0231 14.8801 19.0301H14.1501C14.0556 19.0277 13.9658 18.9881 13.9001 18.9201C13.865 18.8887 13.837 18.8501 13.8181 18.807C13.7991 18.7638 13.7896 18.7172 13.7901 18.6701V17.9401C13.7971 17.8469 13.8372 17.7593 13.9033 17.6932C13.9694 17.6271 14.057 17.587 14.1501 17.5801H14.8801C14.9273 17.5795 14.9739 17.589 15.0171 17.608C15.0602 17.627 15.0987 17.6549 15.1301 17.6901C15.1982 17.7557 15.2377 17.8455 15.2401 17.9401ZM12.3401 17.9401V18.6701C12.3408 18.7163 12.3323 18.7621 12.3151 18.8051C12.298 18.848 12.2725 18.8871 12.2401 18.9201C12.1706 18.9714 12.0866 18.9994 12.0001 19.0001H11.2601C11.2137 19.0048 11.1667 19.0001 11.1221 18.9864C11.0774 18.9726 11.036 18.9501 11.0001 18.9201C10.9678 18.8871 10.9423 18.848 10.9251 18.8051C10.908 18.7621 10.8995 18.7163 10.9001 18.6701V17.9401C10.8995 17.8938 10.908 17.848 10.9251 17.8051C10.9423 17.7621 10.9678 17.7231 11.0001 17.6901C11.0338 17.6551 11.0742 17.6274 11.1189 17.6085C11.1636 17.5896 11.2116 17.5799 11.2601 17.5801H12.0001C12.0487 17.5799 12.0967 17.5896 12.1414 17.6085C12.1861 17.6274 12.2265 17.6551 12.2601 17.6901C12.2899 17.724 12.3123 17.7638 12.3261 17.8068C12.3398 17.8498 12.3446 17.8951 12.3401 17.9401ZM12.3401 20.8401V21.5601C12.3422 21.6079 12.3343 21.6557 12.3171 21.7004C12.2999 21.7452 12.2737 21.7859 12.2401 21.8201C12.2065 21.855 12.1661 21.8827 12.1214 21.9016C12.0767 21.9205 12.0287 21.9302 11.9801 21.9301H11.2601C11.2116 21.9302 11.1636 21.9205 11.1189 21.9016C11.0742 21.8827 11.0338 21.855 11.0001 21.8201C10.9666 21.7859 10.9404 21.7452 10.9232 21.7004C10.906 21.6557 10.8981 21.6079 10.9001 21.5601V20.8401C10.8995 20.7938 10.908 20.748 10.9251 20.7051C10.9423 20.6621 10.9678 20.6231 11.0001 20.5901C11.0338 20.5551 11.0742 20.5274 11.1189 20.5085C11.1636 20.4896 11.2116 20.4799 11.2601 20.4801H12.0001C12.0487 20.4799 12.0967 20.4896 12.1414 20.5085C12.1861 20.5274 12.2265 20.5551 12.2601 20.5901C12.2899 20.624 12.3123 20.6638 12.3261 20.7068C12.3398 20.7498 12.3446 20.7951 12.3401 20.8401Z" fill="#4F4F4F"/>
</g>
<defs>
<clipPath id="clip0">
<rect width="15.93" height="20.27" fill="white" transform="translate(8 6)"/>
</clipPath>
</defs>
</svg>
