<svg width="24" height="24" viewBox="0 0 24 24" fill="none" xmlns="http://www.w3.org/2000/svg">
<path d="M15 16L11 20H19C20.1 20 21 19.1 21 18C21 16.9 20.1 16 19 16H15Z" fill="white"/>
<path d="M12.06 7.18994L3.29 15.9599C3.11 16.1399 3 16.3999 3 16.6599V18.9999C3 19.5499 3.45 19.9999 4 19.9999H6.34C6.61 19.9999 6.86 19.8899 7.05 19.7099L15.82 10.9399L12.06 7.18994Z" fill="white"/>
<path d="M18.7099 8.04006C19.0999 7.65006 19.0999 7.02006 18.7099 6.63006L16.3699 4.29006C15.9799 3.90006 15.3499 3.90006 14.9599 4.29006L13.1299 6.12006L16.8799 9.87006L18.7099 8.04006Z" fill="white"/>
</svg>
