<svg width="24" height="24" viewBox="0 0 24 24" fill="none" xmlns="http://www.w3.org/2000/svg">
<path d="M14.25 4.5H7.5C6.6709 4.5 6 5.1709 6 6V18C6 18.8291 6.6709 19.5 7.5 19.5H16.5C17.3291 19.5 18 18.8291 18 18V8.25L14.25 4.5ZM9.75 10.5C10.1631 10.5 10.5 10.8369 10.5 11.25C10.5 11.6631 10.1631 12 9.75 12C9.33691 12 9 11.6631 9 11.25C9 10.8369 9.33691 10.5 9.75 10.5ZM8.25 15.75L10.5 12.75L12 14.25L13.5 12L15.75 15.75H8.25Z" fill="white"/>
<rect x="8" y="10" width="8" height="7" fill="white"/>
<path d="M14.25 4.5H7.5C6.6709 4.5 6 5.1709 6 6V18C6 18.8291 6.6709 19.5 7.5 19.5H16.5C17.3291 19.5 18 18.8291 18 18V8.25L14.25 4.5ZM12 15.75H8.25V15H12V15.75ZM15.75 13.5H8.25V12.75H15.75V13.5ZM15.75 11.25H8.25V10.5H15.75V11.25Z" fill="#53C1FF"/>
</svg>
