<svg width="24" height="24" viewBox="0 0 24 24" fill="none" xmlns="http://www.w3.org/2000/svg">
<path d="M14.25 4.5H7.5C6.6709 4.5 6 5.1709 6 6V18C6 18.8291 6.6709 19.5 7.5 19.5H16.5C17.3291 19.5 18 18.8291 18 18V8.25L14.25 4.5ZM9.75 10.5C10.1631 10.5 10.5 10.8369 10.5 11.25C10.5 11.6631 10.1631 12 9.75 12C9.33691 12 9 11.6631 9 11.25C9 10.8369 9.33691 10.5 9.75 10.5ZM8.25 15.75L10.5 12.75L12 14.25L13.5 12L15.75 15.75H8.25Z" fill="#FF5F5F"/>
<rect x="8" y="10" width="8" height="7" fill="#FF5F5F"/>
<path d="M9.9642 14.8524H9.6642V15.7726H9V13H9.8762C10.6324 13 11.0644 13.296 11.0644 13.9042C11.0644 14.5564 10.6202 14.8524 9.9642 14.8524ZM9.8842 13.472H9.6642V14.3722H9.9082C10.2082 14.3722 10.3802 14.2282 10.3802 13.9042C10.3802 13.612 10.2162 13.472 9.8842 13.472Z" fill="white"/>
<path d="M12.1122 15.7726H11.36V13H12.0642C12.7764 13 13.4564 13.228 13.4564 14.3722C13.4564 15.5004 12.8042 15.7726 12.1122 15.7726ZM12.16 13.48H12.024V15.2924H12.16C12.524 15.2924 12.7682 15.0964 12.7682 14.3722C12.7682 13.6322 12.5082 13.48 12.16 13.48Z" fill="white"/>
<path d="M14.6122 13.472V14.2002H15.5804V14.6764H14.6122V15.7726H13.944V13H15.7724L15.7044 13.472H14.6122Z" fill="white"/>
</svg>
