<svg width="24" height="24" viewBox="0 0 24 24" fill="none" xmlns="http://www.w3.org/2000/svg">
<path d="M14.25 4.5H7.5C6.6709 4.5 6 5.1709 6 6V18C6 18.8291 6.6709 19.5 7.5 19.5H16.5C17.3291 19.5 18 18.8291 18 18V8.25L14.25 4.5ZM10.125 16.0869V10.1631L14.5869 13.125L10.125 16.0869Z" fill="#00CEEA"/>
<rect x="9" y="9" width="7" height="7" fill="#00CEEA"/>
<path d="M14.4361 10.375H9.56387C9.45951 10.375 9.375 10.4596 9.375 10.5638V12.0612C9.375 12.1654 9.45951 12.25 9.56387 12.25H9.83935C9.91681 12.25 9.9863 12.2027 10.0149 12.1308C10.2788 11.4661 10.3999 11.1488 11.2508 11.1125V14.4282C11.2508 14.7388 11.1142 14.8252 10.8658 14.8759C10.759 14.8977 10.5613 14.9208 10.4823 14.9285C10.3857 14.938 10.3138 15.0193 10.3138 15.1163V15.436C10.3138 15.5404 10.3965 15.625 10.5008 15.625H13.4992C13.6035 15.625 13.6862 15.5404 13.6862 15.436V15.1163C13.6862 15.0193 13.6143 14.938 13.5177 14.9285C13.4387 14.9208 13.241 14.8977 13.1341 14.8759C12.8858 14.8252 12.7492 14.7388 12.7492 14.4282V11.1125C13.6001 11.1488 13.7212 11.4661 13.9852 12.1308C14.0138 12.2027 14.0833 12.25 14.1607 12.25H14.4361C14.5404 12.25 14.625 12.1654 14.625 12.0612V10.5638C14.625 10.4596 14.5404 10.375 14.4361 10.375Z" fill="white"/>
</svg>
