<svg width="116" height="116" viewBox="0 0 116 116" fill="none" xmlns="http://www.w3.org/2000/svg">
<path d="M88.5769 40.3938C88.5683 23.5093 74.8846 9.82133 58.0001 9.82133C41.1114 9.82133 27.4234 23.5093 27.4234 40.3938C13.6022 40.3938 2.39746 51.5985 2.39746 65.4197C2.39746 79.2452 13.6022 90.4499 27.4234 90.4499C32.1579 90.4499 40.6646 90.4499 49.9961 90.4499V80.7489H36.2523L58.0044 50.2452L79.7566 80.7489H66.0127V90.4499C75.3443 90.4499 83.8509 90.4499 88.5854 90.4499C102.407 90.4499 113.611 79.2452 113.611 65.4197C113.603 51.6028 102.398 40.3938 88.5769 40.3938Z" fill="#D2E6FF"/>
<path d="M49.9961 106.179H66.0084V90.4542C60.754 90.4542 55.2505 90.4542 49.9961 90.4542V106.179Z" fill="#50AAFF"/>
<path d="M79.7523 80.7532L58.0002 50.2495L36.248 80.7532H49.9919V90.4542C55.2463 90.4542 60.7498 90.4542 66.0042 90.4542V80.7532H79.7523Z" fill="#1464FF"/>
</svg>
