<svg width="32" height="32" viewBox="0 0 32 32" fill="none" xmlns="http://www.w3.org/2000/svg">
<rect width="32" height="32" rx="4" fill="#E0E0E0" fill-opacity="0.4"/>
<path d="M15 14C14.4259 14.4295 13.9509 14.9774 13.6071 15.6065C13.2633 16.2357 13.0589 16.9315 13.0077 17.6466C12.9565 18.3618 13.0597 19.0796 13.3103 19.7513C13.5608 20.4231 13.953 21.0331 14.46 21.54L17.46 24.54C18.403 25.4508 19.6661 25.9548 20.977 25.9434C22.288 25.932 23.5421 25.4061 24.4691 24.4791C25.3962 23.5521 25.922 22.298 25.9334 20.987C25.9448 19.676 25.4408 18.413 24.53 17.47L22.82 15.75" stroke="#4F4F4F" stroke-linecap="round" stroke-linejoin="round"/>
<path d="M16.9998 18C17.5739 17.5705 18.049 17.0226 18.3927 16.3934C18.7365 15.7642 18.9409 15.0684 18.9921 14.3533C19.0433 13.6382 18.9401 12.9204 18.6896 12.2486C18.439 11.5769 18.0468 10.9668 17.5398 10.46L14.5398 7.45996C13.5968 6.54917 12.3338 6.04519 11.0228 6.05659C9.71178 6.06798 8.45772 6.59382 7.53068 7.52086C6.60364 8.4479 6.0778 9.70197 6.0664 11.0129C6.05501 12.3239 6.55898 13.5869 7.46977 14.53L9.17977 16.24" stroke="#4F4F4F" stroke-linecap="round" stroke-linejoin="round"/>
</svg>
