<svg width="24" height="24" viewBox="0 0 24 24" fill="none" xmlns="http://www.w3.org/2000/svg">
<path d="M10.6302 15.7441L18.9002 20.5051C18.9727 20.5467 19.0544 20.5696 19.138 20.5715C19.2216 20.5735 19.3043 20.5544 19.3786 20.5161C19.4529 20.4778 19.5165 20.4215 19.5634 20.3523C19.6103 20.2831 19.6391 20.2033 19.6472 20.1201L21.2602 3.54905C21.2691 3.45853 21.253 3.36731 21.2139 3.28521C21.1747 3.20312 21.1139 3.13326 21.038 3.08316C20.9621 3.03307 20.8739 3.00463 20.783 3.00091C20.6922 2.99719 20.602 3.01833 20.5222 3.06205L2.00023 13.2221C1.90937 13.2718 1.83619 13.3485 1.7908 13.4416C1.74541 13.5347 1.73006 13.6396 1.74685 13.7418C1.76365 13.844 1.81177 13.9384 1.88456 14.0121C1.95736 14.0858 2.05123 14.135 2.15323 14.1531L8.87823 15.3531" stroke="#0364E6" stroke-linecap="round" stroke-linejoin="round"/>
<path d="M18.1309 6.91211L10.6309 15.7441L11.4819 20.7441C11.4908 20.8076 11.5199 20.8665 11.5648 20.9123C11.6096 20.958 11.668 20.9882 11.7313 20.9984C11.7946 21.0086 11.8595 20.9982 11.9164 20.9688C11.9734 20.9394 12.0195 20.8926 12.0479 20.8351L12.9599 19.1171" stroke="#0364E6" stroke-linecap="round" stroke-linejoin="round"/>
</svg>
