<svg width="273" height="29" viewBox="0 0 273 29" fill="none" xmlns="http://www.w3.org/2000/svg">
<path d="M164.742 5.9585H169.179V27.2987H164.742V5.9585ZM156.665 5.9585H161.11V27.2987H156.665V5.9585ZM149.832 18.2362C149.568 16.2501 148.401 14.9029 146.526 14.9029C144.651 14.9029 143.492 16.2223 143.137 18.2362H149.832ZM138.783 19.5557V19.4932C138.783 15.021 141.971 11.3404 146.526 11.3404C151.762 11.3404 154.165 15.4029 154.165 19.8473C154.165 20.1945 154.165 20.6043 154.103 21.014H143.193C143.333 21.9119 143.804 22.7248 144.514 23.2928C145.223 23.8608 146.12 24.1429 147.026 24.0834C147.736 24.0928 148.44 23.9551 149.094 23.679C149.747 23.4029 150.337 22.9944 150.825 22.4792L153.367 24.7292C152.602 25.6827 151.624 26.4437 150.512 26.9514C149.401 27.4591 148.185 27.6993 146.964 27.6528C142.263 27.6528 138.783 24.3473 138.783 19.5557ZM114.478 11.6321H118.978L121.492 21.132L124.443 11.5765H128.276L131.249 21.1598L133.825 11.6321H138.193L133.332 27.4167H129.332L126.318 17.7987L123.249 27.4167H119.276L114.478 11.6321ZM98.7627 5.9585H103.207V13.889C104.235 12.5696 105.547 11.3751 107.797 11.3751C111.158 11.3751 113.117 13.5973 113.117 17.1946V27.3334H108.672V18.5557C108.672 16.4723 107.679 15.3751 105.985 15.3751C104.29 15.3751 103.207 16.4515 103.207 18.5557V27.2987H98.7627V5.9585ZM87.7975 22.8542V15.4307H85.9225V11.6321H87.7975V7.63904H92.2419V11.646H95.9224V15.4446H92.2419V22.139C92.2419 23.1598 92.6794 23.6598 93.6725 23.6598C94.4368 23.6622 95.1894 23.4711 95.8599 23.1042V26.6737C94.8096 27.293 93.6067 27.6057 92.3877 27.5764C89.6725 27.5764 87.8322 26.4931 87.8322 22.8681L87.7975 22.8542ZM74.1239 11.6321H78.5684V14.7918C79.4711 12.6251 80.9364 11.2224 83.5683 11.3196V15.9723H83.3322C80.3809 15.9723 78.5684 17.7571 78.5684 21.5279V27.3126H74.1239V11.6321ZM67.4017 19.5557V19.4932C67.4231 18.9362 67.3326 18.3806 67.1354 17.8592C66.9382 17.3379 66.6384 16.8614 66.2538 16.458C65.8692 16.0546 65.4075 15.7325 64.8961 15.5107C64.3848 15.2889 63.8341 15.1719 63.2768 15.1668C60.7351 15.1668 59.2143 17.1251 59.2143 19.4376V19.4932C59.1929 20.0501 59.2835 20.6057 59.4807 21.1271C59.6778 21.6484 59.9776 22.1249 60.3622 22.5283C60.7469 22.9317 61.2085 23.2538 61.7199 23.4756C62.2313 23.6974 62.7819 23.8144 63.3393 23.8195C65.8809 23.8195 67.4017 21.8612 67.4017 19.5557ZM54.8324 19.5557V19.4932C54.8324 14.9932 58.4573 11.3404 63.3393 11.3404C68.2212 11.3404 71.7837 14.9376 71.7837 19.4445V19.5001C71.7837 24.007 68.1587 27.6598 63.2768 27.6598C58.3948 27.6598 54.8601 24.0556 54.8601 19.5557H54.8324ZM34.3047 6.84044H38.4713L48.0477 19.4445V6.84044H52.4921V27.2987H48.6588L38.7491 14.2918V27.2987H34.3047V6.84044Z" fill="#003CA5"/>
<path d="M250.84 6.4585H253.076V15.2779C253.581 14.3645 254.327 13.6078 255.234 13.0909C256.141 12.5739 257.172 12.3167 258.215 12.3474C261.84 12.3474 263.958 14.7848 263.958 18.3543V27.6528H261.729V18.882C261.729 16.1043 260.215 14.3543 257.562 14.3543C254.909 14.3543 253.062 16.2432 253.062 19.0557V27.6528H250.826L250.84 6.4585Z" fill="#003CA5"/>
<path d="M241.269 23.6738V14.646H239.186V12.6391H241.269V8.11133H243.499V12.6391H248.262V14.6182H243.499V23.3821C243.499 25.2085 244.519 25.8821 246.026 25.8821C246.785 25.8864 247.534 25.7052 248.207 25.3543V27.271C247.374 27.7071 246.445 27.9268 245.505 27.9098C243.096 27.9098 241.269 26.7223 241.269 23.6738Z" fill="#003CA5"/>
<path d="M236.421 6.4585H234.185V27.6459H236.421V6.4585Z" fill="#003CA5"/>
<path d="M229.046 14.0699C227.977 12.9865 226.317 12.4102 224.185 12.4102C222.299 12.4149 220.44 12.8496 218.748 13.681L219.442 15.5143C220.862 14.8159 222.422 14.4502 224.004 14.4449C226.817 14.4449 228.442 15.8338 228.442 18.5073V18.9726C226.953 18.5294 225.405 18.3117 223.852 18.3268C220.053 18.3268 217.435 20.0143 217.435 23.2434V23.299C217.435 26.3754 220.213 27.9726 223.039 27.9726C224.078 28.0031 225.108 27.7874 226.047 27.3432C226.986 26.8991 227.807 26.239 228.442 25.417V27.6531H230.643V18.4796C230.69 17.6746 230.573 16.8685 230.299 16.1103C230.024 15.3522 229.598 14.6579 229.046 14.0699ZM228.47 22.1323C228.47 24.5073 226.234 26.167 223.477 26.167C221.442 26.167 219.706 25.0629 219.706 23.1809V23.1184C219.706 21.3198 221.303 20.0976 224.088 20.0976C225.572 20.0983 227.048 20.3135 228.47 20.7365V22.1323Z" fill="#003CA5"/>
<path d="M215.492 20.2775C215.492 15.8678 212.944 12.3262 208.506 12.3262C204.34 12.3262 201.298 15.7984 201.298 20.1664C201.298 24.8331 204.666 27.9997 208.784 27.9997C209.963 28.0295 211.133 27.7912 212.206 27.3028C213.279 26.8144 214.227 26.0886 214.978 25.1803L213.589 23.9372C212.999 24.6079 212.271 25.1441 211.455 25.5094C210.639 25.8748 209.754 26.061 208.86 26.0553C207.503 26.0676 206.194 25.5537 205.207 24.6215C204.22 23.6893 203.633 22.4111 203.569 21.0553H215.471C215.492 20.7081 215.492 20.4859 215.492 20.2775ZM203.562 19.2636C203.881 16.3539 205.86 14.2081 208.423 14.2081C211.388 14.2081 212.958 16.5345 213.214 19.2636H203.562Z" fill="#003CA5"/>
<path d="M182.742 7.32666H185.034V16.3613H196.763V7.32666H199.055V27.646H196.763V18.5072H185.034V27.646H182.742V7.32666Z" fill="#003CA5"/>
<path d="M270.319 15.0698C270.667 15.0698 270.84 14.9101 270.84 14.6601C270.84 14.4101 270.646 14.2712 270.319 14.2712H269.722V15.0698H270.319ZM268.993 13.6393H270.382C271.076 13.6393 271.59 13.9448 271.59 14.6115C271.6 14.8145 271.54 15.0147 271.422 15.1798C271.303 15.3449 271.133 15.4652 270.937 15.5212L271.687 16.5976H270.833L270.201 15.6532H269.743V16.5976H269.049L268.993 13.6393ZM272.68 15.167C272.698 14.8272 272.647 14.4873 272.529 14.1679C272.411 13.8486 272.23 13.5566 271.996 13.3097C271.761 13.0628 271.479 12.8662 271.167 12.7319C270.854 12.5975 270.517 12.5282 270.177 12.5282C269.837 12.5282 269.5 12.5975 269.187 12.7319C268.875 12.8662 268.593 13.0628 268.358 13.3097C268.124 13.5566 267.943 13.8486 267.825 14.1679C267.707 14.4873 267.656 14.8272 267.674 15.167C267.656 15.5069 267.707 15.8468 267.825 16.1661C267.943 16.4855 268.124 16.7775 268.358 17.0243C268.593 17.2712 268.875 17.4679 269.187 17.6022C269.5 17.7366 269.837 17.8059 270.177 17.8059C270.517 17.8059 270.854 17.7366 271.167 17.6022C271.479 17.4679 271.761 17.2712 271.996 17.0243C272.23 16.7775 272.411 16.4855 272.529 16.1661C272.647 15.8468 272.698 15.5069 272.68 15.167ZM267.347 15.167C267.346 14.7941 267.419 14.4245 267.561 14.0796C267.703 13.7346 267.911 13.421 268.174 13.1566C268.437 12.8922 268.75 12.6823 269.094 12.5387C269.438 12.3951 269.807 12.3207 270.18 12.3198C270.552 12.3189 270.919 12.3914 271.262 12.5332C271.605 12.675 271.917 12.8833 272.179 13.146C272.441 13.4088 272.648 13.7208 272.789 14.064C272.93 14.4073 273.002 14.7751 273 15.1462C273 15.8958 272.702 16.6147 272.172 17.1448C271.642 17.6748 270.923 17.9726 270.174 17.9726C269.424 17.9726 268.705 17.6748 268.175 17.1448C267.645 16.6147 267.347 15.8958 267.347 15.1462V15.167Z" fill="#003CA5"/>
<path d="M6.05553 27.3751V21.8196C6.0537 21.7158 6.0112 21.6169 5.93716 21.5441C5.86313 21.4714 5.76348 21.4306 5.65969 21.4307H0.138888C0.102053 21.4307 0.066726 21.4453 0.0406794 21.4713C0.0146328 21.4974 0 21.5327 0 21.5696C0.00052181 21.6062 0.0154979 21.6411 0.0416665 21.6668L5.81247 27.4445C5.84637 27.4552 5.88273 27.4552 5.91664 27.4445C5.93488 27.4445 5.95294 27.4409 5.96979 27.434C5.98664 27.427 6.00195 27.4167 6.01485 27.4038C6.02774 27.3909 6.03797 27.3756 6.04495 27.3588C6.05193 27.3419 6.05553 27.3239 6.05553 27.3056" fill="#612E8A"/>
<path d="M13.194 27.216V21.8479C13.194 21.7978 13.1842 21.7481 13.165 21.7018C13.1458 21.6554 13.1176 21.6133 13.0822 21.5779C13.0467 21.5424 13.0046 21.5143 12.9583 21.4951C12.9119 21.4759 12.8622 21.466 12.8121 21.466H7.45795C7.44004 21.4651 7.42214 21.4678 7.40532 21.474C7.3885 21.4802 7.37312 21.4898 7.36012 21.5021C7.34713 21.5145 7.33678 21.5293 7.32972 21.5458C7.32266 21.5623 7.31903 21.58 7.31906 21.5979C7.31796 21.6163 7.32116 21.6346 7.32839 21.6515C7.33563 21.6684 7.3467 21.6833 7.36072 21.6952L12.9788 27.3132C13.0027 27.3378 13.0348 27.3526 13.069 27.3549C13.1059 27.3549 13.1412 27.3402 13.1672 27.3142C13.1933 27.2881 13.2079 27.2528 13.2079 27.216" fill="#8A3B96"/>
<path d="M20.3612 27.216V21.8479C20.3621 21.7975 20.3529 21.7474 20.334 21.7007C20.3152 21.6539 20.2871 21.6114 20.2514 21.5758C20.2158 21.5401 20.1733 21.512 20.1265 21.4932C20.0797 21.4743 20.0297 21.4651 19.9792 21.466H14.5834C14.5655 21.4651 14.5476 21.4678 14.5308 21.474C14.514 21.4802 14.4986 21.4898 14.4856 21.5021C14.4726 21.5145 14.4623 21.5293 14.4552 21.5458C14.4482 21.5623 14.4445 21.58 14.4445 21.5979C14.4435 21.6163 14.4466 21.6346 14.4539 21.6515C14.4611 21.6684 14.4722 21.6833 14.4862 21.6952L20.139 27.3132C20.1646 27.3394 20.1996 27.3543 20.2362 27.3549C20.2718 27.3531 20.3054 27.3377 20.3299 27.3118C20.3545 27.286 20.3682 27.2516 20.3681 27.216" fill="#F47421"/>
<path d="M6.05675 20.0631V14.695C6.05677 14.5931 6.01675 14.4952 5.94532 14.4225C5.87388 14.3497 5.77674 14.308 5.67481 14.3062H0.299835C0.264216 14.3079 0.230648 14.3234 0.206085 14.3492C0.181522 14.3751 0.167847 14.4094 0.167891 14.445C0.158229 14.4767 0.158229 14.5106 0.167891 14.5423L5.82064 20.1395C5.85233 20.1491 5.88618 20.1491 5.91786 20.1395C5.93577 20.1404 5.95367 20.1377 5.97049 20.1315C5.98731 20.1253 6.00269 20.1157 6.01569 20.1034C6.02868 20.091 6.03903 20.0761 6.04609 20.0597C6.05315 20.0432 6.05678 20.0254 6.05675 20.0075" fill="#8A3B96"/>
<path d="M13.1938 20.0631V14.695C13.1938 14.5931 13.1538 14.4952 13.0824 14.4225C13.0109 14.3497 12.9138 14.308 12.8119 14.3062H7.45774C7.4209 14.3062 7.38557 14.3208 7.35953 14.3468C7.33348 14.3729 7.31885 14.4082 7.31885 14.445C7.31937 14.4817 7.33435 14.5166 7.36051 14.5423L12.9785 20.1395C13.0077 20.1501 13.0397 20.1501 13.0688 20.1395C13.0867 20.1404 13.1046 20.1377 13.1214 20.1315C13.1383 20.1253 13.1536 20.1157 13.1666 20.1034C13.1796 20.091 13.19 20.0761 13.197 20.0597C13.2041 20.0432 13.2077 20.0254 13.2077 20.0075" fill="#BB88BD"/>
<path d="M20.3615 18.8825V14.5839C20.3615 14.5028 20.3293 14.4251 20.272 14.3678C20.2147 14.3105 20.137 14.2783 20.056 14.2783H15.7921C15.7638 14.2801 15.7373 14.2926 15.718 14.3132C15.6986 14.3339 15.6879 14.3611 15.6879 14.3894C15.6782 14.414 15.6782 14.4413 15.6879 14.4658L20.1532 18.9311C20.178 18.939 20.2047 18.939 20.2296 18.9311C20.2572 18.9311 20.2837 18.9201 20.3032 18.9006C20.3228 18.881 20.3337 18.8545 20.3337 18.8269" fill="#F0492C"/>
<path d="M27.5129 18.4515V14.5834C27.5138 14.5476 27.5075 14.512 27.4942 14.4787C27.4809 14.4454 27.461 14.4151 27.4357 14.3898C27.4103 14.3644 27.3801 14.3445 27.3468 14.3313C27.3135 14.318 27.2779 14.3116 27.242 14.3126H23.374C23.3482 14.3126 23.3235 14.3228 23.3052 14.3411C23.287 14.3593 23.2768 14.384 23.2768 14.4098C23.2704 14.4302 23.2704 14.452 23.2768 14.4723L27.3184 18.514C27.3412 18.5196 27.3651 18.5196 27.3879 18.514C27.4136 18.514 27.4384 18.5037 27.4566 18.4855C27.4748 18.4673 27.4851 18.4425 27.4851 18.4167" fill="#FDB913"/>
<path d="M27.513 25.6048V21.7367C27.5139 21.7009 27.5076 21.6653 27.4943 21.632C27.481 21.5987 27.4611 21.5685 27.4358 21.5431C27.4104 21.5178 27.3802 21.4979 27.3469 21.4846C27.3136 21.4713 27.278 21.465 27.2422 21.4659H23.3741C23.3483 21.4659 23.3236 21.4762 23.3054 21.4944C23.2871 21.5126 23.2769 21.5374 23.2769 21.5631C23.2703 21.5858 23.2703 21.6099 23.2769 21.6326L27.3463 25.6951C27.3691 25.7007 27.393 25.7007 27.4158 25.6951C27.4415 25.6951 27.4663 25.6848 27.4845 25.6666C27.5027 25.6484 27.513 25.6236 27.513 25.5978" fill="#FDB913"/>
<path d="M6.05675 12.9097V7.53477C6.05675 7.48462 6.04687 7.43495 6.02768 7.38861C6.00848 7.34227 5.98035 7.30017 5.94488 7.2647C5.90942 7.22923 5.86731 7.2011 5.82097 7.18191C5.77463 7.16271 5.72497 7.15283 5.67481 7.15283H0.299835C0.264216 7.15462 0.230648 7.17003 0.206085 7.19589C0.181522 7.22174 0.167847 7.25606 0.167891 7.29172C0.158229 7.32341 0.158229 7.35726 0.167891 7.38894L5.78592 13C5.8049 13.0187 5.82886 13.0316 5.85494 13.037C5.88102 13.0425 5.90812 13.0403 5.93301 13.0308C5.9579 13.0213 5.97953 13.0048 5.99531 12.9834C6.0111 12.9619 6.02037 12.9363 6.02203 12.9097" fill="#009347"/>
<path d="M13.194 11.7223V7.45839C13.194 7.41826 13.1861 7.37853 13.1707 7.34146C13.1554 7.30438 13.1329 7.2707 13.1045 7.24233C13.0761 7.21395 13.0424 7.19145 13.0054 7.17609C12.9683 7.16074 12.9286 7.15283 12.8884 7.15283H8.63845C8.60899 7.15283 8.58073 7.16454 8.55989 7.18538C8.53905 7.20621 8.52734 7.23447 8.52734 7.26394C8.52849 7.29296 8.54095 7.32038 8.56207 7.34033L13.0204 11.8056C13.0403 11.8267 13.0677 11.8392 13.0968 11.8403C13.1262 11.8403 13.1545 11.8286 13.1753 11.8078C13.1962 11.7869 13.2079 11.7587 13.2079 11.7292" fill="#BCDA85"/>
<path d="M20.3617 11.2917V7.43061C20.3617 7.35812 20.3334 7.2885 20.2828 7.23661C20.2322 7.18471 20.1633 7.15464 20.0908 7.15283H16.2228C16.21 7.15283 16.1974 7.15535 16.1856 7.16023C16.1738 7.16512 16.1631 7.17228 16.1541 7.18131C16.145 7.19034 16.1379 7.20105 16.133 7.21285C16.1281 7.22464 16.1256 7.23729 16.1256 7.25005C16.1176 7.27252 16.1176 7.29703 16.1256 7.3195L20.1672 11.3611C20.1758 11.3714 20.1864 11.3798 20.1983 11.3857C20.2103 11.3917 20.2233 11.3952 20.2367 11.3959C20.2631 11.3941 20.2878 11.3824 20.3059 11.363C20.3239 11.3437 20.334 11.3182 20.3339 11.2917" fill="#8D95CA"/>
<path d="M27.5128 10.5139V7.37505C27.5128 7.31612 27.4894 7.25959 27.4478 7.21792C27.4061 7.17624 27.3496 7.15283 27.2906 7.15283H24.1587C24.1366 7.15283 24.1154 7.16161 24.0998 7.17724C24.0841 7.19287 24.0754 7.21406 24.0754 7.23616C24.0711 7.2448 24.0688 7.25431 24.0688 7.26394C24.0688 7.27358 24.0711 7.28309 24.0754 7.29172L27.3531 10.5695C27.3711 10.5758 27.3907 10.5758 27.4087 10.5695C27.4296 10.5677 27.449 10.5582 27.4632 10.5427C27.4773 10.5273 27.4851 10.5071 27.4851 10.4861" fill="#009CDA"/>
<path d="M6.05525 4.56942V0.305554C6.05525 0.224516 6.02306 0.146797 5.96576 0.0894947C5.90845 0.0321922 5.83073 0 5.7497 0L1.48583 0C1.45883 0.00340086 1.43402 0.0165924 1.41609 0.0370727C1.39817 0.057553 1.38839 0.0838978 1.38861 0.111111C1.37958 0.135773 1.37958 0.162836 1.38861 0.187499L5.86775 4.64581C5.89241 4.65484 5.91948 4.65484 5.94414 4.64581C5.97361 4.64581 6.00187 4.6341 6.02271 4.61327C6.04354 4.59243 6.05525 4.56417 6.05525 4.5347" fill="#48B749"/>
<path d="M13.194 4.16665V0.277776C13.194 0.204106 13.1647 0.133452 13.1126 0.0813588C13.0605 0.0292656 12.9899 0 12.9162 0L9.06901 0C9.04323 0 9.0185 0.010243 9.00026 0.0284756C8.98203 0.0467082 8.97179 0.0714369 8.97179 0.0972218C8.9672 0.108224 8.96484 0.120025 8.96484 0.131944C8.96484 0.143863 8.9672 0.155664 8.97179 0.166666L13.0134 4.20831C13.0244 4.2129 13.0362 4.21526 13.0482 4.21526C13.0601 4.21526 13.0719 4.2129 13.0829 4.20831C13.1034 4.21461 13.1254 4.21393 13.1455 4.2064C13.1656 4.19886 13.1827 4.18488 13.194 4.16665Z" fill="#BCDA85"/>
<path d="M20.3611 3.36109V0.222221C20.3611 0.163284 20.3377 0.106762 20.296 0.0650871C20.2543 0.0234125 20.1978 0 20.1389 0L17 0C16.9797 0 16.9603 0.00804805 16.946 0.0223737C16.9317 0.0366993 16.9236 0.056129 16.9236 0.0763885C16.9167 0.0966539 16.9167 0.118623 16.9236 0.138888L20.2083 3.41665C20.2262 3.42362 20.246 3.42362 20.2639 3.41665C20.2739 3.41665 20.2838 3.41467 20.2931 3.41084C20.3024 3.407 20.3108 3.40137 20.3179 3.39428C20.325 3.38718 20.3306 3.37876 20.3345 3.36949C20.3383 3.36023 20.3403 3.35029 20.3403 3.34026" fill="#003CA5"/>
<path d="M27.513 3.36141V0.222538C27.513 0.163601 27.4896 0.107078 27.4479 0.0654034C27.4063 0.0237289 27.3497 0.000316377 27.2908 0.000316377H24.1589C24.1483 -0.000651319 24.1376 0.000606753 24.1275 0.00400992C24.1174 0.00741309 24.1081 0.0128862 24.1003 0.0200784C24.0925 0.0272706 24.0862 0.036023 24.0819 0.0457745C24.0777 0.055526 24.0755 0.0660613 24.0755 0.0767049C24.0711 0.0865337 24.0688 0.0971834 24.0688 0.107955C24.0688 0.118726 24.0711 0.129376 24.0755 0.139205L27.3533 3.41697C27.3712 3.42394 27.391 3.42394 27.4089 3.41697C27.4189 3.41697 27.4288 3.41499 27.4381 3.41115C27.4474 3.40731 27.4558 3.40169 27.4629 3.39459C27.47 3.3875 27.4756 3.37908 27.4794 3.36981C27.4833 3.36054 27.4852 3.35061 27.4852 3.34058" fill="#6ACDEC"/>
</svg>
