<svg width="330" height="274" viewBox="0 0 330 274" fill="none" xmlns="http://www.w3.org/2000/svg">
<path d="M164.567 274C255.455 274 329.134 269.697 329.134 264.389C329.134 259.082 255.455 254.779 164.567 254.779C73.6792 254.779 0 259.082 0 264.389C0 269.697 73.6792 274 164.567 274Z" fill="#F0F6FF"/>
<path d="M221.645 90.8439H208.832V264.545H221.645V90.8439Z" fill="#898989"/>
<path d="M208.832 90.8439H221.645V103.657L208.832 98.9418V90.8439Z" fill="#898989"/>
<path d="M195.007 49.1693C195.007 41.0404 191.778 33.2443 186.03 27.4963C180.282 21.7482 172.486 18.519 164.357 18.519C156.228 18.519 148.432 21.7482 142.684 27.4963C136.936 33.2443 133.706 41.0404 133.706 49.1693V90.8438H195.007V49.1693Z" fill="#B11C1C"/>
<path d="M127.897 108.723C123.801 125.65 134.204 139.373 151.132 139.373C168.059 139.373 185.103 125.651 189.198 108.723L193.463 91.0977C193.521 90.8604 193.523 90.6132 193.471 90.3746C193.419 90.136 193.314 89.9124 193.163 89.7204C193.012 89.5284 192.82 89.3731 192.6 89.2662C192.381 89.1592 192.14 89.1035 191.896 89.103H133.916C133.554 89.1039 133.203 89.2261 132.919 89.4503C132.634 89.6744 132.434 89.9874 132.349 90.3391L127.897 108.723Z" fill="#FC7777"/>
<path d="M125.431 108.723C121.335 125.65 131.738 139.373 148.665 139.373C165.592 139.373 182.635 125.651 186.731 108.723L190.996 91.0977C191.054 90.8604 191.057 90.6132 191.005 90.3746C190.953 90.136 190.847 89.9124 190.696 89.7204C190.546 89.5284 190.353 89.3731 190.134 89.2662C189.914 89.1592 189.673 89.1035 189.429 89.103H131.449C131.087 89.1039 130.736 89.2261 130.452 89.4503C130.168 89.6744 129.967 89.9874 129.882 90.3391L125.431 108.723Z" fill="#FF4646"/>
<path d="M267.15 49.1642V90.8439H195V49.1642C194.997 41.0374 191.766 33.2446 186.02 27.498C180.273 21.7515 172.481 18.5214 164.354 18.5176H236.504C244.63 18.5214 252.423 21.7515 258.17 27.498C263.916 33.2446 267.146 41.0374 267.15 49.1642Z" fill="#FF4646"/>
<path d="M267.15 49.1641V60.3131H195.001V49.1641C195.015 42.3485 192.741 35.7254 188.543 30.356H260.693C264.891 35.7254 267.165 42.3485 267.15 49.1641Z" fill="#FF0000"/>
<path d="M205.045 65.6798V4.05412C205.045 3.50455 205.164 2.96156 205.395 2.46284C205.626 1.96411 205.963 1.52162 206.382 1.16608C206.801 0.810544 207.292 0.55049 207.822 0.403968C208.352 0.257447 208.907 0.227977 209.449 0.317601L224.22 2.7595C224.75 2.84692 225.231 3.11971 225.579 3.52925C225.926 3.93879 226.117 4.45845 226.117 4.99557V8.81988C226.117 9.42123 225.878 9.99796 225.453 10.4232C225.028 10.8484 224.451 11.0873 223.85 11.0873H209.744V65.6829C209.744 66.3064 209.496 66.9044 209.055 67.3453C208.614 67.7862 208.016 68.0339 207.393 68.0339C207.084 68.0335 206.778 67.9723 206.493 67.8537C206.208 67.7352 205.949 67.5617 205.731 67.3431C205.513 67.1245 205.34 66.8651 205.223 66.5797C205.105 66.2943 205.045 65.9885 205.045 65.6798Z" fill="#E60303"/>
<path d="M194.007 50.6932V85.3689H173.212C172.677 85.3665 172.164 85.1528 171.785 84.7743C171.407 84.3956 171.193 83.8827 171.191 83.3472V52.7176C171.196 52.1825 171.411 51.6708 171.79 51.2923C172.168 50.9138 172.68 50.6987 173.215 50.6932H194.007Z" stroke="white" stroke-width="2"/>
<path d="M194.007 67.584L173.003 50.7041C173.071 50.6969 173.141 50.6932 173.21 50.6931C173.21 50.6931 173.211 50.6931 173.211 50.6931L194.007 50.6931V67.584Z" fill="#9FC6FF" stroke="white" stroke-width="2"/>
<g style="mix-blend-mode:multiply">
<path d="M195.003 49.6931H190.223V86.3688H195.003V49.6931Z" fill="white"/>
</g>
<g clip-path="url(#clip0)">
<path d="M89.9537 192.899C91.8408 192.85 101.93 199.147 102.611 200.984C103.292 202.821 96.8945 202.597 94.6874 200.712C92.4803 198.826 88.7382 194.896 89.0581 194.225" fill="#075D66"/>
<path d="M90.2413 192.819C88.8979 192.37 88.5255 192.783 88.8236 194.061C89.1218 195.34 90.1306 196.187 90.2413 195.95" fill="#075D66"/>
<path d="M96.2528 210.133C103.312 217.654 96.5167 241.219 97.0171 243.571C97.8499 247.491 104.416 246.536 103.628 251.724C103.093 255.246 99.1967 257.86 91.2425 255.618C83.2793 253.374 79.6489 245.507 83.8094 233.081" fill="#DD8331"/>
<path d="M50.8125 242.82C48.3556 244.516 40.2895 242.525 42.9089 229.962C45.5304 217.396 36.572 221.196 33.8157 232.27C31.0569 243.339 42.316 254.009 50.8125 245.577" fill="#EDA53B"/>
<path d="M88.8183 155.485C85.5487 152.446 88.4949 147.846 92.9672 149.355C97.4453 150.866 104.256 147.077 101.766 138.648C99.2705 130.225 94.827 129.386 92.828 133.41C90.8264 137.426 89.555 142.706 82.0737 144.02C74.5878 145.34 77.502 154.481 85.6561 157.34" fill="#EAA239"/>
<path d="M96.1338 131.604C98.8456 131.197 101.751 137.04 101.245 141.859C100.737 146.677 95.9819 147.105 92.5468 144.72C89.1108 142.334 89.0213 141.404 91.2164 138.331C93.4114 135.258 92.7604 132.11 96.1338 131.604Z" fill="#FEC05B"/>
<path d="M134.432 166.345C136.621 167.494 134.448 180.185 129.369 183.597C124.909 186.593 119.855 184.382 113.554 184.334C109.31 184.303 97.16 191.713 98.2999 210.133C99.5108 229.711 85.693 249.815 67.5113 252.245C42.5523 255.573 40.054 229.456 58.752 218.332C69.6272 211.865 100.24 203.8 86.6801 183.166C77.9044 169.81 78.3661 155.429 90.7169 151.804C103.062 148.179 106.946 155.866 110.643 156.876C116.943 158.602 117.408 153.789 122.467 150.578C127.83 147.177 136.155 151.567 137.415 160.871C137.947 164.792 134.566 166.559 132.639 166.357" fill="#EDA53B"/>
<path d="M112.547 157.999C117.31 158.281 121.333 150.532 125.46 149.808C128.458 149.283 133.93 150.365 136.388 156.704C137.595 159.814 138.973 164.354 134.432 166.345C136.545 166.6 135.425 177.592 130.851 181.557C125.082 186.555 118.061 181.557 111.886 181.557C105.71 181.557 92.556 181.183 86.9586 173.147C81.5518 165.383 83.0995 158.137 89.5001 153.283C94.1268 149.774 101.454 150.931 105.23 153.705C108.172 155.864 110.456 157.876 112.547 157.999Z" fill="#FEC05B"/>
<path d="M66.4522 229.385C77.9398 228.104 85.6618 253.094 68.1007 257.564C53.81 261.202 46.5105 250.245 46.5081 237.098" fill="#EDA53B"/>
<path d="M90.0258 200.984C79.9367 217.055 70.3103 209.54 55.4276 222.267C46.3164 230.058 47.3706 246.285 55.8149 250.469C65.7351 255.383 76.6114 250.115 76.4719 241.02C76.3315 231.925 67.9296 228.008 59.9755 232.17C63.5886 226.819 72.6202 227.658 75.141 230.183C74.3725 223.964 78.9052 215.555 85.2213 216.723C89.69 217.549 93.1296 221.932 93.8903 227.04C97.4934 220.941 97.0409 217.337 97.435 208.539C98.0165 195.553 102.774 191.606 101.558 191.186C100.344 190.767 95.533 200.784 90.0258 200.984Z" fill="#FEC05B"/>
<path d="M69.027 231.346C61.5321 228.012 55.28 236.715 62.0005 241.55C68.7219 246.383 83.2411 237.667 69.027 231.346Z" fill="#FFD78A"/>
<path d="M125.634 150.417C120.815 151.229 116.742 156.427 115.341 165.475C113.94 174.524 121.929 174.698 125.48 172.844C128.886 171.067 132.192 167.547 131.935 163.76C134.279 165.655 137.434 162.898 135.474 157.48C133.514 152.063 129.43 149.777 125.634 150.417Z" fill="#FFD78A"/>
<path d="M126.911 155.04C126.23 155.066 125.588 156.097 126.911 156.703C128.234 157.309 131.437 161.15 131.96 166.578C132.482 172.008 127.649 176.06 121.786 176.992C115.924 177.925 110.875 175.725 110.463 172.786C111.361 172.144 110.899 171.031 109.449 172.182C108.236 173.147 108.228 174.906 108.935 175.016C109.15 175.05 109.399 174.284 109.77 174.025C111.124 175.645 115.298 178.971 122.192 177.604C129.087 176.237 132.719 172.039 132.905 167.004C134.679 167.332 137.795 165.304 137.441 162.235C137.193 164.434 135.014 166.578 133.307 166.009C132.343 165.592 131.504 158.673 126.911 155.04Z" fill="#EE902E"/>
<path d="M106.097 153.961C100.082 150.535 91.1415 150.643 88.0459 157.628C85.2881 163.852 89.2659 171.777 97.0566 173.147C102.42 174.089 106.605 169.122 109.379 163.978C111.718 159.64 111.877 157.254 106.097 153.961Z" fill="#FFD78A"/>
<path d="M56.6295 243.772C59.4177 244.171 59.934 246.772 57.4849 248.033C55.0369 249.296 52.9805 248.242 51.6726 246.652C50.0299 244.658 50.1682 242.382 52.277 241.699C54.3832 241.021 53.8407 243.374 56.6295 243.772Z" fill="#7C2812"/>
<path d="M78.4322 222.686C74.1323 228.99 80.3627 250.726 79.1631 254.501C77.9626 258.277 79.9833 262.365 86.37 262.464C94.4065 262.587 96.6133 257.298 91.2423 252.536C89.1496 243.751 92.8813 229.71 90.0074 223.157" fill="#EDA53B"/>
<path d="M82.1743 165.041C73.5222 164.537 66.049 152.816 69.8508 143.164C73.6662 133.514 89.1622 130.314 90.8262 137.426C92.486 144.534 89.1561 146.013 81.0592 149.004C72.9557 151.994 79.532 158.821 83.2913 161.22C84.139 161.761 84.209 165.16 82.1743 165.041Z" fill="#661C03"/>
<path d="M128.004 149.832C126.076 149.246 120.816 153.442 121.806 155.771C122.794 158.1 127.966 157.897 128.717 157.007C129.467 156.125 130.505 150.593 128.004 149.832Z" fill="#442110"/>
<path d="M50.1134 226.406C49.3845 230.814 57.3399 231.057 59.4909 228.712C63.8581 223.955 63.3234 220.478 67.1549 219.162C68.7177 218.625 70.5181 217.176 69.6659 215.362C69.0787 214.127 67.1114 214.182 65.832 214.69C62.0167 216.037 52.9805 220.977 50.1134 226.406Z" fill="#661C03"/>
<path d="M50.728 228.716C52.5844 230.796 57.8105 230.544 59.4909 228.712C63.8581 223.955 63.3234 220.478 67.1549 219.162C68.7177 218.625 70.5181 217.176 69.6659 215.362C69.5234 215.064 69.2896 214.82 68.9987 214.665C58.407 216.769 51.7584 226.734 50.728 228.716Z" fill="#7C2812"/>
<path d="M88.7931 198.182C90.1 195.782 94.2673 200.69 91.7791 205.469C89.29 210.243 87.8951 214.025 84.411 214.623C80.9248 215.22 74.9387 211.748 77.1846 208.955C84.5847 205.249 87.2669 200.984 88.7931 198.182Z" fill="#661C03"/>
<path d="M67.959 254.588C70.0334 254.722 76.7434 254.521 78.0183 258.364C79.2931 262.207 71.1734 266.053 67.2518 263.948C63.2751 261.815 61.8578 262.198 58.0616 261.716C54.2657 261.237 54.6482 255.66 58.7126 252.536" fill="#EDA53B"/>
<path d="M105.39 164.615C106.248 166.804 103.297 171.531 99.209 170.585C95.374 169.699 90.9818 161.023 94.8453 158.538C97.6622 156.725 103.455 159.676 105.39 164.615Z" fill="#DD9F47"/>
<path d="M104.944 164.28C105.739 166.305 103.008 170.678 99.2272 169.803C95.6792 168.983 91.6125 160.953 95.1892 158.657C97.4887 157.182 103.155 159.711 104.944 164.28Z" fill="#FCC0C0"/>
<path d="M104.603 164.63C105.347 166.53 102.787 170.63 99.2398 169.81C95.9123 169.041 92.0991 161.511 95.4541 159.358C97.6098 157.975 102.924 160.347 104.603 164.63Z" fill="white"/>
<path d="M102.426 153.868C102.229 155.802 107.046 160.693 108.871 160.997C110.694 161.3 112.436 159.403 111.721 157.743C111.113 156.331 104.937 151.797 102.426 153.868Z" fill="#DD9F47"/>
<path d="M102.799 153.826C102.618 155.607 107.053 160.111 108.734 160.391C110.414 160.67 112.019 158.923 111.36 157.394C110.799 156.095 105.112 151.918 102.799 153.826Z" fill="#FCC0C0"/>
<path d="M103.165 154.38C102.999 156.011 107.062 160.137 108.601 160.393C110.141 160.65 111.667 159.022 111.007 157.648C110.302 156.184 105.283 152.632 103.165 154.38Z" fill="white"/>
<path d="M133.535 167.355C135.809 167.423 133.885 180.927 128.074 183.025C124.923 183.725 124.908 178.828 124.908 178.828C130.034 178.058 133.954 170.442 133.535 167.355Z" fill="#FFD78A"/>
<path d="M81.5826 216.849C77.4567 219.893 79.5446 231.956 81.0206 240.336C82.4943 248.716 82.6326 252.693 82.6326 252.693C85.2781 253.066 88.1398 254.677 89.7277 252.536C87.861 247.97 95.3183 227.047 88.4094 218.22C85.5625 214.802 81.5826 216.849 81.5826 216.849Z" fill="#FEC05B"/>
<path d="M90.4859 252.983C92.9681 253.918 94.0978 256.879 92.8812 258.639C91.6646 260.399 85.3625 261.168 83.1932 259.909C81.0226 258.65 80.1764 255.054 82.0693 253.914C83.9632 252.773 88.8318 252.359 90.4859 252.983Z" fill="#FEC05B"/>
<path d="M92.6871 259.116C93.4058 257.445 92.5501 256.128 90.4858 255.383C91.6876 256.085 91.9973 258.79 91.5861 260.095" fill="#EDA53B"/>
<path d="M86.0873 256.612C87.4408 257.484 87.8154 260.562 86.9265 261.215C86.2276 261.775 85.8074 261.215 85.8074 261.215C86.4134 260.282 86.3668 257.324 86.0873 256.612Z" fill="#EDA53B"/>
<path d="M98.8765 218.308C101.539 223.118 95.9898 242.092 96.6193 244.976C96.9163 246.337 95.1639 247.763 93.2299 247.347C91.2972 246.929 92.8324 240.095 94.0595 236.27C94.8864 233.684 98.9692 222.106 98.8765 218.308Z" fill="#EAA239"/>
<path d="M97.6862 246.756C100.362 246.868 102.693 248.014 103.184 249.273C103.673 250.532 102.832 252.843 99.5069 253.333C96.1793 253.822 93.1223 251.514 93.2334 250.185C93.3445 248.855 96.4307 247.117 97.6862 246.756Z" fill="#EAA239"/>
<path d="M100.657 248.843C102.115 249.526 102.9 252.527 102.108 253.293C101.49 253.941 100.998 253.443 100.998 253.443C101.474 252.437 101.031 249.513 100.657 248.843Z" fill="#DD8331"/>
<path d="M68.2126 254.574C71.7333 254.583 76.6579 255.194 77.365 257.739C78.0711 260.286 72.5992 263.716 69.1196 261.464C67.1229 260.172 64.9489 259.091 61.4409 258.632C57.933 258.174 59.574 254.553 68.2126 254.574Z" fill="#FEC05B"/>
<path d="M77.0953 260.009C77.4186 258.218 76.2888 257.127 74.1094 256.865C75.4389 257.278 76.3496 259.845 76.2423 261.21" fill="#EDA53B"/>
<path d="M71.6531 258.633C73.2364 258.93 74.8266 260.985 74.2509 261.923C73.8133 262.705 73.2135 262.345 73.2135 262.345C73.4225 261.253 72.181 259.188 71.6531 258.633Z" fill="#EDA53B"/>
<path d="M41.2648 222.518C43.8865 223.05 42.5122 228.257 40.8171 231.646C39.122 235.036 37.8161 238.64 38.3061 241.577C38.7998 244.534 36.1939 244.097 34.0749 238.64C31.8142 232.821 36.5915 221.571 41.2648 222.518Z" fill="#FEC05B"/>
<path d="M72.9771 139.665C76.9697 135.197 83.7644 132.696 87.9533 134.731C91.4388 136.424 91.4842 141.891 87.2555 144.292C83.1408 146.627 76.3884 146.295 71.3013 149.308C68.8168 150.779 69.8506 143.164 72.9771 139.665Z" fill="#892E1B"/>
<path d="M91.2422 156.085C91.2215 156.466 88.3737 157.628 89.4944 161.764C87.7442 159.729 87.3697 156.752 88.2846 156.155C89.1974 155.557 91.2617 155.705 91.2422 156.085Z" fill="#442110"/>
<path d="M97.4886 153.702C97.8248 153.635 98.3636 151.382 102.419 152.033C100.383 150.732 97.6818 150.778 97.2648 151.665C96.8476 152.556 97.1527 153.767 97.4886 153.702Z" fill="#442110"/>
<path d="M104.175 167.642C104.287 164.705 100.766 162.061 97.9568 162.088C95.3583 162.113 94.3288 163.652 94.4854 164.719C95.2119 166.749 97.3812 169.775 99.7391 169.918C102.098 170.06 103.648 168.578 104.175 167.642Z" fill="#415FA3"/>
<path d="M111.14 159.291C111.36 157.394 109.31 156.231 107.524 155.812C105.738 155.393 104.307 156.218 104.37 156.878C105.398 158.566 107.559 160.202 108.855 160.42C110.15 160.639 110.961 159.617 111.14 159.291Z" fill="#415FA3"/>
<path d="M104.97 157.711C105.983 155.864 110.552 157.182 110.164 160.157C109.68 160.992 106.911 160.254 104.97 157.711Z" fill="#031430"/>
<path d="M95.43 166.608C94.9785 165.15 97.0088 163.195 99.9491 164.524C102.889 165.853 103.107 168.367 102.613 169.202C100.393 170.457 97.8106 170.362 95.43 166.608Z" fill="#031430"/>
<path d="M106.463 154.703C106.891 154.538 108.021 156.434 107.391 156.68C106.761 156.924 105.238 155.175 106.463 154.703Z" fill="white"/>
<path d="M108.574 159.345C109.047 159.432 109.099 159.957 108.574 159.922C108.048 159.887 108.101 159.257 108.574 159.345Z" fill="white"/>
<path d="M97.6602 161.248C98.2152 161.033 99.6877 163.502 98.8675 163.821C98.0461 164.14 96.0631 161.863 97.6602 161.248Z" fill="white"/>
<path d="M100.58 168.338C101.14 168.464 101.201 169.218 100.58 169.168C99.9586 169.118 100.02 168.213 100.58 168.338Z" fill="white"/>
<path d="M87.1973 218.308C91.6079 219.26 89.7722 237.65 87.1973 237.7C84.6247 237.749 79.7285 216.696 87.1973 218.308Z" fill="#FFD78A"/>
<path d="M110.044 172.409C110.678 172.346 110.57 172.674 110.429 173.021C110.29 173.369 110.973 174.91 112.109 175.627C110.692 174.718 110.29 173.634 109.851 173.791C109.415 173.948 109.65 174.335 109.115 174.263C108.583 174.191 109.344 172.479 110.044 172.409Z" fill="#D36705"/>
<path d="M37.6891 224.638C39.4781 223.058 42.3295 224.762 39.8437 229.337C37.3569 233.912 33.4215 228.406 37.6891 224.638Z" fill="#FFD78A"/>
<path d="M86.8601 134.335C89.6978 134.839 89.0351 137.728 85.9784 137.213C82.4863 136.627 83.3874 133.717 86.8601 134.335Z" fill="#B76D44"/>
<path d="M99.5928 135.188C100.644 137.869 97.8312 138.814 96.6765 135.939C95.3525 132.658 98.3065 131.906 99.5928 135.188Z" fill="#FFD78A"/>
<path d="M127.864 150.026C129.017 150.5 128.703 152.569 128.05 153.607C127.397 154.644 124.316 155.25 123.195 154.27C122.076 153.291 126.399 149.425 127.864 150.026Z" fill="#894929"/>
<path d="M127.397 150.308C128.274 150.448 128.097 151.706 126.883 151.754C125.669 151.799 126.23 150.121 127.397 150.308Z" fill="#FFBC9F"/>
<path d="M92.1104 200.426C88.5576 204.77 82.9682 210.107 77.3789 211.907C79.684 215.29 85.334 216.118 88.4022 211.9C91.4717 207.681 93.599 202.963 92.1104 200.426Z" fill="#7C2812"/>
<path d="M76.4714 151.76C75.0778 152.842 72.8458 156.246 73.8567 157.999C75.272 160.451 77.0518 162.048 82.446 163.461C83.193 162.901 82.446 161.235 82.446 161.235C78.9918 159.916 75.0712 155.917 76.4714 151.76Z" fill="#2D0800"/>
<path d="M100.607 205.92C101.881 205.389 103.31 202.736 103.1 201.782C102.888 200.828 101.852 199.976 101.852 199.976C101.315 199.499 100.221 198.635 99.7895 198.842C100.733 199.481 102.254 201.097 102.124 201.255C101.309 202.25 93.4722 198.834 90.0555 195.454C89.4101 194.688 88.8663 193.729 89.1222 193.378C89.3792 193.026 89.8383 192.996 89.8383 192.996C89.8383 192.996 89.8418 192.786 89.49 192.691C89.1382 192.595 88.7543 192.722 88.4024 192.978C88.0506 193.234 86.3303 195.368 86.5634 196.382C87.7147 201.383 98.4619 206.816 100.607 205.92Z" fill="#2B8DA3"/>
<path d="M87.4588 195.12C88.0665 194.8 88.6101 195.663 87.9703 196.11C87.3305 196.558 86.8511 195.439 87.4588 195.12Z" fill="#075D66"/>
<path d="M88.7792 197.293C89.387 196.973 89.9309 197.836 89.291 198.283C88.6512 198.731 88.1717 197.612 88.7792 197.293Z" fill="#075D66"/>
<path d="M102.908 201.926C102.14 202.661 98.9416 201.702 96.7345 200.616C96.1588 201.638 94.5208 203.633 94.5208 203.633C95.9075 204.794 99.0057 205.697 100.285 205.697C101.564 205.697 103.035 202.81 102.908 201.926Z" fill="#3AA8BA"/>
<path d="M131.974 240.94C133.275 240.35 134.424 237.323 137.115 236.486C139.843 235.636 142.603 237.805 141.843 240.268C141.176 242.433 142.563 243.763 144.435 244.778C146.307 245.793 144.46 252.755 139.705 250.792C134.95 248.828 135.699 248.767 131.664 250.255C127.63 251.742 123.827 253.218 121.559 254.708C119.29 256.198 120.525 260.725 116.077 260.37C108.29 259.748 112.012 254.933 110.783 253.431C109.578 251.96 107.557 252.646 107.429 248.769C107.31 245.149 111.63 244.051 113.487 244.567C115.344 245.083 116.972 246.405 119.804 245.481C123.004 244.437 130.341 241.68 131.974 240.94Z" fill="#D8C7A3"/>
<path d="M135.73 238.351C137.028 235.639 141.238 236.589 140.761 239.798C140.43 242.02 141.331 242.917 143.304 244.138C145.278 245.358 142.877 249.911 140.528 247.714C138.179 245.519 136.465 245.298 133.682 246.278C130.899 247.259 122.183 251.005 121.178 251.615C120.173 252.224 119.157 257.731 115.627 257.357C112.097 256.981 112.542 254.456 112.709 252.314C112.824 250.832 109.89 252.258 109.85 248.06C109.81 243.863 113.253 244.483 115.071 245.553C116.89 246.623 121.978 246.043 126.379 244.029C130.78 242.016 134.373 241.188 135.73 238.351Z" fill="#EDE3C8"/>
<path d="M138.397 236.978C136.121 236.806 134.546 239.843 137.113 240.609C139.681 241.374 140.484 237.136 138.397 236.978Z" fill="#FFF6E1"/>
<path d="M116.313 246.758C115.568 244.602 111.421 244.25 111.737 246.909C112.053 249.568 116.996 248.735 116.313 246.758Z" fill="#FFF6E1"/>
<path d="M139.248 242.993C140.752 241.998 144.176 243.799 142.816 245.532C141.457 247.265 137.805 243.948 139.248 242.993Z" fill="#FFF6E1"/>
<path d="M116.415 249.873C114.614 249.956 112.912 253.428 115.033 254.027C117.154 254.625 118.144 249.794 116.415 249.873Z" fill="#FFF6E1"/>
</g>
<defs>
<clipPath id="clip0">
<rect width="111.765" height="133.466" fill="white" transform="translate(33.3909 131.078)"/>
</clipPath>
</defs>
</svg>
