<!-- <svg width="32" height="32" viewBox="0 0 32 32" fill="none" xmlns="http://www.w3.org/2000/svg">
<rect width="32" height="32" rx="4" fill="#F9F9F9" fill-opacity="0.7"/>
<path d="M22 12C22 10.4087 21.3679 8.88258 20.2426 7.75736C19.1174 6.63214 17.5913 6 16 6C14.4087 6 12.8826 6.63214 11.7574 7.75736C10.6321 8.88258 10 10.4087 10 12C10 19 7 21 7 21H25C25 21 22 19 22 12Z" stroke="#8C8C8C" stroke-linecap="round" stroke-linejoin="round"/>
<path d="M17.73 25C17.5542 25.3031 17.3019 25.5547 16.9982 25.7295C16.6946 25.9044 16.3504 25.9965 16 25.9965C15.6496 25.9965 15.3054 25.9044 15.0018 25.7295C14.6982 25.5547 14.4458 25.3031 14.27 25" stroke="#8C8C8C" stroke-linecap="round" stroke-linejoin="round"/>
</svg> -->
<svg width="24" height="24" viewBox="0 0 24 24" fill="none" xmlns="http://www.w3.org/2000/svg">
<path d="M18 8C18 6.4087 17.3679 4.88258 16.2426 3.75736C15.1174 2.63214 13.5913 2 12 2C10.4087 2 8.88258 2.63214 7.75736 3.75736C6.63214 4.88258 6 6.4087 6 8C6 15 3 17 3 17H21C21 17 18 15 18 8Z" fill="#8C8C8C" stroke="#8C8C8C" stroke-linecap="round" stroke-linejoin="round"/>
<path d="M13.73 21C13.5542 21.3031 13.3019 21.5547 12.9982 21.7295C12.6946 21.9044 12.3504 21.9965 12 21.9965C11.6496 21.9965 11.3054 21.9044 11.0018 21.7295C10.6982 21.5547 10.4458 21.3031 10.27 21" stroke="#8C8C8C" stroke-linecap="round" stroke-linejoin="round"/>
</svg>

