<svg width="8" height="12" viewBox="0 0 8 12" fill="none" xmlns="http://www.w3.org/2000/svg">
<path d="M7.00246 2.52943L4.7655 0.296296C4.57492 0.106043 4.31873 0 4.05005 0C3.78136 0 3.52518 0.106043 3.3346 0.296296L1.09763 2.52943C0.700854 2.92554 0.700854 3.56491 1.09763 3.95789C1.29446 4.15439 1.55377 4.25419 1.81309 4.25419C2.0724 4.25419 2.33171 4.15439 2.52854 3.95789L3.05029 3.43704V11.0019C3.05029 11.554 3.49706 12 4.05005 12C4.60304 12 5.04981 11.554 5.04981 11.0019V3.43704L5.57156 3.95789C5.96834 4.354 6.60881 4.354 7.00246 3.95789C7.39924 3.56179 7.39924 2.92242 7.00246 2.52943Z" fill="#6B6C7E"/>
</svg>
