<svg width="24" height="24" viewBox="0 0 24 24" fill="none" xmlns="http://www.w3.org/2000/svg">
<g clip-path="url(#clip0)">
<path d="M10.1 18C8.8 18 7.6 17.5 6.7 16.6L2.4 12.3C1.5 11.4 1 10.2 1 8.9C1 7.6 1.5 6.4 2.4 5.5C3.3 4.5 4.6 4 5.9 4C7 4 8.1 4.4 9 5.1C9.1 5.2 9.2 5.3 9.2 5.4C9.2 5.5 9.2 5.7 9.1 5.8C9 6 8.8 6.1 8.7 6.1C8.6 6.1 8.5 6.1 8.4 6C7.6 5.4 6.7 5 5.8 5C4.8 5 3.8 5.4 3.1 6.1C2.4 6.9 2 7.9 2 8.9C2 9.9 2.4 10.9 3.1 11.6L7.4 15.8C8.1 16.6 9.1 17 10.1 17C11.1 17 12.1 16.6 12.8 15.9C14.2 14.5 14.3 12.1 12.9 10.6C12.8 10.5 12.8 10.4 12.8 10.2C12.8 10.1 12.9 9.9 13 9.8C13.1 9.7 13.2 9.7 13.3 9.7C13.4 9.7 13.6 9.8 13.7 9.9C15.4 11.8 15.3 14.8 13.5 16.6C12.6 17.5 11.4 18 10.1 18Z" fill="#0364E6"/>
<path d="M18.5002 20.1002C17.4002 20.1002 16.3002 19.7002 15.4002 19.0002C15.3002 18.9002 15.2002 18.8002 15.2002 18.7002C15.2002 18.6002 15.2002 18.4002 15.3002 18.3002C15.4002 18.2002 15.5002 18.1002 15.7002 18.1002C15.8002 18.1002 15.9002 18.1002 16.0002 18.2002C16.7002 18.8002 17.6002 19.1002 18.5002 19.1002C19.5002 19.1002 20.5002 18.7002 21.2002 18.0002C22.7002 16.5002 22.7002 14.1002 21.2002 12.6002L17.0002 8.3002C16.3002 7.6002 15.3002 7.2002 14.3002 7.2002C13.3002 7.2002 12.3002 7.6002 11.6002 8.3002C10.1002 9.7002 10.0002 11.9002 11.3002 13.5002C11.5002 13.7002 11.5002 14.0002 11.2002 14.2002C11.1002 14.3002 11.0002 14.3002 10.9002 14.3002C10.7002 14.3002 10.6002 14.2002 10.5002 14.1002C8.80024 12.2002 9.00024 9.4002 10.8002 7.6002C11.7002 6.7002 12.9002 6.2002 14.2002 6.2002C15.5002 6.2002 16.7002 6.7002 17.6002 7.6002L21.8002 11.8002C23.7002 13.7002 23.7002 16.8002 21.8002 18.7002C21.0002 19.6002 19.8002 20.1002 18.5002 20.1002Z" fill="#0364E6"/>
</g>
<defs>
<clipPath id="clip0">
<rect width="22.3" height="16.1" fill="white" transform="translate(1 4)"/>
</clipPath>
</defs>
</svg>
