<svg width="24" height="24" viewBox="0 0 24 24" fill="none" xmlns="http://www.w3.org/2000/svg">
<path d="M18 8H16C15.45 8 15 8.45 15 9C15 9.55 15.45 10 16 10H18V21H6V10H8C8.55 10 9 9.55 9 9C9 8.45 8.55 8 8 8H6C4.9 8 4 8.9 4 10V21C4 22.1 4.9 23 6 23H18C19.1 23 20 22.1 20 21V10C20 8.9 19.1 8 18 8Z" fill="#8C8C8C"/>
<path d="M12.0002 16C12.5502 16 13.0002 15.55 13.0002 15V4.99996H14.7902C15.2402 4.99996 15.4602 4.45996 15.1402 4.14996L12.3502 1.35996C12.1502 1.15996 11.8402 1.15996 11.6402 1.35996L8.85018 4.14996C8.54018 4.45996 8.76018 4.99996 9.21018 4.99996H11.0002V15C11.0002 15.55 11.4502 16 12.0002 16Z" fill="#8C8C8C"/>
</svg>
