<svg width="22" height="15" viewBox="0 0 22 15" fill="none" xmlns="http://www.w3.org/2000/svg">
<path d="M21.6291 8.19503C20.848 7.43811 19.8956 6.90344 18.8715 6.64817C18.8453 6.6342 18.8165 6.62573 18.7868 6.62573H18.6933C18.6645 6.62573 18.6353 6.63378 18.609 6.64775C18.3 6.81327 17.8767 6.90894 17.4457 6.90894C17.0156 6.90894 16.5906 6.81285 16.2816 6.64775C16.2553 6.63378 16.2261 6.62573 16.1973 6.62573H16.13C16.1165 6.62573 16.1025 6.62785 16.0889 6.63039C15.633 6.73876 15.1927 6.90513 14.7732 7.11807C14.5569 7.86991 14.142 8.58745 13.5815 9.13821H21.5055C21.6033 9.13821 21.6837 9.05862 21.6837 8.95956V8.32372C21.6833 8.27588 21.6642 8.22974 21.6291 8.19503Z" fill="#B2B1B6"/>
<path d="M15.4438 3.8059C15.4438 3.99683 15.5903 4.15304 15.7702 4.15304C15.7728 4.15304 15.7745 4.15304 15.7766 4.15304C15.8439 5.06828 16.5653 5.98353 17.4454 5.98353C18.3259 5.98353 19.0464 5.06828 19.1146 4.15304C19.1163 4.15304 19.118 4.15304 19.1196 4.15304C19.3008 4.15304 19.4477 3.99683 19.4477 3.8059C19.4477 3.66451 19.3677 3.54301 19.2538 3.4884C19.3195 3.28394 19.3559 3.06338 19.3559 2.83351C19.3559 1.71464 18.5007 0.807861 17.4449 0.807861C16.3896 0.807861 15.534 1.71506 15.534 2.83351C15.534 3.06338 15.5704 3.28351 15.6365 3.4884C15.5226 3.54301 15.4438 3.66451 15.4438 3.8059Z" fill="#B2B1B6"/>
<path d="M7.69205 7.05965C7.32798 6.88354 6.94825 6.74511 6.55836 6.64817C6.53212 6.6342 6.50291 6.62573 6.4737 6.62573H6.38056C6.35178 6.62573 6.32257 6.63378 6.29674 6.64775C5.98687 6.81327 5.56353 6.90894 5.133 6.90894C4.70247 6.90894 4.27745 6.81285 3.96842 6.64775C3.94217 6.63378 3.91338 6.62573 3.88417 6.62573H3.81686C3.80331 6.62573 3.78934 6.62785 3.7758 6.63039C2.72424 6.88015 1.74761 7.4216 0.948359 8.19503C0.914493 8.22974 0.89502 8.27588 0.89502 8.32414V8.95999C0.89502 9.05905 0.974606 9.13863 1.07367 9.13863H8.89897C8.32409 8.57348 7.90329 7.83138 7.69205 7.05965Z" fill="#B2B1B6"/>
<path d="M3.13086 3.8059C3.13086 3.99683 3.27733 4.15304 3.45725 4.15304C3.45979 4.15304 3.46148 4.15304 3.46402 4.15304C3.53133 5.06828 4.25184 5.98353 5.1328 5.98353C6.01291 5.98353 6.73384 5.06828 6.80158 4.15304C6.80327 4.15304 6.80496 4.15304 6.80666 4.15304C6.98826 4.15304 7.13431 3.99683 7.13431 3.8059C7.13431 3.66451 7.05473 3.54301 6.94128 3.4884C7.00647 3.28394 7.04287 3.06338 7.04287 2.83351C7.04287 1.71464 6.18732 0.807861 5.13238 0.807861C4.07701 0.807861 3.22103 1.71506 3.22103 2.83351C3.22103 3.06338 3.25744 3.28351 3.32348 3.4884C3.21002 3.54301 3.13086 3.66451 3.13086 3.8059Z" fill="#B2B1B6"/>
<path d="M7.82178 5.59781C7.82178 5.9259 8.07154 6.19133 8.38015 6.19133C8.38396 6.19133 8.38735 6.19048 8.38989 6.19048C8.43349 6.77764 8.63373 7.36311 8.94699 7.86815C9.07103 8.06753 9.21412 8.25084 9.3699 8.41975C9.87113 8.9595 10.5243 9.31764 11.2402 9.31764C12.0051 9.31764 12.6986 8.91081 13.2112 8.30799C13.2735 8.23433 13.3336 8.15813 13.3907 8.07897C13.7848 7.5316 14.0405 6.86188 14.0909 6.19048C14.0934 6.19048 14.0973 6.19133 14.1006 6.19133C14.4093 6.19133 14.659 5.9259 14.659 5.59781C14.659 5.35736 14.5231 5.1495 14.328 5.05722C14.441 4.70627 14.5028 4.3312 14.5028 3.93919C14.5028 2.02742 13.0423 0.478027 11.2398 0.478027C9.43721 0.478027 7.97672 2.02742 7.97672 3.93919C7.97672 4.3312 8.03895 4.70627 8.15155 5.05722C7.95724 5.1495 7.82178 5.35694 7.82178 5.59781Z" fill="#B2B1B6"/>
<path d="M13.6754 10.2908C13.6313 10.2658 13.5814 10.2544 13.5306 10.2544H13.3718C13.3219 10.2544 13.2719 10.2658 13.2283 10.29C12.6996 10.5736 11.9753 10.7357 11.2404 10.7357C10.5054 10.7357 9.78113 10.5727 9.25281 10.29C9.20836 10.2658 9.1584 10.2544 9.10887 10.2544H8.9933C8.97002 10.2544 8.94631 10.2561 8.92345 10.262C7.1281 10.687 5.4589 11.6116 4.09704 12.9341C4.03735 12.9912 4.00391 13.0696 4.00391 13.1517V14.2388C4.00391 14.4064 4.1398 14.5423 4.30871 14.5423H18.1737C18.3413 14.5423 18.4772 14.4069 18.4772 14.2388V13.1517C18.4772 13.07 18.4442 12.9912 18.3849 12.9341C17.0519 11.6395 15.425 10.7273 13.6754 10.2908Z" fill="#B2B1B6"/>
</svg>
