<svg width="52" height="52" viewBox="0 0 52 52" fill="none" xmlns="http://www.w3.org/2000/svg">
<path d="M34.6668 34.6667L26.0002 26L17.3335 34.6667" stroke="#CED4DA" stroke-linecap="round" stroke-linejoin="round"/>
<path d="M26 26V45.5" stroke="#CED4DA" stroke-linecap="round" stroke-linejoin="round"/>
<path d="M44.179 39.8455C46.2922 38.6935 47.9616 36.8704 48.9237 34.6642C49.8858 32.458 50.0858 29.9942 49.4921 27.6617C48.8984 25.3292 47.5449 23.2608 45.6451 21.783C43.7453 20.3052 41.4075 19.5021 39.0006 19.5005H36.2706C35.6148 16.9639 34.3925 14.6089 32.6955 12.6127C30.9986 10.6164 28.8711 9.03088 26.4732 7.97518C24.0752 6.91949 21.4692 6.42115 18.8509 6.51761C16.2326 6.61408 13.6703 7.30285 11.3565 8.53214C9.04277 9.76143 7.03779 11.4993 5.49233 13.615C3.94687 15.7307 2.90114 18.1692 2.43377 20.7472C1.9664 23.3252 2.08954 25.9757 2.79394 28.4993C3.49834 31.0228 4.76567 33.3539 6.50065 35.3172" stroke="#CED4DA" stroke-linecap="round" stroke-linejoin="round"/>
<path d="M34.6668 34.6667L26.0002 26L17.3335 34.6667" stroke="#CED4DA" stroke-linecap="round" stroke-linejoin="round"/>
</svg>
