<svg width="36" height="36" viewBox="0 0 36 36" fill="none" xmlns="http://www.w3.org/2000/svg">
<path d="M18 5C9.705 5 3 11.705 3 20C3 28.295 9.705 35 18 35C26.295 35 33 28.295 33 20C33 11.705 26.295 5 18 5ZM25.5 25.385L23.385 27.5L18 22.115L12.615 27.5L10.5 25.385L15.885 20L10.5 14.615L12.615 12.5L18 17.885L23.385 12.5L25.5 14.615L20.115 20L25.5 25.385Z" fill="#E5E5E5"/>
<path d="M18 35C26.2843 35 33 28.2843 33 20C33 11.7157 26.2843 5 18 5C9.71573 5 3 11.7157 3 20C3 28.2843 9.71573 35 18 35Z" fill="#E2B93B"/>
<path d="M16.125 11.5625C16.125 11.0469 16.5469 10.625 17.0625 10.625H18.9375C19.4531 10.625 19.875 11.0469 19.875 11.5625V22.3438C19.875 22.8594 19.4531 23.2812 18.9375 23.2812H17.0625C16.5469 23.2812 16.125 22.8594 16.125 22.3438V11.5625Z" fill="#E5E5E5"/>
<path d="M18 29.375C19.0355 29.375 19.875 28.5355 19.875 27.5C19.875 26.4645 19.0355 25.625 18 25.625C16.9645 25.625 16.125 26.4645 16.125 27.5C16.125 28.5355 16.9645 29.375 18 29.375Z" fill="#E5E5E5"/>
</svg>
