<?xml version="1.0" standalone="no"?>
<!DOCTYPE svg PUBLIC "-//W3C//DTD SVG 1.1//EN" "http://www.w3.org/Graphics/SVG/1.1/DTD/svg11.dtd" >
<svg xmlns="http://www.w3.org/2000/svg">
<metadata>Generated by IcoMoon</metadata>
<defs>
<font id="icomoon" horiz-adv-x="1024">
<font-face units-per-em="1024" ascent="960" descent="-64" />
<missing-glyph horiz-adv-x="1024" />
<glyph unicode="&#x20;" horiz-adv-x="512" d="" />
<glyph unicode="&#xe900;" glyph-name="activitie" d="M973.843 585.229c-22.809 21.562-53.137 33.438-85.401 33.438-32.114 0-62.332-11.777-85.099-33.177-47.046-44.291-47.137-116.489-0.191-160.953 22.78-21.554 53.081-33.424 85.322-33.426 0.003 0 0.005 0 0.005 0 32.131 0 62.371 11.809 85.151 33.258 46.992 44.249 47.1 116.4 0.214 160.86zM554.021 959.182l-7.512-352.487c-19.201 2.191-38.569 3.296-57.859 3.296-35.626 0-70.067-3.846-102.351-11.431-49.324-11.561-92.798-30.008-129.227-54.826-29.070-19.806-44.916-37.91-50.38-44.774l-14.443-18.14 2.316-1.656c-2.382-4.825-4.367-9.816-5.941-14.95l-173.564-481.693 116.116-42.21 152.055 355.479 148.556-359.791 116.016 37.452-141.479 410.475c8.438 3.532 19.055 7.159 32.044 10.194 15.229 3.568 32.031 5.377 49.946 5.377 30.906 0 55.296-5.353 60.265-6.525l12.063-331.765 108.451 0.82 8.543 445.852 0.013 0.622-17.275 451.498-106.351-0.818z" />
<glyph unicode="&#xe901;" glyph-name="arrow" d="M975.238 448.082c-0.481 11.331-5.53 24.429-13.94 32.687l-274.511 269.423c-18.602 15.44-54.271 21.814-75.062 3.962-20.479-17.584-19.87-51.684 0.532-69.338l193.016-189.19h-705.040c-28.426 0-51.471-21.286-51.471-47.544s23.045-47.544 51.471-47.544h705.040l-193.016-189.19c-17.564-16.252-20.81-51.552-0.532-69.336 20.273-17.783 57.224-12.101 75.062 3.963l274.511 269.42c9.393 9.22 13.971 20.038 13.94 32.687z" />
<glyph unicode="&#xe902;" glyph-name="call-office" d="M513.124 673.405c15.735-4.496 50.576-11.239 89.912-11.239 5.62-4.496 11.239-7.867 17.982-11.239s13.487-5.62 21.354-5.62c7.867 0 14.611 2.248 21.354 5.62s12.363 7.867 17.982 11.239c39.337 0 74.178 6.743 89.912 11.239 5.62 1.124 10.115 6.743 10.115 12.363v85.417c0 61.815-17.982 98.903-40.46 120.258v11.239c0 5.62-3.372 11.239-8.991 13.487l-83.169 41.584c-4.496 2.248-8.991 2.248-13.487 0l-83.169-41.584c-5.62-2.248-8.991-7.867-8.991-13.487v-11.239c-22.478-22.478-40.46-59.567-40.46-120.258v-85.417c0-5.62 4.496-11.239 10.115-12.363zM560.328 901.557l80.921 40.46 80.921-40.46v-53.947c-13.487 4.496-33.717 10.115-56.195 12.363-7.867 1.124-15.735 1.124-23.602 1.124s-15.735 0-24.726-1.124c-22.478-2.248-43.832-7.867-56.195-12.363v53.947h-1.124zM617.647 827.38l24.726 15.735 23.602-15.735 71.93-46.080c-4.496-17.982-22.478-77.549-71.93-111.266-1.124 0-1.124-1.124-2.248-1.124-2.248-2.248-5.62-3.372-7.867-4.496 0 0-1.124 0-1.124 0-7.867-4.496-17.982-4.496-25.85 0 0 0-1.124 0-1.124 0-2.248 1.124-5.62 3.372-7.867 4.496-1.124 0-1.124 1.124-2.248 1.124-48.328 33.717-66.31 94.408-70.806 111.266l70.806 46.080zM634.505 889.194v-16.859c0-1.124 1.124-1.124 1.124-1.124h11.239c1.124 0 1.124 1.124 1.124 1.124v16.859c0 1.124 1.124 1.124 1.124 1.124h16.859c1.124 0 1.124 1.124 1.124 1.124v11.239c0 1.124-1.124 1.124-1.124 1.124h-16.859c-1.124 0-1.124 1.124-1.124 1.124v19.106c0 1.124-1.124 1.124-1.124 1.124h-11.239c-1.124 0-1.124-1.124-1.124-1.124v-16.859c0-1.124-1.124-1.124-1.124-1.124h-16.859c-1.124 0-1.124-1.124-1.124-1.124v-11.239c0-1.124 1.124-1.124 1.124-1.124h16.859c0-1.124 1.124-2.248 1.124-3.372zM431.079 456.492h420.34c4.496 0 7.867 3.372 7.867 7.867v42.708c0 30.345-19.106 57.319-47.204 68.558l-113.514 41.584c-3.372 1.124-6.743 0-7.867-3.372l-50.576-144.983c-1.124-2.248-3.372-2.248-4.496 0l-46.080 143.86c-1.124 3.372-4.496 4.496-7.867 3.372l-112.39-41.584c-28.098-10.115-47.204-38.213-47.204-68.558v-42.708c1.124-3.372 4.496-6.743 8.991-6.743zM78.174 303.641h55.071c5.62 0 8.991-4.496 8.991-8.991v-323.684c0-12.363 10.115-22.478 22.478-22.478h693.448c12.363 0 22.478 10.115 22.478 22.478v323.684c0 5.62 4.496 8.991 8.991 8.991h55.071c8.991 0 16.859 7.867 16.859 16.859v93.284c0 8.991-7.867 16.859-16.859 16.859h-866.529c-8.991 0-16.859-7.867-16.859-16.859v-93.284c1.124-8.991 7.867-16.859 16.859-16.859zM425.46 182.26c0 3.372 2.248 5.62 5.62 5.62h52.823c3.372 0 5.62 2.248 5.62 5.62v52.823c0 3.372 2.248 5.62 5.62 5.62h37.089c3.372 0 5.62-2.248 5.62-5.62v-52.823c0-3.372 2.248-5.62 5.62-5.62h52.823c3.372 0 5.62-2.248 5.62-5.62v-37.089c0-3.372-2.248-5.62-5.62-5.62h-52.823c-3.372 0-5.62-2.248-5.62-5.62v-52.823c0-3.372-2.248-5.62-5.62-5.62h-37.089c-3.372 0-5.62 2.248-5.62 5.62v52.823c0 3.372-2.248 5.62-5.62 5.62h-52.823c-3.372 0-5.62 2.248-5.62 5.62v37.089z" />
<glyph unicode="&#xe903;" glyph-name="call" d="M787.524-64c-32.725 0-101.221 5.441-192.275 41.881-111.118 44.469-220.801 120.47-325.996 225.888-209.799 210.249-286.849 366.82-265.948 540.422 2.56 22.713 8.149 45.304 17.064 68.856 0.038 0.097 0.074 0.194 0.113 0.291 8.584 21.939 19.638 42.309 32.918 60.683 1.34 4.258 3.684 8.18 6.886 11.405l42.121 42.452c20.685 20.734 47.933 32.123 76.785 32.123 27.73 0 53.632-10.651 72.937-29.993l149.454-149.803c40.683-40.827 39.777-108.11-2.011-149.998l-60.329-60.441c25.407-45.812 60.309-107.402 124.299-171.521 64.058-64.241 125.493-99.115 171.163-124.498l60.275 60.392c20.601 20.653 47.839 32.030 76.688 32.030 27.71 0 53.614-10.626 72.946-29.923l149.483-149.826c40.64-40.854 39.739-108.149-1.975-150.036-0.074-0.077-0.151-0.151-0.23-0.228l-42.664-41.874c-2.93-2.875-6.336-4.985-9.966-6.321-18.613-13.639-39.23-24.931-61.405-33.615-22.799-8.873-45.404-14.562-69.163-17.412-0.128-0.016-0.254-0.029-0.383-0.043-2.547-0.264-9.667-0.891-20.786-0.891z" />
<glyph unicode="&#xe904;" glyph-name="checked" d="M512 960c-282.764 0-512-229.236-512-512s229.236-512 512-512c282.764 0 512 229.236 512 512s-229.236 512-512 512zM799.302 608.582c-56.436-56.553-94.487-89.484-200.495-217.367-61.207-73.775-119.040-153.018-119.505-153.6l-25.367-31.651c-5.353-7.098-15.709-7.913-22.225-1.862l-203.753 189.324c-20.713 19.2-21.876 51.665-2.676 72.378s51.665 21.876 72.378 2.676l122.065-113.455c6.4-5.935 16.407-5.236 21.993 1.513 18.851 23.389 44.684 51.782 72.611 79.825 104.96 105.775 169.425 162.56 203.869 187.695 41.891 30.487 89.949 56.553 101.585 42.124 18.036-22.575 6.982-30.022-20.48-57.6z" />
<glyph unicode="&#xe905;" glyph-name="close-liner" d="M113.757 918.65l868.893-868.893-72.408-72.408-868.893 868.893 72.408 72.408zM982.65 846.243l-868.893-868.893-72.408 72.408 868.893 868.893 72.408-72.408z" />
<glyph unicode="&#xe906;" glyph-name="close" d="M512 960c-283.307 0-512-228.693-512-512s228.693-512 512-512c283.307 0 512 228.693 512 512s-228.693 512-512 512zM659.911 231.822c-48.925 48.924-98.987 98.987-147.911 147.911-48.925-48.924-98.987-98.987-147.911-147.911-44.373-44.373-111.502 23.893-68.267 68.267 48.925 48.924 98.987 98.987 147.911 147.911-48.925 48.924-98.987 98.987-147.911 147.911-44.373 44.373 23.893 111.502 68.267 68.267 48.925-48.924 98.987-98.987 147.911-147.911 48.925 48.924 98.987 98.987 147.911 147.911 44.373 44.373 111.502-23.893 68.267-68.267-48.925-48.924-98.987-98.987-147.911-147.911 48.925-48.924 98.987-98.987 147.911-147.911 43.235-43.236-25.031-111.502-68.267-68.267z" />
<glyph unicode="&#xe907;" glyph-name="directions" d="M997.796 960c-8.592 0-19.142-2.48-31.318-7.707l-931.135-399.037c-48.186-20.658-46.938-50.808 2.748-67.375l353.852-117.945c16.567-5.528 34.477-23.437 39.989-40.005l117.961-353.852c8.434-25.285 20.421-38.031 32.898-38.031 11.956 0 24.354 11.719 34.446 35.283l399.069 931.135c15.414 35.993 6.87 57.536-18.51 57.536z" />
<glyph unicode="&#xe908;" glyph-name="discharge" d="M299.57 901.054c-36.278-1.495-69.189-14.2-92.377-37.368-25.058-25.036-38.148-60.162-38.148-98.651v-601.62h-169.046c0-73.988 5.61-107.245 35.53-138.26 23.562-23.168 54.229-30.642 80.409-30.642h675.81c31.416 0 59.465 14.947 80.409 35.499 20.944 20.926 35.53 48.952 35.53 80.341v559.021c74.051 0 116.313 63.151 116.313 116.213 0 66.888-49.367 112.477-100.605 115.466-212.43 0.747-432.713 0.374-623.825 0zM301.44 838.277c36.278 0 46.749-21.3 46.749-52.688 0-37.368-29.92-53.062-42.262-53.062-16.082 0-31.042-14.947-31.042-31.389s14.96-31.389 31.042-31.763h538.554v-559.021c0-10.463-6.358-24.663-17.204-35.499s-25.058-17.189-35.53-17.189h-572.213c13.838 35.873 12.716 67.635 12.716 105.751v601.62c0 24.289 7.854 41.478 19.822 53.809 16.83 11.958 33.286 18.31 49.367 19.431zM337.718 563.998v-63.151h401.297v63.151h-401.297zM337.718 395.096v-63.151h401.297v63.151h-401.297zM337.718 226.568v-63.151h401.297v63.151h-401.297z" />
<glyph unicode="&#xe909;" glyph-name="dnd" d="M512 960c-282.761 0-512-229.239-512-512s229.239-512 512-512c282.761 0 512 229.239 512 512s-229.239 512-512 512zM512 820.361c77.585 0 149.606-23.757 209.237-64.375l-517.222-517.222c-40.619 59.631-64.375 131.652-64.375 209.237 0 205.619 166.741 372.361 372.361 372.361zM512 75.639c-77.585 0-149.606 23.757-209.237 64.375l517.222 517.222c40.619-59.631 64.375-131.618 64.375-209.237 0-205.619-166.741-372.361-372.361-372.361z" />
<glyph unicode="&#xe90a;" glyph-name="doctor" d="M255.672 639.887c59.914 37.519 146.852 57.19 255.611 57.19 109.005 0 203.848-26.644 258.744-58.204l-1.71 227.267c-0.010 1.812-0.236 3.574-0.604 5.263-7.752 69.745-163.133 88.596-255.928 88.596-95.201 0-256.328-19.814-256.328-94.075 0-0.727 0.154-1.423 0.215-2.13v-223.908zM451.246 830.853h35.154v35.154c0 14.141 11.459 25.6 25.6 25.6s25.6-11.459 25.6-25.6v-35.164h35.164c14.141 0 25.6-11.459 25.6-25.6s-11.459-25.6-25.6-25.6h-35.164v-35.154c0-14.141-11.459-25.6-25.6-25.6s-25.6 11.459-25.6 25.6v35.154h-35.164c-14.141 0-25.6 11.459-25.6 25.6s11.469 25.61 25.61 25.61zM766.495 579c-29.757 27.935-127.949 66.877-255.212 66.877-121.375 0-213.76-26.563-260.403-74.783-5.663-6.738-11.090-15.452-13.322-27.003-3.174-16.394-4.68-35.932 14.234-78.193 13.629-30.464 30.505-45.588 40.591-54.62 2.14-1.925 5.079-4.536 5.632-5.222 3.144-5.356 9.605-30.259 13.005-58.604 4.27-35.86 28.559-67.963 45.844-86.712 1.464-1.024 2.847-2.202 4.116-3.564 40.52-43.776 112.712-63.468 151.020-63.468 29.43 0 92.969 11.919 145.162 56.381-0.041 0.174-0.102 0.379-0.143 0.553 16.312 16.527 49.705 56.105 55.849 95.969 6.728 43.827 11.459 56.095 12.82 58.911 1.024 0.911 3.164 2.54 4.782 3.779 10.455 7.977 27.976 21.34 41.892 52.449 19.333 43.192 17.592 67.451 13.906 83.753-3.389 15.032-12.134 25.866-19.773 33.495zM989.553 101.468c-42.056 35.553-109.394 59.29-211.456 88.3l-27.402 7.762c-22.098 6.226-41.912 11.817-57.17 16.691-0.737-0.819-1.423-1.659-2.273-2.396-59.546-51.159-133.775-69.325-179.241-69.325-43.715 0-125.317 19.21-179.907 71.199-13.783-4.219-31.242-8.96-49.961-14.039-10.813-2.929-22.794-6.185-36.035-9.841-95.468-26.327-167.997-51.436-211.671-88.371-40.018-33.874-35.553-76.104-32.594-104.049 0.645-6.144 1.26-11.94 1.26-16.425 0-0.379 0.010-0.758 0.020-1.137 1.434-32.317 18.207-43.837 33.434-43.837h950.876c15.247 0 32.041 11.53 33.464 43.868 0.010 0.369 0.020 0.748 0.020 1.116 0 4.485 0.614 10.281 1.26 16.404 2.949 27.965 7.404 70.216-32.625 104.079z" />
<glyph unicode="&#xe90b;" glyph-name="Dont-Be-Alarmed" d="M592.941 528.203c45.176-6 92.612-10.8 126.494-43.2s51.953-222 65.506-219.6c13.553 2.4 88.094 146.4 103.906 156 19.2 10.8 131.012 16.8 131.012 6s-1.129-25.2-10.165-28.8c-15.812-4.8-71.153-14.4-82.447-22.8-23.718-16.8-114.071-200.4-141.176-208.8-16.941-6-38.4-2.4-50.824 16.8-12.424 20.4-58.729 207.6-58.729 207.6v-319.2h-332.047v318c0 0-46.306-187.2-58.729-207.6s-33.882-22.8-50.824-16.8c-27.106 9.6-117.459 193.2-141.176 211.2-11.294 8.4-67.765 18-82.447 22.8-9.035 2.4-11.294 16.8-11.294 27.6s111.812 6 131.012-6c15.812-9.6 90.353-153.6 103.906-156s31.624 187.2 65.506 219.6c33.882 32.4 81.318 37.2 126.494 43.2 0 0 24.847-37.2 84.706-37.2 58.729 0 81.318 37.2 81.318 37.2zM581.647 806.603c49.694-49.2 35.012-145.2 28.235-176.4-10.165-46.8-46.306-117.6-99.388-117.6s-89.224 72-98.259 117.6c-5.647 26.4-24.847 122.4 24.847 174 38.4 40.8 114.071 32.4 144.565 2.4z" />
<glyph unicode="&#xe90c;" glyph-name="email" d="M74.927 846.222c-9.815 0-19.132-2.529-27.707-6.701l434.732-453.744c19.027-19.879 40.245-19.893 59.317 0l435.122 454.223c-8.451 4.033-17.675 6.221-27.317 6.221h-874.146zM0.78 767.727c-0.508-4.338-0.78-8.886-0.78-13.402v-612.65c0-50.91 33.418-91.897 74.927-91.897h874.146c41.509 0 74.927 40.988 74.927 91.897v612.65c0 4.515-0.272 9.064-0.78 13.402l-433.171-451.829c-44.904-46.834-111.977-46.909-156.878 0l-432.39 451.829z" />
<glyph unicode="&#xe90d;" glyph-name="emergency" d="M639.967-64h-256c-17.673 0-32 14.327-32 32v202.88l-176-101.44c-15.289-8.82-34.833-3.594-43.68 11.68l-128 221.76c-8.82 15.289-3.594 34.833 11.68 43.68l176 101.44-176 101.44c-15.274 8.847-20.5 28.391-11.68 43.68l128 221.76c8.847 15.274 28.391 20.5 43.68 11.68l176-101.44v202.88c0 17.673 14.327 32 32 32h256c17.673 0 32-14.327 32-32v-202.88l176 101.44c15.289 8.82 34.833 3.594 43.68-11.68l128-221.76c8.82-15.289 3.594-34.833-11.68-43.68l-176-101.44 176-101.44c15.274-8.847 20.5-28.391 11.68-43.68l-128-221.76c-8.847-15.274-28.391-20.5-43.68-11.68l-176 101.44v-202.88c0-17.673-14.327-32-32-32z" />
<glyph unicode="&#xe90e;" glyph-name="exit" d="M595.403 878.243c0.222 19.93 20.27 38.215 42.193 37.801h305.418c21.782-0.002 41.598-18.013 41.601-37.809v-857.001c-0.003-19.796-19.819-37.807-41.601-37.809h-305.418c-21.978-0.277-42.193 17.832-42.193 37.809s20.215 38.092 42.193 37.809h263.817v781.383h-263.817c-22.213-0.42-42.426 17.624-42.193 37.816zM39.385 449.802c0.389 9.011 4.48 19.428 11.294 25.995l222.407 214.264c15.071 12.279 43.97 17.348 60.814 3.151 16.592-13.984 16.098-41.102-0.431-55.142l-156.38-150.457h571.218c23.030 0 41.701-16.928 41.701-37.81s-18.671-37.81-41.701-37.81h-571.218l156.38-150.457c14.23-12.924 16.86-40.998 0.431-55.141-16.425-14.142-46.362-9.624-60.814 3.152l-222.407 214.261c-7.61 7.332-11.319 15.935-11.294 25.995z" />
<glyph unicode="&#xe90f;" glyph-name="home" d="M925.235 464.392l-415.595 363.679-415.595-363.679c-23.613-20.623-59.424-18.279-79.98 5.334-20.623 23.477-18.279 59.288 5.334 79.912l452.901 396.364c21.337 18.687 53.206 18.585 74.645 0l452.969-396.364c23.579-20.623 25.958-56.434 5.368-79.912-11.212-12.843-27.011-19.366-42.742-19.366-13.251 0-26.569 4.621-37.306 14.032zM509.675 774.661l-370.679-324.301v-416.988c0-46.785 43.897-92.653 92.687-92.653h162.168v231.649c0 25.618 20.725 46.343 46.309 46.343h138.996c25.584 0 46.309-20.725 46.309-46.343v-231.649h150.038c48.756 0 104.782 45.868 104.782 92.653v416.988l-370.611 324.301z" />
<glyph unicode="&#xe910;" glyph-name="hospital" d="M488.83 467.594h46.341v95.329h92.681v47.665h-92.681v95.329h-46.341v-95.329h-92.681v-47.665h92.681zM1003.211 694.001h-224.752v238.323h-532.918v-238.323h-224.752v-738.803h982.422v738.803zM732.118 884.66v-881.797h-75.304v274.072h-289.629v-274.072h-75.304v881.797h440.236zM610.474 2.863h-196.948v226.407h196.948v-226.407zM67.13 646.336h178.412v-643.473h-178.412v643.473zM956.87 2.863h-178.412v643.473h178.412v-643.473z" />
<glyph unicode="&#xe911;" glyph-name="info" d="M512-64c283.66 0 512 229.517 512 512 0 283.66-228.34 512-512 512s-512-228.34-512-512c0-283.66 228.34-512 512-512zM575.559 801.103c54.143 0 97.692-43.549 97.692-97.692s-43.549-97.692-97.692-97.692c-54.143 0-97.692 43.549-97.692 97.692 1.177 54.143 44.726 97.692 97.692 97.692zM429.609 473.894c-14.124 14.124-32.956 11.77-52.966-1.177-9.416-5.885-23.54-4.708-30.602 4.708s-4.708 23.54 4.708 30.602c21.186 16.478 74.152 49.434 150.657 42.372 56.497-5.885 103.577-45.903 103.577-103.577 0-17.655-3.531-34.133-10.593-51.789l-85.922-170.667c-9.416-16.478-14.124-37.664 0-51.789s32.956-11.77 52.966 1.177c9.416 5.885 23.54 4.708 30.602-4.708s4.708-23.54-4.708-30.602c-21.186-16.478-74.152-49.434-150.657-42.372-56.497 5.885-103.577 45.903-103.577 103.577 0 17.655 3.531 34.133 10.593 51.788l85.922 170.667c8.239 16.478 14.124 37.664 0 51.789z" />
<glyph unicode="&#xe912;" glyph-name="medicine" d="M426.742 418.848l183.153 379.761c0.512 1.004 1.352 1.679 1.966 2.56l-219.546 105.902c-32.481 15.647-68.403 23.921-103.916 23.921-85.197 0-159.826-44.995-194.765-117.412-24.883-51.548-26.644-110.469-5.018-165.929 21.443-54.968 63.263-99.697 117.78-125.993l219.566-105.902c0.307 1.065 0.307 2.109 0.778 3.092zM870.83 676.261l-219.689 105.964c-0.328-1.044-0.287-2.13-0.799-3.133l-183.153-379.761c-0.471-0.963-1.167-1.72-1.761-2.601l219.484-105.882c32.44-15.647 68.362-23.921 103.875-23.921 85.156 0 159.805 44.995 194.765 117.391 51.22 106.23 0.676 237.199-112.722 291.942zM431.186 92.929c16.486 30.679 25.866 65.679 25.866 102.871 0 120.361-97.956 218.276-218.358 218.276-68.526 0-129.72-31.846-169.759-81.408l362.25-239.739zM46.264 298.61c-16.445-30.679-25.846-65.638-25.846-102.81 0-120.381 97.915-218.317 218.276-218.317 68.547 0 129.72 31.805 169.8 81.347l-362.23 239.78z" />
<glyph unicode="&#xe913;" d="M721.836 582.295c0-115.889-93.947-209.836-209.836-209.836s-209.836 93.947-209.836 209.836c0 115.889 93.947 209.836 209.836 209.836s209.836-93.947 209.836-209.836z" />
<glyph unicode="&#xe914;" d="M738.623 582.295c0-125.16-101.463-226.623-226.623-226.623s-226.623 101.463-226.623 226.623c0 125.16 101.463 226.623 226.623 226.623s226.623-101.463 226.623-226.623z" />
<glyph unicode="&#xe915;" d="M411.279 599.082h201.443v-33.574h-201.443v33.574z" />
<glyph unicode="&#xe916;" glyph-name="nutrition" d="M633.945 960c-39.933-10.079-81.994-33.792-106.3-61.505-24.312-27.719-41.81-64.24-49.773-109.855-233.285 106.689-460.366-70.766-449.020-333.832 11.348-263.111 205.432-632.436 473.195-481.372 271.096-155.273 444.362 207.992 477.106 439.421 32.744 231.433-151.782 495.454-440.487 371.872 6.814 32.283 17.462 53.907 35.196 74.303s47.621 36.685 83.191 50.484c-1.9 24.127-10.67 41.156-23.109 50.484zM411.39 550.798c40.641 0 75.827-30.863 90.657-66.126 14.831 35.263 49.66 66.126 90.302 66.126 50.705 0 99.48-41.953 99.901-95.99 0.903-116.051-124.317-128.168-190.202-262.728-65.886 134.56-191.461 146.677-190.558 262.728 0.42 54.037 49.196 95.99 99.901 95.99z" />
<glyph unicode="&#xe917;" glyph-name="play" d="M512 960c-283.307 0-512-228.693-512-512s228.693-512 512-512c283.307 0 512 228.693 512 512s-228.693 512-512 512zM780.516 418.418l-390.258-225.28c-22.756-13.653-51.2 3.413-51.2 29.582v450.56c0 26.169 28.444 43.236 51.2 29.582l390.258-225.28c22.756-13.653 22.756-45.511 0-59.164z" />
<glyph unicode="&#xe918;" d="M721.836 582.295c0-115.889-93.947-209.836-209.836-209.836s-209.836 93.947-209.836 209.836c0 115.889 93.947 209.836 209.836 209.836s209.836-93.947 209.836-209.836z" />
<glyph unicode="&#xe919;" d="M738.623 582.295c0-125.16-101.463-226.623-226.623-226.623s-226.623 101.463-226.623 226.623c0 125.16 101.463 226.623 226.623 226.623s226.623-101.463 226.623-226.623z" />
<glyph unicode="&#xe91a;" d="M411.279 599.082h201.443v-33.574h-201.443v33.574z" />
<glyph unicode="&#xe91b;" d="M528.787 683.016v-201.443h-33.574v201.443z" />
<glyph unicode="&#xe91c;" glyph-name="plus-circle" d="M483.556 704h56.889v-512h-56.889v512zM768 476.444v-56.889h-512v56.889h512z" />
<glyph unicode="&#xe91d;" glyph-name="plus" d="M512 960c-282.624 0-512-229.376-512-512s229.376-512 512-512c282.624 0 512 229.376 512 512s-229.376 512-512 512zM819.2 345.6h-204.8v-204.8h-204.8v204.8h-204.8v204.8h204.8v204.8h204.8v-204.8h204.8v-204.8z" />
<glyph unicode="&#xe91e;" glyph-name="right-chevron" d="M219.429 813.714l109.714 109.714 475.429-475.429-475.429-475.429-109.714 109.714 365.714 365.714z" />
<glyph unicode="&#xe91f;" glyph-name="stethoscope" d="M1024 823.467c0 75.093-61.44 136.533-136.533 136.533s-136.533-61.44-136.533-136.533c0-64.853 44.373-116.053 102.4-133.12v-447.147c0-133.12-105.813-238.933-238.933-238.933s-238.933 105.813-238.933 238.933v37.547c170.667 17.067 307.2 163.84 307.2 337.92v307.2c0 20.48-13.653 34.133-34.133 34.133h-129.707c-20.48 0-34.133-13.653-34.133-34.133s13.653-34.133 34.133-34.133h95.573v-273.067c0-150.187-122.88-273.067-273.067-273.067s-273.067 122.88-273.067 273.067v273.067h95.573c20.48 0 34.133 13.653 34.133 34.133s-13.653 34.133-34.133 34.133h-129.707c-20.48 0-34.133-13.653-34.133-34.133v-307.2c0-177.493 136.533-320.853 307.2-337.92v-37.547c0-170.667 136.533-307.2 307.2-307.2s307.2 136.533 307.2 307.2v447.147c58.027 17.067 102.4 68.267 102.4 133.12zM887.467 755.2c-37.547 0-68.267 30.72-68.267 68.267s30.72 68.267 68.267 68.267c37.547 0 68.267-30.72 68.267-68.267s-30.72-68.267-68.267-68.267z" />
<glyph unicode="&#xe920;" glyph-name="sympton" d="M1013.756 630.551c-8.613 8.613-20.456 11.843-32.299 9.69l-243.319-58.138c-11.843-3.23-21.533-11.843-24.763-23.686s0-24.763 8.613-33.376l55.985-55.985-183.027-183.027c-9.69 5.383-20.456 9.69-31.222 12.92v380.051h79.671c12.92 0 23.686 6.46 30.146 17.226s5.383 24.763-1.077 34.452l-131.349 213.173c-6.46 9.69-17.226 16.149-29.069 16.149s-22.609-6.46-29.069-16.149l-131.349-212.096c-6.46-10.766-6.46-23.686-1.077-34.452 6.46-10.766 17.226-17.226 30.146-17.226h79.671v-381.127c-10.766-3.23-21.533-7.536-31.222-12.92l-183.027 183.027 55.985 55.985c8.613 8.613 11.843 21.533 8.613 33.376s-12.92 21.533-24.763 23.686l-243.319 57.061c-11.843 3.23-23.686-1.077-32.299-9.69s-11.843-20.456-9.69-32.299l57.061-243.319c3.23-11.843 11.843-21.533 23.686-24.763 3.23-1.077 6.46-1.077 9.69-1.077 8.613 0 18.303 3.23 24.763 9.69l55.985 55.985 183.027-183.027c-12.92-24.763-20.456-52.755-20.456-82.901 0-97.973 79.671-177.644 177.644-177.644s177.644 79.671 177.644 177.644c0 30.146-7.536 58.138-20.456 82.901l183.027 183.027 55.985-55.985c6.46-6.46 15.073-9.69 24.763-9.69 3.23 0 6.46 0 9.69 1.077 11.843 3.23 21.533 12.92 23.686 24.763l57.061 243.319c2.153 12.92-2.153 24.763-9.69 33.376zM512.046 54.553c-40.912 0-74.288 33.376-74.288 74.288s33.376 74.288 74.288 74.288c40.912 0 74.288-33.376 74.288-74.288s-33.376-74.288-74.288-74.288z" />
<glyph unicode="&#xe921;" glyph-name="trash" d="M317.117 575.431h64.577v-512h-64.577v512zM479.712 575.431h64.577v-512h-64.577v512zM641.153 575.431h64.577v-512h-64.577v512zM934.054 832.569h-227.171v127.431h-389.766v-127.431h-227.171v-192.284h64.577v-704.284h713.802v704.284h64.577l1.153 192.284zM382.847 896.284h259.459v-63.716h-259.459v63.716zM155.676 767.716h714.955v-63.716h-714.955v63.716zM803.748-0.284h-583.495v640.569h583.495v-640.569z" />
<glyph unicode="&#xe922;" glyph-name="user-invite" d="M512 957.849c-206.214 0-392.124-124.22-471.039-314.738s-35.295-409.812 110.521-555.628c128.8-128.801 316.531-179.103 492.476-131.959s313.373 184.573 360.518 360.517c47.144 175.945-3.158 363.676-131.958 492.476-95.406 95.928-225.224 149.7-360.518 149.331zM512-10.218c-252.663 0-458.218 205.557-458.218 458.218 0 252.663 205.556 458.218 458.218 458.218s458.218-205.556 458.218-458.218c0-252.662-205.556-458.218-458.218-458.218zM690.010 581.669c0.051 76.295-53.581 142.095-128.318 157.432s-149.949-24.024-179.949-94.173c-30-70.149-6.507-151.722 56.209-195.169-40.679-16.357-77.557-40.909-108.339-72.13-57.591-57.676-90.728-129.957-90.728-199.333v-24.566h47.328v24.566c0 56.895 28.148 117.022 76.919 165.863 48.763 48.836 109.48 76.327 166.276 76.327h23.561v2.323c78.683 11.772 136.937 79.301 137.041 158.859zM529.408 694.804c45.759 0 87.013-27.565 104.524-69.841s7.832-90.938-24.525-123.294c-32.357-32.357-81.019-42.036-123.295-24.524s-69.84 58.765-69.84 104.525c0.071 62.454 50.682 113.065 113.136 113.135zM785.081 320.542l-90.129-0.065v93.554h-47.328v-93.588l-91.112-0.065 0.034-47.468 91.078 0.067v-95.585h47.328v95.617l90.164 0.065z" />
<glyph unicode="&#xe923;" glyph-name="user" d="M817.024 651.542c0-168.293-136.428-304.721-304.721-304.721s-304.721 136.428-304.721 304.721c0 168.293 136.428 304.721 304.721 304.721s304.721-136.428 304.721-304.721zM942.311 73.711c70.749 101.969-64.676 217.586-220.704 280.179-59.248-41.8-131.423-66.456-209.292-66.456-77.97 0-150.208 24.719-209.519 66.595-156.18-62.555-291.895-178.26-221.108-280.331 122.649-176.758 737.974-176.758 860.623 0.013z" />
<glyph unicode="&#xe924;" glyph-name="wound-care" d="M688.397-25.544l-157.843 157.864 297.137 297.116 157.843-157.854c51.285-51.274 51.285-134.419 0-185.683l-111.422-111.443c-51.274-51.274-134.43-51.274-185.715 0zM149.876-25.544l-111.412 111.433c-51.285 51.264-51.285 134.409 0 185.683l157.833 157.864 297.127-297.116-9.29-9.28-148.553-148.584c-51.274-51.274-134.43-51.274-185.704 0zM511.993 745.123l297.116-297.116-297.116-297.116-297.116 297.116 297.116 297.116zM493.423 243.732c10.259-10.259 26.882-10.259 37.13 0 10.259 10.259 10.259 26.892 0 37.141-10.249 10.249-26.871 10.249-37.13 0s-10.259-26.882 0-37.141zM586.275 336.594c10.238-10.249 26.882-10.249 37.12 0 10.269 10.249 10.269 26.882 0 37.141-10.238 10.238-26.882 10.238-37.12 0-10.269-10.259-10.269-26.892 0-37.141zM679.117 429.436c10.249-10.259 26.882-10.259 37.141 0 10.269 10.259 10.269 26.892 0 37.141-10.259 10.259-26.892 10.259-37.141 0s-10.249-26.882 0-37.141zM400.571 336.594c10.259-10.249 26.892-10.249 37.13 0 10.269 10.249 10.269 26.882 0 37.141-10.238 10.238-26.871 10.238-37.13 0-10.259-10.259-10.259-26.892 0-37.141zM493.423 429.436c10.259-10.259 26.882-10.259 37.13 0 10.259 10.259 10.259 26.892 0 37.141-10.249 10.259-26.871 10.259-37.13 0s-10.259-26.882 0-37.141zM586.275 522.288c10.238-10.259 26.882-10.259 37.12 0 10.269 10.249 10.269 26.871 0 37.13-10.238 10.249-26.882 10.249-37.12 0-10.269-10.259-10.269-26.882 0-37.13zM307.719 429.436c10.259-10.259 26.892-10.259 37.151 0 10.249 10.259 10.249 26.892 0 37.141-10.259 10.259-26.892 10.259-37.151 0-10.269-10.259-10.269-26.882 0-37.141zM400.571 522.288c10.259-10.259 26.892-10.259 37.13 0 10.269 10.249 10.269 26.871 0 37.13-10.238 10.249-26.871 10.249-37.13 0-10.259-10.259-10.259-26.882 0-37.13zM493.423 615.13c10.259-10.259 26.882-10.259 37.13 0 10.259 10.259 10.259 26.882 0 37.141-10.249 10.259-26.871 10.259-37.13 0s-10.259-26.882 0-37.141zM539.844 772.973l148.553 148.563c51.295 51.285 134.44 51.285 185.715 0l111.422-111.422c51.285-51.274 51.285-134.419 0-185.694l-157.843-157.854-297.137 297.127 9.29 9.28zM38.464 624.42c-51.285 51.274-51.285 134.419 0 185.694l111.412 111.422c51.274 51.285 134.419 51.285 185.704 0l157.843-157.843-297.127-297.116-9.28 9.29-148.553 148.553z" />
</font>
</defs>
</svg>
