<svg width="24" height="20" viewBox="0 0 24 20" fill="none" xmlns="http://www.w3.org/2000/svg">
<path d="M8 18.0003C8 17.6467 8.10536 17.3076 8.29289 17.0575C8.48043 16.8075 8.73478 16.667 9 16.667H15C15.2652 16.667 15.5196 16.8075 15.7071 17.0575C15.8946 17.3076 16 17.6467 16 18.0003C16 18.3539 15.8946 18.6931 15.7071 18.9431C15.5196 19.1932 15.2652 19.3337 15 19.3337H9C8.73478 19.3337 8.48043 19.1932 8.29289 18.9431C8.10536 18.6931 8 18.3539 8 18.0003ZM4 10.0003C4 9.6467 4.10536 9.30757 4.29289 9.05752C4.48043 8.80747 4.73478 8.66699 5 8.66699H19C19.2652 8.66699 19.5196 8.80747 19.7071 9.05752C19.8946 9.30757 20 9.6467 20 10.0003C20 10.3539 19.8946 10.6931 19.7071 10.9431C19.5196 11.1932 19.2652 11.3337 19 11.3337H5C4.73478 11.3337 4.48043 11.1932 4.29289 10.9431C4.10536 10.6931 4 10.3539 4 10.0003ZM0 2.00033C0 1.6467 0.105357 1.30757 0.292893 1.05752C0.48043 0.807468 0.734784 0.666992 1 0.666992H23C23.2652 0.666992 23.5196 0.807468 23.7071 1.05752C23.8946 1.30757 24 1.6467 24 2.00033C24 2.35395 23.8946 2.69309 23.7071 2.94313C23.5196 3.19318 23.2652 3.33366 23 3.33366H1C0.734784 3.33366 0.48043 3.19318 0.292893 2.94313C0.105357 2.69309 0 2.35395 0 2.00033Z" fill="black"/>
</svg>
