<svg width="32" height="32" viewBox="0 0 32 32" fill="none" xmlns="http://www.w3.org/2000/svg">
<rect width="32" height="32" rx="4" fill="white"/>
<path d="M18.25 8.5H11.5C10.6709 8.5 10 9.1709 10 10V22C10 22.8291 10.6709 23.5 11.5 23.5H20.5C21.3291 23.5 22 22.8291 22 22V12.25L18.25 8.5ZM14.125 20.0869V14.1631L18.5869 17.125L14.125 20.0869Z" fill="#CC5FFF"/>
<rect x="12" y="13" width="8" height="8" fill="#CC5FFF"/>
<path d="M12.5808 20.1679C12.3733 19.9596 12.2142 19.6904 12.1375 19.3962C12.0025 18.8746 12.1392 18.3662 12.5125 18.0004C13.3787 17.1521 14.9762 15.5454 16.0329 14.4825L16.4679 14.0454C17.3954 13.1133 18.5833 13.305 19.2767 13.9767C19.9946 14.6846 20.2775 15.9458 19.1954 17.095C18.4996 17.8342 17.1579 19.1729 16.2704 20.0592L15.8187 20.5092L15.4183 20.1083L15.8696 19.6575C16.7558 18.7742 18.0933 17.4392 18.7833 16.7062C19.6062 15.8321 19.4271 14.9092 18.8829 14.3837C18.4033 13.9204 17.5692 13.7421 16.8696 14.4454L16.4354 14.8817C15.3771 15.9458 13.7783 17.5542 12.9092 18.4058C12.6017 18.7067 12.6375 19.0658 12.6867 19.2533C12.7792 19.61 13.0575 19.9171 13.3637 20.0004C13.6175 20.0696 13.8646 19.9875 14.0975 19.7554C14.2958 19.5571 14.5479 19.3092 14.8283 19.0333C15.7404 18.1358 16.9904 16.9058 17.6771 16.1429C17.7292 16.085 17.8 15.8662 17.7125 15.7533C17.5846 15.5883 17.3783 15.6167 17.3404 15.6433C16.6558 16.2629 14.9904 17.9562 14.9737 17.9733L14.5692 17.5758C14.6383 17.5058 16.2629 15.8533 16.9629 15.2204C17.0958 15.1 17.305 15.04 17.5233 15.0592C17.7771 15.0817 18.0033 15.205 18.16 15.4054C18.4446 15.7725 18.3071 16.29 18.0979 16.5217C17.4 17.2979 16.1433 18.5342 15.2258 19.4375C14.9462 19.7125 14.6954 19.9596 14.4967 20.1571C14.1208 20.5317 13.665 20.67 13.2137 20.5475C12.9812 20.4829 12.7625 20.3487 12.5808 20.1679Z" fill="white"/>
</svg>
