<svg width="24" height="24" viewBox="0 0 24 24" fill="none" xmlns="http://www.w3.org/2000/svg">
<path d="M14.25 4.5H7.5C6.6709 4.5 6 5.1709 6 6V18C6 18.8291 6.6709 19.5 7.5 19.5H16.5C17.3291 19.5 18 18.8291 18 18V8.25L14.25 4.5ZM9.75 10.5C10.1631 10.5 10.5 10.8369 10.5 11.25C10.5 11.6631 10.1631 12 9.75 12C9.33691 12 9 11.6631 9 11.25C9 10.8369 9.33691 10.5 9.75 10.5ZM8.25 15.75L10.5 12.75L12 14.25L13.5 12L15.75 15.75H8.25Z" fill="#FFB55F"/>
<rect x="8" y="10" width="8" height="7" fill="#FFB55F"/>
<path d="M10.1195 10.4013V11.2077V12.0504V14.4224C9.90797 14.293 9.66002 14.217 9.39373 14.217C8.6242 14.217 8 14.8401 8 15.6081C8 16.3768 8.62403 17 9.39373 17C10.1629 17 10.7868 16.377 10.787 15.6084V11.8588L14.3326 10.841V13.2216C14.121 13.0921 13.8731 13.0162 13.6068 13.0162C12.8369 13.0162 12.213 13.6391 12.213 14.4071C12.213 15.1757 12.8369 15.799 13.6068 15.799C14.3316 15.799 14.9273 15.245 14.9933 14.5377H15V10.6494V10.0519V9L10.1195 10.4013Z" fill="white"/>
</svg>
