<svg width="24" height="24" viewBox="0 0 24 24" fill="none" xmlns="http://www.w3.org/2000/svg">
<path d="M14.25 4.5H7.5C6.6709 4.5 6 5.1709 6 6V18C6 18.8291 6.6709 19.5 7.5 19.5H16.5C17.3291 19.5 18 18.8291 18 18V8.25L14.25 4.5ZM10.125 16.0869V10.1631L14.5869 13.125L10.125 16.0869Z" fill="#CC5FFF"/>
<rect x="9" y="8" width="6" height="9" fill="#CC5FFF"/>
<g clip-path="url(#clip0_930_18705)">
<path d="M12.875 13.25C13.0903 13.089 13.2684 12.8835 13.3974 12.6475C13.5263 12.4116 13.6029 12.1507 13.6221 11.8825C13.6413 11.6143 13.6026 11.3452 13.5087 11.0932C13.4147 10.8413 13.2677 10.6126 13.0775 10.4225L11.9525 9.2975C11.5989 8.95595 11.1252 8.76696 10.6336 8.77124C10.142 8.77551 9.67173 8.9727 9.32409 9.32034C8.97645 9.66798 8.77926 10.1383 8.77499 10.6299C8.77072 11.1215 8.95971 11.5951 9.30125 11.9487L9.9425 12.5937" stroke="white" stroke-width="0.75" stroke-linecap="round" stroke-linejoin="round"/>
<path d="M12.125 11.75C11.9097 11.911 11.7315 12.1165 11.6026 12.3525C11.4737 12.5884 11.3971 12.8493 11.3779 13.1175C11.3587 13.3857 11.3974 13.6548 11.4913 13.9068C11.5853 14.1587 11.7323 14.3874 11.9225 14.5775L13.0475 15.7025C13.4011 16.044 13.8748 16.233 14.3664 16.2288C14.858 16.2245 15.3283 16.0273 15.6759 15.6797C16.0235 15.332 16.2207 14.8617 16.225 14.3701C16.2293 13.8785 16.0403 13.4049 15.6987 13.0512L15.0575 12.41" stroke="white" stroke-width="0.75" stroke-linecap="round" stroke-linejoin="round"/>
</g>
<defs>
<clipPath id="clip0_930_18705">
<rect width="9" height="9" fill="white" transform="translate(8 17) rotate(-90)"/>
</clipPath>
</defs>
</svg>
