<svg width="24" height="24" viewBox="0 0 24 24" fill="none" xmlns="http://www.w3.org/2000/svg">
<path d="M14.25 4.5H7.5C6.6709 4.5 6 5.1709 6 6V18C6 18.8291 6.6709 19.5 7.5 19.5H16.5C17.3291 19.5 18 18.8291 18 18V8.25L14.25 4.5ZM10.125 16.0869V10.1631L14.5869 13.125L10.125 16.0869Z" fill="#99AFA0"/>
<rect x="9" y="8" width="6" height="9" fill="#99AFA0"/>
<path d="M14.25 14.1388H9.7V10.863H10.7482C10.7482 10.863 11.0052 10.5039 11.5266 10.1667H9.35C9.15677 10.1667 9 10.3216 9 10.5148V14.487C9 14.6784 9.15677 14.8352 9.35 14.8352H14.6C14.7932 14.8352 14.95 14.6802 14.95 14.487V12.5L14.25 13.0724V14.1388ZM13.6667 11.3333V12.4982L16 10.7573L13.6667 9V10.0883C10.8448 10.0883 10.75 13.0833 10.75 13.0833C11.5484 11.7799 12.1354 11.3333 13.6667 11.3333Z" fill="white"/>
</svg>
