<svg width="104" height="81" viewBox="0 0 104 81" fill="none" xmlns="http://www.w3.org/2000/svg">
<g filter="url(#filter0_dd_807_14054)">
<rect x="7" y="4" width="90" height="67" rx="8" fill="#F8F8F8"/>
</g>
<path d="M60 19H44C42.9 19 42.01 19.9 42.01 21L42 33C42 34.1 42.9 35 44 35H60C61.1 35 62 34.1 62 33V21C62 19.9 61.1 19 60 19ZM59.6 23.25L52.53 27.67C52.21 27.87 51.79 27.87 51.47 27.67L44.4 23.25C44.15 23.09 44 22.82 44 22.53C44 21.86 44.73 21.46 45.3 21.81L52 26L58.7 21.81C59.27 21.46 60 21.86 60 22.53C60 22.82 59.85 23.09 59.6 23.25Z" fill="#007AFF"/>
<path d="M42.3072 56.9717H37.775V53.8232H42.0723V52.8076H37.775V49.8687H42.3072V48.8403H36.6324V58H42.3072V56.9717ZM43.8289 58H44.9207V53.7598C44.9207 52.7949 45.6126 52.0205 46.5076 52.0205C47.3709 52.0205 47.9358 52.541 47.9358 53.3535V58H49.0276V53.6011C49.0276 52.7314 49.6624 52.0205 50.6145 52.0205C51.5794 52.0205 52.0555 52.5156 52.0555 53.5249V58H53.1473V53.271C53.1473 51.8364 52.3665 51.0366 50.97 51.0366C50.0242 51.0366 49.2434 51.5127 48.8753 52.2363H48.7737C48.4563 51.5254 47.8089 51.0366 46.8821 51.0366C45.9681 51.0366 45.2825 51.4746 44.9715 52.2363H44.8699V51.1572H43.8289V58ZM56.8398 57.1621C56.0464 57.1621 55.4561 56.7559 55.4561 56.0576C55.4561 55.3721 55.9131 55.0103 56.9541 54.9404L58.7949 54.8198V55.4482C58.7949 56.4258 57.9634 57.1621 56.8398 57.1621ZM56.6367 58.1206C57.5508 58.1206 58.2998 57.7207 58.7441 56.9907H58.8457V58H59.8867V53.3154C59.8867 51.8936 58.9536 51.0366 57.2842 51.0366C55.8242 51.0366 54.7451 51.7603 54.5991 52.8584H55.7036C55.856 52.3188 56.4272 52.0078 57.2461 52.0078C58.2681 52.0078 58.7949 52.4712 58.7949 53.3154V53.9375L56.8208 54.0581C55.2275 54.1533 54.3262 54.8579 54.3262 56.083C54.3262 57.3335 55.3101 58.1206 56.6367 58.1206ZM61.5227 58H62.6145V51.1572H61.5227V58ZM62.0686 49.7671C62.4875 49.7671 62.8303 49.4243 62.8303 49.0054C62.8303 48.5864 62.4875 48.2437 62.0686 48.2437C61.6496 48.2437 61.3068 48.5864 61.3068 49.0054C61.3068 49.4243 61.6496 49.7671 62.0686 49.7671ZM64.352 58H65.4438V48.4404H64.352V58Z" fill="#007AFF"/>
<defs>
<filter id="filter0_dd_807_14054" x="0" y="0" width="104" height="81" filterUnits="userSpaceOnUse" color-interpolation-filters="sRGB">
<feFlood flood-opacity="0" result="BackgroundImageFix"/>
<feColorMatrix in="SourceAlpha" type="matrix" values="0 0 0 0 0 0 0 0 0 0 0 0 0 0 0 0 0 0 127 0" result="hardAlpha"/>
<feMorphology radius="1" operator="erode" in="SourceAlpha" result="effect1_dropShadow_807_14054"/>
<feOffset dy="3"/>
<feGaussianBlur stdDeviation="4"/>
<feColorMatrix type="matrix" values="0 0 0 0 0.196078 0 0 0 0 0.196078 0 0 0 0 0.278431 0 0 0 0.05 0"/>
<feBlend mode="normal" in2="BackgroundImageFix" result="effect1_dropShadow_807_14054"/>
<feColorMatrix in="SourceAlpha" type="matrix" values="0 0 0 0 0 0 0 0 0 0 0 0 0 0 0 0 0 0 127 0" result="hardAlpha"/>
<feOffset/>
<feGaussianBlur stdDeviation="0.5"/>
<feColorMatrix type="matrix" values="0 0 0 0 0.0470588 0 0 0 0 0.101961 0 0 0 0 0.294118 0 0 0 0.24 0"/>
<feBlend mode="normal" in2="effect1_dropShadow_807_14054" result="effect2_dropShadow_807_14054"/>
<feBlend mode="normal" in="SourceGraphic" in2="effect2_dropShadow_807_14054" result="shape"/>
</filter>
</defs>
</svg>
