<svg width="74" height="58" viewBox="0 0 74 58" fill="none" xmlns="http://www.w3.org/2000/svg">
<g filter="url(#filter0_dd_807_17596)">
<rect x="7" y="4" width="60" height="44" rx="8" fill="#F8F8F8"/>
</g>
<path d="M41.3333 13.3334H30.6666C29.9333 13.3334 29.3399 13.9334 29.3399 14.6667L29.3333 22.6667C29.3333 23.4 29.9333 24 30.6666 24H41.3333C42.0666 24 42.6666 23.4 42.6666 22.6667V14.6667C42.6666 13.9334 42.0666 13.3334 41.3333 13.3334ZM41.0666 16.1667L36.3533 19.1134C36.1399 19.2467 35.8599 19.2467 35.6466 19.1134L30.9333 16.1667C30.7666 16.06 30.6666 15.88 30.6666 15.6867C30.6666 15.24 31.1533 14.9734 31.5333 15.2067L35.9999 18L40.4666 15.2067C40.8466 14.9734 41.3333 15.24 41.3333 15.6867C41.3333 15.88 41.2333 16.06 41.0666 16.1667Z" fill="#007AFF"/>
<path d="M29.5015 39.209H26.0152V36.7871H29.3209V36.0059H26.0152V33.7451H29.5015V32.9541H25.1363V40H29.5015V39.209ZM30.5779 40H31.4178V36.7383C31.4178 35.9961 31.95 35.4004 32.6385 35.4004C33.3025 35.4004 33.7371 35.8008 33.7371 36.4258V40H34.5769V36.6162C34.5769 35.9473 35.0652 35.4004 35.7976 35.4004C36.5398 35.4004 36.906 35.7812 36.906 36.5576V40H37.7459V36.3623C37.7459 35.2588 37.1453 34.6436 36.0711 34.6436C35.3435 34.6436 34.743 35.0098 34.4598 35.5664H34.3816C34.1375 35.0195 33.6394 34.6436 32.9266 34.6436C32.2234 34.6436 31.6961 34.9805 31.4568 35.5664H31.3787V34.7363H30.5779V40ZM40.4922 39.3555C39.8818 39.3555 39.4277 39.043 39.4277 38.5059C39.4277 37.9785 39.7793 37.7002 40.5801 37.6465L41.9961 37.5537V38.0371C41.9961 38.7891 41.3564 39.3555 40.4922 39.3555ZM40.3359 40.0928C41.0391 40.0928 41.6152 39.7852 41.957 39.2236H42.0352V40H42.8359V36.3965C42.8359 35.3027 42.1182 34.6436 40.834 34.6436C39.7109 34.6436 38.8809 35.2002 38.7686 36.0449H39.6182C39.7354 35.6299 40.1748 35.3906 40.8047 35.3906C41.5908 35.3906 41.9961 35.7471 41.9961 36.3965V36.875L40.4775 36.9678C39.252 37.041 38.5586 37.583 38.5586 38.5254C38.5586 39.4873 39.3154 40.0928 40.3359 40.0928ZM44.0002 40H44.84V34.7363H44.0002V40ZM44.4201 33.667C44.7424 33.667 45.0061 33.4033 45.0061 33.0811C45.0061 32.7588 44.7424 32.4951 44.4201 32.4951C44.0979 32.4951 43.8342 32.7588 43.8342 33.0811C43.8342 33.4033 44.0979 33.667 44.4201 33.667ZM46.0824 40H46.9223V32.6465H46.0824V40Z" fill="#007AFF"/>
<defs>
<filter id="filter0_dd_807_17596" x="0" y="0" width="74" height="58" filterUnits="userSpaceOnUse" color-interpolation-filters="sRGB">
<feFlood flood-opacity="0" result="BackgroundImageFix"/>
<feColorMatrix in="SourceAlpha" type="matrix" values="0 0 0 0 0 0 0 0 0 0 0 0 0 0 0 0 0 0 127 0" result="hardAlpha"/>
<feMorphology radius="1" operator="erode" in="SourceAlpha" result="effect1_dropShadow_807_17596"/>
<feOffset dy="3"/>
<feGaussianBlur stdDeviation="4"/>
<feColorMatrix type="matrix" values="0 0 0 0 0.196078 0 0 0 0 0.196078 0 0 0 0 0.278431 0 0 0 0.05 0"/>
<feBlend mode="normal" in2="BackgroundImageFix" result="effect1_dropShadow_807_17596"/>
<feColorMatrix in="SourceAlpha" type="matrix" values="0 0 0 0 0 0 0 0 0 0 0 0 0 0 0 0 0 0 127 0" result="hardAlpha"/>
<feOffset/>
<feGaussianBlur stdDeviation="0.5"/>
<feColorMatrix type="matrix" values="0 0 0 0 0.0470588 0 0 0 0 0.101961 0 0 0 0 0.294118 0 0 0 0.24 0"/>
<feBlend mode="normal" in2="effect1_dropShadow_807_17596" result="effect2_dropShadow_807_17596"/>
<feBlend mode="normal" in="SourceGraphic" in2="effect2_dropShadow_807_17596" result="shape"/>
</filter>
</defs>
</svg>
