<svg width="74" height="58" viewBox="0 0 74 58" fill="none" xmlns="http://www.w3.org/2000/svg">
<g filter="url(#filter0_dd_807_17590)">
<rect x="7" y="4" width="60" height="44" rx="8" fill="#F8F8F8"/>
</g>
<path d="M42.0851 20.4401L40.5329 20.2655C40.1601 20.2233 39.7934 20.3498 39.5307 20.6086L38.4062 21.7163C36.6768 20.8494 35.259 19.4588 34.379 17.7492L35.5096 16.6355C35.7723 16.3766 35.9007 16.0154 35.8579 15.6482L35.6807 14.1312C35.6073 13.5232 35.0879 13.0657 34.4646 13.0657H33.4073C32.7168 13.0657 32.1423 13.6315 32.1851 14.3118C32.509 19.4528 36.6829 23.5584 41.8957 23.8774C42.5862 23.9196 43.1607 23.3537 43.1607 22.6734V21.632C43.1668 21.024 42.7023 20.5123 42.0851 20.4401Z" fill="#FF567A"/>
<path d="M30.1196 39V31.9541H29.0991L26.687 37.7842H26.6089L24.1968 31.9541H23.1763V39H23.9966V33.6191H24.0552L26.2768 38.9512H27.019L29.2407 33.6191H29.2993V39H30.1196ZM33.5641 39.0928C35.0632 39.0928 35.9909 38.0576 35.9909 36.3682C35.9909 34.6738 35.0632 33.6436 33.5641 33.6436C32.0651 33.6436 31.1374 34.6738 31.1374 36.3682C31.1374 38.0576 32.0651 39.0928 33.5641 39.0928ZM33.5641 38.3359C32.5681 38.3359 32.0065 37.6133 32.0065 36.3682C32.0065 35.1182 32.5681 34.4004 33.5641 34.4004C34.5602 34.4004 35.1218 35.1182 35.1218 36.3682C35.1218 37.6133 34.5602 38.3359 33.5641 38.3359ZM39.5185 39.0928C40.8515 39.0928 41.7255 38.0137 41.7255 36.3682C41.7255 34.7129 40.8563 33.6436 39.5185 33.6436C38.7958 33.6436 38.1561 34 37.8681 34.5664H37.7899V31.6465H36.9501V39H37.7509V38.1602H37.829C38.161 38.7461 38.786 39.0928 39.5185 39.0928ZM39.3231 34.4004C40.2851 34.4004 40.8563 35.1377 40.8563 36.3682C40.8563 37.5986 40.2851 38.3359 39.3231 38.3359C38.3661 38.3359 37.7704 37.584 37.7704 36.3682C37.7704 35.1523 38.3661 34.4004 39.3231 34.4004ZM42.6554 39H43.4952V33.7363H42.6554V39ZM43.0753 32.667C43.3976 32.667 43.6612 32.4033 43.6612 32.0811C43.6612 31.7588 43.3976 31.4951 43.0753 31.4951C42.753 31.4951 42.4894 31.7588 42.4894 32.0811C42.4894 32.4033 42.753 32.667 43.0753 32.667ZM44.7376 39H45.5775V31.6465H44.7376V39ZM48.8999 34.3857C49.7349 34.3857 50.2915 35.001 50.3111 35.9336H47.4107C47.4741 35.001 48.0601 34.3857 48.8999 34.3857ZM50.2866 37.6377C50.0669 38.1016 49.6079 38.3506 48.9292 38.3506C48.0357 38.3506 47.4546 37.6914 47.4107 36.6514V36.6123H51.1948V36.29C51.1948 34.6543 50.3306 33.6436 48.9097 33.6436C47.4644 33.6436 46.5366 34.7178 46.5366 36.373C46.5366 38.0381 47.4497 39.0928 48.9097 39.0928C50.062 39.0928 50.8726 38.541 51.1265 37.6377H50.2866Z" fill="#FF567A"/>
<defs>
<filter id="filter0_dd_807_17590" x="0" y="0" width="74" height="58" filterUnits="userSpaceOnUse" color-interpolation-filters="sRGB">
<feFlood flood-opacity="0" result="BackgroundImageFix"/>
<feColorMatrix in="SourceAlpha" type="matrix" values="0 0 0 0 0 0 0 0 0 0 0 0 0 0 0 0 0 0 127 0" result="hardAlpha"/>
<feMorphology radius="1" operator="erode" in="SourceAlpha" result="effect1_dropShadow_807_17590"/>
<feOffset dy="3"/>
<feGaussianBlur stdDeviation="4"/>
<feColorMatrix type="matrix" values="0 0 0 0 0.196078 0 0 0 0 0.196078 0 0 0 0 0.278431 0 0 0 0.05 0"/>
<feBlend mode="normal" in2="BackgroundImageFix" result="effect1_dropShadow_807_17590"/>
<feColorMatrix in="SourceAlpha" type="matrix" values="0 0 0 0 0 0 0 0 0 0 0 0 0 0 0 0 0 0 127 0" result="hardAlpha"/>
<feOffset/>
<feGaussianBlur stdDeviation="0.5"/>
<feColorMatrix type="matrix" values="0 0 0 0 0.0470588 0 0 0 0 0.101961 0 0 0 0 0.294118 0 0 0 0.24 0"/>
<feBlend mode="normal" in2="effect1_dropShadow_807_17590" result="effect2_dropShadow_807_17590"/>
<feBlend mode="normal" in="SourceGraphic" in2="effect2_dropShadow_807_17590" result="shape"/>
</filter>
</defs>
</svg>
