<svg width="104" height="81" viewBox="0 0 104 81" fill="none" xmlns="http://www.w3.org/2000/svg">
<g filter="url(#filter0_dd_807_14060)">
<rect x="7" y="4" width="90" height="67" rx="8" fill="#F8F8F8"/>
</g>
<path d="M59.6275 29.9884L57.2992 29.7226C56.74 29.6584 56.19 29.8509 55.7959 30.2451L54.1092 31.9318C51.515 30.6118 49.3884 28.4943 48.0684 25.8909L49.7642 24.1951C50.1584 23.8009 50.3509 23.2509 50.2867 22.6918L50.0209 20.3818C49.9109 19.4559 49.1317 18.7593 48.1967 18.7593H46.6109C45.575 18.7593 44.7134 19.6209 44.7775 20.6568C45.2634 28.4851 51.5242 34.7368 59.3434 35.2226C60.3792 35.2868 61.2409 34.4251 61.2409 33.3893V31.8034C61.25 30.8776 60.5534 30.0984 59.6275 29.9884V29.9884Z" fill="#FF567A"/>
<path d="M34.2104 58H35.2768V51.0049H35.3467L38.2412 58H39.206L42.1006 51.0049H42.1704V58H43.2368V48.8403H41.9101L38.7744 56.4829H38.6728L35.5371 48.8403H34.2104V58ZM47.8371 58.1206C49.7858 58.1206 50.9919 56.7749 50.9919 54.585V54.5723C50.9919 52.376 49.7858 51.0366 47.8371 51.0366C45.8884 51.0366 44.6823 52.376 44.6823 54.5723V54.585C44.6823 56.7749 45.8884 58.1206 47.8371 58.1206ZM47.8371 57.1431C46.5422 57.1431 45.8122 56.1973 45.8122 54.585V54.5723C45.8122 52.9536 46.5422 52.0142 47.8371 52.0142C49.132 52.0142 49.862 52.9536 49.862 54.5723V54.585C49.862 56.1973 49.132 57.1431 47.8371 57.1431ZM55.7001 58.1206C57.433 58.1206 58.5692 56.7178 58.5692 54.585V54.5723C58.5692 52.4268 57.4394 51.0366 55.7001 51.0366C54.7606 51.0366 53.9418 51.5063 53.5673 52.2363H53.4657V48.4404H52.3612V58H53.4657V56.9082H53.5673C53.9862 57.6699 54.7479 58.1206 55.7001 58.1206ZM55.4462 57.1431C54.202 57.1431 53.4403 56.1655 53.4403 54.585V54.5723C53.4403 52.9917 54.202 52.0142 55.4462 52.0142C56.6967 52.0142 57.4394 52.979 57.4394 54.5723V54.585C57.4394 56.1782 56.6967 57.1431 55.4462 57.1431ZM60.4591 49.8369C60.878 49.8369 61.2208 49.4941 61.2208 49.0752C61.2208 48.6562 60.878 48.3135 60.4591 48.3135C60.0401 48.3135 59.6974 48.6562 59.6974 49.0752C59.6974 49.4941 60.0401 49.8369 60.4591 49.8369ZM59.9005 58H61.005V51.1572H59.9005V58ZM62.7425 58H63.847V48.4404H62.7425V58ZM68.3521 58.1206C69.9644 58.1206 70.9419 57.2065 71.1768 56.2798L71.1895 56.229H70.085L70.0596 56.2861C69.8755 56.6987 69.3042 57.1367 68.3775 57.1367C67.1587 57.1367 66.3779 56.3115 66.3462 54.896H71.272V54.4644C71.272 52.4204 70.1421 51.0366 68.2822 51.0366C66.4224 51.0366 65.2163 52.4839 65.2163 54.5977V54.604C65.2163 56.7495 66.397 58.1206 68.3521 58.1206ZM68.2759 52.0205C69.2852 52.0205 70.0342 52.6616 70.1485 54.0137H66.3653C66.4859 52.7124 67.2603 52.0205 68.2759 52.0205Z" fill="#FF567A"/>
<defs>
<filter id="filter0_dd_807_14060" x="0" y="0" width="104" height="81" filterUnits="userSpaceOnUse" color-interpolation-filters="sRGB">
<feFlood flood-opacity="0" result="BackgroundImageFix"/>
<feColorMatrix in="SourceAlpha" type="matrix" values="0 0 0 0 0 0 0 0 0 0 0 0 0 0 0 0 0 0 127 0" result="hardAlpha"/>
<feMorphology radius="1" operator="erode" in="SourceAlpha" result="effect1_dropShadow_807_14060"/>
<feOffset dy="3"/>
<feGaussianBlur stdDeviation="4"/>
<feColorMatrix type="matrix" values="0 0 0 0 0.196078 0 0 0 0 0.196078 0 0 0 0 0.278431 0 0 0 0.05 0"/>
<feBlend mode="normal" in2="BackgroundImageFix" result="effect1_dropShadow_807_14060"/>
<feColorMatrix in="SourceAlpha" type="matrix" values="0 0 0 0 0 0 0 0 0 0 0 0 0 0 0 0 0 0 127 0" result="hardAlpha"/>
<feOffset/>
<feGaussianBlur stdDeviation="0.5"/>
<feColorMatrix type="matrix" values="0 0 0 0 0.0470588 0 0 0 0 0.101961 0 0 0 0 0.294118 0 0 0 0.24 0"/>
<feBlend mode="normal" in2="effect1_dropShadow_807_14060" result="effect2_dropShadow_807_14060"/>
<feBlend mode="normal" in="SourceGraphic" in2="effect2_dropShadow_807_14060" result="shape"/>
</filter>
</defs>
</svg>
