<svg width="74" height="58" viewBox="0 0 74 58" fill="none" xmlns="http://www.w3.org/2000/svg">
<g filter="url(#filter0_dd_807_17602)">
<rect x="7" y="4" width="60" height="44" rx="8" fill="#F8F8F8"/>
</g>
<path d="M39.6333 16.5896H43.0774C43.4027 16.5896 43.6665 16.8549 43.6665 17.1823V20.3382C43.6665 21.5412 42.6971 22.5165 41.5012 22.5165H41.491C40.2952 22.5166 39.3256 21.5415 39.3254 20.3385C39.3254 20.3384 39.3254 20.3383 39.3254 20.3382V16.8994C39.3254 16.7283 39.4633 16.5896 39.6333 16.5896Z" fill="#5059C9"/>
<path d="M41.961 15.9657C42.7317 15.9657 43.3564 15.3372 43.3564 14.5619C43.3564 13.7867 42.7317 13.1582 41.961 13.1582C41.1904 13.1582 40.5657 13.7867 40.5657 14.5619C40.5657 15.3372 41.1904 15.9657 41.961 15.9657Z" fill="#5059C9"/>
<path d="M37.62 15.9657C38.7332 15.9657 39.6355 15.0579 39.6355 13.938C39.6355 12.8182 38.7332 11.9104 37.62 11.9104C36.5069 11.9104 35.6045 12.8182 35.6045 13.938C35.6045 15.0579 36.5069 15.9657 37.62 15.9657Z" fill="#7B83EB"/>
<path d="M40.3078 16.5896H34.6228C34.3013 16.5976 34.047 16.866 34.0544 17.1895V20.7889C34.0095 22.7299 35.536 24.3406 37.4653 24.3881C39.3946 24.3406 40.9211 22.7299 40.8762 20.7889V17.1895C40.8836 16.866 40.6293 16.5976 40.3078 16.5896Z" fill="#7B83EB"/>
<path opacity="0.1" d="M37.7751 16.5896V21.6337C37.7735 21.8651 37.6342 22.0728 37.4216 22.1609C37.3538 22.1897 37.2811 22.2045 37.2076 22.2046H34.327C34.2866 22.1017 34.2494 21.9987 34.2184 21.8927C34.1099 21.5347 34.0545 21.1626 34.0541 20.7884V17.1885C34.0466 16.8656 34.3006 16.5976 34.6215 16.5896H37.7751Z" fill="black"/>
<path opacity="0.2" d="M37.465 16.5896V21.9456C37.465 22.0196 37.4502 22.0928 37.4216 22.1609C37.334 22.3748 37.1275 22.5149 36.8975 22.5165H34.4727C34.42 22.4136 34.3704 22.3106 34.327 22.2046C34.2835 22.0986 34.2494 21.9987 34.2184 21.8927C34.1099 21.5347 34.0545 21.1626 34.0541 20.7884V17.1885C34.0466 16.8656 34.3006 16.5976 34.6215 16.5896H37.465Z" fill="black"/>
<path opacity="0.2" d="M37.465 16.5896V21.3217C37.4626 21.636 37.21 21.8902 36.8976 21.8926H34.2184C34.1099 21.5346 34.0545 21.1625 34.0541 20.7883V17.1885C34.0466 16.8656 34.3006 16.5976 34.6215 16.5896H37.465Z" fill="black"/>
<path opacity="0.2" d="M37.1549 16.5896V21.3217C37.1525 21.636 36.8999 21.8902 36.5875 21.8926H34.2184C34.1099 21.5346 34.0545 21.1625 34.0541 20.7883V17.1885C34.0466 16.8656 34.3006 16.5976 34.6215 16.5896H37.1549Z" fill="black"/>
<path opacity="0.1" d="M37.7752 14.9769V15.9595C37.7225 15.9627 37.6729 15.9658 37.6201 15.9658C37.5673 15.9658 37.5178 15.9627 37.4651 15.9595C37.3604 15.9526 37.2566 15.9358 37.155 15.9096C36.5271 15.76 36.0083 15.317 35.7596 14.718C35.7169 14.6175 35.6836 14.513 35.6604 14.4061H37.2077C37.5206 14.4073 37.774 14.6621 37.7752 14.9769Z" fill="black"/>
<path opacity="0.2" d="M37.4652 15.2887V15.9594C37.3605 15.9524 37.2567 15.9357 37.1551 15.9095C36.5272 15.7599 36.0084 15.3169 35.7598 14.7179H36.8978C37.2106 14.719 37.464 14.9739 37.4652 15.2887Z" fill="black"/>
<path opacity="0.2" d="M37.4652 15.2887V15.9594C37.3605 15.9524 37.2567 15.9357 37.1551 15.9095C36.5272 15.7599 36.0084 15.3169 35.7598 14.7179H36.8978C37.2106 14.719 37.464 14.9739 37.4652 15.2887Z" fill="black"/>
<path opacity="0.2" d="M37.1551 15.2887V15.9095C36.5272 15.7599 36.0084 15.3169 35.7598 14.7179H36.5877C36.9006 14.7191 37.1539 14.974 37.1551 15.2887Z" fill="black"/>
<path d="M30.9016 14.7179H36.5866C36.9005 14.7179 37.1549 14.9739 37.1549 15.2897V21.0088C37.1549 21.3246 36.9005 21.5806 36.5866 21.5806H30.9016C30.5877 21.5806 30.3333 21.3246 30.3333 21.0088V15.2897C30.3333 14.9739 30.5877 14.7179 30.9016 14.7179Z" fill="url(#paint0_linear_807_17602)"/>
<path d="M35.2399 16.8946H34.1035V20.0078H33.3795V16.8946H32.2483V16.2906H35.2399V16.8946Z" fill="white"/>
<path d="M26.6607 39V32.7451H28.9312V31.9541H23.5113V32.7451H25.7818V39H26.6607ZM30.8963 34.3857C31.7312 34.3857 32.2879 35.001 32.3074 35.9336H29.407C29.4705 35.001 30.0564 34.3857 30.8963 34.3857ZM32.283 37.6377C32.0633 38.1016 31.6043 38.3506 30.9256 38.3506C30.032 38.3506 29.451 37.6914 29.407 36.6514V36.6123H33.1912V36.29C33.1912 34.6543 32.3269 33.6436 30.906 33.6436C29.4607 33.6436 28.533 34.7178 28.533 36.373C28.533 38.0381 29.4461 39.0928 30.906 39.0928C32.0584 39.0928 32.8689 38.541 33.1228 37.6377H32.283ZM35.7227 38.3555C35.1123 38.3555 34.6582 38.043 34.6582 37.5059C34.6582 36.9785 35.0098 36.7002 35.8105 36.6465L37.2266 36.5537V37.0371C37.2266 37.7891 36.5869 38.3555 35.7227 38.3555ZM35.5664 39.0928C36.2695 39.0928 36.8457 38.7852 37.1875 38.2236H37.2656V39H38.0664V35.3965C38.0664 34.3027 37.3486 33.6436 36.0645 33.6436C34.9414 33.6436 34.1113 34.2002 33.999 35.0449H34.8486C34.9658 34.6299 35.4053 34.3906 36.0352 34.3906C36.8213 34.3906 37.2266 34.7471 37.2266 35.3965V35.875L35.708 35.9678C34.4824 36.041 33.7891 36.583 33.7891 37.5254C33.7891 38.4873 34.5459 39.0928 35.5664 39.0928ZM39.2111 39H40.051V35.7383C40.051 34.9961 40.5832 34.4004 41.2717 34.4004C41.9358 34.4004 42.3703 34.8008 42.3703 35.4258V39H43.2102V35.6162C43.2102 34.9473 43.6984 34.4004 44.4309 34.4004C45.1731 34.4004 45.5393 34.7812 45.5393 35.5576V39H46.3791V35.3623C46.3791 34.2588 45.7785 33.6436 44.7043 33.6436C43.9768 33.6436 43.3762 34.0098 43.093 34.5664H43.0149C42.7707 34.0195 42.2727 33.6436 41.5598 33.6436C40.8566 33.6436 40.3293 33.9805 40.09 34.5664H40.0119V33.7363H39.2111V39ZM47.3822 35.1768C47.3822 35.9385 47.8315 36.3633 48.8178 36.6025L49.7211 36.8223C50.2826 36.959 50.5561 37.2031 50.5561 37.5645C50.5561 38.0479 50.0483 38.3848 49.3403 38.3848C48.6664 38.3848 48.2465 38.1016 48.1049 37.6572H47.2406C47.3334 38.5312 48.1391 39.0928 49.311 39.0928C50.5072 39.0928 51.4203 38.4434 51.4203 37.501C51.4203 36.7441 50.9418 36.3145 49.9506 36.0752L49.1401 35.8799C48.5199 35.7285 48.227 35.5039 48.227 35.1426C48.227 34.6738 48.7153 34.3564 49.3403 34.3564C49.975 34.3564 50.3852 34.6348 50.4975 35.0547H51.3276C51.2153 34.1904 50.4486 33.6436 49.3451 33.6436C48.227 33.6436 47.3822 34.3027 47.3822 35.1768Z" fill="#7B83EB"/>
<defs>
<filter id="filter0_dd_807_17602" x="0" y="0" width="74" height="58" filterUnits="userSpaceOnUse" color-interpolation-filters="sRGB">
<feFlood flood-opacity="0" result="BackgroundImageFix"/>
<feColorMatrix in="SourceAlpha" type="matrix" values="0 0 0 0 0 0 0 0 0 0 0 0 0 0 0 0 0 0 127 0" result="hardAlpha"/>
<feMorphology radius="1" operator="erode" in="SourceAlpha" result="effect1_dropShadow_807_17602"/>
<feOffset dy="3"/>
<feGaussianBlur stdDeviation="4"/>
<feColorMatrix type="matrix" values="0 0 0 0 0.196078 0 0 0 0 0.196078 0 0 0 0 0.278431 0 0 0 0.05 0"/>
<feBlend mode="normal" in2="BackgroundImageFix" result="effect1_dropShadow_807_17602"/>
<feColorMatrix in="SourceAlpha" type="matrix" values="0 0 0 0 0 0 0 0 0 0 0 0 0 0 0 0 0 0 127 0" result="hardAlpha"/>
<feOffset/>
<feGaussianBlur stdDeviation="0.5"/>
<feColorMatrix type="matrix" values="0 0 0 0 0.0470588 0 0 0 0 0.101961 0 0 0 0 0.294118 0 0 0 0.24 0"/>
<feBlend mode="normal" in2="effect1_dropShadow_807_17602" result="effect2_dropShadow_807_17602"/>
<feBlend mode="normal" in="SourceGraphic" in2="effect2_dropShadow_807_17602" result="shape"/>
</filter>
<linearGradient id="paint0_linear_807_17602" x1="31.5183" y1="14.2711" x2="36.01" y2="22.0041" gradientUnits="userSpaceOnUse">
<stop stop-color="#5A62C3"/>
<stop offset="0.5" stop-color="#4D55BD"/>
<stop offset="1" stop-color="#3940AB"/>
</linearGradient>
</defs>
</svg>
