<svg width="104" height="81" viewBox="0 0 104 81" fill="none" xmlns="http://www.w3.org/2000/svg">
<g filter="url(#filter0_dd_807_14066)">
<rect x="7" y="4" width="90" height="67" rx="8" fill="#F8F8F8"/>
</g>
<g clip-path="url(#clip0_807_14066)">
<path d="M55.9503 24.125H61.1163C61.6043 24.125 62 24.529 62 25.0275V29.8331C62 31.665 60.5459 33.15 58.7521 33.15H58.7367C56.943 33.1503 55.4887 31.6654 55.4884 29.8335C55.4884 29.8333 55.4884 29.8333 55.4884 29.8331V24.5967C55.4884 24.3361 55.6951 24.125 55.9503 24.125Z" fill="#5059C9"/>
<path d="M59.4419 23.175C60.5978 23.175 61.5349 22.218 61.5349 21.0375C61.5349 19.857 60.5978 18.9 59.4419 18.9C58.286 18.9 57.3489 19.857 57.3489 21.0375C57.3489 22.218 58.286 23.175 59.4419 23.175Z" fill="#5059C9"/>
<path d="M52.9303 23.1751C54.6 23.1751 55.9535 21.7927 55.9535 20.0875C55.9535 18.3823 54.6 17 52.9303 17C51.2606 17 49.907 18.3823 49.907 20.0875C49.907 21.7927 51.2606 23.1751 52.9303 23.1751Z" fill="#7B83EB"/>
<path d="M56.9614 24.125H48.434C47.9517 24.1372 47.5702 24.5459 47.5814 25.0385V30.5195C47.514 33.475 49.8037 35.9277 52.6977 36C55.5917 35.9277 57.8813 33.475 57.814 30.5195V25.0385C57.8252 24.5459 57.4437 24.1372 56.9614 24.125Z" fill="#7B83EB"/>
<path opacity="0.1" d="M53.1628 24.125V31.8058C53.1605 32.1581 52.9515 32.4744 52.6326 32.6086C52.531 32.6525 52.4219 32.675 52.3116 32.6751H47.9907C47.9302 32.5184 47.8744 32.3616 47.8279 32.2001C47.6651 31.6551 47.582 31.0885 47.5814 30.5186V25.037C47.5702 24.5453 47.9511 24.1372 48.4325 24.125H53.1628Z" fill="black"/>
<path opacity="0.2" d="M52.6977 24.125V32.2808C52.6977 32.3934 52.6756 32.5048 52.6326 32.6086C52.5013 32.9343 52.1915 33.1477 51.8465 33.1501H48.2093C48.1302 32.9934 48.0558 32.8366 47.9907 32.6751C47.9255 32.5136 47.8744 32.3616 47.8279 32.2001C47.6651 31.6551 47.582 31.0884 47.5814 30.5186V25.037C47.5702 24.5453 47.9511 24.1372 48.4325 24.125H52.6977Z" fill="black"/>
<path opacity="0.2" d="M52.6977 24.125V31.3307C52.6941 31.8093 52.3152 32.1964 51.8466 32.2H47.8279C47.6651 31.6549 47.582 31.0883 47.5814 30.5184V25.037C47.5702 24.5453 47.9511 24.1372 48.4325 24.125H52.6977Z" fill="black"/>
<path opacity="0.2" d="M52.2326 24.125V31.3307C52.229 31.8093 51.85 32.1964 51.3814 32.2H47.8279C47.6651 31.6549 47.582 31.0883 47.5814 30.5184V25.037C47.5702 24.5453 47.9511 24.1372 48.4325 24.125H52.2326Z" fill="black"/>
<path opacity="0.1" d="M53.1628 21.6692V23.1655C53.0837 23.1703 53.0093 23.1751 52.9302 23.1751C52.851 23.1751 52.7767 23.1703 52.6976 23.1655C52.5405 23.1549 52.3849 23.1294 52.2325 23.0896C51.2907 22.8617 50.5125 22.1872 50.1395 21.2751C50.0753 21.1219 50.0254 20.9629 49.9906 20.8001H52.3115C52.7809 20.8019 53.161 21.1899 53.1628 21.6692Z" fill="black"/>
<path opacity="0.2" d="M52.6978 22.1442V23.1655C52.5407 23.1549 52.385 23.1294 52.2327 23.0896C51.2908 22.8617 50.5127 22.1872 50.1396 21.2751H51.8466C52.3159 21.2768 52.696 21.6649 52.6978 22.1442Z" fill="black"/>
<path opacity="0.2" d="M52.6978 22.1442V23.1655C52.5407 23.1549 52.385 23.1294 52.2327 23.0896C51.2908 22.8617 50.5127 22.1872 50.1396 21.2751H51.8466C52.3159 21.2768 52.696 21.6649 52.6978 22.1442Z" fill="black"/>
<path opacity="0.2" d="M52.2326 22.1442V23.0895C51.2907 22.8617 50.5125 22.1871 50.1395 21.275H51.3814C51.8507 21.2769 52.2308 21.665 52.2326 22.1442Z" fill="black"/>
<path d="M42.8526 21.275H51.38C51.8508 21.275 52.2325 21.6649 52.2325 22.1457V30.8543C52.2325 31.3352 51.8508 31.725 51.38 31.725H42.8526C42.3817 31.725 42 31.3352 42 30.8543V22.1457C42 21.6649 42.3817 21.275 42.8526 21.275Z" fill="url(#paint0_linear_807_14066)"/>
<path d="M49.36 24.5895H47.6554V29.3301H46.5693V24.5895H44.8726V23.6699H49.36V24.5895Z" fill="white"/>
</g>
<path d="M37.0216 58H38.1641V49.8687H41.1158V48.8403H34.0699V49.8687H37.0216V58ZM43.8562 58.1206C45.4685 58.1206 46.4461 57.2065 46.6809 56.2798L46.6936 56.229H45.5892L45.5638 56.2861C45.3797 56.6987 44.8084 57.1367 43.8816 57.1367C42.6629 57.1367 41.8821 56.3115 41.8504 54.896H46.7762V54.4644C46.7762 52.4204 45.6463 51.0366 43.7864 51.0366C41.9266 51.0366 40.7205 52.4839 40.7205 54.5977V54.604C40.7205 56.7495 41.9012 58.1206 43.8562 58.1206ZM43.7801 52.0205C44.7893 52.0205 45.5384 52.6616 45.6526 54.0137H41.8694C41.99 52.7124 42.7644 52.0205 43.7801 52.0205ZM49.9609 58.1206C50.8813 58.1206 51.5986 57.7207 52.0303 56.9907H52.1318V58H53.2363V53.3154C53.2363 51.8936 52.3032 51.0366 50.6338 51.0366C49.1738 51.0366 48.1328 51.7603 47.9551 52.833L47.9487 52.8711H49.0532L49.0596 52.8521C49.2373 52.3188 49.7769 52.0142 50.5957 52.0142C51.6177 52.0142 52.1318 52.4712 52.1318 53.3154V53.9375L50.1704 54.0581C48.5771 54.1533 47.6758 54.8579 47.6758 56.0767V56.0894C47.6758 57.3335 48.6597 58.1206 49.9609 58.1206ZM48.8057 56.064V56.0513C48.8057 55.3721 49.2627 55.0039 50.3037 54.9404L52.1318 54.8262V55.4482C52.1318 56.4258 51.313 57.1621 50.1895 57.1621C49.396 57.1621 48.8057 56.7559 48.8057 56.064ZM54.8469 58H55.9514V53.7598C55.9514 52.7949 56.6306 52.0142 57.5256 52.0142C58.3889 52.0142 58.9475 52.541 58.9475 53.3535V58H60.052V53.6011C60.052 52.7314 60.6804 52.0142 61.6325 52.0142C62.5974 52.0142 63.0608 52.5156 63.0608 53.5249V58H64.1652V53.271C64.1652 51.8364 63.3845 51.0366 61.988 51.0366C61.0422 51.0366 60.2614 51.5127 59.8933 52.2363H59.7917C59.4743 51.5254 58.8269 51.0366 57.9001 51.0366C57.0051 51.0366 56.3576 51.4619 56.0529 52.1982H55.9514V51.1572H54.8469V58ZM68.099 58.1206C69.6542 58.1206 70.8412 57.2764 70.8412 56.0576V56.0449C70.8412 55.0674 70.2192 54.5088 68.9306 54.1978L67.8769 53.9438C67.0707 53.7471 66.7279 53.4551 66.7279 52.9917V52.979C66.7279 52.376 67.3246 51.957 68.1371 51.957C68.9623 51.957 69.4955 52.3315 69.6415 52.8711H70.727C70.5746 51.7539 69.578 51.0366 68.1435 51.0366C66.6899 51.0366 65.5981 51.8936 65.5981 53.0298V53.0361C65.5981 54.02 66.1757 54.5786 67.4579 54.8833L68.518 55.1372C69.3622 55.3403 69.7113 55.6641 69.7113 56.1274V56.1401C69.7113 56.7622 69.0575 57.2002 68.1371 57.2002C67.2611 57.2002 66.7153 56.8257 66.5312 56.2544H65.4013C65.5282 57.3843 66.5756 58.1206 68.099 58.1206Z" fill="#7B83EB"/>
<defs>
<filter id="filter0_dd_807_14066" x="0" y="0" width="104" height="81" filterUnits="userSpaceOnUse" color-interpolation-filters="sRGB">
<feFlood flood-opacity="0" result="BackgroundImageFix"/>
<feColorMatrix in="SourceAlpha" type="matrix" values="0 0 0 0 0 0 0 0 0 0 0 0 0 0 0 0 0 0 127 0" result="hardAlpha"/>
<feMorphology radius="1" operator="erode" in="SourceAlpha" result="effect1_dropShadow_807_14066"/>
<feOffset dy="3"/>
<feGaussianBlur stdDeviation="4"/>
<feColorMatrix type="matrix" values="0 0 0 0 0.196078 0 0 0 0 0.196078 0 0 0 0 0.278431 0 0 0 0.05 0"/>
<feBlend mode="normal" in2="BackgroundImageFix" result="effect1_dropShadow_807_14066"/>
<feColorMatrix in="SourceAlpha" type="matrix" values="0 0 0 0 0 0 0 0 0 0 0 0 0 0 0 0 0 0 127 0" result="hardAlpha"/>
<feOffset/>
<feGaussianBlur stdDeviation="0.5"/>
<feColorMatrix type="matrix" values="0 0 0 0 0.0470588 0 0 0 0 0.101961 0 0 0 0 0.294118 0 0 0 0.24 0"/>
<feBlend mode="normal" in2="effect1_dropShadow_807_14066" result="effect2_dropShadow_807_14066"/>
<feBlend mode="normal" in="SourceGraphic" in2="effect2_dropShadow_807_14066" result="shape"/>
</filter>
<linearGradient id="paint0_linear_807_14066" x1="43.7776" y1="20.5947" x2="50.6678" y2="32.2799" gradientUnits="userSpaceOnUse">
<stop stop-color="#5A62C3"/>
<stop offset="0.5" stop-color="#4D55BD"/>
<stop offset="1" stop-color="#3940AB"/>
</linearGradient>
<clipPath id="clip0_807_14066">
<rect width="20" height="19" fill="white" transform="translate(42 17)"/>
</clipPath>
</defs>
</svg>
