<svg width="1341" height="124" viewBox="0 0 1341 124" fill="none" xmlns="http://www.w3.org/2000/svg">
<g filter="url(#filter0_dd_3827_41703)">
<rect x="7" y="4" width="1327" height="110" rx="14" fill="#043293"/>
</g>
<mask id="mask0_3827_41703" style="mask-type:alpha" maskUnits="userSpaceOnUse" x="7" y="4" width="1327" height="110">
<rect x="7" y="4" width="1327" height="110" rx="14" fill="#043293"/>
</mask>
<g mask="url(#mask0_3827_41703)">
<g style="mix-blend-mode:screen">
<g style="mix-blend-mode:screen">
<g style="mix-blend-mode:screen">
<path d="M266.651 16.04C268.755 16.04 270.462 14.6849 270.462 13.0132C270.462 11.3415 268.755 9.98633 266.651 9.98633C264.546 9.98633 262.84 11.3415 262.84 13.0132C262.84 14.6849 264.546 16.04 266.651 16.04Z" fill="white" fill-opacity="0.1"/>
</g>
<g style="mix-blend-mode:screen">
<path d="M266.651 33.3701C268.755 33.3701 270.462 32.0149 270.462 30.3433C270.462 28.6716 268.755 27.3164 266.651 27.3164C264.546 27.3164 262.84 28.6716 262.84 30.3433C262.84 32.0149 264.546 33.3701 266.651 33.3701Z" fill="white" fill-opacity="0.1"/>
</g>
<g style="mix-blend-mode:screen">
<path d="M266.651 50.6982C268.755 50.6982 270.462 49.3431 270.462 47.6714C270.462 45.9997 268.755 44.6445 266.651 44.6445C264.546 44.6445 262.84 45.9997 262.84 47.6714C262.84 49.3431 264.546 50.6982 266.651 50.6982Z" fill="white" fill-opacity="0.1"/>
</g>
</g>
<g style="mix-blend-mode:screen">
<g style="mix-blend-mode:screen">
<path d="M247.635 16.04C249.74 16.04 251.446 14.6849 251.446 13.0132C251.446 11.3415 249.74 9.98633 247.635 9.98633C245.53 9.98633 243.824 11.3415 243.824 13.0132C243.824 14.6849 245.53 16.04 247.635 16.04Z" fill="white" fill-opacity="0.1"/>
</g>
<g style="mix-blend-mode:screen">
<path d="M247.635 33.3701C249.74 33.3701 251.446 32.0149 251.446 30.3433C251.446 28.6716 249.74 27.3164 247.635 27.3164C245.53 27.3164 243.824 28.6716 243.824 30.3433C243.824 32.0149 245.53 33.3701 247.635 33.3701Z" fill="white" fill-opacity="0.1"/>
</g>
<g style="mix-blend-mode:screen">
<path d="M247.635 50.6982C249.74 50.6982 251.446 49.3431 251.446 47.6714C251.446 45.9997 249.74 44.6445 247.635 44.6445C245.53 44.6445 243.824 45.9997 243.824 47.6714C243.824 49.3431 245.53 50.6982 247.635 50.6982Z" fill="white" fill-opacity="0.1"/>
</g>
</g>
<g style="mix-blend-mode:screen">
<g style="mix-blend-mode:screen">
<path d="M228.619 16.04C230.724 16.04 232.43 14.6849 232.43 13.0132C232.43 11.3415 230.724 9.98633 228.619 9.98633C226.515 9.98633 224.809 11.3415 224.809 13.0132C224.809 14.6849 226.515 16.04 228.619 16.04Z" fill="white" fill-opacity="0.1"/>
</g>
<g style="mix-blend-mode:screen">
<path d="M228.619 33.3701C230.724 33.3701 232.43 32.0149 232.43 30.3433C232.43 28.6716 230.724 27.3164 228.619 27.3164C226.515 27.3164 224.809 28.6716 224.809 30.3433C224.809 32.0149 226.515 33.3701 228.619 33.3701Z" fill="white" fill-opacity="0.1"/>
</g>
<g style="mix-blend-mode:screen">
<path d="M228.619 50.6982C230.724 50.6982 232.43 49.3431 232.43 47.6714C232.43 45.9997 230.724 44.6445 228.619 44.6445C226.515 44.6445 224.809 45.9997 224.809 47.6714C224.809 49.3431 226.515 50.6982 228.619 50.6982Z" fill="white" fill-opacity="0.1"/>
</g>
</g>
</g>
<g style="mix-blend-mode:screen">
<g style="mix-blend-mode:screen">
<g style="mix-blend-mode:screen">
<path d="M90.389 72.0537C89.3783 72.0536 88.4092 71.7346 87.6945 71.167C86.9799 70.5994 86.5783 69.8296 86.5781 69.0268C86.5783 68.2241 86.9799 67.4543 87.6945 66.8867C88.4092 66.3191 89.3783 66.0001 90.389 66C91.3996 66.0001 92.3688 66.3191 93.0835 66.8867C93.7981 67.4543 94.1997 68.2241 94.1998 69.0268C94.1997 69.8296 93.7981 70.5994 93.0835 71.167C92.3688 71.7346 91.3996 72.0536 90.389 72.0537Z" fill="white" fill-opacity="0.1"/>
</g>
<g style="mix-blend-mode:screen">
<path d="M90.389 89.3838C89.3783 89.3836 88.4092 89.0647 87.6945 88.4971C86.9799 87.9295 86.5783 87.1597 86.5781 86.3569C86.5783 85.5542 86.9799 84.7844 87.6945 84.2168C88.4092 83.6492 89.3783 83.3302 90.389 83.3301C91.3996 83.3302 92.3688 83.6492 93.0835 84.2168C93.7981 84.7844 94.1997 85.5542 94.1998 86.3569C94.1997 87.1597 93.7981 87.9295 93.0835 88.4971C92.3688 89.0647 91.3996 89.3836 90.389 89.3838Z" fill="white" fill-opacity="0.1"/>
</g>
<g style="mix-blend-mode:screen">
<path d="M90.389 106.712C89.3783 106.712 88.4092 106.393 87.6945 105.825C86.9799 105.258 86.5783 104.488 86.5781 103.685C86.5779 103.288 86.6763 102.894 86.8676 102.526C87.059 102.159 87.3397 101.825 87.6936 101.544C88.0475 101.262 88.4677 101.039 88.9301 100.887C89.3926 100.735 89.8883 100.656 90.389 100.656C91.3996 100.656 92.3688 100.975 93.0835 101.543C93.7981 102.111 94.1997 102.88 94.1998 103.683C94.2001 104.081 94.1017 104.475 93.9103 104.842C93.7189 105.209 93.4383 105.543 93.0844 105.825C92.7305 106.106 92.3103 106.329 91.8478 106.481C91.3853 106.634 90.8896 106.712 90.389 106.712Z" fill="white" fill-opacity="0.1"/>
</g>
</g>
<g style="mix-blend-mode:screen">
<g style="mix-blend-mode:screen">
<path d="M71.3753 72.0537C70.3646 72.0537 69.3953 71.7348 68.6806 71.1672C67.966 70.5995 67.5645 69.8296 67.5645 69.0268C67.5645 68.2241 67.966 67.4542 68.6806 66.8865C69.3953 66.3189 70.3646 66 71.3753 66C72.3859 66.0001 73.355 66.3191 74.0695 66.8867C74.7841 67.4544 75.1855 68.2242 75.1855 69.0268C75.1855 69.8295 74.7841 70.5993 74.0695 71.167C73.355 71.7346 72.3859 72.0536 71.3753 72.0537Z" fill="white" fill-opacity="0.1"/>
</g>
<g style="mix-blend-mode:screen">
<path d="M71.3753 89.3838C70.3646 89.3838 69.3953 89.0649 68.6806 88.4972C67.966 87.9296 67.5645 87.1597 67.5645 86.3569C67.5645 85.5542 67.966 84.7843 68.6806 84.2166C69.3953 83.649 70.3646 83.3301 71.3753 83.3301C72.3859 83.3302 73.355 83.6492 74.0695 84.2168C74.7841 84.7844 75.1855 85.5542 75.1855 86.3569C75.1855 87.1596 74.7841 87.9294 74.0695 88.497C73.355 89.0647 72.3859 89.3836 71.3753 89.3838Z" fill="white" fill-opacity="0.1"/>
</g>
<g style="mix-blend-mode:screen">
<path d="M71.3753 106.712C70.3646 106.712 69.3953 106.393 68.6806 105.826C67.966 105.258 67.5645 104.488 67.5645 103.685C67.5641 103.288 67.6624 102.894 67.8538 102.526C68.0451 102.159 68.3258 101.825 68.6797 101.544C69.0336 101.262 69.4538 101.039 69.9164 100.887C70.3789 100.735 70.8746 100.656 71.3753 100.656C72.3859 100.656 73.355 100.975 74.0695 101.543C74.7841 102.111 75.1855 102.88 75.1855 103.683C75.1858 104.081 75.0875 104.475 74.8962 104.842C74.7049 105.209 74.4243 105.543 74.0705 105.825C73.7166 106.106 73.2965 106.329 72.8341 106.481C72.3716 106.634 71.8759 106.712 71.3753 106.712Z" fill="white" fill-opacity="0.1"/>
</g>
</g>
<g style="mix-blend-mode:screen">
<g style="mix-blend-mode:screen">
<path d="M52.358 72.0537C51.3474 72.0536 50.3783 71.7346 49.6638 71.167C48.9493 70.5993 48.5479 69.8295 48.5479 69.0268C48.5479 68.2242 48.9493 67.4544 49.6638 66.8867C50.3783 66.3191 51.3474 66.0001 52.358 66C53.3687 66 54.338 66.3189 55.0527 66.8865C55.7674 67.4542 56.1689 68.2241 56.1689 69.0268C56.1689 69.8296 55.7674 70.5995 55.0527 71.1672C54.338 71.7348 53.3687 72.0537 52.358 72.0537Z" fill="white" fill-opacity="0.1"/>
</g>
<g style="mix-blend-mode:screen">
<path d="M52.358 89.3836C51.3479 89.3835 50.3792 89.0648 49.6647 88.4976C48.9503 87.9305 48.5486 87.1612 48.5479 86.3589C48.5479 85.5562 48.9493 84.7864 49.6638 84.2188C50.3783 83.6511 51.3474 83.3322 52.358 83.332C53.3684 83.3325 54.3372 83.6515 55.0514 84.2191C55.7657 84.7867 56.1669 85.5564 56.1669 86.3589C56.1662 87.161 55.7646 87.9301 55.0505 88.4973C54.3363 89.0644 53.3679 89.3832 52.358 89.3836Z" fill="white" fill-opacity="0.1"/>
</g>
<g style="mix-blend-mode:screen">
<path d="M52.358 106.712C51.3474 106.712 50.3783 106.393 49.6638 105.825C48.9493 105.258 48.5479 104.488 48.5479 103.685C48.5475 103.288 48.6458 102.894 48.8371 102.526C49.0284 102.159 49.309 101.825 49.6628 101.544C50.0167 101.262 50.4368 101.039 50.8993 100.887C51.3617 100.735 51.8574 100.656 52.358 100.656C52.8585 100.656 53.3541 100.735 53.8164 100.887C54.2787 101.04 54.6987 101.263 55.0524 101.544C55.406 101.825 55.6865 102.159 55.8778 102.527C56.069 102.894 56.1672 103.288 56.1669 103.685C56.1669 104.488 55.7657 105.257 55.0514 105.825C54.3372 106.393 53.3684 106.712 52.358 106.712Z" fill="white" fill-opacity="0.1"/>
</g>
</g>
</g>
<g style="mix-blend-mode:screen">
<g style="mix-blend-mode:screen">
<g style="mix-blend-mode:screen">
<path d="M1317.2 74.2339C1317.2 75.9056 1318.91 77.2607 1321.01 77.2607C1323.12 77.2607 1324.82 75.9056 1324.82 74.2339C1324.82 72.5622 1323.12 71.207 1321.01 71.207C1318.91 71.207 1317.2 72.5622 1317.2 74.2339Z" fill="white" fill-opacity="0.1"/>
</g>
<g style="mix-blend-mode:screen">
<path d="M1295.38 74.2339C1295.38 75.9056 1297.09 77.2607 1299.2 77.2607C1301.3 77.2607 1303.01 75.9056 1303.01 74.2339C1303.01 72.5622 1301.3 71.207 1299.2 71.207C1297.09 71.207 1295.38 72.5622 1295.38 74.2339Z" fill="white" fill-opacity="0.1"/>
</g>
<g style="mix-blend-mode:screen">
<path d="M1273.57 74.2339C1273.57 75.9056 1275.27 77.2607 1277.38 77.2607C1279.48 77.2607 1281.19 75.9056 1281.19 74.2339C1281.19 72.5622 1279.48 71.207 1277.38 71.207C1275.27 71.207 1273.57 72.5622 1273.57 74.2339Z" fill="white" fill-opacity="0.1"/>
</g>
</g>
<g style="mix-blend-mode:screen">
<g style="mix-blend-mode:screen">
<path d="M1317.2 59.1304C1317.2 60.802 1318.91 62.1572 1321.01 62.1572C1323.12 62.1572 1324.82 60.802 1324.82 59.1304C1324.82 57.4587 1323.12 56.1035 1321.01 56.1035C1318.91 56.1035 1317.2 57.4587 1317.2 59.1304Z" fill="white" fill-opacity="0.1"/>
</g>
<g style="mix-blend-mode:screen">
<path d="M1295.38 59.1304C1295.38 60.802 1297.09 62.1572 1299.2 62.1572C1301.3 62.1572 1303.01 60.802 1303.01 59.1304C1303.01 57.4587 1301.3 56.1035 1299.2 56.1035C1297.09 56.1035 1295.38 57.4587 1295.38 59.1304Z" fill="white" fill-opacity="0.1"/>
</g>
<g style="mix-blend-mode:screen">
<path d="M1273.57 59.1304C1273.57 60.802 1275.27 62.1572 1277.38 62.1572C1279.48 62.1572 1281.19 60.802 1281.19 59.1304C1281.19 57.4587 1279.48 56.1035 1277.38 56.1035C1275.27 56.1035 1273.57 57.4587 1273.57 59.1304Z" fill="white" fill-opacity="0.1"/>
</g>
</g>
<g style="mix-blend-mode:screen">
<g style="mix-blend-mode:screen">
<path d="M1317.2 44.0268C1317.2 45.6985 1318.91 47.0537 1321.01 47.0537C1323.12 47.0537 1324.82 45.6985 1324.82 44.0268C1324.82 42.3552 1323.12 41 1321.01 41C1318.91 41 1317.2 42.3552 1317.2 44.0268Z" fill="white" fill-opacity="0.1"/>
</g>
<g style="mix-blend-mode:screen">
<path d="M1295.38 44.0268C1295.38 45.6985 1297.09 47.0537 1299.2 47.0537C1301.3 47.0537 1303.01 45.6985 1303.01 44.0268C1303.01 42.3552 1301.3 41 1299.2 41C1297.09 41 1295.38 42.3552 1295.38 44.0268Z" fill="white" fill-opacity="0.1"/>
</g>
<g style="mix-blend-mode:screen">
<path d="M1273.57 44.0268C1273.57 45.6985 1275.27 47.0537 1277.38 47.0537C1279.48 47.0537 1281.19 45.6985 1281.19 44.0268C1281.19 42.3552 1279.48 41 1277.38 41C1275.27 41 1273.57 42.3552 1273.57 44.0268Z" fill="white" fill-opacity="0.1"/>
</g>
</g>
</g>
<path d="M457.674 26.9712C457.674 27.9559 457.306 28.9186 456.617 29.7374C455.929 30.5562 454.95 31.1943 453.804 31.5712C452.659 31.948 451.398 32.0466 450.182 31.8545C448.966 31.6624 447.849 31.1882 446.973 30.4919C446.096 29.7956 445.499 28.9084 445.257 27.9425C445.015 26.9767 445.139 25.9756 445.614 25.0658C446.088 24.156 446.892 23.3784 447.923 22.8313C448.954 22.2842 450.165 21.9922 451.405 21.9922C453.068 21.9922 454.662 22.5168 455.838 23.4505C457.014 24.3842 457.674 25.6507 457.674 26.9712Z" fill="white" fill-opacity="0.1"/>
<path d="M135.367 21.9702C135.367 22.9547 134.999 23.9172 134.311 24.7358C133.622 25.5545 132.643 26.1925 131.498 26.5693C130.353 26.946 129.092 27.0446 127.877 26.8525C126.661 26.6605 125.544 26.1864 124.668 25.4902C123.791 24.794 123.194 23.907 122.952 22.9413C122.711 21.9757 122.835 20.9748 123.309 20.0652C123.783 19.1556 124.587 18.3781 125.617 17.8311C126.648 17.2841 127.86 16.9922 129.099 16.9922C130.762 16.9922 132.356 17.5167 133.531 18.4502C134.706 19.3838 135.367 20.6499 135.367 21.9702Z" fill="white" fill-opacity="0.1"/>
<path d="M943.653 78.9712C943.653 79.9557 943.285 80.918 942.596 81.7365C941.907 82.555 940.928 83.1929 939.783 83.5695C938.638 83.9462 937.378 84.0446 936.162 83.8524C934.946 83.6602 933.83 83.186 932.953 82.4898C932.077 81.7936 931.48 80.9066 931.238 79.941C930.997 78.9754 931.121 77.9745 931.595 77.065C932.07 76.1554 932.873 75.378 933.904 74.8311C934.934 74.2841 936.146 73.9922 937.385 73.9922C938.209 73.9922 939.024 74.121 939.784 74.3712C940.545 74.6214 941.236 74.9882 941.818 75.4506C942.4 75.9129 942.861 76.4618 943.176 77.0659C943.491 77.67 943.653 78.3174 943.653 78.9712Z" fill="white" fill-opacity="0.1"/>
</g>
<g filter="url(#filter1_dd_3827_41703)">
<path d="M553.997 4H1320C1327.73 4 1334 10.268 1334 18V100C1334 107.732 1327.73 114 1320 114H937.647L553.997 4Z" fill="#528DF6" fill-opacity="0.3"/>
</g>
<defs>
<filter id="filter0_dd_3827_41703" x="0" y="0" width="1341" height="124" filterUnits="userSpaceOnUse" color-interpolation-filters="sRGB">
<feFlood flood-opacity="0" result="BackgroundImageFix"/>
<feColorMatrix in="SourceAlpha" type="matrix" values="0 0 0 0 0 0 0 0 0 0 0 0 0 0 0 0 0 0 127 0" result="hardAlpha"/>
<feMorphology radius="1" operator="erode" in="SourceAlpha" result="effect1_dropShadow_3827_41703"/>
<feOffset dy="3"/>
<feGaussianBlur stdDeviation="4"/>
<feColorMatrix type="matrix" values="0 0 0 0 0.196078 0 0 0 0 0.196078 0 0 0 0 0.278431 0 0 0 0.05 0"/>
<feBlend mode="normal" in2="BackgroundImageFix" result="effect1_dropShadow_3827_41703"/>
<feColorMatrix in="SourceAlpha" type="matrix" values="0 0 0 0 0 0 0 0 0 0 0 0 0 0 0 0 0 0 127 0" result="hardAlpha"/>
<feOffset/>
<feGaussianBlur stdDeviation="0.5"/>
<feColorMatrix type="matrix" values="0 0 0 0 0.0470588 0 0 0 0 0.101961 0 0 0 0 0.294118 0 0 0 0.24 0"/>
<feBlend mode="normal" in2="effect1_dropShadow_3827_41703" result="effect2_dropShadow_3827_41703"/>
<feBlend mode="normal" in="SourceGraphic" in2="effect2_dropShadow_3827_41703" result="shape"/>
</filter>
<filter id="filter1_dd_3827_41703" x="546.997" y="0" width="794.003" height="124" filterUnits="userSpaceOnUse" color-interpolation-filters="sRGB">
<feFlood flood-opacity="0" result="BackgroundImageFix"/>
<feColorMatrix in="SourceAlpha" type="matrix" values="0 0 0 0 0 0 0 0 0 0 0 0 0 0 0 0 0 0 127 0" result="hardAlpha"/>
<feMorphology radius="1" operator="erode" in="SourceAlpha" result="effect1_dropShadow_3827_41703"/>
<feOffset dy="3"/>
<feGaussianBlur stdDeviation="4"/>
<feColorMatrix type="matrix" values="0 0 0 0 0.196078 0 0 0 0 0.196078 0 0 0 0 0.278431 0 0 0 0.05 0"/>
<feBlend mode="normal" in2="BackgroundImageFix" result="effect1_dropShadow_3827_41703"/>
<feColorMatrix in="SourceAlpha" type="matrix" values="0 0 0 0 0 0 0 0 0 0 0 0 0 0 0 0 0 0 127 0" result="hardAlpha"/>
<feOffset/>
<feGaussianBlur stdDeviation="0.5"/>
<feColorMatrix type="matrix" values="0 0 0 0 0.0470588 0 0 0 0 0.101961 0 0 0 0 0.294118 0 0 0 0.24 0"/>
<feBlend mode="normal" in2="effect1_dropShadow_3827_41703" result="effect2_dropShadow_3827_41703"/>
<feBlend mode="normal" in="SourceGraphic" in2="effect2_dropShadow_3827_41703" result="shape"/>
</filter>
</defs>
</svg>
