<svg width="1268" height="124" viewBox="0 0 1268 124" fill="none" xmlns="http://www.w3.org/2000/svg">
<g filter="url(#filter0_dd_3776_58062)">
<rect x="7" y="4" width="1254" height="110" rx="14" fill="#043293"/>
</g>
<mask id="mask0_3776_58062" style="mask-type:alpha" maskUnits="userSpaceOnUse" x="7" y="4" width="1254" height="110">
<rect x="7" y="4" width="1254" height="110" rx="14" fill="#043293"/>
</mask>
<g mask="url(#mask0_3776_58062)">
<g style="mix-blend-mode:screen">
<g style="mix-blend-mode:screen">
<g style="mix-blend-mode:screen">
<path d="M252.367 16.04C254.356 16.04 255.968 14.6849 255.968 13.0132C255.968 11.3415 254.356 9.98633 252.367 9.98633C250.378 9.98633 248.766 11.3415 248.766 13.0132C248.766 14.6849 250.378 16.04 252.367 16.04Z" fill="white" fill-opacity="0.1"/>
</g>
<g style="mix-blend-mode:screen">
<path d="M252.367 33.3701C254.356 33.3701 255.968 32.0149 255.968 30.3433C255.968 28.6716 254.356 27.3164 252.367 27.3164C250.378 27.3164 248.766 28.6716 248.766 30.3433C248.766 32.0149 250.378 33.3701 252.367 33.3701Z" fill="white" fill-opacity="0.1"/>
</g>
<g style="mix-blend-mode:screen">
<path d="M252.367 50.6982C254.356 50.6982 255.968 49.3431 255.968 47.6714C255.968 45.9997 254.356 44.6445 252.367 44.6445C250.378 44.6445 248.766 45.9997 248.766 47.6714C248.766 49.3431 250.378 50.6982 252.367 50.6982Z" fill="white" fill-opacity="0.1"/>
</g>
</g>
<g style="mix-blend-mode:screen">
<g style="mix-blend-mode:screen">
<path d="M234.397 16.04C236.386 16.04 237.998 14.6849 237.998 13.0132C237.998 11.3415 236.386 9.98633 234.397 9.98633C232.408 9.98633 230.796 11.3415 230.796 13.0132C230.796 14.6849 232.408 16.04 234.397 16.04Z" fill="white" fill-opacity="0.1"/>
</g>
<g style="mix-blend-mode:screen">
<path d="M234.397 33.3701C236.386 33.3701 237.998 32.0149 237.998 30.3433C237.998 28.6716 236.386 27.3164 234.397 27.3164C232.408 27.3164 230.796 28.6716 230.796 30.3433C230.796 32.0149 232.408 33.3701 234.397 33.3701Z" fill="white" fill-opacity="0.1"/>
</g>
<g style="mix-blend-mode:screen">
<path d="M234.397 50.6982C236.386 50.6982 237.998 49.3431 237.998 47.6714C237.998 45.9997 236.386 44.6445 234.397 44.6445C232.408 44.6445 230.796 45.9997 230.796 47.6714C230.796 49.3431 232.408 50.6982 234.397 50.6982Z" fill="white" fill-opacity="0.1"/>
</g>
</g>
<g style="mix-blend-mode:screen">
<g style="mix-blend-mode:screen">
<path d="M216.428 16.04C218.417 16.04 220.03 14.6849 220.03 13.0132C220.03 11.3415 218.417 9.98633 216.428 9.98633C214.439 9.98633 212.827 11.3415 212.827 13.0132C212.827 14.6849 214.439 16.04 216.428 16.04Z" fill="white" fill-opacity="0.1"/>
</g>
<g style="mix-blend-mode:screen">
<path d="M216.428 33.3701C218.417 33.3701 220.03 32.0149 220.03 30.3433C220.03 28.6716 218.417 27.3164 216.428 27.3164C214.439 27.3164 212.827 28.6716 212.827 30.3433C212.827 32.0149 214.439 33.3701 216.428 33.3701Z" fill="white" fill-opacity="0.1"/>
</g>
<g style="mix-blend-mode:screen">
<path d="M216.428 50.6982C218.417 50.6982 220.03 49.3431 220.03 47.6714C220.03 45.9997 218.417 44.6445 216.428 44.6445C214.439 44.6445 212.827 45.9997 212.827 47.6714C212.827 49.3431 214.439 50.6982 216.428 50.6982Z" fill="white" fill-opacity="0.1"/>
</g>
</g>
</g>
<g style="mix-blend-mode:screen">
<g style="mix-blend-mode:screen">
<g style="mix-blend-mode:screen">
<path d="M85.8004 72.0537C84.8454 72.0536 83.9295 71.7346 83.2542 71.167C82.5789 70.5994 82.1994 69.8296 82.1992 69.0268C82.1994 68.2241 82.5789 67.4543 83.2542 66.8867C83.9295 66.3191 84.8454 66.0001 85.8004 66C86.7555 66.0001 87.6714 66.3191 88.3467 66.8867C89.022 67.4543 89.4015 68.2241 89.4017 69.0268C89.4015 69.8296 89.022 70.5994 88.3467 71.167C87.6714 71.7346 86.7555 72.0536 85.8004 72.0537Z" fill="white" fill-opacity="0.1"/>
</g>
<g style="mix-blend-mode:screen">
<path d="M85.8004 89.3838C84.8454 89.3836 83.9295 89.0647 83.2542 88.4971C82.5789 87.9295 82.1994 87.1597 82.1992 86.3569C82.1994 85.5542 82.5789 84.7844 83.2542 84.2168C83.9295 83.6492 84.8454 83.3302 85.8004 83.3301C86.7555 83.3302 87.6714 83.6492 88.3467 84.2168C89.022 84.7844 89.4015 85.5542 89.4017 86.3569C89.4015 87.1597 89.022 87.9295 88.3467 88.4971C87.6714 89.0647 86.7555 89.3836 85.8004 89.3838Z" fill="white" fill-opacity="0.1"/>
</g>
<g style="mix-blend-mode:screen">
<path d="M85.8004 106.712C84.8454 106.712 83.9295 106.393 83.2542 105.825C82.5789 105.258 82.1994 104.488 82.1992 103.685C82.199 103.288 82.292 102.894 82.4728 102.526C82.6537 102.159 82.9189 101.825 83.2533 101.544C83.5877 101.262 83.9848 101.039 84.4219 100.887C84.8589 100.735 85.3273 100.656 85.8004 100.656C86.7555 100.656 87.6714 100.975 88.3467 101.543C89.022 102.111 89.4015 102.88 89.4017 103.683C89.4019 104.081 89.3089 104.475 89.1281 104.842C88.9472 105.209 88.682 105.543 88.3476 105.825C88.0131 106.106 87.6161 106.329 87.179 106.481C86.742 106.634 86.2735 106.712 85.8004 106.712Z" fill="white" fill-opacity="0.1"/>
</g>
</g>
<g style="mix-blend-mode:screen">
<g style="mix-blend-mode:screen">
<path d="M67.8326 72.0537C66.8775 72.0537 65.9616 71.7348 65.2862 71.1672C64.6109 70.5995 64.2314 69.8296 64.2314 69.0268C64.2314 68.2241 64.6109 67.4542 65.2862 66.8865C65.9616 66.3189 66.8775 66 67.8326 66C68.7876 66.0001 69.7035 66.3191 70.3787 66.8867C71.0539 67.4544 71.4332 68.2242 71.4332 69.0268C71.4332 69.8295 71.0539 70.5993 70.3787 71.167C69.7035 71.7346 68.7876 72.0536 67.8326 72.0537Z" fill="white" fill-opacity="0.1"/>
</g>
<g style="mix-blend-mode:screen">
<path d="M67.8326 89.3838C66.8775 89.3838 65.9616 89.0649 65.2862 88.4972C64.6109 87.9296 64.2314 87.1597 64.2314 86.3569C64.2314 85.5542 64.6109 84.7843 65.2862 84.2166C65.9616 83.649 66.8775 83.3301 67.8326 83.3301C68.7876 83.3302 69.7035 83.6492 70.3787 84.2168C71.0539 84.7844 71.4332 85.5542 71.4332 86.3569C71.4332 87.1596 71.0539 87.9294 70.3787 88.497C69.7035 89.0647 68.7876 89.3836 67.8326 89.3838Z" fill="white" fill-opacity="0.1"/>
</g>
<g style="mix-blend-mode:screen">
<path d="M67.8326 106.712C66.8776 106.712 65.9616 106.393 65.2862 105.826C64.6109 105.258 64.2314 104.488 64.2314 103.685C64.2311 103.288 64.324 102.894 64.5048 102.526C64.6857 102.159 64.9509 101.825 65.2853 101.544C65.6197 101.262 66.0169 101.039 66.454 100.887C66.891 100.735 67.3595 100.656 67.8326 100.656C68.7876 100.656 69.7035 100.975 70.3787 101.543C71.0539 102.111 71.4332 102.88 71.4332 103.683C71.4336 104.081 71.3407 104.475 71.1599 104.842C70.9791 105.209 70.7139 105.543 70.3796 105.825C70.0452 106.106 69.6482 106.329 69.2112 106.481C68.7742 106.634 68.3057 106.712 67.8326 106.712Z" fill="white" fill-opacity="0.1"/>
</g>
</g>
<g style="mix-blend-mode:screen">
<g style="mix-blend-mode:screen">
<path d="M49.8613 72.0537C48.9063 72.0536 47.9905 71.7346 47.3153 71.167C46.6401 70.5993 46.2607 69.8295 46.2607 69.0268C46.2607 68.2242 46.6401 67.4544 47.3153 66.8867C47.9905 66.3191 48.9063 66.0001 49.8613 66C50.8164 66 51.7324 66.3189 52.4078 66.8865C53.0831 67.4542 53.4625 68.2241 53.4625 69.0268C53.4625 69.8296 53.0831 70.5995 52.4078 71.1672C51.7324 71.7348 50.8164 72.0537 49.8613 72.0537Z" fill="white" fill-opacity="0.1"/>
</g>
<g style="mix-blend-mode:screen">
<path d="M49.8613 89.3836C48.9068 89.3835 47.9913 89.0648 47.3162 88.4976C46.641 87.9305 46.2614 87.1612 46.2607 86.3589C46.2607 85.5562 46.6401 84.7864 47.3153 84.2188C47.9905 83.6511 48.9063 83.3322 49.8613 83.332C50.8161 83.3325 51.7316 83.6515 52.4065 84.2191C53.0815 84.7867 53.4606 85.5564 53.4606 86.3589C53.46 87.161 53.0805 87.9301 52.4057 88.4973C51.7308 89.0644 50.8156 89.3832 49.8613 89.3836Z" fill="white" fill-opacity="0.1"/>
</g>
<g style="mix-blend-mode:screen">
<path d="M49.8613 106.712C48.9063 106.712 47.9905 106.393 47.3153 105.825C46.6401 105.258 46.2607 104.488 46.2607 103.685C46.2604 103.288 46.3533 102.894 46.5341 102.526C46.7149 102.159 46.98 101.825 47.3144 101.544C47.6488 101.262 48.0458 101.039 48.4828 100.887C48.9198 100.735 49.3882 100.656 49.8613 100.656C50.3343 100.656 50.8026 100.735 51.2395 100.887C51.6763 101.04 52.0732 101.263 52.4074 101.544C52.7417 101.825 53.0067 102.159 53.1874 102.527C53.3681 102.894 53.461 103.288 53.4606 103.685C53.4606 104.488 53.0815 105.257 52.4065 105.825C51.7316 106.393 50.8161 106.712 49.8613 106.712Z" fill="white" fill-opacity="0.1"/>
</g>
</g>
</g>
<g style="mix-blend-mode:screen">
<g style="mix-blend-mode:screen">
<g style="mix-blend-mode:screen">
<path d="M1245.13 74.2339C1245.13 75.9056 1246.74 77.2607 1248.73 77.2607C1250.72 77.2607 1252.33 75.9056 1252.33 74.2339C1252.33 72.5622 1250.72 71.207 1248.73 71.207C1246.74 71.207 1245.13 72.5622 1245.13 74.2339Z" fill="white" fill-opacity="0.1"/>
</g>
<g style="mix-blend-mode:screen">
<path d="M1224.51 74.2339C1224.51 75.9056 1226.12 77.2607 1228.11 77.2607C1230.1 77.2607 1231.71 75.9056 1231.71 74.2339C1231.71 72.5622 1230.1 71.207 1228.11 71.207C1226.12 71.207 1224.51 72.5622 1224.51 74.2339Z" fill="white" fill-opacity="0.1"/>
</g>
<g style="mix-blend-mode:screen">
<path d="M1203.89 74.2339C1203.89 75.9056 1205.5 77.2607 1207.49 77.2607C1209.48 77.2607 1211.09 75.9056 1211.09 74.2339C1211.09 72.5622 1209.48 71.207 1207.49 71.207C1205.5 71.207 1203.89 72.5622 1203.89 74.2339Z" fill="white" fill-opacity="0.1"/>
</g>
</g>
<g style="mix-blend-mode:screen">
<g style="mix-blend-mode:screen">
<path d="M1245.13 59.1304C1245.13 60.802 1246.74 62.1572 1248.73 62.1572C1250.72 62.1572 1252.33 60.802 1252.33 59.1304C1252.33 57.4587 1250.72 56.1035 1248.73 56.1035C1246.74 56.1035 1245.13 57.4587 1245.13 59.1304Z" fill="white" fill-opacity="0.1"/>
</g>
<g style="mix-blend-mode:screen">
<path d="M1224.51 59.1304C1224.51 60.802 1226.12 62.1572 1228.11 62.1572C1230.1 62.1572 1231.71 60.802 1231.71 59.1304C1231.71 57.4587 1230.1 56.1035 1228.11 56.1035C1226.12 56.1035 1224.51 57.4587 1224.51 59.1304Z" fill="white" fill-opacity="0.1"/>
</g>
<g style="mix-blend-mode:screen">
<path d="M1203.89 59.1304C1203.89 60.802 1205.5 62.1572 1207.49 62.1572C1209.48 62.1572 1211.09 60.802 1211.09 59.1304C1211.09 57.4587 1209.48 56.1035 1207.49 56.1035C1205.5 56.1035 1203.89 57.4587 1203.89 59.1304Z" fill="white" fill-opacity="0.1"/>
</g>
</g>
<g style="mix-blend-mode:screen">
<g style="mix-blend-mode:screen">
<path d="M1245.13 44.0268C1245.13 45.6985 1246.74 47.0537 1248.73 47.0537C1250.72 47.0537 1252.33 45.6985 1252.33 44.0268C1252.33 42.3552 1250.72 41 1248.73 41C1246.74 41 1245.13 42.3552 1245.13 44.0268Z" fill="white" fill-opacity="0.1"/>
</g>
<g style="mix-blend-mode:screen">
<path d="M1224.51 44.0268C1224.51 45.6985 1226.12 47.0537 1228.11 47.0537C1230.1 47.0537 1231.71 45.6985 1231.71 44.0268C1231.71 42.3552 1230.1 41 1228.11 41C1226.12 41 1224.51 42.3552 1224.51 44.0268Z" fill="white" fill-opacity="0.1"/>
</g>
<g style="mix-blend-mode:screen">
<path d="M1203.89 44.0268C1203.89 45.6985 1205.5 47.0537 1207.49 47.0537C1209.48 47.0537 1211.09 45.6985 1211.09 44.0268C1211.09 42.3552 1209.48 41 1207.49 41C1205.5 41 1203.89 42.3552 1203.89 44.0268Z" fill="white" fill-opacity="0.1"/>
</g>
</g>
</g>
<path d="M432.882 26.9712C432.882 27.9559 432.534 28.9186 431.883 29.7374C431.232 30.5562 430.307 31.1943 429.225 31.5712C428.142 31.948 426.951 32.0466 425.802 31.8545C424.653 31.6624 423.598 31.1882 422.769 30.4919C421.941 29.7956 421.377 28.9084 421.148 27.9425C420.919 26.9767 421.037 25.9756 421.485 25.0658C421.933 24.156 422.693 23.3784 423.667 22.8313C424.641 22.2842 425.786 21.9922 426.958 21.9922C428.529 21.9922 430.036 22.5168 431.147 23.4505C432.258 24.3842 432.882 25.6507 432.882 26.9712Z" fill="white" fill-opacity="0.1"/>
<path d="M128.304 21.9702C128.304 22.9547 127.957 23.9172 127.306 24.7358C126.655 25.5545 125.73 26.1925 124.648 26.5693C123.566 26.946 122.375 27.0446 121.226 26.8525C120.077 26.6605 119.022 26.1864 118.194 25.4902C117.365 24.794 116.801 23.907 116.573 22.9413C116.344 21.9757 116.462 20.9748 116.91 20.0652C117.358 19.1556 118.117 18.3781 119.091 17.8311C120.065 17.2841 121.21 16.9922 122.382 16.9922C123.952 16.9922 125.459 17.5167 126.569 18.4502C127.68 19.3838 128.304 20.6499 128.304 21.9702Z" fill="white" fill-opacity="0.1"/>
<path d="M892.124 78.9712C892.124 79.9557 891.777 80.918 891.126 81.7365C890.475 82.555 889.55 83.1929 888.467 83.5695C887.385 83.9462 886.195 84.0446 885.046 83.8524C883.897 83.6602 882.842 83.186 882.014 82.4898C881.185 81.7936 880.621 80.9066 880.393 79.941C880.165 78.9754 880.282 77.9745 880.73 77.065C881.179 76.1554 881.938 75.378 882.912 74.8311C883.885 74.2841 885.03 73.9922 886.202 73.9922C886.98 73.9922 887.75 74.121 888.469 74.3712C889.187 74.6214 889.84 74.9882 890.39 75.4506C890.94 75.9129 891.376 76.4618 891.674 77.0659C891.971 77.67 892.125 78.3174 892.124 78.9712Z" fill="white" fill-opacity="0.1"/>
</g>
<g filter="url(#filter1_dd_3776_58062)">
<path d="M523.906 4H1247C1254.73 4 1261 10.268 1261 18V100C1261 107.732 1254.73 114 1247 114H886.451L523.906 4Z" fill="#528DF6" fill-opacity="0.3"/>
</g>
<defs>
<filter id="filter0_dd_3776_58062" x="0" y="0" width="1268" height="124" filterUnits="userSpaceOnUse" color-interpolation-filters="sRGB">
<feFlood flood-opacity="0" result="BackgroundImageFix"/>
<feColorMatrix in="SourceAlpha" type="matrix" values="0 0 0 0 0 0 0 0 0 0 0 0 0 0 0 0 0 0 127 0" result="hardAlpha"/>
<feMorphology radius="1" operator="erode" in="SourceAlpha" result="effect1_dropShadow_3776_58062"/>
<feOffset dy="3"/>
<feGaussianBlur stdDeviation="4"/>
<feColorMatrix type="matrix" values="0 0 0 0 0.196078 0 0 0 0 0.196078 0 0 0 0 0.278431 0 0 0 0.05 0"/>
<feBlend mode="normal" in2="BackgroundImageFix" result="effect1_dropShadow_3776_58062"/>
<feColorMatrix in="SourceAlpha" type="matrix" values="0 0 0 0 0 0 0 0 0 0 0 0 0 0 0 0 0 0 127 0" result="hardAlpha"/>
<feOffset/>
<feGaussianBlur stdDeviation="0.5"/>
<feColorMatrix type="matrix" values="0 0 0 0 0.0470588 0 0 0 0 0.101961 0 0 0 0 0.294118 0 0 0 0.24 0"/>
<feBlend mode="normal" in2="effect1_dropShadow_3776_58062" result="effect2_dropShadow_3776_58062"/>
<feBlend mode="normal" in="SourceGraphic" in2="effect2_dropShadow_3776_58062" result="shape"/>
</filter>
<filter id="filter1_dd_3776_58062" x="516.906" y="0" width="751.094" height="124" filterUnits="userSpaceOnUse" color-interpolation-filters="sRGB">
<feFlood flood-opacity="0" result="BackgroundImageFix"/>
<feColorMatrix in="SourceAlpha" type="matrix" values="0 0 0 0 0 0 0 0 0 0 0 0 0 0 0 0 0 0 127 0" result="hardAlpha"/>
<feMorphology radius="1" operator="erode" in="SourceAlpha" result="effect1_dropShadow_3776_58062"/>
<feOffset dy="3"/>
<feGaussianBlur stdDeviation="4"/>
<feColorMatrix type="matrix" values="0 0 0 0 0.196078 0 0 0 0 0.196078 0 0 0 0 0.278431 0 0 0 0.05 0"/>
<feBlend mode="normal" in2="BackgroundImageFix" result="effect1_dropShadow_3776_58062"/>
<feColorMatrix in="SourceAlpha" type="matrix" values="0 0 0 0 0 0 0 0 0 0 0 0 0 0 0 0 0 0 127 0" result="hardAlpha"/>
<feOffset/>
<feGaussianBlur stdDeviation="0.5"/>
<feColorMatrix type="matrix" values="0 0 0 0 0.0470588 0 0 0 0 0.101961 0 0 0 0 0.294118 0 0 0 0.24 0"/>
<feBlend mode="normal" in2="effect1_dropShadow_3776_58062" result="effect2_dropShadow_3776_58062"/>
<feBlend mode="normal" in="SourceGraphic" in2="effect2_dropShadow_3776_58062" result="shape"/>
</filter>
</defs>
</svg>
