<svg width="22" height="16" viewBox="0 0 22 16" fill="none" xmlns="http://www.w3.org/2000/svg">
<path d="M3.48014 1.18006C4.60014 3.52006 6.60013 5.18006 8.90013 6.02006C9.74013 6.36006 10.7001 6.56006 11.5201 6.64006L12.9801 6.64006L12.9801 2.14006C12.9801 1.80006 13.3601 1.56006 13.7401 1.80006L20.8201 7.72006C21.0801 7.92006 21.0801 8.38006 20.8201 8.56006L13.7401 14.3001C13.4801 14.5001 12.9801 14.3001 12.9801 13.9601L12.9801 9.42006L11.5201 9.42006C10.6401 9.54006 9.68014 9.76006 8.90013 10.0401C6.60013 10.8801 4.60014 12.5401 3.48014 14.8801C3.36014 15.2201 2.94014 15.3401 2.64013 15.2201L1.34014 14.6801C1.00014 14.5201 0.880136 14.1401 1.08014 13.8001C2.28014 11.3001 4.20014 9.30006 6.50014 8.10006C4.20014 6.84006 2.30014 4.90006 1.08013 2.34006C0.920135 2.00006 0.960134 1.58006 1.34013 1.46006L2.64013 0.92006C2.94014 0.680059 3.32013 0.84006 3.48014 1.18006Z" fill="#4F4F4F"/>
</svg>
