<svg width="19" height="23" viewBox="0 0 19 23" fill="none" xmlns="http://www.w3.org/2000/svg">
<path d="M13 0.234863H2C0.9 0.234863 0 1.13486 0 2.23486V15.2349C0 15.7849 0.45 16.2349 1 16.2349C1.55 16.2349 2 15.7849 2 15.2349V3.23486C2 2.68486 2.45 2.23486 3 2.23486H13C13.55 2.23486 14 1.78486 14 1.23486C14 0.684863 13.55 0.234863 13 0.234863ZM13.59 4.82486L18.42 9.65486C18.79 10.0249 19 10.5349 19 11.0649V20.2349C19 21.3349 18.1 22.2349 17 22.2349H5.99C4.89 22.2349 4 21.3349 4 20.2349L4.01 6.23486C4.01 5.13486 4.9 4.23486 6 4.23486H12.17C12.7 4.23486 13.21 4.44486 13.59 4.82486ZM13 11.2349H17.5L12 5.73486V10.2349C12 10.7849 12.45 11.2349 13 11.2349Z" fill="#4F4F4F"/>
</svg>
