<svg width="16" height="17" viewBox="0 0 16 17" fill="none" xmlns="http://www.w3.org/2000/svg">
<path d="M13.6503 3.35097C12.0203 1.72097 9.71027 0.780969 7.17027 1.04097C3.50027 1.41097 0.480265 4.39097 0.0702655 8.06097C-0.479735 12.911 3.27027 17.001 8.00027 17.001C11.1903 17.001 13.9303 15.131 15.2103 12.441C15.5303 11.771 15.0503 11.001 14.3103 11.001C13.9403 11.001 13.5903 11.201 13.4303 11.531C12.3003 13.961 9.59027 15.501 6.63027 14.841C4.41026 14.351 2.62027 12.541 2.15027 10.321C1.31027 6.44097 4.26027 3.00097 8.00027 3.00097C9.66026 3.00097 11.1403 3.69097 12.2203 4.78097L10.7103 6.29097C10.0803 6.92097 10.5203 8.00097 11.4103 8.00097H15.0003C15.5503 8.00097 16.0003 7.55097 16.0003 7.00097V3.41097C16.0003 2.52097 14.9203 2.07097 14.2903 2.70097L13.6503 3.35097Z" fill="#4F4F4F"/>
</svg>
