<svg width="24" height="24" viewBox="0 0 24 24" fill="none" xmlns="http://www.w3.org/2000/svg">
<path d="M21.5335 6.23333L17.3335 8.6V5.33333C17.3335 4.97971 17.193 4.64057 16.943 4.39052C16.6929 4.14048 16.3538 4 16.0002 4H4.00016C3.29292 4 2.61464 4.28095 2.11454 4.78105C1.61445 5.28115 1.3335 5.95942 1.3335 6.66667V17.3333C1.3335 18.0406 1.61445 18.7189 2.11454 19.219C2.61464 19.719 3.29292 20 4.00016 20H16.0002C16.3538 20 16.6929 19.8595 16.943 19.6095C17.193 19.3594 17.3335 19.0203 17.3335 18.6667V15.3867L21.5335 17.7533C21.6412 17.8237 21.7656 17.8645 21.8942 17.8716C22.0227 17.8787 22.1508 17.8519 22.2657 17.7938C22.3805 17.7357 22.478 17.6484 22.5485 17.5406C22.6189 17.4329 22.6597 17.3085 22.6668 17.18V6.8C22.6586 6.67205 22.617 6.5485 22.5461 6.44165C22.4753 6.33481 22.3776 6.24841 22.263 6.19107C22.1483 6.13374 22.0206 6.10747 21.8926 6.11488C21.7646 6.1223 21.6408 6.16314 21.5335 6.23333V6.23333Z" fill="#4F4F4F"/>
</svg>
