<?xml version="1.0" encoding="UTF-8"?><svg id="Layer_1" xmlns="http://www.w3.org/2000/svg" viewBox="0 0 120 120"><defs><style>.cls-1{fill:#fff;}.cls-2{fill:#528af3;}</style></defs><g id="Rectangle_1838"><rect class="cls-2" x="2.06" y="2.06" width="115.87" height="115.87" rx="21.07" ry="21.07"/></g><g id="Path_893"><path class="cls-1" d="M46.83,86.33c-.43,0-.87-.11-1.26-.32-.84-.46-1.37-1.35-1.37-2.31V36.3c0-.96,.53-1.85,1.37-2.31,.85-.46,1.88-.43,2.69,.1l36.87,23.7c.75,.48,1.21,1.32,1.21,2.21s-.46,1.73-1.21,2.21l-36.87,23.7c-.43,.28-.93,.42-1.42,.42Zm2.63-45.21v37.75l29.36-18.88-29.36-18.88Z"/></g></svg>