<?xml version="1.0" encoding="UTF-8"?><svg id="Layer_1" xmlns="http://www.w3.org/2000/svg" viewBox="0 0 120 120"><defs><style>.cls-1{fill:#fff;}.cls-2{fill:#10d49e;}</style></defs><g id="Rectangle_1851"><rect class="cls-2" x="2.06" y="2.06" width="115.87" height="115.87" rx="21.07" ry="21.07"/></g><g><path class="cls-1" d="M83.7,31.03H36.3c-4.36,0-7.9,3.54-7.9,7.9v47.4c0,4.36,3.54,7.9,7.9,7.9h47.4c4.36,0,7.9-3.54,7.9-7.9V38.93c0-4.36-3.54-7.9-7.9-7.9Zm-50.04,55.3V38.93c0-1.45,1.18-2.63,2.63-2.63h47.4c1.45,0,2.63,1.18,2.63,2.63v27.04l-11.81-11.81c-.49-.49-1.16-.77-1.86-.77s-1.37,.28-1.86,.77l-34.76,34.76c-1.33-.14-2.38-1.22-2.38-2.58Zm50.04,2.63H43.44l29.23-29.23,13.67,13.67v12.92c0,1.45-1.18,2.63-2.63,2.63Z"/><path class="cls-1" d="M49.47,60c4.36,0,7.9-3.54,7.9-7.9s-3.54-7.9-7.9-7.9-7.9,3.54-7.9,7.9,3.54,7.9,7.9,7.9Zm0-10.53c1.45,0,2.63,1.18,2.63,2.63s-1.18,2.63-2.63,2.63-2.63-1.18-2.63-2.63,1.18-2.63,2.63-2.63Z"/></g></svg>