<svg width="120" height="120" viewBox="0 0 120 120" fill="none" xmlns="http://www.w3.org/2000/svg">
<path d="M96.8601 2.05957H23.1301C11.4934 2.05957 2.06006 11.4929 2.06006 23.1296V96.8596C2.06006 108.496 11.4934 117.93 23.1301 117.93H96.8601C108.497 117.93 117.93 108.496 117.93 96.8596V23.1296C117.93 11.4929 108.497 2.05957 96.8601 2.05957Z" fill="#6C3491"/>
<path d="M62.9 65.79H39.73C31.75 65.79 25.25 72.29 25.25 80.27V86.06C25.25 87.66 26.55 88.96 28.15 88.96C29.75 88.96 31.05 87.66 31.05 86.06V80.27C31.05 75.48 34.95 71.58 39.74 71.58H62.91C67.7 71.58 71.6 75.48 71.6 80.27V86.06C71.6 87.66 72.9 88.96 74.5 88.96C76.1 88.96 77.4 87.66 77.4 86.06V80.27C77.4 72.29 70.9 65.79 62.92 65.79H62.9Z" fill="white"/>
<path d="M51.3101 60C59.2901 60 65.7901 53.5 65.7901 45.52C65.7901 37.54 59.2901 31.04 51.3101 31.04C43.3301 31.04 36.8301 37.54 36.8301 45.52C36.8301 53.5 43.3301 60 51.3101 60ZM51.3101 36.83C56.1001 36.83 60.0001 40.73 60.0001 45.52C60.0001 50.31 56.1001 54.21 51.3101 54.21C46.5201 54.21 42.6201 50.31 42.6201 45.52C42.6201 40.73 46.5201 36.83 51.3101 36.83Z" fill="white"/>
<path d="M83.8899 66.2602C82.3399 65.8502 80.7599 66.7902 80.3599 68.3402C79.9599 69.8902 80.8899 71.4702 82.4399 71.8702C86.2699 72.8602 88.9499 76.3202 88.9599 80.2702V86.0602C88.9599 87.6602 90.2599 88.9602 91.8599 88.9602C93.4599 88.9602 94.7599 87.6602 94.7599 86.0602V80.2702C94.7599 73.6702 90.2899 67.9102 83.8999 66.2602H83.8899Z" fill="white"/>
<path d="M81.17 38.1601C79.2 34.8301 76.05 32.4701 72.3 31.5101C70.75 31.1101 69.17 32.0501 68.78 33.6001C68.39 35.1501 69.32 36.7301 70.87 37.1201C73.12 37.6901 75.01 39.1101 76.19 41.1101C77.37 43.1101 77.71 45.4501 77.13 47.6901C76.34 50.7601 73.94 53.1601 70.87 53.9501C69.32 54.3501 68.39 55.9201 68.78 57.4701C69.11 58.7801 70.29 59.6501 71.58 59.6501C71.82 59.6501 72.06 59.6201 72.3 59.5601C77.42 58.2501 81.42 54.2501 82.74 49.1201C83.7 45.3701 83.14 41.4801 81.17 38.1501V38.1601Z" fill="white"/>
</svg>
