<svg id="Layer_1" data-name="Layer 1" xmlns="http://www.w3.org/2000/svg" viewBox="0 0 23 23"><defs><style>.cls-1{fill:#fbbf3a;}.cls-2{fill:#fff;}</style></defs><g id="Rectangle_1854" data-name="Rectangle 1854"><rect class="cls-1" x="0.7" y="0.7" width="21.6" height="21.6" rx="3.93"/></g><path class="cls-2" d="M15.88,9.84a.46.46,0,0,0-.11-.16L12.34,6.24a.54.54,0,0,0-.16-.1.41.41,0,0,0-.19,0H8.55A1.47,1.47,0,0,0,7.08,7.57v7.86A1.47,1.47,0,0,0,8.55,16.9h5.89a1.47,1.47,0,0,0,1.48-1.47V10A.58.58,0,0,0,15.88,9.84Zm-3.4-2.06,1.76,1.76H12.48Zm2,8.14H8.55a.49.49,0,0,1-.49-.49V7.57a.49.49,0,0,1,.49-.49H11.5V10a.49.49,0,0,0,.49.49h2.95v4.91A.49.49,0,0,1,14.44,15.92Z"/></svg>