<?xml version="1.0" encoding="UTF-8"?><svg id="Layer_1" xmlns="http://www.w3.org/2000/svg" viewBox="0 0 120 120"><defs><style>.cls-1{fill:#053491;}.cls-2{fill:#fff;}</style></defs><g id="Rectangle_1841"><rect class="cls-1" x="2.06" y="2.06" width="115.87" height="115.87" rx="21.07" ry="21.07"/></g><path class="cls-2" d="M81.07,38.93H38.93c-1.46,0-2.63,1.18-2.63,2.63v7.9c0,1.46,1.18,2.63,2.63,2.63s2.63-1.18,2.63-2.63v-5.27h15.8v36.87h-5.27c-1.46,0-2.63,1.18-2.63,2.63s1.18,2.63,2.63,2.63h15.8c1.46,0,2.63-1.18,2.63-2.63s-1.18-2.63-2.63-2.63h-5.27V44.2h15.8v5.27c0,1.46,1.18,2.63,2.63,2.63s2.63-1.18,2.63-2.63v-7.9c0-1.46-1.18-2.63-2.63-2.63Z"/></svg>