<?xml version="1.0" encoding="UTF-8"?><svg id="Layer_1" xmlns="http://www.w3.org/2000/svg" viewBox="0 0 120 120"><defs><style>.cls-1{fill:#fff;}.cls-2{fill:#9b64bb;}</style></defs><g id="Rectangle_1851"><rect class="cls-2" x="2.06" y="2.06" width="115.87" height="115.87" rx="21.07" ry="21.07"/></g><path class="cls-1" d="M73.18,68.15c-3.14,0-5.98,1.28-8.03,3.35l-15.09-8.8c.27-.98,.47-1.99,.47-3.05s-.19-2.07-.47-3.05l15.09-8.81c2.05,2.07,4.9,3.36,8.04,3.36,6.25,0,11.33-5.08,11.33-11.33s-5.08-11.33-11.33-11.33-11.33,5.08-11.33,11.33c0,1.07,.19,2.08,.47,3.05l-15.08,8.81c-2.05-2.07-4.9-3.36-8.04-3.36-6.25,0-11.33,5.08-11.33,11.33s5.08,11.33,11.33,11.33c3.14,0,5.99-1.29,8.04-3.36l15.09,8.79c-.28,.98-.47,2-.47,3.06,0,6.25,5.08,11.33,11.33,11.33s11.33-5.08,11.33-11.33-5.08-11.33-11.33-11.33Zm0-33.98c3.12,0,5.66,2.54,5.66,5.66s-2.54,5.66-5.66,5.66-5.66-2.54-5.66-5.66,2.54-5.66,5.66-5.66Zm-33.98,31.15c-3.12,0-5.66-2.54-5.66-5.66s2.54-5.66,5.66-5.66,5.66,2.54,5.66,5.66-2.54,5.66-5.66,5.66Zm33.98,19.82c-3.12,0-5.66-2.54-5.66-5.66,0-1.03,.3-1.97,.77-2.81,0-.02,.02-.03,.03-.04,0-.02,0-.03,.02-.05,.99-1.65,2.78-2.76,4.84-2.76,3.12,0,5.66,2.54,5.66,5.66s-2.54,5.66-5.66,5.66Z"/></svg>