<svg width="120" height="120" viewBox="0 0 120 120" fill="none" xmlns="http://www.w3.org/2000/svg">
<path d="M96.8601 2.05957H23.1301C11.4934 2.05957 2.06006 11.4929 2.06006 23.1296V96.8596C2.06006 108.496 11.4934 117.93 23.1301 117.93H96.8601C108.497 117.93 117.93 108.496 117.93 96.8596V23.1296C117.93 11.4929 108.497 2.05957 96.8601 2.05957Z" fill="#FB4D3D"/>
<path d="M88.53 32.5501C88.52 32.2901 88.47 32.0401 88.38 31.8001C88.35 31.7101 88.32 31.6201 88.28 31.5301C88.14 31.2301 87.97 30.9401 87.72 30.6901C87.47 30.4401 87.19 30.2701 86.89 30.1401C86.8 30.1001 86.71 30.0701 86.61 30.0301C86.37 29.9501 86.13 29.9001 85.88 29.8901C85.8 29.8901 85.72 29.8701 85.64 29.8701C85.35 29.8701 85.05 29.9201 84.77 30.0201L27.73 49.9801C26.62 50.3701 25.87 51.3901 25.82 52.5601C25.77 53.7301 26.44 54.8101 27.51 55.2801L52.18 66.2401L63.14 90.9101C63.6 91.9401 64.62 92.6001 65.75 92.6001C65.79 92.6001 65.83 92.6001 65.87 92.6001C67.04 92.5501 68.06 91.8001 68.45 90.6901L88.41 33.6501C88.51 33.3601 88.55 33.0701 88.56 32.7701C88.56 32.7001 88.55 32.6201 88.54 32.5501H88.53ZM74.86 39.5301L53.71 60.6801L36.4 52.9901L74.86 39.5301V39.5301ZM65.43 82.0201L57.74 64.7101L78.89 43.5601L65.43 82.0201Z" fill="white"/>
</svg>
