<?xml version="1.0" encoding="UTF-8"?><svg id="Layer_1" xmlns="http://www.w3.org/2000/svg" viewBox="0 0 120 120"><defs><style>.cls-1{fill:#fbbf3a;}.cls-2{fill:#fff;}</style></defs><g id="Rectangle_1854"><rect class="cls-1" x="2.06" y="2.06" width="115.87" height="115.87" rx="21.07" ry="21.07"/></g><path class="cls-2" d="M83.5,51.08c-.13-.32-.33-.61-.57-.85l-18.43-18.43c-.24-.24-.53-.44-.85-.57-.32-.13-.66-.2-1.01-.2h-18.43c-4.36,0-7.9,3.54-7.9,7.9v42.14c0,4.36,3.54,7.9,7.9,7.9h31.6c4.36,0,7.9-3.54,7.9-7.9v-28.97c0-.35-.07-.7-.2-1.01Zm-18.23-11.06l9.44,9.44h-9.44v-9.44Zm10.53,43.68h-31.6c-1.45,0-2.63-1.18-2.63-2.63V38.93c0-1.45,1.18-2.63,2.63-2.63h15.8v15.8c0,1.46,1.18,2.63,2.63,2.63h15.8v26.33c0,1.45-1.18,2.63-2.63,2.63Z"/></svg>