<?xml version="1.0" encoding="UTF-8"?><svg id="Layer_1" xmlns="http://www.w3.org/2000/svg" viewBox="0 0 120 120"><defs><style>.cls-1{fill:#fff;}.cls-2{fill:#fd567a;}</style></defs><g id="Rectangle_1840"><rect class="cls-2" x="2.06" y="2.06" width="115.87" height="115.87" rx="21.07" ry="21.07"/></g><path class="cls-1" d="M80.14,34.29c-.59-.5-1.37-.71-2.13-.59l-31.6,5.27c-1.27,.21-2.2,1.31-2.2,2.6v25.17c-1.56-.91-3.34-1.46-5.27-1.46-5.81,0-10.53,4.72-10.53,10.53s4.72,10.53,10.53,10.53,10.53-4.72,10.53-10.53V43.79l26.33-4.39v22.06c-1.56-.91-3.34-1.46-5.27-1.46-5.81,0-10.53,4.72-10.53,10.53s4.72,10.53,10.53,10.53,10.53-4.72,10.53-10.53V36.3c0-.77-.34-1.51-.93-2.01Zm-41.2,46.78c-2.9,0-5.27-2.36-5.27-5.27s2.36-5.27,5.27-5.27,5.27,2.36,5.27,5.27-2.36,5.27-5.27,5.27Zm31.6-5.27c-2.9,0-5.27-2.36-5.27-5.27s2.36-5.27,5.27-5.27,5.27,2.36,5.27,5.27-2.36,5.27-5.27,5.27Z"/></svg>