<svg width="24" height="24" viewBox="0 0 24 24" fill="none" xmlns="http://www.w3.org/2000/svg">
<path d="M13 14C13.5741 13.5705 14.0491 13.0226 14.3929 12.3934C14.7367 11.7643 14.9411 11.0685 14.9923 10.3533C15.0435 9.63821 14.9403 8.92041 14.6897 8.24865C14.4392 7.5769 14.047 6.96688 13.54 6.46L10.54 3.46C9.59695 2.54921 8.33394 2.04524 7.02296 2.05663C5.71197 2.06802 4.45791 2.59387 3.53087 3.52091C2.60383 4.44795 2.07799 5.70201 2.06659 7.01299C2.0552 8.32398 2.55917 9.58699 3.46997 10.53L5.17997 12.25" stroke="#4F4F4F" stroke-width="1.75" stroke-linecap="round" stroke-linejoin="round"/>
<path d="M11.0002 9.9998C10.4261 10.4293 9.95104 10.9772 9.60728 11.6064C9.26353 12.2355 9.05911 12.9313 9.00789 13.6465C8.95667 14.3616 9.05986 15.0794 9.31044 15.7511C9.56103 16.4229 9.95316 17.0329 10.4602 17.5398L13.4602 20.5398C14.4032 21.4506 15.6662 21.9546 16.9772 21.9432C18.2882 21.9318 19.5423 21.4059 20.4693 20.4789C21.3964 19.5519 21.9222 18.2978 21.9336 16.9868C21.945 15.6758 21.441 14.4128 20.5302 13.4698L18.8202 11.7598" stroke="#4F4F4F" stroke-width="1.75" stroke-linecap="round" stroke-linejoin="round"/>
</svg>
