<svg width="24" height="24" viewBox="0 0 24 24" fill="none" xmlns="http://www.w3.org/2000/svg">
<path fill-rule="evenodd" clip-rule="evenodd" d="M3 5H14C15.1046 5 16 5.89543 16 7V12V17C16 18.1046 15.1046 19 14 19H3C1.89543 19 1 18.1046 1 17V7C1 5.89543 1.89543 5 3 5ZM16 12L23 17V7L16 12Z" fill="#4F4F4F"/>
<path d="M23 17L22.4188 17.8137C22.7236 18.0315 23.1245 18.0606 23.4576 17.8892C23.7907 17.7178 24 17.3746 24 17H23ZM23 7H24C24 6.62541 23.7907 6.28224 23.4576 6.11083C23.1245 5.93943 22.7236 5.96854 22.4188 6.18627L23 7ZM14 4H3V6H14V4ZM17 7C17 5.34315 15.6569 4 14 4V6C14.5523 6 15 6.44772 15 7H17ZM17 12V7H15V12H17ZM17 17V12H15V17H17ZM14 20C15.6569 20 17 18.6569 17 17H15C15 17.5523 14.5523 18 14 18V20ZM3 20H14V18H3V20ZM0 17C0 18.6569 1.34315 20 3 20V18C2.44772 18 2 17.5523 2 17H0ZM0 7V17H2V7H0ZM3 4C1.34315 4 0 5.34315 0 7H2C2 6.44772 2.44772 6 3 6V4ZM15.4188 12.8137L22.4188 17.8137L23.5812 16.1863L16.5812 11.1863L15.4188 12.8137ZM24 17V7H22V17H24ZM22.4188 6.18627L15.4188 11.1863L16.5812 12.8137L23.5812 7.81373L22.4188 6.18627Z" fill="#4F4F4F"/>
</svg>
