<svg width="20" height="25" viewBox="0 0 20 25" fill="none" xmlns="http://www.w3.org/2000/svg">
<path fill-rule="evenodd" clip-rule="evenodd" d="M2.4236 0.333008H17.5761C18.5465 0.333008 19.3332 1.08021 19.3332 2.00192V22.5143C19.3332 23.436 18.5465 24.1832 17.5761 24.1832H2.4236C1.45318 24.1832 0.666504 23.436 0.666504 22.5143V2.00192C0.666504 1.08021 1.45318 0.333008 2.4236 0.333008ZM7.93949 14.0082C7.93949 14.9747 7.15599 15.7582 6.18949 15.7582C5.223 15.7582 4.43949 14.9747 4.43949 14.0082C4.43949 13.0417 5.223 12.2582 6.18949 12.2582C7.15599 12.2582 7.93949 13.0417 7.93949 14.0082ZM14.3562 15.7832C15.3227 15.7832 16.1062 14.9997 16.1062 14.0332C16.1062 13.0667 15.3227 12.2832 14.3562 12.2832C13.3897 12.2832 12.6062 13.0667 12.6062 14.0332C12.6062 14.9997 13.3897 15.7832 14.3562 15.7832ZM7.93949 19.8666C7.93949 20.8331 7.15599 21.6166 6.18949 21.6166C5.223 21.6166 4.43949 20.8331 4.43949 19.8666C4.43949 18.9001 5.223 18.1166 6.18949 18.1166C7.15599 18.1166 7.93949 18.9001 7.93949 19.8666ZM14.3562 21.6418C15.3227 21.6418 16.1062 20.8583 16.1062 19.8918C16.1062 18.9253 15.3227 18.1418 14.3562 18.1418C13.3897 18.1418 12.6062 18.9253 12.6062 19.8918C12.6062 20.8583 13.3897 21.6418 14.3562 21.6418ZM13.7728 3.50551V9.34418C13.7722 9.42318 13.7528 9.5009 13.7164 9.57099C13.6799 9.64108 13.6274 9.70154 13.5631 9.7474C13.5181 9.80241 13.4615 9.84682 13.3974 9.87748C13.3333 9.90814 13.2632 9.92431 13.1921 9.92482H12.0308C11.9526 9.92503 11.8751 9.90942 11.8031 9.87893C11.731 9.84845 11.6658 9.80371 11.6115 9.7474C11.5593 9.69417 11.5182 9.63113 11.4905 9.56192C11.4628 9.49272 11.4491 9.41871 11.4502 9.34418V7.58613H9.11152V9.34418C9.10373 9.49566 9.04006 9.63887 8.93281 9.74612C8.82556 9.85337 8.68235 9.91704 8.53088 9.92482H7.35347C7.20199 9.91704 7.05878 9.85337 6.95153 9.74612C6.84428 9.63887 6.78061 9.49566 6.77283 9.34418V3.50551C6.77292 3.42968 6.78873 3.3547 6.81927 3.2853C6.8498 3.21589 6.8944 3.15358 6.95024 3.10228C7.0009 3.04564 7.06309 3.0005 7.13264 2.9699C7.20219 2.9393 7.27749 2.92394 7.35347 2.92486H8.53088C8.60686 2.92394 8.68215 2.9393 8.7517 2.9699C8.82125 3.0005 8.88345 3.04564 8.9341 3.10228C8.98994 3.15358 9.03454 3.21589 9.06508 3.2853C9.09562 3.3547 9.11143 3.42968 9.11152 3.50551V5.26356H11.4502V3.50551C11.4491 3.43098 11.4628 3.35697 11.4905 3.28776C11.5182 3.21856 11.5593 3.15552 11.6115 3.10228C11.6658 3.04598 11.731 3.00124 11.8031 2.97075C11.8751 2.94026 11.9526 2.92466 12.0308 2.92486H13.1921C13.2704 2.92466 13.3479 2.94026 13.4199 2.97075C13.492 3.00124 13.5571 3.04598 13.6115 3.10228C13.6637 3.15552 13.7048 3.21856 13.7325 3.28776C13.7601 3.35697 13.7738 3.43098 13.7728 3.50551Z" fill="#8C8C8C"/>
</svg>
