<svg width="24" height="24" viewBox="0 0 24 24" fill="none" xmlns="http://www.w3.org/2000/svg">
<circle cx="12" cy="12" r="12" fill="#F6F6F6"/>
<path d="M16.0564 7.20752H14.6952C14.6284 7.20752 14.5742 7.26167 14.5742 7.32846V10.5797C14.5742 10.6465 14.6284 10.7006 14.6952 10.7006H16.0564C16.1232 10.7006 16.1773 10.6465 16.1773 10.5797V7.32846C16.1773 7.26167 16.1232 7.20752 16.0564 7.20752Z" fill="#4FBE9F"/>
<path d="M17.1211 9.63477V8.27353C17.1211 8.20673 17.0669 8.15259 17.0002 8.15259H13.7489C13.6821 8.15259 13.628 8.20673 13.628 8.27353V9.63477C13.628 9.70157 13.6821 9.75571 13.7489 9.75571H17.0002C17.0669 9.75571 17.1211 9.70157 17.1211 9.63477Z" fill="#4FBE9F"/>
<path d="M6.93773 5.25H12.1746C12.3618 5.25 12.5414 5.32438 12.6738 5.45676C12.8062 5.58915 12.8805 5.76871 12.8805 5.95594V18.0328H6.24023V5.95594C6.24022 5.77016 6.31344 5.59187 6.44401 5.45972C6.57458 5.32757 6.75197 5.25222 6.93773 5.25Z" fill="#4FBE9F"/>
<path d="M12.8809 11.3953H16.9674C17.1778 11.3953 17.3795 11.4788 17.5282 11.6276C17.677 11.7763 17.7605 11.978 17.7605 12.1884V18.0328H12.8809V11.3953Z" fill="#EBEEF2"/>
<path d="M8.11539 6.78003H7.94383C7.75588 6.78003 7.60352 6.93239 7.60352 7.12034V7.2919C7.60352 7.47985 7.75588 7.63222 7.94383 7.63222H8.11539C8.30334 7.63222 8.4557 7.47985 8.4557 7.2919V7.12034C8.4557 6.93239 8.30334 6.78003 8.11539 6.78003Z" fill="#EBEEF2"/>
<path d="M9.64664 6.78003H9.47508C9.28713 6.78003 9.13477 6.93239 9.13477 7.12034V7.2919C9.13477 7.47985 9.28713 7.63222 9.47508 7.63222H9.64664C9.83459 7.63222 9.98695 7.47985 9.98695 7.2919V7.12034C9.98695 6.93239 9.83459 6.78003 9.64664 6.78003Z" fill="#EBEEF2"/>
<path d="M11.172 6.78003H11.0005C10.8125 6.78003 10.6602 6.93239 10.6602 7.12034V7.2919C10.6602 7.47985 10.8125 7.63222 11.0005 7.63222H11.172C11.36 7.63222 11.5123 7.47985 11.5123 7.2919V7.12034C11.5123 6.93239 11.36 6.78003 11.172 6.78003Z" fill="#EBEEF2"/>
<path d="M8.11539 8.41699H7.94383C7.75588 8.41699 7.60352 8.56936 7.60352 8.7573V8.92887C7.60352 9.11682 7.75588 9.26918 7.94383 9.26918H8.11539C8.30334 9.26918 8.4557 9.11682 8.4557 8.92887V8.7573C8.4557 8.56936 8.30334 8.41699 8.11539 8.41699Z" fill="#EBEEF2"/>
<path d="M9.64664 8.41699H9.47508C9.28713 8.41699 9.13477 8.56936 9.13477 8.7573V8.92887C9.13477 9.11682 9.28713 9.26918 9.47508 9.26918H9.64664C9.83459 9.26918 9.98695 9.11682 9.98695 8.92887V8.7573C9.98695 8.56936 9.83459 8.41699 9.64664 8.41699Z" fill="#EBEEF2"/>
<path d="M11.172 8.41699H11.0005C10.8125 8.41699 10.6602 8.56936 10.6602 8.7573V8.92887C10.6602 9.11682 10.8125 9.26918 11.0005 9.26918H11.172C11.36 9.26918 11.5123 9.11682 11.5123 8.92887V8.7573C11.5123 8.56936 11.36 8.41699 11.172 8.41699Z" fill="#EBEEF2"/>
<path d="M8.11539 10.0566H7.94383C7.75588 10.0566 7.60352 10.209 7.60352 10.397V10.5685C7.60352 10.7565 7.75588 10.9088 7.94383 10.9088H8.11539C8.30334 10.9088 8.4557 10.7565 8.4557 10.5685V10.397C8.4557 10.209 8.30334 10.0566 8.11539 10.0566Z" fill="#EBEEF2"/>
<path d="M9.64664 10.0566H9.47508C9.28713 10.0566 9.13477 10.209 9.13477 10.397V10.5685C9.13477 10.7565 9.28713 10.9088 9.47508 10.9088H9.64664C9.83459 10.9088 9.98695 10.7565 9.98695 10.5685V10.397C9.98695 10.209 9.83459 10.0566 9.64664 10.0566Z" fill="#EBEEF2"/>
<path d="M11.172 10.0566H11.0005C10.8125 10.0566 10.6602 10.209 10.6602 10.397V10.5685C10.6602 10.7565 10.8125 10.9088 11.0005 10.9088H11.172C11.36 10.9088 11.5123 10.7565 11.5123 10.5685V10.397C11.5123 10.209 11.36 10.0566 11.172 10.0566Z" fill="#EBEEF2"/>
<path d="M8.11539 11.6934H7.94383C7.75588 11.6934 7.60352 11.8457 7.60352 12.0337V12.2052C7.60352 12.3932 7.75588 12.5455 7.94383 12.5455H8.11539C8.30334 12.5455 8.4557 12.3932 8.4557 12.2052V12.0337C8.4557 11.8457 8.30334 11.6934 8.11539 11.6934Z" fill="#EBEEF2"/>
<path d="M9.64664 11.6934H9.47508C9.28713 11.6934 9.13477 11.8457 9.13477 12.0337V12.2052C9.13477 12.3932 9.28713 12.5455 9.47508 12.5455H9.64664C9.83459 12.5455 9.98695 12.3932 9.98695 12.2052V12.0337C9.98695 11.8457 9.83459 11.6934 9.64664 11.6934Z" fill="#EBEEF2"/>
<path d="M11.172 11.6934H11.0005C10.8125 11.6934 10.6602 11.8457 10.6602 12.0337V12.2052C10.6602 12.3932 10.8125 12.5455 11.0005 12.5455H11.172C11.36 12.5455 11.5123 12.3932 11.5123 12.2052V12.0337C11.5123 11.8457 11.36 11.6934 11.172 11.6934Z" fill="#EBEEF2"/>
<path d="M8.11539 13.3303H7.94383C7.75588 13.3303 7.60352 13.4827 7.60352 13.6706V13.8422C7.60352 14.0301 7.75588 14.1825 7.94383 14.1825H8.11539C8.30334 14.1825 8.4557 14.0301 8.4557 13.8422V13.6706C8.4557 13.4827 8.30334 13.3303 8.11539 13.3303Z" fill="#EBEEF2"/>
<path d="M9.64664 13.3303H9.47508C9.28713 13.3303 9.13477 13.4827 9.13477 13.6706V13.8422C9.13477 14.0301 9.28713 14.1825 9.47508 14.1825H9.64664C9.83459 14.1825 9.98695 14.0301 9.98695 13.8422V13.6706C9.98695 13.4827 9.83459 13.3303 9.64664 13.3303Z" fill="#EBEEF2"/>
<path d="M11.172 13.3303H11.0005C10.8125 13.3303 10.6602 13.4827 10.6602 13.6706V13.8422C10.6602 14.0301 10.8125 14.1825 11.0005 14.1825H11.172C11.36 14.1825 11.5123 14.0301 11.5123 13.8422V13.6706C11.5123 13.4827 11.36 13.3303 11.172 13.3303Z" fill="#EBEEF2"/>
<path d="M8.70648 15.6899H10.4165C10.4582 15.6899 10.4995 15.6982 10.5381 15.7141C10.5767 15.7301 10.6117 15.7535 10.6412 15.783C10.6707 15.8125 10.6941 15.8476 10.7101 15.8861C10.7261 15.9247 10.7343 15.966 10.7343 16.0078V18.0356H8.38867V16.0078C8.38867 15.966 8.39689 15.9247 8.41286 15.8861C8.42884 15.8476 8.45225 15.8125 8.48176 15.783C8.51127 15.7535 8.5463 15.7301 8.58486 15.7141C8.62342 15.6982 8.66475 15.6899 8.70648 15.6899Z" fill="#09816C"/>
<path d="M16.0441 18.0329H14.5957V17.3073C14.5957 17.1156 14.6719 16.9317 14.8074 16.7962C14.943 16.6606 15.1268 16.5845 15.3185 16.5845C15.5105 16.5845 15.6946 16.6605 15.8306 16.796C15.9666 16.9315 16.0434 17.1153 16.0441 17.3073V18.0329Z" fill="#DCDFE2"/>
<path d="M17.968 18.0327H6.0318C5.85783 18.0327 5.7168 18.1737 5.7168 18.3477V18.4321C5.7168 18.6061 5.85783 18.7471 6.0318 18.7471H17.968C18.142 18.7471 18.283 18.6061 18.283 18.4321V18.3477C18.283 18.1737 18.142 18.0327 17.968 18.0327Z" fill="#EBEEF2"/>
</svg>
