<svg width="32" height="32" viewBox="0 0 32 32" fill="none" xmlns="http://www.w3.org/2000/svg">
<path d="M16 0.416626C7.39377 0.416626 0.416687 7.39371 0.416687 16C0.416687 24.6062 7.39377 31.5833 16 31.5833C24.6063 31.5833 31.5834 24.6062 31.5834 16C31.5834 7.39371 24.6063 0.416626 16 0.416626ZM17.1404 6.72079C18.21 6.72079 19.1096 7.55663 19.1096 8.66163C19.1096 9.76663 18.21 10.6025 17.1404 10.6025C16.0709 10.6025 15.1713 9.76663 15.1713 8.66163C15.1713 7.55663 16.0709 6.72079 17.1404 6.72079ZM19.5204 22.2475C18.635 24.6416 17.2963 25.2791 15.7875 25.2791C13.8184 25.2791 12.8975 24.1529 12.8975 22.4458C12.8975 22.0137 12.9542 21.5179 13.0675 21.0291L14.3638 15.7591C14.4629 15.3625 14.2079 15.0366 13.7971 15.0366H12.9967C12.5859 15.0366 12.3379 14.7179 12.4442 14.3212L12.7629 13.0958C12.8692 12.6991 13.28 12.3804 13.6909 12.3804H17.7071C18.1179 12.3804 18.3659 12.7062 18.2667 13.1029L16.2763 21.0079C16.1346 21.5604 16.0709 22.0208 16.0709 22.3395C16.0709 22.885 16.3329 23.1541 16.765 23.1541C17.2113 23.1541 17.6717 22.9204 18.1959 21.7587C18.3659 21.3833 18.7554 21.1779 19.1096 21.3195C19.4638 21.4329 19.6621 21.865 19.5204 22.2475Z" fill="#2F80ED"/>
</svg>
