<svg width="32" height="32" viewBox="0 0 32 32" fill="none" xmlns="http://www.w3.org/2000/svg">
<rect width="32" height="32" rx="4" fill="white"/>
<path d="M18.25 8.5H11.5C10.6709 8.5 10 9.1709 10 10V22C10 22.8291 10.6709 23.5 11.5 23.5H20.5C21.3291 23.5 22 22.8291 22 22V12.25L18.25 8.5ZM13.75 14.5C14.1631 14.5 14.5 14.8369 14.5 15.25C14.5 15.6631 14.1631 16 13.75 16C13.3369 16 13 15.6631 13 15.25C13 14.8369 13.3369 14.5 13.75 14.5ZM12.25 19.75L14.5 16.75L16 18.25L17.5 16L19.75 19.75H12.25Z" fill="#FF5F5F"/>
<rect x="12" y="14" width="8" height="7" fill="#FF5F5F"/>
<path d="M13.9642 18.8524H13.6642V19.7726H13V17H13.8762C14.6324 17 15.0644 17.296 15.0644 17.9042C15.0644 18.5564 14.6202 18.8524 13.9642 18.8524ZM13.8842 17.472H13.6642V18.3722H13.9082C14.2082 18.3722 14.3802 18.2282 14.3802 17.9042C14.3802 17.612 14.2162 17.472 13.8842 17.472Z" fill="white"/>
<path d="M16.1122 19.7726H15.36V17H16.0642C16.7764 17 17.4564 17.228 17.4564 18.3722C17.4564 19.5004 16.8042 19.7726 16.1122 19.7726ZM16.16 17.48H16.024V19.2924H16.16C16.524 19.2924 16.7682 19.0964 16.7682 18.3722C16.7682 17.6322 16.5082 17.48 16.16 17.48Z" fill="white"/>
<path d="M18.6122 17.472V18.2002H19.5804V18.6764H18.6122V19.7726H17.944V17H19.7724L19.7044 17.472H18.6122Z" fill="white"/>
</svg>
