<svg width="32" height="32" viewBox="0 0 32 32" fill="none" xmlns="http://www.w3.org/2000/svg">
<rect width="32" height="32" rx="4" fill="white"/>
<path d="M18.25 8.5H11.5C10.6709 8.5 10 9.1709 10 10V22C10 22.8291 10.6709 23.5 11.5 23.5H20.5C21.3291 23.5 22 22.8291 22 22V12.25L18.25 8.5ZM14.125 20.0869V14.1631L18.5869 17.125L14.125 20.0869Z" fill="#00CEEA"/>
<rect x="13" y="13" width="7" height="7" fill="#00CEEA"/>
<path d="M18.4361 14.375H13.5639C13.4595 14.375 13.375 14.4596 13.375 14.5638V16.0612C13.375 16.1654 13.4595 16.25 13.5639 16.25H13.8394C13.9168 16.25 13.9863 16.2027 14.0149 16.1308C14.2788 15.4661 14.3999 15.1488 15.2508 15.1125V18.4282C15.2508 18.7388 15.1142 18.8252 14.8658 18.8759C14.759 18.8977 14.5613 18.9208 14.4823 18.9285C14.3857 18.938 14.3138 19.0193 14.3138 19.1163V19.436C14.3138 19.5404 14.3965 19.625 14.5008 19.625H17.4992C17.6035 19.625 17.6862 19.5404 17.6862 19.436V19.1163C17.6862 19.0193 17.6143 18.938 17.5177 18.9285C17.4387 18.9208 17.241 18.8977 17.1341 18.8759C16.8858 18.8252 16.7492 18.7388 16.7492 18.4282V15.1125C17.6001 15.1488 17.7212 15.4661 17.9852 16.1308C18.0138 16.2027 18.0833 16.25 18.1607 16.25H18.4361C18.5404 16.25 18.625 16.1654 18.625 16.0612V14.5638C18.625 14.4596 18.5404 14.375 18.4361 14.375Z" fill="white"/>
</svg>
