<svg width="32" height="32" viewBox="0 0 32 32" fill="none" xmlns="http://www.w3.org/2000/svg">
<rect width="32" height="32" rx="4" fill="white"/>
<path d="M18.25 8.5H11.5C10.6709 8.5 10 9.1709 10 10V22C10 22.8291 10.6709 23.5 11.5 23.5H20.5C21.3291 23.5 22 22.8291 22 22V12.25L18.25 8.5ZM13.75 14.5C14.1631 14.5 14.5 14.8369 14.5 15.25C14.5 15.6631 14.1631 16 13.75 16C13.3369 16 13 15.6631 13 15.25C13 14.8369 13.3369 14.5 13.75 14.5ZM12.25 19.75L14.5 16.75L16 18.25L17.5 16L19.75 19.75H12.25Z" fill="#FFB55F"/>
<rect x="12" y="14" width="8" height="7" fill="#FFB55F"/>
<path d="M14.1195 14.4013V15.2077V16.0504V18.4224C13.908 18.293 13.66 18.217 13.3937 18.217C12.6242 18.217 12 18.8401 12 19.6081C12 20.3768 12.624 21 13.3937 21C14.1629 21 14.7868 20.377 14.787 19.6084V15.8588L18.3326 14.841V17.2216C18.121 17.0921 17.8731 17.0162 17.6068 17.0162C16.8369 17.0162 16.213 17.6391 16.213 18.4071C16.213 19.1757 16.8369 19.799 17.6068 19.799C18.3316 19.799 18.9273 19.245 18.9933 18.5377H19V14.6494V14.0519V13L14.1195 14.4013Z" fill="white"/>
</svg>
