<svg width="20" height="16" viewBox="0 0 20 16" fill="none" xmlns="http://www.w3.org/2000/svg">
<path fill-rule="evenodd" clip-rule="evenodd" d="M18 0H2C0.9 0 0 0.9 0 2V14C0 15.1 0.9 16 2 16H18C19.1 16 20 15.1 20 14V2C20 0.9 19.1 0 18 0ZM1.30693 1.60532C1.08895 1.43579 0.774816 1.47506 0.605281 1.69303C0.435746 1.911 0.475013 2.22514 0.692987 2.39468L9.69299 9.39468C9.87354 9.53511 10.1264 9.53511 10.3069 9.39468L19.3069 2.39468C19.5249 2.22514 19.5642 1.911 19.3946 1.69303C19.2251 1.47506 18.911 1.43579 18.693 1.60532L9.99996 8.36657L1.30693 1.60532Z" fill="#8C8C8C"/>
</svg>
