<svg width="8" height="12" viewBox="0 0 8 12" fill="none" xmlns="http://www.w3.org/2000/svg">
<path d="M0.997536 9.47056L3.2345 11.7037C3.42508 11.894 3.68127 12 3.94995 12C4.21864 12 4.47482 11.894 4.6654 11.7037L6.90237 9.47057C7.29915 9.07446 7.29915 8.43509 6.90237 8.04211C6.70554 7.84561 6.44623 7.74581 6.18691 7.74581C5.9276 7.74581 5.66829 7.84561 5.47146 8.04211L4.94971 8.56296L4.94971 0.99805C4.94971 0.446004 4.50294 -2.3578e-07 3.94995 -2.84124e-07C3.39696 -3.32468e-07 2.95019 0.446004 2.95019 0.99805L2.95019 8.56296L2.42844 8.0421C2.03166 7.646 1.39119 7.646 0.997536 8.0421C0.600756 8.43821 0.600756 9.07758 0.997536 9.47056Z" fill="#6B6C7E"/>
</svg>
