<svg width="32561" height="8263" viewBox="0 0 32561 8263" fill="none" xmlns="http://www.w3.org/2000/svg">
<path fill-rule="evenodd" clip-rule="evenodd" d="M14081.8 5189.4V2021.46H13411.2V5189.4H14081.8ZM11223.5 4067.78V5189.4H10552.9V2167.01H11775.2C12171.5 2167.01 12470.3 2252.63 12671.7 2423.87C12873 2595.11 12973.6 2827.71 12973.6 3121.67C12973.6 3409.93 12869.8 3639.68 12662.1 3810.92C12454.5 3982.16 12158.8 4067.78 11775.2 4067.78H11223.5ZM11223.5 3584.02H11703.8C12097 3584.02 12293.6 3429.9 12293.6 3121.67C12293.6 2970.41 12247.6 2854.82 12155.6 2774.91C12063.7 2695 11913.1 2655.04 11703.8 2655.04H11223.5V3584.02ZM16293.3 5075.95C16134.8 5171.56 15944.5 5219.37 15722.6 5219.37C15500.6 5219.37 15300.9 5170.85 15123.3 5073.81C14945.8 4976.78 14807.1 4836.22 14707.2 4652.13C14607.3 4468.05 14557.4 4251.86 14557.4 4003.56C14557.4 3755.26 14607.3 3539.07 14707.2 3354.99C14807.1 3170.91 14945.8 3030.35 15123.3 2933.31C15300.9 2836.27 15500.6 2787.76 15722.6 2787.76C15944.5 2787.76 16134.8 2834.85 16293.3 2929.03C16451.8 3023.21 16564.4 3150.21 16630.9 3310.04V2817.72H17296.8V5189.4H16630.9V4692.8C16564.4 4852.63 16451.8 4980.34 16293.3 5075.95ZM15931.8 4688.52C15722.6 4688.52 15554.5 4627.87 15427.7 4506.58C15300.9 4385.28 15237.5 4217.61 15237.5 4003.56C15237.5 3789.51 15300.9 3621.12 15427.7 3498.4C15554.5 3375.68 15722.6 3314.32 15931.8 3314.32C16134.7 3314.32 16302 3376.39 16433.6 3500.54C16565.1 3624.69 16630.9 3792.36 16630.9 4003.56C16630.9 4211.9 16565.1 4378.15 16433.6 4502.29C16302 4626.44 16134.7 4688.52 15931.8 4688.52ZM20478.4 2817.72L18866.1 6319.58H18124.2L18718.7 5120.9L17610.6 2817.72H18357.3L19075.4 4427.38L19741.2 2817.72H20478.4ZM22366.5 5219.37C22588.4 5219.37 22788.1 5170.85 22965.7 5073.81C23143.2 4976.78 23282 4836.22 23381.8 4652.13C23481.7 4468.05 23531.6 4251.86 23531.6 4003.56C23531.6 3755.26 23481.7 3539.07 23381.8 3354.99C23282 3170.91 23143.2 3030.35 22965.7 2933.31C22788.1 2836.27 22588.4 2787.76 22366.5 2787.76C22144.5 2787.76 21955.1 2834.85 21798.1 2929.03C21641.2 3023.21 21529.4 3150.21 21462.9 3310.04V2021.46H20792.3V5189.4H21462.9V4692.8C21529.4 4852.63 21641.2 4980.34 21798.1 5075.95C21955.1 5171.56 22144.5 5219.37 22366.5 5219.37ZM21655.5 4502.29C21787 4626.44 21954.3 4688.52 22157.2 4688.52C22366.4 4688.52 22534.5 4627.87 22661.3 4506.58C22788.1 4385.28 22851.5 4217.61 22851.5 4003.56C22851.5 3789.51 22788.1 3621.12 22661.3 3498.4C22534.5 3375.68 22366.4 3314.32 22157.2 3314.32C21954.3 3314.32 21787 3376.39 21655.5 3500.54C21523.9 3624.69 21458.1 3792.36 21458.1 4003.56C21458.1 4211.9 21523.9 4378.15 21655.5 4502.29ZM25039.2 5219.37C25261.1 5219.37 25451.4 5171.56 25609.9 5075.95C25768.4 4980.34 25881 4852.63 25947.6 4692.8V5189.4H26613.4V2817.72H25947.6V3310.04C25881 3150.21 25768.4 3023.21 25609.9 2929.03C25451.4 2834.85 25261.1 2787.76 25039.2 2787.76C24817.3 2787.76 24617.5 2836.27 24440 2933.31C24262.4 3030.35 24123.7 3170.91 24023.8 3354.99C23924 3539.07 23874 3755.26 23874 4003.56C23874 4251.86 23924 4468.05 24023.8 4652.13C24123.7 4836.22 24262.4 4976.78 24440 5073.81C24617.5 5170.85 24817.3 5219.37 25039.2 5219.37ZM24744.3 4506.58C24871.1 4627.87 25039.2 4688.52 25248.4 4688.52C25451.4 4688.52 25618.6 4626.44 25750.2 4502.29C25881.8 4378.15 25947.5 4211.9 25947.5 4003.56C25947.5 3792.36 25881.8 3624.69 25750.2 3500.54C25618.6 3376.39 25451.4 3314.32 25248.4 3314.32C25039.2 3314.32 24871.1 3375.68 24744.3 3498.4C24617.5 3621.12 24554.1 3789.51 24554.1 4003.56C24554.1 4217.61 24617.5 4385.28 24744.3 4506.58ZM28406.3 5219.37C28745.6 5219.37 29028.5 5136.6 29255.2 4971.07C29481.9 4805.54 29623.8 4580.07 29680.9 4294.67H28972.3C28943.7 4420.25 28878.7 4519.42 28777.3 4592.2C28675.8 4664.98 28547.4 4701.36 28392.1 4701.36C28214.5 4701.36 28066.3 4642.14 27947.4 4523.7C27828.5 4405.26 27769 4231.88 27769 4003.56C27769 3775.24 27828.5 3601.86 27947.4 3483.42C28066.3 3364.98 28214.5 3305.76 28392.1 3305.76C28547.4 3305.76 28675.8 3342.15 28777.3 3414.92C28878.7 3487.7 28943.7 3586.88 28972.3 3712.45H29680.9C29623.8 3427.05 29481.9 3201.59 29255.2 3036.05C29028.5 2870.52 28745.6 2787.76 28406.3 2787.76C28149.5 2787.76 27921.2 2836.27 27721.5 2933.31C27521.7 3030.35 27366.4 3170.91 27255.4 3354.99C27144.4 3539.07 27089 3755.26 27089 4003.56C27089 4251.86 27144.4 4467.34 27255.4 4649.99C27366.4 4832.65 27521.7 4973.21 27721.5 5071.67C27921.2 5170.13 28149.5 5219.37 28406.3 5219.37ZM30827.1 4153.4V5189.4H30156.5V2021.46H30827.1V3802.35L31692.6 2817.72H32486.9L31378.8 3999.28L32515.4 5189.4H31697.4L30827.1 4153.4Z" fill="#2680BC"/>
<path fill-rule="evenodd" clip-rule="evenodd" d="M23459.3 7063.82V6857.63H22891.7V6510.94H23398.5V6313.87H22891.7V5979.95H23459.3V5775.59H22605.9V7063.82H23459.3ZM20393.9 7063.82V6503.64H21006.1V7063.82H21293.9V5775.59H21006.1V6297.45H20393.9V5775.59H20108.1V7063.82H20393.9ZM25020.6 6804.72L24919.3 7063.82H24617.2L25144.3 5790.19H25470.6L25995.6 7063.82H25693.6L25594.3 6804.72H25020.6ZM25095.6 6609.48L25306.5 6065.72L25517.3 6609.48H25095.6ZM27968.5 6866.75V7063.82H27202.3V5775.59H27488.1V6866.75H27968.5ZM29769 7063.82V5979.95H30164.3V5775.59H29089.9V5979.95H29483.2V7063.82H29769ZM31660.7 6503.64V7063.82H31374.9V5775.59H31660.7V6297.45H32272.9V5775.59H32560.7V7063.82H32272.9V6503.64H31660.7Z" fill="#E21532"/>
<path d="M8752.1 4229.68C8735.21 4770.56 8586.12 5301.44 8315.44 5784.55C7421.55 7380.94 5378.17 8163.43 3480.58 7635.99C1582.99 7108.56 385.435 5425.26 647.033 3653.13L95.2308 4016.18C25.7711 6252.09 1945.8 8131.65 4426.81 8256.46C6907.81 8381.26 9048.53 6705.97 9256.25 4477.02C9264.05 4394.87 9268.39 4312.36 9270.75 4229.68H8752.1Z" fill="url(#paint0_linear)"/>
<path d="M8689.63 2116.29C7983.16 978.774 6722.07 207.815 5286.94 36.0823C3851.82 -135.651 2410.77 311.959 1398.69 1243.83C1318.65 1317.48 1242.06 1393.38 1168.92 1471.53L0 1006.8L247.833 3068.86L301.898 3518.77L735.999 3232.89L2567.61 2027.48L1666.16 1669.14C1743.38 1592.17 1824.64 1518.16 1909.95 1447.11C3109.74 439.035 4864.96 178.685 6360.63 786.947C7856.3 1395.21 8799.42 2752.93 8752.08 4229.68H9270.73C9291.45 3491.02 9090.71 2760.98 8689.63 2116.29Z" fill="url(#paint1_linear)"/>
<path d="M3198.53 6426.08C3188.88 6418.26 3178.99 6410.97 3169.34 6402.9C3178.99 6410.97 3188.88 6419.31 3198.53 6426.08Z" fill="url(#paint2_linear)"/>
<path d="M3244.09 6453.61C3234.23 6446.32 3224.76 6438.51 3214.91 6430.7C3224.57 6438.51 3234.23 6446.32 3244.09 6453.61Z" fill="url(#paint3_linear)"/>
<path d="M3358.66 6489.56C3349 6486.44 3339.13 6484.09 3329.47 6480.71C3339.13 6484.09 3349 6486.44 3358.66 6489.56Z" fill="url(#paint4_linear)"/>
<path d="M3297.98 6471.85C3287.77 6467.94 3277.84 6463.25 3268.8 6459.08C3277.84 6463.25 3287.77 6467.94 3297.98 6471.85Z" fill="url(#paint5_linear)"/>
<path d="M3144.54 6384.93C3137.83 6379.2 3131.99 6372.95 3125.57 6366.96C3131.99 6372.95 3137.83 6379.2 3144.54 6384.93Z" fill="url(#paint6_linear)"/>
<path d="M3489.68 1994.99C3499.48 1996.55 3509.17 1996.55 3518.86 1999.16C3508.81 1996.29 3499 1996.29 3489.68 1994.99Z" fill="url(#paint7_linear)"/>
<path d="M3004.51 6145.06C3001.59 6136.43 2998.67 6127.94 2996.34 6119.02C2998.67 6127.94 3001.59 6136.43 3004.51 6145.06Z" fill="url(#paint8_linear)"/>
<path d="M3019.28 6198.34C3014.61 6189.76 3010.23 6181.03 3006.15 6172.3C3010.23 6181.03 3015.49 6189.76 3019.28 6198.34Z" fill="url(#paint9_linear)"/>
<path d="M3110.38 6347.9C3100.38 6339.28 3090.92 6330.66 3081.19 6321.85C3090.92 6330.66 3100.38 6339.28 3110.38 6347.9Z" fill="url(#paint10_linear)"/>
<path d="M3036.13 6249.01C3033.79 6244.32 3032.33 6239.37 3030 6234.68C3032.33 6239.37 3034.08 6244.32 3036.13 6249.01Z" fill="url(#paint11_linear)"/>
<path d="M3076.41 6305.89C3067.95 6297.21 3058.9 6288.72 3051.02 6279.85C3058.9 6289.1 3067.95 6297.59 3076.41 6305.89Z" fill="url(#paint12_linear)"/>
<path d="M3582.5 6482.98C3572.77 6488.71 3563.04 6491.31 3553.32 6495.74C3563.04 6490.53 3572.77 6487.92 3582.5 6482.98Z" fill="url(#paint13_linear)"/>
<path d="M3647.35 6462.88C3637.57 6470.17 3627.65 6474.6 3618.16 6480.85C3627.65 6474.6 3637.57 6470.17 3647.35 6462.88Z" fill="url(#paint14_linear)"/>
<path d="M3555.48 2001.36H3554.03C3563.66 2005.01 3573.29 2006.83 3583.21 2011.26C3573.58 2006.57 3564.53 2004.75 3555.48 2001.36Z" fill="url(#paint15_linear)"/>
<path d="M3637.87 2023.44C3643.13 2025.52 3648.09 2028.39 3653.34 2030.21H3651.59C3646.92 2027.6 3644 2025 3637.87 2023.44Z" fill="url(#paint16_linear)"/>
<path d="M3471.82 6501.01C3462.16 6501.01 3452.29 6501.01 3442.63 6499.19C3452.29 6499.71 3462.16 6501.01 3471.82 6501.01Z" fill="url(#paint17_linear)"/>
<path d="M3520.2 6495.85C3510.37 6498.71 3500.75 6498.97 3491.02 6500.27C3500.64 6498.97 3510.26 6498.71 3520.2 6495.85Z" fill="url(#paint18_linear)"/>
<path d="M3412.41 6498.92C3402.68 6497.09 3392.95 6494.75 3383.22 6492.15C3392.62 6494.75 3402.68 6497.09 3412.41 6498.92Z" fill="url(#paint19_linear)"/>
<path d="M3439.16 1992.21C3425.07 1993.77 3410.97 1996.64 3397.07 2001.59C3410.97 1996.64 3425.07 1993.77 3439.16 1992.21Z" fill="url(#paint20_linear)"/>
<path d="M3554.29 2010.97C3540.59 2003.42 3526.89 1995.34 3513.19 1991.18C3526.99 1995.34 3540.59 2004.72 3554.29 2010.97Z" fill="url(#paint21_linear)"/>
<path d="M3379.95 1993.34C3366.35 1999.33 3352.95 2007.14 3339.65 2015.99C3352.85 2007.14 3366.35 1999.33 3379.95 1993.34Z" fill="url(#paint22_linear)"/>
<path d="M3633.33 2025.28C3613.81 2014.93 3593.81 2006.23 3573.45 1999.24C3593.81 2006.23 3613.81 2014.93 3633.33 2025.28Z" fill="url(#paint23_linear)"/>
<path d="M3326.05 2003.06C3308.86 2010.33 3291.96 2019.02 3275.44 2029.1C3291.98 2019.08 3308.87 2010.39 3326.05 2003.06Z" fill="url(#paint24_linear)"/>
<path d="M3553.57 6485.43C3541.36 6491.94 3529.15 6499.23 3516.94 6503.14C3529.15 6499.49 3541.36 6491.94 3553.57 6485.43Z" fill="url(#paint25_linear)"/>
<path d="M3084.38 2156.7C3074.06 2166.11 3064.37 2175.97 3055.2 2186.09C3064.37 2175.97 3074.06 2166.11 3084.38 2156.7Z" fill="url(#paint26_linear)"/>
<path d="M3050.48 2198.53C3039.59 2212.85 3029.85 2227.68 3021.29 2242.93C3029.85 2227.68 3039.59 2212.85 3050.48 2198.53Z" fill="url(#paint27_linear)"/>
<path d="M3383.5 6501.84C3369.8 6495.85 3356.3 6488.29 3342.9 6479.18C3356.3 6488.29 3369.8 6495.85 3383.5 6501.84Z" fill="url(#paint28_linear)"/>
<path d="M3031.48 2247.99C3020.22 2261.97 3010.48 2276.26 3002.29 2290.8C3010.48 2276.26 3020.22 2261.97 3031.48 2247.99Z" fill="url(#paint29_linear)"/>
<path d="M3211.49 2048.62C3200.04 2056.83 3189.09 2065.51 3178.25 2074.67C3189.19 2065.51 3200.24 2056.72 3211.49 2048.62Z" fill="url(#paint30_linear)"/>
<path d="M3118.82 2114.33C3108.27 2123.81 3098.32 2133.75 3088.96 2144.17C3098.18 2133.75 3108.13 2123.81 3118.82 2114.33Z" fill="url(#paint31_linear)"/>
<path d="M3264.52 2023.75C3251.62 2031.7 3239.01 2040.34 3226.7 2049.8C3239.01 2040.34 3251.62 2032.25 3264.52 2023.75Z" fill="url(#paint32_linear)"/>
<path d="M3015.88 2306.25C3005.66 2318.51 2997.2 2330.94 2990.49 2343.64C2997.2 2331.2 3005.08 2318.51 3015.88 2306.25Z" fill="url(#paint33_linear)"/>
<path d="M3442.88 6502.79C3428.58 6502.79 3414.49 6498.62 3400.39 6493.68C3414.49 6498.62 3428.39 6501.49 3442.88 6502.79Z" fill="url(#paint34_linear)"/>
<path d="M3697.06 6434.19C3678.01 6444.11 3658.23 6452.87 3637.87 6460.39C3658.25 6452.9 3678.03 6444.15 3697.06 6434.19Z" fill="url(#paint35_linear)"/>
<path d="M3169.59 6401.96C3155.28 6392.13 3141.6 6381.6 3128.59 6370.43C3141.57 6381.63 3155.26 6392.15 3169.59 6401.96Z" fill="url(#paint36_linear)"/>
<path d="M3122.65 6364.3C3111.91 6354.71 3101.75 6344.68 3092 6334.2C3101.56 6344.68 3111.71 6354.71 3122.65 6364.3Z" fill="url(#paint37_linear)"/>
<path d="M3329.57 6485.11C3312.31 6477.82 3295.35 6469.12 3278.76 6459.06C3295.35 6469.12 3312.31 6477.82 3329.57 6485.11Z" fill="url(#paint38_linear)"/>
<path d="M3214.91 6435.9C3203.47 6427.84 3192.42 6419.09 3181.56 6409.86C3192.42 6419.09 3203.47 6427.84 3214.91 6435.9Z" fill="url(#paint39_linear)"/>
<path d="M3268.62 6463.52C3255.42 6455.6 3242.42 6447.01 3229.81 6437.48C3242.42 6447.01 3255.42 6455.6 3268.62 6463.52Z" fill="url(#paint40_linear)"/>
<path d="M3034.44 6230.82C3023.26 6216.72 3013.51 6202.31 3005.26 6187.66C3013.51 6202.31 3023.26 6216.72 3034.44 6230.82Z" fill="url(#paint41_linear)"/>
<path d="M3018.99 6172.29C3008.48 6160.04 3000.02 6147.6 2993.31 6134.82C2999.14 6147.6 3008.48 6160.04 3018.99 6172.29Z" fill="url(#paint42_linear)"/>
<path d="M3460.4 6502.31C3470.27 6502.31 3480.73 6498.92 3490.89 6497.1C3479.15 6499.18 3467.41 6502.05 3455.77 6501.79L3460.4 6502.31Z" fill="url(#paint43_linear)"/>
<path d="M3087.56 6321.85C3077.33 6312.35 3067.6 6302.4 3058.38 6292.28C3067.6 6302.4 3077.2 6312.35 3087.56 6321.85Z" fill="url(#paint44_linear)"/>
<path d="M3053.59 6280.02C3042.69 6265.71 3032.94 6250.88 3024.4 6235.62C3032.94 6250.88 3042.69 6265.71 3053.59 6280.02Z" fill="url(#paint45_linear)"/>
<path d="M3618.12 6466.34C3604.62 6475.8 3591.22 6485.63 3577.62 6492.39C3591.22 6485.63 3604.62 6475.8 3618.12 6466.34Z" fill="url(#paint46_linear)"/>
<path d="M3003.09 6119.01C2995.28 6101.02 2991.19 6082.89 2990.84 6064.75C2991.19 6082.89 2995.28 6101.02 3003.09 6119.01Z" fill="url(#paint47_linear)"/>
<path d="M3638.58 2019.31C3657.45 2026.91 3675.84 2035.6 3693.63 2045.35L3690.37 2043.54C3673.59 2034.52 3656.3 2026.43 3638.58 2019.31Z" fill="url(#paint48_linear)"/>
<path d="M3125.34 2107.85C3138.27 2096.67 3151.93 2086.17 3166.24 2076.42C3151.93 2086.17 3138.27 2096.67 3125.34 2107.85H3125.34Z" fill="url(#paint49_linear)"/>
<path d="M2988.09 2413.81C2988.5 2395.63 2992.49 2377.48 3000.05 2359.45C2992.49 2377.48 2988.5 2395.63 2988.09 2413.81Z" fill="url(#paint50_linear)"/>
<path d="M3457.85 1993.12H3453.09C3465.4 1993.12 3477.91 1995.73 3490.31 1997.81C3479.59 1995.99 3468.87 1992.6 3458.25 1992.6L3457.85 1993.12Z" fill="url(#paint51_linear)"/>
<path d="M3861.29 3784.93L4128.75 4265.92L4395.13 2761.49L4645.73 4550.29L4737.88 4217.16H5075.88L5425.73 3850.47L5778.83 4194.16H7530.23C7502.27 4077.05 7420.11 3976.25 7304.4 3917.08L3693.47 2043.2C3675.68 2034.13 3657.29 2026.03 3638.42 2018.96C3636.64 2018.34 3634.96 2017.36 3633.19 2016.65C3613.67 2009.59 3593.66 2003.65 3573.3 1998.89C3566.89 1997.38 3560.38 1996.76 3553.57 1995.51C3539.95 1992.94 3526.34 1990.18 3512.72 1988.76C3504.83 1987.87 3496.94 1987.87 3488.95 1987.34C3476.61 1986.63 3464.18 1985.65 3451.95 1985.74C3447.41 1985.74 3442.97 1986.19 3438.43 1986.36C3424.42 1986.9 3410.41 1987.87 3396.6 1989.56C3390.78 1990.18 3384.96 1990.98 3379.24 1991.87C3365.72 1993.91 3352.3 1996.58 3339.18 1999.6C3334.64 2000.66 3330.01 2001.55 3325.57 2002.71C3308.39 2007.21 3291.49 2012.54 3274.95 2018.69C3271.21 2020.11 3267.56 2021.89 3263.81 2023.4C3250.98 2028.55 3238.45 2034.14 3226.22 2040.27C3220.99 2042.85 3216.35 2045.51 3210.92 2048.26C3199.58 2054.39 3188.63 2061.05 3177.97 2067.98C3173.83 2070.64 3169.59 2073.22 3165.54 2076.06C3151.32 2085.82 3137.75 2096.31 3124.89 2107.5C3122.53 2109.54 3120.36 2111.85 3118.09 2113.98C3107.63 2123.46 3097.76 2133.4 3088.49 2143.82C3084.74 2147.91 3081.19 2152.08 3077.64 2156.35C3069.64 2165.76 3062.15 2175.62 3055.04 2185.74C3052.18 2189.83 3049.12 2193.91 3046.36 2198.17C3036.94 2212.5 3028.51 2227.33 3021.1 2242.58C3020.31 2244.27 3019.72 2246.13 3018.93 2247.82C3012.46 2261.8 3006.86 2276.09 3002.16 2290.63C3000.48 2295.69 2999.1 2300.93 2997.62 2306.08C2994.17 2318.33 2991.31 2330.77 2989.04 2343.47C2988.05 2348.8 2987.07 2353.95 2986.28 2359.27C2983.72 2377.3 2982.37 2395.45 2982.23 2413.63L2984.3 4240.08H3514.11L3861.29 3784.93Z" fill="url(#paint52_linear)"/>
<path d="M3861.29 3784.93L4128.75 4265.92L4395.13 2761.49L4645.73 4550.29L4737.88 4217.16H5075.88L5425.73 3850.47L5778.83 4194.16H7530.23C7502.27 4077.05 7420.11 3976.25 7304.4 3917.08L3693.47 2043.2C3675.68 2034.13 3657.29 2026.03 3638.42 2018.96C3636.64 2018.34 3634.96 2017.36 3633.19 2016.65C3613.67 2009.59 3593.66 2003.65 3573.3 1998.89C3566.89 1997.38 3560.38 1996.76 3553.57 1995.51C3539.95 1992.94 3526.34 1990.18 3512.72 1988.76C3504.83 1987.87 3496.94 1987.87 3488.95 1987.34C3476.61 1986.63 3464.18 1985.65 3451.95 1985.74C3447.41 1985.74 3442.97 1986.19 3438.43 1986.36C3424.42 1986.9 3410.41 1987.87 3396.6 1989.56C3390.78 1990.18 3384.96 1990.98 3379.24 1991.87C3365.72 1993.91 3352.3 1996.58 3339.18 1999.6C3334.64 2000.66 3330.01 2001.55 3325.57 2002.71C3308.39 2007.21 3291.49 2012.54 3274.95 2018.69C3271.21 2020.11 3267.56 2021.89 3263.81 2023.4C3250.98 2028.55 3238.45 2034.14 3226.22 2040.27C3220.99 2042.85 3216.35 2045.51 3210.92 2048.26C3199.58 2054.39 3188.63 2061.05 3177.97 2067.98C3173.83 2070.64 3169.59 2073.22 3165.54 2076.06C3151.32 2085.82 3137.75 2096.31 3124.89 2107.5C3122.53 2109.54 3120.36 2111.85 3118.09 2113.98C3107.63 2123.46 3097.76 2133.4 3088.49 2143.82C3084.74 2147.91 3081.19 2152.08 3077.64 2156.35C3069.64 2165.76 3062.15 2175.62 3055.04 2185.74C3052.18 2189.83 3049.12 2193.91 3046.36 2198.17C3036.94 2212.5 3028.51 2227.33 3021.1 2242.58C3020.31 2244.27 3019.72 2246.13 3018.93 2247.82C3012.46 2261.8 3006.86 2276.09 3002.16 2290.63C3000.48 2295.69 2999.1 2300.93 2997.62 2306.08C2994.17 2318.33 2991.31 2330.77 2989.04 2343.47C2988.05 2348.8 2987.07 2353.95 2986.28 2359.27C2983.72 2377.3 2982.37 2395.45 2982.23 2413.63L2984.3 4240.08H3514.11L3861.29 3784.93Z" fill="url(#paint53_linear)"/>
<path d="M5431.62 4124.62L5169.29 4399.93H4895.9L4580.19 5541.84L4371.53 4053.13L4229.56 4855.26L3833.74 4142.92L3620.24 4422.4H2984.28L2985.56 6064.66C2985.68 6082.81 2987.06 6100.93 2989.71 6118.92C2990.49 6124.34 2991.48 6129.49 2992.47 6134.73C2994.74 6147.52 2997.6 6159.95 3001.15 6172.21C3002.53 6177.36 3004.01 6182.51 3005.59 6187.57C3010.42 6202.22 3016.12 6216.63 3022.66 6230.73C3023.45 6232.33 3023.94 6234.02 3024.73 6235.62C3032.15 6250.88 3040.62 6265.71 3050.09 6280.02C3052.75 6284.2 3055.81 6288.19 3058.67 6292.28C3065.87 6302.4 3073.47 6312.35 3081.46 6321.85C3085.01 6326.03 3088.46 6330.11 3092.11 6334.2C3101.98 6344.68 3111.85 6354.71 3122.5 6364.3C3124.67 6366.35 3126.64 6368.48 3128.91 6370.43C3141.84 6381.6 3155.45 6392.13 3169.66 6401.96C3173.71 6404.71 3177.85 6407.2 3181.89 6409.86C3192.75 6416.88 3203.8 6423.54 3215.24 6429.67C3220.17 6432.33 3225.11 6435 3230.14 6437.48C3242.67 6443.79 3255.59 6449.47 3268.71 6454.71C3272.17 6456.13 3275.52 6457.73 3278.58 6459.06C3295.17 6465.24 3312.14 6470.57 3329.39 6475.05C3333.83 6476.2 3338.37 6477 3342.81 6478.07C3356.13 6481.18 3369.54 6483.75 3383.16 6485.79C3388.88 6486.68 3394.6 6487.48 3400.33 6488.1C3414.34 6489.79 3428.35 6490.77 3442.55 6491.21C3446.89 6491.21 3451.33 6491.83 3455.67 6491.83C3467.32 6491.83 3479.06 6490.95 3490.8 6490.23C3499.48 6490.23 3508.06 6489.7 3516.84 6488.72C3528.98 6487.39 3541.11 6484.91 3553.25 6482.69C3561.34 6481.18 3569.43 6480.29 3577.52 6478.33C3591.03 6475.23 3604.35 6470.7 3617.77 6466.34C3624.48 6464.21 3631.19 6462.7 3637.5 6460.22C3657.87 6452.69 3677.64 6443.94 3696.7 6434.02L7304.87 4555.97C7385.81 4514.31 7451.08 4451.85 7492.32 4376.58H5690.61L5431.62 4124.62Z" fill="url(#paint54_linear)"/>
<path d="M5431.62 4124.62L5169.29 4399.93H4895.9L4580.19 5541.84L4371.53 4053.13L4229.56 4855.26L3833.74 4142.92L3620.24 4422.4H2984.28L2985.56 6064.66C2985.68 6082.81 2987.06 6100.93 2989.71 6118.92C2990.49 6124.34 2991.48 6129.49 2992.47 6134.73C2994.74 6147.52 2997.6 6159.95 3001.15 6172.21C3002.53 6177.36 3004.01 6182.51 3005.59 6187.57C3010.42 6202.22 3016.12 6216.63 3022.66 6230.73C3023.45 6232.33 3023.94 6234.02 3024.73 6235.62C3032.15 6250.88 3040.62 6265.71 3050.09 6280.02C3052.75 6284.2 3055.81 6288.19 3058.67 6292.28C3065.87 6302.4 3073.47 6312.35 3081.46 6321.85C3085.01 6326.03 3088.46 6330.11 3092.11 6334.2C3101.98 6344.68 3111.85 6354.71 3122.5 6364.3C3124.67 6366.35 3126.64 6368.48 3128.91 6370.43C3141.84 6381.6 3155.45 6392.13 3169.66 6401.96C3173.71 6404.71 3177.85 6407.2 3181.89 6409.86C3192.75 6416.88 3203.8 6423.54 3215.24 6429.67C3220.17 6432.33 3225.11 6435 3230.14 6437.48C3242.67 6443.79 3255.59 6449.47 3268.71 6454.71C3272.17 6456.13 3275.52 6457.73 3278.58 6459.06C3295.17 6465.24 3312.14 6470.57 3329.39 6475.05C3333.83 6476.2 3338.37 6477 3342.81 6478.07C3356.13 6481.18 3369.54 6483.75 3383.16 6485.79C3388.88 6486.68 3394.6 6487.48 3400.33 6488.1C3414.34 6489.79 3428.35 6490.77 3442.55 6491.21C3446.89 6491.21 3451.33 6491.83 3455.67 6491.83C3467.32 6491.83 3479.06 6490.95 3490.8 6490.23C3499.48 6490.23 3508.06 6489.7 3516.84 6488.72C3528.98 6487.39 3541.11 6484.91 3553.25 6482.69C3561.34 6481.18 3569.43 6480.29 3577.52 6478.33C3591.03 6475.23 3604.35 6470.7 3617.77 6466.34C3624.48 6464.21 3631.19 6462.7 3637.5 6460.22C3657.87 6452.69 3677.64 6443.94 3696.7 6434.02L7304.87 4555.97C7385.81 4514.31 7451.08 4451.85 7492.32 4376.58H5690.61L5431.62 4124.62Z" fill="url(#paint55_linear)"/>
<path d="M2989.18 2343.73C2991.48 2330.94 2994.34 2318.42 2997.76 2306.17C2999.24 2301.02 3000.62 2295.86 3002.2 2290.89C3007 2276.24 3012.66 2261.83 3019.17 2247.73C3019.96 2246.13 3020.45 2244.44 3021.24 2242.85C3028.65 2227.58 3037.12 2212.75 3046.6 2198.44C3049.26 2194.36 3052.22 2190.45 3054.99 2186.45C3062.19 2176.15 3069.88 2166.11 3077.97 2156.52C3081.43 2152.44 3084.88 2148.35 3088.43 2144.36C3098.3 2133.79 3108.16 2123.57 3119.11 2113.89C3121.19 2111.94 3123.06 2109.9 3125.13 2108.03C3138.17 2096.8 3151.87 2086.22 3166.17 2076.33C3170.02 2073.66 3173.97 2071.27 3177.92 2068.69C3188.87 2061.59 3200.11 2054.84 3211.66 2048.53C3216.49 2045.96 3221.52 2043.29 3226.36 2040.8C3238.89 2034.5 3251.71 2028.82 3264.83 2023.04C3268.39 2021.71 3271.74 2020.11 3275.19 2018.78C3291.82 2012.56 3308.82 2007.17 3326.1 2002.62C3330.44 2001.55 3334.78 2000.75 3339.22 1999.69C3352.54 1996.58 3366.06 1993.91 3379.77 1991.87C3385.49 1990.98 3391.22 1990.18 3396.94 1989.56C3410.85 1987.87 3424.86 1986.9 3438.97 1986.36C3443.41 1986.36 3447.85 1985.83 3452.39 1985.74H3457.12C3467.78 1985.74 3478.53 1986.9 3489.28 1987.61C3497.08 1988.05 3504.87 1988.05 3512.77 1988.94C3526.68 1990.45 3540.59 1993.11 3554.6 1995.87C3560.71 1997.02 3566.83 1997.64 3572.95 1999.06C3593.36 2003.78 3613.4 2009.71 3632.93 2016.83C3634.51 2017.36 3635.99 2018.25 3637.57 2018.78C3655.5 2025.48 3672.99 2033.1 3689.96 2041.6L3693.21 2043.29L7304.15 3917.17C7419.86 3976.33 7502.01 4077.14 7529.98 4194.25H7540.83C7540.83 4191.76 7540.83 4189.19 7540.83 4186.7C7542.04 4033.83 7451.52 3892.28 7304.05 3816.46L3693.11 1942.58C3621.45 1904.94 3540 1885.02 3457.02 1884.86C3209.09 1884.86 2981.68 2063.45 2981.88 2312.83V2413.8C2982.02 2395.63 2983.37 2377.48 2985.92 2359.45C2987.21 2354.12 2988.19 2348.97 2989.18 2343.73Z" fill="url(#paint56_linear)"/>
<path d="M3122.91 2128.05C3129.03 2122.32 3134.58 2116.33 3140.71 2110.86C3134.58 2116.33 3129.03 2122.32 3122.91 2128.05Z" fill="url(#paint57_linear)"/>
<path d="M3122.91 2128.05C3129.03 2122.32 3134.58 2116.33 3140.71 2110.86C3134.58 2116.33 3129.03 2122.32 3122.91 2128.05Z" fill="url(#paint58_linear)"/>
<path d="M3439.03 1995.9C3448.69 1995.9 3458.34 1994.33 3468.21 1994.07C3458.56 1994.33 3448.69 1995.38 3439.03 1995.9Z" fill="url(#paint59_linear)"/>
<path d="M3439.03 1995.9C3448.69 1995.9 3458.34 1994.33 3468.21 1994.07C3458.56 1994.33 3448.69 1995.38 3439.03 1995.9Z" fill="url(#paint60_linear)"/>
<path d="M3166.17 2092.2C3175.49 2084.39 3185.54 2077.36 3195.35 2069.81C3185.54 2077.36 3175.73 2084.65 3166.17 2092.2Z" fill="url(#paint61_linear)"/>
<path d="M3166.17 2092.2C3175.49 2084.39 3185.54 2077.36 3195.35 2069.81C3185.54 2077.36 3175.73 2084.65 3166.17 2092.2Z" fill="url(#paint62_linear)"/>
<path d="M3211.66 2064.48C3221.25 2056.93 3231.24 2049.12 3240.84 2041.83C3230.26 2049.12 3221.25 2056.93 3211.66 2064.48Z" fill="url(#paint63_linear)"/>
<path d="M3211.66 2064.48C3221.25 2056.93 3231.24 2049.12 3240.84 2041.83C3230.26 2049.12 3221.25 2056.93 3211.66 2064.48Z" fill="url(#paint64_linear)"/>
<path d="M3489.68 1995.07C3499.36 1996.38 3509.05 1996.38 3518.86 1998.98C3509.05 1996.38 3499.12 1996.38 3489.68 1995.07Z" fill="url(#paint65_linear)"/>
<path d="M3489.68 1995.07C3499.36 1996.38 3509.05 1996.38 3518.86 1998.98C3509.05 1996.38 3499.12 1996.38 3489.68 1995.07Z" fill="url(#paint66_linear)"/>
<path d="M3326.15 2014.02C3335.81 2010.9 3345.68 2008.55 3355.34 2005.43C3345.46 2009.6 3335.81 2011.94 3326.15 2014.02Z" fill="url(#paint67_linear)"/>
<path d="M3326.15 2014.02C3335.81 2010.9 3345.68 2008.55 3355.34 2005.43C3345.46 2009.6 3335.81 2011.94 3326.15 2014.02Z" fill="url(#paint68_linear)"/>
<path d="M3379.76 2003.04C3389.49 2000.43 3399.22 1998.09 3408.95 1996.26C3399.22 1998.09 3389.49 2000.43 3379.76 2003.04Z" fill="url(#paint69_linear)"/>
<path d="M3379.76 2003.04C3389.49 2000.43 3399.22 1998.09 3408.95 1996.26C3399.22 1998.09 3389.49 2000.43 3379.76 2003.04Z" fill="url(#paint70_linear)"/>
<path d="M2993.37 2369.78C2995.71 2360.95 2998.63 2352.41 3001.55 2343.73C2998.63 2352.41 2995.71 2360.95 2993.37 2369.78Z" fill="url(#paint71_linear)"/>
<path d="M2993.37 2369.78C2995.71 2360.95 2998.63 2352.41 3001.55 2343.73C2998.63 2352.41 2995.71 2360.95 2993.37 2369.78Z" fill="url(#paint72_linear)"/>
<path d="M3026.82 2261.03C3029.15 2256.34 3030.61 2251.14 3032.95 2246.71C3030.61 2251.4 3029.15 2256.34 3026.82 2261.03Z" fill="url(#paint73_linear)"/>
<path d="M3026.82 2261.03C3029.15 2256.34 3030.61 2251.14 3032.95 2246.71C3030.61 2251.4 3029.15 2256.34 3026.82 2261.03Z" fill="url(#paint74_linear)"/>
<path d="M3264.84 2036.09C3274.85 2032.19 3284.3 2027.5 3294.03 2023.59C3284.3 2027.24 3274.85 2032.19 3264.84 2036.09Z" fill="url(#paint75_linear)"/>
<path d="M3264.84 2036.09C3274.85 2032.19 3284.3 2027.5 3294.03 2023.59C3284.3 2027.24 3274.85 2032.19 3264.84 2036.09Z" fill="url(#paint76_linear)"/>
<path d="M3003.11 2316.93C3007.49 2308.15 3011.57 2299.37 3016.24 2290.89C3011.57 2299.06 3007.49 2308.15 3003.11 2316.93Z" fill="url(#paint77_linear)"/>
<path d="M3003.11 2316.93C3007.49 2308.15 3011.57 2299.37 3016.24 2290.89C3011.57 2299.06 3007.49 2308.15 3003.11 2316.93Z" fill="url(#paint78_linear)"/>
<path d="M3555.01 2001.53C3564.74 2004.92 3574.47 2006.74 3584.2 2010.91C3574.47 2006.74 3564.74 2004.92 3555.01 2001.53Z" fill="url(#paint79_linear)"/>
<path d="M3555.01 2001.53C3564.74 2004.92 3574.47 2006.74 3584.2 2010.91C3574.47 2006.74 3564.74 2004.92 3555.01 2001.53Z" fill="url(#paint80_linear)"/>
<path d="M3048.07 2212.05C3055.95 2203.18 3064.7 2194.69 3072.87 2186.01C3064.7 2195.46 3055.95 2203.95 3048.07 2212.05Z" fill="url(#paint81_linear)"/>
<path d="M3048.07 2212.05C3055.95 2203.18 3064.7 2194.69 3072.87 2186.01C3064.7 2195.46 3055.95 2203.95 3048.07 2212.05Z" fill="url(#paint82_linear)"/>
<path d="M3078.02 2170.31C3087.65 2161.57 3097.29 2152.82 3107.2 2144.27C3097.29 2152.82 3087.65 2161.57 3078.02 2170.31Z" fill="url(#paint83_linear)"/>
<path d="M3078.02 2170.31C3087.65 2161.57 3097.29 2152.82 3107.2 2144.27C3097.29 2152.82 3087.65 2161.57 3078.02 2170.31Z" fill="url(#paint84_linear)"/>
<path d="M3638.47 2023.78C3643.14 2025.35 3647.51 2027.95 3652.18 2029.51C3647.51 2027.95 3644.6 2025.35 3638.47 2023.78Z" fill="url(#paint85_linear)"/>
<path d="M3638.47 2023.78C3643.14 2025.35 3647.51 2027.95 3652.18 2029.51C3647.51 2027.95 3644.6 2025.35 3638.47 2023.78Z" fill="url(#paint86_linear)"/>
<path d="M3275.23 2029.19C3291.75 2019.11 3308.65 2010.41 3325.84 2003.14C3308.66 2010.48 3291.77 2019.17 3275.23 2029.19Z" fill="url(#paint87_linear)"/>
<path d="M3397 2001.59C3410.9 1996.64 3424.99 1993.77 3439.09 1992.21C3425.09 1993.77 3411 1996.64 3397 2001.59Z" fill="url(#paint88_linear)"/>
<path d="M3000.05 2359.45C2992.49 2377.48 2988.5 2395.63 2988.09 2413.81C2988.5 2395.63 2992.49 2377.48 3000.05 2359.45Z" fill="url(#paint89_linear)"/>
<path d="M3339.43 2016.09C3352.73 2007.23 3366.14 1999.42 3379.74 1993.43C3366.24 1999.16 3352.64 2006.97 3339.43 2016.09Z" fill="url(#paint90_linear)"/>
<path d="M3002.22 2290.89C3010.4 2276.35 3020.15 2262.06 3031.41 2248.08C3020.22 2262.07 3010.48 2276.36 3002.22 2290.89H3002.22Z" fill="url(#paint91_linear)"/>
<path d="M3088.47 2144.71C3098.02 2134.29 3107.97 2124.34 3118.32 2114.87L3118.92 2114.33C3108.57 2123.48 3098.32 2133.69 3088.47 2144.71Z" fill="url(#paint92_linear)"/>
<path d="M3021.29 2242.84C3029.85 2227.59 3039.59 2212.76 3050.48 2198.44C3039.56 2212.75 3029.82 2227.58 3021.29 2242.84H3021.29Z" fill="url(#paint93_linear)"/>
<path d="M3125.13 2107.94C3138.06 2096.75 3151.72 2086.26 3166.03 2076.5C3151.77 2086.32 3138.12 2096.81 3125.13 2107.94Z" fill="url(#paint94_linear)"/>
<path d="M2990.49 2343.73C2997.2 2331.03 3005.66 2318.6 3015.88 2306.35C3005.76 2318.48 2997.3 2330.95 2990.49 2343.73Z" fill="url(#paint95_linear)"/>
<path d="M3054.99 2186.36C3064.16 2176.24 3073.85 2166.38 3084.17 2156.97C3074.23 2166.03 3064.29 2176.06 3054.99 2186.36Z" fill="url(#paint96_linear)"/>
<path d="M3177.96 2074.93H3178.46C3189.21 2065.78 3200.06 2057.1 3211.41 2048.88C3200.16 2056.63 3188.91 2065.54 3177.96 2074.93Z" fill="url(#paint97_linear)"/>
<path d="M3226.42 2049.88C3238.73 2040.43 3251.34 2031.79 3264.24 2023.84H3264.84C3251.93 2031.38 3239.03 2040.15 3226.42 2049.88Z" fill="url(#paint98_linear)"/>
<path d="M3211.66 2064.75C3221.26 2056.67 3230.49 2048.86 3240.84 2041.31C3229.54 2049.38 3220.88 2057.19 3211.66 2064.75Z" fill="url(#paint99_linear)"/>
<path d="M3211.66 2064.75C3221.26 2056.67 3230.49 2048.86 3240.84 2041.31C3229.54 2049.38 3220.88 2057.19 3211.66 2064.75Z" fill="url(#paint100_linear)"/>
<path d="M3026.74 2261.37C3029.08 2256.42 3030.83 2250.95 3033.16 2246C3030.54 2251.47 3029.08 2256.68 3026.74 2261.37Z" fill="url(#paint101_linear)"/>
<path d="M3026.74 2261.37C3029.08 2256.42 3030.83 2250.95 3033.16 2246C3030.54 2251.47 3029.08 2256.68 3026.74 2261.37Z" fill="url(#paint102_linear)"/>
<path d="M3047.77 2211.61C3055.94 2202.68 3064.99 2194.12 3073.45 2185.56C3064.4 2195.61 3055.65 2203.79 3047.77 2211.61Z" fill="url(#paint103_linear)"/>
<path d="M3047.77 2211.61C3055.94 2202.68 3064.99 2194.12 3073.45 2185.56C3064.4 2195.61 3055.65 2203.79 3047.77 2211.61Z" fill="url(#paint104_linear)"/>
<path d="M3265.83 2036.52H3264.28C3274.09 2032.1 3283.65 2026.89 3293.46 2022.72C3283.91 2027.67 3275.12 2032.62 3265.83 2036.52Z" fill="url(#paint105_linear)"/>
<path d="M3265.83 2036.52H3264.28C3274.09 2032.1 3283.65 2026.89 3293.46 2022.72C3283.91 2027.67 3275.12 2032.62 3265.83 2036.52Z" fill="url(#paint106_linear)"/>
<path d="M3166.17 2092.63C3175.66 2084.3 3185.62 2076.74 3195.35 2068.93H3194.19C3184.47 2077.79 3174.97 2085.08 3166.17 2092.63Z" fill="url(#paint107_linear)"/>
<path d="M3166.17 2092.63C3175.66 2084.3 3185.62 2076.74 3195.35 2068.93H3194.19C3184.47 2077.79 3174.97 2085.08 3166.17 2092.63Z" fill="url(#paint108_linear)"/>
<path d="M2993.37 2369.69C2995.71 2360.91 2998.63 2352.42 3001.55 2343.65C2998.63 2352.42 2995.71 2360.91 2993.37 2369.69Z" fill="url(#paint109_linear)"/>
<path d="M2993.37 2369.69C2995.71 2360.91 2998.63 2352.42 3001.55 2343.65C2998.63 2352.42 2995.71 2360.91 2993.37 2369.69Z" fill="url(#paint110_linear)"/>
<path d="M3003.04 2316.76C3007.41 2308.08 3011.5 2299.25 3016.46 2290.71C3011.5 2299.1 3007.41 2308.08 3003.04 2316.76Z" fill="url(#paint111_linear)"/>
<path d="M3003.04 2316.76C3007.41 2308.08 3011.5 2299.25 3016.46 2290.71C3011.5 2299.1 3007.41 2308.08 3003.04 2316.76Z" fill="url(#paint112_linear)"/>
<path d="M3379.76 2003.04C3389.38 2000.43 3399.16 1998.09 3408.95 1996.26C3399 1998.09 3389.38 2000.43 3379.76 2003.04Z" fill="url(#paint113_linear)"/>
<path d="M3379.76 2003.04C3389.38 2000.43 3399.16 1998.09 3408.95 1996.26C3399 1998.09 3389.38 2000.43 3379.76 2003.04Z" fill="url(#paint114_linear)"/>
<path d="M3439.03 1995.9C3448.83 1995.9 3458.42 1994.33 3468.21 1994.07C3458.42 1994.33 3448.62 1995.38 3439.03 1995.9Z" fill="url(#paint115_linear)"/>
<path d="M3439.03 1995.9C3448.83 1995.9 3458.42 1994.33 3468.21 1994.07C3458.42 1994.33 3448.62 1995.38 3439.03 1995.9Z" fill="url(#paint116_linear)"/>
<path d="M3123.28 2127.62L3121.53 2129.18C3128.24 2122.93 3134.66 2116.16 3141.67 2110.17C3134.95 2115.9 3129.41 2121.89 3123.28 2127.62Z" fill="url(#paint117_linear)"/>
<path d="M3123.28 2127.62L3121.53 2129.18C3128.24 2122.93 3134.66 2116.16 3141.67 2110.17C3134.95 2115.9 3129.41 2121.89 3123.28 2127.62Z" fill="url(#paint118_linear)"/>
<path d="M3326.15 2014.2C3335.67 2010.81 3345.61 2008.21 3355.34 2005.08C3344.98 2009.77 3335.46 2012.12 3326.15 2014.2Z" fill="url(#paint119_linear)"/>
<path d="M3326.15 2014.2C3335.67 2010.81 3345.61 2008.21 3355.34 2005.08C3344.98 2009.77 3335.46 2012.12 3326.15 2014.2Z" fill="url(#paint120_linear)"/>
<path d="M3078.02 2169.95C3087.57 2161.09 3097.12 2151.48 3107.2 2143.91C3096.59 2152.96 3087.3 2161.45 3078.02 2169.95Z" fill="url(#paint121_linear)"/>
<path d="M3078.02 2169.95C3087.57 2161.09 3097.12 2151.48 3107.2 2143.91C3096.59 2152.96 3087.3 2161.45 3078.02 2169.95Z" fill="url(#paint122_linear)"/>
<path d="M7552.23 4236.34C7557 4222.4 7558.59 4208.28 7559.39 4194.16H7530.21C7539.49 4208.19 7547.19 4222.22 7552.23 4236.34Z" fill="white"/>
<defs>
<linearGradient id="paint0_linear" x1="229.408" y1="8151.22" x2="8963.73" y2="8151.22" gradientUnits="userSpaceOnUse">
<stop stop-color="#E21532"/>
<stop offset="1" stop-color="#2880B5"/>
</linearGradient>
<linearGradient id="paint1_linear" x1="1001.49" y1="3814.46" x2="8456.59" y2="3814.46" gradientUnits="userSpaceOnUse">
<stop stop-color="#2AA4CA"/>
<stop offset="1" stop-color="#2880B5"/>
</linearGradient>
<linearGradient id="paint2_linear" x1="8830.07" y1="5551.04" x2="8825.26" y2="-4538.51" gradientUnits="userSpaceOnUse">
<stop stop-color="#921806"/>
<stop offset="0.07" stop-color="#921806"/>
<stop offset="0.77" stop-color="#E21532"/>
<stop offset="1" stop-color="#E21532"/>
</linearGradient>
<linearGradient id="paint3_linear" x1="-3319.6" y1="-12735.4" x2="-3220.45" y2="-12735.4" gradientUnits="userSpaceOnUse">
<stop stop-color="#921806"/>
<stop offset="0.07" stop-color="#921806"/>
<stop offset="0.77" stop-color="#E21532"/>
<stop offset="1" stop-color="#E21532"/>
</linearGradient>
<linearGradient id="paint4_linear" x1="-4174.9" y1="-12818.4" x2="-4064.81" y2="-12818.4" gradientUnits="userSpaceOnUse">
<stop stop-color="#921806"/>
<stop offset="0.07" stop-color="#921806"/>
<stop offset="0.77" stop-color="#E21532"/>
<stop offset="1" stop-color="#E21532"/>
</linearGradient>
<linearGradient id="paint5_linear" x1="-6757.66" y1="-12759.8" x2="-6607.94" y2="-12759.8" gradientUnits="userSpaceOnUse">
<stop stop-color="#921806"/>
<stop offset="0.07" stop-color="#921806"/>
<stop offset="0.77" stop-color="#E21532"/>
<stop offset="1" stop-color="#E21532"/>
</linearGradient>
<linearGradient id="paint6_linear" x1="-6467.2" y1="-12582.4" x2="-6317.48" y2="-12582.4" gradientUnits="userSpaceOnUse">
<stop stop-color="#921806"/>
<stop offset="0.07" stop-color="#921806"/>
<stop offset="0.77" stop-color="#E21532"/>
<stop offset="1" stop-color="#E21532"/>
</linearGradient>
<linearGradient id="paint7_linear" x1="-941.653" y1="-4172.81" x2="-879.531" y2="-4172.81" gradientUnits="userSpaceOnUse">
<stop stop-color="#921806"/>
<stop offset="0.07" stop-color="#921806"/>
<stop offset="0.77" stop-color="#E21532"/>
<stop offset="1" stop-color="#E21532"/>
</linearGradient>
<linearGradient id="paint8_linear" x1="-6203.25" y1="-4090.66" x2="-6053.54" y2="-4090.66" gradientUnits="userSpaceOnUse">
<stop stop-color="#921806"/>
<stop offset="0.07" stop-color="#921806"/>
<stop offset="0.77" stop-color="#E21532"/>
<stop offset="1" stop-color="#E21532"/>
</linearGradient>
<linearGradient id="paint9_linear" x1="-6227.65" y1="-4424.86" x2="-6077.93" y2="-4424.86" gradientUnits="userSpaceOnUse">
<stop stop-color="#921806"/>
<stop offset="0.07" stop-color="#921806"/>
<stop offset="0.77" stop-color="#E21532"/>
<stop offset="1" stop-color="#E21532"/>
</linearGradient>
<linearGradient id="paint10_linear" x1="-5688.25" y1="-7206.47" x2="-5549.63" y2="-7206.47" gradientUnits="userSpaceOnUse">
<stop stop-color="#921806"/>
<stop offset="0.07" stop-color="#921806"/>
<stop offset="0.77" stop-color="#E21532"/>
<stop offset="1" stop-color="#E21532"/>
</linearGradient>
<linearGradient id="paint11_linear" x1="-6267.42" y1="-12319.6" x2="-6117.7" y2="-12319.6" gradientUnits="userSpaceOnUse">
<stop stop-color="#921806"/>
<stop offset="0.07" stop-color="#921806"/>
<stop offset="0.77" stop-color="#E21532"/>
<stop offset="1" stop-color="#E21532"/>
</linearGradient>
<linearGradient id="paint12_linear" x1="-6327.53" y1="-7251.8" x2="-6177.81" y2="-7251.8" gradientUnits="userSpaceOnUse">
<stop stop-color="#921806"/>
<stop offset="0.07" stop-color="#921806"/>
<stop offset="0.77" stop-color="#E21532"/>
<stop offset="1" stop-color="#E21532"/>
</linearGradient>
<linearGradient id="paint13_linear" x1="-864.463" y1="-12856.5" x2="-803.604" y2="-12856.5" gradientUnits="userSpaceOnUse">
<stop stop-color="#921806"/>
<stop offset="0.07" stop-color="#921806"/>
<stop offset="0.77" stop-color="#E21532"/>
<stop offset="1" stop-color="#E21532"/>
</linearGradient>
<linearGradient id="paint14_linear" x1="-1911.79" y1="-12818.6" x2="-1836.93" y2="-12818.6" gradientUnits="userSpaceOnUse">
<stop stop-color="#921806"/>
<stop offset="0.07" stop-color="#921806"/>
<stop offset="0.77" stop-color="#E21532"/>
<stop offset="1" stop-color="#E21532"/>
</linearGradient>
<linearGradient id="paint15_linear" x1="-1881.07" y1="-4187.06" x2="-1806.21" y2="-4187.06" gradientUnits="userSpaceOnUse">
<stop stop-color="#921806"/>
<stop offset="0.07" stop-color="#921806"/>
<stop offset="0.77" stop-color="#E21532"/>
<stop offset="1" stop-color="#E21532"/>
</linearGradient>
<linearGradient id="paint16_linear" x1="-7466.54" y1="-4195.91" x2="-7316.83" y2="-4195.91" gradientUnits="userSpaceOnUse">
<stop stop-color="#921806"/>
<stop offset="0.07" stop-color="#921806"/>
<stop offset="0.77" stop-color="#E21532"/>
<stop offset="1" stop-color="#E21532"/>
</linearGradient>
<linearGradient id="paint17_linear" x1="-4482.4" y1="-12850.1" x2="-4369.84" y2="-12850.1" gradientUnits="userSpaceOnUse">
<stop stop-color="#921806"/>
<stop offset="0.07" stop-color="#921806"/>
<stop offset="0.77" stop-color="#E21532"/>
<stop offset="1" stop-color="#E21532"/>
</linearGradient>
<linearGradient id="paint18_linear" x1="-555.836" y1="-12873.1" x2="-499.125" y2="-12873.1" gradientUnits="userSpaceOnUse">
<stop stop-color="#921806"/>
<stop offset="0.07" stop-color="#921806"/>
<stop offset="0.77" stop-color="#E21532"/>
<stop offset="1" stop-color="#E21532"/>
</linearGradient>
<linearGradient id="paint19_linear" x1="-2573.67" y1="-12851" x2="-2487.63" y2="-12851" gradientUnits="userSpaceOnUse">
<stop stop-color="#921806"/>
<stop offset="0.07" stop-color="#921806"/>
<stop offset="0.77" stop-color="#E21532"/>
<stop offset="1" stop-color="#E21532"/>
</linearGradient>
<linearGradient id="paint20_linear" x1="11572.2" y1="14383" x2="11571.2" y2="4293.21" gradientUnits="userSpaceOnUse">
<stop stop-color="#921806"/>
<stop offset="0.07" stop-color="#921806"/>
<stop offset="0.77" stop-color="#E21532"/>
<stop offset="1" stop-color="#E21532"/>
</linearGradient>
<linearGradient id="paint21_linear" x1="11498.9" y1="14374.7" x2="11497.9" y2="4284.92" gradientUnits="userSpaceOnUse">
<stop stop-color="#921806"/>
<stop offset="0.07" stop-color="#921806"/>
<stop offset="0.77" stop-color="#E21532"/>
<stop offset="1" stop-color="#E21532"/>
</linearGradient>
<linearGradient id="paint22_linear" x1="11174.1" y1="14367.7" x2="11173.1" y2="4278.2" gradientUnits="userSpaceOnUse">
<stop stop-color="#921806"/>
<stop offset="0.07" stop-color="#921806"/>
<stop offset="0.77" stop-color="#E21532"/>
<stop offset="1" stop-color="#E21532"/>
</linearGradient>
<linearGradient id="paint23_linear" x1="9404.8" y1="8175.94" x2="9404.33" y2="3131.06" gradientUnits="userSpaceOnUse">
<stop stop-color="#921806"/>
<stop offset="0.07" stop-color="#921806"/>
<stop offset="0.77" stop-color="#E21532"/>
<stop offset="1" stop-color="#E21532"/>
</linearGradient>
<linearGradient id="paint24_linear" x1="8753.32" y1="8860.08" x2="8752.65" y2="3254.66" gradientUnits="userSpaceOnUse">
<stop stop-color="#921806"/>
<stop offset="0.07" stop-color="#921806"/>
<stop offset="0.77" stop-color="#E21532"/>
<stop offset="1" stop-color="#E21532"/>
</linearGradient>
<linearGradient id="paint25_linear" x1="10633.6" y1="5691.29" x2="10632.3" y2="-4398.25" gradientUnits="userSpaceOnUse">
<stop stop-color="#921806"/>
<stop offset="0.07" stop-color="#921806"/>
<stop offset="0.77" stop-color="#E21532"/>
<stop offset="1" stop-color="#E21532"/>
</linearGradient>
<linearGradient id="paint26_linear" x1="4779.93" y1="6210.81" x2="4776.61" y2="2770.19" gradientUnits="userSpaceOnUse">
<stop stop-color="#921806"/>
<stop offset="0.07" stop-color="#921806"/>
<stop offset="0.77" stop-color="#E21532"/>
<stop offset="1" stop-color="#E21532"/>
</linearGradient>
<linearGradient id="paint27_linear" x1="4171.75" y1="6210.21" x2="4164.98" y2="2769.63" gradientUnits="userSpaceOnUse">
<stop stop-color="#921806"/>
<stop offset="0.07" stop-color="#921806"/>
<stop offset="0.77" stop-color="#E21532"/>
<stop offset="1" stop-color="#E21532"/>
</linearGradient>
<linearGradient id="paint28_linear" x1="11231.5" y1="5699.01" x2="11230.5" y2="-4390.11" gradientUnits="userSpaceOnUse">
<stop stop-color="#921806"/>
<stop offset="0.07" stop-color="#921806"/>
<stop offset="0.77" stop-color="#E21532"/>
<stop offset="1" stop-color="#E21532"/>
</linearGradient>
<linearGradient id="paint29_linear" x1="4199" y1="6209.28" x2="4189.53" y2="2768.66" gradientUnits="userSpaceOnUse">
<stop stop-color="#921806"/>
<stop offset="0.07" stop-color="#921806"/>
<stop offset="0.77" stop-color="#E21532"/>
<stop offset="1" stop-color="#E21532"/>
</linearGradient>
<linearGradient id="paint30_linear" x1="6103.01" y1="7547.8" x2="6101.44" y2="3002.87" gradientUnits="userSpaceOnUse">
<stop stop-color="#921806"/>
<stop offset="0.07" stop-color="#921806"/>
<stop offset="0.77" stop-color="#E21532"/>
<stop offset="1" stop-color="#E21532"/>
</linearGradient>
<linearGradient id="paint31_linear" x1="4826.82" y1="6211.15" x2="4824.28" y2="2770.54" gradientUnits="userSpaceOnUse">
<stop stop-color="#921806"/>
<stop offset="0.07" stop-color="#921806"/>
<stop offset="0.77" stop-color="#E21532"/>
<stop offset="1" stop-color="#E21532"/>
</linearGradient>
<linearGradient id="paint32_linear" x1="7103.35" y1="8487.74" x2="7102.15" y2="3177.34" gradientUnits="userSpaceOnUse">
<stop stop-color="#921806"/>
<stop offset="0.07" stop-color="#921806"/>
<stop offset="0.77" stop-color="#E21532"/>
<stop offset="1" stop-color="#E21532"/>
</linearGradient>
<linearGradient id="paint33_linear" x1="4346.58" y1="6207.69" x2="4334.29" y2="2767.1" gradientUnits="userSpaceOnUse">
<stop stop-color="#921806"/>
<stop offset="0.07" stop-color="#921806"/>
<stop offset="0.77" stop-color="#E21532"/>
<stop offset="1" stop-color="#E21532"/>
</linearGradient>
<linearGradient id="paint34_linear" x1="11648.9" y1="5683.99" x2="11648" y2="-4405.56" gradientUnits="userSpaceOnUse">
<stop stop-color="#921806"/>
<stop offset="0.07" stop-color="#921806"/>
<stop offset="0.77" stop-color="#E21532"/>
<stop offset="1" stop-color="#E21532"/>
</linearGradient>
<linearGradient id="paint35_linear" x1="7551.27" y1="6211.54" x2="7550.77" y2="2770.82" gradientUnits="userSpaceOnUse">
<stop stop-color="#921806"/>
<stop offset="0.07" stop-color="#921806"/>
<stop offset="0.77" stop-color="#E21532"/>
<stop offset="1" stop-color="#E21532"/>
</linearGradient>
<linearGradient id="paint36_linear" x1="5387.5" y1="6211.44" x2="5385.99" y2="2770.86" gradientUnits="userSpaceOnUse">
<stop stop-color="#921806"/>
<stop offset="0.07" stop-color="#921806"/>
<stop offset="0.77" stop-color="#E21532"/>
<stop offset="1" stop-color="#E21532"/>
</linearGradient>
<linearGradient id="paint37_linear" x1="4857.06" y1="6211.19" x2="4854.6" y2="2770.63" gradientUnits="userSpaceOnUse">
<stop stop-color="#921806"/>
<stop offset="0.07" stop-color="#921806"/>
<stop offset="0.77" stop-color="#E21532"/>
<stop offset="1" stop-color="#E21532"/>
</linearGradient>
<linearGradient id="paint38_linear" x1="8774.5" y1="6056.44" x2="8773.84" y2="451.14" gradientUnits="userSpaceOnUse">
<stop stop-color="#921806"/>
<stop offset="0.07" stop-color="#921806"/>
<stop offset="0.77" stop-color="#E21532"/>
<stop offset="1" stop-color="#E21532"/>
</linearGradient>
<linearGradient id="paint39_linear" x1="6098.94" y1="6149.18" x2="6097.4" y2="1624.53" gradientUnits="userSpaceOnUse">
<stop stop-color="#921806"/>
<stop offset="0.07" stop-color="#921806"/>
<stop offset="0.77" stop-color="#E21532"/>
<stop offset="1" stop-color="#E21532"/>
</linearGradient>
<linearGradient id="paint40_linear" x1="7122.88" y1="6096.33" x2="7121.74" y2="895.536" gradientUnits="userSpaceOnUse">
<stop stop-color="#921806"/>
<stop offset="0.07" stop-color="#921806"/>
<stop offset="0.77" stop-color="#E21532"/>
<stop offset="1" stop-color="#E21532"/>
</linearGradient>
<linearGradient id="paint41_linear" x1="4186.88" y1="6209.3" x2="4177.42" y2="2768.54" gradientUnits="userSpaceOnUse">
<stop stop-color="#921806"/>
<stop offset="0.07" stop-color="#921806"/>
<stop offset="0.77" stop-color="#E21532"/>
<stop offset="1" stop-color="#E21532"/>
</linearGradient>
<linearGradient id="paint42_linear" x1="4337.46" y1="6207.7" x2="4325.11" y2="2767.17" gradientUnits="userSpaceOnUse">
<stop stop-color="#921806"/>
<stop offset="0.07" stop-color="#921806"/>
<stop offset="0.77" stop-color="#E21532"/>
<stop offset="1" stop-color="#E21532"/>
</linearGradient>
<linearGradient id="paint43_linear" x1="10274.1" y1="5680.91" x2="10272.7" y2="-4408.63" gradientUnits="userSpaceOnUse">
<stop stop-color="#921806"/>
<stop offset="0.07" stop-color="#921806"/>
<stop offset="0.77" stop-color="#E21532"/>
<stop offset="1" stop-color="#E21532"/>
</linearGradient>
<linearGradient id="paint44_linear" x1="4768.67" y1="6210.82" x2="4765.34" y2="2770.17" gradientUnits="userSpaceOnUse">
<stop stop-color="#921806"/>
<stop offset="0.07" stop-color="#921806"/>
<stop offset="0.77" stop-color="#E21532"/>
<stop offset="1" stop-color="#E21532"/>
</linearGradient>
<linearGradient id="paint45_linear" x1="4171.14" y1="6210.27" x2="4164.4" y2="2769.65" gradientUnits="userSpaceOnUse">
<stop stop-color="#921806"/>
<stop offset="0.07" stop-color="#921806"/>
<stop offset="0.77" stop-color="#E21532"/>
<stop offset="1" stop-color="#E21532"/>
</linearGradient>
<linearGradient id="paint46_linear" x1="9409.14" y1="5913.37" x2="9408.09" y2="-1560.37" gradientUnits="userSpaceOnUse">
<stop stop-color="#921806"/>
<stop offset="0.07" stop-color="#921806"/>
<stop offset="0.77" stop-color="#E21532"/>
<stop offset="1" stop-color="#E21532"/>
</linearGradient>
<linearGradient id="paint47_linear" x1="3918.95" y1="6205.56" x2="3893.07" y2="2765.04" gradientUnits="userSpaceOnUse">
<stop stop-color="#921806"/>
<stop offset="0.07" stop-color="#921806"/>
<stop offset="0.77" stop-color="#E21532"/>
<stop offset="1" stop-color="#E21532"/>
</linearGradient>
<linearGradient id="paint48_linear" x1="7578" y1="6522.66" x2="7577.43" y2="2826.7" gradientUnits="userSpaceOnUse">
<stop stop-color="#921806"/>
<stop offset="0.07" stop-color="#921806"/>
<stop offset="0.77" stop-color="#E21532"/>
<stop offset="1" stop-color="#E21532"/>
</linearGradient>
<linearGradient id="paint49_linear" x1="5388.42" y1="6211.47" x2="5386.91" y2="2770.82" gradientUnits="userSpaceOnUse">
<stop stop-color="#921806"/>
<stop offset="0.07" stop-color="#921806"/>
<stop offset="0.77" stop-color="#E21532"/>
<stop offset="1" stop-color="#E21532"/>
</linearGradient>
<linearGradient id="paint50_linear" x1="3923.18" y1="6205.61" x2="3897.22" y2="2765.07" gradientUnits="userSpaceOnUse">
<stop stop-color="#921806"/>
<stop offset="0.07" stop-color="#921806"/>
<stop offset="0.77" stop-color="#E21532"/>
<stop offset="1" stop-color="#E21532"/>
</linearGradient>
<linearGradient id="paint51_linear" x1="10689.7" y1="14386" x2="10688.4" y2="4296.26" gradientUnits="userSpaceOnUse">
<stop stop-color="#921806"/>
<stop offset="0.07" stop-color="#921806"/>
<stop offset="0.77" stop-color="#E21532"/>
<stop offset="1" stop-color="#E21532"/>
</linearGradient>
<linearGradient id="paint52_linear" x1="-120.606" y1="-131.498" x2="-69.9933" y2="-131.498" gradientUnits="userSpaceOnUse">
<stop stop-color="#921806"/>
<stop offset="0.07" stop-color="#921806"/>
<stop offset="0.77" stop-color="#E21532"/>
<stop offset="1" stop-color="#E21532"/>
</linearGradient>
<linearGradient id="paint53_linear" x1="8309.57" y1="6210.45" x2="8308.76" y2="2769.82" gradientUnits="userSpaceOnUse">
<stop stop-color="#921806"/>
<stop offset="0.07" stop-color="#921806"/>
<stop offset="0.77" stop-color="#E21532"/>
<stop offset="1" stop-color="#E21532"/>
</linearGradient>
<linearGradient id="paint54_linear" x1="-120.631" y1="-131.899" x2="-70.0187" y2="-131.899" gradientUnits="userSpaceOnUse">
<stop stop-color="#921806"/>
<stop offset="0.07" stop-color="#921806"/>
<stop offset="0.77" stop-color="#E21532"/>
<stop offset="1" stop-color="#E21532"/>
</linearGradient>
<linearGradient id="paint55_linear" x1="8423.89" y1="6210.49" x2="8423.15" y2="2769.86" gradientUnits="userSpaceOnUse">
<stop stop-color="#921806"/>
<stop offset="0.07" stop-color="#921806"/>
<stop offset="0.77" stop-color="#E21532"/>
<stop offset="1" stop-color="#E21532"/>
</linearGradient>
<linearGradient id="paint56_linear" x1="7351.31" y1="2037.01" x2="3411.17" y2="2047.66" gradientUnits="userSpaceOnUse">
<stop stop-color="#AD5140"/>
<stop offset="0.07" stop-color="#AD5140"/>
<stop offset="0.77" stop-color="#E94865"/>
<stop offset="1" stop-color="#E94865"/>
</linearGradient>
<linearGradient id="paint57_linear" x1="-6460.82" y1="-4356.81" x2="-6311.1" y2="-4356.81" gradientUnits="userSpaceOnUse">
<stop stop-color="#921806"/>
<stop offset="0.07" stop-color="#921806"/>
<stop offset="0.77" stop-color="#E21532"/>
<stop offset="1" stop-color="#E21532"/>
</linearGradient>
<linearGradient id="paint58_linear" x1="-6556.54" y1="-4389.36" x2="-6406.82" y2="-4389.36" gradientUnits="userSpaceOnUse">
<stop stop-color="#AD5140"/>
<stop offset="0.07" stop-color="#AD5140"/>
<stop offset="0.77" stop-color="#E94865"/>
<stop offset="1" stop-color="#E94865"/>
</linearGradient>
<linearGradient id="paint59_linear" x1="-4303.25" y1="-4145.29" x2="-4193.16" y2="-4145.29" gradientUnits="userSpaceOnUse">
<stop stop-color="#921806"/>
<stop offset="0.07" stop-color="#921806"/>
<stop offset="0.77" stop-color="#E21532"/>
<stop offset="1" stop-color="#E21532"/>
</linearGradient>
<linearGradient id="paint60_linear" x1="-4373.63" y1="-4171.34" x2="-4263.55" y2="-4171.34" gradientUnits="userSpaceOnUse">
<stop stop-color="#AD5140"/>
<stop offset="0.07" stop-color="#AD5140"/>
<stop offset="0.77" stop-color="#E94865"/>
<stop offset="1" stop-color="#E94865"/>
</linearGradient>
<linearGradient id="paint61_linear" x1="8835.05" y1="13925.8" x2="8830.04" y2="3835.82" gradientUnits="userSpaceOnUse">
<stop stop-color="#921806"/>
<stop offset="0.07" stop-color="#921806"/>
<stop offset="0.77" stop-color="#E21532"/>
<stop offset="1" stop-color="#E21532"/>
</linearGradient>
<linearGradient id="paint62_linear" x1="-5084.81" y1="-4327.54" x2="-4958.99" y2="-4327.54" gradientUnits="userSpaceOnUse">
<stop stop-color="#AD5140"/>
<stop offset="0.07" stop-color="#AD5140"/>
<stop offset="0.77" stop-color="#E94865"/>
<stop offset="1" stop-color="#E94865"/>
</linearGradient>
<linearGradient id="paint63_linear" x1="-3404.1" y1="-4254.18" x2="-3303.62" y2="-4254.18" gradientUnits="userSpaceOnUse">
<stop stop-color="#921806"/>
<stop offset="0.07" stop-color="#921806"/>
<stop offset="0.77" stop-color="#E21532"/>
<stop offset="1" stop-color="#E21532"/>
</linearGradient>
<linearGradient id="paint64_linear" x1="-3468.35" y1="-4285.96" x2="-3367.86" y2="-4285.96" gradientUnits="userSpaceOnUse">
<stop stop-color="#AD5140"/>
<stop offset="0.07" stop-color="#AD5140"/>
<stop offset="0.77" stop-color="#E94865"/>
<stop offset="1" stop-color="#E94865"/>
</linearGradient>
<linearGradient id="paint65_linear" x1="-997.51" y1="-4172.51" x2="-934.605" y2="-4172.51" gradientUnits="userSpaceOnUse">
<stop stop-color="#921806"/>
<stop offset="0.07" stop-color="#921806"/>
<stop offset="0.77" stop-color="#E21532"/>
<stop offset="1" stop-color="#E21532"/>
</linearGradient>
<linearGradient id="paint66_linear" x1="-1037.73" y1="-4196.47" x2="-974.825" y2="-4196.47" gradientUnits="userSpaceOnUse">
<stop stop-color="#AD5140"/>
<stop offset="0.07" stop-color="#AD5140"/>
<stop offset="0.77" stop-color="#E94865"/>
<stop offset="1" stop-color="#E94865"/>
</linearGradient>
<linearGradient id="paint67_linear" x1="-4340.03" y1="-4168.77" x2="-4227.46" y2="-4168.77" gradientUnits="userSpaceOnUse">
<stop stop-color="#921806"/>
<stop offset="0.07" stop-color="#921806"/>
<stop offset="0.77" stop-color="#E21532"/>
<stop offset="1" stop-color="#E21532"/>
</linearGradient>
<linearGradient id="paint68_linear" x1="-4412" y1="-4198.2" x2="-4299.43" y2="-4198.2" gradientUnits="userSpaceOnUse">
<stop stop-color="#AD5140"/>
<stop offset="0.07" stop-color="#AD5140"/>
<stop offset="0.77" stop-color="#E94865"/>
<stop offset="1" stop-color="#E94865"/>
</linearGradient>
<linearGradient id="paint69_linear" x1="-2571.26" y1="-4162.81" x2="-2485.22" y2="-4162.81" gradientUnits="userSpaceOnUse">
<stop stop-color="#921806"/>
<stop offset="0.07" stop-color="#921806"/>
<stop offset="0.77" stop-color="#E21532"/>
<stop offset="1" stop-color="#E21532"/>
</linearGradient>
<linearGradient id="paint70_linear" x1="-2626.28" y1="-4190.68" x2="-2540.23" y2="-4190.68" gradientUnits="userSpaceOnUse">
<stop stop-color="#AD5140"/>
<stop offset="0.07" stop-color="#AD5140"/>
<stop offset="0.77" stop-color="#E94865"/>
<stop offset="1" stop-color="#E94865"/>
</linearGradient>
<linearGradient id="paint71_linear" x1="-6197.81" y1="-1669.42" x2="-6048.09" y2="-1669.42" gradientUnits="userSpaceOnUse">
<stop stop-color="#921806"/>
<stop offset="0.07" stop-color="#921806"/>
<stop offset="0.77" stop-color="#E21532"/>
<stop offset="1" stop-color="#E21532"/>
</linearGradient>
<linearGradient id="paint72_linear" x1="-6293.54" y1="-1685.31" x2="-6143.82" y2="-1685.31" gradientUnits="userSpaceOnUse">
<stop stop-color="#AD5140"/>
<stop offset="0.07" stop-color="#AD5140"/>
<stop offset="0.77" stop-color="#E94865"/>
<stop offset="1" stop-color="#E94865"/>
</linearGradient>
<linearGradient id="paint73_linear" x1="-6260.91" y1="-4613.2" x2="-6111.2" y2="-4613.2" gradientUnits="userSpaceOnUse">
<stop stop-color="#921806"/>
<stop offset="0.07" stop-color="#921806"/>
<stop offset="0.77" stop-color="#E21532"/>
<stop offset="1" stop-color="#E21532"/>
</linearGradient>
<linearGradient id="paint74_linear" x1="-6356.63" y1="-4644.45" x2="-6206.92" y2="-4644.45" gradientUnits="userSpaceOnUse">
<stop stop-color="#AD5140"/>
<stop offset="0.07" stop-color="#AD5140"/>
<stop offset="0.77" stop-color="#E94865"/>
<stop offset="1" stop-color="#E94865"/>
</linearGradient>
<linearGradient id="paint75_linear" x1="-6272.68" y1="-4192.16" x2="-6130.1" y2="-4192.16" gradientUnits="userSpaceOnUse">
<stop stop-color="#921806"/>
<stop offset="0.07" stop-color="#921806"/>
<stop offset="0.77" stop-color="#E21532"/>
<stop offset="1" stop-color="#E21532"/>
</linearGradient>
<linearGradient id="paint76_linear" x1="-6363.85" y1="-4222.9" x2="-6221.26" y2="-4222.9" gradientUnits="userSpaceOnUse">
<stop stop-color="#AD5140"/>
<stop offset="0.07" stop-color="#AD5140"/>
<stop offset="0.77" stop-color="#E94865"/>
<stop offset="1" stop-color="#E94865"/>
</linearGradient>
<linearGradient id="paint77_linear" x1="-6221.64" y1="-1750.76" x2="-6071.92" y2="-1750.76" gradientUnits="userSpaceOnUse">
<stop stop-color="#921806"/>
<stop offset="0.07" stop-color="#921806"/>
<stop offset="0.77" stop-color="#E21532"/>
<stop offset="1" stop-color="#E21532"/>
</linearGradient>
<linearGradient id="paint78_linear" x1="-6317.36" y1="-1768.17" x2="-6167.65" y2="-1768.17" gradientUnits="userSpaceOnUse">
<stop stop-color="#AD5140"/>
<stop offset="0.07" stop-color="#AD5140"/>
<stop offset="0.77" stop-color="#E94865"/>
<stop offset="1" stop-color="#E94865"/>
</linearGradient>
<linearGradient id="paint79_linear" x1="-2290.75" y1="-4184.24" x2="-2210.25" y2="-4184.24" gradientUnits="userSpaceOnUse">
<stop stop-color="#921806"/>
<stop offset="0.07" stop-color="#921806"/>
<stop offset="0.77" stop-color="#E21532"/>
<stop offset="1" stop-color="#E21532"/>
</linearGradient>
<linearGradient id="paint80_linear" x1="-2342.21" y1="-4205.6" x2="-2261.72" y2="-4205.6" gradientUnits="userSpaceOnUse">
<stop stop-color="#AD5140"/>
<stop offset="0.07" stop-color="#AD5140"/>
<stop offset="0.77" stop-color="#E94865"/>
<stop offset="1" stop-color="#E94865"/>
</linearGradient>
<linearGradient id="paint81_linear" x1="-6320.79" y1="-2755.39" x2="-6171.08" y2="-2755.39" gradientUnits="userSpaceOnUse">
<stop stop-color="#921806"/>
<stop offset="0.07" stop-color="#921806"/>
<stop offset="0.77" stop-color="#E21532"/>
<stop offset="1" stop-color="#E21532"/>
</linearGradient>
<linearGradient id="paint82_linear" x1="-6416.51" y1="-2779.12" x2="-6266.8" y2="-2779.12" gradientUnits="userSpaceOnUse">
<stop stop-color="#AD5140"/>
<stop offset="0.07" stop-color="#AD5140"/>
<stop offset="0.77" stop-color="#E94865"/>
<stop offset="1" stop-color="#E94865"/>
</linearGradient>
<linearGradient id="paint83_linear" x1="-5848.42" y1="-2639.4" x2="-5707.18" y2="-2639.4" gradientUnits="userSpaceOnUse">
<stop stop-color="#921806"/>
<stop offset="0.07" stop-color="#921806"/>
<stop offset="0.77" stop-color="#E21532"/>
<stop offset="1" stop-color="#E21532"/>
</linearGradient>
<linearGradient id="paint84_linear" x1="-5938.73" y1="-2662.97" x2="-5797.48" y2="-2662.97" gradientUnits="userSpaceOnUse">
<stop stop-color="#AD5140"/>
<stop offset="0.07" stop-color="#AD5140"/>
<stop offset="0.77" stop-color="#E94865"/>
<stop offset="1" stop-color="#E94865"/>
</linearGradient>
<linearGradient id="paint85_linear" x1="-7466.37" y1="-4195.43" x2="-7316.65" y2="-4195.43" gradientUnits="userSpaceOnUse">
<stop stop-color="#921806"/>
<stop offset="0.07" stop-color="#921806"/>
<stop offset="0.77" stop-color="#E21532"/>
<stop offset="1" stop-color="#E21532"/>
</linearGradient>
<linearGradient id="paint86_linear" x1="-7562.1" y1="-4213.4" x2="-7412.38" y2="-4213.4" gradientUnits="userSpaceOnUse">
<stop stop-color="#AD5140"/>
<stop offset="0.07" stop-color="#AD5140"/>
<stop offset="0.77" stop-color="#E94865"/>
<stop offset="1" stop-color="#E94865"/>
</linearGradient>
<linearGradient id="paint87_linear" x1="8753.31" y1="8860.03" x2="8752.64" y2="3254.6" gradientUnits="userSpaceOnUse">
<stop stop-color="#AD5140"/>
<stop offset="0.07" stop-color="#AD5140"/>
<stop offset="0.77" stop-color="#E94865"/>
<stop offset="1" stop-color="#E94865"/>
</linearGradient>
<linearGradient id="paint88_linear" x1="11572.2" y1="14383" x2="11571.2" y2="4293.21" gradientUnits="userSpaceOnUse">
<stop stop-color="#AD5140"/>
<stop offset="0.07" stop-color="#AD5140"/>
<stop offset="0.77" stop-color="#E94865"/>
<stop offset="1" stop-color="#E94865"/>
</linearGradient>
<linearGradient id="paint89_linear" x1="3923.18" y1="6205.61" x2="3897.22" y2="2765.07" gradientUnits="userSpaceOnUse">
<stop stop-color="#AD5140"/>
<stop offset="0.07" stop-color="#AD5140"/>
<stop offset="0.77" stop-color="#E94865"/>
<stop offset="1" stop-color="#E94865"/>
</linearGradient>
<linearGradient id="paint90_linear" x1="11173.9" y1="14368.1" x2="11172.9" y2="4278.13" gradientUnits="userSpaceOnUse">
<stop stop-color="#AD5140"/>
<stop offset="0.07" stop-color="#AD5140"/>
<stop offset="0.77" stop-color="#E94865"/>
<stop offset="1" stop-color="#E94865"/>
</linearGradient>
<linearGradient id="paint91_linear" x1="4199.15" y1="6209.23" x2="4189.67" y2="2768.65" gradientUnits="userSpaceOnUse">
<stop stop-color="#AD5140"/>
<stop offset="0.07" stop-color="#AD5140"/>
<stop offset="0.77" stop-color="#E94865"/>
<stop offset="1" stop-color="#E94865"/>
</linearGradient>
<linearGradient id="paint92_linear" x1="4830.45" y1="6211.19" x2="4827.91" y2="2770.55" gradientUnits="userSpaceOnUse">
<stop stop-color="#AD5140"/>
<stop offset="0.07" stop-color="#AD5140"/>
<stop offset="0.77" stop-color="#E94865"/>
<stop offset="1" stop-color="#E94865"/>
</linearGradient>
<linearGradient id="paint93_linear" x1="4171.75" y1="6210.21" x2="4164.98" y2="2769.63" gradientUnits="userSpaceOnUse">
<stop stop-color="#AD5140"/>
<stop offset="0.07" stop-color="#AD5140"/>
<stop offset="0.77" stop-color="#E94865"/>
<stop offset="1" stop-color="#E94865"/>
</linearGradient>
<linearGradient id="paint94_linear" x1="5388.41" y1="6211.4" x2="5386.9" y2="2770.8" gradientUnits="userSpaceOnUse">
<stop stop-color="#AD5140"/>
<stop offset="0.07" stop-color="#AD5140"/>
<stop offset="0.77" stop-color="#E94865"/>
<stop offset="1" stop-color="#E94865"/>
</linearGradient>
<linearGradient id="paint95_linear" x1="4346.58" y1="6207.76" x2="4334.29" y2="2767.11" gradientUnits="userSpaceOnUse">
<stop stop-color="#AD5140"/>
<stop offset="0.07" stop-color="#AD5140"/>
<stop offset="0.77" stop-color="#E94865"/>
<stop offset="1" stop-color="#E94865"/>
</linearGradient>
<linearGradient id="paint96_linear" x1="4779.98" y1="6210.82" x2="4776.66" y2="2770.19" gradientUnits="userSpaceOnUse">
<stop stop-color="#AD5140"/>
<stop offset="0.07" stop-color="#AD5140"/>
<stop offset="0.77" stop-color="#E94865"/>
<stop offset="1" stop-color="#E94865"/>
</linearGradient>
<linearGradient id="paint97_linear" x1="6113.24" y1="7547.73" x2="6111.7" y2="3002.8" gradientUnits="userSpaceOnUse">
<stop stop-color="#AD5140"/>
<stop offset="0.07" stop-color="#AD5140"/>
<stop offset="0.77" stop-color="#E94865"/>
<stop offset="1" stop-color="#E94865"/>
</linearGradient>
<linearGradient id="paint98_linear" x1="7164.13" y1="8487.84" x2="7162.96" y2="3177.33" gradientUnits="userSpaceOnUse">
<stop stop-color="#AD5140"/>
<stop offset="0.07" stop-color="#AD5140"/>
<stop offset="0.77" stop-color="#E94865"/>
<stop offset="1" stop-color="#E94865"/>
</linearGradient>
<linearGradient id="paint99_linear" x1="-3148.01" y1="-4255.65" x2="-3051.41" y2="-4255.65" gradientUnits="userSpaceOnUse">
<stop stop-color="#921806"/>
<stop offset="0.07" stop-color="#921806"/>
<stop offset="0.77" stop-color="#E21532"/>
<stop offset="1" stop-color="#E21532"/>
</linearGradient>
<linearGradient id="paint100_linear" x1="8889.78" y1="14273.5" x2="8885.94" y2="4183.71" gradientUnits="userSpaceOnUse">
<stop stop-color="#AD5140"/>
<stop offset="0.07" stop-color="#AD5140"/>
<stop offset="0.77" stop-color="#E94865"/>
<stop offset="1" stop-color="#E94865"/>
</linearGradient>
<linearGradient id="paint101_linear" x1="-6261.34" y1="-4612.71" x2="-6111.62" y2="-4612.71" gradientUnits="userSpaceOnUse">
<stop stop-color="#921806"/>
<stop offset="0.07" stop-color="#921806"/>
<stop offset="0.77" stop-color="#E21532"/>
<stop offset="1" stop-color="#E21532"/>
</linearGradient>
<linearGradient id="paint102_linear" x1="8692.79" y1="13884.8" x2="8686.83" y2="3795.08" gradientUnits="userSpaceOnUse">
<stop stop-color="#AD5140"/>
<stop offset="0.07" stop-color="#AD5140"/>
<stop offset="0.77" stop-color="#E94865"/>
<stop offset="1" stop-color="#E94865"/>
</linearGradient>
<linearGradient id="paint103_linear" x1="-6321.45" y1="-2576.04" x2="-6171.73" y2="-2576.04" gradientUnits="userSpaceOnUse">
<stop stop-color="#921806"/>
<stop offset="0.07" stop-color="#921806"/>
<stop offset="0.77" stop-color="#E21532"/>
<stop offset="1" stop-color="#E21532"/>
</linearGradient>
<linearGradient id="paint104_linear" x1="7105.6" y1="10617.4" x2="7099.64" y2="3410.33" gradientUnits="userSpaceOnUse">
<stop stop-color="#AD5140"/>
<stop offset="0.07" stop-color="#AD5140"/>
<stop offset="0.77" stop-color="#E94865"/>
<stop offset="1" stop-color="#E94865"/>
</linearGradient>
<linearGradient id="paint105_linear" x1="-5596.81" y1="-4196.24" x2="-5464.32" y2="-4196.24" gradientUnits="userSpaceOnUse">
<stop stop-color="#921806"/>
<stop offset="0.07" stop-color="#921806"/>
<stop offset="0.77" stop-color="#E21532"/>
<stop offset="1" stop-color="#E21532"/>
</linearGradient>
<linearGradient id="paint106_linear" x1="8950.48" y1="14317.8" x2="8945.2" y2="4228.04" gradientUnits="userSpaceOnUse">
<stop stop-color="#AD5140"/>
<stop offset="0.07" stop-color="#AD5140"/>
<stop offset="0.77" stop-color="#E94865"/>
<stop offset="1" stop-color="#E94865"/>
</linearGradient>
<linearGradient id="paint107_linear" x1="-4550.45" y1="-4297.68" x2="-4431.62" y2="-4297.68" gradientUnits="userSpaceOnUse">
<stop stop-color="#921806"/>
<stop offset="0.07" stop-color="#921806"/>
<stop offset="0.77" stop-color="#E21532"/>
<stop offset="1" stop-color="#E21532"/>
</linearGradient>
<linearGradient id="paint108_linear" x1="8834.32" y1="14219.7" x2="8829.59" y2="4129.72" gradientUnits="userSpaceOnUse">
<stop stop-color="#AD5140"/>
<stop offset="0.07" stop-color="#AD5140"/>
<stop offset="0.77" stop-color="#E94865"/>
<stop offset="1" stop-color="#E94865"/>
</linearGradient>
<linearGradient id="paint109_linear" x1="-6197.81" y1="-1646.36" x2="-6048.09" y2="-1646.36" gradientUnits="userSpaceOnUse">
<stop stop-color="#921806"/>
<stop offset="0.07" stop-color="#921806"/>
<stop offset="0.77" stop-color="#E21532"/>
<stop offset="1" stop-color="#E21532"/>
</linearGradient>
<linearGradient id="paint110_linear" x1="6190.84" y1="8714.23" x2="6184.88" y2="3045.83" gradientUnits="userSpaceOnUse">
<stop stop-color="#AD5140"/>
<stop offset="0.07" stop-color="#AD5140"/>
<stop offset="0.77" stop-color="#E94865"/>
<stop offset="1" stop-color="#E94865"/>
</linearGradient>
<linearGradient id="paint111_linear" x1="-6221.71" y1="-1703.49" x2="-6071.99" y2="-1703.49" gradientUnits="userSpaceOnUse">
<stop stop-color="#921806"/>
<stop offset="0.07" stop-color="#921806"/>
<stop offset="0.77" stop-color="#E21532"/>
<stop offset="1" stop-color="#E21532"/>
</linearGradient>
<linearGradient id="paint112_linear" x1="6261.99" y1="8897.03" x2="6256.03" y2="3098.32" gradientUnits="userSpaceOnUse">
<stop stop-color="#AD5140"/>
<stop offset="0.07" stop-color="#AD5140"/>
<stop offset="0.77" stop-color="#E94865"/>
<stop offset="1" stop-color="#E94865"/>
</linearGradient>
<linearGradient id="paint113_linear" x1="-2503.64" y1="-4163.25" x2="-2418.57" y2="-4163.25" gradientUnits="userSpaceOnUse">
<stop stop-color="#921806"/>
<stop offset="0.07" stop-color="#921806"/>
<stop offset="0.77" stop-color="#E21532"/>
<stop offset="1" stop-color="#E21532"/>
</linearGradient>
<linearGradient id="paint114_linear" x1="9047.88" y1="14376.3" x2="9044.49" y2="4286.78" gradientUnits="userSpaceOnUse">
<stop stop-color="#AD5140"/>
<stop offset="0.07" stop-color="#AD5140"/>
<stop offset="0.77" stop-color="#E94865"/>
<stop offset="1" stop-color="#E94865"/>
</linearGradient>
<linearGradient id="paint115_linear" x1="-4246.73" y1="-4145.65" x2="-4137.45" y2="-4145.65" gradientUnits="userSpaceOnUse">
<stop stop-color="#921806"/>
<stop offset="0.07" stop-color="#921806"/>
<stop offset="0.77" stop-color="#E21532"/>
<stop offset="1" stop-color="#E21532"/>
</linearGradient>
<linearGradient id="paint116_linear" x1="9112.01" y1="14385" x2="9107.66" y2="4295.19" gradientUnits="userSpaceOnUse">
<stop stop-color="#AD5140"/>
<stop offset="0.07" stop-color="#AD5140"/>
<stop offset="0.77" stop-color="#E94865"/>
<stop offset="1" stop-color="#E94865"/>
</linearGradient>
<linearGradient id="paint117_linear" x1="-6460.44" y1="-4357.37" x2="-6310.72" y2="-4357.37" gradientUnits="userSpaceOnUse">
<stop stop-color="#921806"/>
<stop offset="0.07" stop-color="#921806"/>
<stop offset="0.77" stop-color="#E21532"/>
<stop offset="1" stop-color="#E21532"/>
</linearGradient>
<linearGradient id="paint118_linear" x1="8802.25" y1="14143.7" x2="8796.29" y2="4053.89" gradientUnits="userSpaceOnUse">
<stop stop-color="#AD5140"/>
<stop offset="0.07" stop-color="#AD5140"/>
<stop offset="0.77" stop-color="#E94865"/>
<stop offset="1" stop-color="#E94865"/>
</linearGradient>
<linearGradient id="paint119_linear" x1="-4062.27" y1="-4170.41" x2="-3953.77" y2="-4170.41" gradientUnits="userSpaceOnUse">
<stop stop-color="#921806"/>
<stop offset="0.07" stop-color="#921806"/>
<stop offset="0.77" stop-color="#E21532"/>
<stop offset="1" stop-color="#E21532"/>
</linearGradient>
<linearGradient id="paint120_linear" x1="9001.58" y1="14356.8" x2="8997.26" y2="4267.09" gradientUnits="userSpaceOnUse">
<stop stop-color="#AD5140"/>
<stop offset="0.07" stop-color="#AD5140"/>
<stop offset="0.77" stop-color="#E94865"/>
<stop offset="1" stop-color="#E94865"/>
</linearGradient>
<linearGradient id="paint121_linear" x1="-5523.82" y1="-2503.72" x2="-5387.71" y2="-2503.72" gradientUnits="userSpaceOnUse">
<stop stop-color="#921806"/>
<stop offset="0.07" stop-color="#921806"/>
<stop offset="0.77" stop-color="#E21532"/>
<stop offset="1" stop-color="#E21532"/>
</linearGradient>
<linearGradient id="paint122_linear" x1="7121.23" y1="10602.7" x2="7115.81" y2="3446.82" gradientUnits="userSpaceOnUse">
<stop stop-color="#AD5140"/>
<stop offset="0.07" stop-color="#AD5140"/>
<stop offset="0.77" stop-color="#E94865"/>
<stop offset="1" stop-color="#E94865"/>
</linearGradient>
</defs>
</svg>
