<svg width="24" height="24" viewBox="0 0 24 24" fill="none" xmlns="http://www.w3.org/2000/svg">
<path d="M15.7112 7.30001C15.5252 7.11198 15.2724 7.00527 15.0079 7.0032C14.7435 7.00114 14.489 7.10391 14.3002 7.28901L6.92516 14.578L3.71916 11.259C3.62803 11.164 3.51903 11.088 3.39844 11.0352C3.27784 10.9824 3.14801 10.954 3.0164 10.9515C2.88479 10.949 2.75398 10.9725 2.63148 11.0207C2.50898 11.0689 2.3972 11.1408 2.30255 11.2323C2.20791 11.3238 2.13225 11.4331 2.07993 11.5539C2.02762 11.6747 1.99966 11.8046 1.99767 11.9362C1.99568 12.0678 2.0197 12.1986 2.06835 12.3209C2.117 12.4432 2.18932 12.5547 2.28116 12.649L6.19016 16.7C6.28277 16.7945 6.39322 16.8697 6.51509 16.9212C6.63697 16.9727 6.76785 16.9995 6.90016 17H6.91116C7.17336 16.9992 7.42474 16.8954 7.61116 16.711L15.7022 8.71101C15.8899 8.5248 15.9963 8.2718 15.998 8.00736C15.9996 7.74293 15.8965 7.4886 15.7112 7.30001Z" fill="#E0E0E0"/>
<path d="M12.19 16.7C12.2823 16.7942 12.3925 16.8693 12.514 16.9208C12.6355 16.9723 12.766 16.9992 12.898 17H12.909C13.1712 16.9992 13.4225 16.8954 13.609 16.711L21.7 8.711C21.8684 8.52136 21.9585 8.27481 21.9519 8.02126C21.9454 7.76772 21.8428 7.52612 21.6649 7.34538C21.4869 7.16464 21.247 7.05827 20.9935 7.0478C20.7401 7.03734 20.4922 7.12355 20.3 7.289L12.928 14.578L12.665 14.305C12.5738 14.21 12.4648 14.1339 12.3442 14.0812C12.2236 14.0284 12.0938 14 11.9622 13.9975C11.8306 13.995 11.6998 14.0185 11.5773 14.0667C11.4548 14.1149 11.343 14.1868 11.2484 14.2783C11.1537 14.3698 11.0781 14.4791 11.0257 14.5999C10.9734 14.7207 10.9455 14.8506 10.9435 14.9822C10.9415 15.1138 10.9655 15.2445 11.0142 15.3669C11.0628 15.4892 11.1351 15.6007 11.227 15.695L12.19 16.7Z" fill="#E0E0E0"/>
</svg>
