<svg width="37" height="37" viewBox="0 0 37 37" fill="none" xmlns="http://www.w3.org/2000/svg">
<path d="M2.07957 28.9436H3.70215C4.59046 28.9436 5.13474 29.4314 5.13474 30.2375C5.13474 31.0642 4.62127 31.5366 3.73296 31.5366H2.07957V28.9436ZM2.07957 32.5173H3.70215L5.21177 35.3415H6.54166L4.87801 32.3274C5.78172 32.0193 6.31574 31.208 6.31574 30.2118C6.31574 28.8203 5.35554 27.932 3.86133 27.932H0.929389V35.3415H2.07957V32.5173ZM10.0183 30.5815C10.8347 30.5815 11.3687 31.1515 11.3944 32.0295H8.57027C8.63189 31.1566 9.20184 30.5815 10.0183 30.5815ZM11.3892 33.8318C11.1839 34.2683 10.7269 34.5096 10.0593 34.5096C9.17617 34.5096 8.60621 33.8883 8.57027 32.9076V32.846H12.5189V32.4609C12.5189 30.7048 11.5792 29.6419 10.0234 29.6419C8.44704 29.6419 7.44576 30.7767 7.44576 32.5636C7.44576 34.3504 8.4265 35.4493 10.0285 35.4493C11.3071 35.4493 12.2005 34.8331 12.4521 33.8318H11.3892ZM18.6399 31.5777C18.4961 30.4583 17.6489 29.6419 16.2471 29.6419C14.6194 29.6419 13.6284 30.7356 13.6284 32.5276C13.6284 34.3504 14.6245 35.4493 16.2522 35.4493C17.6335 35.4493 18.4961 34.6688 18.6399 33.5443H17.5667C17.423 34.1451 16.9454 34.4634 16.2471 34.4634C15.328 34.4634 14.758 33.7394 14.758 32.5276C14.758 31.3364 15.3228 30.6278 16.2471 30.6278C16.9865 30.6278 17.4384 31.0334 17.5667 31.5777H18.6399ZM22.327 35.4493C23.9599 35.4493 24.9611 34.3556 24.9611 32.543C24.9611 30.7407 23.9547 29.6419 22.327 29.6419C20.6942 29.6419 19.6878 30.7407 19.6878 32.543C19.6878 34.3556 20.689 35.4493 22.327 35.4493ZM22.327 34.4685C21.3668 34.4685 20.8277 33.7651 20.8277 32.543C20.8277 31.3312 21.3668 30.6226 22.327 30.6226C23.2821 30.6226 23.8264 31.3312 23.8264 32.543C23.8264 33.76 23.2821 34.4685 22.327 34.4685ZM26.353 35.3415H27.457V32.0398C27.457 31.2542 28.0475 30.7253 28.8845 30.7253C29.0796 30.7253 29.4082 30.7613 29.5006 30.7921V29.7035C29.3825 29.6727 29.172 29.6573 29.0077 29.6573C28.2786 29.6573 27.6573 30.0578 27.4981 30.6072H27.4159V29.7497H26.353V35.3415ZM32.5254 35.4339C33.2956 35.4339 33.9477 35.0693 34.2815 34.4583H34.3688V35.3415H35.4265V27.5675H34.3225V30.638H34.2404C33.9374 30.0219 33.2905 29.6573 32.5254 29.6573C31.1133 29.6573 30.2045 30.7767 30.2045 32.543C30.2045 34.3145 31.1031 35.4339 32.5254 35.4339ZM32.8386 30.6483C33.7629 30.6483 34.3431 31.3826 34.3431 32.5482C34.3431 33.7189 33.768 34.4429 32.8386 34.4429C31.9041 34.4429 31.3444 33.7291 31.3444 32.543C31.3444 31.3672 31.9092 30.6483 32.8386 30.6483Z" fill="#494949"/>
<path d="M23.9478 8.92925L13.2741 2.57641C13.1438 2.49973 13.0096 2.45372 12.8562 2.45372C12.4383 2.45372 12.0971 2.79877 12.0971 3.22051H12.0933V16.4093H12.0971C12.0971 16.831 12.4383 17.1761 12.8562 17.1761C13.0134 17.1761 13.1438 17.1224 13.2856 17.0457L23.9478 10.7005C24.2009 10.4897 24.3619 10.1714 24.3619 9.81489C24.3619 9.45833 24.2009 9.14395 23.9478 8.92925Z" fill="#494949"/>
</svg>
